<svg xmlns="http://www.w3.org/2000/svg" viewBox="0 0 789.21 293.16"><defs><style>.cls-1{font-size:72px;font-family:GTPressuraTrial-Bold, GT Pressura Trial;font-weight:700;letter-spacing:0.2em;}.cls-1,.cls-3,.cls-4{fill:#fff;}.cls-2{letter-spacing:0.22em;}.cls-4{fill-rule:evenodd;}.cls-5{fill:none;stroke:#000;stroke-miterlimit:10;stroke-width:5px;}</style></defs><title>Element 3</title><g id="Ebene_2" data-name="Ebene 2"><g id="Ebene_2-2" data-name="Ebene 2"><text class="cls-1" transform="translate(462.27 275.32) scale(0.97 1)">hack<tspan class="cls-2" x="203.83" y="0">s</tspan></text><path class="cls-3" d="M63.46,151.05c.45,1.4,1.81,1.4,2.26,0L96.89,35.46c.68-2.81,2.26-4,4.74-4h23a4.61,4.61,0,0,1,4.52,4.68V190.6a4.61,4.61,0,0,1-4.52,4.68h-12a4.61,4.61,0,0,1-4.52-4.68V73.6c0-1.4-1.58-1.4-1.81-.47L74.08,191.3c-.9,2.81-2.26,4-4.74,4H59.85c-2.48,0-3.84-1.17-4.74-4L22.81,73.13c-.23-.94-1.81-.94-1.81.47v117a4.61,4.61,0,0,1-4.52,4.68h-12A4.61,4.61,0,0,1,0,190.6V36.16a4.61,4.61,0,0,1,4.52-4.68h23c2.48,0,4.07,1.17,4.74,4Z"/><path class="cls-3" d="M396.38,75c0,10.76-4.3,23.87-12.88,31.58-1.81,1.64-1.81,3.74,0,5.15,9.26,7.73,16,22.47,16,35.81a47.23,47.23,0,0,1-47.44,47.72H310.29a4.61,4.61,0,0,1-4.52-4.68l0-154.44a4.61,4.61,0,0,1,4.52-4.68h41.78C376.52,31.49,396.38,49.75,396.38,75ZM352.1,98.87c14.68,0,22.81-10.29,22.82-23.86,0-13.81-11.06-21.3-22.8-21.3h-23A2.17,2.17,0,0,0,326.82,56V96.53a2.17,2.17,0,0,0,2.26,2.34Zm-23,21.05c-1.13-.7-2.26.93-2.26,2.34l0,48.44A2.17,2.17,0,0,0,329,173h23c14,0,26-11.46,26-25.5,0-16.38-12-27.62-26-27.62Z"/><path class="cls-3" d="M433.4,191.77c0,1.93-2,3.5-4.52,3.5H416.46c-2.48,0-4.52-1.58-4.52-3.5V76.1c0-1.93,2-3.51,4.52-3.51h12.42c2.48,0,4.52,1.58,4.52,3.51Z"/><path class="cls-3" d="M476.31,170.71a2.17,2.17,0,0,0,2.26,2.34h50.59a4.61,4.61,0,0,1,4.52,4.68V190.6a4.61,4.61,0,0,1-4.52,4.68H459.37a4.61,4.61,0,0,1-4.52-4.68V36.16a4.61,4.61,0,0,1,4.52-4.68H471.8a4.61,4.61,0,0,1,4.52,4.68Z"/><path class="cls-3" d="M564.17,192.19c0,1.7-2,3.09-4.52,3.09H547.23c-2.48,0-4.52-1.39-4.52-3.09V90.36c0-1.7,2-3.09,4.52-3.09h12.42c2.48,0,4.52,1.39,4.52,3.09Z"/><path class="cls-3" d="M639.66,56.05V190.6a4.61,4.61,0,0,1-4.52,4.68H622.72a4.61,4.61,0,0,1-4.52-4.68V56.05a2.17,2.17,0,0,0-2.26-2.34h-30A4.61,4.61,0,0,1,581.39,49V36.16a4.61,4.61,0,0,1,4.52-4.68h85.82a4.61,4.61,0,0,1,4.52,4.68V49a4.61,4.61,0,0,1-4.52,4.68H641.92A2.17,2.17,0,0,0,639.66,56.05Z"/><circle class="cls-3" cx="554.17" cy="51.59" r="15.63"/><path class="cls-3" d="M739,110.82c.45,1.17,1.36,1.17,1.81,0l26.2-76c.9-2.57,2.26-3.51,4.29-3.51h13.33c3.61,0,5.19,3,4.29,5.38L731.6,191.54c-.9,2.57-2.26,3.51-4.29,3.51h-12.2c-3.61,0-5.19-3-4.29-5.38l16.71-47.73a3.61,3.61,0,0,0,.23-3L688.91,36.64c-.9-2.34.68-5.38,4.29-5.38H707c2,0,3.39.94,4.29,3.51Z"/><path class="cls-3" d="M217,65.53a68.16,68.16,0,1,0,68.16,68.16A68.16,68.16,0,0,0,217,65.53Zm0,118.34a49,49,0,1,1,49-49A49,49,0,0,1,217,183.87Z"/><path class="cls-4" d="M238.13,104.56c2.47,1.29.68-.43,2,2l-1,1h-1Z"/><path class="cls-4" d="M221.41,110.43c2.47,1.29.68-.43,2,2h-1c-1,.8-.27.36-2,1Z"/><path class="cls-4" d="M199.32,152.06l-3.41,2.09-1-1.71a12.66,12.66,0,0,0,2.89-2.94Z"/><path class="cls-4" d="M199.79,147.08c.07-.46-.6-2,1.18-1.9C201.14,146.39,201.08,148.77,199.79,147.08Z"/><path class="cls-4" d="M203.39,147.22c.45-1.22,0-.45,1.18-1.9l.52.85Z"/><path class="cls-4" d="M215.49,178.25c-1-2.87-.87-.15-.15-3.1.51-1-.36-.89.74-.81l.74-.81c-.1,1.42.09.48-.66,2.36C216.06,177.31,216.24,176.37,215.49,178.25Z"/><path class="cls-4" d="M209,172.34a9.49,9.49,0,0,1,.51-5.46c2.86,2.84,2.49,2.21,6.42,4.35l-1.48,1.62C211,171,212,171.46,209,172.34Z"/><path class="cls-4" d="M214.65,182.48l1.74-1.92c-2.32-2.05-3.18-4.32.81-8.59-.35-2.22,1.12-.34-.12-2.44-.52-.31,0-.28-1.86-.52L217,167.1c1.15.4.49.41,1.22-.06.38-3.06-1.27-.91-.18-3.66,2.64,0,3.58-1.28,4.82-1.45-.17-.91-1.23-2.68-1.39-3.6,1.15.4.49.41,1.22-.06.33-3.31-1.87-1,1-4.93.23-1.21.49-.71,2.32-2.55l-1.22.06c-1.61.78.52-1.86.52-1.86l1.92,1.74c-1.09,2.42-.91,3.27-.35,5.51l2.9-3.19a9.45,9.45,0,0,1-.76-3c-2.33-1.24-3.44-1.12-5.57-1.56l1.16-1.28c2.37.65,2.47,1,4.87-.23-2.53-2.18-3.45-2.65-4.47-4.06l.58-.64,5.05,3.42.58-.64c-2-1.83-1.84.3-1.34-2.38,1.11-.44.17-1.67,2.32-2.55,1.88-.78,4.95.41,7.31-.35l-.64-.58-2.44.12a10.92,10.92,0,0,0,1.68-3.13c-2.32-2.24-2.26-.65-.18-3.66-2.32-2.55.18-3-2.55-2.32l-.64-.58-1.16,1.28-.06-1.22c-1.71-1.34-5.69-6-5.28-8.3l3.83,3.48c.25,1.1.26.93,1.34,2.38,2.59-1,3.43-1,6.09-.29l1.16-1.28a10.92,10.92,0,0,1-2-3c2.6-1,3.79-1.63,5.45-.87l-.58.64,1.22-.06-.23-4.87c1.54,1,1.37,1,2.5,1.1l-.64-.58c-.19-1.11,0-.39-.7-1.8-2.26.82-.12.68-2.44.12l2.32-2.55a15.56,15.56,0,0,0,4.29.4c.08-1.12-.07-.38.52-1.86-1.05-2.16-2.11-2.09-.87-5.45l4.87-.23,1.22-.06c-1.84,2-1.86-.12-1.1,2.5l1.22-.06c.75-1.95.36-2.68,1.68-3.13l.58-.64.64.58c-1,1.54-1,1.37-1.1,2.5,2.26-.82.12-.68,2.44-.12-1.94,1.67-2.48.16-1.68,3.13.34,1.18.55.66,2.55,2.32-2.67,2.77-3.08,7.78-2.55,10.5l4.76-2.67.64.58L261.92,124c-1.18.22-1.55.81-1.74,1.92l2.44-.12c-.73,2.9,1.26,6.8.47,9.75l-3,2,1.92,1.74c1.67.42.14-.13,1.28,1.16l-.46,3.08c-2.33-.6-.19-.67-2.44.12.88,1.83,1.54,2.94,1.45,4.82-2.67-1-3.79,1.59-6.56,3.37l-.18-3.66a12.39,12.39,0,0,1-3.54,2.61l-.7-1.8-.58.64.06,1.22-1.28-1.16c-.19-1.11,0-.39-.7-1.8l-1.74,1.92a19,19,0,0,1,3.43,7.77,22.18,22.18,0,0,1-2,9.87l2.55,2.32-.58.64-.64-.58c-2.09.4-.59-1.18-3,.76-1.59.14-1.9.34-3.6,1.39,2,3.7-.24,6.63-.75,9.81-2.33-.6-.19-.67-2.44.12l-.64-.58,1.16-1.28-1.22.06c-1.11.19-.39,0-1.8.7l.06,1.22c2,1.11,1.48.81,3.19,2.9-2.4,4.79-4,4.75-5.68,8.82-2.57-2-2.84-1.67-5-2.2,1-1.54,1-1.37,1.1-2.5-1.84-.25-1.13-1-2.5-1.1l-1.22.06c1.39,1.71,1.34.54-.46,3.08-1.45-1.32-1-1.33-3.71-1-1.21-1.81-.53-3.22-2-3l-1.22.06c1.67,1.51,1.32-.32,1.34,2.38C217.52,186.68,218,186.14,214.65,182.48Z"/><path class="cls-4" d="M216.59,168.87c-1-3-1.32-2.07.51-5.46l.81.74-1.48,1.62C217.5,168.64,217.32,165.93,216.59,168.87Z"/><path class="cls-4" d="M214,163.56l-1.62-1.48,1.48-1.62,1.62,1.48Z"/><path class="cls-4" d="M218.81,166.44c-.39-2.73-1.88-4.29,1.4-3.17l-.74.81C219.37,165.5,219.56,164.56,218.81,166.44Z"/><path class="cls-4" d="M217.11,163.41l-1.62-1.48.74-.81C217.18,162.93,216.87,162,217.11,163.41Z"/><path class="cls-4" d="M228.84,165.18c.32-2.17-.65-2.17,1.48-1.62Z"/><path class="cls-4" d="M218.8,150.13c-.52-2.13.44-2.23-1.62-1.48Z"/><path class="cls-4" d="M225,149.83c-2-1.23-1.74-1.22-3.17-1.4l1,3.84Z"/><path class="cls-4" d="M226.77,154.4c.1-1.42-.09-.48.66-2.36l.81.74Z"/><path class="cls-4" d="M232.23,154.92l-1.7-3,1.48-1.62,1.62,1.48Z"/><path class="cls-4" d="M212.29,128.3c4.15-3.34,3.18-3.28,8-6.07a29.57,29.57,0,0,0,7.4,2.51c.79,6.93,0,12-8.43,16.88l-1-1.71c1.58-1.4,1.51-1.21,2-2.42a14.36,14.36,0,0,1-4.79,1.76C214.83,130.65,217.73,134.44,212.29,128.3Z"/><path class="cls-4" d="M250.41,85.8c.94,1.67.5,1.52,0,3.36h.84c1.75-1,1.8,1,4.2,0,1.37-.59,1.5-2.51,3.36-3.36v.84A16.44,16.44,0,0,0,257.13,90H258l1.68-1.68v.84h.84a24.74,24.74,0,0,0-2.52,5h-1.68c-.31-1.74-.2-1.62-.84-2.52l-.84.84c-.58,2.09.76,4.73-.84,7.56-.57,1-1.68.6-2.52,3.36,1.9-.34.91-.77,2.52,0-3.46,2.2-1.82,3.64-5.88,5-.46-3.7-.72-4.22-2.52-7.56,1.74-.31,1.62-.2,2.52-.84-1.74-1.45-2.85-4.11-3.36-6.72-.05-.7,1.12-4.14,1.68-6.72H247c1,1.74.57,1.58,2.52,2.52A10.64,10.64,0,0,1,250.41,85.8Z"/><path class="cls-4" d="M239.48,124.45c-4.6-.4-12.3-2.61-13.45-5,1.11-1.77-.86-3.05,1.68-4.2,1.22,2.14-.18.95,2.52,1.68v-1.68c-2.2-.32-1.1.62-1.68-1.68h1.68c1.14,1.06,1.49,1.15,3.36,1.68v.84h-2.52v4.2l.84.84h1.68c1.63-4.61,2.63-5.31,4.2-9.24-2.07-1.09-.57.36-1.68-1.68,3.82.71,6-2.81,7.56-5.88l.84.84h.84l-.84,1.68h.84c1.48-.79,0-.19,1.68,0l-.84,2.52c2.95.6,3.18.95,4.2,3.36l-.84.84c-1.68,0-.24-.86-1.68,0l-.84.84c1.87-.33,2.15-.9,3.36,0,1.75,1.85,1.44,3.1,4.2,4.2-.86.68-.23.3-1.68.84-1,1.93-1.46,1.63-3.36,2.52-.25-2.69-.17-3.38-.84-4.2-.89,2.47-1.78,4.77-2.52,7.56h-.84c-.31-1.74-.2-1.62-.84-2.52v2.52c2.26,1.15,3.42.9,4.2,2.52l.84.84c-2.41.94-1.55.15-2.52,2.52-.68-.86-.3-.23-.84-1.68-2.38-1.84-3.13-3.58-5-5.88-.35,3,.4,2.11-1.68,3.36Z"/><path class="cls-4" d="M202.51,105.13c.63.9.51.79.84,2.52h-.84Z"/><path class="cls-4" d="M216,106c2,1.73.18.8.84,2.52C215.27,109,216.11,106.78,216,106Z"/><path class="cls-4" d="M252.93,106.81h1.68v1.68h-1.68Z"/><path class="cls-4" d="M196.63,107.65h1.68v.84C196.83,108,197.49,108.32,196.63,107.65Z"/><path class="cls-4" d="M258.81,107.65c.68.86.3.23.84,1.68h-.84Z"/><path class="cls-4" d="M229.4,108.49h1.68C230.08,109.84,230.73,109.52,229.4,108.49Z"/><path class="cls-4" d="M252.93,109.33h1.68l-.84.84V111C253.09,110.15,253.47,110.78,252.93,109.33Z"/><path class="cls-4" d="M212.59,111h1.68C213.27,112.36,213.92,112,212.59,111Z"/><path class="cls-4" d="M225.2,111a3.38,3.38,0,0,1,0,4.2Z"/><path class="cls-4" d="M207.55,113.53c-.28,1.56.61,1-1.68,1.68v-.84C207.34,113.84,206.69,114.21,207.55,113.53Z"/><path class="cls-4" d="M242.84,113.53l-.84,2.52h1.68v-.84c.68-.86.3-.23.84-1.68Z"/><path class="cls-4" d="M195.79,115.21c.94,1.4,1.49.9,0,1.68Z"/><path class="cls-4" d="M247,115.21c.27,1.86-.87.91.84,1.68C247.36,115.42,247.72,116.07,247,115.21Z"/><path class="cls-4" d="M218.47,116.89l1.68.84c.9.1-2.9.78-3.36.84v-.84C218.27,117.2,217.61,117.57,218.47,116.89Z"/><path class="cls-4" d="M237,116.89c.36.29,2,3,2.52.84A8.73,8.73,0,0,0,237,116.89Z"/><path class="cls-4" d="M232.76,117.73h1.68l-.84.84v.84C232.92,118.55,233.3,119.18,232.76,117.73Z"/><path class="cls-4" d="M207.55,121.93c1.36,1.13.94.54,1.68,2.52C206.22,124.08,206.65,124.82,207.55,121.93Z"/><path class="cls-4" d="M191.58,135.38c-.22-4.56-1.67-6.41-3.36-9.24l1.68-1.68,1.68,1.68c1.65.74,2.45-3.62,4.2-1.68h.84l-.84.84c-1.77,2.64-2.49,1.11-3.36,3.36,2.73,1.31-.09.48,1.68,2.52l2.52,2.52c-.71-2.61-1.64-2.28-.84-4.2v-1.68h.84c.16,2,.16,2.37.84,3.36.6-.48,0-1.21,1.68-.84v.84c-2.11,2.49-1.15,4.83-5,5.88C192.88,134.92,194.29,136.11,191.58,135.38Z"/><path class="cls-4" d="M205,124.45c.68.86.3.23.84,1.68H205Z"/><path class="cls-4" d="M215.11,124.45c.68.86.3.23.84,1.68h-.84Z"/><path class="cls-4" d="M246.56,165.06c-1.74-.31-1.62-.2-2.52-.84.94-1.24,1.75-2.56.84-3.36-1.09-1.78-4.13-2.46-5.88-3.36.66-1.77,0-1.52.84-2.52,1.86-1.84,2.52-1,3.36-4.2,0,0-3.28-.16-1.68-.84h1.68l1.68-1.68c1.3,1,.71.91,2.52,1.68-.3-2.48-1.68-1.74.84-3.36l1.68,1.68v-2.52H244c.24,2.06.55.4,0,2.52-4.74-.73-3.8,2.2-7.56,4.2l-.84-2.52h2.52c-.33-3.45-1.91-5,.84-6.72v.84c1.71,2.06-1,1.22,1.68,2.52v-3.36c-1.64-1.1-1-5.29,1.68-6.72.31,1.74.2,1.62.84,2.52,0,0,.37-3.34.84-1.68v.84c1.29,2.09-.87,4.07,4.2,5,0-2.66-1.2-1.57,1.68-2.52l-.84,2.52c2.38.25,3.67.56,5,1.68-2.73.7-1.28-.41-2.52,1.68,1.15,1.23-1,.36,0,1.68,1.93,1,2.34.49,5,0v-.84c-1.36-1.13-.94-.54-1.68-2.52,2.78-.56,2-.84,4.2-1.68v3.36c-1.47.53-.82.16-1.68.84h1.68l1.68-1.68v1.68c.67,1,.65,1.41.84,3.36h-.84s-.37-3.34-.84-1.68v.84c-2,.71-1.38.34-2.52,1.68-.63,1-.11.83,0,3.36-2,.71-1.38.34-2.52,1.68l-2.52-.84v-1.68c1.93-1,1.63-1.46,2.52-3.36h-.84c-1.58.72-.62.4-2.52,0a10.64,10.64,0,0,1-.84,3.36h-1.68c.34-1.9.77-.91,0-2.52v.84c-.57.65-1.1,1.88-1.68,2.52-.16-2-.16-2.37-.84-3.36l-.84,5.88h.84c.31-1.74.2-1.62.84-2.52v1.68c2.07,1.09.57-.36,1.68,1.68-.68.86-.3.23-.84,1.68l-1.68-1.68V160C246.8,160.63,246.64,162.45,246.56,165.06Z"/><path class="cls-4" d="M204.19,126.13c2.37,1.52,3.81,2.92,6.72,4.2-.74,1.89-1.49,2.17-.84,3.36l3.36,5.88h-.84c-.9.63-.79.51-2.52.84-2.06-1.71-1.22,1-2.52-1.68-2.86-2-2.73-5-2.52-10.08C204.4,127.75,204.52,127.86,204.19,126.13Z"/><path class="cls-4" d="M226.88,126.13c.81,1.19.82,2.75.84,5,1.9-.34.91-.77,2.52,0-.66,1.64.95,2.59,0,3.36-1.13,1.36-.54.94-2.52,1.68-.65-4.64-1.94-5.5-2.52-9.24C226.67,126.44,226,126.81,226.88,126.13Z"/><path class="cls-4" d="M210.91,127h1.68v.84C211.12,127.28,211.78,127.65,210.91,127Z"/><path class="cls-4" d="M213.43,127.81c1.36,1.13.94.54,1.68,2.52l-.84.84h-.84Z"/><path class="cls-4" d="M231.92,127.81h1.68l-.84.84v.84C232.08,128.64,232.46,129.27,231.92,127.81Z"/><path class="cls-4" d="M217.63,129.5c2.26.9,3.38.1,4.2,4.2.21.81.66.32,0,.84a16,16,0,0,1-3.36,2.52,10.64,10.64,0,0,0-.84-3.36c2-.71,1.38-.34,2.52-1.68-2.13-.06-3.12-.1-4.2-.84C218,130.09,216.53,131.54,217.63,129.5Z"/><path class="cls-4" d="M247.89,129.5c1.74.31,1.62.2,2.52.84C248.66,130,248.79,130.13,247.89,129.5Z"/><path class="cls-4" d="M200,131.18c.68.86.3.23.84,1.68H200Z"/><path class="cls-4" d="M201.67,132c1.13,1.41,1.38,2.64,1.68,5h-.84v-.84C201.77,135.13,201.76,134.15,201.67,132Z"/><path class="cls-4" d="M262.17,132.86h1.68v.84C262.38,133.17,263,133.54,262.17,132.86Z"/><path class="cls-4" d="M225.55,142.26h1.68c-.64,3.26,1.17,4.29,2.52,7.56l-1.68.84v.84l-1.68-.84v.84c.44.88.74,2.39,1.68,4.2-2.72,1.05-2.9,2.68-5,4.2-.32-3.78-1.1-3.62-2.52-5.88l.84-.84c2.46.33,1.05,1.37,2.52-.84l-.84-.84c-2.53.78-1.38,1.71-3.36.84-2.6-1-1.9-.32-2.52-3.36l.84-.84h.84c.7,2.73-.41,1.28,1.68,2.52,1-2.27,3.26-2.4,4.2-4.2C225.51,144.91,224,145,225.55,142.26Z"/><path class="cls-4" d="M256.29,133.7a9.73,9.73,0,0,1,1.68,2.52h-1.68Z"/><path class="cls-4" d="M254.61,139.58c2.71.93,2.8,1.06,5,1.68,0,2.53-.21,1.12,1.68,3.36h-2.52C257,142.71,255.64,142.51,254.61,139.58Z"/><path class="cls-4" d="M209.23,142.94c.29.25,1.68.44.84,1.68C209.13,144.21,207.45,143.13,209.23,142.94Z"/><path class="cls-4" d="M230.24,154.71c-.21-2.52-.38-4.37-.84-5v-.84l-2.52,2.52v-4.2l1.68-1.68c-2.23-1-1.51.75-2.52-1.68h1.68c1-.69,1-.39,3.36-.84v1.68c-.67,1-.65,1.41-.84,3.36,2.23,1,1.51-.75,2.52,1.68-.73.86-.82,1.21-1.68,3.36h1.68c1.09-2.07-.36-.57,1.68-1.68v2.52h-1.68C231.86,154.5,232,154.37,230.24,154.71Z"/><path class="cls-4" d="M252.93,142.94h1.68v1.68h-1.68Z"/><path class="cls-4" d="M265.86,133.27C271,140,261.17,145,254.51,150.91c-4.75-1.43-7.83-2.4-11.34-4.41C258.38,144.42,260,140.27,265.86,133.27Z"/><path class="cls-4" d="M241.16,179.92v-3.36h-2.52c-.32,2.2.62,1.1-1.68,1.68a12.07,12.07,0,0,1-.84,4.2h-.84c-.31-1.74-.2-1.62-.84-2.52v1.68l-.84.84c2.75,1.27,1.65.17,1.68,2.52,2.19.24,1.65,0,1.68,4.2-1.83.74-3,1.11-4.2,2.52-2.63-1.26-3.74-.76-6.72-1.68.31,2,.53,1.29,0,3.36a11.89,11.89,0,0,0-3.36-.84V190c-2,.06-1.45.75-3.36-.84,1.47-.53.82-.16,1.68-.84-2-.71-1.38-.34-2.52-1.68H221c-.7-2.73.41-1.28-1.68-2.52-.53,1.47-.16.82-.84,1.68-.39-3.54-1.4-4.15-3.36-5.88,1-1.75,2.33-4,4.2-5,.73-.64,6.51-.16,9.24-2.52a13.07,13.07,0,0,1-4.2-3.36h2.52c-.49-5.65,0-7.53-.84-12.61,1.74.31,1.62.2,2.52.84h.84c.09,3.8.5,2.28-.84,5h1.68a18,18,0,0,1,1.68-4.2c2.35.87,1.76,1.28,5,1.68-.7-2.85-.42-2.61.84-5l4.2.84V153c2.21-.64,2-1,4.2-1.68,1.54,2.63,3.85,5,5,3.36,1.63-1.71,1-2.5.84-6.72h2.52c.31,1.74.2,1.62.84,2.52.94-1.76,1.21-1.54,1.68-4.2l-1.68-1.68h1.68c1,2,2.15,4,4.2,5v-.84l.84.84,1.68,1.68a14.87,14.87,0,0,1-1.68,3.36c-1.44,1.41-3.1,2.24-4.2,1.68-.68-.86-.3-.23-.84-1.68,1.47-.53.82-.16,1.68-.84a11.89,11.89,0,0,0-3.36-.84c.54,1.84,1.07,2.46,0,4.2-1.13-1.36-.54-.94-2.52-1.68l-.84.84v.84c2.85-.05,4.23.29,6.72,2.52H258c-.76.63-2.45.95-4.2,2.52,3.21.61,2.38,1,4.2,2.52v1.68h-1.68l-.84.84c.07-3.41,1.37-2-.84-3.36-1.51.75-1.52.25-4.2,0v.84c2.19,1.13,2.58,2.51,1.68,4.2-3.13,2.29-3-.51-4.2,1.68a35.58,35.58,0,0,0-1.68,5.88c2.73.7,1.28-.41,2.52,1.68H247C244.26,176.9,244.39,179,241.16,179.92Z"/><path class="cls-4" d="M216,145.46h1.68v.84C216.16,145.77,216.82,146.14,216,145.46Z"/><path class="cls-4" d="M251.6,152.46c.68.86.3.23.84,1.68h-.84Z"/><path class="cls-4" d="M269.74,147.14c.68.86.3.23.84,1.68h-.84Z"/><path class="cls-4" d="M265.53,148c.72,1.58.4.62,0,2.52h-.84Z"/><path class="cls-4" d="M194.1,151.34l2.52.84v1.68h-1.68Z"/><path class="cls-4" d="M225.2,153.87c2,1.73.18.8.84,2.52C224.51,156.9,225.35,154.68,225.2,153.87Z"/><path class="cls-4" d="M265.53,153.87c2.41,2.49-1,3-.84,3.36C263,155.84,265.12,155.82,265.53,153.87Z"/><path class="cls-4" d="M210.91,159.75c.31-1.74.2-1.62.84-2.52,1.4-1.62,1.54-1.93,4.2-2.52v1.68c-.59,1.3-.11.11,0,2.52C211,158.26,215.36,159.43,210.91,159.75Z"/><path class="cls-4" d="M243.68,155.55l-2.52,2.52H242c1.87-1.36,2.46-1.18,4.2-.84C245.07,155.86,245.67,156.28,243.68,155.55Z"/><path class="cls-4" d="M237.8,156.39l.84,2.52h.84C238.78,156.9,239.15,157.53,237.8,156.39Z"/><path class="cls-4" d="M260.49,157.23c2.07,1.09.57-.36,1.68,1.68-.54.72-1.12,2.64-1.68,3.36v-.84C259.75,159.92,260.24,159.91,260.49,157.23Z"/><path class="cls-4" d="M268.9,157.23c.29.25,1.68.44.84,1.68C268.8,158.5,267.12,157.41,268.9,157.23Z"/><path class="cls-4" d="M223.52,158.07c2.14,1.22.95-.18,1.68,2.52h-1.68Z"/><path class="cls-4" d="M245.37,158.91c-.9.63-.79.51-2.52.84.24,2.06.55.4,0,2.52l-2.52-.84c0,3.28.42,3.78-1.68,5-1.38-1.71-1,.59-1.68-1.68l1.68-1.68c-2-.59-1.88-.86-3.36-1.68-.27,3.67-1.19,7.59,0,8.4v1.68h.84a10.64,10.64,0,0,1,.84-3.36c2,1.18.49,1.43,2.52.84C241.71,166.92,246.59,160.16,245.37,158.91Z"/><path class="cls-4" d="M213.43,160.59c3.33.71,2.88-.83,3.36,3.36H216c-.53-1.47-.16-.82-.84-1.68-.7,2.73.41,1.28-1.68,2.52v-.84C214.22,162.35,213.75,163,213.43,160.59Z"/><path class="cls-4" d="M225.2,160.59c.68.86.3.23.84,1.68h-.84Z"/><path class="cls-4" d="M237.8,160.59v1.68h.84v-1.68Z"/><path class="cls-4" d="M247,162.27c-.86.68-.23.3-1.68.84v.84h2.52C247.36,162.48,247.72,163.13,247,162.27Z"/><path class="cls-4" d="M211.75,163.11h1.68l-.84.84v.84C211.92,163.93,212.29,164.56,211.75,163.11Z"/><path class="cls-4" d="M231.08,163.11c.3,1.52-.15,2.63.84,4.2.86-.68.23-.3,1.68-.84v-2.52Z"/><path class="cls-4" d="M263.85,163.95h1.68v.84C264.06,164.26,264.72,164.63,263.85,163.95Z"/><path class="cls-4" d="M268.05,163.95c1.36,1.13.94.54,1.68,2.52h-1.68Z"/><path class="cls-4" d="M210.91,164.79c1.05,1,2.75,1.79,1.68,2.52-.86.68-.23.3-1.68.84Z"/><path class="cls-4" d="M247,166.47v1.68h1.68v-1.68Z"/><path class="cls-4" d="M258,166.47c.68.86.3.23.84,1.68H258Z"/><path class="cls-4" d="M216.79,167.31c.68.86.3.23.84,1.68h-.84Z"/><path class="cls-4" d="M218.47,167.31l2.52.84-.84.84c-.9.63-.79.51-2.52.84V169C218.31,168.13,217.93,168.76,218.47,167.31Z"/><path class="cls-4" d="M228.56,167.31l-.84,1.68C229.18,167.82,228.56,167.31,228.56,167.31Z"/><path class="cls-4" d="M266.37,167.31h1.68v.84C266.58,167.62,267.24,168,266.37,167.31Z"/><path class="cls-4" d="M230.24,169v1.68h.84V169Z"/><path class="cls-4" d="M255.45,171.51h1.68v.84C255.66,171.82,256.31,172.19,255.45,171.51Z"/><path class="cls-4" d="M239.48,172.35V174h.84v-1.68Z"/><path class="cls-4" d="M236.12,173.19c1.4.94.9,1.49,1.68,0Z"/><path class="cls-4" d="M242.84,174c.06,1.88-.18.59,1.68.84V174Z"/><path class="cls-4" d="M226,175.71v1.68h2.52v-.84Z"/><path class="cls-4" d="M229.4,175.71l.84,2.52,2.52-.84v-.84l-.84-.84Z"/><path class="cls-4" d="M250.87,148.92c3.11.27,5.82-.53,8.57,1.22-4.94,5.68-5.3,8.17-7.35,14.68h-1.22a24.61,24.61,0,0,0-1.22-8.56L246,158.71V155C247.91,153.48,249.41,150.89,250.87,148.92Z"/><path class="cls-4" d="M257,115.89c3.11.27,5.82-.53,8.57,1.22-4.94,5.68-5.3,8.17-7.35,14.68H257a24.61,24.61,0,0,0-1.22-8.56l-3.67,2.45V122C254.09,120.44,255.58,117.86,257,115.89Z"/><path class="cls-4" d="M243.68,181.6h1.68v.84C243.89,181.91,244.55,182.28,243.68,181.6Z"/><path class="cls-4" d="M211.75,182.44c.68.86.3.23.84,1.68h-.84Z"/><path class="cls-4" d="M242.84,182.44c.68.86.3.23.84,1.68h-.84Z"/><path class="cls-4" d="M245.37,184.12c2,1.73.18.8.84,2.52C244.68,187.15,245.52,184.93,245.37,184.12Z"/><path class="cls-4" d="M215.11,186.64c1.69,1.17,1.74,1.13,2.52,3.36h-.84l-.84-.84Z"/><path class="cls-4" d="M227.34,97.6c1.81,2,3.82,6.45,3,8v1l-2-1c-1.18-2.65.9-1.79-2-3-.29,3.76-.78,3.74-2,6h-1c-1.27-5.1-1.63-2.12-5-6l2-2,5,2C226.32,99.93,226.62,100.88,227.34,97.6Z"/><path class="cls-3" d="M293,194.38c20.09-17.66,38.91-36.28,55.1-57.63,16.06-21.18,30.44-43.55,46.8-64.51,13.31-17.07,27-34.13,44.82-46.75C461.07,10.38,487.28-.06,513.7,4.54c14.17,2.46,28,8.1,38.5,18.12C560.95,31,568.47,43.88,565,56.46a1.88,1.88,0,0,0,3.62,1c6.14-22.28-14.87-42.41-33.27-50.27-24.77-10.57-50.7-9.16-75,2C438.42,19.36,420.59,35,405.22,53.41c-17,20.4-32.17,42.14-47.49,63.82C348,131,338,144.53,326.63,157S303,180.68,290.39,191.72c-1.82,1.6.84,4.24,2.65,2.65Z"/><path class="cls-3" d="M167.64,163c-3.86,8.57-2.12,19,1.14,27.45,3.68,9.58,11.08,17.39,19.63,22.92,20.51,13.25,50.3,10,71.94,1.67,2.23-.85,1.26-4.48-1-3.62-19.54,7.49-45.43,10.89-64.89,1.1-8.3-4.18-16.46-11.39-20.62-19.81-3.94-8-6.78-19.33-3-27.82,1-2.18-2.25-4.09-3.24-1.89Z"/><circle class="cls-5" cx="217.62" cy="134.89" r="46.32"/><path class="cls-3" d="M267.06,203l6.72,2.82a.63.63,0,0,1,.39.57l.14,7.21a.63.63,0,0,0,1.18.31l8-13.77a.63.63,0,0,0-.65-.94L267.2,201.8A.63.63,0,0,0,267.06,203Z"/><path class="cls-3" d="M422.69,263.64q0-4.59-1.48-6.3a5,5,0,0,0-3.35-1.66,1,1,0,0,1-.9-1V248a1,1,0,0,1,.89-1,4.87,4.87,0,0,0,3.36-1.79q1.48-1.84,1.48-5.8V220.08a14.91,14.91,0,0,1,1.78-7.74q1.78-3,6.12-3h6.27a1,1,0,0,1,1,1v7.12a1,1,0,0,1-1,1h-2.53a3.23,3.23,0,0,0-2.87,1.26,7.51,7.51,0,0,0-.87,4.14v18.27a10.11,10.11,0,0,1-1.48,6,5.92,5.92,0,0,1-3.47,2.47v.9a5.34,5.34,0,0,1,3.47,2.7,11.33,11.33,0,0,1,1.48,6.12v18.18a7.86,7.86,0,0,0,.83,4.09,3.27,3.27,0,0,0,3,1.3h2.45a1,1,0,0,1,1,1v7.12a1,1,0,0,1-1,1h-6.27q-7.91,0-7.9-10.62Z"/><path class="cls-3" d="M724.25,238.89q0,4.59,1.48,6.3a5,5,0,0,0,3.35,1.66,1,1,0,0,1,.9,1v6.71a1,1,0,0,1-.89,1,4.87,4.87,0,0,0-3.36,1.79q-1.48,1.84-1.48,5.8v19.26a14.91,14.91,0,0,1-1.78,7.74q-1.78,3-6.12,3h-6.27a1,1,0,0,1-1-1V285a1,1,0,0,1,1-1h2.53a3.23,3.23,0,0,0,2.87-1.26,7.51,7.51,0,0,0,.87-4.14V260.31a10.11,10.11,0,0,1,1.48-6,5.92,5.92,0,0,1,3.47-2.47V251a5.34,5.34,0,0,1-3.47-2.7,11.33,11.33,0,0,1-1.48-6.12V224a7.86,7.86,0,0,0-.83-4.09,3.27,3.27,0,0,0-3-1.3h-2.45a1,1,0,0,1-1-1V210.4a1,1,0,0,1,1-1h6.27q7.91,0,7.9,10.62Z"/></g></g></svg>