<?xml version="1.0" encoding="UTF-8" standalone="no"?>
<svg width="336px" height="125px" viewBox="0 0 336 125" version="1.1" xmlns="http://www.w3.org/2000/svg" xmlns:xlink="http://www.w3.org/1999/xlink">
    <!-- Generator: Sketch 41 (35326) - http://www.bohemiancoding.com/sketch -->
    <title>mobility logo 2</title>
    <desc>Created with Sketch.</desc>
    <defs>
        <polygon id="path-1" points="0.406007089 35.7142857 9.30915646 35.7142857 9.30915646 0.0890731293 0.406007089 0.0890731293"></polygon>
        <polygon id="path-3" points="0.0218187342 35.7142857 8.9249681 35.7142857 8.9249681 0.0890731293 0.0218187342 0.0890731293 0.0218187342 35.7142857"></polygon>
    </defs>
    <g id="Page-1" stroke="none" stroke-width="1" fill="none" fill-rule="evenodd">
        <g id="Desktop-HD" transform="translate(-554.000000, -431.000000)">
            <g id="startseite-mobility-logo" transform="translate(434.000000, 180.000000)">
                <g id="mobility-logo-2" transform="translate(120.000000, 251.000000)">
                    <path d="M206.807107,107.107185 C206.807107,106.096981 206.009213,105.270451 204.590357,105.270451 C203.171927,105.270451 202.374033,106.096981 202.374033,107.107185 L202.374033,116.44477 C202.374033,116.781505 202.107785,117.057015 201.782844,117.057015 L199.122914,117.057015 C198.797547,117.057015 198.531725,116.781505 198.531725,116.44477 L198.531725,95.9328656 C198.531725,95.596131 198.797547,95.3206207 199.122914,95.3206207 L201.782844,95.3206207 C202.107785,95.3206207 202.374033,95.596131 202.374033,95.9328656 L202.374033,101.137372 C202.374033,101.658206 202.698975,101.99494 203.260393,101.780655 C203.674226,101.627168 204.147178,101.412883 205.033963,101.412883 C208.137071,101.412883 210.64899,103.892474 210.64899,107.107185 L210.64899,116.44477 C210.64899,116.781505 210.383168,117.057015 210.058226,117.057015 L207.398297,117.057015 C207.07293,117.057015 206.807107,116.781505 206.807107,116.44477 L206.807107,107.107185 Z" id="Fill-1" fill="#FFFFFF"></path>
                    <path d="M224.570704,110.81165 C223.299858,110.81165 223.063808,111.883503 223.063808,112.342687 C223.063808,113.47534 223.950167,113.965136 225.013884,113.965136 C226.698562,113.965136 227.99918,113.444303 227.99918,111.852466 L227.99918,111.118197 C227.99918,110.934099 227.880942,110.81165 227.703585,110.81165 L224.570704,110.81165 Z M223.536334,106.066327 C223.418096,106.586735 223.270511,106.647959 222.738441,106.647959 L220.610582,106.647959 C220.285215,106.647959 220.019392,106.372874 220.019392,106.036139 C220.019392,103.617347 222.177023,101.413265 225.723311,101.413265 C229.299372,101.413265 231.634359,103.402636 231.634359,106.954507 L231.634359,116.444728 C231.634359,116.781463 231.368111,117.056973 231.04317,117.056973 L229.56562,117.056973 C229.388263,117.056973 229.270025,116.996173 229.151787,116.843112 C228.97443,116.597789 228.945084,116.230442 228.560597,116.230442 C228.028527,116.230442 227.201286,117.393707 225.013884,117.393707 C221.585833,117.393707 219.457975,115.556973 219.457975,112.342687 C219.457975,110.230017 221.142228,107.566327 224.541357,107.566327 L227.556,107.566327 C227.733357,107.566327 227.85117,107.443878 227.85117,107.260204 L227.85117,106.770408 C227.85117,105.515306 226.875919,104.903061 225.575727,104.903061 C224.95519,104.903061 223.743463,105.086735 223.536334,106.066327 L223.536334,106.066327 Z" id="Fill-3" fill="#FFFFFF"></path>
                    <path d="M249.634475,110.78091 L252.264632,110.78091 C252.589574,110.78091 252.766931,111.05642 252.766931,111.393155 C252.766931,115.128699 249.988764,117.394005 246.737645,117.394005 C243.10289,117.394005 240.974607,114.914413 240.590546,111.699277 C240.442961,110.474787 240.442961,108.33193 240.590546,107.107015 C240.974607,103.89273 243.10289,101.413138 246.737645,101.413138 C249.988764,101.413138 252.766931,103.617219 252.766931,107.413563 C252.766931,107.750298 252.589574,108.025808 252.264632,108.025808 L249.634475,108.025808 C249.368227,108.025808 249.102404,107.872747 249.072632,107.536012 C248.984166,106.036012 248.067609,105.39273 246.708298,105.39273 C245.230748,105.39273 244.580439,105.94375 244.432855,107.107015 C244.284845,108.33193 244.284845,110.474787 244.432855,111.699277 C244.550667,112.771131 245.230748,113.413988 246.737645,113.413988 C248.038262,113.413988 248.836581,112.924192 249.072632,111.270706 C249.131751,110.933971 249.368227,110.78091 249.634475,110.78091" id="Fill-5" fill="#FFFFFF"></path>
                    <path d="M269.082112,108.423767 C268.815864,108.760502 268.815864,108.944175 269.111459,109.342134 L273.929019,116.047066 C274.253961,116.475213 274.017485,117.05727 273.456067,117.05727 L270.38273,117.05727 C269.939125,117.05727 269.731996,116.781335 269.614183,116.598087 L265.919459,111.301743 C265.830993,111.178869 265.62429,111.209906 265.62429,111.393155 L265.62429,116.4446 C265.62429,116.781335 265.358467,117.05727 265.0331,117.05727 L262.373171,117.05727 C262.048229,117.05727 261.781981,116.781335 261.781981,116.4446 L261.781981,95.9326956 C261.781981,95.5959609 262.048229,95.3208759 262.373171,95.3208759 L265.0331,95.3208759 C265.358467,95.3208759 265.62429,95.5959609 265.62429,95.9326956 L265.62429,106.617645 C265.62429,106.801318 265.830993,106.83193 265.919459,106.709481 L269.347935,102.147406 C269.466173,101.964158 269.64353,101.749872 270.08671,101.749872 L273.012887,101.749872 C273.633424,101.749872 273.751662,102.423342 273.485839,102.760077 L269.082112,108.423767 Z" id="Fill-7" fill="#FFFFFF"></path>
                    <path d="M292.815111,106.954379 L290.598787,106.954379 C290.303192,106.954379 290.007172,106.83193 289.918706,106.188648 C289.771121,105.178444 288.64786,104.78091 287.554372,104.78091 C286.224407,104.78091 285.190037,105.178444 285.190037,106.036012 C285.190037,106.954379 286.342645,107.046216 287.554372,107.291114 C290.155182,107.811522 293.820134,108.209481 293.820134,112.403359 C293.820134,115.434396 290.923729,117.394005 287.554372,117.394005 C284.303253,117.394005 281.229916,115.89358 281.229916,112.036437 C281.229916,111.699277 281.495739,111.424192 281.820681,111.424192 L284.067202,111.424192 C284.77663,111.424192 284.894443,111.66909 284.953987,112.189498 C285.071799,113.383376 286.19506,113.781335 287.554372,113.781335 C289.150584,113.781335 290.27342,113.291539 290.27342,112.34256 C290.27342,111.301743 288.914108,111.11807 287.554372,110.933971 C285.131344,110.597236 281.613977,109.61807 281.613977,106.036012 C281.613977,103.311097 284.687739,101.413138 287.554372,101.413138 C290.214726,101.413138 293.406301,102.790689 293.406301,106.342134 C293.406301,106.678869 293.140478,106.954379 292.815111,106.954379" id="Fill-9" fill="#FFFFFF"></path>
                    <path d="M26.991603,64.2238095 C27.1838461,64.8203231 27.7601499,64.8203231 27.9519676,64.2238095 L41.2078056,15.0771259 C41.4961701,13.8832483 42.1685954,13.3857993 43.2250815,13.3857993 L53.0226714,13.3857993 C54.0791575,13.3857993 54.9438258,14.2812075 54.9438258,15.3755952 L54.9438258,81.0371599 C54.9438258,82.1315476 54.0791575,83.0269558 53.0226714,83.0269558 L47.9316334,83.0269558 C46.8751473,83.0269558 46.010479,82.1315476 46.010479,81.0371599 L46.010479,31.2935374 C46.010479,30.6965986 45.3380537,30.6965986 45.2423575,31.0945578 L31.5063372,81.3356293 C31.1218511,82.5295068 30.5455473,83.0269558 29.4890613,83.0269558 L25.4545094,83.0269558 C24.3980233,83.0269558 23.8217195,82.5295068 23.4376587,81.3356293 L9.70163848,31.0945578 C9.60551696,30.6965986 8.93309165,30.6965986 8.93309165,31.2935374 L8.93309165,81.0371599 C8.93309165,82.1315476 8.06842329,83.0269558 7.01193722,83.0269558 L1.92089924,83.0269558 C0.864413165,83.0269558 0.000170126582,82.1315476 0.000170126582,81.0371599 L0.000170126582,15.3755952 C0.000170126582,14.2812075 0.864413165,13.3857993 1.92089924,13.3857993 L11.7184891,13.3857993 C12.7754005,13.3857993 13.4478258,13.8832483 13.7357651,15.0771259 L26.991603,64.2238095 Z" id="Fill-11" fill="#FFFFFF"></path>
                    <path d="M139.954335,50.988818 C139.474153,50.6899235 138.993545,51.386352 138.993545,51.9832908 L138.98674,72.5772534 C138.98674,73.1741922 139.370801,73.5721514 139.947105,73.5721514 L149.744695,73.5755527 C155.700401,73.5772534 160.792715,68.7039541 160.794842,62.7349915 C160.796968,55.7707058 155.707631,50.9939201 149.751925,50.9917942 L139.954335,50.988818 Z M149.754902,42.0381378 C155.998548,42.0402636 159.458072,37.6635629 159.459773,31.8935799 C159.461474,26.023682 154.755773,22.8383078 149.760857,22.8370323 L139.963267,22.833631 C139.386963,22.833631 139.002902,23.2315901 139.002477,23.8281037 L138.996948,41.0398384 C138.996948,41.636352 139.381009,42.0347364 139.957312,42.0347364 L149.754902,42.0381378 Z M168.585363,31.8965561 C168.583662,36.4726616 166.756502,42.043665 163.105586,45.3255527 C162.337039,46.0215561 162.336614,46.9169643 163.104735,47.5139031 C167.042315,50.798767 169.921707,57.0670493 169.920006,62.7379677 C169.916178,74.2779337 160.788462,83.0300595 149.741717,83.0266582 L131.971571,83.021131 C130.914659,83.0207058 130.050842,82.1252976 130.051267,81.0309099 L130.072107,15.3693452 C130.072533,14.2749575 130.937201,13.3795493 131.993687,13.3799745 L149.763834,13.3855017 C160.138153,13.3889031 168.588766,21.1516582 168.585363,31.8965561 L168.585363,31.8965561 Z" id="Fill-13" fill="#FFFFFF"></path>
                    <path d="M184.3333,81.5365646 C184.3333,82.3562925 183.468632,83.0267857 182.412146,83.0267857 L177.12929,83.0267857 C176.072379,83.0267857 175.208136,82.3562925 175.208136,81.5365646 L175.208136,32.357568 C175.208136,31.5378401 176.072379,30.8669218 177.12929,30.8669218 L182.412146,30.8669218 C183.468632,30.8669218 184.3333,31.5378401 184.3333,32.357568 L184.3333,81.5365646 Z" id="Fill-15" fill="#FFFFFF"></path>
                    <path d="M202.583502,72.5806122 C202.583502,73.177551 202.967563,73.5755102 203.543866,73.5755102 L225.060626,73.5755102 C226.117112,73.5755102 226.98178,74.4709184 226.98178,75.5653061 L226.98178,81.0372449 C226.98178,82.1316327 226.117112,83.0266156 225.060626,83.0266156 L195.379492,83.0266156 C194.32258,83.0266156 193.458337,82.1316327 193.458337,81.0372449 L193.458337,15.3756803 C193.458337,14.2812925 194.32258,13.3854592 195.379492,13.3854592 L200.662347,13.3854592 C201.718833,13.3854592 202.583502,14.2812925 202.583502,15.3756803 L202.583502,72.5806122 Z" id="Fill-17" fill="#FFFFFF"></path>
                    <path d="M239.949679,81.7147534 C239.949679,82.436267 239.085011,83.0268282 238.028525,83.0268282 L232.745669,83.0268282 C231.688757,83.0268282 230.824514,82.436267 230.824514,81.7147534 L230.824514,38.4167092 C230.824514,37.6947704 231.688757,37.1042092 232.745669,37.1042092 L238.028525,37.1042092 C239.085011,37.1042092 239.949679,37.6947704 239.949679,38.4167092 L239.949679,81.7147534 Z" id="Fill-19" fill="#FFFFFF"></path>
                    <path d="M272.058562,23.8318027 L272.058562,81.0371599 C272.058562,82.1315476 271.193894,83.0269558 270.136982,83.0269558 L264.854552,83.0269558 C263.797641,83.0269558 262.933397,82.1315476 262.933397,81.0371599 L262.933397,23.8318027 C262.933397,23.2352891 262.549337,22.8369048 261.972608,22.8369048 L249.197377,22.8369048 C248.140891,22.8369048 247.276223,21.9419218 247.276223,20.8471088 L247.276223,15.3755952 C247.276223,14.2812075 248.140891,13.3857993 249.197377,13.3857993 L285.698461,13.3857993 C286.754947,13.3857993 287.619615,14.2812075 287.619615,15.3755952 L287.619615,20.8471088 C287.619615,21.9419218 286.754947,22.8369048 285.698461,22.8369048 L273.018927,22.8369048 C272.442623,22.8369048 272.058562,23.2352891 272.058562,23.8318027" id="Fill-21" fill="#FFFFFF"></path>
                    <path d="M242.345019,21.9346939 C242.345019,25.6056122 239.368229,28.5813776 235.696047,28.5813776 C232.02429,28.5813776 229.047074,25.6056122 229.047074,21.9346939 C229.047074,18.2637755 232.02429,15.2880102 235.696047,15.2880102 C239.368229,15.2880102 242.345019,18.2637755 242.345019,21.9346939" id="Fill-23" fill="#FFFFFF"></path>
                    <path d="M314.330084,47.1156888 C314.522327,47.6131378 314.906388,47.6131378 315.098631,47.1156888 L326.241071,14.7819303 C326.625132,13.6879677 327.201861,13.2895833 328.066104,13.2895833 L333.733446,13.2895833 C335.270114,13.2895833 335.94254,14.5829507 335.558479,15.5778486 L311.160626,81.438818 C310.776565,82.5327806 310.199836,82.9307398 309.335593,82.9307398 L304.148433,82.9307398 C302.61134,82.9307398 301.938914,81.6373724 302.323401,80.6424745 L309.431289,60.3474065 C309.623957,59.8499575 309.719654,59.5514881 309.527411,59.0540391 L293.005993,15.5778486 C292.621932,14.5829507 293.293932,13.2895833 294.831026,13.2895833 L300.690611,13.2895833 C301.554854,13.2895833 302.131157,13.6879677 302.515644,14.7819303 L314.330084,47.1156888 Z" id="Fill-25" fill="#FFFFFF"></path>
                    <path d="M92.2926076,78.1764031 C80.7835443,78.1764031 71.4533772,68.8494473 71.4533772,57.3443452 C71.4533772,45.8392432 80.7835443,36.5122874 92.2926076,36.5122874 C103.801671,36.5122874 113.131838,45.8392432 113.131838,57.3443452 C113.131838,68.8494473 103.801671,78.1764031 92.2926076,78.1764031 M92.2926076,27.8626276 C76.2811443,27.8626276 63.3013367,40.8379677 63.3013367,56.8439201 C63.3013367,72.8498724 76.2811443,85.8252126 92.2926076,85.8252126 C108.304071,85.8252126 121.283878,72.8498724 121.283878,56.8439201 C121.283878,40.8379677 108.304071,27.8626276 92.2926076,27.8626276" id="Fill-27" fill="#FFFFFF"></path>
                    <path d="M101.280267,44.4576956 C102.329523,45.0078656 101.569908,44.2752976 102.1309,45.3080357 C101.98927,45.4496173 101.847214,45.5916241 101.705584,45.7332058 L101.280267,45.7332058 L101.280267,44.4576956 Z" id="Fill-29" fill="#FFFFFF"></path>
                    <path d="M94.1677428,46.9498299 C95.2169985,47.5 94.4573833,46.767432 95.0183757,47.8001701 L94.5930592,47.8001701 C94.1588111,48.1420068 94.4765225,47.9511054 93.7424263,48.2253401 C93.8840567,47.8001701 94.0261124,47.375 94.1677428,46.9498299" id="Fill-31" fill="#FFFFFF"></path>
                    <path d="M96.6901671,41.4962585 C97.4616911,42.3440476 98.3161519,44.2386054 97.9661165,44.897619 L97.9661165,45.3227891 C97.6824304,45.1812075 97.3987443,45.0396259 97.1154835,44.897619 C96.6123342,43.7704932 97.4969924,44.1348639 96.2648506,43.6221088 C96.1410835,45.2190476 95.9343797,45.2118197 95.4142177,46.1731293 L94.9889013,46.1731293 C94.4496,44.0047619 94.2939342,45.272619 92.862319,43.6221088 C93.1455797,43.3389456 93.4292658,43.0553571 93.7129519,42.7717687 C94.4215291,43.0553571 95.1305316,43.3389456 95.8395342,43.6221088 C96.255919,42.4869048 96.3847899,42.8916667 96.6901671,41.4962585" id="Fill-33" fill="#FFFFFF"></path>
                    <path d="M124.637499,82.6428997 C133.180405,75.1339711 141.187413,67.2173044 148.070309,58.1403486 C154.89919,49.1343963 161.016516,39.6241922 167.973418,30.7105017 C173.636506,23.4549745 179.459089,16.2007228 187.033975,10.8350765 C196.09917,4.41415816 207.24799,-0.0233418367 218.486127,1.92903912 C224.514562,2.97623299 230.406896,5.3724915 234.859959,9.63269558 C238.580628,13.1922194 241.779008,18.6569303 240.305286,24.0068452 C240.032658,24.9974915 241.570603,25.4201105 241.84323,24.4307398 C244.452972,14.9579507 235.520051,6.40012755 227.692101,3.05914116 C217.158289,-1.43703231 206.127706,-0.833715986 195.79762,3.92903912 C186.465327,8.23218537 178.885337,14.8801446 172.345246,22.7083759 C165.10083,31.3801446 158.664942,40.6258929 152.149094,49.8427296 C148.018846,55.6849915 143.755048,61.4477466 138.921327,66.7343112 C134.119929,71.9855867 128.850684,76.8210459 123.509559,81.5153486 C122.737185,82.1943452 123.868952,83.3184949 124.637499,82.6428997" id="Fill-35" fill="#FFFFFF"></path>
                    <path d="M71.301199,69.2971088 C69.6594775,72.9416667 70.3978268,77.3553571 71.7869104,80.9680272 C73.3525003,85.0407313 76.5002673,88.362585 80.1375737,90.7116497 C88.8612395,96.3455782 101.530566,94.947619 110.733564,91.4216837 C111.682445,91.0581633 111.270738,89.5160714 110.309523,89.8842687 C101.99969,93.0683673 90.9873965,94.5130952 82.709037,90.3511054 C79.1767838,88.5751701 75.7096041,85.5088435 73.9377357,81.9301871 C72.2611382,78.5445578 71.0523889,73.7116497 72.6783737,70.1019558 C73.0964597,69.1738095 71.7222623,68.3621599 71.301199,69.2971088" id="Fill-37" fill="#FFFFFF"></path>
                    <path d="M113.585948,86.3116922 L116.443224,87.5106718 C116.541472,87.5519133 116.606121,87.6471514 116.608247,87.753869 L116.668217,90.8210459 C116.673746,91.0935799 117.034414,91.1866922 117.170941,90.9507228 L120.565817,85.0982568 C120.680227,84.9009779 120.513503,84.6599065 120.288936,84.6973214 L113.646343,85.7972364 C113.379245,85.8414541 113.336713,86.2071003 113.585948,86.3116922" id="Fill-39" fill="#FFFFFF"></path>
                    <g id="Group-43" transform="translate(176.931646, 88.928997)">
                        <mask id="mask-2" fill="white">
                            <use xlink:href="#path-1"></use>
                        </mask>
                        <g id="Clip-42"></g>
                        <path d="M2.84434633,23.1630527 C2.84434633,21.8620323 2.63466532,20.9696003 2.21615392,20.4844813 C1.86824506,20.0822704 1.39274127,19.8467262 0.790067848,19.7782738 C0.57145519,19.7536139 0.406007089,19.5673895 0.406007089,19.3475765 L0.406007089,16.4925595 C0.406007089,16.2740221 0.568903291,16.0882228 0.785814684,16.0622874 C1.39061468,15.9891582 1.86739443,15.7349065 2.21615392,15.2995323 C2.63466532,14.7769983 2.84434633,13.9542942 2.84434633,12.8314201 L2.84434633,4.64264456 C2.84434633,3.29102891 3.09655899,2.19409014 3.60183494,1.35182823 C4.10626025,0.510416667 4.97433114,0.0890731293 6.20647291,0.0890731293 L8.87193114,0.0890731293 C9.11308557,0.0890731293 9.30915646,0.285076531 9.30915646,0.526147959 L9.30915646,3.55505952 C9.30915646,3.79655612 9.11308557,3.99213435 8.87193114,3.99213435 L7.79417924,3.99213435 C7.22723241,3.99213435 6.82105519,4.17113095 6.57479696,4.52784864 C6.32853873,4.88584184 6.20562228,5.47215136 6.20562228,6.28847789 L6.20562228,14.0559099 C6.20562228,15.1792092 5.99594127,16.0265731 5.57742987,16.6005527 C5.15849316,17.1745323 4.66597671,17.5257228 4.09988051,17.6528486 L4.09988051,18.0355017 C4.66597671,18.1379677 5.15849316,18.5206207 5.57742987,19.1838861 C5.99594127,19.8471514 6.20562228,20.7140731 6.20562228,21.7859269 L6.20562228,29.5150935 C6.20562228,30.3059099 6.32215899,30.886267 6.55650835,31.256165 C6.79043241,31.6256378 7.21532354,31.8110119 7.83118177,31.8110119 L8.87193114,31.8110119 C9.11308557,31.8110119 9.30915646,32.0065901 9.30915646,32.2480867 L9.30915646,35.2774235 C9.30915646,35.5184949 9.11308557,35.7144983 8.87193114,35.7144983 L6.20647291,35.7144983 C3.96505519,35.7144983 2.84434633,34.2085459 2.84434633,31.198767 L2.84434633,23.1630527 Z" id="Fill-41" fill="#FFFFFF" mask="url(#mask-2)"></path>
                    </g>
                    <g id="Group-46" transform="translate(301.549367, 88.928997)">
                        <mask id="mask-4" fill="white">
                            <use xlink:href="#path-3"></use>
                        </mask>
                        <g id="Clip-45"></g>
                        <path d="M6.48662886,12.6405187 C6.48662886,13.9415391 6.69630987,14.8339711 7.11482127,15.3190901 C7.46273013,15.721301 7.93823392,15.9568452 8.54090734,16.0252976 C8.75952,16.0499575 8.9249681,16.236182 8.9249681,16.4559949 L8.9249681,19.3110119 C8.9249681,19.5295493 8.7620719,19.7153486 8.54516051,19.741284 C7.94036051,19.8144133 7.46358076,20.068665 7.11482127,20.5040391 C6.69630987,21.0265731 6.48662886,21.8492772 6.48662886,22.9721514 L6.48662886,31.1609269 C6.48662886,32.5125425 6.2344162,33.6094813 5.72914025,34.4517432 C5.22471494,35.2931548 4.35664405,35.7144983 3.12450228,35.7144983 L0.459044051,35.7144983 C0.217464304,35.7144983 0.0218187342,35.5184949 0.0218187342,35.2774235 L0.0218187342,32.2485119 C0.0218187342,32.0070153 0.217464304,31.8114371 0.459044051,31.8114371 L1.53679595,31.8114371 C2.10374278,31.8114371 2.50992,31.6324405 2.75617823,31.2757228 C3.00243646,30.9177296 3.12535291,30.3314201 3.12535291,29.5150935 L3.12535291,21.7476616 C3.12535291,20.6243622 3.33503392,19.7769983 3.75354532,19.2030187 C4.17248203,18.6290391 4.66499848,18.2778486 5.23109468,18.1507228 L5.23109468,17.7680697 C4.66499848,17.6656037 4.17248203,17.2829507 3.75354532,16.6196854 C3.33503392,15.9564201 3.12535291,15.0894983 3.12535291,14.0176446 L3.12535291,6.28847789 C3.12535291,5.49766156 3.0088162,4.91730442 2.77446684,4.54740646 C2.54054278,4.17793367 2.11565165,3.99255952 1.49979342,3.99255952 L0.459044051,3.99255952 C0.217464304,3.99255952 0.0218187342,3.79698129 0.0218187342,3.55548469 L0.0218187342,0.526147959 C0.0218187342,0.285076531 0.217464304,0.0890731293 0.459044051,0.0890731293 L3.12450228,0.0890731293 C5.36592,0.0890731293 6.48662886,1.59502551 6.48662886,4.60480442 L6.48662886,12.6405187 Z" id="Fill-44" fill="#FFFFFF" mask="url(#mask-4)"></path>
                    </g>
                    <path d="M106.361892,47.0073078 C106.349892,46.9883078 106.337892,46.9693078 106.326392,46.9508078 C106.335892,46.9693078 106.345892,46.9878078 106.355392,47.0073078 L106.361892,47.0073078" id="Fill-47" fill="#000000"></path>
                    <path d="M102.169136,44.8889031 C101.602189,43.8455357 102.369886,44.5857568 101.309997,44.0300595 L101.309997,45.3183248 L101.739567,45.3183248 C101.882473,45.1750425 102.025805,45.0321854 102.169136,44.8889031" id="Fill-49" fill="#FFFFFF"></path>
                    <path d="M94.1248284,46.5474065 C93.9814967,46.9768282 93.8381651,47.40625 93.6952587,47.8360969 C94.4370106,47.5588861 94.1158967,47.7519133 94.554398,47.40625 L94.9839676,47.40625 C94.4174461,46.3628827 95.184717,47.1035289 94.1248284,46.5474065" id="Fill-51" fill="#FFFFFF"></path>
                    <path d="M83.035042,64.3355017 C82.8215332,64.2644983 82.6080243,64.1930697 82.3945154,64.1220663 C82.51488,64.4830357 82.6352446,64.8440051 82.7556091,65.2049745 L83.0945863,65.2049745 C83.1192547,65.2453656 83.143923,65.2857568 83.1685914,65.326148 C83.2345154,65.2857568 83.3004395,65.2453656 83.3663635,65.2049745 L83.4777965,65.2049745 L83.4777965,65.1369473 C83.8635585,64.9009779 84.2488952,64.6650085 84.6346572,64.4294643 C84.4100901,64.0629677 84.1859484,63.6964711 83.9618066,63.3303997 C83.5943332,63.7883078 83.5220294,63.9252126 83.035042,64.3355017" id="Fill-53" fill="#FFFFFF"></path>
                    <path d="M84.8368952,62.2913265 C85.3927838,63.0153912 85.4166015,61.9941327 85.3455737,61.4767007 C84.5808547,61.4422619 84.8687939,62.0953231 84.8368952,62.2913265" id="Fill-55" fill="#FFFFFF"></path>
                    <path d="M86.384877,62.3514881 C86.6290086,62.2022534 86.8735656,62.0525935 87.1176972,61.9029337 C87.0432668,61.7809099 86.9684111,61.6588861 86.8935554,61.5368622 C86.4057175,62.1601616 86.5788213,61.8281037 86.384877,62.3514881" id="Fill-57" fill="#FFFFFF"></path>
                    <path d="M91.7726582,72.6648384 C90.0811747,71.7447704 90.2427949,72.0156037 89.0132051,70.796216 C88.6555139,71.8115221 88.6776304,72.2018282 88.7924658,73.1414541 C90.0960608,72.7600765 89.6741468,72.5491922 91.1389367,73.3625425 C91.3498937,73.1299745 91.5612759,72.8974065 91.7726582,72.6648384" id="Fill-59" fill="#FFFFFF"></path>
                    <path d="M86.0051544,45.3537415 L86.4296544,45.3537415 C86.2606544,44.6122449 86.3241544,44.6581633 86.0051544,44.2708333 L86.0051544,45.3537415 Z" id="Fill-61" fill="#FFFFFF"></path>
                    <path d="M92.177648,45.7146684 C91.8686306,44.9752976 92.7263963,45.3753827 91.7854869,44.6317602 C91.8580067,44.9808248 91.4653838,45.933631 92.177648,45.7146684" id="Fill-63" fill="#FFFFFF"></path>
                    <path d="M84.1998987,45.3537415 L83.4777114,45.3537415 C83.8490127,45.6962415 83.5666025,45.5102415 84.1998987,45.7782415 L84.1998987,45.3537415 Z" id="Fill-65" fill="#FFFFFF"></path>
                    <path d="M98.2810208,45.7146684 L97.5588334,45.7146684 C98.1300334,46.2341684 97.8518765,46.3971684 98.2810208,45.7146684" id="Fill-67" fill="#FFFFFF"></path>
                    <path d="M91.0599129,46.797449 L90.3377256,46.797449 C90.9089256,47.316949 90.6307686,47.479949 91.0599129,46.797449" id="Fill-69" fill="#FFFFFF"></path>
                    <path d="M95.7536203,48.6020833 C96.2391203,47.971131 96.2561203,47.4307398 95.7536203,46.7972364 L95.7536203,48.6020833 Z" id="Fill-71" fill="#FFFFFF"></path>
                    <path d="M88.1715038,47.8802296 C87.8002025,48.1714711 88.0826127,48.0133078 87.4493165,48.241199 L87.4493165,48.6021684 C88.4339241,48.3304847 88.0528405,48.5498724 88.1715038,47.8802296" id="Fill-73" fill="#FFFFFF"></path>
                    <path d="M83.1167453,48.6020833 L83.1167453,49.3240221 C83.8682453,48.9877126 83.5902453,49.201148 83.1167453,48.6020833" id="Fill-75" fill="#FFFFFF"></path>
                    <path d="M92.1431089,50.0458333 C92.3425823,50.0220238 93.9762228,49.7256803 93.5874835,49.6848639 C93.3467544,49.5645408 93.1060253,49.4442177 92.8652962,49.3238946 C92.4935696,49.6151361 92.7764051,49.457398 92.1431089,49.6848639 L92.1431089,50.0458333 Z" id="Fill-77" fill="#FFFFFF"></path>
                    <path d="M99.3641742,50.4067602 L99.3641742,50.0457908 C99.4845387,49.9254677 99.6049033,49.8051446 99.7252678,49.6848214 L99.0030805,49.6848214 C99.2361539,50.3076956 99.073683,50.0381378 99.3641742,50.4067602" id="Fill-79" fill="#FFFFFF"></path>
                    <path d="M88.8936061,52.5723214 C88.57632,51.7202806 88.7575048,51.9766582 88.1714187,51.4894133 C87.7835301,52.7317602 87.6014947,52.4128827 88.8936061,52.5723214" id="Fill-81" fill="#FFFFFF"></path>
                    <path d="M84.5609499,55.4597789 L84.5609499,55.0988095 C83.8540739,54.9393707 84.096079,55.2556973 83.8387625,55.4597789 C83.5474208,55.0358844 83.5482714,54.8560374 83.4776689,54.0159014 L83.1165752,54.0159014 L83.1165752,54.7378401 C82.7733448,55.5647959 83.1722916,55.4215136 83.4776689,56.5426871 C83.1165752,56.1817177 82.7554815,55.8207483 82.3948132,55.4597789 C81.6326461,54.5809524 82.8456486,54.9406463 81.6726258,54.3768707 C82.0481803,53.4104592 82.3556841,54.0673469 83.1165752,52.9334184 C83.2369397,52.8130952 83.3573043,52.6927721 83.4776689,52.572449 L83.1165752,52.572449 C82.3637651,51.7395408 82.0196841,53.6107143 81.3115322,53.2943878 C81.070803,53.0537415 80.8300739,52.8130952 80.5893448,52.572449 L79.8671575,53.2943878 C80.5952992,54.5107993 81.2162613,55.307568 81.3115322,57.2646259 C82.4730714,57.5792517 81.869122,57.0686224 82.3948132,57.9861395 C84.0650309,57.5333333 83.6537499,56.5303571 84.5609499,55.4597789" id="Fill-83" fill="#FFFFFF"></path>
                    <path d="M87.0883078,52.5723214 L87.0883078,53.2942602 L87.5128078,53.2942602 C87.2388078,52.6713861 87.4298078,52.9409439 87.0883078,52.5723214" id="Fill-85" fill="#FFFFFF"></path>
                    <path d="M91.4209641,52.5723214 L91.4209641,53.2942602 L91.8454641,53.2942602 C91.5714641,52.6713861 91.7624641,52.9409439 91.4209641,52.5723214" id="Fill-87" fill="#FFFFFF"></path>
                    <path d="M89.078321,58.4310374 C89.5784932,58.3340986 89.5474451,58.3706633 89.8085894,58.1878401 L90.0522957,58.1878401 C89.7277792,57.6198129 89.4028375,57.0517857 89.078321,56.4837585 C88.8886299,56.1380952 89.1085185,56.0585884 89.321602,55.510119 C88.4764982,55.1385204 88.0596881,54.732483 87.374078,54.2932823 C87.4710501,54.7932823 87.4344729,54.7622449 87.617359,55.0232993 C87.5573894,56.4863095 87.5199615,57.3630102 88.3480527,57.9442177 C88.724883,58.7290816 88.4824527,57.9357143 89.078321,58.4310374" id="Fill-89" fill="#FFFFFF"></path>
                    <path d="M96.8368162,57.6253401 C97.6891504,57.3081633 97.4326846,57.4892857 97.9200972,56.9034014 C98.3266997,56.5704932 97.6351352,56.1644558 97.9200972,55.459949 C97.2281073,55.1283163 97.6546997,55.3153912 96.8368162,55.459949 C96.8283099,54.4756803 96.8227808,53.8056122 96.4757225,53.2941327 C96.1044213,53.5853741 96.3868314,53.4272109 95.7535352,53.655102 C96.0010694,55.2647959 96.5582339,55.6317177 96.8368162,57.6253401" id="Fill-91" fill="#FFFFFF"></path>
                    <path d="M90.3378106,53.655102 L89.6156233,53.655102 C89.9869246,53.997602 89.7045144,53.811602 90.3378106,54.079602 L90.3378106,53.655102 Z" id="Fill-93" fill="#FFFFFF"></path>
                    <path d="M90.6988618,55.4597789 L91.0599554,55.4597789 C91.18032,55.3394558 91.3006846,55.2191327 91.4210491,55.0988095 C91.103763,54.2467687 91.2853732,54.5035714 90.6988618,54.0159014 L90.6988618,55.4597789 Z" id="Fill-95" fill="#FFFFFF"></path>
                    <path d="M94.3094157,56.5425595 C93.957679,54.7823554 93.4732435,55.1229167 92.5039473,54.7377126 C92.0275929,55.6148384 92.672798,54.9923895 91.7821853,55.4596514 C92.2453549,55.7772534 92.6732233,55.7942602 93.5872284,55.8206207 C93.0981144,56.3975765 93.3664891,56.2385629 92.5039473,56.5425595 C92.7021448,57.0923044 92.7591372,57.1454507 92.865041,57.9864371 C93.3907322,57.6684099 93.8968587,57.3350765 94.3094157,56.9035289 C94.5926765,56.6794643 94.4000081,56.8920493 94.3094157,56.5425595" id="Fill-97" fill="#FFFFFF"></path>
                    <path d="M84.922001,55.4597789 L84.922001,56.1817177 L85.346501,56.1817177 C85.072501,55.5588435 85.263501,55.8284014 84.922001,55.4597789" id="Fill-99" fill="#FFFFFF"></path>
                    <path d="M86.0051544,57.6253401 L86.0051544,57.9863095 L86.3662481,57.9863095 C86.2352506,56.9552721 86.1293468,56.4276361 85.6440608,55.8204932 C85.6823392,56.735034 85.6882937,57.1580782 86.0051544,57.6253401" id="Fill-101" fill="#FFFFFF"></path>
                    <path d="M88.8936061,60.5127976 C88.1305884,60.5935799 88.8523504,61.0582908 89.2546997,61.2347364 C89.6145175,60.7015731 89.0199251,60.6216412 88.8936061,60.5127976" id="Fill-103" fill="#FFFFFF"></path>
                    <path d="M106.326264,46.9508929 C106.336472,46.9666241 106.346254,46.9823554 106.356462,46.9989371 C106.354761,46.9989371 106.353059,46.9989371 106.351358,46.9985119 C106.342852,46.9823554 106.334771,46.9666241 106.326264,46.9508929 M96.8744567,65.7629677 C96.7825884,65.5661139 96.7060314,65.3786139 96.640958,65.2042942 C96.7817377,65.048682 96.9229428,64.8934949 97.0641478,64.7383078 C96.9480365,64.6328656 96.8314997,64.5274235 96.714963,64.4215561 C96.6209681,64.6579507 96.5614238,64.7889031 96.5231453,64.8735119 C96.4691301,64.7157738 96.4206441,64.5733418 96.3730086,64.4466412 C96.4066086,64.338648 96.4487149,64.2234269 96.4997529,64.0980017 C96.5337782,64.0644133 96.5673782,64.0303997 96.6014035,63.9963861 C96.7298491,64.0605867 96.8578694,64.1247874 96.9863149,64.1889881 L96.9863149,63.8280187 C97.118163,63.7621173 97.2500111,63.696216 97.3818592,63.6303146 C97.4167352,64.0716412 97.5273175,64.3879677 97.7004213,64.8539541 C97.4252415,65.1566752 97.1496365,65.4598214 96.8744567,65.7629677 M92.7416567,70.8628827 C92.4384061,71.0584609 92.6944466,71.0593112 92.2584972,70.9024235 C92.2091605,70.8301446 92.1232466,70.6745323 91.9935251,70.3190901 C92.1679048,70.1273384 92.3422846,69.9351616 92.5170896,69.7429847 C92.4201175,70.2132228 92.8747808,69.7791241 92.7416567,70.8628827 M104.753019,43.0941752 C105.230649,44.0133929 105.337404,44.3892432 105.502001,45.7144983 C105.717211,45.6405187 105.894568,45.5661139 106.043854,45.491284 C105.878406,46.0894983 105.957515,46.3556548 106.134021,46.6498724 C105.888188,46.348852 105.550487,46.2310799 104.779814,46.0754677 C104.900178,45.7144983 105.020543,45.3535289 105.140907,44.9929847 C104.423398,44.9134779 105.055844,44.6524235 104.419145,44.9929847 L104.058052,44.9929847 C104.177991,44.7523384 104.298355,44.5116922 104.419145,44.2710459 L104.058052,44.2710459 C103.937687,44.1507228 103.816897,44.0303997 103.696958,43.9100765 C103.046224,45.2298044 102.089262,46.7404337 100.44754,46.4364371 C100.923469,47.3131378 100.278264,46.6911139 101.169302,47.1583759 C100.496026,48.846301 100.064755,49.1507228 99.3642592,51.1286139 L98.6420719,51.1286139 C98.5217073,51.0082908 98.4013428,50.8879677 98.2809782,50.7676446 L98.2809782,48.9632228 L99.3642592,48.9632228 L99.3642592,48.6022534 C98.5587099,48.3730867 98.4102744,48.3356718 97.9198846,47.8803146 L97.1976972,47.8803146 C97.447358,48.8705357 96.9752567,48.463648 97.9198846,48.6022534 L97.9198846,49.323767 C96.7583453,49.0091412 97.3622947,49.5197704 96.8370289,48.6022534 C95.7443909,49.0950255 96.5907706,49.6468963 96.1148415,50.4066752 C96.5273985,51.2795493 98.9112972,52.088648 100.835429,52.4292092 C100.835429,52.7974065 100.850315,53.1324405 100.890295,53.4385629 C100.387145,53.3939201 99.9813934,53.4900085 99.2660111,53.7621173 C98.8019909,53.1409439 98.7990137,53.213648 98.6922592,52.7404337 C98.143601,52.2421344 97.5945175,51.743835 97.0458592,51.2455357 C96.9089073,52.0278486 97.9271149,53.4156037 98.7288365,54.2578656 C98.833039,54.5652636 98.7611605,54.4304847 99.0031656,54.7378827 L99.0031656,54.5333759 C99.1188516,54.6439201 99.2251808,54.7370323 99.3166238,54.8088861 C99.3247048,54.9832058 99.3332111,55.1575255 99.3417175,55.3322704 C99.5075909,55.1494473 99.6738896,54.966199 99.8401884,54.7833759 C99.9316314,54.8667092 100.023074,54.9496173 100.114517,55.0325255 C101.289667,54.7557398 100.213191,54.9334609 101.211834,56.0291241 C101.060847,56.2468112 100.935378,56.4075255 100.834578,56.5303997 C100.579388,56.3484269 100.316543,56.1622024 100.018821,55.971301 C100.162578,56.7132228 100.108563,56.6668793 100.379915,57.0542092 C100.345039,57.9032738 100.316543,58.6179847 100.367155,59.2264031 C99.7636314,59.1796344 99.1805225,59.1154337 98.7449985,59.2952806 C97.8212111,59.6770833 98.2252618,60.2030187 97.7480567,60.3922194 C97.7327453,60.4742772 97.7182846,60.5444303 97.7046744,60.6065051 C97.2555403,60.6660289 97.1543149,60.651148 96.8536162,60.8624575 C96.7591959,60.798682 96.665201,60.7349065 96.5712061,60.671131 C96.5767352,60.5308248 96.5933225,60.3820153 96.6252213,60.21875 L95.9030339,60.21875 C95.8200972,60.3101616 95.7371605,60.4015731 95.6537985,60.4929847 C95.6767656,60.5244473 95.6993073,60.553784 95.7214238,60.5831207 C95.3747909,61.3998724 95.8490187,61.4343112 95.5419403,62.0235969 C95.3246035,62.4402636 94.94352,62.6490221 94.5700922,62.9058248 C94.497363,62.8939201 94.4122997,62.8828656 94.3046947,62.8696854 C94.3208567,62.9343112 94.3370187,62.9993622 94.3536061,63.0644133 C94.1137276,63.2519133 93.8917124,63.4815051 93.7368972,63.8280187 C92.8377782,63.2965561 93.3137073,63.9164541 93.0147099,62.7451105 L92.6536162,62.7451105 C92.6051301,62.7940051 92.5566441,62.8424745 92.508158,62.8909439 C92.449039,62.9130527 92.3848162,62.9372874 92.3069833,62.9657738 C92.3290997,62.9857568 92.3512162,63.0057398 92.3733327,63.0257228 C92.3465377,63.0525085 92.3193175,63.0792942 92.2925225,63.1060799 C92.5591959,64.4147534 92.2567959,64.1082058 93.3758035,64.5499575 C94.1775251,64.9015731 93.7870846,64.568665 94.6496263,64.2472364 C94.6725934,64.3373724 94.6951352,64.4275085 94.717677,64.5176446 C94.7861529,64.4423895 94.8546289,64.3671344 94.9226795,64.2918793 C95.0090187,64.3777636 95.0949327,64.4640731 95.1812719,64.5499575 C94.5505276,65.5014881 95.1566035,65.0525085 94.0979909,64.9109269 C93.9776263,65.03125 93.8572618,65.1515731 93.7368972,65.2718963 C94.1911352,65.9946854 94.4926846,66.141369 94.6738694,66.8356718 C94.6734441,66.9130527 94.6696162,66.9993622 94.6598339,67.0984269 C94.346801,67.2999575 94.6313377,67.2952806 94.1362694,67.1235119 C94.2055959,67.5184949 94.6606846,68.276148 94.7351149,68.6685799 C94.3502035,68.7221514 94.0295149,69.0265731 93.4510846,69.1894133 C92.8862643,69.0142432 92.7191149,69.0673895 92.717839,69.2910289 C92.700401,69.2914541 92.684239,69.2927296 92.6663757,69.2927296 C92.6234187,69.4002976 92.5906694,69.4900085 92.5655757,69.5656888 C92.4698795,69.4789541 92.3741833,69.3917942 92.2784871,69.3046344 C91.592877,70.5741922 91.6217985,70.4258078 91.9122896,71.2242772 C91.7651301,71.3866922 91.6179706,71.548682 91.4703858,71.7106718 C92.271682,71.8161139 92.0441377,71.8003827 92.2682795,71.9347364 C92.8020516,72.8369473 92.1696061,72.026148 92.3188922,72.9815051 C91.0101934,74.3815901 90.9187504,75.2795493 91.3908516,76.0189201 C91.6694339,76.03125 91.9492922,76.0384779 92.2304263,76.0384779 C102.64515,76.0384779 111.088107,67.5984269 111.088107,57.1872874 C111.088107,51.5809949 108.639135,46.5474065 104.753019,43.0941752" id="Fill-105" fill="#FFFFFF"></path>
                    <path d="M92.50416,62.0200357 L92.50416,61.5955357 L91.7819727,61.5955357 C92.1532739,61.9380357 91.8708638,61.7520357 92.50416,62.0200357" id="Fill-107" fill="#FFFFFF"></path>
                    <path d="M89.9767595,66.6485969 C89.703281,67.0367772 89.7500658,66.9823554 89.6156658,67.7315051 C91.5249114,67.5954507 89.6560709,67.0907738 91.7822278,67.3705357 C91.735443,66.3365221 91.5266127,66.8454507 91.7822278,66.2876276 L91.7822278,65.5656888 C90.6377013,65.821216 90.5773063,65.953869 89.9767595,66.6485969" id="Fill-109" fill="#FFFFFF"></path>
                    <path d="M91.0031757,68.1470238 C90.9631959,68.1104592 90.9227909,68.0738946 90.8828111,68.0377551 C90.8594187,68.0632653 90.8360263,68.0892007 90.8122086,68.1151361 C90.7756314,68.1079082 90.7382035,68.1006803 90.6990744,68.0921769 C90.7050289,68.1380952 90.7114086,68.1784864 90.7177884,68.2193027 C90.5612719,68.3910714 90.4051808,68.5632653 90.2490896,68.7354592 C90.4413327,68.9097789 90.6335757,69.0845238 90.8258187,69.2588435 C90.7964719,69.3315476 90.7560668,69.4195578 90.6990744,69.5360544 L90.6990744,69.8970238 C91.5858592,69.3727891 91.1350238,69.967602 91.4097782,68.8591837 C91.4182846,68.8498299 91.4263656,68.8409014 91.4348719,68.8315476 C91.7057985,69.1746599 91.5582137,68.9140306 91.7819301,69.5360544 L92.1430238,69.5360544 C92.1260111,69.3880952 92.1119757,69.2584184 92.0992162,69.1419218 C92.1587605,69.1963435 92.2187301,69.2507653 92.2782744,69.3047619 C92.187682,68.7707483 92.280401,69.0156463 92.0235099,68.5547619 C91.9329175,68.0785714 91.7806542,68.2613946 91.0031757,68.1470238" id="Fill-111" fill="#FFFFFF"></path>
                    <path d="M90.3378106,69.8969813 L90.3378106,69.5360119 C90.4581752,69.4156888 90.5785397,69.2953656 90.6989043,69.1750425 L89.976717,69.1750425 C90.2097904,69.7979167 90.0473195,69.5283588 90.3378106,69.8969813" id="Fill-113" fill="#FFFFFF"></path>
                    <path d="M89.6157084,69.8969813 L89.6157084,71.3408588 C90.238797,71.1078656 89.9691463,71.2698554 90.3378957,70.9798895 C90.7993641,70.6678146 90.0690957,70.3170493 89.6157084,69.8969813" id="Fill-115" fill="#FFFFFF"></path>
                    <path d="M94.9543656,45.7627976 L95.3839352,45.7627976 C95.9096263,44.7917092 96.1184567,44.7989371 96.2434997,43.1858418 C97.488401,43.703699 96.5943858,43.3355017 97.102639,44.4741071 C97.388877,44.6173895 97.6755403,44.7606718 97.9617782,44.9039541 L97.9617782,44.4741071 C98.3156415,43.8082908 97.4526744,41.8946003 96.6730694,41.0383078 C96.3647149,42.4481718 96.2341428,42.0391582 95.8135048,43.1858418 C95.0976972,42.8997024 94.3814643,42.6131378 93.6652314,42.3265731 C93.3789934,42.6131378 93.0923301,42.8997024 92.8060922,43.1858418 C94.2521681,44.8533588 94.4095352,43.5723214 94.9543656,45.7627976" id="Fill-117" fill="#FFFFFF"></path>
                </g>
            </g>
        </g>
    </g>
</svg>