<svg xmlns="http://www.w3.org/2000/svg" xmlns:xlink="http://www.w3.org/1999/xlink" version="1.1" x="0px" y="0px" viewBox="0 0 612 990" enable-background="new 0 0 612 792" xml:space="preserve"><g><path d="M437.7,374.6H174.3c-12.1,0-21.9,9.9-21.9,21.9v0c0,12.1,9.9,21.9,21.9,21.9h263.4c12.1,0,21.9-9.9,21.9-21.9v0   C459.7,384.5,449.8,374.6,437.7,374.6z"/><path d="M174.3,308.3h263.5c12.1,0,21.9-9.9,21.9-21.9v0c0-12.1-9.9-21.9-21.9-21.9H174.3c-12.1,0-21.9,9.9-21.9,21.9v0   C152.3,298.4,162.2,308.3,174.3,308.3z"/><path d="M437.7,483.7H174.3c-12.1,0-21.9,9.9-21.9,21.9s9.9,21.9,21.9,21.9h263.5c12.1,0,21.9-9.9,21.9-21.9   S449.8,483.7,437.7,483.7z"/></g><text x="0" y="807" fill="#000000" font-size="5px" font-weight="bold" font-family="'Helvetica Neue', Helvetica, Arial-Unicode, Arial, Sans-serif">Created by Dmitriy Ivanov</text><text x="0" y="812" fill="#000000" font-size="5px" font-weight="bold" font-family="'Helvetica Neue', Helvetica, Arial-Unicode, Arial, Sans-serif">from the Noun Project</text></svg>