<?xml version="1.0" encoding="utf-8"?>
<!-- Generator: Adobe Illustrator 16.0.4, SVG Export Plug-In . SVG Version: 6.00 Build 0)  -->
<!DOCTYPE svg PUBLIC "-//W3C//DTD SVG 1.0//EN" "http://www.w3.org/TR/2001/REC-SVG-20010904/DTD/svg10.dtd">
<svg version="1.0" id="Ebene_1" xmlns="http://www.w3.org/2000/svg" xmlns:xlink="http://www.w3.org/1999/xlink" x="0px" y="0px"
	 width="311.811px" height="264.053px" viewBox="0 0 311.811 264.053" enable-background="new 0 0 311.811 264.053"
	 xml:space="preserve">
<path fill="#E30613" d="M269.28,13.669H42.792c-15.586,0-28.485,12.332-28.485,28.258V183.54c0,15.93,12.899,28.555,28.485,28.555
	H269.28c15.594,0,28.492-12.625,28.492-28.555V41.927C297.772,26.001,284.874,13.669,269.28,13.669"/>
<path fill="#FFFFFF" d="M277.081,183.54c0,4.512-3.301,8.125-7.801,8.125H42.792c-4.492,0-7.793-3.613-7.793-8.125V41.927
	c0-4.512,3.301-8.121,7.793-8.121H269.28c4.5,0,7.801,3.609,7.801,8.121V183.54z"/>
<path fill="#E30613" d="M121.698,114.978c0-26.156-2.715-46.586-30.894-46.586h-6.313v88.383h11.094
	C112.089,156.774,121.698,143.548,121.698,114.978 M100.995,177.829H53.304V47.942h47.691c33.594,0,52.148,21.047,52.148,64.34
	C153.143,149.868,140.585,177.524,100.995,177.829"/>
<path fill="#E30613" d="M210.487,156.771h-12.789v-33.375h13.633c16.207,0,20.156,9.453,20.156,16.688
	C231.487,156.771,215.428,156.771,210.487,156.771 M197.698,68.021h9.832c13.965,0,19.512,4.875,19.512,15.628
	c0,8.536-6.105,15.704-16.965,15.704h-12.379V68.021z M235.53,109.876c9.199-2.438,22.715-12.926,22.715-30.242
	c0-2.703-0.567-31.649-37.09-31.649h-54.349v129.844h45.919c12.168,0,50.059,0,50.059-36.523
	C262.784,132.185,259.062,115.017,235.53,109.876"/>
<text transform="matrix(1 0 0 1 53.2944 251.3857)" fill="#FFFFFF" font-family="'ArialMT'" font-size="33">#dbOpenData</text>
</svg>
