<svg id="Layer_1" data-name="Layer 1" xmlns="http://www.w3.org/2000/svg" viewBox="0 0 1043.75 172.9" fill="#27ae60"><title>Logo Black + Lettering</title><path d="M258.32,96.83h28.12V100c0,17.08-11.55,28.25-29.06,28.25-19.4,0-31.89-15.38-31.89-39.3,0-23.6,12.24-38.23,31.89-38.23,13.81,0,24.42,7.78,28.12,20.72h8.91c-3.39-17.33-18-28.69-37-28.69-24.73,0-40.68,18.14-40.68,46.2,0,28.56,16.13,47.27,40.68,47.27,23.54,0,37.6-14.31,37.6-38.23V89.3H258.32v7.53Z" transform="translate(-6.78 -5.55)"/><path d="M383,70.72c0-16.13-11.3-26.49-29-26.49H321.64v90.58h8.54V97.71h24.54l20.84,37.1h10L363.63,96.33C375.75,93.19,383,83.53,383,70.72Zm-29.69,19.4H330.17V51.89H353c13.18,0,21.15,7.09,21.15,19.08S366.46,90.12,353.34,90.12Z" transform="translate(-6.78 -5.55)"/><path d="M436.62,44.23l-33.9,90.58h9.1l10-27.75h38l10,27.75h9L445.16,44.23h-8.54ZM424.44,99.66L440.7,54.84h0.38l16.26,44.82H424.44Z" transform="translate(-6.78 -5.55)"/><path d="M534,44.23H501.82v90.58h8.54V100.66H533.9c17.26,0,29.13-11.42,29.13-28.25S551.22,44.23,534,44.23Zm-2,48.78H510.35V51.89h21.59c14,0,22.29,7.66,22.29,20.53S545.88,93,531.95,93Z" transform="translate(-6.78 -5.55)"/><polygon points="642.91 78.98 589.93 78.98 589.93 38.68 581.39 38.68 581.39 129.26 589.93 129.26 589.93 86.76 642.91 86.76 642.91 129.26 651.51 129.26 651.51 38.68 642.91 38.68 642.91 78.98"/><path d="M724.81,50.76c14.06,0,25.61,9.17,28.12,22.22h8.6c-2.45-17.7-17.58-30.19-36.72-30.19-24.61,0-40.36,18.14-40.36,46.52,0,28.69,15.69,47,40.36,47,19.65,0,33.52-10.61,36.72-28.25h-8.6c-2.7,12.55-13.62,20.28-28.06,20.28-19.27,0-31.64-15.13-31.64-39C693.23,65.76,705.6,50.76,724.81,50.76Z" transform="translate(-6.78 -5.55)"/><path d="M824.47,42.79c-25.24,0-41.12,18.08-41.12,46.77s15.88,46.7,41.12,46.7,41.18-18,41.18-46.7S849.71,42.79,824.47,42.79Zm0,85.5c-19.84,0-32.33-15-32.33-38.73s12.49-38.79,32.33-38.79,32.39,15,32.39,38.79S844.31,128.29,824.47,128.29Z" transform="translate(-6.78 -5.55)"/><path d="M929.28,42.79c-25.24,0-41.12,18.08-41.12,46.77s15.88,46.7,41.12,46.7,41.18-18,41.18-46.7S954.52,42.79,929.28,42.79Zm0,85.5c-19.84,0-32.33-15-32.33-38.73s12.49-38.79,32.33-38.79,32.39,15,32.39,38.79S949.12,128.29,929.28,128.29Z" transform="translate(-6.78 -5.55)"/><polygon points="998.37 121.48 998.37 38.68 989.83 38.68 989.83 129.26 1043.76 129.26 1043.76 121.48 998.37 121.48"/><path d="M146.56,62.68c-8.41-4.74-19,1.44-20.67,2.5L89.6,85.77A14.15,14.15,0,1,0,95,96.86a14.24,14.24,0,0,0-.22-2.49l36.2-20.53,0.22-.13c2.38-1.52,7.9-3.75,10.48-2.3,1.86,1,2.92,4.56,3,9.72h0v45.4a11.89,11.89,0,0,1-5.93,10.27l-52,30a11.9,11.9,0,0,1-11.86,0l-52-30a11.89,11.89,0,0,1-5.93-10.27V66.46a11.9,11.9,0,0,1,5.93-10.27L69.81,29a14.15,14.15,0,1,0-3.48-9.56L17.72,47.51A21.94,21.94,0,0,0,6.78,66.46v60.08a21.94,21.94,0,0,0,10.94,18.95l52,30a21.94,21.94,0,0,0,21.88,0l52-30a21.94,21.94,0,0,0,10.94-18.95V82.88h0C154.88,72.63,152.16,65.84,146.56,62.68Z" transform="translate(-6.78 -5.55)"/></svg>