<?xml version="1.0" encoding="UTF-8" standalone="no"?>
<!-- Created with Inkscape (http://www.inkscape.org/) -->

<svg
   xmlns:dc="http://purl.org/dc/elements/1.1/"
   xmlns:cc="http://creativecommons.org/ns#"
   xmlns:rdf="http://www.w3.org/1999/02/22-rdf-syntax-ns#"
   xmlns:svg="http://www.w3.org/2000/svg"
   xmlns="http://www.w3.org/2000/svg"
   xmlns:sodipodi="http://sodipodi.sourceforge.net/DTD/sodipodi-0.dtd"
   xmlns:inkscape="http://www.inkscape.org/namespaces/inkscape"
   width="1300"
   height="1300"
   id="svg4008"
   version="1.1"
   inkscape:version="0.48.0 r9654"
   sodipodi:docname="Neues Dokument 17">
  <defs
     id="defs4010" />
  <sodipodi:namedview
     id="base"
     pagecolor="#ffffff"
     bordercolor="#666666"
     borderopacity="1.0"
     inkscape:pageopacity="0.0"
     inkscape:pageshadow="2"
     inkscape:zoom="0.24748737"
     inkscape:cx="-173.84808"
     inkscape:cy="310.37953"
     inkscape:document-units="px"
     inkscape:current-layer="layer1"
     showgrid="false"
     fit-margin-top="0"
     fit-margin-left="0"
     fit-margin-right="0"
     fit-margin-bottom="0"
     inkscape:window-width="1600"
     inkscape:window-height="838"
     inkscape:window-x="-8"
     inkscape:window-y="-8"
     inkscape:window-maximized="1" />
  <metadata
     id="metadata4013">
    <rdf:RDF>
      <cc:Work
         rdf:about="">
        <dc:format>image/svg+xml</dc:format>
        <dc:type
           rdf:resource="http://purl.org/dc/dcmitype/StillImage" />
        <dc:title></dc:title>
      </cc:Work>
    </rdf:RDF>
  </metadata>
  <g
     inkscape:label="Ebene 1"
     inkscape:groupmode="layer"
     id="layer1"
     transform="translate(319.20819,98.13517)">
    <rect
       style="fill:none;stroke:none"
       id="rect4701"
       width="1300"
       height="1300"
       x="-321.20819"
       y="-96.13517"
       ry="0.23967546" />
    <path
       style="fill:#000000;fill-opacity:1;stroke:#000000;stroke-width:1px;stroke-linecap:butt;stroke-linejoin:miter;stroke-opacity:1"
       d="m -123.93365,574.05145 287.74947,-0.20921 182.75561,181.94851 -2.14286,400.00005 -63.57143,-18.5715 -144.28571,-82.8571 -102.857144,-96.42859 -78.571429,-123.57143 -55,-113.57143 z"
       id="path4666"
       inkscape:connector-curvature="0"
       sodipodi:nodetypes="cccccccccc" />
    <path
       style="fill:#ff0000;fill-opacity:1;stroke:#000000;stroke-width:1px;stroke-linecap:butt;stroke-linejoin:miter;stroke-opacity:1"
       d="m 56.571432,969.36216 272.142848,0 0,170.71434 -50,-7.1428 -98.57143,-49.2858 -78.57142,-57.1428 z"
       id="path4688"
       inkscape:connector-curvature="0" />
    <path
       style="fill:#ff0000;fill-opacity:1;stroke:#000000;stroke-width:1px;stroke-linecap:butt;stroke-linejoin:miter;stroke-opacity:1"
       d="m -93.785697,699.36217 50,115.71436 373.571387,-1.4286 0,-67.1429 -115.00001,-46.42857 z"
       id="path4668-6"
       inkscape:connector-curvature="0" />
    <path
       style="fill:#ffcc00;fill-opacity:1;stroke:none"
       d="m 345.49248,758.89256 1.01015,385.87824 c 110.6117,-49.5892 221.22341,-75.9365 331.83511,-258.59902 83.6058,-85.16197 109.1952,-188.71939 115.15739,-298.50007 l -270.72088,-0.50508 -11.11168,48.48732 -38.3858,61.61931 -46.46701,36.87057 z"
       id="path4664"
       inkscape:connector-curvature="0"
       sodipodi:nodetypes="ccccccccc" />
    <path
       style="fill:#ffcc00;fill-opacity:1;stroke:none"
       d="m -116.65231,174.01424 2.0203,356.07877 -1.51523,43.94164 276.7818,0 2.52538,-238.396 164.65487,-2.52539 L 328.82496,82.090357 183.86807,93.202035 -4.0203051,133.10306 z"
       id="path4643"
       inkscape:connector-curvature="0" />
    <path
       style="fill:#ffcc00;fill-opacity:1;stroke:#ffcc00;stroke-width:1px;stroke-linecap:butt;stroke-linejoin:miter;stroke-opacity:1"
       d="m 156.63727,328.52424 -0.50507,246.22469 c -0.28466,57.64534 24.38178,106.21197 60.78206,139.9822 31.29942,31.34982 73.40389,47.09235 125.84362,47.90617 54.67413,-3.83106 93.7674,-21.71546 121.7771,-49.59679 41.16409,-30.03295 57.66826,-73.54277 58.53513,-124.65452 l -0.0701,-259.7381 z"
       id="path4639"
       inkscape:connector-curvature="0"
       sodipodi:nodetypes="cccccccc" />
    <path
       style="fill:none;stroke:#000000;stroke-width:20;stroke-linecap:butt;stroke-linejoin:miter;stroke-miterlimit:4;stroke-opacity:1;stroke-dasharray:none"
       d="m -129.14286,35.790753 c 309.64985,-121.498942 621.54344,-112.861696 935,-13.571429 L 803.71429,512.21932 C 812.63663,679.14988 750.7498,821.20638 651.96334,935.6962 578.95341,1029.27 477.376,1104.2555 340.85714,1156.505 192.93484,1114.7947 83.665351,1026.119 6.8543484,919.18559 -70.679713,818.61211 -119.19253,682.2363 -123.42857,557.93361 z"
       id="path4027"
       inkscape:connector-curvature="0"
       sodipodi:nodetypes="cccccccc" />
    <path
       style="fill:#ffcc00;fill-opacity:1;stroke:#000000;stroke-width:20;stroke-linecap:butt;stroke-linejoin:miter;stroke-miterlimit:4;stroke-opacity:1;stroke-dasharray:none"
       d="m -127.25893,173.50916 -1.60188,-137.972478 c 143.435506,-57.62183 301.62336,-90.278829 453.14008,-91.332149 224.35197,2.45808 347.33306,37.2945 482.85291,77.78175 l -2.0203,138.390897 C 477.87398,42.245283 164.98268,60.127146 -127.25893,173.50916 z"
       id="path4537"
       inkscape:connector-curvature="0"
       sodipodi:nodetypes="cccccc" />
    <path
       style="fill:#000000;fill-opacity:1;stroke:#000000;stroke-width:1px;stroke-linecap:butt;stroke-linejoin:miter;stroke-opacity:1"
       d="m -100.74241,138.40636 0.25254,-93.186571 78.034281,-24.4962 c 9.99492,-1.196918 20.8770756,-4.087652 23.7385848,8.333759 L 2.0406102,53.553547 C 2.2391478,69.543003 -5.6505887,79.905834 -20.94036,85.120814 l -60.104077,20.455586 -0.252538,24.24366 z"
       id="path4539"
       inkscape:connector-curvature="0"
       sodipodi:nodetypes="ccccccccc" />
    <path
       style="fill:#ffcc00;fill-opacity:1;stroke:#000000;stroke-width:1px;stroke-linecap:butt;stroke-linejoin:miter;stroke-opacity:1"
       d="m -80.53936,88.908886 0,-33.84011 43.436559,-13.889597 c 14.676135,-3.858243 19.271515,0.717839 18.435284,11.616754 1.690432,11.290859 -3.304572,17.149801 -12.374369,19.697974 z"
       id="path4541"
       inkscape:connector-curvature="0"
       sodipodi:nodetypes="cccccc" />
    <path
       style="fill:#000000;fill-opacity:1;stroke:#000000;stroke-width:1px;stroke-linecap:butt;stroke-linejoin:miter;stroke-opacity:1"
       d="M 46.992399,91.686806 114.92516,78.554823 c 13.41951,-4.861429 25.87748,-10.509568 24.74873,-27.274119 l 0,-46.9720934 C 138.57186,-12.917498 124.46336,-13.885507 107.34901,-11.096216 L 48.760165,1.7832292 C 42.499639,2.1691127 20.185452,13.147743 23.253814,29.057348 l 0,43.689098 c 0.112584,13.110875 2.924008,23.192446 23.738585,18.94036 z"
       id="path4543"
       inkscape:connector-curvature="0"
       sodipodi:nodetypes="ccccccccc" />
    <path
       style="fill:#ffcc00;fill-opacity:1;stroke:#000000;stroke-width:1px;stroke-linecap:butt;stroke-linejoin:miter;stroke-opacity:1"
       d="M 41.436559,58.351772 42.194174,32.087806 C 42.395612,24.018616 48.05516,18.860418 58.356615,16.177903 L 103.3084,6.833992 c 13.90449,-0.9716086 14.95887,6.848967 16.41498,14.394674 l 0.75762,22.98097 c 1.59152,7.62103 -3.45717,13.166995 -12.62691,17.425132 L 62.144687,72.241369 C 45.850976,74.144374 42.411237,67.105486 41.436559,58.351772 z"
       id="path4545"
       inkscape:connector-curvature="0"
       sodipodi:nodetypes="ccccccccc" />
    <path
       style="fill:#000000;fill-opacity:1;stroke:#000000;stroke-width:1px;stroke-linecap:butt;stroke-linejoin:miter;stroke-opacity:1"
       d="m 163.91756,70.978679 -0.25254,-89.651039 88.64088,-6.565991 c 11.82135,-0.746357 17.35158,4.748009 17.67767,15.404826 l -0.25254,18.9403602 c 0.981,11.8063598 -9.04468,16.4344478 -23.48604,18.1827458 17.54994,7.387037 22.62731,20.092884 23.48604,34.597725 l -20.45558,0.252538 C 247.52107,49.304769 244.07987,38.250998 229.07239,39.411412 l -45.7094,3.535534 -0.25254,25.001275 -20.20305,3.535534 z"
       id="path4547"
       inkscape:connector-curvature="0"
       sodipodi:nodetypes="ccccccccccccc" />
    <path
       style="fill:#ffcc00;fill-opacity:1;stroke:#000000;stroke-width:1px;stroke-linecap:butt;stroke-linejoin:miter;stroke-opacity:1"
       d="m 183.36299,27.542119 0,-32.8299576 53.53809,-3.2829954 c 12.29921,1.0501828 12.8949,7.6441403 12.6269,14.6472116 -0.44887,8.3759104 -1.59744,16.2270464 -12.6269,16.6675174 z"
       id="path4549"
       inkscape:connector-curvature="0"
       sodipodi:nodetypes="cccccc" />
    <path
       style="fill:#000000;fill-opacity:1;stroke:#000000;stroke-width:1px;stroke-linecap:butt;stroke-linejoin:miter;stroke-opacity:1"
       d="m 291.19678,62.64492 87.12565,-1.010152 C 392.04042,56.40732 393.44798,50.00745 393.22218,43.452022 l 0,-16.667517 C 390.07113,9.047707 380.80025,9.6704145 371.75644,9.6119115 L 314.93536,8.0966827 c -7.80672,-1.044009 -7.64866,-6.7341347 -7.57614,-12.3743687 -0.99728,-8.159657 4.2388,-9.46262 9.84898,-10.354064 l 71.4683,-0.252538 0.25254,-12.879445 -79.04444,-0.505076 c -9.07577,1.220203 -18.56732,1.533252 -20.45559,18.435284 l 0,16.4149788 c 2.57739,5.7060972 2.46044,16.2292232 17.93021,16.4149792 l 54.54823,0.505076 c 12.60596,-0.834097 11.90973,6.033079 12.12184,12.374369 0.0109,6.769679 -2.59125,11.797319 -12.62691,11.869292 l -70.45814,0.757615 z"
       id="path4551"
       inkscape:connector-curvature="0"
       sodipodi:nodetypes="ccccccccccccccccccc" />
    <path
       style="fill:#000000;fill-opacity:1;stroke:#000000;stroke-width:1px;stroke-linecap:butt;stroke-linejoin:miter;stroke-opacity:1"
       d="M 523.02679,71.988831 523.27932,55.82639 446.76027,48.250246 C 435.34974,46.597126 433.19441,37.866495 433.12321,27.542119 l 0.75761,-22.2233558 c 1.81633,-12.1125862 9.2187,-16.2451052 20.45559,-14.8997502 l 67.17515,5.0507628 0.25254,-16.1624408 -78.53937,-5.050763 c -16.53452,-0.644622 -29.70559,3.01597 -29.54696,23.7385852 L 413.42523,36.88603 c 0.55923,12.446928 -0.84007,25.668159 27.7792,27.021581 z"
       id="path4553"
       inkscape:connector-curvature="0"
       sodipodi:nodetypes="ccccccccccccc" />
    <path
       style="fill:#000000;fill-opacity:1;stroke:#000000;stroke-width:1px;stroke-linecap:butt;stroke-linejoin:miter;stroke-opacity:1"
       d="m 544.49253,74.009136 0.25254,-89.651038 21.97081,3.282996 0.25254,34.850262 71.21576,13.131984 0.25253,-35.8604158 20.70813,5.3033008 0.50508,91.418805 -21.71828,-5.808377 0,-35.860415 -71.72083,-13.384521 0.50507,35.102801 z"
       id="path4555"
       inkscape:connector-curvature="0" />
    <path
       style="fill:#000000;fill-opacity:1;stroke:#000000;stroke-width:1px;stroke-linecap:butt;stroke-linejoin:miter;stroke-opacity:1"
       d="m 684.39866,10.116988 94.44926,29.7995 -0.25254,14.89975 -74.24621,-23.233509 -0.25254,22.728433 70.96322,22.223356 -0.25254,13.384521 -70.45814,-21.71828 -0.25254,23.991123 75.5089,24.243658 -0.25254,14.89975 -95.20687,-28.78934 z"
       id="path4557"
       inkscape:connector-curvature="0" />
    <path
       style="fill:#000000;fill-opacity:1;stroke:#000000;stroke-width:1px;stroke-linecap:butt;stroke-linejoin:miter;stroke-opacity:1"
       d="m -81.642857,273.29075 c -6.281706,-11.64923 -8.60209,-21.75795 2.142857,-26.78571 14.506647,-0.60998 21.169449,5.6434 24.285714,15 l 24.642857,-13.92857 c -3.318824,-40.83044 -1.011984,-77.24071 48.214286,-76.78572 -11.8791767,9.34496 -22.6107222,19.04304 -27.6417481,30.49512 -4.2682979,9.71589 -6.5605609,26.0119 2.2846054,33.7906 L 43.357143,217.93361 c -6.292355,-39.32156 22.98156,-81.07713 58.214287,-65.35714 -9.312695,3.16128 -23.390982,11.41106 -30.97741,26.13894 -6.231973,12.37306 -8.170497,25.94859 -1.879734,32.78963 l 48.214284,-8.57143 c 6.74978,-43.66209 26.14155,-70.65973 74.64286,-59.28571 -25.66515,9.79125 -52.92032,18.17955 -47.14286,55.71428 l 45.71429,-1.07143 c 7.56456,-12.40255 15.49516,-24.26823 28.08307,-29.3032 10.79571,-4.51275 29.76963,-8.32793 42.27407,4.66035 -20.09348,1.42362 -40.2659,2.64199 -51.07143,28.21428 45.47791,7.74914 48.95918,22.85278 48.92857,38.57143 -28.25742,-24.01802 -66.87387,-28.58769 -111.08821,-22.64772 -59.415099,4.0602 -127.523024,27.54332 -190.697501,56.93343 4.785014,8.64702 11.93352,17.02392 0.714285,27.5 -10.558928,6.99762 -17.990423,1.48551 -24.285714,-8.57142 -9.004256,6.2362 -17.159621,15.6982 -30.714286,4.64285 -5.355154,-15.30878 0.959678,-23.0185 16.071429,-25 z"
       id="path4559"
       inkscape:connector-curvature="0"
       sodipodi:nodetypes="ccccccccccccccccccccccccc" />
    <path
       style="fill:#000000;fill-opacity:1;stroke:#000000;stroke-width:1px;stroke-linecap:butt;stroke-linejoin:miter;stroke-opacity:1"
       d="M -45.928571,402.93361 C 28.822141,356.94445 94.116656,349.50747 156.57143,353.6479 l 0.35714,-26.07143 8.57143,0 c 8.08579,-11.29647 18.30995,-20.64896 36.78571,-22.5 -7.88354,-9.90685 -24.69388,-8.73065 -38.98766,-2.94411 -12.02378,2.65631 -17.73946,20.83989 -21.36948,28.65839 L 105.5,332.93361 c -8.117936,-10.10219 -1.26204,-21.89179 5.61428,-29.62857 6.19712,-7.82593 16.37849,-12.73007 28.67143,-16.08572 -20.00626,-13.74204 -42.510355,5.34602 -42.510355,7.4906 -1.874613,-0.31243 -17.657715,23.20566 -18.918212,40.36655 l -34.642857,7.5 c -7.658635,-20.21309 5.781336,-34.95616 23.571428,-48.57143 -11.906705,-10.55754 -28.857056,1.75364 -36.393227,11.3993 -11.270569,9.13949 -9.728402,30.05896 -12.535344,47.17213 l -26.4285716,10.71428 c -9.7005174,-5.0257 -7.1865474,-16.11772 -5.3846154,-23.79121 1.054903,-12.31535 7.2548159,-22.63539 15.7417583,-27.9945 -19.2169373,-6.90704 -28.8267953,11.39966 -33.5286513,20.87992 -7.795485,12.93082 -2.09972,27.61051 -4.328492,41.26294 L -62,386.50504 c -3.404118,-9.79435 -7.849028,-18.46117 -22.5,-16.07143 -9.871241,10.18207 -4.237511,19.31758 -0.357143,28.57143 -9.294463,3.65734 -20.508137,5.26752 -16.071427,23.57143 15.981397,14.79238 21.727695,1.52613 30.714284,-2.85715 5.222142,8.31124 10.478791,16.56727 25,10 10.992442,-15.24575 2.480069,-19.52004 -0.714285,-26.78571 z"
       id="path4579"
       inkscape:connector-curvature="0"
       sodipodi:nodetypes="cccccccccccccccccccccccccccc" />
    <path
       style="fill:#000000;fill-opacity:1;stroke:#000000;stroke-width:1px;stroke-linecap:butt;stroke-linejoin:miter;stroke-opacity:1"
       d="m 156.92857,467.21932 0,-46.78571 c -12.14151,6.91874 -17.4242,17.64793 -21.07143,29.28571 l -42.321426,2.32143 c -0.08643,-23.9219 12.117806,-41.43129 33.928576,-53.92857 -16.474,-6.70895 -34.819342,5.80388 -42.217037,14.87912 -9.46845,11.61592 -10.345296,28.51899 -11.711539,45.12088 L 42.107143,467.3979 C 32.65082,443.42638 37.584516,424.11046 60.5,410.61218 c -15.738117,-5.49414 -27.994922,4.4275 -33.868043,14.46974 -7.523015,10.03928 -9.960273,24.69682 -5.417671,47.31598 L -6.6428572,484.00504 C -21.77062,465.72608 -15.709388,446.80504 0.5,427.57647 c -18.817929,-1.82139 -28.593265,10.0577 -32.138084,21.20209 -3.92381,12.27727 -0.213626,28.84028 7.316655,47.54791 l -23.214285,14.82143 c -4.991067,-17.27552 -14.06446,-20.55451 -25.714286,-15 -9.056126,9.64286 -4.928322,19.28571 3.035714,28.92857 -8.046597,5.46531 -22.879745,4.14407 -13.214286,27.32143 14.954867,10.01581 22.923401,-2.09177 32.5,-9.10715 6.222588,6.20183 10.11956,15.89209 25.357143,8.57143 8.377144,-16.05521 -0.04499,-21.8442 -8.392857,-27.67857 70.789582,-45.41996 132.414236,-57.0002 190.892856,-56.96429 z"
       id="path4581"
       inkscape:connector-curvature="0"
       sodipodi:nodetypes="ccccccccccccccccccccccc" />
    <text
       xml:space="preserve"
       style="font-size:40px;font-style:normal;font-weight:normal;line-height:125%;letter-spacing:0px;word-spacing:0px;fill:#000000;fill-opacity:1;stroke:none;font-family:Sans"
       x="234.64285"
       y="443.79074"
       id="text4583"
       sodipodi:linespacing="125%"><tspan
         sodipodi:role="line"
         id="tspan4585"
         x="234.64285"
         y="443.79074"
         style="font-style:normal;font-variant:normal;font-weight:normal;font-stretch:normal;font-family:Snowdrift;-inkscape-font-specification:Snowdrift" /></text>
    <path
       style="fill:#000000;fill-opacity:1;stroke:#000000;stroke-width:1px;stroke-linecap:butt;stroke-linejoin:miter;stroke-opacity:1"
       d="m 297.64286,459.36218 -14.28572,-15 c 6.90476,1.00186 13.80953,3.79162 20.71429,1.78572 3.78449,-3.54009 11.01901,-5.93017 17.5,-8.57143 5.62636,-11.53263 14.02472,-16.78205 26.78571,-12.14286 -3.72544,4.12404 -10.8523,1.78538 -10.35714,13.92857 0.15421,5.20293 8.63505,2.07924 13.92857,2.14286 9.93329,-4.60408 19.88396,-9.10043 32.14286,0.71428 -6.29671,2.50427 -13.49458,4.70816 -15.71429,8.57143 3.05119,21.24672 21.04864,17.29604 22.14286,31.07143 -7.14286,-3.69048 -12.38095,-5.23809 -15.71429,-4.64286 9.50885,7.84809 13.22844,16.1996 11.78572,25 -6.05162,-3.94855 -13.92038,-14.80221 -17.85714,-10.71428 0.98184,8.76093 13.5563,11.88123 7.85714,26.78571 L 363,506.50504 c -14.89734,-3.58834 -29.54486,29.16747 -10.71429,40 18.37469,3.0832 38.45411,0.89949 56.74805,0.93819 8.90284,1.49767 17.38281,4.87471 25.03767,11.91895 12.27523,11.75771 19.12497,-9.97048 11.42857,-18.92857 L 428,518.29075 c -0.75573,-2.65836 -6.33313,-5.14408 -4.28571,-16.07143 -0.67096,-6.44069 8.8627,-10.47647 9.64285,-2.14285 -3.41968,3.93945 7.56591,11.18904 4.28572,-1.42857 4.07001,-12.95107 9.86137,-17.86914 16.78571,-17.5 3.51,1.36496 6.5672,1.75964 6.78572,-3.92858 0.92123,-3.18146 10.7879,-3.09044 8.57143,3.21429 -6.15149,7.94881 -14.51398,12.94962 -16.78572,26.07143 -0.88354,9.71442 5.40542,8.20038 7.85714,1.78571 1.93737,-5.55775 3.7503,-11.45327 8.92858,-8.21428 3.75473,7.5538 0.33751,11.76068 -2.85715,16.07143 -7.37168,3.07517 -7.00081,14.63686 2.5,12.14285 3.50949,-1.3415 7.56719,-5.56104 9.28572,2.5 0.68472,4.81093 -3.33091,6.6002 -9.28572,7.14286 -7.17782,0.79388 -12.92909,2.02004 -4.64285,7.5 5.02197,3.8322 7.65142,0.008 10.35714,-3.57143 5.32584,-5.00197 5.81607,-1.82061 5,3.57143 0.18334,5.18143 -2.93875,8.37961 -7.5,10.71429 -5.31738,4.98326 1.23218,4.96991 4.28571,6.42857 4.15237,2.48184 9.84137,4.91567 -0.71428,7.85714 -2.42292,-0.33582 -8.61374,0.41676 -16.07143,-3.92857 -5.61266,-2.56969 -9.69362,0.98744 -13.92857,3.92857 -5.47968,1.18798 -2.09457,8.70796 -1.42858,14.28571 2.67264,8.60616 -4.92726,14.35883 -10.35714,20.71429 -10.54211,10.01007 -9.80749,19.75165 -0.35714,29.28571 8.62874,4.6986 9.69907,11.01687 5,18.57143 -1.52892,3.30466 -4.42592,6.21845 -9.28572,8.57143 -5.43137,1.49195 -5.53183,6.98208 -7.5,11.07143 0.97492,5.49078 -2.16545,8.31872 -9.28571,8.57143 l -12.14286,6.07143 c -7.54266,2.16062 -4.2253,8.45839 -2.14285,14.28571 -6.42857,3.61164 -12.85715,4.14125 -19.28572,5 -0.40272,-4.79184 2.31191,-9.01688 7.14286,-12.85714 1.59535,-10.71421 11.43132,-15.54225 19.28571,-21.78572 0.69365,-5.00825 4.62468,-8.72155 7.5,-12.85714 6.0968,-9.86738 12.53428,-19.84315 -1.78571,-23.21428 -6.42857,-0.80728 -12.85715,-3.07069 -19.28572,-11.42858 -6.48982,-0.67713 -4.34039,4.19954 -4.64285,7.5 L 388,647.93361 c -17.2619,10.27765 -34.52381,22.75542 -51.78571,28.21429 -1.4836,3.17241 -0.39694,6.712 1.42857,10.35714 -6.07143,1.9995 -12.14286,0.92703 -18.21429,0.71428 -2.43125,-1.2151 13.73678,-9.78931 13.57143,-20.35714 l 5.35714,0 c 9.57655,-3.82309 17.2812,-11.38997 25,-18.92857 0.95312,-4.49948 2.22705,-8.7744 7.85715,-10 3.35496,-11.08199 -11.25615,-14.68911 -12.14286,-23.21429 1.24858,-4.62338 12.22466,-11.1295 0.35714,-13.21428 l -34.28571,-0.35714 c -6.16194,-0.26172 -11.9326,-2.47985 -17.14286,-7.5 -3.5474,-3.79577 -6.5115,-8.99146 -14.64286,-1.78572 -7.02886,4.03864 -16.18543,4.29469 -27.5,0.71429 -11.4337,-5.40775 -19.03762,-5.77632 -21.42857,0.71428 l 0.35714,36.07143 c 0.0976,4.20001 -0.59685,8.83205 9.64286,7.5 l 6.42857,0 c -0.24079,5.61591 -1.36133,10.9119 -6.78571,14.64286 -10.37858,-1.42702 -9.33757,-6.8509 -10.71429,-11.42857 -10.45697,-2.96835 -9.42443,-7.43533 -9.28571,-11.78572 l -1.78572,-40.71428 c 0.47293,-3.86727 -0.99754,-8.7634 7.14286,-8.57143 9.83684,1.45994 14.96639,-1.05487 21.78572,-2.14286 2.89963,0.48827 6.04266,1.53288 5.71428,-5.35714 1.6506,-7.53182 -3.96788,-7.94394 -12.85714,-7.5 -10.35579,-3.21429 -6.80637,-6.42857 -7.5,-9.64286 1.77104,-5.36829 -3.5549,-11.32799 -7.14286,-17.14286 -6.91081,-8.43673 -10.44539,3.28545 -15.71428,11.07143 -1.41076,7.05803 -5.1411,13.53616 -10.35715,19.64286 -2.33101,2.75572 -6.43209,4.88671 -1.07143,10.35714 4.34275,3.55076 3.87123,5.49676 -1.78571,5.71429 l -10,5.71428 c -7.74529,-0.14935 -2.62977,-9.51644 -2.14286,-12.14285 5.83189,-1.51966 6.1758,-9.8993 8.57143,-15.71429 2.1391,-7.75125 4.76567,-13.79632 7.85714,-18.21428 l 12.5,-18.57143 c 3.834,-11.93695 16.98704,-2.67109 17.85715,3.57143 3.49422,4.43851 6.18292,11.0922 11.42857,10.71428 11.88567,2.08342 7.56114,-8.93417 9.64286,-15 2.37174,-6.54762 6.47099,-13.09524 21.07142,-19.64286 3.74875,-0.47027 3.28866,-3.27878 2.85715,-6.07142 -2.48582,-4.90772 0.83295,-5.88002 2.14285,-8.21429 -0.96679,-8.12313 -6.31646,-8.8029 -15.35714,-3.21429 -3.43252,2.53997 -6.8216,5.68798 -10.71428,1.78572 L 268,483.6479 l -11.07143,0 c -8.03907,-6.04385 -0.53086,-6.72657 4.64286,-8.21429 6.36912,-12.51976 15.54068,-21.48975 36.07143,-16.07143 z"
       id="path4587"
       inkscape:connector-curvature="0"
       sodipodi:nodetypes="cccccccccccccccccccccccccccccccccccccccccccccccccccccccccccccccccccccccccccccccccccccccccccccccccccccccccc" />
    <path
       style="fill:#ffcc00;fill-opacity:1;stroke:#000000;stroke-width:1px;stroke-linecap:butt;stroke-linejoin:miter;stroke-opacity:1"
       d="m 318.71429,451.86218 c 11.09442,10.24606 18.5523,24.77039 13.57142,53.92857 10.29447,0.50568 9.86275,-15.85695 8.57143,-33.57143 -5.66053,-16.12512 -13.14971,-22.32332 -22.14285,-20.35714 z"
       id="path4589"
       inkscape:connector-curvature="0"
       sodipodi:nodetypes="cccc" />
    <path
       style="fill:#000000;fill-opacity:1;stroke:#000000;stroke-width:1px;stroke-linecap:butt;stroke-linejoin:miter;stroke-opacity:1"
       d="m 223.64283,370.48891 c -6.12908,-4.01304 -12.13723,-4.64017 -17.93021,0.75761 -5.88383,8.67716 -3.48935,14.9314 4.41941,19.57171 3.7359,1.93084 9.61907,2.0007 8.71257,7.95495 -0.86275,3.32359 -4.22754,3.97694 -9.09137,3.03046 -6.27267,-4.41276 -7.83436,-0.0896 -7.07107,3.6618 4.09614,5.51044 10.71085,5.14423 17.80394,3.6618 3.92354,-2.37089 7.45475,-5.25483 7.07107,-13.25825 -0.74482,-3.88597 -1.45046,-7.78174 -7.44988,-10.35406 -5.05909,-1.42605 -10.33134,-2.72421 -8.83883,-8.08122 3.43738,-3.78896 6.47857,-1.63499 9.59645,-0.63135 5.47712,-0.78364 3.57208,-4.4325 2.77792,-6.31345 z"
       id="path4591"
       inkscape:connector-curvature="0"
       sodipodi:nodetypes="cccccccccccc" />
    <path
       style="fill:#000000;fill-opacity:1;stroke:#000000;stroke-width:1px;stroke-linecap:butt;stroke-linejoin:miter;stroke-opacity:1"
       d="m 239.80527,376.67609 -0.12627,29.4207 c 0.0543,3.0888 5.73014,4.72718 7.19733,0.12626 l 0.12627,-29.67323 6.18719,0 c 4.12023,-0.5421 3.69918,-7.56942 -0.12627,-7.82868 l -18.43529,0.12627 c -4.71113,0.25846 -4.5814,7.03366 -1.64149,7.82868 z"
       id="path4593"
       inkscape:connector-curvature="0"
       sodipodi:nodetypes="ccccccccc" />
    <path
       style="fill:#000000;fill-opacity:1;stroke:#000000;stroke-width:1px;stroke-linecap:butt;stroke-linejoin:miter;stroke-opacity:1"
       d="m 259.75578,372.63548 0.12627,25.75889 c 1.14681,6.48575 4.96638,11.45693 16.16244,12.2481 10.45949,-1.29797 13.04043,-7.97321 13.8896,-12.87944 l 0,-26.39024 c -2.30883,-4.7048 -6.76127,-2.50161 -7.32361,0.25254 l 0.37881,21.71828 c -0.36005,4.08371 -0.71924,8.16788 -7.32361,8.9651 -6.05266,-0.31345 -7.19537,-4.0025 -7.95495,-7.95495 l 0.12627,-21.59201 c 0.53015,-5.76139 -8.07165,-5.81327 -8.08122,-0.12627 z"
       id="path4595"
       inkscape:connector-curvature="0"
       sodipodi:nodetypes="ccccccccccc" />
    <path
       style="fill:#000000;fill-opacity:1;stroke:#000000;stroke-width:1px;stroke-linecap:butt;stroke-linejoin:miter;stroke-opacity:1"
       d="m 304.66469,376.32057 -0.12627,29.4207 c 0.0543,3.0888 5.73014,4.72718 7.19733,0.12626 l 0.12627,-29.67323 6.18719,0 c 4.12023,-0.5421 3.69918,-7.56942 -0.12627,-7.82868 l -18.43529,0.12627 c -4.71113,0.25846 -4.5814,7.03366 -1.64149,7.82868 z"
       id="path4593-1"
       inkscape:connector-curvature="0"
       sodipodi:nodetypes="ccccccccc" />
    <path
       style="fill:#000000;fill-opacity:1;stroke:#000000;stroke-width:1px;stroke-linecap:butt;stroke-linejoin:miter;stroke-opacity:1"
       d="m 332.94896,376.57311 -0.12627,29.4207 c 0.0543,3.0888 5.73013,4.72718 7.19732,0.12626 l 0.12627,-29.67323 6.18719,0 c 4.12023,-0.5421 3.69918,-7.56942 -0.12627,-7.82868 l -18.43528,0.12627 c -4.71113,0.25846 -4.5814,7.03366 -1.64149,7.82868 z"
       id="path4593-7"
       inkscape:connector-curvature="0"
       sodipodi:nodetypes="ccccccccc" />
    <path
       style="fill:#000000;fill-opacity:1;stroke:#000000;stroke-width:1px;stroke-linecap:butt;stroke-linejoin:miter;stroke-opacity:1"
       d="m 466.79417,376.57311 -0.12627,29.4207 c 0.0543,3.0888 5.73014,4.72718 7.19733,0.12626 l 0.12627,-29.67323 6.18719,0 c 4.12023,-0.5421 3.69918,-7.56942 -0.12627,-7.82868 l -18.43529,0.12627 c -4.71113,0.25846 -4.5814,7.03366 -1.64149,7.82868 z"
       id="path4593-9"
       inkscape:connector-curvature="0"
       sodipodi:nodetypes="ccccccccc" />
    <path
       style="fill:#000000;fill-opacity:1;stroke:#000000;stroke-width:1px;stroke-linecap:butt;stroke-linejoin:miter;stroke-opacity:1"
       d="m 373.39794,378.6964 c 5.82263,2.58873 7.34517,-2.82589 5.42957,-6.18719 -6.41092,-5.48235 -13.3758,-7.19773 -21.46574,-1.26269 -8.15089,9.08542 -7.86635,22.69257 -2.39911,31.94608 4.4677,7.2903 11.20827,7.50946 18.68782,5.42957 5.45176,-3.28907 7.37321,-8.12265 7.44987,-13.76333 1.27417,-7.68066 -0.24413,-9.26338 -4.41941,-9.72272 l -6.31346,0 c -3.44996,-0.99916 -7.194,5.60382 -1.38896,7.57614 l 5.17703,0.75762 c 0.57025,4.27791 -0.47482,7.65842 -5.93464,8.5863 -6.73197,-0.7747 -8.8001,-5.43455 -9.34391,-11.36422 -0.64023,-6.51239 0.38579,-12.02504 6.43972,-14.52094 3.36299,-0.66402 6.06509,0.15897 8.08122,2.52538 z"
       id="path4629"
       inkscape:connector-curvature="0"
       sodipodi:nodetypes="cccccccccccccc" />
    <path
       style="fill:#000000;fill-opacity:1;stroke:#000000;stroke-width:1px;stroke-linecap:butt;stroke-linejoin:miter;stroke-opacity:1"
       d="m 388.42396,403.31887 9.97526,-30.68339 c 4.51055,-7.93255 9.88071,-3.07143 11.36421,0.25254 l 9.47018,29.92577 c 1.55467,6.47957 -4.12039,8.07553 -7.19733,4.67196 l -1.38896,-5.93465 -14.26841,0 -1.26269,5.3033 c -1.13028,3.69536 -7.94801,4.03861 -6.69226,-3.53553 z"
       id="path4631"
       inkscape:connector-curvature="0"
       sodipodi:nodetypes="ccccccccc" />
    <path
       style="fill:#ffcc00;fill-opacity:1;stroke:#000000;stroke-width:1px;stroke-linecap:butt;stroke-linejoin:miter;stroke-opacity:1"
       d="m 399.03056,393.34361 4.29315,-15.15229 c 0.50508,-0.67755 1.01015,-0.54169 1.51523,0.12627 l 2.90419,15.02602 z"
       id="path4633"
       inkscape:connector-curvature="0"
       sodipodi:nodetypes="ccccc" />
    <path
       style="fill:#000000;fill-opacity:1;stroke:#000000;stroke-width:1px;stroke-linecap:butt;stroke-linejoin:miter;stroke-opacity:1"
       d="m 426.80976,372.63548 0.12627,33.20877 c 0.82263,5.30625 6.54053,3.85187 6.69226,0.50507 l 0.50507,-12.87944 10.98541,14.52094 c 5.63041,3.31861 8.47624,-2.7168 6.69226,-4.16688 l -7.44987,-9.97525 c -1.73765,-1.28235 -1.40096,-2.20833 1.01015,-2.77792 6.75411,-1.66424 6.95739,-7.31594 6.06091,-13.63706 -0.72993,-5.34181 -4.90379,-7.5046 -9.97525,-8.83884 -5.32048,0.34808 -15.35977,-1.80818 -14.64721,4.04061 z"
       id="path4635"
       inkscape:connector-curvature="0"
       sodipodi:nodetypes="ccccccccccc" />
    <path
       style="fill:#ffcc00;fill-opacity:1;stroke:#000000;stroke-width:1px;stroke-linecap:butt;stroke-linejoin:miter;stroke-opacity:1"
       d="m 434.00709,386.39881 0.25254,-9.21764 c 4.76212,0.0176 9.78718,-0.24645 9.97526,4.67195 0.37153,4.30108 -4.25174,4.92178 -10.2278,4.54569 z"
       id="path4637"
       inkscape:connector-curvature="0"
       sodipodi:nodetypes="cccc" />
    <path
       style="fill:none;stroke:#000000;stroke-width:15;stroke-linecap:butt;stroke-linejoin:miter;stroke-miterlimit:4;stroke-opacity:1;stroke-dasharray:none"
       d="m 177.28571,350.07647 326.78572,-0.35715 0.71429,227.5 c -12.6297,105.38319 -67.8008,161.01309 -167.85715,166.78572 -91.94283,-8.50659 -158.08429,-64.98298 -160,-165.35714 z"
       id="path4641"
       inkscape:connector-curvature="0"
       sodipodi:nodetypes="cccccc" />
    <path
       style="fill:#000000;fill-opacity:1;stroke:#000000;stroke-width:1px;stroke-linecap:butt;stroke-linejoin:miter;stroke-opacity:1"
       d="m 328.31988,83.605586 -1.01015,243.951844 18.94036,-0.25254 -0.25254,-114.39978 448.50773,0.50508 0.50508,-52.02286 L 654.09408,115.93047 551.05852,95.727417 434.3859,80.070052 z"
       id="path4645"
       inkscape:connector-curvature="0"
       sodipodi:nodetypes="cccccccccc" />
    <rect
       style="fill:#ff0000;fill-opacity:1;fill-rule:nonzero;stroke:none"
       id="rect4647"
       width="448.00266"
       height="113.64216"
       x="346.50262"
       y="213.41019" />
    <rect
       style="fill:#000000;fill-opacity:1;fill-rule:nonzero;stroke:none"
       id="rect4649"
       width="271.73105"
       height="127.27922"
       x="524.28949"
       y="327.55743" />
    <path
       style="fill:#ff0000;fill-opacity:1;fill-rule:nonzero;stroke:none"
       d="m 525.04709,454.83664 267.69042,0 c 0.13991,0 2.52807,0.11266 2.52538,0.25254 -0.75738,39.46112 1.33688,78.83717 -1.51523,118.69292 -0.30145,4.21252 -0.36516,1.26322 -0.50507,1.26269 l -268.1955,-1.01015 c -0.1399,-5.3e-4 -0.84474,19.97146 -0.96682,-0.25254 l -0.71428,-118.33578 c -8.5e-4,-0.1399 1.5412,-0.60968 1.6811,-0.60968 z"
       id="rect4651"
       inkscape:connector-curvature="0"
       sodipodi:nodetypes="sssssssss" />
    <path
       style="fill:#000000;fill-opacity:1;stroke:none"
       d="m 524.28948,574.24386 -0.25254,13.17531 268.44804,0.50507 1.01015,-12.6269 z"
       id="path4654"
       inkscape:connector-curvature="0"
       sodipodi:nodetypes="ccccc" />
    <path
       style="fill:#000000;fill-opacity:1;stroke:#000000;stroke-width:1px;stroke-linecap:butt;stroke-linejoin:miter;stroke-opacity:1"
       d="m 367.71583,760.15525 c 13.69187,-1.91069 26.54394,-5.50097 38.89088,-10.10152 l -6.81853,6.31345 c 3.69242,4.48223 6.77546,9.31993 2.52538,18.43529 -8.90917,9.143 -13.26593,1.03215 -15.90991,-4.04061 -3.9455,3.12556 -6.744,7.39813 -15.15228,6.06091 -8.45479,-5.55584 -6.3135,-11.11168 -3.53554,-16.66752 z"
       id="path4656"
       inkscape:connector-curvature="0"
       sodipodi:nodetypes="ccccccc" />
    <path
       style="fill:#000000;fill-opacity:1;stroke:#000000;stroke-width:1px;stroke-linecap:butt;stroke-linejoin:miter;stroke-opacity:1"
       d="m 464.1854,714.44585 c 38.0083,-15.95502 87.8778,-32.32709 137.86829,-30.21205 34.21853,0.60332 71.81015,9.3777 110.62924,42.83896 -0.95878,-14.29986 -2.08286,-28.58469 -24.74874,-40.91118 9.59232,-24.93195 26.62219,-23.08873 42.67894,-24.74874 -8.38313,-14.56363 -39.97971,-22.36332 -62.88199,15.40483 -9.00887,-6.66466 -20.47108,-9.89464 -32.82996,-11.86929 1.3798,-21.46335 18.95238,-31.75927 39.64849,-39.90103 -42.93824,-20.63374 -64.27561,16.68423 -68.69038,38.13326 l -30.30457,0.25254 c -7.42946,-20.02194 7.50661,-33.16217 26.01143,-45.20433 -40.61519,-17.29862 -60.00911,28.18526 -63.63961,51.51778 l -41.41626,11.86929 c -7.98203,12.93827 -19.667,23.23159 -32.32488,32.82996 z"
       id="path4658"
       inkscape:connector-curvature="0"
       sodipodi:nodetypes="cccccccccccccc" />
    <path
       style="fill:#000000;fill-opacity:1;stroke:#000000;stroke-width:1px;stroke-linecap:butt;stroke-linejoin:miter;stroke-opacity:1"
       d="m 405.34401,842.73522 32.07235,-14.39467 c -6.53392,-30.34805 -5.2461,-57.08607 31.56726,-67.42768 -13.25086,16.92995 -16.54853,35.85054 -9.59644,56.82108 l 34.34518,-12.62691 c 2.10684,-16.95406 3.35624,-34.61105 11.8992,-46.28884 7.59681,-18.80432 36.48968,-18.95387 36.08305,-13.31016 -8.22284,5.94294 -16.85266,11.37716 -21.64872,21.60358 -3.69015,7.85855 -11.15322,20.55765 -2.3424,34.45989 l 27.27411,-2.52538 c 6.27174,-16.93283 9.72848,-36.88173 23.91096,-45.33876 8.65504,-6.43054 21.83383,-12.12772 34.42535,-1.3808 -24.49772,11.99728 -36.85606,26.30682 -33.08249,43.6891 10.77035,0.19138 21.46104,0.78112 31.56726,4.29315 6.22226,-11.34706 13.9203,-19.79342 21.93766,-24.16523 8.00676,-5.29127 21.00674,-6.46416 27.05474,6.99263 -15.37127,1.00777 -25.28587,8.92731 -30.55711,22.72844 25.4733,17.44369 28.10342,32.10162 26.26396,46.21448 -23.63173,-31.62553 -62.39837,-37.76892 -102.79992,-32.67666 -40.61486,1.46017 -82.54349,15.7611 -122.96917,38.99011 10.91876,11.80079 13.13818,21.69859 2.52538,28.78935 -20.5207,6.4049 -21.13346,-12.55438 -23.48604,-15.65737 -9.10738,12.26646 -18.68532,18.8862 -29.7995,7.07107 -5.16882,-13.35159 -0.12813,-20.65311 12.87944,-23.23351 -10.7146,-12.28886 -16.27415,-23.88109 -2.27284,-32.82996 11.9808,0.13296 21.48417,4.64905 24.74873,20.20305 z"
       id="path4660"
       inkscape:connector-curvature="0"
       sodipodi:nodetypes="cccccccccccccccccccccccccc" />
    <path
       style="fill:#000000;fill-opacity:1;stroke:#000000;stroke-width:1px;stroke-linecap:butt;stroke-linejoin:miter;stroke-opacity:1"
       d="m 398.77802,995.01572 c -5.51187,-13.52984 -14.69758,-17.26273 -26.26396,-14.64721 -7.55162,13.71921 2.08961,21.48709 11.61675,29.29439 -4.55113,2.9173 -19.2086,9.4115 -9.59645,24.4962 15.0804,9.2112 21.17371,-7.6401 30.05204,-16.4149 6.15051,8.3465 11.14678,19.3478 23.73858,12.8794 10.80458,-13.9275 -3.77969,-19.3921 -11.86929,-27.0216 19.34801,-15.76892 37.34979,-33.07025 66.68874,-37.4665 27.32619,-5.43553 75.41856,-9.31757 92.91536,19.03123 2.02739,-11.77917 -6.33448,-19.92211 -17.67766,-27.02158 2.39165,-12.22773 6.62237,-23.88959 26.26396,-30.80965 -7.72338,-14.73095 -33.73306,-3.24506 -42.93148,21.97082 -8.22406,-3.83149 -17.13322,-4.23748 -26.01143,-4.79823 -4.21891,-19.22262 9.61082,-31.50346 31.56727,-40.65864 -16.15577,-6.69914 -26.17113,0.24649 -36.90742,8.55732 -8.86034,9.17442 -13.9725,22.4112 -14.61036,32.85894 l -29.04189,7.57614 c -6.99591,-20.61753 -0.74632,-37.29721 17.17259,-50.50763 -31.64603,-4.79373 -35.23583,22.39663 -33.58757,55.55839 l -20.20305,13.13199 c -13.21003,-15.59191 -10.29004,-29.32266 -6.31345,-42.93149 -18.91007,6.45175 -16.10871,27.55872 -8.33376,52.02286 z"
       id="path4662"
       inkscape:connector-curvature="0"
       sodipodi:nodetypes="ccccccccccccccccccccccc" />
  </g>
</svg>
