<?xml version="1.0" encoding="UTF-8"?>
<svg width="142px" height="406px" viewBox="0 0 142 406" version="1.1" xmlns="http://www.w3.org/2000/svg" xmlns:xlink="http://www.w3.org/1999/xlink">
    <defs>
        <polygon id="path-1" points="141.735678 406.94 0.06 406.94 0.06 0.995 70.8978391 0.995 141.735678 0.995"></polygon>
    </defs>
    <g id="Page-1" stroke="none" stroke-width="1" fill="none" fill-rule="evenodd">
        <g id="Design_Silouette" transform="translate(0.000000, -1.000000)">
            <mask id="mask-2" fill="white">
                <use xlink:href="#path-1"></use>
            </mask>
            <g id="Clip-2"></g>
            <path d="M134.139,148.993 C128.918,144.607 127.795,136.465 127.418,131.456 C127.046,126.445 127.292,124.296 126.419,118.27 C123.649,99.163 117.88,88.514 110.209,79.016 C110.089,78.869 109.976,78.711 109.861,78.559 C109.921,78.458 110.098,78.478 110.454,78.679 C112.144,79.636 112.705,79.839 115.65,82.903 C118.597,85.969 129.594,101.198 131.632,121.284 C132.248,127.341 132.097,128.25 132.467,133.259 C132.846,138.267 133.374,143.667 138.769,148.297 C140.874,150.102 141.695,151.174 141.695,153.005 C141.695,154.817 142.748,156.224 134.139,148.993 L134.139,148.993 Z M1.504,341.507 C1.504,341.507 0.929,214.128 0.929,213.372 C0.929,208.309 0.332,202.461 0.165,198.991 C-0.064,194.225 -0.117,191.531 0.417,186.639 C2.19,170.409 6.338,156.524 16.484,147.183 C20.87,143.145 24.043,138.339 24.42,133.329 C24.791,128.318 24.793,127.083 25.666,121.058 C28.436,101.95 33.535,93.516 41.207,84.017 C43.33,81.391 45.01,78.108 45.196,73.333 C45.28,71.246 45.918,67.61 46.009,63.938 C46.151,58.368 46.151,54.29 46.151,53.218 C46.151,51.305 44.888,50.721 43.702,50.005 C42.519,49.289 41.396,48.871 41.144,46.367 C40.912,44.016 40.678,36.264 44.297,27.883 C44.538,27.324 45.127,25.763 45.127,25.763 C45.183,25.617 45.104,25.467 44.953,25.428 C44.953,25.428 41.435,25.152 41.259,21.686 C41.176,20.042 41.404,18.067 41.99,15.499 C42.799,11.949 44.236,7.641 46.976,5.683 C49.718,3.724 53.713,2.687 58.881,2.028 C64.082,1.364 68.005,0.995 78.261,0.995 C88.518,0.995 100.685,2.675 106.06,4.495 C110.019,5.836 112.035,8.313 112.718,9.58 C113.798,11.581 114.246,12.661 114.924,15.603 C115.603,18.545 115.93,20.448 115.65,22.026 C115.373,23.604 111.696,24.16 111.696,24.16 C111.542,24.184 111.445,24.326 111.48,24.478 C111.48,24.478 115.785,42.897 115.714,45.257 C115.595,49.236 111.802,49.031 111.353,49.037 C109.957,49.056 109.356,52.852 108.548,54.287 C107.537,56.088 106.312,55.564 106.12,54.148 C105.828,52 105.912,49.661 105.969,48.411 C106.017,47.337 106.527,45.724 107.715,45.008 C108.897,44.294 110.02,43.873 110.271,41.369 C110.429,39.774 110.349,33.283 108.846,26.216 C108.24,23.362 107.236,21.586 108.232,21.043 L108.333,20.988 C108.443,20.918 108.651,20.815 108.796,20.757 C108.796,20.757 109.514,20.473 109.815,19.919 C110.387,18.864 110.018,12.95 108.976,11.135 C107.934,9.321 105.311,8.26 104.326,7.977 C98.034,6.175 86.671,4.931 78.261,4.931 C69.852,4.931 60.747,5.611 55.386,6.635 C52.538,7.178 49.998,8.245 48.873,10.745 C48.368,11.867 47.684,17.045 47.552,18.786 C47.42,20.527 48.42,21.245 50.513,21.256 C51.58,21.261 51.643,21.949 51.661,22.317 C51.696,23.024 50.609,26.514 50.609,26.514 C50.562,26.663 50.501,26.91 50.472,27.063 C50.472,27.063 48.301,38.783 48.501,40.815 C48.753,43.319 49.876,43.738 51.058,44.453 C52.245,45.169 52.805,45.945 52.805,47.857 C52.805,48.93 52.786,53.59 52.735,58.312 C52.694,61.985 52.079,65.472 51.998,67.558 C51.81,72.333 50.081,77.881 47.959,80.507 C40.287,90.007 35.121,98.614 32.352,117.723 C31.479,123.748 31.127,126.477 30.756,131.488 C30.38,136.497 27.561,142.562 23.932,146.347 C14.922,155.749 9.597,164.429 7.92,180.67 C6.807,191.46 8.286,198.77 8.286,212.764 C8.286,213.549 8.868,341.507 8.868,341.507 L8.889,346.634 C8.901,349.482 8.908,351.308 8.908,351.85 C8.908,357.16 8.351,361.577 8.103,364.024 C7.775,367.242 8.155,372.412 8.646,375.002 C10.638,385.519 12.707,390.416 20.529,395.111 C22.436,396.254 25.859,397.218 30.862,398.022 C35.865,398.826 52.06,400.863 80.506,400.863 C104.539,400.863 113.212,399.863 121.858,399.179 C140.683,397.688 140.698,396.188 140.95,396.773 C141.201,397.358 140.938,398.887 136.062,401.249 C133.593,402.446 129.689,403.39 123.281,404.256 C111.18,405.892 97.17,407 74.964,407 C36.055,407 21.373,404.796 13.173,400.663 C8.308,398.209 3.754,393.035 1.288,380.553 C0.778,377.968 0.291,371.162 0.586,367.277 C0.774,364.824 1.55,358.609 1.55,353.297 C1.55,352.668 1.526,347.428 1.526,346.777 L1.504,341.507 L1.504,341.507 Z M77.88,20.07 C88.213,20.076 100.219,21.049 102.14,21.314 C103.968,21.567 105.287,21.99 104.752,23.075 C104.518,23.552 103.754,23.586 102.102,23.54 C101.283,23.518 90.032,23.067 79.201,23.088 C68.185,23.109 57.424,23.808 57.06,23.808 C55.248,23.808 54.528,23.259 54.601,22.786 C54.734,21.925 55.294,21.366 56.789,21.013 C58.284,20.659 69.368,20.065 77.88,20.07 L77.88,20.07 Z M46.106,262.001 C47.155,261.932 60.73,261.932 64.507,262.001 C68.287,262.073 67.796,262.421 67.726,266.69 C67.867,269.979 65.559,269.279 65.559,269.279 L46.036,269.279 C42.396,269.279 42.117,268.86 42.255,265.01 C42.326,261.721 44.076,262.073 46.106,262.001 L46.106,262.001 Z M57.09,252.276 C58.63,252.276 60.239,252.414 64.018,252.276 C67.796,252.136 67.796,252.487 67.867,254.865 C67.938,257.242 64.367,256.615 62.618,256.615 C53.526,256.78 48.414,256.744 45.606,256.789 C43.633,256.885 43.249,256.479 42.957,254.515 C43.096,251.506 44.285,252.414 53.522,245.49 C54.012,245.278 51.563,245.349 46.874,245.419 C43.377,245.63 42.607,244.719 42.677,242.48 C42.747,240.241 45.475,240.241 45.475,240.241 C45.475,240.241 62.897,239.472 65.209,239.75 C68.076,239.891 68.355,240.03 68.217,243.04 C68.287,246.467 66.187,246.048 57.09,252.276 L57.09,252.276 Z M43.281,309.805 C43.281,308.908 43.936,307.484 45.143,307.484 L47.011,307.484 C47.468,307.484 48.297,307.983 48.297,308.936 L48.297,312.377 C48.297,312.71 48.254,312.836 48.546,312.836 C48.837,312.836 52.03,312.793 52.363,312.793 C52.696,312.793 52.651,312.669 52.651,312.421 C52.651,310.856 53.339,309.185 54.52,309.185 L56.762,309.185 C57.505,309.185 58.298,309.973 58.298,310.885 L58.298,312.586 C58.298,312.793 58.217,312.876 58.834,312.876 C59.457,312.876 62.198,312.836 62.653,312.836 C63.109,312.836 63.358,312.669 63.358,312.088 C63.358,311.506 63.146,309.523 63.146,308.731 C63.146,307.939 64.146,307.194 65.18,307.194 C66.219,307.194 67.879,307.439 67.879,308.854 C67.879,310.267 67.837,316.44 67.837,317.853 C67.837,319.266 67.135,320.594 65.309,320.594 C63.48,320.594 50.539,320.839 50.539,320.839 L46.805,320.839 C45.56,320.839 43.154,320.927 43.154,318.312 C43.154,315.697 43.281,310.925 43.281,309.805 L43.281,309.805 Z M64.576,285.793 C62.952,285.844 50.967,285.801 48.512,285.848 C48.217,285.859 48.124,285.834 48.1,286.196 C47.904,288.376 48.309,289.73 46.175,290.059 C43.307,289.991 42.677,289.708 42.607,286.141 C42.536,282.504 42.957,276.417 42.957,276.417 C42.957,276.417 43.026,274.457 45.405,274.316 C47.784,274.177 48.203,275.085 48.275,275.926 C48.322,276.525 48.341,277.339 48.393,277.921 C48.437,278.399 48.603,278.517 48.834,278.517 C64.692,278.77 67.498,277.24 67.726,280.825 C68.217,286.211 66.678,285.722 64.576,285.793 L64.576,285.793 Z M62.486,291.551 C62.486,291.097 62.897,290.059 64.146,290.059 L65.972,290.059 C66.466,290.059 67.67,290.52 67.67,291.844 C67.67,293.169 67.547,298.522 67.547,299.393 C67.547,300.262 67.214,302.462 64.81,302.462 C62.403,302.462 47.215,302.546 45.89,302.546 C43.683,302.546 43.204,301.797 43.204,300.806 C43.204,299.604 43.246,297.61 43.246,296.656 C43.246,295.807 43.766,295.09 45.475,295.09 L61.989,295.09 C62.403,295.09 62.527,294.949 62.527,294.371 C62.527,293.795 62.486,292.006 62.486,291.551 L62.486,291.551 Z M55.599,332.498 C54.767,332.331 46.145,329.879 44.982,329.55 C43.818,329.223 43.486,328.102 43.486,327.189 C43.486,326.275 43.818,324.577 45.974,324.99 C47.09,325.195 63.769,328.888 64.684,329.095 C65.597,329.306 67.464,329.84 67.63,331.087 C67.796,332.331 67.958,334.699 67.92,335.4 C67.879,336.106 67.461,337.314 66.134,337.769 C64.81,338.224 47.714,342.956 46.594,343.327 C45.475,343.698 43.9,343.121 43.736,341.791 C43.569,340.461 43.652,338.433 43.736,337.602 C43.818,336.772 44.478,336.273 45.724,335.856 C46.971,335.442 55.346,333.33 55.886,333.162 C56.43,332.997 56.43,332.664 55.599,332.498 L55.599,332.498 Z M49.043,229.607 C50.023,229.607 50.931,228.486 51.703,227.436 C52.474,226.386 55.62,222.819 57.231,221.629 C58.839,220.44 59.96,220.577 61.15,220.577 C66.258,220.577 68.146,226.177 68.146,229.325 C68.146,232.474 66.815,234.431 64.718,234.431 C62.618,234.431 61.919,233.663 61.919,232.614 C61.919,231.566 62.83,230.655 62.83,229.466 C62.83,228.276 62.27,226.596 60.87,226.596 C58.962,226.596 57.957,229.016 56.409,231.367 C54.943,233.594 53.297,235.761 48.623,235.761 C45.174,235.761 42.536,233.615 42.536,228.555 C42.536,227.227 42.817,225.407 43.237,224.286 C43.81,222.766 45.054,222.467 45.965,222.677 C46.874,222.888 48.136,223.938 47.854,225.617 C47.575,227.295 48.065,229.607 49.043,229.607 L49.043,229.607 Z M23.1,222.113 C23.1,210.121 31.856,201.259 45.705,200.364 C59.552,199.47 81.646,198.979 115.568,200.364 C74.964,202.877 55.79,204.759 45.705,206.15 C35.618,207.54 28.884,213.31 28.884,222.113 C28.884,222.113 28.685,344.31 29,346.511 C30.087,354.11 34.153,359.298 45.705,360.545 C58.424,361.918 61.388,361.886 115.568,366.326 C85.995,368.054 45.705,366.326 45.705,366.326 C34.466,366.326 23.719,359.985 23.166,346.552 L23.1,222.113 L23.1,222.113 Z" id="Fill-1" fill="#ffffff" mask="url(#mask-2)"></path>
        </g>
    </g>
</svg>