<?xml version="1.0" encoding="UTF-8"?>
<svg width="181px" height="181px" viewBox="0 0 181 181" version="1.1" xmlns="http://www.w3.org/2000/svg" xmlns:xlink="http://www.w3.org/1999/xlink">
    <!-- Generator: Sketch 41 (35326) - http://www.bohemiancoding.com/sketch -->
    <title>Page 1</title>
    <desc>Created with Sketch.</desc>
    <defs></defs>
    <g id="Page-1" stroke="none" stroke-width="1" fill="none" fill-rule="evenodd">
        <g id="Desktop-HD" transform="translate(-85.000000, -10670.000000)">
            <g id="Page-1" transform="translate(86.000000, 10671.000000)">
                <path d="M116.109954,71.5710678 C116.079554,71.5226678 116.049554,71.4754678 116.019954,71.4286678 C116.044754,71.4758678 116.069154,71.5214678 116.093954,71.5706678 C116.099154,71.5710678 116.104754,71.5706678 116.109954,71.5710678" id="Fill-1" fill="#020203"></path>
                <path d="M108.195319,67.5462721 C107.128428,65.5818423 108.573123,66.9757572 106.577971,65.9289245 L106.577971,68.3549458 L107.386645,68.3549458 C107.65578,68.0853033 107.925676,67.8159146 108.195319,67.5462721" id="Fill-3" fill="#FEFEFE"></path>
                <path d="M93.054026,70.6690477 C92.7843834,71.4777214 92.5147409,72.2863952 92.2453522,73.0950689 C93.6412983,72.5735569 93.0370146,72.9368888 93.8626997,72.2863952 L94.6713735,72.2863952 C93.6044827,70.3219654 95.0494316,71.7158803 93.054026,70.6690477" id="Fill-5" fill="#FEFEFE"></path>
                <path d="M72.1804678,104.161979 C71.778543,104.028173 71.3768721,103.894114 70.9749472,103.760054 C71.2014267,104.439746 71.4279061,105.119438 71.6546394,105.798877 L72.2921841,105.798877 C72.3386479,105.875047 72.3853657,105.950963 72.4318295,106.02688 C72.555987,105.950963 72.6801444,105.875047 72.8045557,105.798877 L73.0137699,105.798877 L73.0137699,105.670911 C73.7394182,105.226838 74.4655742,104.782512 75.1909685,104.33844 C74.7689855,103.648846 74.3467487,102.958997 73.9247657,102.269149 C73.233394,103.131396 73.0970494,103.389613 72.1804678,104.161979" id="Fill-7" fill="#FEFEFE"></path>
                <path d="M75.5719719,100.313022 C76.6185506,101.676723 76.6629833,99.7536786 76.5294315,98.7789538 C75.0895606,98.7147169 75.6318925,99.9441041 75.5719719,100.313022" id="Fill-9" fill="#FEFEFE"></path>
                <path d="M78.4856095,100.426287 C78.9454237,100.144965 79.4054918,99.8633891 79.865306,99.5820671 C79.724645,99.352287 79.583984,99.1222529 79.4430691,98.8922189 C78.5247102,100.065748 78.8504648,99.4406444 78.4856095,100.426287" id="Fill-11" fill="#FEFEFE"></path>
                <path d="M88.6266831,119.845197 C85.4430221,118.112833 85.7466874,118.622919 83.4328902,116.326387 C82.7592916,118.23826 82.8011852,118.973048 83.0172548,120.74299 C85.4706973,120.024705 84.6767498,119.62735 87.4336037,121.158626 C87.8312122,120.720901 88.2290746,120.282922 88.6266831,119.845197" id="Fill-13" fill="#FEFEFE"></path>
                <path d="M77.7709298,68.4214932 L78.450622,68.4214932 C78.1797099,67.0255471 78.2820319,67.1118733 77.7709298,66.3826705 L77.7709298,68.4214932 Z" id="Fill-15" fill="#FEFEFE"></path>
                <path d="M89.3239452,69.1011092 C88.7884687,67.7087177 90.2750573,68.462295 88.644253,67.0622865 C88.7699339,67.7193816 88.08948,69.5131901 89.3239452,69.1011092" id="Fill-17" fill="#FEFEFE"></path>
                <path d="M74.3729766,68.4214932 L73.0138461,68.4214932 C73.7125809,68.9699187 73.1811667,68.6723471 74.3729766,69.1011854 L74.3729766,68.4214932 Z" id="Fill-19" fill="#FEFEFE"></path>
                <path d="M100.876961,69.1011092 L99.5178302,69.1011092 C100.592846,69.932634 100.069303,70.1941518 100.876961,69.1011092" id="Fill-21" fill="#FEFEFE"></path>
                <path d="M87.2851733,71.1398557 L85.9260428,71.1398557 C87.0010584,71.9713806 86.4775152,72.2328983 87.2851733,71.1398557" id="Fill-23" fill="#FEFEFE"></path>
                <path d="M96.1198516,74.5378089 C96.8970417,73.3495536 96.9242091,72.3321735 96.1198516,71.1398557 L96.1198516,74.5378089 Z" id="Fill-25" fill="#FEFEFE"></path>
                <path d="M81.8484736,73.1786277 C81.1497389,73.7270532 81.681153,73.4294816 80.4893431,73.8583199 L80.4893431,74.5377582 C82.3423105,74.0261482 81.625041,74.4394986 81.8484736,73.1786277" id="Fill-27" fill="#FEFEFE"></path>
                <path d="M72.3342047,74.5378089 L72.3342047,75.8969394 C73.5371862,75.263965 73.0923522,75.6661437 72.3342047,74.5378089" id="Fill-29" fill="#FEFEFE"></path>
                <path d="M89.3239452,77.2561715 C89.6992105,77.2109772 92.7739481,76.6536651 92.0422062,76.5764793 C91.5892474,76.3502538 91.1360346,76.1235204 90.6830757,75.897041 C89.9838332,76.4454665 90.5157552,76.1478949 89.3239452,76.5764793 L89.3239452,77.2561715 Z" id="Fill-31" fill="#FEFEFE"></path>
                <path d="M102.915758,77.9357621 L102.915758,77.2560699 C103.141984,77.0298444 103.368717,76.8031111 103.59545,76.5766316 L102.236066,76.5766316 C102.674552,77.7496529 102.36911,77.2418515 102.915758,77.9357621" id="Fill-33" fill="#FEFEFE"></path>
                <path d="M83.2076549,82.013306 C82.6104804,80.4091613 82.951723,80.8920804 81.8485244,79.9744833 C81.1185599,82.3136705 80.7757939,81.7134492 83.2076549,82.013306" id="Fill-35" fill="#FEFEFE"></path>
                <path d="M75.0525672,87.4500057 L75.0525672,86.7703135 C73.7223814,86.469695 74.1778793,87.0658539 73.6934367,87.4500057 C73.1445034,86.6519957 73.1465346,86.3135461 73.0137445,84.7317447 L72.3343062,84.7317447 L72.3343062,86.0908752 C71.6881289,87.6480482 72.4384055,87.377644 73.0137445,89.4888284 L70.9749218,87.4500057 C69.5411445,85.7955887 71.8242197,86.4727418 69.6157913,85.411183 C70.3229048,83.5914766 70.9020523,84.828227 72.3343062,82.692922 C72.5605318,82.4666965 72.7872651,82.2399631 73.0137445,82.0132298 L72.3343062,82.0132298 C70.9170325,80.445139 70.2693318,83.9682652 68.936353,83.3723603 C68.4833942,82.9196553 68.0299275,82.4661887 67.5769687,82.0132298 C67.1240098,82.4661887 66.670797,82.9196553 66.2178382,83.3723603 C67.5883942,85.6635603 68.757353,87.1633518 68.936353,90.8479589 C71.1224382,91.4405631 69.9857247,90.479295 70.9749218,92.2070894 C74.1192282,91.3542369 73.3445772,89.4659773 75.0525672,87.4500057" id="Fill-37" fill="#FEFEFE"></path>
                <path d="M79.8097017,82.013306 L79.8097017,83.3724365 L80.4893939,83.3724365 C80.0509074,82.1994152 80.3563499,82.7072166 79.8097017,82.013306" id="Fill-39" fill="#FEFEFE"></path>
                <path d="M87.964764,82.013306 L87.964764,83.3724365 L88.6444562,83.3724365 C88.2059696,82.1994152 88.5111583,82.7072166 87.964764,82.013306" id="Fill-41" fill="#FEFEFE"></path>
                <path d="M83.5552957,93.0445301 C84.4967596,92.8619755 84.4386163,92.9307826 84.9301681,92.5862393 L85.3884589,92.5862393 C84.7775738,91.5170634 84.1661809,90.4473797 83.5552957,89.3782038 C83.1983113,88.7272024 83.6119156,88.5771471 84.0135865,87.5450407 C82.4226447,86.8450365 81.6378376,86.0805414 80.3472603,85.2533329 C80.5298149,86.1950506 80.4607539,86.1366535 80.8055511,86.6282052 C80.6928191,89.3825201 80.6222348,91.0338904 82.1804234,92.1279485 C82.889822,93.6056506 82.4338163,92.1116989 83.5552957,93.0445301" id="Fill-43" fill="#FEFEFE"></path>
                <path d="M98.1586235,91.5275495 C99.7627682,90.930375 99.2798491,91.2716176 100.197446,90.168419 C100.962703,89.5412843 99.6614618,88.7767892 100.197446,87.4499041 C98.8951895,86.8258162 99.6982774,87.1782304 98.1586235,87.4499041 C98.1426278,85.5971906 98.131964,84.3358119 97.4789313,83.3725126 C96.7801966,83.9209382 97.3118647,83.6233665 96.1198009,84.0519509 C96.5857087,87.0827637 97.6345725,87.7736275 98.1586235,91.5275495" id="Fill-45" fill="#FEFEFE"></path>
                <path d="M85.9260174,84.0520525 L84.566887,84.0520525 C85.2656217,84.600478 84.7339536,84.3029064 85.9260174,84.7317447 L85.9260174,84.0520525 Z" id="Fill-47" fill="#FEFEFE"></path>
                <path d="M86.6056081,87.4500057 L87.2853003,87.4500057 C87.5115258,87.2237801 87.7382591,86.9970468 87.9647386,86.7703135 C87.3675641,85.1664227 87.7093145,85.6490879 86.6056081,84.7317447 L86.6056081,87.4500057 Z" id="Fill-49" fill="#FEFEFE"></path>
                <path d="M93.4014891,89.4887776 C92.7395699,86.1743577 91.8273047,86.815457 90.0035359,86.0908244 C89.1070125,87.7416868 90.3211657,86.5704428 88.6444054,87.4499549 C89.5168082,88.0476372 90.3214196,88.0796287 92.0423586,88.1296471 C91.1214607,89.2160882 91.626977,88.9167393 90.0035359,89.4887776 C90.376516,90.5236769 90.4834082,90.6242216 90.6832281,92.2070386 C91.6719174,91.6085946 92.6245529,90.9806982 93.4014891,90.1684698 C93.9344267,89.7467407 93.5721104,90.1463804 93.4014891,89.4887776" id="Fill-51" fill="#FEFEFE"></path>
                <path d="M75.7321579,87.4500057 L75.7321579,88.8091362 L76.4118501,88.8091362 C75.9733635,87.6361149 76.2785522,88.1439163 75.7321579,87.4500057" id="Fill-53" fill="#FEFEFE"></path>
                <path d="M77.7709298,91.5275495 L77.7709298,92.2072417 L78.450622,92.2072417 C78.2038305,90.2659169 78.0045184,89.2721495 77.0912376,88.1295963 C77.1630915,89.8510431 77.1747709,90.6475296 77.7709298,91.5275495" id="Fill-55" fill="#FEFEFE"></path>
                <path d="M83.2076549,96.9642746 C81.7710847,97.1163611 83.1299613,97.9915569 83.8873471,98.3234051 C84.5647542,97.3197356 83.4455599,97.1689186 83.2076549,96.9642746" id="Fill-57" fill="#FEFEFE"></path>
                <path d="M116.020005,71.4287948 C116.038794,71.4582472 116.057836,71.4882075 116.077133,71.5191834 C116.073832,71.5189295 116.070278,71.5189295 116.066977,71.5189295 C116.051235,71.4876997 116.035747,71.4585011 116.020005,71.4287948 M98.2291826,106.849721 C98.0562762,106.479026 97.9120606,106.126104 97.7896804,105.797556 C98.0552606,105.505317 98.3208407,105.212823 98.586167,104.920583 C98.3675584,104.722033 98.1484421,104.522975 97.9295797,104.324171 C97.7518492,104.769005 97.6406407,105.015796 97.5680251,105.174992 C97.4662109,104.877928 97.3748067,104.609555 97.2859414,104.37165 C97.3491627,104.168276 97.4278719,103.950937 97.5241003,103.715063 C97.5878294,103.651334 97.6515584,103.587605 97.7152875,103.523876 C97.957001,103.644732 98.1987145,103.765589 98.440174,103.886192 L98.440174,103.2065 C98.688235,103.082596 98.936296,102.958439 99.184357,102.834535 C99.2503712,103.665298 99.4583159,104.260695 99.7843244,105.137922 C99.2658591,105.708437 98.7476478,106.279206 98.2291826,106.849721 M90.4506804,116.451992 C89.8796577,116.820148 90.3618152,116.822179 89.5412081,116.526639 C89.4482804,116.390294 89.2867996,116.097293 89.0422932,115.428772 C89.3708407,115.067217 89.6991343,114.705409 90.0276818,114.343854 C89.8453811,115.229206 90.7007726,114.411392 90.4506804,116.451992 M113.058761,64.1672345 C113.957824,65.8975678 114.158659,66.6056969 114.468672,69.101033 C114.87339,68.9616416 115.207523,68.8217423 115.488591,68.6800657 C115.177055,69.8073848 115.326349,70.3083309 115.657943,70.8620884 C115.195082,70.2956359 114.559568,70.0737267 113.109541,69.7807252 C113.336021,69.101033 113.5625,68.4215948 113.789234,67.7419026 C112.438228,67.592355 113.628514,67.1010572 112.430103,67.7419026 L111.750411,67.7419026 C111.976636,67.2889437 112.20337,66.8357309 112.430103,66.3827721 L111.750411,66.3827721 C111.523678,66.1565465 111.297198,65.9298132 111.070973,65.7030799 C109.846156,68.1885139 108.045238,71.0327096 104.954505,70.4601635 C105.850774,72.111026 104.636621,70.939782 106.313635,71.8195479 C105.046163,74.9981309 104.234188,75.5704231 102.915682,79.2948926 L101.556551,79.2948926 C101.329818,79.0686671 101.103339,78.8419338 100.877113,78.6154543 L100.877113,75.2175011 L102.915682,75.2175011 L102.915682,74.5378089 C101.399387,74.1064316 101.120604,74.0361011 100.197421,73.1786784 L98.8382904,73.1786784 C99.3074989,75.0428174 98.4191003,74.2770529 100.197421,74.5378089 L100.197421,75.8969394 C98.0110818,75.3043352 99.1477953,76.2656033 98.1585982,74.5378089 C96.1022563,75.4655621 97.6954833,76.5052855 96.7994677,77.9357621 C97.5764038,79.5795153 102.063337,81.1029196 105.684977,81.7440189 C105.684977,82.4371678 105.71316,83.0681111 105.788568,83.6447196 C104.841265,83.5604245 104.077531,83.7409479 102.731096,84.2533196 C101.857424,83.083599 101.852346,83.2209593 101.650749,82.3295139 C100.618134,81.3918586 99.5850123,80.4534416 98.5521443,79.5152784 C98.294435,80.9884104 100.210624,83.6010487 101.719556,85.1871664 C101.915567,85.7658061 101.780492,85.5121593 102.236244,86.090799 L102.236244,85.7061394 C102.45409,85.9138302 102.654164,86.0895295 102.825801,86.2240969 C102.841543,86.5528983 102.857539,86.880938 102.87328,87.2097394 C103.185832,86.8654501 103.498638,86.5209068 103.81119,86.1768713 C103.983588,86.3332742 104.155733,86.489677 104.327624,86.645826 C106.539861,86.1243139 104.513987,86.4594628 106.39336,88.5218983 C106.109499,88.9322018 105.873371,89.2348515 105.683707,89.4659011 C105.203327,89.1228813 104.707967,88.7722444 104.148116,88.4134827 C104.418774,89.8096827 104.316706,89.7231026 104.827808,90.4520515 C104.762302,92.0511182 104.708729,93.396538 104.803688,94.5426458 C103.667228,94.4540345 102.569869,94.3329238 101.750278,94.6718813 C100.011566,95.3906742 100.772252,96.3811409 99.8742052,96.7376174 C99.8452606,96.8914813 99.8175854,97.0237635 99.7916875,97.1410657 C98.9464521,97.2530359 98.7562804,97.224599 98.1898279,97.6224614 C98.0126052,97.5023664 97.8356365,97.3822713 97.6584138,97.2624302 C97.6688237,96.9983735 97.7000535,96.7178132 97.7604818,96.4105933 L96.4013513,96.4105933 C96.2449485,96.5829919 96.0887996,96.7548827 95.9321428,96.9270274 C95.9747982,96.9859323 96.0171996,97.0417905 96.059601,97.096887 C95.4068223,98.6342557 96.2995372,98.6995082 95.7216591,99.8085465 C95.3126251,100.593861 94.5953556,100.9869 93.8923045,101.469819 C93.7549443,101.44773 93.5949868,101.427164 93.3926279,101.402027 C93.423096,101.524154 93.453818,101.64628 93.4842861,101.768406 C93.0333584,102.121836 92.6154379,102.554229 92.323706,103.2065 C90.6314577,102.206131 91.5274733,103.373059 90.9645755,101.167677 L90.2848833,101.167677 C90.1937329,101.259335 90.1023287,101.350486 90.0109244,101.44189 C89.8999698,101.484037 89.7786052,101.529739 89.6328662,101.582805 C89.6742521,101.620382 89.7156379,101.657959 89.7570237,101.695537 C89.7064974,101.746317 89.6559712,101.796843 89.605445,101.847369 C90.1074067,104.310968 89.5376535,103.734105 91.6442677,104.56563 C93.1529457,105.228311 92.4184109,104.601176 94.042106,103.995623 C94.0847613,104.165229 94.1271627,104.335088 94.169818,104.504948 C94.2985457,104.363271 94.4272733,104.221341 94.556001,104.079664 C94.7179896,104.241653 94.8799783,104.403895 95.0422209,104.56563 C93.855235,106.357408 94.9962648,105.511918 93.0033982,105.245322 C92.7766648,105.472056 92.5501854,105.698535 92.323706,105.925015 C93.1788435,107.286176 93.7463116,107.56242 94.0873003,108.869755 C94.0867925,109.015494 94.0791755,109.177737 94.0608946,109.3641 C93.4720989,109.743681 94.0073216,109.735049 93.075506,109.411579 C93.2065187,110.155 94.0629258,111.582176 94.203079,112.32052 C93.4779386,112.421826 92.8746705,112.994626 91.7861982,113.301338 C90.7223542,112.971267 90.4080251,113.072066 90.40574,113.492779 C90.3727329,113.493287 90.3422648,113.495572 90.308496,113.495572 C90.2280095,113.698185 90.1660577,113.867029 90.1195939,114.009975 C89.9393244,113.846209 89.7590549,113.682443 89.5785315,113.518677 C88.2879542,115.909152 88.3425428,115.6291 88.8896989,117.132954 C88.6124393,117.438142 88.3351797,117.743585 88.0579201,118.048773 C89.5663443,118.246816 89.137506,118.217871 89.5599967,118.470249 C90.564174,120.168844 89.3741414,118.642901 89.6547017,120.44128 C87.1918648,123.078039 87.0192123,124.76851 87.9081187,126.160393 C88.4321698,126.183498 88.9587599,126.197209 89.4886506,126.197209 C109.091563,126.197209 124.982954,110.305817 124.982954,90.7029054 C124.982954,80.1467295 120.373133,70.6688699 113.058761,64.1672345" id="Fill-59" fill="#FEFEFE"></path>
                <path d="M90.0035359,99.6826372 L90.0035359,99.002945 L88.6444054,99.002945 C89.3431401,99.5516244 88.8114721,99.2537989 90.0035359,99.6826372" id="Fill-61" fill="#FEFEFE"></path>
                <path d="M85.2464268,108.51729 C84.7315162,109.24827 84.8196197,109.14544 84.5667346,110.556113 C88.1606991,110.299927 84.642397,109.350084 88.64438,109.876421 C88.5565304,107.930018 88.1634921,108.887477 88.64438,107.837598 L88.64438,106.478467 C86.4900325,106.959609 86.3770467,107.209194 85.2464268,108.51729" id="Fill-63" fill="#FEFEFE"></path>
                <path d="M87.1783573,111.33866 C87.1026949,111.270107 87.0272864,111.2013 86.951624,111.132747 C86.9074452,111.181242 86.8635204,111.229737 86.8193417,111.278486 C86.7500268,111.265283 86.6794424,111.251318 86.6055573,111.235576 C86.6172367,111.321903 86.6291701,111.397819 86.6411034,111.474751 C86.3468325,111.798474 86.0525616,112.122452 85.7585445,112.446175 C86.120353,112.774976 86.4824155,113.103778 86.8444779,113.432325 C86.7896353,113.569178 86.7129573,113.734467 86.6055573,113.954091 L86.6055573,114.63353 C88.2752084,113.646618 87.4266722,114.766828 87.9438679,112.679256 C87.9596098,112.661991 87.9750977,112.644979 87.9908396,112.627714 C88.50118,113.27313 88.2231587,112.782847 88.64438,113.954091 L89.3240722,113.954091 C89.2918268,113.675816 89.2654211,113.431564 89.2413006,113.212447 C89.3537786,113.314515 89.4662566,113.416584 89.5787346,113.518652 C89.4081133,112.512951 89.5820353,112.973781 89.0988623,112.105948 C88.9284949,111.209932 88.641841,111.554222 87.1783573,111.33866" id="Fill-65" fill="#FEFEFE"></path>
                <path d="M85.9260174,114.633606 L85.9260174,113.953914 C86.152243,113.727434 86.3789763,113.500955 86.6057096,113.274475 L85.2463252,113.274475 C85.6848118,114.447497 85.3793692,113.939695 85.9260174,114.633606" id="Fill-67" fill="#FEFEFE"></path>
                <path d="M84.5668362,114.633606 L84.5668362,117.351867 C85.7398574,116.913634 85.232056,117.218823 85.9259667,116.672429 C86.7948149,116.084902 85.4199426,115.42476 84.5668362,114.633606" id="Fill-69" fill="#FEFEFE"></path>
                <path d="M94.6154138,69.1917264 L95.4240875,69.1917264 C96.4132847,67.3633874 96.806323,67.3773519 97.041435,64.3394299 C99.3846847,65.3149165 97.7025925,64.6215136 98.6590365,66.7657051 C99.1980677,67.0353477 99.7373528,67.3047363 100.276384,67.5743789 L100.276384,66.7657051 C100.941858,65.5119434 99.3176549,61.9083306 97.8503627,60.2960611 C97.2696918,62.9503391 97.0241698,62.1802583 96.2327613,64.3394299 C94.8850563,63.8003987 93.5370974,63.2611136 92.1893925,62.7220824 C91.6503613,63.2611136 91.1108223,63.8003987 90.5717911,64.3394299 C93.2938606,67.4791661 93.5899088,65.0676172 94.6154138,69.1917264" id="Fill-71" fill="#FEFEFE"></path>
                <path d="M89.4886252,130.064447 C67.6046692,130.064447 49.8643728,112.32415 49.8643728,90.4401943 C49.8643728,68.5562383 67.6046692,50.8161957 89.4886252,50.8161957 C111.372327,50.8161957 129.112878,68.5562383 129.112878,90.4401943 C129.112878,112.32415 111.372327,130.064447 89.4886252,130.064447 M89.4886252,34.3636837 C59.043899,34.3636837 34.3637345,59.0441021 34.3637345,89.4885745 C34.3637345,119.933047 59.043899,144.613465 89.4886252,144.613465 C119.933351,144.613465 144.613516,119.933047 144.613516,89.4885745 C144.613516,59.0441021 119.933351,34.3636837 89.4886252,34.3636837" id="Fill-73" fill="#FEFEFE"></path>
                <path d="M140.965801,158.43549 L144.589218,159.666908 C144.713883,159.70931 144.801987,159.82128 144.813666,159.952547 L145.151862,163.727542 C145.181822,164.063199 145.634019,164.146986 145.782297,163.844337 L149.461065,156.339286 C149.584968,156.0864 149.358743,155.803555 149.085038,155.868808 L140.995761,157.796422 C140.671022,157.873861 140.649694,158.32809 140.965801,158.43549" id="Fill-75" fill="#FEFEFE"></path>
                <path d="M133.098763,167.647439 C120.195783,174.862282 105.322534,178.974711 89.4885237,178.974711 C40.0667506,178.974711 0.00248822695,138.910449 0.00248822695,89.4884221 C0.00248822695,40.0666491 40.0667506,0.00238666667 89.4885237,0.00238666667 C138.910551,0.00238666667 178.974813,40.0666491 178.974813,89.4884221 C178.974813,112.147791 170.552673,132.840191 156.668366,148.605902" id="Stroke-77" stroke="#FEFEFE" stroke-width="1.6076" stroke-linecap="round"></path>
                <path d="M159.18894,88.7361905 C159.18894,127.532727 127.738259,158.983408 88.9417231,158.983408 C50.1454409,158.983408 18.6945061,127.532727 18.6945061,88.7361905 C18.6945061,49.9396543 50.1454409,18.4889735 88.9417231,18.4889735 C127.738259,18.4889735 159.18894,49.9396543 159.18894,88.7361905 L159.18894,88.7361905 Z" id="Stroke-79" stroke="#FEFEFE" stroke-width="1.8124" stroke-dasharray="9.149600219726564,9.149600219726564"></path>
            </g>
        </g>
    </g>
</svg>