<?xml version="1.0" encoding="UTF-8" standalone="no"?>
<svg width="32px" height="36px" viewBox="0 0 32 36" version="1.1" xmlns="http://www.w3.org/2000/svg" xmlns:xlink="http://www.w3.org/1999/xlink">
    <!-- Generator: Sketch 41 (35326) - http://www.bohemiancoding.com/sketch -->
    <title>Page 1</title>
    <desc>Created with Sketch.</desc>
    <defs></defs>
    <g id="Page-1" stroke="none" stroke-width="1" fill="none" fill-rule="evenodd">
        <g id="Desktop-HD" transform="translate(-411.000000, -924.000000)">
            <g id="Page-1" transform="translate(411.000000, 924.000000)">
                <path d="M16,0 C7.2,0 0,7.24736842 0,16.1052632 L0,31.5789474 C0,32.9684211 1.12941176,34.1052632 2.50980392,34.1052632 L6.76203922,34.1052632 C9.37223529,35.3816842 12.5578039,36 16,36 C19.4421961,36 22.6277647,35.3816842 25.2379608,34.1052632 L29.4901961,34.1052632 C30.8705882,34.1052632 32,32.9684211 32,31.5789474 L32,16.1052632 C32,7.24736842 24.8,0 16,0" id="Fill-1" fill="#6E5847"></path>
                <path d="M30.1176471,18.9473684 C23.1535686,18.9473684 17.2530196,13.9212632 15.2050196,6.96757895 C6.73756863,7.38505263 0,14.4265263 0,23.0526316 C0,31.9471579 7.16360784,36 16,36 C24.8363922,36 32,31.9471579 32,23.0526316 C32,21.6094737 31.8086275,20.2111579 31.4547451,18.8804211 C31.0136471,18.9214737 30.5681569,18.9473684 30.1176471,18.9473684" id="Fill-3" fill="#FDC794"></path>
                <polyline id="Stroke-5" stroke="#F9A671" stroke-width="2" stroke-linecap="round" stroke-linejoin="round" points="17.5686275 21.8947579 20.2352941 23.6840211 17.5686275 25.4739158 20.2352941 27.2631789 17.5686275 29.0524421"></polyline>
                <path d="M25.4399373,26.5682526 C25.7147608,25.9354105 26.3422118,25.4933053 27.0719373,25.4933053 C28.0551529,25.4933053 28.7629176,26.3105684 28.8520157,27.2850947 C28.8520157,27.2850947 28.899702,27.5269895 28.7942902,27.9621474 C28.6499765,28.5552 28.3117804,29.0819368 27.8556235,29.4842526 L25.4399373,31.5792 L23.0650353,29.4842526 C22.6088784,29.0819368 22.2706824,28.5552 22.1263686,27.9621474 C22.0209569,27.5269895 22.0686431,27.2850947 22.0686431,27.2850947 C22.1577412,26.3105684 22.8655059,25.4933053 23.8487216,25.4933053 C24.5784471,25.4933053 25.1651137,25.9354105 25.4399373,26.5682526" id="Fill-7" fill="#E64C3C"></path>
                <path d="M12.5490196,18.3157895 C11.0776471,16.8347368 8.69647059,16.8347368 7.22509804,18.3157895" id="Stroke-9" stroke="#F9A671" stroke-width="2" stroke-linecap="round" stroke-linejoin="round"></path>
            </g>
        </g>
    </g>
</svg>