<?xml version="1.0" encoding="UTF-8" standalone="no"?>
<svg width="36px" height="36px" viewBox="0 0 36 36" version="1.1" xmlns="http://www.w3.org/2000/svg" xmlns:xlink="http://www.w3.org/1999/xlink">
    <!-- Generator: Sketch 41 (35326) - http://www.bohemiancoding.com/sketch -->
    <title>Page 1</title>
    <desc>Created with Sketch.</desc>
    <defs>
        <polygon id="path-1" points="30.070157 0 0.200846112 0 0.200846112 18.021312 30.070157 18.021312 30.070157 0"></polygon>
    </defs>
    <g id="Page-1" stroke="none" stroke-width="1" fill="none" fill-rule="evenodd">
        <g id="Desktop-HD" transform="translate(-170.000000, -924.000000)">
            <g id="Page-1" transform="translate(170.000000, 924.000000)">
                <path d="M9.3438,33.456456 C10.73196,32.560776 12.14028,31.119336 13.0194,30.240216 C13.32108,29.955816 13.60548,29.743416 13.8726,29.586456 C14.66172,30.832056 16.21332,31.680216 17.99964,31.680216 C19.75716,31.680216 21.28572,30.859416 22.08564,29.648376 C22.3218,29.797416 22.56876,29.986056 22.8294,30.231576 C23.72868,31.130136 25.1622,32.623416 26.56404,33.515496 C30.10068,31.220856 32.39964,27.548856 32.39964,23.400216 C32.39964,16.441416 25.95276,10.800216 17.99964,10.800216 C10.04724,10.800216 3.59964,16.441416 3.59964,23.400216 C3.59964,27.512856 5.859,31.157496 9.3438,33.456456" id="Fill-1" fill="#FDD7AD"></path>
                <g id="Group-5" transform="translate(2.880000, 0.000000)">
                    <mask id="mask-2" fill="white">
                        <use xlink:href="#path-1"></use>
                    </mask>
                    <g id="Clip-4"></g>
                    <path d="M27.530136,6.486912 C25.131816,3.917952 21.947256,2.092752 19.415736,0.924912 C16.743816,-0.308448 13.666536,-0.308448 10.994616,0.924912 C8.463096,2.092752 5.278536,3.917952 2.880216,6.486912 C0.597096,8.932032 -0.431784,13.128192 0.605016,16.308432 C0.808776,16.934112 1.080216,17.528112 1.440216,18.021312 L2.112696,18.021312 C4.420296,13.756752 9.368856,10.799712 15.120216,10.799712 C20.870856,10.799712 25.819416,13.756752 28.127736,18.021312 L28.800216,18.021312 C29.160216,17.528112 29.430936,16.934112 29.634696,16.308432 C30.671496,13.128192 29.812536,8.932032 27.530136,6.486912" id="Fill-3" fill="#C03A2B" mask="url(#mask-2)"></path>
                </g>
                <path d="M22.68,27.72 C22.68,29.90736 20.5848,31.68 18,31.68 C15.4152,31.68 13.32,29.90736 13.32,27.72 C13.32,25.53264 15.4152,23.76 18,23.76 C20.5848,23.76 22.68,25.53264 22.68,27.72" id="Fill-6" fill="#FB7B76"></path>
                <path d="M22.32,18 C20.5308,18 19.08,20.0952 19.08,22.68 C19.08,23.1012 19.12176,23.50728 19.19448,23.89536 C21.05712,24.3108 22.46688,25.66944 22.65696,27.3348 C24.28776,27.09072 25.56,25.09992 25.56,22.68 C25.56,20.0952 24.1092,18 22.32,18" id="Fill-8" fill="#FFFFFF"></path>
                <path d="M16.805808,23.895144 C16.877808,23.507064 16.920288,23.100984 16.920288,22.679784 C16.920288,20.095704 15.469488,17.999784 13.680288,17.999784 C11.890368,17.999784 10.440288,20.095704 10.440288,22.679784 C10.440288,25.100424 11.711808,27.091224 13.343328,27.334584 C13.533408,25.669944 14.942448,24.310584 16.805808,23.895144" id="Fill-10" fill="#FFFFFF"></path>
                <path d="M3.6,23.4 C3.6,22.28184 3.78288,21.20328 4.09536,20.17152 C1.8144,20.28888 0,22.17024 0,24.48 C0,26.86608 1.93392,28.8 4.32,28.8 C4.5432,28.8 4.76064,28.77768 4.97448,28.74528 C4.10184,27.12096 3.6,25.31376 3.6,23.4" id="Fill-12" fill="#D3B292"></path>
                <path d="M32.4,23.4 C32.4,22.28184 32.21712,21.20328 31.90464,20.17152 C34.1856,20.28888 36,22.17024 36,24.48 C36,26.86608 34.06608,28.8 31.68,28.8 C31.4568,28.8 31.23936,28.77768 31.02552,28.74528 C31.89816,27.12096 32.4,25.31376 32.4,23.4" id="Fill-14" fill="#D3B292"></path>
                <path d="M16.56036,18.133272 C16.29324,18.133272 16.0362,17.983512 15.91236,17.727192 C14.80212,15.436152 12.03444,14.474232 9.74268,15.583752 C9.38628,15.758712 8.95428,15.608232 8.78076,15.249672 C8.60724,14.891832 8.757,14.461272 9.11484,14.287752 C12.12084,12.832632 15.75108,14.092632 17.20764,17.099352 C17.38116,17.457192 17.23212,17.887752 16.87428,18.061272 C16.77276,18.110232 16.66548,18.133272 16.56036,18.133272" id="Fill-16" fill="#2C2F38"></path>
                <path d="M22.82976,30.231792 C22.5684,29.986272 22.32144,29.797632 22.086,29.648592 C21.28536,30.859632 19.7568,31.679712 18,31.679712 C16.21296,31.679712 14.66136,30.832272 13.87296,29.586672 C13.60512,29.743632 13.32144,29.956032 13.01976,30.239712 C11.4192,31.840272 8.06616,35.315712 6.2712,33.938352 C8.6652,35.949312 14.22576,36.498672 16.09848,35.543952 C16.7292,35.222832 19.12032,35.222832 19.75104,35.543952 C21.62376,36.498672 27.126,35.949312 29.52,33.938352 C27.72504,35.315712 24.4296,31.831632 22.82976,30.231792" id="Fill-18" fill="#2C2F38"></path>
                <path d="M20.88,22.32 C20.88,22.71744 21.20256,23.04 21.6,23.04 C21.99744,23.04 22.32,22.71744 22.32,22.32 C22.32,21.92256 21.99744,21.6 21.6,21.6 C21.20256,21.6 20.88,21.92256 20.88,22.32" id="Fill-20" fill="#2C2F38"></path>
                <path d="M13.68,22.32 C13.68,22.71744 14.00256,23.04 14.4,23.04 C14.79744,23.04 15.12,22.71744 15.12,22.32 C15.12,21.92256 14.79744,21.6 14.4,21.6 C14.00256,21.6 13.68,21.92256 13.68,22.32" id="Fill-22" fill="#2C2F38"></path>
                <path d="M23.76,5.76 C23.76,7.35048 21.18096,8.64 18,8.64 C14.81904,8.64 12.24,7.35048 12.24,5.76 C12.24,4.16952 14.81904,2.88 18,2.88 C21.18096,2.88 23.76,4.16952 23.76,5.76" id="Fill-24" fill="#FFFFFF"></path>
                <path d="M20.857392,4.20804 C20.850912,4.16916 20.855952,4.131 20.842992,4.09212 C20.840112,4.08276 20.832192,4.077 20.829312,4.06764 C20.811312,4.02012 20.782512,3.98052 20.755152,3.93804 C20.730672,3.9006 20.711232,3.861 20.680992,3.8286 C20.652192,3.79764 20.616192,3.77748 20.581632,3.75228 C20.541312,3.72204 20.503872,3.68964 20.457792,3.66876 C20.423952,3.65292 20.385072,3.6486 20.348352,3.6378 C20.294352,3.6234 20.242512,3.60756 20.185632,3.6054 C20.176992,3.60468 20.169072,3.60036 20.159712,3.60036 C20.120832,3.60036 20.087712,3.6162 20.050272,3.62196 C20.010672,3.62844 19.971792,3.6234 19.932192,3.63708 L17.999712,4.28076 L16.067952,3.63708 C16.028352,3.6234 15.988752,3.62844 15.949152,3.62196 C15.912432,3.6162 15.878592,3.60036 15.839712,3.60036 C15.831072,3.60036 15.823152,3.60468 15.814512,3.6054 C15.758352,3.60684 15.706512,3.62268 15.653952,3.6378 C15.615792,3.64788 15.576912,3.65292 15.541632,3.66876 C15.496992,3.68964 15.460992,3.7206 15.421392,3.75012 C15.386112,3.77604 15.348672,3.79764 15.318432,3.82932 C15.288912,3.86028 15.270192,3.89988 15.246432,3.9366 C15.218352,3.97908 15.189552,4.0194 15.170832,4.06764 C15.167232,4.077 15.160032,4.08276 15.157152,4.09212 C15.144192,4.131 15.148512,4.16916 15.142752,4.20804 C15.136272,4.2462 15.119712,4.28004 15.119712,4.32036 L15.119712,7.20036 C15.119712,7.5978 15.442272,7.92036 15.839712,7.92036 C16.237872,7.92036 16.559712,7.5978 16.559712,7.20036 L16.559712,5.319 L17.772192,5.72292 C17.773632,5.72364 17.775072,5.72364 17.775792,5.72364 C17.847792,5.7474 17.922672,5.76036 17.999712,5.76036 C18.076752,5.76036 18.152352,5.7474 18.224352,5.72364 C18.225072,5.72364 18.226512,5.72364 18.227952,5.72292 L19.439712,5.319 L19.439712,7.20036 C19.439712,7.5978 19.762272,7.92036 20.159712,7.92036 C20.557872,7.92036 20.879712,7.5978 20.879712,7.20036 L20.879712,4.32036 C20.879712,4.28004 20.863872,4.2462 20.857392,4.20804" id="Fill-26" fill="#C03A2B"></path>
                <path d="M18.71964,18.133272 C18.61452,18.133272 18.50724,18.110232 18.40572,18.061272 C18.04788,17.887752 17.89884,17.457192 18.07236,17.099352 C19.5282,14.092632 23.15772,12.831192 26.16516,14.287752 C26.523,14.461272 26.67276,14.891832 26.49924,15.249672 C26.32644,15.607512 25.89516,15.757992 25.53732,15.583752 C23.24556,14.474232 20.47788,15.435432 19.36764,17.727192 C19.2438,17.983512 18.98676,18.133272 18.71964,18.133272" id="Fill-28" fill="#2C2F38"></path>
            </g>
        </g>
    </g>
</svg>