<?xml version="1.0" encoding="utf-8"?>
<!-- Generator: Adobe Illustrator 16.0.4, SVG Export Plug-In . SVG Version: 6.00 Build 0)  -->
<!DOCTYPE svg PUBLIC "-//W3C//DTD SVG 1.0//EN" "http://www.w3.org/TR/2001/REC-SVG-20010904/DTD/svg10.dtd">
<svg version="1.0" xmlns="http://www.w3.org/2000/svg" xmlns:xlink="http://www.w3.org/1999/xlink" x="0px" y="0px" width="101px"
	 height="30px" viewBox="0 0 101 30" enable-background="new 0 0 101 30" xml:space="preserve">
<g id="Boundingbox" display="none">
	<rect display="inline" fill="none" width="101" height="30"/>
</g>
<g id="logo">
	<path fill="#E4032E" d="M100.137,15.369c0,8.517-5.674,14.631-14.02,14.631c-7.89,0-13.755-5.611-13.755-14.631
		c0-9.687,6.964-14.669,14.019-14.669C93.146,0.7,100.137,5.424,100.137,15.369z M93.308,15.369c0-4.066-1.967-8.785-7.077-8.785
		c-4.636,0-7.076,3.985-7.076,8.785c0,5.395,3.009,8.787,7.076,8.787C91.341,24.156,93.308,19.487,93.308,15.369z"/>
	<path fill="#E4032E" d="M69.861,27.337c-1.671,1.118-5.185,2.637-9.978,2.637c-9.418,0-14.071-6.498-14.071-14.437
		C45.812,6.6,52.136,0.7,60.4,0.7c4.093,0,6.72,0.683,9.049,1.822l-2.387,5.507c-1.776-0.743-3.823-1.182-6.251-1.182
		c-5.973,0-8,3.574-8,8.508c0,5.326,2.721,8.779,7.461,8.779c1.716,0,3.004-0.367,3.401-0.625v-4.953h-4.812l0.007-5.606h10.989
		L69.861,27.337z"/>
	<path fill="#E4032E" d="M37.695,29.511c-0.936-3.411-2.501-6.006-3.792-7.665c-1.089-1.4-1.937-1.7-1.937-1.7
		c-0.88,0.024-1.485,0.021-2.292-0.016v9.38h-6.574V1.452c1.384-0.224,2.377-0.345,3.828-0.479c1.339-0.125,2.85-0.206,4.525-0.206
		c2.217,0,4.1,0.245,5.646,0.734c1.547,0.489,2.81,1.16,3.79,2.011c1.005,0.852,1.727,1.908,2.165,3.068
		c0.464,1.134,0.696,2.346,0.696,3.635c0,1.701-0.416,3.35-1.321,4.76c-0.804,1.252-2.154,2.534-3.552,3.416v0.124
		c3.124,1.429,4.893,6.03,6.608,10.996H37.695z M37.154,10.375c0-1.186-0.426-2.136-1.276-2.78
		c-0.851-0.671-2.021-0.999-3.438-1.021c-0.157-0.002-0.769,0.004-1.136,0.017c-0.361,0.011-1.326,0.098-1.629,0.152v8.084
		c0.438,0.052,1.348,0.093,2.088,0.093c1.572,0,3.035-0.433,3.964-1.153C36.655,13.018,37.154,11.819,37.154,10.375z"/>
	<path fill="#E4032E" d="M0,22.793V1.164h19.308l0.005,6.032H6.575v4.853h10.779l0.007,5.725H6.575v3.032
		c0,1.905,1.119,2.711,2.578,2.711c2.961,0,10.679-0.001,10.679-0.001l0.008,5.994H6.668C1.735,29.51,0,27.233,0,22.793z"/>
</g>
</svg>
