<?xml version="1.0" encoding="UTF-8" standalone="no"?>
<svg width="69px" height="104px" viewBox="0 0 69 104" version="1.1" xmlns="http://www.w3.org/2000/svg" xmlns:xlink="http://www.w3.org/1999/xlink">
    <!-- Generator: Sketch 41 (35326) - http://www.bohemiancoding.com/sketch -->
    <title>Shape</title>
    <desc>Created with Sketch.</desc>
    <defs></defs>
    <g id="Page-1" stroke="none" stroke-width="1" fill="none" fill-rule="evenodd">
        <path d="M58.075,65.258 C63.887,65.258 68.619,60.529 68.619,54.716 C68.617,48.902 63.887,44.172 58.073,44.172 C53.08,44.172 48.896,47.665 47.813,52.334 L47.813,53.212 L45.293,53.212 L45.293,52.334 C45.293,52.334 45.292,52.336 45.292,52.34 C44.2,47.387 39.784,43.668 34.508,43.668 C29.471,43.668 25.218,47.065 23.897,51.688 L16.277,51.688 C25.006,43.706 23.146,30.251 23.146,30.251 L62.866,30.251 L62.866,0.263 L54.844,11.442 L54.844,0 L46.771,11.049 L46.771,0 L39.719,10.523 L0,10.523 L0,30.251 L0,57.439 C1.698,57.389 3.272,57.232 4.733,56.989 L4.733,74.443 C4.733,74.443 11.659,80.197 23.318,88.101 L23.316,88.101 L49.452,103.903 L59.67,82.995 C60.197,82.069 60.65,81.131 61.034,80.207 L61.05,80.173 L61.048,80.173 C62.366,76.969 62.866,73.953 62.866,72.208 L62.866,69.04 L56.812,78.185 L40.245,78.185 L14.03,62.689 L11.074,55.101 C11.345,54.979 11.595,54.845 11.853,54.715 L23.467,54.715 C23.467,60.803 28.422,65.76 34.512,65.76 C39.786,65.76 44.2,62.041 45.293,57.092 L45.293,55.975 L47.813,55.975 L47.813,57.092 C48.894,61.763 53.08,65.258 58.075,65.258 Z M34.513,63.759 C29.525,63.759 25.467,59.7 25.467,54.716 C25.467,49.726 29.525,45.668 34.513,45.668 C39.501,45.668 43.559,49.726 43.559,54.716 C43.557,59.7 39.501,63.759 34.513,63.759 Z M58.073,46.172 C62.785,46.172 66.617,50.003 66.617,54.716 C66.617,59.428 62.785,63.259 58.073,63.259 C53.792,63.259 50.247,60.089 49.635,55.976 L49.656,55.976 L49.656,53.336 C50.318,49.279 53.834,46.172 58.073,46.172 Z" id="Shape" fill="#FFFFFF"></path>
    </g>
</svg>