<svg xmlns="http://www.w3.org/2000/svg" width="467.88" height="103.9"><path fill="#ffffff" d="M108.02 78.57V61.5H99.6v17.07H82.9V30.14h16.7v18.1h8.42v-18.1h16.46v48.43h-16.46zm39.08-22.93v-1.4c0-.78-.48-1.4-1.5-1.4-2.88 0-8.34 1.1-13.64 2.4l-2.42-12.3c6.55-1.57 13.03-2.66 20.05-2.66 9.7 0 13.3 3.6 13.3 11 0 4.67-.5 10.3-.5 15.6 0 1.47 1.1 1.8 3.7 1.8l-1.5 10.36c-2.4.15-4.2.3-6.3.3-3.5 0-6.6-1-8.3-3.03h-.6c-2.1 1.8-4.87 3.1-9.55 3.1-7.5 0-11.4-4.3-11.4-11.3 0-9.3 6.7-11.5 18.4-12.4zm.46 11.3V64c-2.73.38-4.06 1.16-4.06 3.1 0 1.4.55 2.2 1.8 2.2 1.48 0 2.26-.8 2.26-2.35zm39.54.63c2.25 0 4.75-.4 7.87-1l1.7 10.83c-4.12 1.17-7.24 1.95-11.53 1.95-11.77 0-17.47-7.4-17.47-18.8 0-11.62 5.77-20.27 17.7-20.27 4.92 0 8.2.7 11.94 2.1l-1.6 12.32c-2.8-1-6.2-2.18-8.5-2.18-2.5 0-3.1 2.8-3.1 7.5 0 5.06.6 7.55 3.1 7.55zm33.52 11l-4.52-12.24h-.3v12.24h-16V31.83l15.98-3.25v25.74h.32l5.46-9.86 16.92-3.25-8.73 19.5c2.73 6 5.7 12 8.42 18h-17.55zm54.66-23.24c0 2.26-.23 5.07-.62 8.73H255.1c.22 3.04 2 4.2 5.13 4.2 2.73 0 5.93-.6 11.86-1.62l1.3 10.52c-5.3 1.4-10 2.2-15.5 2.2-12.7 0-19.3-7.5-19.3-19.28 0-12.63 6.4-19.8 19.3-19.8 13.1 0 17.2 6 17.2 15.05zm-20.5 1.64h5.6v-1.25c0-1.87-.62-2.9-2.72-2.9-2.34 0-2.9 1.57-2.9 4.15zm40.38 21.6H279.1V41.2h13.88l.47 2.5h.3c2.43-2.25 5.08-3.03 11.4-3.03l-.47 12.94h-5.3c-3.04 0-4.2.9-4.2 4.1v20.9zm46.48-47.65l-1.8 13.73c-5.45-1.1-10.13-1.95-12.62-1.95-2.03 0-3.2.47-3.2 1.87 0 1.17 1.24 1.4 3.04 2.18 5.22 2.34 15.9 5 15.9 16.07 0 10.68-6.23 16.53-18.08 16.53-6.48 0-11.4-.78-16.62-2.1l1.1-13.18c6.78 1.7 10.84 2.64 14.1 2.64 1.65 0 2.43-.5 2.43-1.7s-1.1-1.6-2.7-2.4c-5.3-2.5-16.4-4.8-16.4-16.8 0-10.3 6.5-16.4 17.8-16.4 6.1 0 11.6.6 16.9 1.6zm6.3 38.2V52.2h-4.12V41.7h4.9l1.03-6.94h14.42v6.94h7.1v10.5h-7.17v14.44c0 .7.3 1 .93 1 1.5 0 3.12-.14 6.16-.3l-.5 11.23c-3.9.4-7.2.78-11 .78-7.8 0-11.8-2.5-11.8-10.22zm62.96-9.9c0 14.36-5.47 20.13-18.5 20.13-13.25 0-18.95-5.93-18.95-19.57 0-13.8 6-19.5 18.95-19.5 12.8 0 18.5 5.7 18.5 18.95zm-21.15-.3v1.87c0 6.3.16 7.8 2.73 7.8 1.95 0 2.26-1.5 2.26-7.5V59c0-5.7-.15-7.26-2.5-7.26-2.26 0-2.5 1.56-2.5 7.18zm24.8-27.1l15.98-3.24V65.3c0 1.5.86 2.12 2.9 2.12l-1.18 11.93h-6.4c-7.56 0-11.3-3.28-11.3-10.45V31.83zm20.97 46.75l-.4-8.8 12.26-16.3h-12.64V41.2h32.68l.47 8.2-12 17.55h10.6l-4.9 11.62h-26.2z"/><path fill="#ffffff" d="M58.08 65.26c5.8 0 10.54-4.73 10.54-10.54 0-5.82-4.73-10.55-10.55-10.55-5 0-9.17 3.5-10.26 8.16v.88h-2.5v-.8c-1.1-4.9-5.5-8.6-10.8-8.6-5 0-9.2 3.4-10.6 8h-7.6c8.8-8 6.9-21.4 6.9-21.4h39.7V.3l-8 11.2V0l-8.1 11.05V0l-7 10.52H0v46.93c1.7-.06 3.27-.22 4.73-.46v17.4s6.93 5.7 18.6 13.6l26.12 15.8L59.67 83c.53-.93.98-1.87 1.36-2.8l.02-.03c1.32-3.2 1.82-6.22 1.82-7.96v-3.1l-6.07 9.1H40.27L14.04 62.7l-2.96-7.6c.28-.1.53-.25.78-.4h11.62c0 6.1 4.95 11.07 11.04 11.07 5.3 0 9.7-3.72 10.8-8.67v-1.13h2.5v1.12c1.1 4.6 5.28 8.1 10.28 8.1zm-23.57-1.5c-4.9 0-9-4.06-9-9.04 0-5 4.1-9.05 9.1-9.05s9.1 4.06 9.1 9.05c0 4.98-4 9.04-9 9.04zm23.6-17.6c4.7 0 8.6 3.84 8.6 8.56 0 4.7-3.8 8.54-8.5 8.54-4.3 0-7.8-3.17-8.4-7.28v-2.64c.7-4.06 4.2-7.17 8.4-7.17z"/></svg>