<svg xmlns="http://www.w3.org/2000/svg">
<defs>
<font id="794d90b5e05386f96770ece72f92a411" horiz-adv-x='1024' >
  <font-face 
    font-family="GTPressura-Regular"
    font-weight="400"
    font-stretch="normal"
    units-per-em="2048"
    panose-1="2 0 5 6 2 0 0 2 0 4"
    ascent="1638"
    descent="-410"
    x-height="1023"
    cap-height="1434"
    bbox="-356.76 -511 1908.76 2181.04"
    underline-thickness="102"
    underline-position="-51"
    unicode-range="U+0020-FB04"
  />
<missing-glyph horiz-adv-x="1126" 
d="M784 376q0 -22 20 -42t21 -55q0 -72 -71 -72q-26 1 -72 31t-80 30q-64 0 -64 -63q0 -25 -14 -41t-28 -16q-15 0 -20 2q-6 2 -10 9q-4 6 -6 10l-6 15q-8 20 -22 41q-15 22 -50 22q-34 0 -46 -24q-4 -7 -7 -11t-10 -23q-7 -18 -15 -29q-20 -30 -64 -30t-76 28t-32 70t36 78
l28 32q22 29 22 73q0 45 -17 67t-37 22t-36 -8t-30 -7v-1q-30 0 -46 31t-15 69q-1 38 19 62q20 25 41 25q21 1 37 -11t34 -12q20 0 34 28t13 54l-20 100q0 76 81 76q19 0 19 17q0 5 -8 21t-8 26t11 20q10 10 26 10t41 -35q21 -36 41 -36q41 0 41 57q6 35 22 45t37 10
q21 -1 37 -9t21 -14t17 -24q13 -18 19 -26q20 -25 57 -25q38 1 53 23t15 76t29 81q28 27 76 27t74 -26t26 -75q0 -48 -49 -83q-5 -2 -15 -10t-14 -12t-10 -9t-8 -11t-3 -13q0 -7 2 -13q7 -24 26 -35q18 -11 23 -14t36 -21q73 -39 73 -113q-1 -43 -33 -77t-32 -70
q0 -53 90 -53q82 0 82 -92q0 -45 -31 -76t-69 -31t-76 52q-39 51 -84 51q-46 0 -46 -43zM576 431q40 0 56 18q43 47 35 62q-3 4 -7 3t-6 -6q-26 -45 -78 -45t-98 41l-1 2q-13 10 -14 2t5 -17q37 -60 108 -60zM468 643q-12 1 -20 13t-9 30q1 18 9 30t20 13q12 0 20 -12
q8 -13 9 -31q-1 -18 -9 -30t-20 -13zM636 696q0 43 28 43t29 -43q0 -18 -8 -30t-20 -13q-13 1 -21 13t-8 30zM694 793q-34 0 -59 -30q-24 -30 -24 -66q-1 -35 23 -59t60 -24t61 24q26 24 26 59q-1 35 -27 65t-60 31zM440 799q-34 0 -54 -29t-20 -74q0 -46 20 -74t54 -28
t58 29t23 73q1 44 -23 74t-58 29zM174 1065q0 29 18 49t39 21q22 -1 37 -21t15 -49t-14 -49t-37 -21q-22 1 -40 21t-18 49z" />
    <glyph glyph-name=".notdef" horiz-adv-x="1126" 
d="M784 376q0 -22 20 -42t21 -55q0 -72 -71 -72q-26 1 -72 31t-80 30q-64 0 -64 -63q0 -25 -14 -41t-28 -16q-15 0 -20 2q-6 2 -10 9q-4 6 -6 10l-6 15q-8 20 -22 41q-15 22 -50 22q-34 0 -46 -24q-4 -7 -7 -11t-10 -23q-7 -18 -15 -29q-20 -30 -64 -30t-76 28t-32 70t36 78
l28 32q22 29 22 73q0 45 -17 67t-37 22t-36 -8t-30 -7v-1q-30 0 -46 31t-15 69q-1 38 19 62q20 25 41 25q21 1 37 -11t34 -12q20 0 34 28t13 54l-20 100q0 76 81 76q19 0 19 17q0 5 -8 21t-8 26t11 20q10 10 26 10t41 -35q21 -36 41 -36q41 0 41 57q6 35 22 45t37 10
q21 -1 37 -9t21 -14t17 -24q13 -18 19 -26q20 -25 57 -25q38 1 53 23t15 76t29 81q28 27 76 27t74 -26t26 -75q0 -48 -49 -83q-5 -2 -15 -10t-14 -12t-10 -9t-8 -11t-3 -13q0 -7 2 -13q7 -24 26 -35q18 -11 23 -14t36 -21q73 -39 73 -113q-1 -43 -33 -77t-32 -70
q0 -53 90 -53q82 0 82 -92q0 -45 -31 -76t-69 -31t-76 52q-39 51 -84 51q-46 0 -46 -43zM576 431q40 0 56 18q43 47 35 62q-3 4 -7 3t-6 -6q-26 -45 -78 -45t-98 41l-1 2q-13 10 -14 2t5 -17q37 -60 108 -60zM468 643q-12 1 -20 13t-9 30q1 18 9 30t20 13q12 0 20 -12
q8 -13 9 -31q-1 -18 -9 -30t-20 -13zM636 696q0 43 28 43t29 -43q0 -18 -8 -30t-20 -13q-13 1 -21 13t-8 30zM694 793q-34 0 -59 -30q-24 -30 -24 -66q-1 -35 23 -59t60 -24t61 24q26 24 26 59q-1 35 -27 65t-60 31zM440 799q-34 0 -54 -29t-20 -74q0 -46 20 -74t54 -28
t58 29t23 73q1 44 -23 74t-58 29zM174 1065q0 29 18 49t39 21q22 -1 37 -21t15 -49t-14 -49t-37 -21q-22 1 -40 21t-18 49z" />
    <glyph glyph-name=".null" horiz-adv-x="0" 
 />
    <glyph glyph-name="nonmarkingreturn" horiz-adv-x="682" 
 />
    <glyph glyph-name="space" unicode=" " horiz-adv-x="471" 
 />
    <glyph glyph-name="exclam" unicode="!" horiz-adv-x="538" 
d="M184 0q-16 0 -28 12t-13 29v170q1 17 13 29t28 12h170q16 0 28 -12t13 -29v-170q0 -17 -12 -29t-29 -12h-170zM211 389q-17 1 -29 13t-12 28v963q0 17 12 29t29 12h115q16 0 28 -12t13 -29v-963q-1 -16 -13 -28t-28 -13h-115z" />
    <glyph glyph-name="quotedbl" unicode="&#x22;" horiz-adv-x="833" 
d="M159 901h-30q-28 1 -39 23t2 45l94 172q6 9 -1 17t-17 9h-35q-17 1 -29 13t-12 28v185q0 17 12 29t29 12h184q17 0 29 -12t12 -29v-185q0 -68 -41 -127l-106 -149q-19 -31 -52 -31zM578 1167h-35q-17 1 -29 13t-12 28v185q0 17 12 29t29 12h184q17 0 29 -12t12 -29v-185
q0 -66 -41 -127l-106 -149q-19 -31 -54 -31l-67 23q-12 22 2 45l94 172q6 9 -1 17t-17 9z" />
    <glyph glyph-name="numbersign" unicode="#" horiz-adv-x="1181" 
d="M146 492h103q19 0 24 20l66 369q5 20 -15 20h-103q-15 0 -27 13t-8 28l13 76q4 16 18 28t31 13h102q20 0 25 20l55 314q4 17 18 29t28 12h86q16 0 28 -13t7 -28l-55 -314q-5 -20 15 -20h197q19 0 24 20l56 314q4 17 17 29t30 12h86q16 0 27 -13t6 -28l-55 -314
q-5 -20 16 -20h102q17 -1 27 -13t6 -28l-13 -76q-4 -17 -17 -29t-30 -12h-102q-19 0 -25 -20l-65 -369q-5 -20 15 -20h103q16 0 26 -12t6 -29l-12 -76q-4 -17 -18 -29t-28 -12h-102q-19 0 -25 -21l-49 -272q-4 -17 -18 -29t-28 -12h-86q-16 0 -28 13t-7 28l49 272
q5 21 -15 21h-187q-30 0 -34 -21l-50 -272q-4 -17 -17 -29t-30 -12h-86q-15 0 -27 13t-8 28l50 272q5 21 -17 21l-127 12q-12 12 -8 29l12 76q4 17 18 29t30 12zM456 492h196q20 0 25 20l65 369q5 20 -15 20h-197q-19 0 -24 -20l-66 -369q-5 -20 16 -20z" />
    <glyph glyph-name="dollar" unicode="$" horiz-adv-x="1044" 
d="M63 411v32q1 17 13 29t28 12h115q17 0 29 -12t12 -29v-32q0 -103 75 -167t189 -65q114 0 188 66t74 166q0 176 -198 228q-34 9 -46 13t-50 12t-50 11q-152 32 -247 130t-95 252t88 251t227 134q20 6 20 20v74q1 16 13 28t28 13h92q16 -1 28 -13t13 -28v-74q2 -14 20 -20
q137 -31 225 -139t88 -238v-27q0 -16 -12 -28t-29 -13h-113q-16 1 -28 13t-12 28v27q0 93 -68 141t-164 49t-158 -51t-61 -139q-1 -155 201 -207q20 -5 56 -13t50 -11q179 -40 279 -148t100 -272t-102 -278q-102 -113 -252 -143q-18 -6 -20 -21v-73q0 -17 -12 -29t-29 -12
h-92q-16 0 -28 12t-13 29v73q0 12 -20 20q-155 35 -255 153l2 1q-99 113 -99 265z" />
    <glyph glyph-name="percent" unicode="%" horiz-adv-x="1325" 
d="M962 172q35 0 59 22q46 41 28 232q-4 32 -26 53q-21 21 -57 21t-60 -20t-27 -54h-1q-17 -185 27 -231q22 -23 57 -23zM964 656q92 0 155 -58q109 -102 74 -362q-9 -88 -71 -152t-156 -64t-158 58t-75 158q-34 250 76 358q63 62 155 62zM359 930q35 0 59 22t30 56
q13 88 0 176q-4 31 -26 52t-58 21q-36 1 -60 -19t-28 -54q-8 -88 0 -176q4 -32 26 -55t57 -23zM361 1414q93 0 156 -58q110 -102 75 -362q-8 -92 -70 -154t-158 -62q-95 0 -158 58t-75 157q-34 250 75 359q62 62 155 62zM180 0q-21 0 -33 18t0 39l875 1346q18 31 45 31h78
q22 0 34 -18t-1 -40l-873 -1345q-19 -31 -43 -31h-82z" />
    <glyph glyph-name="ampersand" unicode="&#x26;" horiz-adv-x="1239" 
d="M828 413q16 0 16 200q0 17 12 29t29 12h92q17 0 29 -12t12 -29q0 -241 -35 -323q-12 -19 3 -34l158 -180q18 -20 6 -48t-44 -28h-100q-19 0 -25 4q-7 4 -9 5l-87 93q-13 15 -28 0q-126 -118 -312 -118t-314 128h1q-128 125 -128 304q0 88 48 178t120 162q25 21 0 49
q-94 135 -94 254q0 167 104 271t274 104t270 -106t101 -269v-31q-1 -16 -13 -28t-28 -13h-105q-17 1 -29 13t-12 28v31q0 93 -46 147t-139 54q-94 0 -143 -54t-49 -132q1 -80 69 -176t114 -145l272 -334q4 -6 10 -6zM294 421q0 -110 71 -178q72 -75 178 -75t184 63
q11 11 4 21l-317 385q-6 9 -15 0h1q-106 -106 -106 -216z" />
    <glyph glyph-name="quotesingle" unicode="'" horiz-adv-x="423" 
d="M158 901h-30q-28 1 -39 23t2 45l94 172q6 9 -1 17t-17 9h-35q-16 1 -28 13t-13 28v185q1 17 13 29t28 12h184q16 0 28 -12t13 -29v-185q0 -68 -41 -127l-106 -149q-19 -31 -52 -31z" />
    <glyph glyph-name="parenleft" unicode="(" horiz-adv-x="698" 
d="M595 1471h25q16 -1 28 -13t13 -28v-99q-1 -17 -13 -29t-28 -12h-25q-103 0 -181 -69t-97 -189t-19 -390q0 -269 16 -381t93 -189q76 -77 188 -77h37q16 -1 28 -13t13 -28v-98q-1 -16 -13 -28t-28 -13h-37q-186 1 -311 117t-149 313q-7 58 -13 229t-1 328l-2 -5
q6 186 14 243q21 180 145 306t317 125z" />
    <glyph glyph-name="parenright" unicode=")" horiz-adv-x="698" 
d="M59 0h37q112 0 188 76t92 190q16 112 17 381q0 269 -19 389t-97 190q-78 69 -181 69h-24q-16 1 -28 13t-13 28v99q0 17 12 29t29 12h24q192 0 316 -126t145 -305q18 -117 15 -399q-2 -283 -13 -401q-24 -194 -150 -314q-126 -115 -311 -115h-37q-17 0 -29 12t-12 29
l-2 102q0 17 12 29t29 12z" />
    <glyph glyph-name="asterisk" unicode="*" horiz-adv-x="741" 
d="M330 1477h86q16 -1 28 -13t13 -28l-4 -97l81 52q14 11 32 5t25 -23l43 -74q23 -32 -16 -55l-86 -45l86 -45q16 -8 20 -25t-5 -31l-43 -76q-21 -34 -57 -14l-81 49l4 -94q0 -17 -12 -29t-29 -12h-86q-17 0 -29 12t-12 29l2 96l-80 -51q-14 -10 -31 -5t-25 21l-43 74
q-23 32 14 55l84 45l-84 45h1q-16 8 -20 25t7 31l43 76q21 35 55 16l80 -52l-2 97q0 16 12 28t29 13z" />
    <glyph glyph-name="plus" unicode="+" horiz-adv-x="1105" 
d="M101 458v106q1 16 13 28t28 13h295q21 0 21 21v295q0 17 12 29t29 12h106q17 0 29 -12t12 -29v-295q0 -18 21 -20h295q16 0 28 -12t13 -29v-106q-1 -17 -13 -29t-28 -12h-295q-19 0 -20 -21v-295q0 -16 -12 -28t-29 -13h-106q-16 1 -28 13t-13 28v295q0 21 -21 21h-295
l-1 -1q-16 0 -28 12t-13 29z" />
    <glyph glyph-name="comma" unicode="," horiz-adv-x="581" 
d="M240 -266h-30q-28 0 -39 22t2 45l94 172q6 9 -1 18t-17 9h-35q-16 0 -28 12t-13 29v184q1 17 13 29t28 12h184q16 0 28 -12t13 -29v-184q0 -68 -41 -127l-106 -150q-18 -30 -52 -30z" />
    <glyph glyph-name="hyphen" unicode="-" horiz-adv-x="927" 
d="M184 436q-16 0 -28 12t-13 29v139q1 16 13 28t28 13h559q17 0 29 -12t12 -29v-139q0 -17 -12 -29t-29 -12h-559z" />
    <glyph glyph-name="period" unicode="." horiz-adv-x="579" 
d="M195 0q-17 0 -29 12t-12 29v184q0 17 12 29t29 12h184q17 0 29 -12t12 -29v-184q0 -17 -12 -29t-29 -12h-184z" />
    <glyph glyph-name="slash" unicode="/" horiz-adv-x="937" 
d="M691 1454h107q21 0 32 -18t0 -39l-540 -1391q-11 -31 -44 -31l-138 17q-11 18 -2 41l545 1390q10 31 40 31z" />
    <glyph glyph-name="zero" unicode="0" horiz-adv-x="1064" 
d="M526 172q108 0 176 64t84 194q18 129 18 293q0 163 -16 285q-35 260 -259 260q-105 0 -173 -64t-84 -185t-15 -300l1 -1q0 -183 15 -297t74 -174q71 -75 179 -75zM528 1453q188 0 302 -112t141 -314q14 -105 14 -289q1 -184 -17 -348t-130 -284q-112 -122 -301 -122
q-191 0 -305 112t-140 314q-16 119 -16 308l-3 3q0 187 16 306q21 182 135 304q116 122 304 122z" />
    <glyph glyph-name="one" unicode="1" horiz-adv-x="743" 
d="M68 926v125q0 45 22 67l311 297q19 19 41 19h127q17 0 29 -12t12 -29v-1352q0 -17 -12 -29t-29 -12h-108q-17 0 -29 12t-12 29v1124q0 9 -7 11t-12 -2l-288 -265q-13 -12 -29 -6t-16 23z" />
    <glyph glyph-name="two" unicode="2" horiz-adv-x="946" 
d="M885 41q0 -41 -41 -41h-742v-1q-16 1 -28 13t-13 28v133q0 32 19 51l463 533q127 145 127 302q0 89 -56 148t-142 59t-146 -63t-60 -144v-31q0 -16 -12 -28t-29 -13h-106q-17 1 -29 11t-12 30v31q0 167 112 279t276 112q163 0 276 -113q110 -115 110 -278
q0 -117 -38 -213t-118 -191l-385 -440q-9 -9 -4 -21t21 -12h516q41 0 41 -41v-100z" />
    <glyph glyph-name="three" unicode="3" horiz-adv-x="995" 
d="M64 406v14q0 16 12 28t29 13h113q16 -1 28 -13t13 -28v-14q0 -97 66 -160q65 -68 169 -68t170 66t67 164q0 98 -54 171t-177 73h-25q-17 0 -29 12t-12 29v109q0 16 12 28t29 13h25q96 0 148 64q52 63 52 147t-58 142t-148 58t-147 -58q-58 -58 -58 -138v-31
q-1 -17 -13 -29t-28 -12h-111q-17 0 -29 12t-12 29v31q0 163 115 277t283 114q168 1 285 -113q116 -114 116 -283t-119 -275q-29 -24 -3 -49q152 -131 152 -315q1 -184 -125 -307t-308 -123t-304 123l3 1q-127 122 -127 298z" />
    <glyph glyph-name="four" unicode="4" horiz-adv-x="1005" 
d="M607 439q21 0 21 21v643q0 9 -6 10t-11 -6l-358 -651q-10 -16 8 -17h346zM32 306v90q0 27 15 50q15 24 17 28l531 930q17 29 42 29h127q16 -1 28 -13t13 -28v-932q0 -18 20 -20h99q16 0 28 -12t13 -29v-92q-1 -17 -13 -29t-28 -12h-99q-20 0 -20 -20v-205q-1 -17 -13 -29
t-28 -12h-96q-16 0 -28 12t-13 29v205q0 20 -21 20h-534l1 -1q-17 1 -29 13t-12 28z" />
    <glyph glyph-name="five" unicode="5" horiz-adv-x="1024" 
d="M99 358q0 19 12 30t29 11h105q17 0 29 -12t12 -29q0 -83 71 -136q69 -55 171 -55t166 84q64 83 63 217t-65 218t-175 83q-61 0 -109 -34t-74 -89q-10 -22 -39 -22h-111q-16 0 -28 12t-13 29v727q1 16 13 28t28 13h662q16 -1 28 -13t13 -28v-103q-1 -17 -13 -29t-28 -12
h-508q-18 0 -20 -20v-307q0 -19 12 -25t34 8q28 24 74 37t82 13q188 0 305 -142t117 -344q0 -204 -116 -344t-293 -140t-302 107h-3q-129 109 -129 267z" />
    <glyph glyph-name="six" unicode="6" horiz-adv-x="1036" 
d="M531 171q97 0 157 63t70 142q24 196 -70 296q-60 64 -158 64t-158 -59q-90 -91 -70 -281q12 -99 72 -162t157 -63zM516 1450q166 0 282 -113q114 -114 114 -278q0 -17 -12 -29t-29 -12h-106q-17 0 -29 12t-12 29q0 79 -55 143t-153 64t-154 -56q-54 -56 -74 -162
q-20 -104 -15 -189q1 -13 11 -18t22 4q108 80 226 80q172 -1 290 -123t130 -297q5 -48 0 -107q-8 -174 -128 -294t-294 -121q-174 0 -290 122t-138 304q-14 104 -14 308l-1 -1q-1 164 17 330t132 285t280 119z" />
    <glyph glyph-name="seven" unicode="7" horiz-adv-x="860" 
d="M61 1249q-17 1 -29 13t-12 28v103q0 17 12 29t29 12h738q17 0 29 -12t12 -29v-138q0 -19 -11 -41l-495 -1183q-14 -31 -38 -31h-123q-27 0 -35 16t-2 33l502 1180q8 20 -15 20h-562z" />
    <glyph glyph-name="eight" unicode="8" horiz-adv-x="1064" 
d="M785 407q0 101 -73 169t-185 68t-183 -68t-71 -169q0 -102 71 -168q70 -66 184 -66t186 66t71 168zM530 1267q-104 1 -167 -57t-63 -150t63 -152t166 -59q103 -1 167 59t63 152t-63 150t-166 57zM83 416q0 186 152 313q26 22 -1 49q-117 116 -117 282t118 278t295 112
q176 0 296 -113t120 -279t-119 -280q-27 -27 -1 -49q152 -131 152 -315q0 -186 -127 -308t-320 -122t-318 123l-3 1q-127 122 -127 308z" />
    <glyph glyph-name="nine" unicode="9" horiz-adv-x="1026" 
d="M502 168q262 0 262 412q0 14 -12 18t-25 -5q-40 -33 -102 -59t-131 -26q-168 0 -289 122q-151 152 -133 406q8 176 128 296t293 120q172 0 289 -122t140 -304q14 -104 14 -288t-17 -348t-132 -285t-285 -121t-294 114t-123 277q1 17 13 29t28 12h106q16 0 28 -12t13 -29
q1 -79 71 -143t158 -64zM496 696q98 0 156 59q90 91 71 281q-13 98 -73 162t-156 64q-97 0 -157 -64q-59 -64 -69 -142q-24 -195 69 -295q61 -65 159 -65z" />
    <glyph glyph-name="colon" unicode=":" horiz-adv-x="579" 
d="M211 0q-17 0 -29 12t-12 29v184q0 17 12 29t29 12h184q17 0 29 -12t12 -29v-184q0 -17 -12 -29t-29 -12h-184zM211 737q-17 1 -29 13t-12 28v185q0 17 12 29t29 12h184q17 0 29 -12t12 -29v-185q0 -16 -12 -28t-29 -13h-184z" />
    <glyph glyph-name="semicolon" unicode=";" horiz-adv-x="581" 
d="M236 -266h-30q-28 0 -39 22t2 45l94 172q6 9 -1 18t-17 9h-35q-16 0 -28 12t-13 29v184q1 17 13 29t28 12h184q16 0 28 -12t13 -29v-184q0 -68 -41 -127l-106 -150q-18 -30 -52 -30zM211 737q-17 1 -29 13t-12 28v185q0 17 12 29t29 12h184q17 0 29 -12t12 -29v-185
q0 -16 -12 -28t-29 -13h-184z" />
    <glyph glyph-name="less" unicode="&#x3c;" horiz-adv-x="983" 
d="M61 465v100q0 28 31 45l742 416q15 9 31 -3t16 -36v-123q0 -25 -31 -43l-547 -299q-6 -2 -6 -8t6 -9l547 -299q31 -18 31 -43v-123q0 -24 -15 -35t-32 -5l-742 418v1q-31 17 -31 46z" />
    <glyph glyph-name="equal" unicode="=" horiz-adv-x="1105" 
d="M143 229q-17 1 -29 13t-12 28v107q0 17 12 29t29 12h820q17 0 29 -12t12 -29v-107q0 -16 -12 -28t-29 -13h-820zM143 606q-17 0 -29 12t-12 29v107q0 16 12 28t29 13h820q17 -1 29 -13t12 -28v-107q0 -17 -12 -29t-29 -12h-820z" />
    <glyph glyph-name="greater" unicode="&#x3e;" horiz-adv-x="983" 
d="M102 41v123q0 24 31 43l547 299q16 8 0 15l-547 299q-31 19 -31 43v123q0 24 16 36t32 3l741 -416q31 -16 31 -45v-100q0 -30 -31 -46l-741 -418v2q-16 -9 -32 3t-16 36z" />
    <glyph glyph-name="question" unicode="?" horiz-adv-x="952" 
d="M374 1q-16 1 -28 13t-13 28v170q0 16 12 28t29 13h170q16 -1 28 -13t13 -28v-170q-1 -16 -13 -28t-28 -13h-170zM93 1029v31q0 161 109 278q108 117 274 117t275 -109q110 -115 110 -286q0 -108 -45 -184t-137 -146q-66 -44 -86 -64q-43 -41 -43 -92v-143q0 -17 -12 -29
t-29 -12h-105q-16 0 -28 12t-13 29v172q0 83 40 129t96 84t90 68q84 84 84 174t-53 150t-141 59q-88 0 -144 -63t-56 -145v-31q-1 -16 -13 -28t-28 -13h-105l1 1q-16 0 -28 12t-13 29z" />
    <glyph glyph-name="at" unicode="@" horiz-adv-x="1669" 
d="M650 554q0 -108 48 -188q48 -78 153 -78q69 0 115 42t45 115v232q1 71 -45 109t-115 38q-98 0 -151 -85h1q-51 -77 -51 -185zM1251 288q132 0 132 337q-1 242 -141 390t-383 148t-403 -174q-160 -175 -159 -429q0 -254 153 -426q153 -171 398 -171q125 0 217 43
q21 10 35 0t14 -31v-57q0 -6 -2 -12t-2 -9q-2 -5 -6 -9l-6 -6t-8 -6t-12 -10t-13 -5q-35 -17 -97 -31t-120 -14q-322 0 -527 216l3 1q-198 204 -198 525q0 322 204 538t518 216t507 -190t193 -497q0 -225 -81 -353t-205 -129q-71 0 -118 29q-46 30 -70 30t-64 -18
q-82 -41 -160 -41q-195 -1 -287 113t-92 296q1 182 105 300t261 118t243 -80t87 -213v-287q1 -46 23 -74t61 -28z" />
    <glyph glyph-name="A" unicode="A" horiz-adv-x="999" 
d="M431 1435h143q33 0 39 -31l381 -1362q1 -2 1 -10t-7 -18q-11 -14 -35 -14h-112q-29 0 -40 31l-90 313q-6 29 -39 29h-340q-30 0 -40 -29l-90 -313q-11 -31 -39 -31h-113q-24 0 -35 14q-7 12 -7 19h2l382 1371q6 31 39 31zM374 562h254q18 0 18 14q0 4 -2 10l-133 571
q-5 12 -9 12h-4q-4 0 -9 -12l-132 -571l-1 -10q0 -14 18 -14z" />
    <glyph glyph-name="B" unicode="B" horiz-adv-x="1034" 
d="M324 638v-424q0 -20 20 -20h209q99 0 167 66t68 164t-68 166t-167 68h-209q-8 4 -14 -3t-6 -17zM324 1218v-355q0 -20 20 -20h209q99 0 153 58t54 147q0 90 -62 140t-145 50h-209q-20 0 -20 -20zM174 0v-1q-16 1 -28 13t-13 28v1352q1 16 13 28t28 13h379q165 0 284 -108
q117 -109 117 -273q0 -77 -30 -152t-86 -124q-29 -25 0 -45q64 -53 104 -139t41 -174q-1 -178 -125 -298t-305 -120h-379z" />
    <glyph glyph-name="C" unicode="C" horiz-adv-x="1112" 
d="M568 1449q196 -1 328 -119t133 -307v-29q0 -16 -12 -28t-29 -13h-112q-16 1 -28 13t-13 28v29q-1 95 -75 163t-185 68t-185 -60t-89 -177q-15 -116 -15 -301t14 -296t86 -177q70 -66 180 -66t190 61t79 171v28q0 17 12 29t29 12h112q16 0 28 -12t13 -29v-28
q0 -176 -131 -301q-132 -125 -324 -125t-317 116t-148 311q-17 127 -17 308l-1 -1q0 190 17 306q21 180 143 303q121 123 317 123z" />
    <glyph glyph-name="D" unicode="D" horiz-adv-x="1101" 
d="M328 1219v-1003q0 -20 20 -20h215q92 0 158 69t79 169t13 283q1 181 -13 283t-80 170t-157 69h-215q-20 0 -20 -20zM174 0q-16 0 -28 12t-13 29v1352q1 17 13 29t28 12h389q173 0 291 -126t139 -304q15 -112 15 -265t-18 -323t-136 -293t-291 -123h-389z" />
    <glyph glyph-name="E" unicode="E" horiz-adv-x="962" 
d="M174 0v-1q-16 1 -28 13t-13 28v1352q1 16 13 28t28 13h662q16 -1 28 -13t13 -28v-113q-1 -17 -13 -29t-28 -12h-488q-20 0 -20 -20v-369q0 -18 20 -20h465q17 0 29 -12t12 -29v-112q0 -16 -12 -28t-29 -13h-465q-20 0 -20 -21v-399q0 -20 20 -20h492q16 -1 28 -13t13 -28
v-113q-1 -17 -13 -29t-28 -12h-666z" />
    <glyph glyph-name="F" unicode="F" horiz-adv-x="917" 
d="M174 0v-1q-16 1 -28 13t-13 28v1352q1 16 13 28t28 13h662q16 -1 28 -13t13 -28v-113q-1 -17 -13 -29t-28 -12h-488q-20 0 -20 -20v-369q0 -18 20 -20h465q17 0 29 -12t12 -29v-112q0 -16 -12 -28t-29 -13h-465q-20 0 -20 -21v-573q0 -17 -12 -29t-29 -12h-113z" />
    <glyph glyph-name="G" unicode="G" horiz-adv-x="1118" 
d="M92 718h-1q0 190 17 306q21 180 143 303q121 123 317 123t328 -118t133 -308v-29q0 -17 -12 -29t-29 -12h-112q-16 0 -28 12t-13 29v29q-1 95 -75 163t-185 68q-111 -1 -185 -61t-89 -176t-15 -301t14 -296t86 -177q71 -66 183 -66t189 59t77 173v172q0 20 -21 20h-186
q-16 0 -28 12t-13 29v113q0 16 12 28t29 13h360q16 -1 28 -13t13 -28v-346q0 -181 -129 -304q-130 -123 -324 -123t-319 116t-148 311q-17 127 -17 308z" />
    <glyph glyph-name="H" unicode="H" horiz-adv-x="1146" 
d="M174 0v-1q-16 1 -28 13t-13 28v1352q1 16 13 28t28 13h113q17 -1 29 -13t12 -28v-543q0 -18 20 -20h451q20 0 20 21v543q1 17 13 29t28 12h113q17 0 29 -12t12 -29v-1352q0 -17 -12 -29t-29 -12h-113q-16 0 -28 12t-13 29v573q0 21 -20 21h-451q-20 0 -20 -21v-573
q0 -17 -12 -29t-29 -12h-113z" />
    <glyph glyph-name="I" unicode="I" horiz-adv-x="460" 
d="M174 0q-16 0 -28 12t-13 29v1352q1 17 13 29t28 12h113q17 0 29 -12t12 -29v-1352q0 -17 -12 -29t-29 -12h-113z" />
    <glyph glyph-name="J" unicode="J" horiz-adv-x="980" 
d="M11 410v28q1 16 13 28t28 13h113q17 0 29 -12t12 -29v-28q0 -100 70 -166t167 -66t165 66t69 187v963q0 16 12 28t29 13h112q16 -1 28 -13t13 -28v-983q0 -191 -124 -309t-306 -118t-304 124h1q-127 125 -127 302z" />
    <glyph glyph-name="K" unicode="K" horiz-adv-x="1021" 
d="M999 48q0 -47 -47 -47h-129q-19 0 -25 4q-7 4 -10 5t-10 11l-434 543q-4 4 -10 4t-6 -9v-518q0 -17 -12 -29t-29 -12h-113v2q-16 0 -28 12t-13 29v1352q1 17 13 29t28 12h113q17 0 29 -12t12 -29v-492q0 -9 6 -9t10 4l397 516q13 21 44 21h113q28 0 40 -26t-4 -48
l-467 -596q-21 -26 -2 -49l524 -639q10 -11 10 -29z" />
    <glyph glyph-name="L" unicode="L" horiz-adv-x="868" 
d="M174 0q-16 0 -28 12t-13 29v1352q1 17 13 29t28 12h113q17 0 29 -12t12 -29v-1178q0 -20 20 -20h459q17 -1 29 -13t12 -28v-113q0 -17 -12 -29t-29 -12h-633z" />
    <glyph glyph-name="M" unicode="M" horiz-adv-x="1437" 
d="M134 41v1352q0 17 12 29t29 12h209q36 0 43 -35l283 -1012q5 -15 11 -10q6 4 8 10l283 1012q7 35 43 35h209q16 0 28 -12t13 -29v-1352q-1 -17 -13 -29t-28 -12h-109q-17 0 -29 12t-12 29v1024q0 9 -7 10t-9 -6l-293 -1034q-12 -35 -43 -35h-86q-31 0 -43 35l-293 1034
q-2 7 -9 6t-7 -10v-1024q0 -17 -12 -29t-29 -12l-137 12q-12 12 -12 29z" />
    <glyph glyph-name="N" unicode="N" horiz-adv-x="1126" 
d="M174 0q-16 0 -28 12t-13 29v1352q1 17 13 29t28 12h170q17 0 26 -7t17 -28l404 -1010q4 -6 10 -5t6 9v1000q0 17 12 29t29 12h104q16 0 28 -12t13 -29v-1352q0 -17 -12 -29t-29 -12h-170q-18 0 -26 6t-17 29l-403 1014q-4 6 -10 5t-7 -10v-1003q0 -17 -12 -29t-28 -12
h-105z" />
    <glyph glyph-name="O" unicode="O" horiz-adv-x="1138" 
d="M285 719q1 -185 15 -296t85 -177t179 -66t181 61q71 61 89 185t18 293q0 171 -16 289t-86 184t-178 65t-183 -61q-74 -60 -89 -176t-15 -301zM562 1452q190 0 317 -116q126 -116 150 -310q14 -104 14 -288q1 -184 -17 -347t-140 -285t-312 -123q-192 0 -317 116t-148 311
q-17 127 -17 308l-2 2q0 190 17 306q21 180 143 303t312 123z" />
    <glyph glyph-name="P" unicode="P" horiz-adv-x="993" 
d="M328 1220v-431q0 -20 20 -20h195q95 -1 165 69t70 166t-69 167q-71 69 -166 69h-195q-20 0 -20 -20zM174 0v1q-16 1 -28 13t-13 28v1352q1 16 13 28t28 13h369q176 0 304 -126q126 -127 126 -305q-1 -178 -127 -304t-303 -127h-195q-20 0 -20 -20v-512q0 -17 -12 -29
t-29 -12h-113z" />
    <glyph glyph-name="Q" unicode="Q" horiz-adv-x="1138" 
d="M286 718q0 -185 14 -296t86 -177t180 -66t180 61q72 60 90 184t17 294q1 170 -15 288t-86 184t-180 66q-108 0 -182 -60t-89 -177q-15 -116 -15 -301zM564 1451q190 0 316 -116t150 -310q14 -105 14 -289t-16 -340t-129 -276q-12 -12 -6 -29l108 -219q9 -23 -1 -40
t-32 -17h-125q-24 0 -41 30l-76 146q-12 18 -49 4q-48 -12 -109 -12q-186 0 -311 116t-148 311q-17 127 -17 308l-1 1q0 190 17 306q21 180 143 303q123 123 313 123z" />
    <glyph glyph-name="R" unicode="R" horiz-adv-x="1064" 
d="M132 42v1352q0 16 12 28t29 13h369q176 0 304 -126q126 -128 126 -304q0 -115 -58 -213t-155 -155q-31 -17 -39 -33t4 -45l242 -498q10 -23 0 -42t-39 -19h-115q-38 0 -59 41l-242 508q-9 24 -38 24h-125q-20 0 -20 -20v-512q0 -17 -12 -29t-29 -12h-113l-1 1
q-17 1 -29 13t-12 28zM328 1219v-431q0 -20 20 -20h195q95 0 165 70t70 165q0 96 -69 167q-71 69 -166 69h-195q-20 0 -20 -20z" />
    <glyph glyph-name="S" unicode="S" horiz-adv-x="1044" 
d="M63 411v32q1 17 13 29t28 12h115q17 0 29 -12t12 -29v-32q0 -103 75 -167t189 -65q114 0 188 66t74 167q0 176 -198 228q-34 8 -46 12t-50 12t-50 12q-156 32 -249 131t-93 266t126 273t300 105q174 0 295 -113t121 -272v-27q0 -17 -12 -29t-29 -12h-113q-16 0 -28 12
t-12 29v27q0 94 -68 142t-164 48t-158 -51t-61 -139q-1 -155 201 -207q20 -5 56 -13t50 -11q379 -94 379 -425q-1 -186 -137 -306t-329 -120t-324 126l2 1q-132 124 -132 300z" />
    <glyph glyph-name="T" unicode="T" horiz-adv-x="868" 
d="M317 1239h-273q-16 1 -28 13t-13 28v113q1 17 13 29t28 12h778q16 0 28 -12t13 -29v-113q0 -16 -12 -28t-29 -13h-270q-18 0 -20 -20v-1178q0 -17 -12 -29t-28 -12h-113q-17 0 -29 12t-12 29v1178q0 20 -21 20z" />
    <glyph glyph-name="U" unicode="U" horiz-adv-x="1142" 
d="M113 409v983q0 16 12 28t29 13h112q16 -1 28 -13t13 -28v-983q1 -118 79 -175t190 -57q112 1 188 67q75 66 75 165v983q0 16 12 28t29 13h112q16 -1 28 -13t13 -28v-983q0 -181 -135 -303t-332 -122t-324 121l2 -1q-131 120 -131 305z" />
    <glyph glyph-name="V" unicode="V" horiz-adv-x="1026" 
d="M53 1434h123q31 0 38 -31l285 -1092q1 -12 12 -12h4q7 0 12 12l285 1092q7 31 39 31h125q26 0 32 -13t7 -22q0 -9 -1 -13l-383 -1355q-11 -31 -39 -31h-160q-31 0 -39 31l-380 1353l-1 10q7 40 41 40z" />
    <glyph glyph-name="W" unicode="W" horiz-adv-x="1472" 
d="M53 1434h111q33 0 39 -31l200 -1051q1 -12 13 -12h4q8 0 12 12l176 1051q6 31 39 31h144q35 0 39 -31l193 -1051q1 -12 12 -12h4q9 0 13 12l219 1051q6 31 39 31h110q42 0 42 -32q0 -5 -1 -9l-291 -1362q-6 -31 -39 -31h-174q-32 0 -38 31l-189 1022q-2 8 -8 8t-9 -8
l-176 -1022q-6 -31 -39 -31h-174q-33 0 -39 31l-273 1361l-1 10q0 32 42 32z" />
    <glyph glyph-name="X" unicode="X" horiz-adv-x="1021" 
d="M100 1434h131q25 0 38 -31l232 -445q7 -20 15 0l232 445q13 31 38 31h132q21 0 32 -18t0 -40l-321 -606q-7 -12 3 -29l352 -684q5 -9 5 -21q-1 -12 -9 -24t-30 -13h-139q-26 0 -40 31l-254 508q-7 20 -15 0l-254 -508q-14 -31 -43 -31h-135q-20 1 -29 15t-9 24l-2 -1
q0 8 5 20l350 684q11 17 3 29l-321 606q-9 22 1 40t32 18z" />
    <glyph glyph-name="Y" unicode="Y" horiz-adv-x="937" 
d="M881 1434q37 0 37 -37q0 -11 -5 -21l-344 -882v-453q0 -17 -12 -29t-29 -12h-114q-16 0 -28 12t-13 29v451l-348 884q-5 12 -5 22t8 23t29 13h136q31 0 38 -31l232 -637q7 -20 15 0l228 637q10 31 39 31h136z" />
    <glyph glyph-name="Z" unicode="Z" horiz-adv-x="983" 
d="M111 0v-1q-17 1 -29 13t-12 28v154q0 17 10 33l602 998q9 20 -12 20h-539q-17 1 -29 13t-12 28v107q0 17 12 29t29 12h721q16 0 28 -12t13 -29v-148q0 -16 -10 -33l-594 -1001q-5 -9 -1 -15t13 -6h571q16 0 28 -12t13 -28v-109q0 -17 -12 -29t-29 -12h-761z" />
    <glyph glyph-name="bracketleft" unicode="[" horiz-adv-x="598" 
d="M184 -184q-16 0 -28 12t-13 29v1577q1 16 13 28t28 13h348q16 -1 28 -13t13 -28v-97q0 -17 -12 -29t-29 -12h-190q-20 0 -20 -20v-1262q0 -20 20 -20h195q17 0 29 -12t12 -29v-96q0 -17 -12 -29t-29 -12h-353z" />
    <glyph glyph-name="backslash" unicode="\" horiz-adv-x="937" 
d="M142 1454h107q29 0 39 -31l544 -1390q8 -23 -2 -41t-31 -17h-107q-32 0 -43 31l-540 1391q-9 23 1 40t32 17z" />
    <glyph glyph-name="bracketright" unicode="]" horiz-adv-x="598" 
d="M20 -143v96q0 17 12 29t29 12h195q20 0 20 20v1262q0 20 -20 20h-190q-16 0 -28 12t-13 29v97q0 16 12 28t29 13h348q16 -1 28 -13t13 -28v-1577q-1 -17 -13 -29t-28 -12h-353q-17 0 -29 12t-12 29z" />
    <glyph glyph-name="asciicircum" unicode="^" horiz-adv-x="1040" 
d="M221 1198q-19 0 -27 16t5 27l221 229q25 25 61 25h86q31 1 41 -7q9 -8 19 -18l221 -229q11 -11 4 -27t-27 -16h-120q-31 0 -64 33l-104 100q-13 13 -29 0l-102 -100q-33 -33 -64 -33h-121z" />
    <glyph glyph-name="underscore" unicode="_" horiz-adv-x="1249" 
d="M41 -113v72q1 17 13 29t28 12h1085q17 0 29 -12t12 -29v-72q0 -17 -12 -29t-29 -12h-1085q-16 0 -28 12t-13 29z" />
    <glyph glyph-name="grave" unicode="`" horiz-adv-x="608" 
d="M131 1495h162q28 -1 36 -11t17 -22l156 -223q9 -9 0 -25t-29 -16h-82q-35 0 -44 8t-17 17l-221 229h-1q-12 10 -4 26t27 17z" />
    <glyph glyph-name="a" unicode="a" horiz-adv-x="997" 
d="M315 753q0 -35 -47 -35h-92q-41 0 -41 41q-1 131 113 208t258 77q375 0 375 -327v-676q-1 -17 -13 -29t-28 -12h-70q-23 0 -38 29t-30 28q-15 0 -41 -16q-97 -61 -200 -61q-181 0 -282 98v1q-91 88 -91 224t90 226t248 90h250q20 0 20 21v78q0 82 -50 123t-128 41
t-140 -31t-63 -98zM426 451q-154 0 -154 -142q0 -77 46 -118t161 -41q234 0 234 215v65q0 21 -21 21h-266z" />
    <glyph glyph-name="b" unicode="b" horiz-adv-x="1034" 
d="M530 166q102 0 166 60t70 145q8 143 0 285q-6 87 -70 146t-166 59t-166 -59t-69 -146q-8 -143 0 -285q5 -87 69 -146t166 -59zM315 1045q0 -51 45 -51q18 0 79 26q62 26 112 25q157 -1 267 -113t120 -266t0 -308t-120 -266t-267 -112q-96 0 -148 34q-6 4 -17 10
q-40 24 -61 23q-21 1 -45 -23t-36 -24h-70l-2 1q-16 1 -28 13t-13 28v1366q1 16 13 28t28 13h102q16 -1 28 -13t13 -28v-363z" />
    <glyph glyph-name="c" unicode="c" horiz-adv-x="978" 
d="M897 328q0 -152 -112 -250t-287 -98t-284 109t-120 265t0 314t120 266q109 109 284 109q175 -1 287 -99t112 -249q1 -17 -9 -29t-26 -12h-110q-15 0 -27 9t-12 24q0 74 -58 123t-156 49q-98 -1 -157 -59t-66 -146q-8 -143 0 -285q6 -89 65 -147t157 -58t155 48
q58 48 58 122q0 35 39 35h106q16 -1 28 -13t13 -28z" />
    <glyph glyph-name="d" unicode="d" horiz-adv-x="1034" 
d="M479 1044q59 0 104 -20t58 -26t33 -5q41 0 41 51v363q0 17 12 29t29 12h102q16 0 28 -12t13 -29v-1366q0 -17 -12 -29t-29 -12h-69q-15 0 -29 15q-14 16 -26 24q-28 22 -93 -19q-64 -40 -161 -40q-156 0 -266 112t-122 277l-1 -1q-9 144 1 298t120 266t267 112zM502 165
q102 0 166 59t69 146q8 142 0 285q-5 87 -69 146t-166 59t-166 -60t-70 -145q-8 -143 0 -285q6 -87 70 -146t166 -59z" />
    <glyph glyph-name="e" unicode="e" horiz-adv-x="1007" 
d="M513 859v-1q-105 0 -170 -64t-65 -159q0 -18 20 -20h426q20 0 20 21q0 103 -66 163t-165 60zM514 1044q184 0 295 -109t111 -300v-141q0 -16 -12 -28t-29 -13h-586q-19 0 -20 -21q-1 -136 63 -202t159 -66t152 36t75 93q10 35 47 35h104q17 0 28 -10t7 -31
q-20 -139 -129 -223t-278 -84t-283 110t-126 279l-1 -1q-9 144 2 300t125 266q112 110 296 110z" />
    <glyph glyph-name="f" unicode="f" horiz-adv-x="700" 
d="M11 870v103q1 17 13 29t28 12h154q20 0 20 20v31q0 161 109 273q110 110 269 110h21q17 0 29 -12t12 -29v-96q0 -17 -12 -29t-29 -12h-21q-80 0 -137 -62t-57 -143v-31q0 -20 20 -20h209q17 0 29 -12t12 -29v-103q0 -16 -12 -28t-29 -13h-209q-20 0 -20 -20v-768
q0 -17 -12 -29t-29 -12h-103q-16 0 -28 12t-13 29v768q0 20 -20 20l-181 13q-12 12 -13 28z" />
    <glyph glyph-name="g" unicode="g" horiz-adv-x="1028" 
d="M715 -16q0 50 -37 48q-26 -2 -82 -27q-57 -25 -116 -25q-157 0 -266 112t-120 266q-10 154 0 308t120 266t266 112q90 0 150 -33q52 -34 76 -34q24 -1 46 23t36 24h69q17 0 29 -12t12 -29v-1044q0 -152 -108 -260t-260 -108t-259 76q-108 76 -120 214q0 35 37 37h99
q31 0 38 -10q15 -23 15 -31q42 -103 184 -103q81 0 136 51t55 134v45zM502 165q102 0 166 59t69 146q8 142 0 285q-5 87 -69 146t-166 59t-166 -60t-70 -145q-8 -143 0 -285q6 -87 70 -146t166 -59z" />
    <glyph glyph-name="h" unicode="h" horiz-adv-x="1052" 
d="M174 0q-16 0 -28 12t-13 29v1366q1 17 13 29t28 12h102q16 0 28 -12t13 -29v-371q1 -16 13 -30t26 -13q14 -1 25 3q10 4 29 12t53 22t88 14q161 0 275 -113t114 -276v-614q0 -17 -12 -29t-29 -12h-102q-17 0 -29 12t-12 29v614q0 83 -62 143q-69 62 -160 62t-154 -57
t-63 -137v-625q0 -17 -12 -29t-29 -12h-102z" />
    <glyph glyph-name="i" unicode="i" horiz-adv-x="471" 
d="M184 0q-16 0 -28 12t-13 29v942q1 17 13 29t28 12h107q17 0 29 -12t12 -29v-942q0 -17 -12 -29t-29 -12h-107zM166 1241q-33 0 -33 33v141q-1 13 9 23t24 10h139q13 0 23 -10t10 -23v-141q0 -33 -33 -33h-139z" />
    <glyph glyph-name="j" unicode="j" horiz-adv-x="509" 
d="M-154 -389v101q0 16 12 28t29 13h107q80 0 132 51t52 134v1044q0 16 12 28t29 13h109q16 -1 28 -13t13 -28v-1044q1 -152 -107 -260t-268 -108h-107q-17 0 -29 12t-12 29zM205 1241q-33 0 -33 33v141q0 13 10 23t23 10h139q14 0 24 -10t9 -23v-141q0 -33 -33 -33h-139z
" />
    <glyph glyph-name="k" unicode="k" horiz-adv-x="899" 
d="M134 41v1366q0 17 12 29t29 12h102q17 0 29 -12t12 -29v-713q0 -8 6 -9t11 5l293 307q1 1 6 7q19 20 45 20h117q31 0 41 -26t-9 -42l-370 -395q-23 -23 0 -49l409 -444q11 -11 11 -23q0 -45 -44 -45h-138q-21 0 -29 7l-15 15l-9 9l-309 336q-4 5 -10 4t-7 -9v-321
q0 -17 -12 -29t-29 -12l-130 12q-12 12 -12 29z" />
    <glyph glyph-name="l" unicode="l" horiz-adv-x="450" 
d="M174 0q-16 0 -28 12t-13 29v1366q1 17 13 29t28 12h102q16 0 28 -12t13 -29v-1366q0 -17 -12 -29t-29 -12h-102z" />
    <glyph glyph-name="m" unicode="m" horiz-adv-x="1574" 
d="M127 42v942q0 16 12 28t29 13h90q15 0 30 -16q15 -15 24 -23t19 -8q11 0 17 1t12 1q4 0 11 4q7 3 10 4q14 5 21 10t25 14q65 33 135 33q70 -1 129 -33t93 -64q22 -18 40 -18t46 25t92 58q62 33 142 33q172 0 267 -107t95 -282v-614q0 -17 -12 -29t-29 -12h-102
q-17 0 -29 12t-12 29v614q0 84 -53 143q-60 62 -146 62q-85 0 -141 -60t-56 -135v-625q0 -16 -12 -28t-29 -13h-101q-16 1 -28 13t-13 28v614q0 84 -54 143q-62 62 -146 62t-140 -60t-56 -135v-625q0 -17 -12 -29t-29 -12h-102l4 1q-16 1 -28 13t-13 28z" />
    <glyph glyph-name="n" unicode="n" 
d="M124 41v942q0 17 12 29t29 12h90q15 0 29 -14q30 -32 44 -33t22 1t16 6t14 6q5 2 46 28q42 26 127 26q173 0 281 -104t108 -285v-614q0 -17 -12 -29t-29 -12h-102q-17 0 -29 12t-12 29v614q0 97 -63 151t-163 54t-162 -52q-63 -52 -63 -142v-625q0 -17 -12 -29t-29 -12
l-130 12q-12 12 -12 29z" />
    <glyph glyph-name="o" unicode="o" horiz-adv-x="1024" 
d="M512 165q102 0 166 59t70 146q8 142 0 285q-6 85 -70 145t-166 60t-166 -60t-70 -145q-8 -143 0 -285q6 -86 70 -146t166 -59zM511 1045q179 -1 293 -111t124 -266q11 -156 0 -312q-10 -156 -124 -266t-293 -110t-293 110t-124 266q-11 156 0 312q10 156 124 266t293 111
z" />
    <glyph glyph-name="p" unicode="p" horiz-adv-x="1028" 
d="M130 -368v1352q0 16 12 28t29 13h70q13 0 27 -15q31 -32 45 -32q13 0 20 2t13 2q6 2 13 6q11 6 25 15q63 42 163 42q157 -1 267 -113t120 -266t0 -308t-120 -266t-267 -112q-49 0 -87 14t-56 22q-93 39 -93 -36v-349q0 -17 -12 -29t-29 -12h-102l3 1q-17 1 -29 13t-12 28
zM526 165q102 -1 166 59t70 146q8 142 0 285q-6 87 -70 146t-166 59t-166 -59t-69 -146q-8 -143 0 -285q5 -87 69 -146t166 -59z" />
    <glyph glyph-name="q" unicode="q" horiz-adv-x="1028" 
d="M502 164q102 0 166 59t70 146q8 142 0 285q-6 87 -70 146t-166 59q-102 1 -166 -59t-69 -146q-8 -143 0 -285q5 -87 69 -146t166 -59zM715 -20q0 51 -45 51q-16 1 -42 -11t-62 -26t-86 -14q-156 0 -266 112t-122 277l1 -1q-9 144 1 298t120 266t267 112q90 0 150 -33
q52 -34 76 -34q25 -1 47 23t35 24h69q16 0 28 -12t13 -29v-1352q0 -17 -12 -29t-29 -12h-102q-16 0 -28 12t-13 29v349z" />
    <glyph glyph-name="r" unicode="r" horiz-adv-x="706" 
d="M164 0v1q-16 1 -28 13t-13 28v942q0 16 12 28t29 13h69q34 0 41 -41q0 -24 8 -44t14 -24t16 -4q16 0 52 30q98 82 250 83h41q17 -1 29 -13t12 -28v-100q0 -16 -12 -28t-29 -13h-41q-136 -1 -222 -77t-85 -234v-491q0 -17 -12 -29t-29 -12h-102z" />
    <glyph glyph-name="s" unicode="s" horiz-adv-x="940" 
d="M468 156q220 0 220 151q0 56 -64 89q-33 15 -155 42q-173 33 -248 81q-122 78 -122 219q0 142 111 224q112 82 264 82t262 -84t110 -223q0 -17 -12 -29t-29 -12h-103q-16 0 -28 12t-12 29q0 57 -47 95t-141 38t-138 -36q-45 -36 -45 -80t33 -77t147 -54q6 -1 32 -6
q27 -5 35 -7t32 -6t36 -8t33 -10q234 -67 234 -279q-1 -157 -117 -242t-286 -85t-278 78l-3 -1q-126 90 -126 250v27q0 16 12 28t28 13h103q16 -1 28 -13t13 -28v-27q0 -81 76 -121q54 -30 145 -30z" />
    <glyph glyph-name="t" unicode="t" horiz-adv-x="737" 
d="M195 829h-145q-16 1 -28 13t-13 28v103q1 17 13 29t28 12h144q20 0 20 20v318q0 16 12 28t29 13h102q17 -1 29 -13t12 -28v-318q0 -20 21 -20h235q16 0 28 -12t13 -29v-103q0 -16 -12 -28t-29 -13h-235q-18 0 -20 -20v-481q0 -74 37 -112t127 -38h113q16 0 28 -12t13 -29
v-96q-1 -17 -13 -29t-28 -12h-113q-348 0 -348 328v481q0 20 -20 20z" />
    <glyph glyph-name="u" unicode="u" 
d="M110 369v614q0 17 12 29t29 12h102q17 0 29 -12t12 -29v-614q0 -93 60 -149t162 -56t166 52t63 142v625q0 17 12 29t28 12h103q16 0 28 -12t13 -29v-942q-1 -17 -13 -29t-28 -12h-90q-17 0 -30 15q-14 16 -26 24q-27 20 -57 1q-31 -20 -40 -26q-52 -34 -144 -34
q-174 0 -280 109l-3 -1q-108 111 -108 281z" />
    <glyph glyph-name="v" unicode="v" horiz-adv-x="962" 
d="M23 992q0 6 8 20t32 13h127q29 0 39 -31l238 -682q4 -10 14 -10t14 10l237 682q10 31 40 31h127q25 1 33 -13t8 -20t-2 -15l-360 -946q-12 -31 -39 -31h-113q-27 0 -39 31l-362 946q-2 9 -2 15z" />
    <glyph glyph-name="w" unicode="w" horiz-adv-x="1368" 
d="M79 1025h116q31 0 38 -31l158 -663q4 -13 13 -13t13 13l180 663q7 31 39 31h106q31 0 38 -31l180 -663q4 -13 13 -13t13 13l158 663q7 31 39 31h116q27 1 33 -13t6 -22t-1 -13l-266 -946q-11 -31 -39 -31h-112q-31 0 -39 31l-187 676q-2 6 -8 6t-9 -6l-187 -676
q-11 -31 -39 -31h-113q-31 0 -39 31l-259 947l-1 10q0 10 8 24t32 13z" />
    <glyph glyph-name="x" unicode="x" horiz-adv-x="946" 
d="M94 0q-44 0 -44 41q0 12 10 25l289 458q8 15 2 27l-256 403q-15 26 -5 48t39 21h115q36 0 45 -20l176 -297q7 -16 15 0l176 297q9 20 44 20h115q29 1 39 -21t-5 -48l-256 -403q-5 -11 2 -27l289 -458q10 -13 10 -25t-4 -19q-10 -22 -39 -22h-119q-36 0 -45 20l-207 349
q-8 17 -15 0l-207 -349q-9 -20 -45 -20h-119z" />
    <glyph glyph-name="y" unicode="y" horiz-adv-x="946" 
d="M13 992q0 8 9 20t32 11h125q29 0 39 -31l252 -665q8 -19 15 0l238 665q10 31 40 31h121q25 0 33 -12q8 -11 8 -19t-2 -16l-521 -1356q-10 -31 -39 -31h-110q-24 0 -35 15t-5 33l152 417q6 18 2 28l-352 894q-2 8 -2 16z" />
    <glyph glyph-name="z" unicode="z" horiz-adv-x="942" 
d="M102 0q-16 0 -28 12t-13 29v121q1 20 5 30t22 33l539 602q6 9 3 15t-14 6h-493q-17 0 -29 12t-12 29v94q0 17 12 29t29 12h696q17 0 29 -12t12 -29v-117q0 -32 -13 -49q-13 -18 -28 -35l-516 -585q-6 -9 -3 -15t13 -6h527q16 0 28 -12t13 -29v-94q-1 -17 -13 -29t-28 -12
h-738z" />
    <glyph glyph-name="braceleft" unicode="{" horiz-adv-x="708" 
d="M367 788q0 -76 -83 -133q27 -17 55 -53t28 -80v-276q1 -114 67 -182t168 -68h45q17 0 29 -12t12 -29v-98q0 -17 -12 -29t-29 -12h-45q-194 0 -307 126t-113 304v276q0 26 -37 41l-22 10q-41 16 -41 41v82q0 27 41 41l22 11q37 16 37 40v256q0 177 114 304t306 127h25
q17 -1 29 -13t12 -28v-99q0 -17 -12 -29t-29 -12h-25q-102 0 -168 -68t-67 -182v-256z" />
    <glyph glyph-name="bar" unicode="|" horiz-adv-x="460" 
d="M184 -143q-16 0 -28 12t-13 29v1536q1 16 13 28t28 13h92q16 -1 28 -13t13 -28v-1536q0 -16 -12 -28t-29 -13h-92z" />
    <glyph glyph-name="braceright" unicode="}" horiz-adv-x="708" 
d="M425 654q-83 51 -83 133v256q0 114 -66 182t-170 68h-24q-16 1 -28 13t-13 28v99q1 17 13 29t28 12h24q194 0 307 -126t113 -305v-256q0 -24 37 -40l23 -11q41 -16 41 -41v-82q0 -22 -41 -40l-23 -10q-37 -16 -37 -41v-276q0 -178 -112 -304t-308 -126h-45q-17 0 -29 12
t-12 29v97q0 16 12 28t29 13h45q104 1 170 69t66 181v276q0 81 83 133z" />
    <glyph glyph-name="asciitilde" unicode="~" horiz-adv-x="1122" 
d="M142 446v103q0 55 54 90t118 35q65 0 117 -9t150 -46q97 -37 216 -37q36 0 73 15q38 15 54 37t38 18q22 -6 21 -36v-102q1 -55 -53 -90t-118 -35t-115 8q-50 8 -151 46t-216 38q-36 0 -74 -15t-53 -38h-1q-16 -21 -38 -16t-22 34z" />
    <glyph glyph-name="uni00A0" unicode="&#xa0;" horiz-adv-x="471" 
 />
    <glyph glyph-name="exclamdown" unicode="&#xa1;" horiz-adv-x="538" 
d="M211 -389q-17 0 -29 12t-12 29v962q0 16 12 28t29 13h115q16 0 28 -12t13 -29v-962q-1 -16 -13 -28t-28 -13h-115zM184 793q-16 0 -28 12t-13 29v170q1 16 13 28t28 12h170q16 0 28 -12t13 -28v-170q0 -16 -12 -28t-29 -13h-170z" />
    <glyph glyph-name="cent" unicode="&#xa2;" horiz-adv-x="978" 
d="M419 1053v73q0 16 12 28t29 13h92q16 0 28 -12t13 -29v-73q0 -15 20 -21q131 -36 207 -124t76 -212q0 -17 -10 -29t-25 -12h-110q-15 0 -27 9t-12 24q0 74 -58 123t-156 49t-157 -58t-66 -147q-8 -143 0 -285q6 -88 65 -146q58 -58 156 -59q98 1 156 49t58 121
q0 35 39 35h106q17 0 29 -12t12 -29q0 -125 -76 -215t-207 -122q-20 -6 -20 -21v-73q-1 -16 -13 -28t-28 -13h-92q-16 0 -28 12t-13 29v71q0 13 -21 20q-136 31 -216 133t-90 247l-1 -2q-9 143 1 286t89 245q80 102 215 134q23 6 23 21z" />
    <glyph glyph-name="sterling" unicode="&#xa3;" horiz-adv-x="1075" 
d="M280 613q0 25 -21 25h-117q-16 0 -28 12t-13 29v104q1 17 13 29t28 12h117q21 0 21 21v260q0 146 101 247t243 101t246 -102q103 -102 103 -246v-21q-1 -16 -13 -28t-28 -13h-111q-17 1 -29 13t-12 28v21q0 66 -44 110t-111 44q-66 0 -109 -44t-43 -110v-260
q0 -18 21 -20h278q16 0 28 -12t13 -29v-104q-1 -16 -13 -28t-28 -13h-278q-21 0 -21 -25v-184q0 -170 -49 -219q-6 -6 -4 -11t12 -5h520q16 -1 28 -13t13 -28v-113q0 -17 -12 -29t-29 -12h-827l1 -1q-18 1 -30 13t-13 28v113q0 17 12 29t29 12h10q62 0 104 63t42 172v184z
" />
    <glyph glyph-name="currency" unicode="&#xa4;" horiz-adv-x="1359" 
d="M239 628q0 132 67 237l-147 150q-11 13 -11 29t11 28l75 76q30 23 58 0l147 -148q109 72 240 72t241 -72l151 150q13 12 29 11t26 -13l76 -76q12 -10 13 -26t-11 -29l-151 -150q69 -111 69 -241t-73 -238l153 -151q23 -27 0 -57l-76 -76q-30 -23 -57 0l-154 152
q-106 -68 -235 -68t-238 68l-153 -154q-13 -12 -29 -11t-27 13l-75 76l1 1q-12 10 -13 26t11 29l153 153q-71 107 -71 239zM679 889q-107 0 -182 -76t-75 -183t75 -182t182 -75t183 75t76 182t-76 183t-183 76z" />
    <glyph glyph-name="yen" unicode="&#xa5;" horiz-adv-x="937" 
d="M56 1434h136q31 0 38 -31l232 -637q8 -20 15 0l228 637q10 31 39 31h136q21 0 32 -18t0 -40l-168 -434q-4 -10 0 -17t15 -7h78q17 0 29 -12t12 -29v-91q0 -16 -12 -28t-29 -13h-156q-14 0 -18 -10l-27 -76q-10 -24 14 -24h187q17 -1 29 -13t12 -28v-88q0 -16 -12 -28
t-29 -13h-248q-19 0 -20 -21v-403q0 -17 -12 -29t-29 -12h-114q-16 0 -28 12t-13 29v403q0 21 -21 21h-252q-16 0 -28 12t-13 29v88q1 16 13 28t28 13h189q24 0 14 24l-27 76q-4 10 -18 10h-158q-16 1 -28 13t-13 28v91q1 17 13 29t28 12h80q10 0 14 7t1 17l-172 434
q-9 22 1 40t32 18z" />
    <glyph glyph-name="brokenbar" unicode="&#xa6;" horiz-adv-x="442" 
d="M174 0q-16 0 -28 12t-13 29v547q1 16 13 28t28 13h94q16 -1 28 -13t13 -28v-547q0 -17 -12 -29t-29 -12h-94zM174 819q-16 1 -28 13t-13 28v547q1 17 13 29t28 12h94q16 0 28 -12t13 -29v-547q0 -16 -12 -28t-29 -13h-94z" />
    <glyph glyph-name="section" unicode="&#xa7;" horiz-adv-x="1085" 
d="M564 1256q-162 0 -163 -146q0 -76 68 -132l387 -332q77 -66 103 -128t26 -144q0 -150 -141 -262q-24 -18 -2 -48q55 -68 55 -178q-1 -146 -111 -234t-262 -88t-254 87q-104 87 -104 250v59q0 16 12 28t29 13h110q17 -1 29 -13t12 -28v-59q0 -76 46 -114t126 -38
q160 0 160 135q0 40 -19 70t-57 63l-352 303q-94 83 -127 158q-29 44 -29 150q0 137 151 250q28 18 4 48q-65 89 -65 190q0 154 111 242t261 88t250 -94q102 -94 102 -247v-37q0 -16 -12 -28t-29 -13h-111q-16 1 -28 13t-13 28v37q-1 67 -45 109t-118 42zM300 618
q0 -69 64 -123l307 -258q17 -20 42 0q84 68 84 138t-62 121l-309 266q-19 16 -41 0h-1q-84 -75 -84 -144z" />
    <glyph glyph-name="dieresis" unicode="&#xa8;" horiz-adv-x="815" 
d="M164 1241q-33 0 -33 33v141q-1 13 9 23t24 10h139q13 0 23 -10t10 -23v-141q0 -33 -33 -33h-139zM514 1241q-33 0 -33 33v141q-1 13 9 23t24 10h139q13 0 23 -10t10 -23v-141q0 -33 -33 -33h-139z" />
    <glyph glyph-name="copyright" unicode="&#xa9;" horiz-adv-x="1597" 
d="M791 1143q142 0 233 -80t91 -203q0 -33 -27 -33h-110q-33 0 -33 25q0 121 -151 121t-163 -146q-5 -116 0 -233q6 -71 44 -108t120 -37q147 0 147 118q0 27 33 27h106q33 0 33 -33q0 -123 -91 -203t-233 -79t-228 89t-99 226v1q-9 117 2 243t97 216t229 89zM798 1270
q-230 0 -391 -162t-161 -392t161 -391t391 -161t392 161t162 391t-162 392t-392 162zM82 717q0 145 56 276t154 231q99 100 230 154q130 56 276 56t277 -56t231 -154q98 -100 154 -231t56 -276t-56 -277t-154 -230q-100 -98 -231 -154t-276 -56t-277 56t-230 154t-154 230
t-56 277z" />
    <glyph glyph-name="ordfeminine" unicode="&#xaa;" horiz-adv-x="641" 
d="M299 918h-2q-93 0 -145 47t-52 116t46 119t133 51h125q10 0 10 11v18q0 34 -21 48t-63 13q-88 0 -88 -38q0 -17 -23 -17h-76q-20 0 -20 21q1 67 61 105t144 38t148 -48t63 -136v-318q0 -20 -21 -20h-55q-11 0 -16 9t-8 14t-10 5t-41 -19t-89 -19zM301 1143
q-76 -1 -76 -57t90 -56q45 0 77 22t32 62v19q0 10 -10 10h-113z" />
    <glyph glyph-name="guillemotleft" unicode="&#xab;" horiz-adv-x="1007" 
d="M363 923h93q31 -1 41 -19t-9 -49l-174 -297q-17 -23 0 -49l174 -297q18 -32 8 -50t-40 -18h-93q-37 0 -51 31l-196 330v1q-18 29 1 56l196 330q14 31 50 31zM727 922h92q31 0 41 -18t-8 -50l-174 -297q-17 -23 0 -49l174 -297q18 -31 8 -49t-41 -19h-92q-37 0 -51 31
l-197 330l1 1q-17 28 0 56l197 330q14 31 50 31z" />
    <glyph glyph-name="logicalnot" unicode="&#xac;" horiz-adv-x="1085" 
d="M143 430q-17 0 -29 12t-12 29v102q0 17 12 29t29 12h799q16 0 28 -12t13 -29v-348q-1 -17 -13 -29t-28 -12h-102q-16 0 -28 12t-13 29v185q0 20 -21 20h-635z" />
    <glyph glyph-name="uni00AD" unicode="&#xad;" horiz-adv-x="927" 
d="M184 436q-16 0 -28 12t-13 29v139q1 16 13 28t28 13h559q17 0 29 -12t12 -29v-139q0 -17 -12 -29t-29 -12h-559z" />
    <glyph glyph-name="registered" unicode="&#xae;" horiz-adv-x="1597" 
d="M575 299q-13 -1 -23 9t-9 24v772q0 14 10 24t22 9h275q112 0 192 -80q79 -82 79 -191q0 -73 -37 -136t-108 -103q-23 -13 -25 -22q-1 -9 8 -21l138 -236q11 -18 2 -34t-34 -15h-90q-19 0 -27 7t-20 26l-140 239q-8 21 -30 21h-43q-16 0 -17 -17v-243q0 -33 -32 -33h-91z
M698 764q0 -16 17 -16h135q47 0 82 34t35 82q0 47 -35 82t-82 35h-135q-16 0 -17 -16v-201zM798 1270q-230 0 -391 -162t-161 -392t161 -391t391 -161t392 161t162 391t-162 392t-392 162zM82 717q0 145 56 276t154 231q99 100 230 154q130 56 276 56t277 -56t231 -154
q98 -100 154 -231t56 -276t-56 -277t-154 -230q-100 -98 -231 -154t-276 -56t-277 56t-230 154t-154 230t-56 277z" />
    <glyph glyph-name="macron" unicode="&#xaf;" horiz-adv-x="823" 
d="M164 1262q-16 0 -28 12t-13 29v77q0 16 12 28t29 13h495q17 0 29 -12t12 -29v-77q0 -17 -12 -29t-29 -12h-495z" />
    <glyph glyph-name="degree" unicode="&#xb0;" horiz-adv-x="757" 
d="M378 1337q-57 0 -98 -41t-41 -98t41 -98t98 -41t98 41t41 98t-41 98t-98 41zM73 1198q-1 126 89 214t216 88t215 -88q88 -88 88 -214q1 -126 -87 -216t-215 -89q-127 0 -216 89h-1q-89 89 -89 216z" />
    <glyph glyph-name="plusminus" unicode="&#xb1;" horiz-adv-x="1105" 
d="M149 -1q-17 1 -29 13t-12 28v106q0 16 12 28t29 13h806q17 0 29 -12t12 -29v-106q0 -16 -12 -28t-29 -13h-806zM101 802v106q1 16 13 28t28 13h295q21 0 21 21v295q0 17 12 29t29 12h106q17 0 29 -12t12 -29v-295q0 -18 21 -20h295q16 0 28 -12t13 -29v-106
q-1 -17 -13 -29t-28 -12h-295q-19 0 -20 -21v-295q0 -16 -12 -28t-29 -12h-106q-16 0 -28 12t-13 28v295q0 21 -21 21h-295l-1 -1q-16 0 -28 12t-13 29z" />
    <glyph glyph-name="uni00B2" unicode="&#xb2;" horiz-adv-x="552" 
d="M481 709h-412q-18 0 -20 20v135q0 17 8 25l275 285q20 20 20 48t-18 48q-18 18 -49 18q-80 0 -80 -67v-19q0 -20 -21 -20h-108q-18 0 -20 20v17q0 95 68 157t158 62t157 -63q64 -63 64 -147t-60 -149l-192 -198q-5 -3 -3 -13t14 -10h219q21 0 21 -20v-109q0 -20 -21 -20z
" />
    <glyph glyph-name="uni00B3" unicode="&#xb3;" horiz-adv-x="557" 
d="M192 924q0 -78 82 -78t81 76q0 76 -82 77h-12q-20 0 -20 21v106q0 21 20 21h12q33 0 53 19t21 52q0 34 -20 52q-19 18 -53 18t-54 -18t-20 -51v-17q0 -20 -21 -20h-108q-18 0 -20 20v17q-1 91 65 155t157 64t158 -64t67 -147t-54 -142q-10 -11 10 -25t36 -54t16 -82
q0 -94 -68 -161t-164 -67t-162 66h-1q-69 67 -69 162v12q0 20 20 20h109q21 0 21 -20v-12z" />
    <glyph glyph-name="acute" unicode="&#xb4;" horiz-adv-x="608" 
d="M217 1198h-83q-18 0 -28 16t-1 25l156 223q1 1 5 7q4 5 8 9l6 6t7 4q12 8 27 7h162q19 -1 27 -17t-3 -26l-221 -229q-25 -25 -62 -25z" />
    <glyph glyph-name="uni00B5" unicode="&#xb5;" horiz-adv-x="1069" 
d="M266 -410h-99q-17 0 -29 12t-12 29v1352q0 17 12 29t29 12h102q17 0 29 -12t12 -29v-614q0 -89 64 -147t162 -58t162 52q63 52 63 142v625q0 17 12 29t29 12h102q16 0 28 -12t13 -29v-942q0 -17 -12 -29t-29 -12h-90q-16 0 -30 14q-16 16 -26 24q-29 20 -59 1t-39 -25
q-52 -34 -134 -34t-170 60q-14 12 -32 4t-17 -32v-381q0 -17 -12 -29t-29 -12z" />
    <glyph glyph-name="paragraph" unicode="&#xb6;" horiz-adv-x="1126" 
d="M101 1086q0 142 103 245t246 103h491q17 0 29 -12t12 -29v-1557q0 -16 -12 -28t-29 -13h-82q-17 1 -29 13t-12 28v1424q0 20 -20 20h-164q-18 0 -20 -20v-1424q0 -16 -12 -28t-29 -13h-81q-16 1 -28 13t-13 28v881q0 20 -21 20q-131 0 -231 105h-1q-97 102 -97 244z" />
    <glyph glyph-name="periodcentered" unicode="&#xb7;" horiz-adv-x="890" 
d="M287 358q-17 0 -29 12t-12 29v287q0 16 12 28t29 13h286q17 -1 29 -13t12 -28v-287q0 -17 -12 -29t-29 -12h-286z" />
    <glyph glyph-name="cedilla" unicode="&#xb8;" horiz-adv-x="1024" 
d="M543 -410h-130q-19 0 -29 11t-5 26l78 248q8 33 39 33h108q18 0 28 -11t6 -26l-57 -248q-7 -33 -38 -33z" />
    <glyph glyph-name="uni00B9" unicode="&#xb9;" horiz-adv-x="464" 
d="M9 1063v115q0 28 17 47l153 172q24 28 62 28h129q20 0 20 -20v-676q0 -20 -20 -20h-117q-18 0 -20 20v471q0 9 -8 12t-12 -2l-164 -168h-1q-10 -10 -24 -4t-15 25z" />
    <glyph glyph-name="ordmasculine" unicode="&#xba;" horiz-adv-x="675" 
d="M340 1040q44 0 75 23q57 44 39 170q-18 94 -114 94t-114 -94h2q-18 -125 38 -169q30 -24 74 -24zM338 1458q88 0 156 -60t80 -162q7 -60 -1 -106q-13 -102 -81 -160t-154 -59q-86 0 -151 57q-74 60 -85 162h1q-7 51 0 106q11 102 79 162t156 60z" />
    <glyph glyph-name="guillemotright" unicode="&#xbb;" horiz-adv-x="1007" 
d="M188 141v-2q-30 -1 -40 17t7 51l174 297q16 28 0 50l-174 297q-17 33 -7 51t40 17h93q37 0 51 -31l196 -330q18 -29 -1 -56l-196 -330q-14 -31 -50 -31h-93zM553 143v-2q-30 -1 -40 17t7 51l174 297q16 28 0 50l-174 297q-17 33 -7 51t40 17h92q37 0 51 -31l197 -330
q17 -28 0 -56l-197 -330q-14 -31 -51 -31h-92z" />
    <glyph glyph-name="onequarter" unicode="&#xbc;" horiz-adv-x="1308" 
d="M885 259h151q11 0 11 10v240q1 4 -3 5t-6 -3l-157 -244q-8 -8 4 -8zM750 133v-1q-18 0 -20 21v86q0 9 16 39l285 423q8 15 22 15h104q21 0 21 -21v-426q0 -10 10 -10h49q20 0 20 -20v-86q0 -18 -20 -20h-49q-10 0 -10 -10v-103q0 -20 -21 -20h-90q-20 0 -20 20v103
q0 10 -11 10h-286zM190 0q-22 0 -34 18t2 39l874 1346q18 31 45 31h78q22 0 34 -18t-1 -40l-873 -1345q-19 -31 -43 -31h-82zM92 1102v119q0 31 21 43l176 161q11 11 20 11h105q20 0 20 -21v-676q0 -20 -20 -20h-97q-20 0 -20 20v506q0 4 -3 6t-5 -2l-174 -155q-7 -6 -15 -3
t-8 11z" />
    <glyph glyph-name="onehalf" unicode="&#xbd;" horiz-adv-x="1351" 
d="M827 109q0 15 11 26l241 250q66 66 66 134q1 39 -25 61t-58 22t-56 -20q-26 -20 -26 -58v-24q0 -18 -20 -20h-95q-20 0 -20 21v35q-1 80 65 138t150 58t151 -57q67 -60 67 -133t-23 -120t-75 -107l-154 -168q-4 -4 -2 -10t11 -6h236q20 0 20 -20v-91q0 -20 -20 -20h-422
l-2 -2q-18 0 -20 20v91zM1077 1434h78q22 0 34 -18t-1 -40l-873 -1345q-19 -31 -43 -31l-114 18q-12 18 0 39l874 1346q18 31 45 31zM92 1102v119q0 31 21 43l176 161q11 11 20 11h105q20 0 20 -21v-676q0 -20 -20 -20h-97q-20 0 -20 20v506q0 4 -3 6t-5 -2l-174 -155
q-7 -6 -15 -3t-8 11z" />
    <glyph glyph-name="threequarters" unicode="&#xbe;" horiz-adv-x="1329" 
d="M881 259h151q11 0 11 10v240q1 4 -3 5t-6 -3l-157 -244q-8 -8 4 -8zM746 133v-1q-18 0 -20 21v86q0 9 16 39l285 423q8 15 22 15h104q21 0 21 -21v-426q0 -10 10 -10h49q20 0 20 -20v-86q0 -18 -20 -20h-49q-10 0 -10 -10v-103q0 -20 -21 -20h-90q-20 0 -20 20v103
q0 10 -11 10h-286zM277 1158q79 0 79 96q0 30 -23 53t-57 23t-60 -22t-25 -54v-34q0 -19 -21 -20h-96q-18 0 -20 21v34q0 81 68 139t154 58t153 -58q68 -58 68 -146q0 -90 -66 -140q-11 -10 0 -20q36 -26 59 -69t23 -89q0 -91 -62 -157q-61 -66 -165 -66t-171 61h-4
q-74 66 -74 151v26q0 21 20 21h99q20 0 20 -21v-26q0 -36 30 -58t72 -22t68 27t25 66q1 39 -23 69t-71 30h-13q-20 0 -20 21v86q0 20 20 20h13zM190 0q-22 0 -34 18t2 39l874 1346q18 31 45 31h78q22 0 34 -18t-1 -40l-873 -1345q-19 -31 -43 -31h-82z" />
    <glyph glyph-name="questiondown" unicode="&#xbf;" horiz-adv-x="952" 
d="M89 -16q0 108 45 184t137 145q69 47 87 64q42 40 42 92v143q0 16 12 28t29 13h105q16 0 28 -12t13 -29v-172q0 -82 -38 -126t-95 -84t-91 -69q-84 -84 -84 -174q1 -89 53 -149t140 -60t144 64q58 64 58 144v30q0 16 12 28t29 13h104q17 0 29 -12t12 -29v-30
q0 -166 -110 -281t-276 -115q-164 0 -271 110l-3 -2q-111 114 -111 286zM410 793q-16 0 -28 12t-13 29v170q0 16 12 28t29 12h170q16 0 28 -12t13 -28v-170q-1 -16 -13 -28t-28 -13h-170z" />
    <glyph glyph-name="Agrave" unicode="&#xc0;" horiz-adv-x="999" 
d="M432 1434h143q33 0 39 -31l381 -1362q4 -17 -7 -29t-35 -12h-112q-29 0 -40 31l-90 313q-6 29 -39 29h-340q-30 0 -40 -29l-90 -313q-11 -31 -39 -31l-144 12q-11 12 -7 29l381 1362q6 31 39 31zM374 563h254q24 0 16 23l-133 571q-5 12 -9 12h-4q-4 0 -9 -12l-132 -571
q-6 -23 17 -23zM281 1833h161q18 -1 26 -7t12 -8t9 -10q5 -6 7 -8l155 -223q9 -9 0 -25t-28 -16h-82q-39 0 -62 25l-221 229q-11 10 -4 26t27 17z" />
    <glyph glyph-name="Aacute" unicode="&#xc1;" horiz-adv-x="999" 
d="M431 1434h143q33 0 39 -31l381 -1362q4 -17 -7 -29t-35 -12h-112q-29 0 -40 31l-90 313q-6 29 -39 29h-340q-30 0 -40 -29l-90 -313q-11 -31 -39 -31l-144 12q-11 12 -7 29l381 1362q6 31 39 31zM373 563h254q24 0 16 23l-133 571q-4 12 -9 12h-4q-5 0 -9 -12l-132 -571
q-6 -23 17 -23zM473 1536h-83q-18 0 -28 16t-1 25l156 223q1 1 5 7q4 5 8 9l6 6t7 4q12 8 27 7h162q19 -1 27 -17t-3 -26l-221 -229q-25 -25 -62 -25z" />
    <glyph glyph-name="Acircumflex" unicode="&#xc2;" horiz-adv-x="999" 
d="M435 1434h143q33 0 39 -31l381 -1362q4 -17 -7 -29t-35 -12h-112q-29 0 -40 31l-90 313q-6 29 -39 29h-340q-30 0 -40 -29l-90 -313q-11 -31 -39 -31l-144 12q-11 12 -7 29l381 1362q6 31 39 31zM377 563h254q24 0 16 23l-133 571q-4 12 -9 12h-4q-5 0 -9 -12l-132 -571
q-6 -23 17 -23zM461 1835h86q32 0 41 -8t17 -17l221 -229q12 -11 4 -27t-27 -16h-121q-31 0 -64 33l-104 100q-13 13 -29 0l-102 -100q-33 -33 -64 -33l-144 16q-8 16 3 27l221 229q25 25 62 25z" />
    <glyph glyph-name="Atilde" unicode="&#xc3;" horiz-adv-x="999" 
d="M432 1435h143q33 0 39 -31l381 -1362q4 -16 -7 -28t-35 -13h-112q-29 0 -40 31l-90 313q-6 29 -39 29h-340q-30 0 -40 -29l-90 -313q-11 -31 -39 -31l-144 13q-11 12 -7 28l381 1362q6 31 39 31zM374 564h254q24 0 16 23l-133 571q-5 12 -9 12h-4q-4 0 -9 -12l-132 -571
q-6 -23 17 -23zM211 1586v82q1 42 43 74t102 31q60 0 140 -26t144 -26t98 43q12 18 32 8t19 -37v-82q0 -41 -42 -73q-41 -32 -103 -32t-140 26t-143 25q-64 0 -99 -43v1q-12 -15 -32 -7t-19 36z" />
    <glyph glyph-name="Adieresis" unicode="&#xc4;" horiz-adv-x="999" 
d="M432 1434h143q33 0 39 -31l381 -1362q4 -17 -7 -29t-35 -12h-112q-29 0 -40 31l-90 313q-6 29 -39 29h-340q-30 0 -40 -29l-90 -313q-11 -31 -39 -31l-144 12q-11 12 -7 29l381 1362q6 31 39 31zM374 563h254q24 0 16 23l-133 571q-5 12 -9 12h-4q-4 0 -9 -12l-132 -571
q-6 -23 17 -23zM254 1536q-33 0 -33 33v141q-1 13 9 23t24 10h139q13 0 23 -10t10 -23v-141q0 -33 -33 -33h-139zM604 1536q-33 0 -33 33v141q-1 13 9 23t24 10h139q13 0 23 -10t10 -23v-141q0 -33 -33 -33h-139z" />
    <glyph glyph-name="Aring" unicode="&#xc5;" horiz-adv-x="999" 
d="M432 1434h143q33 0 39 -31l381 -1362q4 -17 -7 -29t-35 -12h-112q-29 0 -40 31l-90 313q-6 29 -39 29h-340q-30 0 -40 -29l-90 -313q-11 -31 -39 -31l-144 12q-11 12 -7 29l381 1362q6 31 39 31zM374 563h254q24 0 16 23l-133 571q-5 12 -9 12h-4q-4 0 -9 -12l-132 -571
q-6 -23 17 -23zM500 1802q-34 0 -58 -24t-24 -58t24 -58t58 -24t58 24t24 58t-24 58t-58 24zM500 1495q-94 1 -160 65t-66 159t66 161t160 66t160 -66q65 -68 65 -161q1 -93 -65 -159t-160 -65z" />
    <glyph glyph-name="AE" unicode="&#xc6;" horiz-adv-x="1480" 
d="M454 1433h901q17 -1 29 -13t12 -28v-113q0 -17 -12 -29t-29 -12h-488q-20 0 -20 -20v-369q0 -18 20 -20h465q16 0 28 -12t13 -29v-112q0 -16 -12 -28t-29 -13h-465q-20 0 -20 -21v-399q0 -20 20 -20h492q17 -1 29 -13t12 -28v-113q0 -17 -12 -29t-29 -12h-666
q-17 0 -29 12t-12 29v299q0 33 -39 33h-282q-33 0 -39 -29l-90 -313q-6 -31 -39 -31h-113l2 -1q-24 1 -35 13t-7 28l375 1339q5 19 23 37t46 17zM374 563h258q20 0 20 23v633q0 20 -20 20h-88q-20 0 -28 -20l-159 -633q-6 -23 17 -23z" />
    <glyph glyph-name="Ccedilla" unicode="&#xc7;" horiz-adv-x="1112" 
d="M548 -411h-130q-18 0 -28 11t-6 26l78 248q8 33 39 33h108q19 0 29 -11t5 -26l-57 -248q-7 -33 -38 -33zM568 1449q196 -1 328 -119t133 -307v-29q0 -16 -12 -28t-29 -13h-112q-16 1 -28 13t-13 28v29q-1 95 -75 163t-185 68t-185 -60t-89 -177q-15 -116 -15 -301
t14 -296t86 -177q70 -66 180 -66t190 61t79 171v28q0 17 12 29t29 12h112q16 0 28 -12t13 -29v-28q0 -176 -131 -301q-132 -125 -324 -125t-317 116t-148 311q-17 127 -17 308l-1 -1q0 190 17 306q21 180 143 303q121 123 317 123z" />
    <glyph glyph-name="Egrave" unicode="&#xc8;" horiz-adv-x="962" 
d="M174 0v-1q-16 1 -28 13t-13 28v1352q1 16 13 28t28 13h662q16 -1 28 -13t13 -28v-113q-1 -17 -13 -29t-28 -12h-488q-20 0 -20 -20v-369q0 -18 20 -20h465q17 0 29 -12t12 -29v-112q0 -16 -12 -28t-29 -13h-465q-20 0 -20 -21v-399q0 -20 20 -20h492q16 -1 28 -13t13 -28
v-113q-1 -17 -13 -29t-28 -12h-666zM246 1833h162q23 0 27 -4t26 -29l155 -223q9 -9 0 -25t-28 -16h-82q-33 0 -42 8q-10 8 -20 17l-221 229q-11 10 -4 26t27 17z" />
    <glyph glyph-name="Eacute" unicode="&#xc9;" horiz-adv-x="962" 
d="M173 0v-1q-17 1 -29 13t-12 28v1352q0 16 12 28t29 13h662q17 -1 29 -13t12 -28v-113q0 -17 -12 -29t-29 -12h-488q-20 0 -20 -20v-369q0 -18 20 -20h465q16 0 28 -12t13 -29v-112q-1 -16 -13 -28t-28 -13h-465q-20 0 -20 -21v-399q0 -20 20 -20h492q17 -1 29 -13t12 -28
v-113q0 -17 -12 -29t-29 -12h-666zM483 1536h-83q-19 0 -28 16t0 25l155 223q0 6 7 11l12 10q13 12 35 12h161q19 -1 27 -17t-3 -26l-221 -229q-25 -25 -62 -25z" />
    <glyph glyph-name="Ecircumflex" unicode="&#xca;" horiz-adv-x="962" 
d="M176 0v-1q-16 1 -28 13t-13 28v1352q1 16 13 28t28 13h662q16 -1 28 -13t13 -28v-113q-1 -17 -13 -29t-28 -12h-488q-20 0 -20 -20v-369q0 -18 20 -20h465q17 0 29 -12t12 -29v-112q0 -16 -12 -28t-29 -13h-465q-20 0 -20 -21v-399q0 -20 20 -20h492q16 -1 28 -13t13 -28
v-113q-1 -17 -13 -29t-28 -12h-666zM464 1833h86q32 0 41 -8t17 -17l221 -229q11 -11 3 -27t-26 -16h-121q-30 0 -63 33l-105 100q-13 13 -29 0l-102 -100q-33 -33 -62 -33l-146 16q-8 16 3 27l221 229q25 25 62 25z" />
    <glyph glyph-name="Edieresis" unicode="&#xcb;" horiz-adv-x="962" 
d="M174 0v-1q-16 1 -28 13t-13 28v1352q1 16 13 28t28 13h662q16 -1 28 -13t13 -28v-113q-1 -17 -13 -29t-28 -12h-488q-20 0 -20 -20v-369q0 -18 20 -20h465q17 0 29 -12t12 -29v-112q0 -16 -12 -28t-29 -13h-465q-20 0 -20 -21v-399q0 -20 20 -20h492q16 -1 28 -13t13 -28
v-113q-1 -17 -13 -29t-28 -12h-666zM252 1536q-33 0 -33 33v141q-1 13 9 23t24 10h139q13 0 23 -10t10 -23v-141q0 -33 -33 -33h-139zM602 1536q-33 0 -33 33v141q-1 13 9 23t24 10h139q13 0 23 -10t10 -23v-141q0 -33 -33 -33h-139z" />
    <glyph glyph-name="Igrave" unicode="&#xcc;" horiz-adv-x="460" 
d="M173 0q-17 0 -29 12t-12 29v1352q0 17 12 29t29 12h113q16 0 28 -12t13 -29v-1352q-1 -17 -13 -29t-28 -12h-113zM4 1833h162q23 0 27 -4t26 -29l156 -223q9 -9 0 -25t-29 -16h-82q-35 0 -44 8t-17 17l-221 229h-1q-11 10 -3 26t26 17z" />
    <glyph glyph-name="Iacute" unicode="&#xcd;" horiz-adv-x="460" 
d="M173 0q-17 0 -29 12t-12 29v1352q0 17 12 29t29 12h113q16 0 28 -12t13 -29v-1352q-1 -17 -13 -29t-28 -12h-113zM225 1536h-83q-18 0 -28 16t0 25l155 223q0 6 7 11l12 10q13 12 35 12h161q19 -1 27 -17t-3 -26l-221 -229q-25 -25 -62 -25z" />
    <glyph glyph-name="Icircumflex" unicode="&#xce;" horiz-adv-x="460" 
d="M176 0q-16 0 -28 12t-13 29v1352q1 17 13 29t28 12h113q17 0 29 -12t12 -29v-1352q0 -17 -12 -29t-29 -12h-113zM189 1833h86q31 0 41 -8t18 -17l221 -229q11 -11 4 -27t-27 -16h-120q-31 0 -64 33l-104 100q-13 13 -29 0l-102 -100q-33 -33 -64 -33l-145 16q-8 16 3 27
l221 229q25 25 61 25z" />
    <glyph glyph-name="Idieresis" unicode="&#xcf;" horiz-adv-x="460" 
d="M174 0q-16 0 -28 12t-13 29v1352q1 17 13 29t28 12h113q17 0 29 -12t12 -29v-1352q0 -17 -12 -29t-29 -12h-113zM-14 1536q-33 0 -33 33v141q-1 13 9 23t24 10h139q13 0 23 -10t10 -23v-141q0 -33 -33 -33h-139zM336 1536q-33 0 -33 33v141q-1 13 9 23t24 10h139
q13 0 23 -10t10 -23v-141q0 -33 -33 -33h-139z" />
    <glyph glyph-name="Eth" unicode="&#xd0;" horiz-adv-x="1101" 
d="M328 614v-399q0 -20 20 -20h215q92 0 158 69q66 70 79 170t13 282q1 182 -13 284t-80 170t-157 68h-215q-20 0 -20 -20v-369q0 -18 20 -20h205q17 0 29 -12t12 -29v-112q0 -16 -12 -28t-29 -13h-205q-20 0 -20 -21zM47 635q-17 0 -29 12t-12 29v112q0 16 12 28t29 13h66
q20 0 20 21v543q1 17 13 29t28 12h389q173 0 291 -126t139 -304q15 -112 15 -265t-18 -323t-136 -293t-291 -123h-389q-16 0 -28 12t-13 29v573q0 21 -20 21h-66z" />
    <glyph glyph-name="Ntilde" unicode="&#xd1;" horiz-adv-x="1126" 
d="M174 1q-16 1 -28 13t-13 28v1352q1 16 13 28t28 13h170q17 0 26 -7t17 -28l404 -1010q4 -6 10 -5t6 9v1000q0 16 12 28t29 13h104q16 -1 28 -13t13 -28v-1352q0 -16 -12 -28t-29 -13h-170q-18 1 -26 7t-17 28l-403 1014q-4 6 -10 5t-7 -10v-1003q0 -16 -12 -28t-28 -13
h-105zM272 1586v82q0 42 42 74t103 31q60 0 142 -26q81 -26 143 -26t97 43q11 18 31 8t20 -37v-82q0 -41 -42 -73t-104 -32t-140 26t-143 25q-65 0 -97 -43v1q-12 -15 -32 -7t-20 36z" />
    <glyph glyph-name="Ograve" unicode="&#xd2;" horiz-adv-x="1138" 
d="M284 719q0 -185 14 -296t86 -177t180 -66t180 61t90 185t17 293q1 171 -15 289t-86 184t-180 65q-108 -1 -182 -61t-89 -176t-15 -301zM562 1452q190 0 316 -116t150 -310q14 -104 14 -288t-18 -347t-138 -285q-122 -122 -314 -123q-192 0 -316 116q-125 116 -148 311
q-17 127 -17 308l-2 2q0 190 17 306q21 180 143 303q123 123 313 123zM313 1833h162q23 -1 34 -11t19 -22l156 -223q9 -9 0 -25t-29 -16h-82q-35 0 -44 8t-17 17l-221 229h-1q-12 10 -4 26t27 17z" />
    <glyph glyph-name="Oacute" unicode="&#xd3;" horiz-adv-x="1138" 
d="M284 719q0 -185 14 -296t86 -177t180 -66t180 61t90 185t17 293q1 171 -15 289t-86 184t-180 65q-108 -1 -182 -61t-89 -176t-15 -301zM562 1452q190 0 316 -116t150 -310q14 -104 14 -288t-18 -347t-138 -285q-122 -122 -314 -123q-192 0 -316 116q-125 116 -148 311
q-17 127 -17 308l-2 2q0 190 17 306q21 180 143 303q123 123 313 123zM563 1536h-83q-18 0 -28 16t0 25l155 223q0 6 7 11l12 10q13 12 35 12h161q19 -1 27 -17t-3 -26l-221 -229q-25 -25 -62 -25z" />
    <glyph glyph-name="Ocircumflex" unicode="&#xd4;" horiz-adv-x="1138" 
d="M287 719q1 -185 15 -296t85 -177t179 -66t181 61q71 61 89 185t18 293q0 171 -16 289t-86 184t-178 65t-183 -61q-74 -60 -89 -176t-15 -301zM564 1452q190 0 317 -116q126 -116 150 -310q14 -104 14 -288q1 -184 -17 -347t-140 -285t-312 -123q-192 0 -317 116t-148 311
q-17 127 -17 308l-2 2q0 190 17 306q21 180 143 303t312 123zM529 1833h86q31 0 41 -8t18 -17l221 -229q11 -11 4 -27t-27 -16h-120q-31 0 -64 33l-104 100q-13 13 -29 0l-102 -100q-33 -33 -64 -33l-145 16q-8 16 3 27l221 229q25 25 61 25z" />
    <glyph glyph-name="Otilde" unicode="&#xd5;" horiz-adv-x="1138" 
d="M284 720q0 -185 14 -296t86 -177t180 -66t180 61q72 60 90 184t17 294q1 170 -15 288t-86 184t-180 66q-108 0 -182 -60t-89 -177q-15 -116 -15 -301zM562 1453q190 0 316 -116t150 -310q14 -105 14 -289t-18 -346t-138 -286q-122 -122 -314 -122t-316 116
q-125 116 -148 311q-17 127 -17 308l-2 2q0 190 17 306q21 180 143 303q123 123 313 123zM280 1586v82q0 42 42 74t103 31q60 0 140 -26q81 -26 145 -26t97 43q11 18 31 8t20 -37v-82q0 -41 -42 -73t-104 -32t-140 26t-143 25q-65 0 -97 -43l-1 1q-11 -15 -31 -7t-20 36z
" />
    <glyph glyph-name="Odieresis" unicode="&#xd6;" horiz-adv-x="1138" 
d="M285 719q1 -185 15 -296t85 -177t179 -66t181 61q71 61 89 185t18 293q0 171 -16 289t-86 184t-178 65t-183 -61q-74 -60 -89 -176t-15 -301zM562 1452q190 0 317 -116q126 -116 150 -310q14 -104 14 -288q1 -184 -17 -347t-140 -285t-312 -123q-192 0 -317 116t-148 311
q-17 127 -17 308l-2 2q0 190 17 306q21 180 143 303t312 123zM324 1536q-33 0 -33 33v141q-1 13 9 23t24 10h139q13 0 23 -10t10 -23v-141q0 -33 -33 -33h-139zM674 1536q-33 0 -33 33v141q-1 13 9 23t24 10h139q13 0 23 -10t10 -23v-141q0 -33 -33 -33h-139z" />
    <glyph glyph-name="multiply" unicode="&#xd7;" horiz-adv-x="987" 
d="M766 901q16 0 29 -12l75 -76q12 -13 12 -29t-12 -28l-229 -230q-13 -14 0 -27l231 -232q30 -29 0 -57l-75 -76q-13 -12 -29 -12t-29 12l-231 232q-13 13 -29 0l-229 -230q-12 -12 -28 -12t-29 12l-76 76q-13 12 -13 28t13 29l229 230q14 13 0 27l-231 232h1
q-12 12 -12 28t12 29l75 76q30 30 58 0l231 -232q14 -14 28 0l229 230q13 12 29 12z" />
    <glyph glyph-name="Oslash" unicode="&#xd8;" horiz-adv-x="1138" 
d="M576 180q100 0 172 61t88 169q15 108 17 269q1 161 -5 230t-11 74t-14 -8l-422 -711l1 -1q-13 -21 6 -34q68 -49 168 -49zM569 1259q-104 -1 -178 -61t-88 -180t-15 -266v-2q-3 -294 14 -304q5 -3 15 12q136 224 431 717q13 18 -3 25q-72 59 -176 59zM109 0v4
q-22 0 -34 18t1 39l84 136q13 22 0 35q-40 94 -54 201t-14 293t17 301q21 180 143 303t300 123t292 -84q10 -10 22 4l23 33q11 18 18 24t21 7h106q21 0 33 -19t0 -39l-92 -145q-7 -11 0 -22q37 -76 53 -182t16 -292q0 -184 -18 -346t-138 -286q-122 -122 -319 -122
q-156 0 -270 79q-14 8 -23 -4l-18 -28q-19 -31 -43 -31h-106z" />
    <glyph glyph-name="Ugrave" unicode="&#xd9;" horiz-adv-x="1142" 
d="M112 409v983q0 16 12 28t29 13h112q17 -1 29 -13t12 -28v-983q0 -118 78 -175t192 -57q112 1 187 67t75 165v983q0 16 12 28t29 13h112q17 -1 29 -13t12 -28v-983q0 -181 -135 -303t-332 -122t-324 121l2 -1q-131 120 -131 305zM315 1833h162q23 0 33 -10t20 -23
l156 -223q9 -9 0 -25t-29 -16h-82q-35 0 -44 8t-17 17l-221 229h-1q-12 10 -4 26t27 17z" />
    <glyph glyph-name="Uacute" unicode="&#xda;" horiz-adv-x="1142" 
d="M112 409v983q0 16 12 28t29 13h112q17 -1 29 -13t12 -28v-983q0 -118 78 -175t192 -57q112 1 187 67t75 165v983q0 16 12 28t29 13h112q17 -1 29 -13t12 -28v-983q0 -181 -135 -303t-332 -122t-324 121l2 -1q-131 120 -131 305zM565 1536h-83q-18 0 -28 16t0 25l155 223
q0 6 7 11l12 10q13 12 35 12h161q19 -1 27 -17t-3 -26l-221 -229q-25 -25 -62 -25z" />
    <glyph glyph-name="Ucircumflex" unicode="&#xdb;" horiz-adv-x="1142" 
d="M115 409v983q0 16 12 28t29 13h112q16 -1 28 -13t13 -28v-983q1 -118 79 -175t190 -57q112 1 188 67q75 66 75 165v983q0 16 12 28t29 13h112q16 -1 28 -13t13 -28v-983q0 -181 -135 -303t-332 -122t-324 121l2 -1q-131 120 -131 305zM529 1833h86q31 0 41 -8t18 -17
l221 -229q11 -11 4 -27t-27 -16h-120q-31 0 -64 33l-104 100q-13 13 -29 0l-102 -100q-33 -33 -64 -33l-145 16q-8 16 3 27l221 229q25 25 61 25z" />
    <glyph glyph-name="Udieresis" unicode="&#xdc;" horiz-adv-x="1142" 
d="M113 409v983q0 16 12 28t29 13h112q16 -1 28 -13t13 -28v-983q1 -118 79 -175t190 -57q112 1 188 67q75 66 75 165v983q0 16 12 28t29 13h112q16 -1 28 -13t13 -28v-983q0 -181 -135 -303t-332 -122t-324 121l2 -1q-131 120 -131 305zM330 1536q-33 0 -33 33v141
q-1 13 9 23t24 10h139q13 0 23 -10t10 -23v-141q0 -33 -33 -33h-139zM680 1536q-33 0 -33 33v141q-1 13 9 23t24 10h139q13 0 23 -10t10 -23v-141q0 -33 -33 -33h-139z" />
    <glyph glyph-name="Yacute" unicode="&#xdd;" horiz-adv-x="937" 
d="M56 1434h136q31 0 38 -31l232 -637q8 -20 15 0l228 637q10 31 39 31h136q21 0 32 -18t0 -40l-344 -882v-453q0 -17 -12 -29t-29 -12h-114q-17 0 -29 12t-12 29v451l-349 884q-9 22 1 40t32 18zM483 1536h-83q-19 0 -28 16t0 25l155 223q0 6 7 11l12 10q13 12 35 12h161
q19 -1 27 -17t-3 -26l-221 -229q-25 -25 -62 -25z" />
    <glyph glyph-name="Thorn" unicode="&#xde;" horiz-adv-x="1044" 
d="M328 993v-533q0 -18 20 -20h174q96 0 166 70t70 166v102q0 96 -70 166t-166 70h-174q-20 0 -20 -21zM174 0q-16 0 -28 12t-13 29v1352q1 17 13 29t28 12h113q17 0 29 -12t12 -29v-164q0 -18 20 -20h174q178 0 305 -125q125 -127 125 -305v-102q0 -179 -126 -305
t-304 -126h-174q-20 0 -20 -21v-184q0 -17 -12 -29t-29 -12h-113z" />
    <glyph glyph-name="germandbls" unicode="&#xdf;" horiz-adv-x="1058" 
d="M281 0h-109q-16 0 -28 12t-13 29v1018q1 159 117 277t286 118t284 -117q116 -117 116 -279t-119 -280q-27 -27 -1 -49q152 -131 152 -315t-126 -299t-304 -115h-41q-17 0 -29 12t-12 29v102q0 17 12 29t29 12h41q100 0 172 64t73 163q-1 97 -61 171t-180 74h-25
q-17 0 -29 12t-12 29v101q0 16 12 28t29 13h25q100 0 156 64q56 65 56 155t-60 151t-156 61q-98 0 -156 -61t-58 -150v-1018q0 -17 -12 -29t-29 -12z" />
    <glyph glyph-name="agrave" unicode="&#xe0;" horiz-adv-x="997" 
d="M315 753q0 -35 -47 -35h-92q-41 0 -41 41q-1 131 113 208t258 77q375 0 375 -327v-676q-1 -17 -13 -29t-28 -12h-70q-23 0 -38 29t-30 28q-15 0 -41 -16q-97 -61 -200 -61q-181 0 -282 98v1q-91 88 -91 224t90 226t248 90h250q20 0 20 21v78q0 82 -50 123t-128 41
t-140 -31t-63 -98zM426 451q-154 0 -154 -142q0 -77 46 -118t161 -41q234 0 234 215v65q0 21 -21 21h-266zM326 1495h161q31 0 49 -27q4 -5 5 -6l155 -223q9 -9 0 -25t-28 -16h-82q-33 0 -42 8q-10 8 -20 17l-221 229q-11 10 -4 26t27 17z" />
    <glyph glyph-name="aacute" unicode="&#xe1;" horiz-adv-x="997" 
d="M314 753q0 -35 -47 -35h-92q-41 0 -41 41q0 131 114 208t257 77q375 0 375 -327v-676q0 -17 -12 -29t-29 -12h-70q-23 0 -38 28t-30 29q-15 0 -41 -16q-97 -61 -200 -61q-181 0 -282 98v1q-91 88 -91 224t90 226t248 90h250q20 0 20 21v78q-1 82 -51 123t-128 41
t-140 -31t-62 -98zM425 451q-154 0 -154 -142q1 -77 47 -118t160 -41q234 0 234 215v65q0 21 -21 21h-266zM494 1198h-83q-19 0 -29 16t0 25l156 223q2 2 8 10q19 24 45 23h162q19 -1 27 -17t-4 -26l-221 -229q-25 -25 -61 -25z" />
    <glyph glyph-name="acircumflex" unicode="&#xe2;" horiz-adv-x="997" 
d="M316 753q0 -35 -47 -35h-92q-41 0 -41 41q0 131 114 208t257 77q375 0 375 -327v-676q0 -17 -12 -29t-29 -12h-70q-23 0 -38 29t-30 28q-15 0 -41 -16q-97 -61 -200 -61q-181 0 -282 98v1q-91 88 -91 224t90 226t248 90h250q20 0 20 21v78q-1 82 -51 123t-128 41
t-140 -31t-62 -98zM427 451q-154 0 -154 -142q1 -77 47 -118t160 -41q234 0 234 215v65q0 21 -21 21h-266zM467 1495h86q32 0 41 -8t17 -17l222 -229q11 -11 3 -27t-27 -16h-121q-30 0 -63 33l-105 100q-14 13 -27 0l-103 -100q-33 -33 -62 -33l-147 16q-8 16 3 27l222 229
q25 25 61 25z" />
    <glyph glyph-name="atilde" unicode="&#xe3;" horiz-adv-x="997" 
d="M315 754q0 -35 -47 -35h-92q-41 0 -41 41q-1 131 113 208t258 77q375 0 375 -327v-676q-1 -16 -13 -28t-28 -13h-70q-23 0 -38 29t-30 28q-15 0 -41 -16q-97 -61 -200 -61q-181 0 -282 98v1q-91 88 -91 224t90 226t248 90h250q20 0 20 21v78q0 82 -50 123t-128 41
q-78 1 -140 -31t-63 -98zM426 452q-154 0 -154 -142q0 -77 46 -118t161 -41q234 0 234 215v65q0 21 -21 21h-266zM231 1267v82q1 42 43 73t104 31q62 1 138 -25q78 -26 144 -26t98 43q12 17 32 7t19 -37v-82q0 -42 -42 -73q-43 -31 -107 -31q-64 -1 -140 25t-140 26t-97 -43
v1q-12 -16 -32 -8t-20 37z" />
    <glyph glyph-name="adieresis" unicode="&#xe4;" horiz-adv-x="997" 
d="M315 753q0 -35 -47 -35h-92q-41 0 -41 41q-1 131 113 208t258 77q375 0 375 -327v-676q-1 -17 -13 -29t-28 -12h-70q-23 0 -38 29t-30 28q-15 0 -41 -16q-97 -61 -200 -61q-181 0 -282 98v1q-91 88 -91 224t90 226t248 90h250q20 0 20 21v78q0 82 -50 123t-128 41
t-140 -31t-63 -98zM426 451q-154 0 -154 -142q0 -77 46 -118t161 -41q234 0 234 215v65q0 21 -21 21h-266zM274 1241q-32 0 -32 33v141q0 13 9 23t23 10h140q14 0 23 -10t9 -23v-141q0 -33 -32 -33h-140zM625 1241q-33 0 -33 33v141q0 13 10 23t23 10h139q14 0 24 -10t9 -23
v-141q0 -33 -33 -33h-139z" />
    <glyph glyph-name="aring" unicode="&#xe5;" horiz-adv-x="997" 
d="M315 753q0 -35 -47 -35h-92q-41 0 -41 41q-1 131 113 208t258 77q375 0 375 -327v-676q-1 -17 -13 -29t-28 -12h-70q-23 0 -38 29t-30 28q-15 0 -41 -16q-97 -61 -200 -61q-181 0 -282 98v1q-91 88 -91 224t90 226t248 90h250q20 0 20 21v78q0 82 -50 123t-128 41
t-140 -31t-63 -98zM426 451q-154 0 -154 -142q0 -77 46 -118t161 -41q234 0 234 215v65q0 21 -21 21h-266zM520 1454q-34 0 -58 -24t-24 -58t24 -58t58 -24t58 24t24 58t-24 58t-58 24zM295 1371q0 95 64 161t160 65q96 0 161 -65t65 -161q1 -96 -65 -160t-161 -64t-158 66
q-66 63 -66 158z" />
    <glyph glyph-name="ae" unicode="&#xe6;" horiz-adv-x="1626" 
d="M429 454q-154 0 -154 -148q1 -72 47 -114q46 -41 160 -41q114 -1 180 53q64 54 64 162v67q0 21 -21 21h-276zM1136 862v-1q-104 1 -170 -63t-66 -160q0 -18 21 -20h425q21 0 21 21q1 103 -65 163t-166 60zM317 753q0 -35 -47 -35h-92q-41 0 -41 41q0 133 115 209t259 76
q89 0 167 -36t116 -84q10 -14 28 -14t33 14q111 120 279 120q167 0 287 -120t120 -289v-141q-2 -17 -14 -29t-28 -12h-586q-20 0 -20 -21q0 -136 63 -202t158 -66t152 36t75 93q10 35 48 35h104q17 0 28 -10t7 -31q-20 -137 -128 -222t-276 -85t-280 104q-37 34 -78 -2
q-122 -102 -304 -102t-283 98l3 2q-91 88 -91 224t91 225q91 88 247 88h260q21 0 21 21v70q0 84 -56 129t-134 45q-76 0 -140 -29t-63 -100z" />
    <glyph glyph-name="ccedilla" unicode="&#xe7;" horiz-adv-x="978" 
d="M483 -412h-131q-20 0 -28 11t-4 26l77 248q8 33 39 33h109q19 0 29 -11t5 -26l-58 -248q-7 -33 -38 -33zM897 328q0 -152 -112 -250t-287 -98t-284 109t-120 265t0 314t120 266q109 109 284 109q175 -1 287 -99t112 -249q1 -17 -9 -29t-26 -12h-110q-15 0 -27 9t-12 24
q0 74 -58 123t-156 49q-98 -1 -157 -59t-66 -146q-8 -143 0 -285q6 -89 65 -147t157 -58t155 48q58 48 58 122q0 35 39 35h106q16 -1 28 -13t13 -28z" />
    <glyph glyph-name="egrave" unicode="&#xe8;" horiz-adv-x="1007" 
d="M513 859v-1q-105 0 -170 -64t-65 -159q0 -18 20 -20h426q20 0 20 21q0 103 -66 163t-165 60zM514 1044q184 0 295 -109t111 -300v-141q0 -16 -12 -28t-29 -13h-586q-19 0 -20 -21q-1 -136 63 -202t159 -66t152 36t75 93q10 35 47 35h104q17 0 28 -10t7 -31
q-20 -139 -129 -223t-278 -84t-283 110t-126 279l-1 -1q-9 144 2 300t125 266q112 110 296 110zM289 1495h162q28 -1 36 -11t17 -22l155 -223q9 -9 0 -25t-28 -16h-82q-33 0 -42 8q-10 8 -20 17l-221 229q-11 10 -4 26t27 17z" />
    <glyph glyph-name="eacute" unicode="&#xe9;" horiz-adv-x="1007" 
d="M513 859v-1q-105 0 -170 -64t-65 -159q0 -18 20 -20h426q20 0 20 21q0 103 -66 163t-165 60zM514 1044q184 0 295 -109t111 -300v-141q0 -16 -12 -28t-29 -13h-586q-19 0 -20 -21q-1 -136 63 -202t159 -66t152 36t75 93q10 35 47 35h104q17 0 28 -10t7 -31
q-20 -139 -129 -223t-278 -84t-283 110t-126 279l-1 -1q-9 144 2 300t125 266q112 110 296 110zM416 1198q-18 0 -28 16t-1 25l156 223q2 2 8 10q19 24 45 23h162q18 -1 26 -17t-4 -26l-221 -229q-25 -25 -61 -25h-82z" />
    <glyph glyph-name="ecircumflex" unicode="&#xea;" horiz-adv-x="1007" 
d="M513 859v-1q-105 0 -170 -64t-65 -159q0 -18 20 -20h426q20 0 20 21q0 103 -66 163t-165 60zM514 1044q184 0 295 -109t111 -300v-141q0 -16 -12 -28t-29 -13h-586q-19 0 -20 -21q-1 -136 63 -202t159 -66t152 36t75 93q10 35 47 35h104q17 0 28 -10t7 -31
q-20 -139 -129 -223t-278 -84t-283 110t-126 279l-1 -1q-9 144 2 300t125 266q112 110 296 110zM223 1198q-19 0 -27 16t5 27l221 229q25 25 61 25h86q31 1 41 -7q9 -8 19 -18l221 -229q11 -11 4 -27t-27 -16h-120q-31 0 -64 33l-104 100q-13 13 -29 0l-102 -100
q-33 -33 -64 -33h-121z" />
    <glyph glyph-name="edieresis" unicode="&#xeb;" horiz-adv-x="1007" 
d="M513 859v-1q-105 0 -170 -64t-65 -159q0 -18 20 -20h426q20 0 20 21q0 103 -66 163t-165 60zM514 1044q184 0 295 -109t111 -300v-141q0 -16 -12 -28t-29 -13h-586q-19 0 -20 -21q-1 -136 63 -202t159 -66t152 36t75 93q10 35 47 35h104q17 0 28 -10t7 -31
q-20 -139 -129 -223t-278 -84t-283 110t-126 279l-1 -1q-9 144 2 300t125 266q112 110 296 110zM279 1241q-33 0 -33 33v141q0 13 10 23t23 10h139q14 0 24 -10t9 -23v-141q0 -33 -33 -33h-139zM629 1241q-33 0 -33 33v141q0 13 10 23t23 10h139q14 0 24 -10t9 -23v-141
q0 -33 -33 -33h-139z" />
    <glyph glyph-name="igrave" unicode="&#xec;" horiz-adv-x="471" 
d="M184 0q-16 0 -28 12t-13 29v942q1 17 13 29t28 12h107q17 0 29 -12t12 -29v-942q0 -17 -12 -29t-29 -12h-107zM23 1495h161q32 0 50 -27q4 -5 4 -6l155 -223q9 -9 0 -25t-28 -16h-82q-39 0 -62 25l-221 229q-11 10 -4 26t27 17z" />
    <glyph glyph-name="iacute" unicode="&#xed;" horiz-adv-x="471" 
d="M183 0q-17 0 -29 12t-12 29v942q0 17 12 29t29 12h107q16 0 28 -12t13 -29v-942q-1 -17 -13 -29t-28 -12h-107zM211 1198h-83q-18 0 -28 16t-1 25l156 223q1 1 5 7q4 5 8 9l6 6t7 4q12 8 27 7h162q19 -1 27 -17t-3 -26l-222 -229q-25 -25 -61 -25z" />
    <glyph glyph-name="icircumflex" unicode="&#xee;" horiz-adv-x="471" 
d="M187 0q-17 0 -29 12t-12 29v942q0 17 12 29t29 12h107q16 0 28 -12t13 -29v-942q-1 -17 -13 -29t-28 -12h-107zM197 1495h86q32 0 41 -8t17 -17l221 -229q12 -11 4 -27t-27 -16h-121q-31 0 -64 33l-104 100q-13 13 -29 0l-102 -100q-33 -33 -64 -33l-145 16q-8 16 4 27
l221 229q25 25 62 25z" />
    <glyph glyph-name="idieresis" unicode="&#xef;" horiz-adv-x="471" 
d="M184 0q-16 0 -28 12t-13 29v942q1 17 13 29t28 12h107q17 0 29 -12t12 -29v-942q0 -17 -12 -29t-29 -12h-107zM-8 1241q-33 0 -33 33v141q-1 13 9 23t24 10h139q13 0 23 -10t10 -23v-141q0 -33 -33 -33h-139zM342 1241q-33 0 -33 33v141q-1 13 9 23t24 10h139
q13 0 23 -10t10 -23v-141q0 -33 -33 -33h-139z" />
    <glyph glyph-name="eth" unicode="&#xf0;" horiz-adv-x="1009" 
d="M258 460v-1q0 -38 4 -91q6 -86 70 -146t166 -59q102 0 166 59q64 58 68 130q5 72 5 108t-5 108q-4 72 -68 130q-64 59 -166 59q-102 1 -166 -59t-69 -131t-5 -107zM497 941q88 0 178 -49q28 -10 22 8q-13 128 -55 207q-11 18 -21 8l-150 -84q-17 -11 -37 -1t-20 31v63
q0 41 30 57l50 24q12 7 8 19q-9 24 -90 24h-74q-16 0 -28 12t-13 29v103q1 16 13 28t28 13h74q167 0 270 -76q10 -4 18 2l146 84q16 10 34 1t17 -30v-84q0 -21 -5 -30t-22 -19l-63 -39q-16 -12 -10 -20q71 -136 105 -372t3 -481q-21 -173 -127 -281t-284 -108
q-176 0 -290 109t-126 280q-7 91 0 183q12 169 126 279t293 110z" />
    <glyph glyph-name="ntilde" unicode="&#xf1;" 
d="M123 42v942q0 16 12 28t29 13h90q15 -1 29 -15q30 -32 44 -32q15 0 23 2t16 5q8 5 13 7t47 28q41 26 126 25q173 -1 281 -105t108 -284v-614q0 -16 -12 -28t-29 -13h-102q-16 1 -28 13t-13 28v614q0 96 -63 150q-62 54 -162 55q-100 -1 -163 -53t-63 -141v-625
q0 -16 -12 -28t-29 -13l-129 13q-12 12 -13 28zM237 1267v82q0 42 42 73t104 31q61 1 137 -25t145 -26t99 43q12 17 32 7t19 -37v-82q0 -42 -42 -73q-43 -31 -107 -31q-64 -1 -140 25t-140 26t-97 -43l-1 1q-12 -16 -32 -8t-19 37z" />
    <glyph glyph-name="ograve" unicode="&#xf2;" horiz-adv-x="1024" 
d="M510 165q102 0 166 59t71 146q8 142 0 285q-5 85 -69 145t-167 60t-167 -60t-69 -145q-8 -143 0 -285q5 -86 69 -146t166 -59zM510 1045q178 -1 292 -111t125 -266t0 -312t-125 -266t-292 -110t-292 110t-125 266t0 312t125 266t292 111zM256 1495h162q28 -1 36 -11
t17 -22l156 -223q9 -9 -1 -25t-28 -16h-82q-35 0 -44 8t-17 17l-222 229h-1q-11 10 -3 26t27 17z" />
    <glyph glyph-name="oacute" unicode="&#xf3;" horiz-adv-x="1024" 
d="M512 165q102 0 166 59t70 146q8 142 0 285q-6 85 -70 145t-166 60t-166 -60t-70 -145q-8 -143 0 -285q6 -86 70 -146t166 -59zM511 1045q179 -1 293 -111t124 -266q11 -156 0 -312q-10 -156 -124 -266t-293 -110t-293 110t-124 266q-11 156 0 312q10 156 124 266t293 111
zM424 1198q-18 0 -28 16t-1 25l156 223q1 1 5 7q4 5 8 9l6 6t7 4q12 8 27 7h162q18 -1 26 -17t-4 -26l-221 -229q-25 -25 -61 -25h-82z" />
    <glyph glyph-name="ocircumflex" unicode="&#xf4;" horiz-adv-x="1024" 
d="M512 165q102 0 166 59t70 146q8 142 0 285q-6 85 -70 145t-166 60t-166 -60t-70 -145q-8 -143 0 -285q6 -86 70 -146t166 -59zM511 1045q179 -1 293 -111t124 -266q11 -156 0 -312q-10 -156 -124 -266t-293 -110t-293 110t-124 266q-11 156 0 312q10 156 124 266t293 111
zM211 1198q-19 0 -27 16t3 27l222 229q25 25 61 25h86q32 0 41 -8t17 -17l222 -229q11 -11 4 -27t-27 -16h-121q-30 0 -63 33l-105 100q-14 13 -27 0l-103 -100q-33 -33 -62 -33h-121z" />
    <glyph glyph-name="otilde" unicode="&#xf5;" horiz-adv-x="1024" 
d="M512 166q102 0 166 59t71 146q8 143 0 285q-5 86 -69 146t-167 59q-103 1 -167 -59t-69 -146q-8 -143 0 -285q5 -85 69 -145t166 -60zM512 1046q178 0 292 -110t125 -267q11 -155 0 -311t-125 -266t-292 -111q-178 1 -292 111t-125 266t0 312t125 266t292 110zM654 1229
q-62 -1 -140 25t-140 26t-99 -42q-11 -16 -31 -8t-20 37v82q0 42 42 73t104 31q62 1 140 -25t143 -26q66 0 98 43q11 17 31 7t20 -37v-82q0 -42 -42 -73t-106 -31z" />
    <glyph glyph-name="odieresis" unicode="&#xf6;" horiz-adv-x="1024" 
d="M512 165q102 0 166 59t70 146q8 142 0 285q-6 85 -70 145t-166 60t-166 -60t-70 -145q-8 -143 0 -285q6 -86 70 -146t166 -59zM511 1045q179 -1 293 -111t124 -266q11 -156 0 -312q-10 -156 -124 -266t-293 -110t-293 110t-124 266q-11 156 0 312q10 156 124 266t293 111
zM266 1241q-33 0 -33 33v141q-1 13 9 23t24 10h140q14 0 23 -10t9 -23v-141q0 -33 -32 -33h-140zM616 1241q-32 0 -32 33v141q0 13 9 23t23 10h140q14 0 23 -10t9 -23v-141q0 -33 -32 -33h-140z" />
    <glyph glyph-name="divide" unicode="&#xf7;" horiz-adv-x="1064" 
d="M461 0q-17 0 -29 12t-12 29v170q0 17 12 29t29 12h170q17 0 29 -12t12 -29v-170q0 -17 -12 -29t-29 -12h-170zM143 414q-17 0 -29 12t-12 29v112q0 17 12 29t29 12h779q16 0 28 -12t13 -29v-112q-1 -17 -13 -29t-28 -12h-779zM461 752q-17 0 -29 12t-12 29v170
q0 17 12 29t29 12h170q17 0 29 -12t12 -29v-170q0 -17 -12 -29t-29 -12h-170z" />
    <glyph glyph-name="oslash" unicode="&#xf8;" horiz-adv-x="1024" 
d="M522 166q92 0 156 59t70 146q11 191 -1 285q1 8 -5 14t-14 -3l-359 -440q-9 -14 2 -20q59 -41 151 -41zM496 861q-88 0 -150 -59q-64 -59 -71 -146q-8 -133 -4 -206q5 -73 9 -75t10 3l352 430q9 14 -2 20q-56 33 -144 33zM495 1045q164 0 263 -73q4 -4 8 -4t10 6l19 20
q25 31 49 31h96q21 1 33 -21t-3 -40l-86 -105q-10 -11 -2 -29q43 -113 48 -174q9 -144 -2 -300q-10 -156 -124 -266t-280 -110t-273 81q-10 10 -18 -2l-22 -28q-21 -31 -51 -31h-99l-1 1q-22 1 -33 23t5 43l100 118q9 11 2 22q-64 135 -41 461q11 156 125 266t277 111z" />
    <glyph glyph-name="ugrave" unicode="&#xf9;" 
d="M110 369v614q0 17 12 29t29 12h102q17 0 29 -12t12 -29v-614q0 -93 60 -149t162 -56t166 52t63 142v625q0 17 12 29t28 12h103q16 0 28 -12t13 -29v-942q-1 -17 -13 -29t-28 -12h-90q-17 0 -30 15q-14 16 -26 24q-27 20 -57 1q-31 -20 -40 -26q-52 -34 -144 -34
q-174 0 -280 109l-3 -1q-108 111 -108 281zM293 1495h162q28 -1 36 -11t17 -22l156 -223q10 -9 0 -25t-29 -16h-82q-35 0 -44 8t-17 17l-222 229q-11 10 -4 26t27 17z" />
    <glyph glyph-name="uacute" unicode="&#xfa;" 
d="M110 369v614q0 17 12 29t29 12h102q17 0 29 -12t12 -29v-614q0 -93 60 -149t162 -56t166 52t63 142v625q0 17 12 29t28 12h103q16 0 28 -12t13 -29v-942q-1 -17 -13 -29t-28 -12h-90q-17 0 -30 15q-14 16 -26 24q-27 20 -57 1q-31 -20 -40 -26q-52 -34 -144 -34
q-174 0 -280 109l-3 -1q-108 111 -108 281zM420 1198q-18 0 -28 16t-1 25l156 223q1 1 5 7q4 5 8 9l6 6t7 4q12 8 27 7h162q18 -1 26 -17t-4 -26l-221 -229q-25 -25 -61 -25h-82z" />
    <glyph glyph-name="ucircumflex" unicode="&#xfb;" 
d="M112 369v614q0 17 12 29t29 12h102q17 0 29 -12t12 -29v-614q0 -93 60 -149t162 -56t166 52t63 142v625q0 17 12 29t28 12h103q16 0 28 -12t13 -29v-942q-1 -17 -13 -29t-28 -12h-90q-17 0 -30 15q-14 16 -26 24q-27 20 -57 1q-31 -20 -40 -26q-52 -34 -144 -34
q-174 0 -280 109l-3 -1q-108 111 -108 281zM486 1495h86q31 0 41 -8t18 -17l221 -229q11 -11 4 -27t-27 -16h-120q-31 0 -64 33l-104 100q-13 13 -29 0l-102 -100q-33 -33 -64 -33l-146 16q-8 16 4 27l221 229q25 25 61 25z" />
    <glyph glyph-name="udieresis" unicode="&#xfc;" 
d="M110 369v614q0 17 12 29t29 12h102q17 0 29 -12t12 -29v-614q0 -93 60 -149t162 -56t166 52t63 142v625q0 17 12 29t28 12h103q16 0 28 -12t13 -29v-942q-1 -17 -13 -29t-28 -12h-90q-17 0 -30 15q-14 16 -26 24q-27 20 -57 1q-31 -20 -40 -26q-52 -34 -144 -34
q-174 0 -280 109l-3 -1q-108 111 -108 281zM283 1241q-33 0 -33 33v141q0 13 10 23t23 10h139q14 0 24 -10t9 -23v-141q0 -33 -33 -33h-139zM633 1241q-33 0 -33 33v141q0 13 10 23t23 10h139q14 0 24 -10t9 -23v-141q0 -33 -33 -33h-139z" />
    <glyph glyph-name="yacute" unicode="&#xfd;" horiz-adv-x="946" 
d="M52 1023h125q29 0 39 -31l252 -665q8 -19 15 0l238 665q10 31 40 31h121q24 0 35 -15t5 -32l-521 -1356q-10 -31 -39 -31h-110q-24 0 -35 15t-5 33l152 417q6 18 2 28l-353 894q-6 17 5 32t34 15zM446 1198h-82q-18 0 -28 16t-1 25l156 223q2 2 8 10q19 24 45 23h162
q18 -1 26 -17t-3 -26l-221 -229q-25 -25 -62 -25z" />
    <glyph glyph-name="thorn" unicode="&#xfe;" horiz-adv-x="1015" 
d="M174 -410v1q-16 1 -28 13t-13 28v1776q1 16 13 28t28 13h102q16 -1 28 -13t13 -28v-371q1 -15 13 -29t26 -14t32 6q17 6 66 25q49 20 99 20q157 -1 267 -113t120 -266t0 -308t-120 -266t-267 -112q-49 0 -87 14t-56 22q-60 26 -81 2q-12 -14 -12 -30v-357q0 -17 -12 -29
t-29 -12h-102zM532 165q102 -1 166 59t70 146q8 142 0 285q-6 87 -70 146t-166 59t-166 -59t-69 -146q-8 -143 0 -285q5 -87 69 -146t166 -59z" />
    <glyph glyph-name="ydieresis" unicode="&#xff;" horiz-adv-x="946" 
d="M53 1023h125q29 0 39 -31l252 -665q7 -19 15 0l238 665q10 31 40 31h121q24 0 35 -15t5 -32l-521 -1356q-10 -31 -39 -31h-110q-24 0 -35 15t-5 33l152 417q6 18 2 28l-353 894q-6 17 5 32t34 15zM227 1241q-32 0 -32 33v141q0 13 9 23t23 10h140q14 0 23 -10t9 -23v-141
q0 -33 -32 -33h-140zM578 1241q-33 0 -33 33v141q-1 13 9 23t24 10h139q13 0 23 -10t10 -23v-141q0 -33 -33 -33h-139z" />
    <glyph glyph-name="Amacron" unicode="&#x100;" horiz-adv-x="999" 
d="M432 1434h143q33 0 39 -31l381 -1362q4 -17 -7 -29t-35 -12h-112q-29 0 -40 31l-90 313q-6 29 -39 29h-340q-30 0 -40 -29l-90 -313q-11 -31 -39 -31l-144 12q-11 12 -7 29l381 1362q6 31 39 31zM374 563h254q24 0 16 23l-133 571q-5 12 -9 12h-4q-4 0 -9 -12l-132 -571
q-6 -23 17 -23zM252 1559q-16 0 -28 12t-13 28v78q1 17 13 29t28 12h496q16 0 28 -12t12 -29v-78q0 -16 -12 -28t-28 -12h-496z" />
    <glyph glyph-name="amacron" unicode="&#x101;" horiz-adv-x="997" 
d="M315 753q0 -35 -47 -35h-92q-41 0 -41 41q-1 131 113 208t258 77q375 0 375 -327v-676q-1 -17 -13 -29t-28 -12h-70q-23 0 -38 29t-30 28q-15 0 -41 -16q-97 -61 -200 -61q-181 0 -282 98v1q-91 88 -91 224t90 226t248 90h250q20 0 20 21v78q0 82 -50 123t-128 41
t-140 -31t-63 -98zM426 451q-154 0 -154 -142q0 -77 46 -118t161 -41q234 0 234 215v65q0 21 -21 21h-266zM250 1262q-16 0 -28 12t-13 29v77q0 16 12 28t29 13h495q17 0 29 -12t12 -29v-77q0 -17 -12 -29t-29 -12h-495z" />
    <glyph glyph-name="Abreve" unicode="&#x102;" horiz-adv-x="999" 
d="M432 1434h143q33 0 39 -31l381 -1362q4 -17 -7 -29t-35 -12h-112q-29 0 -40 31l-90 313q-6 29 -39 29h-340q-30 0 -40 -29l-90 -313q-11 -31 -39 -31l-144 12q-11 12 -7 29l381 1362q6 31 39 31zM374 563h254q24 0 16 23l-133 571q-5 12 -9 12h-4q-4 0 -9 -12l-132 -571
q-6 -23 17 -23zM217 1798q1 14 11 24t24 11h88q15 0 25 -10t10 -25q1 -46 39 -80t86 -35q48 0 86 34t37 81q-1 15 9 25t25 10h88q15 -1 25 -11t10 -24q0 -110 -80 -186t-201 -76t-201 76t-81 186z" />
    <glyph glyph-name="abreve" unicode="&#x103;" horiz-adv-x="997" 
d="M316 753q0 -35 -47 -35h-92q-41 0 -41 41q0 131 114 208t257 77q375 0 375 -327v-676q0 -17 -12 -29t-29 -12h-70q-23 0 -38 29t-30 28q-15 0 -41 -16q-97 -61 -200 -61q-181 0 -282 98v1q-91 88 -91 224t90 226t248 90h250q20 0 20 21v78q-1 82 -51 123t-128 41
t-140 -31t-62 -98zM427 451q-154 0 -154 -142q1 -77 47 -118t160 -41q234 0 234 215v65q0 21 -21 21h-266zM239 1460q0 14 10 24t24 11h88q15 0 25 -10t10 -25q0 -46 38 -80t87 -34q47 0 85 34t38 80q0 15 10 25t25 10h88q15 0 25 -10t10 -25q0 -110 -80 -186t-203 -76
q-122 0 -202 77h1q-79 74 -79 185z" />
    <glyph glyph-name="Aogonek" unicode="&#x104;" horiz-adv-x="999" 
d="M377 564h254q24 0 16 23l-133 571q-4 12 -9 12h-4q-5 0 -9 -12l-132 -571q-6 -23 17 -23zM430 1435h143q33 0 39 -31l381 -1362q4 -16 -7 -28t-35 -13h-14q-70 -5 -111 -41t-41 -100q0 -135 156 -135q17 -1 29 -13t12 -28v-72q0 -16 -12 -28t-29 -13q-149 0 -237 71
t-89 207q1 87 45 153t117 104l-67 238q-6 29 -39 29h-340q-30 0 -40 -29l-90 -313q-11 -31 -39 -31h-113l3 1q-24 1 -35 13t-7 28l381 1362q6 31 39 31z" />
    <glyph glyph-name="aogonek" unicode="&#x105;" horiz-adv-x="997" 
d="M426 452q-154 0 -154 -142q0 -77 46 -118t161 -41q234 0 234 215v65q0 21 -21 21h-266zM461 -20q-181 0 -282 98v1q-91 88 -91 224t90 226t248 90h250q20 0 20 21v78q0 82 -50 123t-128 41t-140 -31t-63 -98q0 -35 -47 -35h-92q-41 0 -41 41q-1 131 113 208t268 77
t260 -84t105 -243v-676q-1 -17 -13 -29t-28 -12q-74 0 -120 -38t-46 -103q0 -135 155 -135q17 0 29 -12t12 -29v-72q0 -17 -12 -29t-29 -12q-149 0 -237 71t-88 207q0 40 20 88t47 70q-52 -26 -110 -26z" />
    <glyph glyph-name="Cacute" unicode="&#x106;" horiz-adv-x="1112" 
d="M568 1449q196 -1 328 -119t132 -307v-29q0 -16 -12 -28t-29 -13h-112q-17 1 -29 13t-12 28v29q0 95 -74 163t-186 68q-111 0 -185 -60t-89 -177q-15 -116 -15 -301q1 -185 15 -296t85 -177t181 -66t188 61q80 61 80 171v28q0 17 12 29t29 12h112q17 0 29 -12t12 -29v-28
q0 -176 -131 -301t-323 -125t-318 116q-125 116 -148 311q-17 127 -17 308l-1 -1q0 190 17 306q21 180 143 303t318 123zM600 1536h-83q-19 0 -29 16t0 25l156 223q2 1 6 7q4 5 8 9l6 6t6 4q12 8 27 7h162q19 -1 27 -17t-3 -26l-221 -229q-25 -25 -62 -25z" />
    <glyph glyph-name="cacute" unicode="&#x107;" horiz-adv-x="978" 
d="M896 328q0 -152 -112 -250t-287 -98t-284 109t-120 265t0 314t120 266q109 109 284 109q175 -1 287 -99t112 -249q0 -17 -10 -29t-25 -12h-110q-15 0 -27 9t-12 24q0 74 -58 123t-156 49q-98 -1 -157 -59t-66 -146q-8 -143 0 -285q6 -89 65 -147q58 -58 156 -58t156 48
t58 122q0 35 39 35h106q17 -1 29 -13t12 -28zM483 1198h-83q-19 0 -28 16t0 25l155 223q0 6 7 11l12 10q13 12 35 12h161q19 -1 27 -17t-3 -26l-221 -229q-25 -25 -62 -25z" />
    <glyph glyph-name="Ccircumflex" unicode="&#x108;" horiz-adv-x="1112" 
d="M570 1449q196 -1 328 -119t133 -307v-29q0 -16 -12 -28t-29 -13h-112q-16 1 -28 13t-13 28v29q-1 95 -75 163t-185 68t-185 -60t-89 -177q-15 -116 -15 -301t14 -296t86 -177q70 -66 180 -66t190 61t79 171v28q0 17 12 29t29 12h112q16 0 28 -12t13 -29v-28
q0 -176 -131 -301q-132 -125 -324 -125t-317 116t-148 311q-17 127 -17 308l-1 -1q0 190 17 306q21 180 143 303q121 123 317 123zM546 1833h86q32 0 41 -8t17 -17l221 -229q11 -11 3 -27t-26 -16h-121q-30 0 -63 33l-105 100q-13 13 -29 0l-102 -100q-33 -33 -62 -33
l-146 16q-8 16 3 27l221 229q25 25 62 25z" />
    <glyph glyph-name="ccircumflex" unicode="&#x109;" horiz-adv-x="978" 
d="M897 328q0 -152 -112 -250t-287 -98t-284 109t-120 265t0 314t120 266q109 109 284 109q175 -1 287 -99t112 -249q1 -17 -9 -29t-26 -12h-110q-15 0 -27 9t-12 24q0 74 -58 123t-156 49q-98 -1 -157 -59t-66 -146q-8 -143 0 -285q6 -89 65 -147t157 -58t155 48
q58 48 58 122q0 35 39 35h106q16 -1 28 -13t13 -28zM209 1198q-19 0 -27 16t3 27l222 229q25 25 61 25h86q32 0 41 -8t17 -17l222 -229q11 -11 4 -27t-27 -16h-121q-30 0 -63 33l-105 100q-14 13 -27 0l-103 -100q-33 -33 -62 -33h-121z" />
    <glyph glyph-name="Cdotaccent" unicode="&#x10a;" horiz-adv-x="1112" 
d="M568 1449q196 -1 328 -119t133 -307v-29q0 -16 -12 -28t-29 -13h-112q-16 1 -28 13t-13 28v29q-1 95 -75 163t-185 68t-185 -60t-89 -177q-15 -116 -15 -301t14 -296t86 -177q70 -66 180 -66t190 61t79 171v28q0 17 12 29t29 12h112q16 0 28 -12t13 -29v-28
q0 -176 -131 -301q-132 -125 -324 -125t-317 116t-148 311q-17 127 -17 308l-1 -1q0 190 17 306q21 180 143 303q121 123 317 123zM496 1536q-33 0 -33 33v141q-1 13 9 23t24 10h139q13 0 23 -10t10 -23v-141q0 -33 -33 -33h-139z" />
    <glyph glyph-name="cdotaccent" unicode="&#x10b;" horiz-adv-x="978" 
d="M897 328q0 -152 -112 -250t-287 -98t-284 109t-120 265t0 314t120 266q109 109 284 109q175 -1 287 -99t112 -249q1 -17 -9 -29t-26 -12h-110q-15 0 -27 9t-12 24q0 74 -58 123t-156 49q-98 -1 -157 -59t-66 -146q-8 -143 0 -285q6 -89 65 -147t157 -58t155 48
q58 48 58 122q0 35 39 35h106q16 -1 28 -13t13 -28zM420 1241q-33 0 -33 33v141q-1 13 9 23t24 10h139q13 0 23 -10t10 -23v-141q0 -33 -33 -33h-139z" />
    <glyph glyph-name="Ccaron" unicode="&#x10c;" horiz-adv-x="1112" 
d="M568 1449q196 -1 328 -119t132 -307v-29q0 -16 -12 -28t-29 -13h-112q-17 1 -29 13t-12 28v29q0 95 -74 163t-186 68q-111 0 -185 -60t-89 -177q-15 -116 -15 -301q1 -185 15 -296t85 -177t181 -66t188 61q80 61 80 171v28q0 17 12 29t29 12h112q17 0 29 -12t12 -29v-28
q0 -176 -131 -301t-323 -125t-318 116q-125 116 -148 311q-17 127 -17 308l-1 -1q0 190 17 306q21 180 143 303t318 123zM274 1833h121q31 0 64 -33l102 -100q14 -14 28 0l104 100q33 33 64 33h121q18 -1 26 -17t-3 -26l-221 -229q-25 -25 -59 -25h-86q-39 0 -62 25
l-221 229h-1q-11 10 -3 26t26 17z" />
    <glyph glyph-name="ccaron" unicode="&#x10d;" horiz-adv-x="978" 
d="M895 328q0 -152 -112 -250t-287 -98t-284 109t-120 265t0 314t120 266q109 109 284 109q175 -1 287 -99t112 -249q1 -17 -9 -29t-26 -12h-110q-15 0 -27 9t-12 24q0 74 -58 123t-156 49q-98 -1 -157 -59t-66 -146q-8 -143 0 -285q6 -89 65 -147t157 -58t155 48
q58 48 58 122q0 35 39 35h106q16 -1 28 -13t13 -28zM185 1495h121q31 0 64 -33l102 -100q14 -14 28 0l104 100q33 33 64 33h121q19 -1 27 -17t-4 -26l-221 -229q-25 -25 -59 -25h-86q-35 0 -44 8t-17 17l-221 229h-2q-12 10 -4 26t27 17z" />
    <glyph glyph-name="Dcaron" unicode="&#x10e;" horiz-adv-x="1101" 
d="M328 1219v-1003q0 -20 20 -20h215q92 0 158 69t79 169t13 283q1 181 -13 283t-80 170t-157 69h-215q-20 0 -20 -20zM174 0q-16 0 -28 12t-13 29v1352q1 17 13 29t28 12h389q173 0 291 -126t139 -304q15 -112 15 -265t-18 -323t-136 -293t-291 -123h-389zM207 1833h121
q30 0 63 -33l103 -100q14 -14 27 0l105 100q33 33 62 33h121q19 -1 27 -17t-3 -26q-236 -243 -237 -243l-6 -3t-5 -3q-10 -5 -32 -5h-86q-35 0 -44 8t-17 17l-222 229q-11 10 -4 26t27 17z" />
    <glyph glyph-name="dcaron" unicode="&#x10f;" horiz-adv-x="1173" 
d="M480 1044q59 0 104 -20t58 -26q13 -5 33 -5q41 0 41 51v363q0 17 12 29t29 12h102q17 0 29 -12t12 -29v-1366q0 -17 -12 -29t-29 -12h-69q-17 0 -30 15q-14 16 -26 24q-28 22 -92 -19q-64 -40 -161 -40q-157 0 -267 112t-121 277l-1 -1q-8 144 2 298t120 266t266 112z
M502 165q102 0 166 59t70 146q8 142 0 285q-6 87 -70 146t-166 59t-166 -60t-69 -145q-8 -143 0 -285q5 -87 69 -146t166 -59zM1045 1268v125q1 17 13 29t28 12h144q16 0 28 -12t13 -29v-125q0 -67 -41 -127l-66 -94q-19 -31 -53 -31h-18q-28 0 -40 22t2 45l63 117
q6 9 -1 18t-17 9l-42 12q-12 12 -13 29z" />
    <glyph glyph-name="Dcroat" unicode="&#x110;" horiz-adv-x="1101" 
d="M328 614v-399q0 -20 20 -20h215q92 0 158 69q66 70 79 170t13 282q1 182 -13 284t-80 170t-157 68h-215q-20 0 -20 -20v-369q0 -18 20 -20h205q17 0 29 -12t12 -29v-112q0 -16 -12 -28t-29 -13h-205q-20 0 -20 -21zM47 635q-17 0 -29 12t-12 29v112q0 16 12 28t29 13h66
q20 0 20 21v543q1 17 13 29t28 12h389q173 0 291 -126t139 -304q15 -112 15 -265t-18 -323t-136 -293t-291 -123h-389q-16 0 -28 12t-13 29v573q0 21 -20 21h-66z" />
    <glyph glyph-name="dcroat" unicode="&#x111;" horiz-adv-x="1034" 
d="M478 1044q59 0 104 -20t58 -26t33 -5q41 0 41 51v76q0 21 -21 21h-143q-16 0 -28 12t-13 29v82q1 16 13 28t28 13h143q21 0 21 20v82q0 17 12 29t29 12h102q17 0 29 -12t12 -29v-82q0 -20 21 -20h71q16 -1 28 -13t13 -28v-82q0 -16 -12 -28t-29 -13h-71q-19 0 -20 -21
v-1079q0 -17 -12 -29t-29 -12h-69q-15 0 -29 15q-14 16 -26 24q-28 22 -93 -19q-64 -40 -161 -40q-156 0 -266 112t-122 277l-2 -1q-8 144 2 298t120 266t266 112zM502 165q102 0 166 59t69 146q8 142 0 285q-5 87 -69 146t-166 59t-166 -60t-70 -145q-8 -143 0 -285
q6 -87 70 -146t166 -59z" />
    <glyph glyph-name="Emacron" unicode="&#x112;" horiz-adv-x="962" 
d="M174 0v-1q-16 1 -28 13t-13 28v1352q1 16 13 28t28 13h662q16 -1 28 -13t13 -28v-113q-1 -17 -13 -29t-28 -12h-488q-20 0 -20 -20v-369q0 -18 20 -20h465q17 0 29 -12t12 -29v-112q0 -16 -12 -28t-29 -13h-465q-20 0 -20 -21v-399q0 -20 20 -20h492q16 -1 28 -13t13 -28
v-113q-1 -17 -13 -29t-28 -12h-666zM254 1556q-16 0 -28 12t-13 29v78q1 17 13 29t28 12h496q16 0 28 -12t13 -29v-78q-1 -17 -13 -29t-28 -12h-496z" />
    <glyph glyph-name="emacron" unicode="&#x113;" horiz-adv-x="1007" 
d="M513 859v-1q-105 0 -170 -64t-65 -159q0 -18 20 -20h426q20 0 20 21q0 103 -66 163t-165 60zM514 1044q184 0 295 -109t111 -300v-141q0 -16 -12 -28t-29 -13h-586q-19 0 -20 -21q-1 -136 63 -202t159 -66t152 36t75 93q10 35 47 35h104q17 0 28 -10t7 -31
q-20 -139 -129 -223t-278 -84t-283 110t-126 279l-1 -1q-9 144 2 300t125 266q112 110 296 110zM256 1262q-16 0 -28 12t-13 29v77q1 16 13 28t28 13h496q16 0 28 -12t13 -29v-77q-1 -17 -13 -29t-28 -12h-496z" />
    <glyph glyph-name="Ebreve" unicode="&#x114;" horiz-adv-x="962" 
d="M174 0v-1q-16 1 -28 13t-13 28v1352q1 16 13 28t28 13h662q16 -1 28 -13t13 -28v-113q-1 -17 -13 -29t-28 -12h-488q-20 0 -20 -20v-369q0 -18 20 -20h465q17 0 29 -12t12 -29v-112q0 -16 -12 -28t-29 -13h-465q-20 0 -20 -21v-399q0 -20 20 -20h492q16 -1 28 -13t13 -28
v-113q-1 -17 -13 -29t-28 -12h-666zM629 1794q0 40 35 41h88q14 0 24 -10t10 -25q0 -110 -80 -186t-201 -76t-201 76t-81 186q1 14 11 24t24 11h88q16 0 26 -10t9 -25q1 -46 39 -80t86 -34t86 34t37 74z" />
    <glyph glyph-name="ebreve" unicode="&#x115;" horiz-adv-x="1007" 
d="M513 859v-1q-105 0 -170 -64t-65 -159q0 -18 20 -20h426q20 0 20 21q0 103 -66 163t-165 60zM514 1044q184 0 295 -109t111 -300v-141q0 -16 -12 -28t-29 -13h-586q-19 0 -20 -21q-1 -136 63 -202t159 -66t152 36t75 93q10 35 47 35h104q17 0 28 -10t7 -31
q-20 -139 -129 -223t-278 -84t-283 110t-126 279l-1 -1q-9 144 2 300t125 266q112 110 296 110zM627 1454q0 40 35 41h88q14 0 24 -10t10 -25q0 -110 -80 -186t-201 -76t-201 76t-81 186q1 14 11 24t24 11h88q16 0 26 -10t9 -25q1 -46 39 -80t86 -34t86 34t37 74z" />
    <glyph glyph-name="Edotaccent" unicode="&#x116;" horiz-adv-x="962" 
d="M174 0v-1q-16 1 -28 13t-13 28v1352q1 16 13 28t28 13h662q16 -1 28 -13t13 -28v-113q-1 -17 -13 -29t-28 -12h-488q-20 0 -20 -20v-369q0 -18 20 -20h465q17 0 29 -12t12 -29v-112q0 -16 -12 -28t-29 -13h-465q-20 0 -20 -21v-399q0 -20 20 -20h492q16 -1 28 -13t13 -28
v-113q-1 -17 -13 -29t-28 -12h-666zM434 1536q-33 0 -33 33v141q-1 13 9 23t24 10h139q13 0 23 -10t10 -23v-141q0 -33 -33 -33h-139z" />
    <glyph glyph-name="edotaccent" unicode="&#x117;" horiz-adv-x="1007" 
d="M513 859v-1q-105 0 -170 -64t-65 -159q0 -18 20 -20h426q20 0 20 21q0 103 -66 163t-165 60zM514 1044q184 0 295 -109t111 -300v-141q0 -16 -12 -28t-29 -13h-586q-19 0 -20 -21q-1 -136 63 -202t159 -66t152 36t75 93q10 35 47 35h104q17 0 28 -10t7 -31
q-20 -139 -129 -223t-278 -84t-283 110t-126 279l-1 -1q-9 144 2 300t125 266q112 110 296 110zM455 1241q-33 0 -33 33v141q0 13 10 23t23 10h139q14 0 24 -10t9 -23v-141q0 -33 -33 -33h-139z" />
    <glyph glyph-name="Eogonek" unicode="&#x118;" horiz-adv-x="962" 
d="M132 40v1352q0 16 12 28t29 13h662q17 -1 29 -13t12 -28v-113q0 -17 -12 -29t-29 -12h-488q-20 0 -20 -20v-369q0 -18 20 -20h465q16 0 28 -12t13 -29v-112q-1 -16 -13 -28t-28 -13h-465q-20 0 -20 -21v-399q0 -20 20 -20h492q17 -1 29 -13t12 -28v-113q0 -17 -12 -29
t-29 -12h-2q-73 0 -119 -37t-45 -104q0 -135 155 -135q16 0 28 -12t13 -29v-72q0 -17 -12 -29t-29 -12q-142 0 -234 76t-91 202q0 95 54 152h-383l-1 -1q-17 1 -29 13t-12 28z" />
    <glyph glyph-name="eogonek" unicode="&#x119;" horiz-adv-x="1007" 
d="M515 860v-1q-105 1 -170 -63t-65 -160q0 -18 20 -20h426q20 0 20 21q0 103 -66 163t-165 60zM516 1045q184 0 295 -109t111 -300v-141q0 -17 -12 -29t-29 -12h-586q-19 0 -20 -21q-1 -137 63 -203t159 -65q95 -1 152 35t75 94q10 35 47 35h104q17 -1 28 -11t7 -30
q-17 -107 -85 -181q-11 -13 -45 -50t-58 -72q-50 -69 -50 -126q0 -135 166 -135q16 0 28 -12t13 -29v-72q-1 -17 -13 -29t-28 -12q-160 0 -248 70t-88 208q0 62 41 134q-14 -2 -32 -2q-179 0 -293 110t-126 279h1q-9 143 2 299t125 266q112 110 296 111z" />
    <glyph glyph-name="Ecaron" unicode="&#x11a;" horiz-adv-x="962" 
d="M174 0v-1q-16 1 -28 13t-13 28v1352q1 16 13 28t28 13h662q16 -1 28 -13t13 -28v-113q-1 -17 -13 -29t-28 -12h-488q-20 0 -20 -20v-369q0 -18 20 -20h465q17 0 29 -12t12 -29v-112q0 -16 -12 -28t-29 -13h-465q-20 0 -20 -21v-399q0 -20 20 -20h492q16 -1 28 -13t13 -28
v-113q-1 -17 -13 -29t-28 -12h-666zM195 1833h120q31 0 64 -33l102 -100q14 -14 28 0l104 100q33 33 64 33h121q18 -1 26 -17t-3 -26l-221 -229q-25 -25 -59 -25h-86q-39 0 -62 25l-221 229q-11 10 -4 26t27 17z" />
    <glyph glyph-name="ecaron" unicode="&#x11b;" horiz-adv-x="1007" 
d="M513 859v-1q-105 0 -170 -64t-65 -159q0 -18 20 -20h426q20 0 20 21q0 103 -66 163t-165 60zM514 1044q184 0 295 -109t111 -300v-141q0 -16 -12 -28t-29 -13h-586q-19 0 -20 -21q-1 -136 63 -202t159 -66t152 36t75 93q10 35 47 35h104q17 0 28 -10t7 -31
q-20 -139 -129 -223t-278 -84t-283 110t-126 279l-1 -1q-9 144 2 300t125 266q112 110 296 110zM211 1495h121q34 0 63 -33l103 -100q14 -14 27 0l105 100q33 33 62 33h121q19 -1 27 -17t-3 -26q-236 -243 -237 -243l-6 -3t-5 -3q-10 -5 -32 -5h-86q-35 0 -44 8t-17 17
l-222 229q-11 10 -4 26t27 17z" />
    <glyph glyph-name="Gcircumflex" unicode="&#x11c;" horiz-adv-x="1118" 
d="M93 718h-1q0 190 17 306q21 180 143 303t318 123t328 -118t132 -308v-29q0 -17 -12 -29t-29 -12h-112q-17 0 -29 12t-12 29v29q0 95 -74 163t-186 68q-111 -1 -185 -61t-89 -176t-15 -301q1 -185 15 -296t85 -177t183 -66t189 59t77 173v172q0 20 -21 20h-186
q-17 0 -29 12t-12 29v113q0 16 12 28t29 13h360q17 -1 29 -13t12 -28v-346q0 -181 -129 -304t-323 -123t-320 116q-125 116 -148 311q-17 127 -17 308zM527 1833h86q31 0 41 -8t18 -17l221 -229q11 -11 4 -27t-27 -16h-120q-31 0 -64 33l-104 100q-13 13 -29 0l-102 -100
q-33 -33 -64 -33l-147 16q-8 16 5 27l221 229q25 25 61 25z" />
    <glyph glyph-name="gcircumflex" unicode="&#x11d;" horiz-adv-x="1028" 
d="M718 -16q0 50 -37 48q-26 -2 -82 -27q-57 -25 -116 -25q-157 0 -266 112t-120 266t-1 308t120 266t267 112q90 0 150 -33q52 -34 76 -34q25 -1 47 23t35 24h69q16 0 28 -12t13 -29v-1044q0 -152 -108 -260q-107 -108 -259 -108t-256 73t-123 206q-6 46 36 48h99
q31 0 38 -10q15 -23 15 -31q42 -103 184 -103q81 0 136 51t55 134v45zM504 165q102 0 166 59t70 146q8 142 0 285q-6 87 -70 146t-166 59t-166 -60t-69 -145q-8 -143 0 -285q5 -87 69 -146t166 -59zM496 1495h86q32 0 41 -8t17 -17l221 -229q11 -11 3 -27t-26 -16h-121
q-31 0 -64 33l-104 100q-13 13 -29 0l-102 -100q-33 -33 -64 -33l-144 16q-8 16 3 27l221 229q25 25 62 25z" />
    <glyph glyph-name="Gbreve" unicode="&#x11e;" horiz-adv-x="1118" 
d="M92 718h-1q0 190 17 306q21 180 143 303q121 123 317 123t328 -118t133 -308v-29q0 -17 -12 -29t-29 -12h-112q-16 0 -28 12t-13 29v29q-1 95 -75 163t-185 68q-111 -1 -185 -61t-89 -176t-15 -301t14 -296t86 -177q71 -66 183 -66t189 59t77 173v172q0 20 -21 20h-186
q-16 0 -28 12t-13 29v113q0 16 12 28t29 13h360q16 -1 28 -13t13 -28v-346q0 -181 -129 -304q-130 -123 -324 -123t-319 116t-148 311q-17 127 -17 308zM682 1792q0 41 35 41h88q15 -1 25 -11t10 -24q0 -110 -80 -186t-202 -76t-202 76t-80 186q0 14 10 24t25 11h88
q15 0 25 -10t10 -25q0 -46 38 -80t87 -35q47 0 85 34t38 75z" />
    <glyph glyph-name="gbreve" unicode="&#x11f;" horiz-adv-x="1028" 
d="M715 -16q0 50 -37 48q-26 -2 -82 -27q-57 -25 -116 -25q-157 0 -266 112t-120 266q-10 154 0 308t120 266t266 112q90 0 150 -33q52 -34 76 -34q24 -1 46 23t36 24h69q17 0 29 -12t12 -29v-1044q0 -152 -108 -260t-260 -108t-255 73q-104 73 -123 206q-6 46 36 48h99
q31 0 38 -10q15 -23 15 -31q42 -103 184 -103q81 0 136 51t55 134v45zM502 165q102 0 166 59t69 146q8 142 0 285q-5 87 -69 146t-166 59t-166 -60t-70 -145q-8 -143 0 -285q6 -87 70 -146t166 -59zM637 1454q0 40 35 41h88q14 0 24 -10t11 -25q-1 -110 -81 -186t-201 -76
t-201 76t-81 186q1 14 11 24t24 11h88q16 0 26 -10t9 -25q1 -46 39 -80t86 -34t86 34t37 74z" />
    <glyph glyph-name="Gdotaccent" unicode="&#x120;" horiz-adv-x="1118" 
d="M92 718h-1q0 190 17 306q21 180 143 303q121 123 317 123t328 -118t133 -308v-29q0 -17 -12 -29t-29 -12h-112q-16 0 -28 12t-13 29v29q-1 95 -75 163t-185 68q-111 -1 -185 -61t-89 -176t-15 -301t14 -296t86 -177q71 -66 183 -66t189 59t77 173v172q0 20 -21 20h-186
q-16 0 -28 12t-13 29v113q0 16 12 28t29 13h360q16 -1 28 -13t13 -28v-346q0 -181 -129 -304q-130 -123 -324 -123t-319 116t-148 311q-17 127 -17 308zM504 1536q-33 0 -33 33v141q-1 13 9 23t24 10h139q13 0 23 -10t10 -23v-141q0 -33 -33 -33h-139z" />
    <glyph glyph-name="gdotaccent" unicode="&#x121;" horiz-adv-x="1028" 
d="M715 -16q0 50 -37 48q-26 -2 -82 -27q-57 -25 -116 -25q-157 0 -266 112t-120 266q-10 154 0 308t120 266t266 112q90 0 150 -33q52 -34 76 -34q24 -1 46 23t36 24h69q17 0 29 -12t12 -29v-1044q0 -152 -108 -260t-260 -108t-255 73q-104 73 -123 206q-6 46 36 48h99
q31 0 38 -10q15 -23 15 -31q42 -103 184 -103q81 0 136 51t55 134v45zM502 165q102 0 166 59t69 146q8 142 0 285q-5 87 -69 146t-166 59t-166 -60t-70 -145q-8 -143 0 -285q6 -87 70 -146t166 -59zM444 1241q-32 0 -32 33v141q0 13 9 23t23 10h140q14 0 23 -10t9 -23v-141
q0 -33 -32 -33h-140z" />
    <glyph glyph-name="Gcommaaccent" unicode="&#x122;" horiz-adv-x="1118" 
d="M514 -92h143q17 0 29 -12t12 -29v-125q0 -68 -41 -127l-65 -94q-19 -31 -52 -31h-19q-28 0 -39 22t2 46l64 116q6 9 0 18t-19 9h-14q-17 1 -29 13t-12 28l-1 125q1 17 13 29t28 12zM92 718h-1q0 190 17 306q21 180 143 303q121 123 317 123t328 -118t133 -308v-29
q0 -17 -12 -29t-29 -12h-112q-16 0 -28 12t-13 29v29q-1 95 -75 163t-185 68q-111 -1 -185 -61t-89 -176t-15 -301t14 -296t86 -177q71 -66 183 -66t189 59t77 173v172q0 20 -21 20h-186q-16 0 -28 12t-13 29v113q0 16 12 28t29 13h360q16 -1 28 -13t13 -28v-346
q0 -181 -129 -304q-130 -123 -324 -123t-319 116t-148 311q-17 127 -17 308z" />
    <glyph glyph-name="gcommaaccent" unicode="&#x123;" horiz-adv-x="1028" 
d="M715 -16q0 50 -37 48q-26 -2 -82 -27q-57 -25 -116 -25q-157 0 -266 112t-120 266q-10 154 0 308t120 266t266 112q90 0 150 -33q52 -34 76 -34q24 -1 46 23t36 24h69q17 0 29 -12t12 -29v-1044q0 -152 -108 -260t-260 -108t-255 73q-104 73 -123 206q-6 46 36 48h99
q31 0 38 -10q15 -23 15 -31q42 -103 184 -103q81 0 136 51t55 134v45zM502 165q102 0 166 59t69 146q8 142 0 285q-5 87 -69 146t-166 59t-166 -60t-70 -145q-8 -143 0 -285q6 -87 70 -146t166 -59zM430 1180q-16 0 -28 12t-13 29v125q0 66 41 127l66 94q18 30 53 30h18
q28 -1 39 -23t-2 -44l-63 -117q-6 -9 1 -18t17 -9h14q17 0 29 -12t12 -28v-125q0 -17 -12 -29t-29 -12h-143z" />
    <glyph glyph-name="Hcircumflex" unicode="&#x124;" horiz-adv-x="1146" 
d="M176 0v-1q-16 1 -28 13t-13 28v1352q1 16 13 28t28 13h113q17 -1 29 -13t12 -28v-543q0 -18 20 -20h451q20 0 20 21v543q1 17 13 29t28 12h113q17 0 29 -12t12 -29v-1352q0 -17 -12 -29t-29 -12h-113q-16 0 -28 12t-13 29v573q0 21 -20 21h-451q-20 0 -20 -21v-573
q0 -17 -12 -29t-29 -12h-113zM531 1833h86q31 0 41 -8t18 -17l221 -229q11 -11 4 -27t-27 -16h-120q-31 0 -64 33l-104 100q-13 13 -29 0l-102 -100q-33 -33 -64 -33l-145 16q-8 16 3 27l221 229q25 25 61 25z" />
    <glyph glyph-name="hcircumflex" unicode="&#x125;" horiz-adv-x="1052" 
d="M176 0q-16 0 -28 12t-13 29v1366q1 17 13 29t28 12h102q16 0 28 -12t13 -29v-371q1 -16 13 -30t26 -13q14 -1 25 3q10 4 29 12t53 22t88 14q161 0 275 -113t114 -276v-614q0 -17 -12 -29t-29 -12h-102q-17 0 -29 12t-12 29v614q0 83 -62 143q-69 62 -160 62t-154 -57
t-63 -137v-625q0 -17 -12 -29t-29 -12h-102zM443 1833h86q31 0 41 -8t18 -17l221 -229q11 -11 4 -27t-27 -16h-120q-31 0 -64 33l-104 100q-13 13 -29 0l-102 -100q-33 -33 -64 -33l-145 16q-8 16 3 27l221 229q25 25 61 25z" />
    <glyph glyph-name="Hbar" unicode="&#x126;" horiz-adv-x="1146" 
d="M174 -1v-1q-16 0 -28 12t-13 29v1352q1 17 13 29t28 12h113q17 0 29 -12t12 -29v-164q0 -18 20 -20h451q20 0 20 21v164q1 16 13 28t28 13h113q17 -1 29 -13t12 -28v-1352q0 -16 -12 -28t-29 -13h-113q-16 1 -28 13t-13 28v573q0 21 -20 21h-451q-20 0 -20 -21v-573
q0 -16 -12 -28t-29 -13h-113zM328 1014v-165q0 -18 20 -20h451q20 0 20 21v164q0 20 -20 20h-451q-20 0 -20 -20z" />
    <glyph glyph-name="hbar" unicode="&#x127;" horiz-adv-x="1052" 
d="M113 1141h-73q-16 0 -28 12t-13 29v82q1 16 13 28t28 13h72q20 0 20 20v82q0 17 12 29t29 12h102q17 0 29 -12t12 -29v-82q0 -20 21 -20h143q16 -1 28 -13t13 -28v-82q0 -16 -12 -28t-29 -13h-143q-19 0 -20 -21v-84q1 -16 13 -30t26 -13q14 -1 25 3q10 4 29 12t53 22
t88 14q161 0 275 -113t114 -276v-614q0 -17 -12 -29t-29 -12h-102q-17 0 -29 12t-12 29v614q0 83 -62 143q-69 62 -160 62t-154 -57t-63 -137v-625q0 -17 -12 -29t-29 -12h-102q-16 0 -28 12t-13 29v1079q0 21 -20 21z" />
    <glyph glyph-name="Itilde" unicode="&#x128;" horiz-adv-x="460" 
d="M173 1q-17 1 -29 13t-12 28v1352q0 16 12 28t29 13h113q16 -1 28 -13t13 -28v-1352q-1 -16 -13 -28t-28 -13h-113zM-56 1586v82q0 42 42 74t103 31q60 0 140 -26q81 -26 145 -26t97 43q11 18 31 8t20 -37v-82q0 -41 -42 -73t-104 -32t-140 26t-143 25q-65 0 -97 -43l-1 1
q-11 -15 -31 -7t-20 36z" />
    <glyph glyph-name="itilde" unicode="&#x129;" horiz-adv-x="471" 
d="M183 1q-17 1 -29 13t-12 28v942q0 16 12 28t29 13h107q16 -1 28 -13t13 -28v-942q-1 -16 -13 -28t-28 -13h-107zM-54 1267v82q0 42 42 73t104 31q62 1 138 -25t144 -26q69 0 99 43q11 17 31 7t20 -37v-82q0 -42 -42 -73t-106 -31q-64 -1 -140 25t-140 26t-98 -43l-1 1
q-11 -16 -31 -8t-20 37z" />
    <glyph glyph-name="Imacron" unicode="&#x12a;" horiz-adv-x="460" 
d="M174 0q-16 0 -28 12t-13 29v1352q1 17 13 29t28 12h113q17 0 29 -12t12 -29v-1352q0 -17 -12 -29t-29 -12h-113zM-16 1559q-16 0 -28 12t-13 28v78q0 17 12 29t29 12h495q17 0 29 -12t12 -29v-78q0 -16 -12 -28t-29 -12h-495z" />
    <glyph glyph-name="imacron" unicode="&#x12b;" horiz-adv-x="471" 
d="M184 0q-16 0 -28 12t-13 29v942q1 17 13 29t28 12h107q17 0 29 -12t12 -29v-942q0 -17 -12 -29t-29 -12h-107zM-12 1262q-16 0 -28 12t-13 29v77q0 16 12 28t29 13h495q17 0 29 -12t12 -29v-77q0 -17 -12 -29t-29 -12h-495z" />
    <glyph glyph-name="Ibreve" unicode="&#x12c;" horiz-adv-x="460" 
d="M174 0q-16 0 -28 12t-13 29v1352q1 17 13 29t28 12h113q17 0 29 -12t12 -29v-1352q0 -17 -12 -29t-29 -12h-113zM-51 1798q0 14 10 24t25 11h88q14 0 24 -10t10 -25q0 -46 38 -80t87 -35q47 0 85 34t38 81q0 15 10 25t25 10h88q15 -1 25 -11t10 -24q0 -110 -80 -186
t-202 -76q-120 0 -200 76t-81 186z" />
    <glyph glyph-name="ibreve" unicode="&#x12d;" horiz-adv-x="471" 
d="M184 0q-16 0 -28 12t-13 29v942q1 17 13 29t28 12h107q17 0 29 -12t12 -29v-942q0 -17 -12 -29t-29 -12h-107zM-45 1460q0 14 10 24t25 11h88q16 0 26 -10t9 -25q0 -46 38 -80q39 -34 87 -34t85 34t37 80q0 15 10 25t25 10h88q15 0 25 -10t10 -25q0 -110 -80 -186
t-202 -76q-120 0 -200 76t-81 186z" />
    <glyph glyph-name="Iogonek" unicode="&#x12e;" horiz-adv-x="460" 
d="M287 -430q-153 0 -245 72t-91 206q0 94 50 162t132 107v1276q1 17 13 29t28 12h113q17 0 29 -12t12 -29v-1352q0 -17 -12 -29t-29 -12q-74 0 -120 -38t-46 -103q0 -135 166 -135q17 0 29 -12t12 -29v-72q0 -17 -12 -29t-29 -12z" />
    <glyph glyph-name="iogonek" unicode="&#x12f;" horiz-adv-x="471" 
d="M291 -430q-153 0 -245 72t-91 206q1 95 53 165t135 108v862q1 17 13 29t28 12h107q17 0 29 -12t12 -29v-942q0 -17 -12 -29t-29 -12h-15q-70 -4 -110 -40t-41 -101q0 -135 166 -135q17 0 29 -12t12 -29v-72q0 -17 -12 -29t-29 -12zM166 1241q-33 0 -33 33v141q-1 13 9 23
t24 10h139q13 0 23 -10t10 -23v-141q0 -33 -33 -33h-139z" />
    <glyph glyph-name="Idotaccent" unicode="&#x130;" horiz-adv-x="460" 
d="M174 0q-16 0 -28 12t-13 29v1352q1 17 13 29t28 12h113q17 0 29 -12t12 -29v-1352q0 -17 -12 -29t-29 -12h-113zM162 1536q-33 0 -33 33v141q-1 13 9 23t24 10h139q13 0 23 -10t10 -23v-141q0 -33 -33 -33h-139z" />
    <glyph glyph-name="dotlessi" unicode="&#x131;" horiz-adv-x="471" 
d="M184 0q-16 0 -28 12t-13 29v942q1 17 13 29t28 12h107q17 0 29 -12t12 -29v-942q0 -17 -12 -29t-29 -12h-107z" />
    <glyph glyph-name="IJ" unicode="&#x132;" horiz-adv-x="1032" 
d="M174 0q-16 0 -28 12t-13 29v1352q1 17 13 29t28 12h113q17 0 29 -12t12 -29v-1352q0 -17 -12 -29t-29 -12h-113zM492 -16q-16 0 -28 12t-13 29v112q1 17 13 29t28 12q99 0 167 66t68 187v963q1 16 13 28t28 13h113q17 -1 29 -13t12 -28v-983q0 -191 -124 -309t-306 -118z
" />
    <glyph glyph-name="ij" unicode="&#x133;" horiz-adv-x="899" 
d="M184 -1q-16 1 -28 13t-13 28v942q1 16 13 28t28 13h107q17 -1 29 -13t12 -28v-942q0 -16 -12 -28t-29 -13h-107zM236 -389v101q0 16 12 28t28 13h107q80 0 132 51t52 134v1044q1 16 13 28t28 13h109q17 -1 29 -13t12 -28v-1044q0 -152 -108 -260t-267 -108h-107
q-16 0 -28 12t-12 29zM166 1241q-33 0 -33 33v141q-1 13 9 23t24 10h139q13 0 23 -10t10 -23v-141q0 -33 -33 -33h-139zM594 1241q-33 0 -33 33v141q-1 13 9 23t24 10h139q13 0 23 -10t10 -23v-141q0 -33 -33 -33h-139z" />
    <glyph glyph-name="Jcircumflex" unicode="&#x134;" horiz-adv-x="980" 
d="M11 410v28q1 16 13 28t28 13h113q17 0 29 -12t12 -29v-28q0 -100 70 -166t167 -66t165 66t69 187v963q0 16 12 28t29 13h112q16 -1 28 -13t13 -28v-983q0 -191 -124 -309t-306 -118t-304 124h1q-127 125 -127 302zM469 1536q-19 0 -27 16t3 27l222 229q25 25 61 25h86
q32 0 41 -8t17 -17l222 -229q11 -11 4 -27t-27 -16h-121q-30 0 -63 33l-105 100q-14 13 -27 0l-103 -100q-33 -33 -62 -33h-121z" />
    <glyph glyph-name="jcircumflex" unicode="&#x135;" horiz-adv-x="540" 
d="M-125 -389v101q1 16 13 28t28 13h107q80 0 132 51t52 134v1044q0 16 12 28t29 13h108q16 -1 28 -13t13 -28v-1044q0 -152 -107 -260t-267 -108h-107q-16 0 -28 12t-13 29zM125 1198h-123q-18 0 -26 16t4 27l221 229q25 25 61 25h86q31 1 41 -7q9 -8 19 -18l221 -229
q11 -11 4 -27t-27 -16h-121q-30 0 -63 33l-105 100q-13 13 -27 0l-103 -100q-33 -33 -62 -33z" />
    <glyph glyph-name="Kcommaaccent" unicode="&#x136;" horiz-adv-x="1021" 
d="M391 -90h144q16 0 28 -12t12 -29v-125q0 -67 -40 -127l-66 -94q-19 -31 -52 -31h-19q-28 0 -39 22t2 46l64 116q6 9 -1 18t-17 9h-15q-16 1 -28 13t-13 28l-1 125q0 17 12 29t29 12zM134 43v1352q0 17 12 29t29 12h113q16 0 28 -12t13 -29v-492q0 -9 6 -9t10 4l397 516
q13 21 44 21h113q29 0 41 -26t-5 -48l-467 -596q-21 -26 -2 -49l524 -639q18 -20 6 -48t-44 -28h-129q-19 0 -25 4q-7 4 -10 5t-10 11l-434 543q-4 4 -10 4t-6 -9v-518q0 -17 -12 -29t-29 -12h-113l1 2q-17 0 -29 12t-12 29z" />
    <glyph glyph-name="kcommaaccent" unicode="&#x137;" horiz-adv-x="899" 
d="M374 -258v125q0 17 12 29t29 12h143q16 0 28 -12t13 -29v-125q0 -65 -41 -127l-65 -94q-19 -31 -54 -31h-18q-28 0 -39 22t2 46l63 116q6 9 -1 18t-17 9h-14q-17 1 -29 13t-12 28zM134 41v1366q0 17 12 29t29 12h102q17 0 29 -12t12 -29v-713q0 -8 6 -9t11 5l293 307
q1 1 6 7q19 20 45 20h117q31 0 41 -26t-9 -42l-370 -395q-23 -23 0 -49l409 -444q19 -20 7 -44t-40 -24h-138q-21 0 -29 7l-15 15l-9 9l-309 336q-4 5 -10 4t-7 -9v-321q0 -17 -12 -29t-29 -12l-130 12q-12 12 -12 29z" />
    <glyph glyph-name="kgreenlandic" unicode="&#x138;" horiz-adv-x="886" 
d="M124 42v942q0 16 12 28t29 13h102q17 -1 29 -13t12 -28v-299q0 -8 6 -9t11 5q326 330 331 334q13 10 33 10h117q31 1 40 -25t-7 -43l-392 -395q-23 -23 0 -49l441 -444q16 -23 6 -45t-40 -23h-147q-21 -1 -30 7l-24 24l-329 342q-4 4 -10 4t-7 -9v-328q0 -17 -12 -29
t-29 -12h-102l1 1q-17 1 -29 13t-12 28z" />
    <glyph glyph-name="Lacute" unicode="&#x139;" horiz-adv-x="868" 
d="M173 0q-17 0 -29 12t-12 29v1352q0 17 12 29t29 12h113q16 0 28 -12t13 -29v-1178q0 -20 20 -20h459q16 -1 28 -13t13 -28v-113q-1 -17 -13 -29t-28 -12h-633zM346 1536h-83q-19 0 -29 16t1 25l155 223q1 1 5 7l9 9l6 6t6 4q12 8 27 7h162q19 -1 27 -17t-3 -26l-221 -229
q-25 -25 -62 -25z" />
    <glyph glyph-name="lacute" unicode="&#x13a;" horiz-adv-x="450" 
d="M173 0q-17 0 -29 12t-12 29v1366q0 17 12 29t29 12h102q17 0 29 -12t12 -29v-1366q0 -17 -12 -29t-29 -12h-102zM221 1536h-83q-18 0 -28 16t0 25l155 223q1 1 5 7q4 5 8 9l6 6t7 4q12 8 27 7h162q19 -1 27 -17t-3 -26l-221 -229q-25 -25 -62 -25z" />
    <glyph glyph-name="Lcommaaccent" unicode="&#x13b;" horiz-adv-x="868" 
d="M390 -92h144q16 0 28 -12t12 -29v-125q0 -67 -40 -127l-66 -94q-19 -31 -52 -31h-19q-28 0 -39 22t2 46l64 116q6 9 -1 18t-17 9h-15q-17 1 -29 13t-12 28l-1 125q1 17 13 29t28 12zM174 0q-16 0 -28 12t-13 29v1352q1 17 13 29t28 12h113q17 0 29 -12t12 -29v-1178
q0 -20 20 -20h459q17 -1 29 -13t12 -28v-113q0 -17 -12 -29t-29 -12h-633z" />
    <glyph glyph-name="lcommaaccent" unicode="&#x13c;" horiz-adv-x="450" 
d="M115 -258v125q0 17 12 29t29 12h143q17 0 29 -12t12 -29v-125q0 -65 -41 -127l-66 -94q-19 -31 -53 -31h-18q-28 0 -39 22t2 46l63 116q6 9 -1 18t-17 9h-14q-16 1 -28 13t-13 28zM174 0q-16 0 -28 12t-13 29v1366q1 17 13 29t28 12h102q16 0 28 -12t13 -29v-1366
q0 -17 -12 -29t-29 -12h-102z" />
    <glyph glyph-name="Lcaron" unicode="&#x13d;" horiz-adv-x="868" 
d="M175 0q-17 0 -29 12t-12 29v1352q0 17 12 29t29 12h113q16 0 28 -12t13 -29v-1178q0 -20 20 -20h459q16 -1 28 -13t13 -28v-113q-1 -17 -13 -29t-28 -12h-633zM493 1268v125q0 17 12 29t28 12h144q17 0 29 -12t12 -29v-125q0 -67 -41 -127l-66 -94q-19 -31 -53 -31h-18
q-28 0 -40 22t2 45l63 117q6 9 -1 18t-17 9l-42 12q-12 12 -12 29z" />
    <glyph glyph-name="lcaron" unicode="&#x13e;" horiz-adv-x="778" 
d="M502 1227q-16 0 -28 12t-13 29v125q0 17 12 29t29 12h143q17 0 29 -12t12 -29v-125q0 -70 -41 -127l-65 -94q-19 -31 -54 -31h-18q-28 0 -39 22t2 45l64 117q7 9 -1 18t-18 9h-14zM174 0q-16 0 -28 12t-13 29v1366q1 17 13 29t28 12h102q16 0 28 -12t13 -29v-1366
q0 -17 -12 -29t-29 -12h-102z" />
    <glyph glyph-name="Ldot" unicode="&#x13f;" horiz-adv-x="868" 
d="M541 512q-33 0 -33 33v141q0 13 10 23t23 10h139q14 0 24 -10t9 -23v-141q0 -33 -33 -33h-139zM174 0q-16 0 -28 12t-13 29v1352q1 17 13 29t28 12h113q17 0 29 -12t12 -29v-1178q0 -20 20 -20h459q17 -1 29 -13t12 -28v-113q0 -17 -12 -29t-29 -12h-633z" />
    <glyph glyph-name="ldot" unicode="&#x140;" horiz-adv-x="724" 
d="M459 512q-33 0 -33 33v141q0 13 10 23t23 10h139q14 0 24 -10t9 -23v-141q0 -33 -33 -33h-139zM174 0q-16 0 -28 12t-13 29v1366q1 17 13 29t28 12h102q16 0 28 -12t13 -29v-1366q0 -17 -12 -29t-29 -12h-102z" />
    <glyph glyph-name="Lslash" unicode="&#x141;" horiz-adv-x="868" 
d="M-10 445v99q0 35 30 56l97 68q16 12 16 28v699q1 17 13 29t28 12h113q17 0 29 -12t12 -29v-557q0 -6 6 -10t12 1l238 168q14 11 32 1t19 -30v-107q0 -33 -41 -61l-254 -181q-12 -11 -12 -21v-383q0 -20 20 -20h459q17 -1 29 -13t12 -28v-113q0 -17 -12 -29t-29 -12h-633
q-16 0 -28 12t-13 29v410q0 9 -7 12t-11 -2l-68 -47v3q-17 -11 -37 -2t-20 30z" />
    <glyph glyph-name="lslash" unicode="&#x142;" horiz-adv-x="450" 
d="M-10 444v99q0 35 30 56l97 68q16 12 16 28v713q1 16 13 28t28 13h102q16 -1 28 -13t13 -28v-571q1 -5 7 -9t12 0l104 74q14 10 33 0t19 -29v-106q0 -33 -41 -61l-121 -87q-11 -10 -13 -21v-557q0 -17 -12 -29t-29 -12h-102q-16 0 -28 12t-13 29v410q0 9 -7 12t-11 -2
l-68 -47v2q-17 -11 -37 -2t-20 30z" />
    <glyph glyph-name="Nacute" unicode="&#x143;" horiz-adv-x="1126" 
d="M173 0q-17 0 -29 12t-12 29v1352q0 17 12 29t29 12h170q17 0 26 -7t17 -28l404 -1010q4 -6 10 -5t6 9v1000q0 17 12 29t29 12h104q17 0 29 -12t12 -29v-1352q0 -17 -12 -29t-29 -12h-170q-17 0 -25 6t-18 29l-403 1014q-5 6 -11 5t-6 -10v-1003q0 -17 -12 -29t-28 -12
h-105zM557 1536h-83q-18 0 -28 16t-1 25l156 223q1 1 5 7q4 5 8 9l6 6t7 4q12 8 27 7h162q19 -1 27 -17t-3 -26l-222 -229q-25 -25 -61 -25z" />
    <glyph glyph-name="nacute" unicode="&#x144;" 
d="M124 41v942q0 17 12 29t29 12h90q15 0 29 -14q30 -32 44 -33t22 1t16 6t14 6q5 2 46 28q42 26 127 26q173 0 281 -104t108 -285v-614q0 -17 -12 -29t-29 -12h-102q-17 0 -29 12t-12 29v614q0 97 -63 151t-163 54t-162 -52q-63 -52 -63 -142v-625q0 -17 -12 -29t-29 -12
l-130 12q-12 12 -12 29zM420 1198q-18 0 -28 16t-1 25l156 223q1 1 5 7q4 5 8 9l6 6t7 4q12 8 27 7h162q18 -1 26 -17t-4 -26l-221 -229q-25 -25 -61 -25h-82z" />
    <glyph glyph-name="Ncommaaccent" unicode="&#x145;" horiz-adv-x="1126" 
d="M453 -258v125q0 17 12 29t29 12h143q17 0 29 -12t12 -29v-125q0 -65 -41 -127l-66 -94q-19 -31 -53 -31h-18q-28 0 -39 22t2 46l63 116q6 9 -1 18t-17 9h-14q-16 1 -28 13t-13 28zM174 0q-16 0 -28 12t-13 29v1352q1 17 13 29t28 12h170q17 0 26 -7t17 -28l404 -1010
q4 -6 10 -5t6 9v1000q0 17 12 29t29 12h104q16 0 28 -12t13 -29v-1352q0 -17 -12 -29t-29 -12h-170q-18 0 -26 6t-17 29l-403 1014q-4 6 -10 5t-7 -10v-1003q0 -17 -12 -29t-28 -12h-105z" />
    <glyph glyph-name="ncommaaccent" unicode="&#x146;" 
d="M419 -258v125q0 17 12 29t29 12h143q17 0 29 -12t12 -29v-125q0 -68 -41 -127l-65 -94q-19 -31 -54 -31h-18q-28 0 -39 22t2 46l64 116q7 9 -1 18t-18 9h-14q-16 1 -28 13t-13 28zM124 41v942q0 17 12 29t29 12h90q15 0 29 -14q30 -32 44 -33t22 1t16 6t14 6q5 2 46 28
q42 26 127 26q173 0 281 -104t108 -285v-614q0 -17 -12 -29t-29 -12h-102q-17 0 -29 12t-12 29v614q0 97 -63 151t-163 54t-162 -52q-63 -52 -63 -142v-625q0 -17 -12 -29t-29 -12l-130 12q-12 12 -12 29z" />
    <glyph glyph-name="Ncaron" unicode="&#x147;" horiz-adv-x="1126" 
d="M173 0q-17 0 -29 12t-12 29v1352q0 17 12 29t29 12h170q17 0 26 -7t17 -28l404 -1010q4 -6 10 -5t6 9v1000q0 17 12 29t29 12h104q17 0 29 -12t12 -29v-1352q0 -17 -12 -29t-29 -12h-170q-17 0 -25 6t-18 29l-403 1014q-5 6 -11 5t-6 -10v-1003q0 -17 -12 -29t-28 -12
h-105zM260 1835h121q30 0 63 -33l103 -100q13 -14 27 0l105 100q33 33 62 33h121q19 -1 27 -17t-3 -26l-221 -229q-25 -25 -59 -25h-86q-35 0 -44 8t-17 17l-221 229h-1q-11 10 -3 26t26 17z" />
    <glyph glyph-name="ncaron" unicode="&#x148;" 
d="M122 41v942q0 17 12 29t29 12h90q15 0 29 -14q30 -33 44 -33q14 -1 22 1t16 6t14 6q5 2 46 28q42 26 127 26q173 0 281 -104t108 -285v-614q0 -17 -12 -29t-29 -12h-102q-17 0 -29 12t-12 29v614q0 97 -63 151t-163 54t-162 -52q-63 -52 -63 -142v-625q0 -17 -12 -29
t-29 -12l-130 12q-12 12 -12 29zM224 1495h121q31 0 64 -33l102 -100q14 -14 28 0l104 100q33 33 64 33h120q19 -1 27 -17t-3 -26l-221 -229q-25 -25 -59 -25h-86q-35 0 -44 8t-17 17l-221 229h-2q-11 10 -3 26t26 17z" />
    <glyph glyph-name="napostrophe" unicode="&#x149;" 
d="M123 41v942q0 17 12 29t29 12h90q15 0 29 -14q30 -32 44 -33q15 -1 23 1t16 6t13 6t47 28q41 26 126 26q173 0 281 -104t108 -285v-614q0 -17 -12 -29t-29 -12h-102q-16 0 -28 12t-13 29v614q0 97 -63 151q-62 54 -162 54t-163 -52t-63 -142v-625q0 -17 -12 -29t-29 -12
l-129 12q-12 12 -13 29zM57 1229h-15q-16 0 -28 12t-13 29v125q1 17 13 29t28 12h143q17 0 29 -12t12 -29v-125q0 -70 -41 -127l-65 -94q-19 -31 -52 -31h-19q-28 0 -39 22t2 45l64 117q6 9 0 18t-19 9z" />
    <glyph glyph-name="Eng" unicode="&#x14a;" horiz-adv-x="1126" 
d="M174 0v-1q-16 1 -28 13t-13 28v1352q1 16 13 28t28 13h154q28 0 43 -35l420 -916q4 -6 10 -5t6 9v906q0 16 12 28t29 13h104q16 -1 28 -13t13 -28v-1454q0 -152 -99 -260t-245 -108q-17 0 -29 12t-12 29v102q0 17 12 29t29 12q65 0 113 52t47 133v61l-473 1049
q-4 6 -10 5t-7 -10v-1003q0 -17 -12 -29t-28 -12h-105z" />
    <glyph glyph-name="eng" unicode="&#x14b;" 
d="M124 40v942q0 16 12 28t29 13h90q15 -1 29 -15q30 -32 44 -32t22 2t16 5q8 5 14 7q5 2 46 27q42 26 127 26q173 -1 281 -105t108 -284v-716q0 -152 -99 -260t-245 -108q-16 0 -28 12t-13 29v102q1 17 13 29t28 12q64 0 112 52t48 133v716q0 97 -63 151t-163 54t-162 -52
q-63 -52 -63 -142v-625q0 -17 -12 -29t-29 -12h-102l1 -1q-17 1 -29 13t-12 28z" />
    <glyph glyph-name="Omacron" unicode="&#x14c;" horiz-adv-x="1138" 
d="M285 719q1 -185 15 -296t85 -177t179 -66t181 61q71 61 89 185t18 293q0 171 -16 289t-86 184t-178 65t-183 -61q-74 -60 -89 -176t-15 -301zM562 1452q190 0 317 -116q126 -116 150 -310q14 -104 14 -288q1 -184 -17 -347t-140 -285t-312 -123q-192 0 -317 116t-148 311
q-17 127 -17 308l-2 2q0 190 17 306q21 180 143 303t312 123zM322 1556q-16 0 -28 12t-13 29v78q0 17 12 29t29 12h495q17 0 29 -12t12 -29v-78q0 -17 -12 -29t-29 -12h-495z" />
    <glyph glyph-name="omacron" unicode="&#x14d;" horiz-adv-x="1024" 
d="M512 165q102 0 166 59t70 146q8 142 0 285q-6 85 -70 145t-166 60t-166 -60t-70 -145q-8 -143 0 -285q6 -86 70 -146t166 -59zM511 1045q179 -1 293 -111t124 -266q11 -156 0 -312q-10 -156 -124 -266t-293 -110t-293 110t-124 266q-11 156 0 312q10 156 124 266t293 111
zM264 1262q-16 0 -28 12t-13 29v77q1 16 13 28t28 13h496q16 0 28 -12t13 -29v-77q-1 -17 -13 -29t-28 -12h-496z" />
    <glyph glyph-name="Obreve" unicode="&#x14e;" horiz-adv-x="1138" 
d="M286 719q0 -185 14 -296t86 -177t180 -66t180 61t90 185t17 293q1 171 -15 289t-86 184t-180 65q-108 -1 -182 -61t-89 -176t-15 -301zM564 1452q190 0 316 -116t150 -310q14 -104 14 -288t-18 -347t-138 -285q-122 -122 -314 -123q-192 0 -316 116q-125 116 -148 311
q-17 127 -17 308l-2 2q0 190 17 306q21 180 143 303q123 123 313 123zM288 1798q0 14 10 24t25 11h88q15 0 25 -10t9 -25q1 -46 39 -80t86 -35q48 0 86 34t37 81q0 15 10 25t25 10h88q14 -1 24 -11t11 -24q-1 -110 -81 -186t-202 -76t-202 77h1q-79 74 -79 185z" />
    <glyph glyph-name="obreve" unicode="&#x14f;" horiz-adv-x="1024" 
d="M512 165q102 0 166 59t70 146q8 142 0 285q-6 85 -70 145t-166 60t-166 -60t-70 -145q-8 -143 0 -285q6 -86 70 -146t166 -59zM511 1045q179 -1 293 -111t124 -266q11 -156 0 -312q-10 -156 -124 -266t-293 -110t-293 110t-124 266q-11 156 0 312q10 156 124 266t293 111
zM635 1454q0 40 35 41h88q14 0 24 -10t11 -25q-1 -110 -81 -186t-201 -76t-201 76t-81 186q1 14 11 24t24 11h88q16 0 26 -10t9 -25q1 -46 39 -80t86 -34t86 34t37 74z" />
    <glyph glyph-name="Ohungarumlaut" unicode="&#x150;" horiz-adv-x="1138" 
d="M283 719q1 -185 15 -296t85 -177t179 -66t181 61q71 61 89 185t18 293q0 171 -16 289t-86 184t-178 65t-183 -61q-74 -60 -89 -176t-15 -301zM560 1452q190 0 317 -116q126 -116 150 -310q14 -104 14 -288q1 -184 -17 -347t-140 -285t-312 -123q-192 0 -317 116t-148 311
q-17 127 -17 308l-2 2q0 190 17 306q21 180 143 303t312 123zM388 1536h-83q-19 0 -29 16t1 25l155 223q1 1 5 7l9 9l6 6t6 4q12 8 27 7h162q19 -1 27 -17t-3 -26l-221 -229q-25 -25 -62 -25zM737 1536h-83q-18 0 -28 16t0 25l155 223q0 6 7 11l12 10q13 12 35 12h161
q19 -1 27 -17t-3 -26l-221 -229q-25 -25 -62 -25z" />
    <glyph glyph-name="ohungarumlaut" unicode="&#x151;" horiz-adv-x="1024" 
d="M510 165q102 0 166 59t71 146q8 142 0 285q-5 85 -69 145t-167 60t-167 -60t-69 -145q-8 -143 0 -285q5 -86 69 -146t166 -59zM510 1045q178 -1 292 -111t125 -266t0 -312t-125 -266t-292 -110t-292 110t-125 266t0 312t125 266t292 111zM249 1198q-19 0 -29 16t0 25
l156 223q1 1 5 7l9 9l6 6t6 4q12 8 27 7h162q19 -1 27 -17t-5 -26l-221 -229q-25 -25 -61 -25h-82zM680 1198h-83q-19 0 -29 16t0 25l156 223q1 1 5 7l9 9l6 6t6 4q12 8 27 7h162q19 -1 27 -17t-3 -26l-222 -229q-25 -25 -61 -25z" />
    <glyph glyph-name="OE" unicode="&#x152;" horiz-adv-x="1671" 
d="M565 1448q124 0 220 -51q5 -5 29 -14t25 7q0 16 12 30q12 12 29 12h661q17 0 29 -12t12 -29v-113q0 -16 -12 -28t-29 -13h-487q-18 0 -20 -20v-369q0 -18 21 -20h465q16 0 28 -12t13 -29v-112q-1 -17 -13 -29t-28 -12h-465q-19 0 -20 -21v-399q0 -20 21 -20h491
q17 0 29 -12t12 -29v-113q0 -16 -12 -28t-29 -13h-665q-16 1 -28 13t-13 27q0 15 -29 6t-35 -15q-91 -47 -208 -47q-186 0 -311 116t-148 311q-17 127 -17 308l-6 -2q0 190 17 306q21 180 143 303t318 123zM287 717h1q0 -185 14 -296t86 -177t180 -66t180 61t90 185t17 293
q1 171 -15 289t-86 184t-180 65q-109 -1 -183 -61t-89 -176t-15 -301z" />
    <glyph glyph-name="oe" unicode="&#x153;" horiz-adv-x="1669" 
d="M510 163q102 0 166 59t71 146q8 143 0 285q-5 85 -69 145t-167 60t-167 -60t-69 -145q-8 -142 0 -285q5 -86 69 -146t166 -59zM1175 859v-1q-105 0 -171 -64t-65 -159q0 -18 21 -20h425q21 0 21 21q0 103 -66 163t-165 60zM510 1044q131 0 219 -56q31 -20 70 -54t80 0
q119 110 295 110t293 -112q115 -113 115 -297v-141q0 -16 -12 -28t-29 -13h-586q-20 0 -20 -21q0 -136 63 -202q62 -66 158 -66t152 36t75 93q10 35 48 35h104q17 0 28 -10t7 -31q-20 -137 -128 -222t-276 -85t-286 110q-40 36 -80 0t-70 -54q-88 -56 -219 -56
q-179 0 -293 110t-126 279l-1 -1q-9 144 2 300t125 266t292 110z" />
    <glyph glyph-name="Racute" unicode="&#x154;" horiz-adv-x="1064" 
d="M131 42v1352q1 16 13 28t28 13h369q176 0 304 -126q126 -128 126 -304q0 -115 -58 -213t-155 -155q-31 -17 -39 -33t4 -45l242 -498q11 -23 1 -42t-40 -19h-115q-38 0 -59 41l-242 508q-9 24 -38 24h-125q-20 0 -20 -20v-512q-1 -17 -13 -29t-28 -12h-113l-1 1
q-16 1 -28 13t-13 28zM327 1219v-431q0 -20 20 -20h195q96 0 166 70t69 165q0 96 -69 167q-71 69 -166 69h-195q-20 0 -20 -20zM475 1536h-83q-18 0 -28 16t0 25l155 223q1 1 5 7q4 5 8 9l6 6t7 4q12 8 27 7h162q19 -1 27 -17t-3 -26l-221 -229q-25 -25 -62 -25z" />
    <glyph glyph-name="racute" unicode="&#x155;" horiz-adv-x="706" 
d="M164 0v1q-16 1 -28 13t-13 28v942q0 16 12 28t29 13h69q34 0 41 -41q0 -24 8 -44t14 -24t16 -4q16 0 52 30q98 82 250 83h41q17 -1 29 -13t12 -28v-100q0 -16 -12 -28t-29 -13h-41q-136 -1 -222 -77t-85 -234v-491q0 -17 -12 -29t-29 -12h-102zM287 1198q-19 0 -29 16
t0 25l156 223q2 2 8 10q19 24 45 23h162q19 -1 27 -17t-5 -26l-221 -229q-25 -25 -61 -25h-82z" />
    <glyph glyph-name="Rcommaaccent" unicode="&#x156;" horiz-adv-x="1064" 
d="M411 -257v125q0 16 12 28t29 13h143q17 -1 29 -13t12 -28v-125q0 -65 -41 -127l-66 -94q-19 -31 -53 -31h-18q-28 1 -39 23t2 45l63 116q6 9 -1 18t-17 9h-14q-16 0 -28 12t-13 29zM132 42v1352q0 16 12 28t29 13h369q176 0 304 -126q126 -128 126 -304q0 -115 -58 -213
t-155 -155q-31 -17 -39 -33t4 -45l242 -498q10 -23 0 -42t-39 -19h-115q-38 0 -59 41l-242 508q-9 24 -38 24h-125q-20 0 -20 -20v-512q0 -17 -12 -29t-29 -12h-113l-1 1q-17 1 -29 13t-12 28zM328 1219v-431q0 -20 20 -20h195q95 0 165 70t70 165q0 96 -69 167
q-71 69 -166 69h-195q-20 0 -20 -20z" />
    <glyph glyph-name="rcommaaccent" unicode="&#x157;" horiz-adv-x="706" 
d="M175 -91h143q16 -1 28 -13t13 -28v-125q0 -68 -41 -127l-65 -94q-19 -31 -52 -31h-19q-28 1 -39 23t2 45l64 116q5 9 -1 18t-18 9h-14q-16 0 -28 12t-13 29l-1 125q0 16 12 28t29 13zM164 0v1q-16 1 -28 13t-13 28v942q0 16 12 28t29 13h69q34 0 41 -41q0 -24 8 -44
t14 -24t16 -4q16 0 52 30q98 82 250 83h41q17 -1 29 -13t12 -28v-100q0 -16 -12 -28t-29 -13h-41q-136 -1 -222 -77t-85 -234v-491q0 -17 -12 -29t-29 -12h-102z" />
    <glyph glyph-name="Rcaron" unicode="&#x158;" horiz-adv-x="1064" 
d="M131 42v1352q1 16 13 28t28 13h369q176 0 304 -126q126 -128 126 -304q0 -115 -58 -213t-155 -155q-31 -17 -39 -33t4 -45l242 -498q11 -23 1 -42t-40 -19h-115q-38 0 -59 41l-242 508q-9 24 -38 24h-125q-20 0 -20 -20v-512q-1 -17 -13 -29t-28 -12h-113l-1 1
q-16 1 -28 13t-13 28zM327 1219v-431q0 -20 20 -20h195q96 0 166 70t69 165q0 96 -69 167q-71 69 -166 69h-195q-20 0 -20 -20zM219 1833h121q30 0 63 -33l103 -100q14 -14 28 0l104 100q33 33 62 33h121q19 -1 27 -17t-3 -26l-221 -229q-25 -25 -59 -25h-86q-35 0 -44 8
t-17 17l-221 229h-1q-12 10 -4 26t27 17z" />
    <glyph glyph-name="rcaron" unicode="&#x159;" horiz-adv-x="706" 
d="M163 0v1q-17 1 -29 13t-12 28v942q0 16 12 28t29 13h69q34 0 41 -41q0 -24 8 -44t14 -24q5 -4 15 -4q16 0 52 30q98 82 251 83h41q16 -1 28 -13t13 -28v-100q0 -16 -12 -28t-29 -13h-41q-135 -1 -221 -77t-86 -234v-491q0 -17 -12 -29t-29 -12h-102zM92 1495h121
q34 0 63 -33l103 -100q14 -14 28 0l104 100q33 33 62 33h121q19 -1 27 -17t-3 -26l-221 -229q-25 -25 -59 -25h-86q-35 0 -44 8t-17 17l-221 229h-1q-11 10 -3 26t26 17z" />
    <glyph glyph-name="Sacute" unicode="&#x15a;" horiz-adv-x="1044" 
d="M62 411v32q0 17 12 29t29 12h115q16 0 28 -12t13 -29v-32q0 -103 75 -167q74 -64 188 -65q114 0 188 66t75 167q0 176 -198 228q-35 8 -47 12t-50 12t-49 12q-156 32 -249 131t-93 266t126 273t300 105q174 0 295 -113t121 -272v-27q0 -17 -12 -29t-29 -12h-113
q-16 0 -28 12t-12 29v27q1 94 -67 142t-164 48t-158 -51t-62 -139q0 -155 202 -207q20 -5 56 -13t49 -11q379 -94 379 -425q0 -186 -136 -306t-330 -120q-193 0 -324 126l2 1q-132 124 -132 300zM537 1536h-83q-18 0 -28 16t-1 25l156 223q2 2 8 10q19 23 45 23h162
q18 -1 26 -17t-3 -26l-221 -229q-25 -25 -61 -25z" />
    <glyph glyph-name="sacute" unicode="&#x15b;" horiz-adv-x="940" 
d="M467 156q220 0 220 151q0 56 -64 89q-33 15 -155 42q-173 33 -248 81q-122 78 -122 219q0 142 111 224t263 82t263 -84q110 -84 110 -223q-1 -17 -13 -29t-28 -12h-103q-16 0 -28 12t-12 29q0 57 -47 95q-46 38 -140 38t-139 -36t-45 -80t33 -77t147 -54q6 -1 32 -6
t34 -7t33 -6q24 -4 36 -8t33 -10q234 -67 234 -279q0 -157 -116 -242t-287 -85q-170 0 -278 78l-3 -1q-126 90 -126 250v27q0 16 12 28t28 13h103q17 -1 29 -13t12 -28v-27q0 -81 76 -121q54 -30 145 -30zM444 1198h-83q-19 0 -28 16t0 25l155 223q0 6 7 11t13 10
q13 12 34 12h162q18 -1 26 -17t-3 -26l-221 -229q-25 -25 -62 -25z" />
    <glyph glyph-name="Scircumflex" unicode="&#x15c;" horiz-adv-x="1044" 
d="M63 411v32q1 17 13 29t28 12h115q17 0 29 -12t12 -29v-32q0 -103 75 -167t189 -65q114 0 188 66t74 167q0 176 -198 228q-34 8 -46 12t-50 12t-50 12q-156 32 -249 131t-93 266t126 273t300 105q174 0 295 -113t121 -272v-27q0 -17 -12 -29t-29 -12h-113q-16 0 -28 12
t-12 29v27q0 94 -68 142t-164 48t-158 -51t-61 -139q-1 -155 201 -207q20 -5 56 -13t50 -11q379 -94 379 -425q-1 -186 -137 -306t-329 -120t-324 126l2 1q-132 124 -132 300zM221 1536q-19 0 -27 16t5 27l221 229q25 25 61 25h86q31 1 41 -7q9 -8 19 -18l221 -229
q11 -11 4 -27t-27 -16h-120q-31 0 -64 33l-104 100q-13 13 -29 0l-102 -100q-33 -33 -64 -33h-121z" />
    <glyph glyph-name="scircumflex" unicode="&#x15d;" horiz-adv-x="940" 
d="M468 156q220 0 220 151q0 56 -64 89q-33 15 -155 42q-173 33 -248 81q-122 78 -122 219q0 142 111 224q112 82 264 82t262 -84t110 -223q0 -17 -12 -29t-29 -12h-103q-16 0 -28 12t-12 29q0 57 -47 95t-141 38t-138 -36q-45 -36 -45 -80t33 -77t147 -54q6 -1 32 -6
q27 -5 35 -7t32 -6t36 -8t33 -10q234 -67 234 -279q-1 -157 -117 -242t-286 -85t-278 78l-3 -1q-126 90 -126 250v27q0 16 12 28t28 13h103q16 -1 28 -13t13 -28v-27q0 -81 76 -121q54 -30 145 -30zM168 1198q-19 0 -27 16t3 27l222 229q25 25 61 25h86q32 0 41 -8t17 -17
l222 -229q11 -11 4 -27t-27 -16h-121q-30 0 -63 33l-105 100q-13 13 -27 0l-103 -100q-33 -33 -62 -33h-121z" />
    <glyph glyph-name="Scedilla" unicode="&#x15e;" horiz-adv-x="1044" 
d="M516 -409h-130q-18 0 -28 11t-6 26l78 248q8 33 39 33h109q19 0 28 -11t5 -26l-57 -248q-7 -33 -38 -33zM63 411v32q1 17 13 29t28 12h115q17 0 29 -12t12 -29v-32q0 -103 75 -167t189 -65q114 0 188 66t74 167q0 176 -198 228q-34 8 -46 12t-50 12t-50 12
q-156 32 -249 131t-93 266t126 273t300 105q174 0 295 -113t121 -272v-27q0 -17 -12 -29t-29 -12h-113q-16 0 -28 12t-12 29v27q0 94 -68 142t-164 48t-158 -51t-61 -139q-1 -155 201 -207q20 -5 56 -13t50 -11q379 -94 379 -425q-1 -186 -137 -306t-329 -120t-324 126l2 1
q-132 124 -132 300z" />
    <glyph glyph-name="scedilla" unicode="&#x15f;" horiz-adv-x="940" 
d="M460 -411h-130q-18 0 -28 11t-6 26l78 248q8 33 39 33h108q19 0 29 -11t5 -26l-57 -248q-7 -33 -38 -33zM468 156q220 0 220 151q0 56 -64 89q-33 15 -155 42q-173 33 -248 81q-122 78 -122 219q0 142 111 224q112 82 264 82t262 -84t110 -223q0 -17 -12 -29t-29 -12
h-103q-16 0 -28 12t-12 29q0 57 -47 95t-141 38t-138 -36q-45 -36 -45 -80t33 -77t147 -54q6 -1 32 -6q27 -5 35 -7t32 -6t36 -8t33 -10q234 -67 234 -279q-1 -157 -117 -242t-286 -85t-278 78l-3 -1q-126 90 -126 250v27q0 16 12 28t28 13h103q16 -1 28 -13t13 -28v-27
q0 -81 76 -121q54 -30 145 -30z" />
    <glyph glyph-name="Scaron" unicode="&#x160;" horiz-adv-x="1044" 
d="M62 411v32q0 17 12 29t29 12h115q16 0 28 -12t13 -29v-32q0 -103 75 -167q74 -64 188 -65q114 0 188 66t75 167q0 176 -198 228q-35 8 -47 12t-50 12t-49 12q-156 32 -249 131t-93 266t126 273t300 105q174 0 295 -113t121 -272v-27q0 -17 -12 -29t-29 -12h-113
q-16 0 -28 12t-12 29v27q1 94 -67 142t-164 48t-158 -51t-62 -139q0 -155 202 -207q20 -5 56 -13t49 -11q379 -94 379 -425q0 -186 -136 -306t-330 -120q-193 0 -324 126l2 1q-132 124 -132 300zM219 1833h121q30 0 63 -33l103 -100q14 -14 28 0l104 100q33 33 62 33h121
q19 -1 27 -17t-3 -26l-221 -229q-25 -25 -59 -25h-86q-35 0 -44 8t-17 17l-221 229h-1q-12 10 -4 26t27 17z" />
    <glyph glyph-name="scaron" unicode="&#x161;" horiz-adv-x="940" 
d="M468 156q220 0 220 151q0 56 -64 89q-33 15 -155 42q-173 33 -248 81q-122 78 -122 219q0 142 111 224q112 82 264 82t262 -84t110 -223q0 -17 -12 -29t-29 -12h-103q-16 0 -28 12t-12 29q0 57 -47 95t-141 38t-138 -36q-45 -36 -45 -80t33 -77t147 -54q6 -1 32 -6
q27 -5 35 -7t32 -6t36 -8t33 -10q234 -67 234 -279q-1 -157 -117 -242t-286 -85t-278 78l-3 -1q-126 90 -126 250v27q0 16 12 28t28 13h103q16 -1 28 -13t13 -28v-27q0 -81 76 -121q54 -30 145 -30zM168 1495h121q34 0 63 -33l103 -100q13 -14 27 0l105 100q33 33 62 33h121
q19 -1 27 -17t-3 -26l-222 -229q-14 -15 -16 -15t-4 -2l-6 -3q-10 -5 -32 -5h-86q-35 0 -44 8t-17 17l-222 229q-11 10 -4 26t27 17z" />
    <glyph glyph-name="Tcommaaccent" unicode="&#x162;" horiz-adv-x="868" 
d="M323 -258v125q0 17 12 29t29 12h143q17 0 29 -12t12 -29v-125q0 -65 -41 -127l-66 -94q-19 -31 -53 -31h-18q-28 0 -39 22t2 46l63 116q6 9 -1 18t-17 9h-14q-16 1 -28 13t-13 28zM317 1239h-273q-16 1 -28 13t-13 28v113q1 17 13 29t28 12h778q16 0 28 -12t13 -29v-113
q0 -16 -12 -28t-29 -13h-270q-18 0 -20 -20v-1178q0 -17 -12 -29t-28 -12h-113q-17 0 -29 12t-12 29v1178q0 20 -21 20z" />
    <glyph glyph-name="tcommaaccent" unicode="&#x163;" horiz-adv-x="737" 
d="M335 -258v125q0 17 12 29t29 12h143q17 0 29 -12t12 -29v-125q0 -68 -41 -127l-65 -94q-19 -31 -54 -31h-18q-28 0 -39 22t2 46l64 116q7 9 -1 18t-18 9h-14q-16 1 -28 13t-13 28zM195 829h-145q-16 1 -28 13t-13 28v103q1 17 13 29t28 12h144q20 0 20 20v318q0 16 12 28
t29 13h102q17 -1 29 -13t12 -28v-318q0 -20 21 -20h235q16 0 28 -12t13 -29v-103q0 -16 -12 -28t-29 -13h-235q-18 0 -20 -20v-481q0 -74 37 -112t127 -38h113q16 0 28 -12t13 -29v-96q-1 -17 -13 -29t-28 -12h-113q-348 0 -348 328v481q0 20 -20 20z" />
    <glyph glyph-name="Tcaron" unicode="&#x164;" horiz-adv-x="868" 
d="M316 1239h-273q-17 1 -29 13t-12 28v113q0 17 12 29t29 12h778q17 0 29 -12t12 -29v-113q0 -16 -12 -28t-29 -13h-270q-18 0 -20 -20v-1178q0 -17 -12 -29t-28 -12h-113q-16 0 -28 12t-13 29v1178q0 20 -21 20zM133 1833h121q30 0 63 -33l103 -100q14 -14 28 0l104 100
q33 33 62 33h121q19 -1 27 -17t-3 -26l-221 -229q-25 -25 -59 -25h-86q-35 0 -44 8t-17 17l-221 229h-1q-12 10 -4 26t27 17z" />
    <glyph glyph-name="tcaron" unicode="&#x165;" horiz-adv-x="1005" 
d="M195 829h-145q-16 1 -28 13t-13 28v103q1 17 13 29t28 12h144q20 0 20 20v318q0 16 12 28t29 13h102q17 -1 29 -13t12 -28v-318q0 -20 21 -20h235q16 0 28 -12t13 -29v-103q0 -16 -12 -28t-29 -13h-235q-18 0 -20 -20v-481q0 -74 37 -112t127 -38h113q16 0 28 -12t13 -29
v-96q-1 -17 -13 -29t-28 -12h-113q-348 0 -348 328v481q0 20 -20 20zM784 1229q-16 0 -28 12t-13 29v125q1 17 13 29t28 12h144q16 0 28 -12t13 -29v-125q0 -67 -41 -127l-66 -94q-19 -31 -52 -31h-18q-28 0 -40 22t2 45l63 117q6 9 -1 18t-17 9h-15z" />
    <glyph glyph-name="Tbar" unicode="&#x166;" horiz-adv-x="868" 
d="M317 1239h-274q-17 1 -29 13t-12 28v113q0 17 12 29t29 12h778q17 0 29 -12t12 -29v-113q0 -16 -12 -28t-29 -13h-270q-18 0 -20 -20v-175q0 -20 21 -20h229q17 0 29 -12t12 -29v-102q0 -17 -12 -29t-29 -12h-229q-19 0 -20 -21v-778q0 -17 -12 -29t-28 -12h-113
q-17 0 -29 12t-12 29v778q0 21 -21 21h-231q-16 0 -28 12t-13 29v102q1 17 13 29t28 12h231q21 0 21 20v175q0 20 -21 20z" />
    <glyph glyph-name="tbar" unicode="&#x167;" horiz-adv-x="747" 
d="M8 869v103q0 16 12 28t29 13h144q20 0 20 20v318q1 17 13 29t28 12h102q16 0 28 -12t13 -29v-318q0 -20 21 -20h235q17 -1 29 -13t12 -28v-103q0 -17 -12 -29t-29 -12h-235q-18 0 -20 -20v-141q0 -18 21 -20h225q16 0 28 -12t13 -29v-92q0 -16 -12 -28t-29 -13h-225
q-18 0 -20 -20v-125q0 -74 37 -112t127 -38h113q16 0 28 -12t13 -29v-96q-1 -17 -13 -29t-28 -12h-113q-348 0 -348 328v125q0 20 -20 20h-134q-17 1 -29 13t-12 28v92q0 16 12 28t29 13h134q20 0 20 21v141q0 20 -20 20h-144l-2 -1q-17 0 -29 12t-12 29z" />
    <glyph glyph-name="Utilde" unicode="&#x168;" horiz-adv-x="1142" 
d="M112 410v983q0 17 12 29t29 12h112q17 0 29 -12t12 -29v-983q0 -118 78 -175t192 -57q112 0 187 66t75 166v983q0 17 12 29t29 12h112q17 0 29 -12t12 -29v-983q0 -180 -135 -302t-332 -123q-197 0 -324 121l2 -1q-131 120 -131 305zM286 1586v82q0 42 42 74t103 31
q60 0 140 -26q81 -26 145 -26t97 43q11 18 31 8t20 -37v-82q0 -41 -42 -73t-104 -32t-140 26t-143 25q-65 0 -97 -43l-1 1q-11 -15 -31 -7t-20 36z" />
    <glyph glyph-name="utilde" unicode="&#x169;" 
d="M109 370v614q0 16 12 28t29 13h102q16 -1 28 -13t13 -28v-614q0 -92 60 -148t162 -57q101 1 165 53t64 141v625q0 16 12 28t28 13h103q17 -1 29 -13t12 -28v-942q0 -16 -12 -28t-29 -13h-90q-15 0 -29 15q-14 16 -26 24q-27 20 -58 1q-31 -20 -40 -26q-52 -34 -144 -34
q-174 0 -280 109l-3 -1q-108 111 -108 281zM237 1267v82q0 42 42 73t104 31q61 1 137 -25t145 -26t99 43q12 17 32 7t19 -37v-82q0 -42 -42 -73q-43 -31 -107 -31q-64 -1 -140 25t-140 26t-97 -43l-1 1q-12 -16 -32 -8t-19 37z" />
    <glyph glyph-name="Umacron" unicode="&#x16a;" horiz-adv-x="1142" 
d="M113 409v983q0 16 12 28t29 13h112q16 -1 28 -13t13 -28v-983q1 -118 79 -175t190 -57q112 1 188 67q75 66 75 165v983q0 16 12 28t29 13h112q16 -1 28 -13t13 -28v-983q0 -181 -135 -303t-332 -122t-324 121l2 -1q-131 120 -131 305zM324 1556q-16 0 -28 12t-13 29v78
q0 17 12 29t29 12h495q17 0 29 -12t12 -29v-78q0 -17 -12 -29t-29 -12h-495z" />
    <glyph glyph-name="umacron" unicode="&#x16b;" 
d="M110 369v614q0 17 12 29t29 12h102q17 0 29 -12t12 -29v-614q0 -93 60 -149t162 -56t166 52t63 142v625q0 17 12 29t28 12h103q16 0 28 -12t13 -29v-942q-1 -17 -13 -29t-28 -12h-90q-17 0 -30 15q-14 16 -26 24q-27 20 -57 1q-31 -20 -40 -26q-52 -34 -144 -34
q-174 0 -280 109l-3 -1q-108 111 -108 281zM279 1262q-17 0 -29 12t-12 29v77q0 16 12 28t29 13h495q16 0 28 -12t13 -29v-77q0 -17 -12 -29t-29 -12h-495z" />
    <glyph glyph-name="Ubreve" unicode="&#x16c;" horiz-adv-x="1142" 
d="M113 409v983q0 16 12 28t29 13h112q16 -1 28 -13t13 -28v-983q1 -118 79 -175t190 -57q112 1 188 67q75 66 75 165v983q0 16 12 28t29 13h112q16 -1 28 -13t13 -28v-983q0 -181 -135 -303t-332 -122t-324 121l2 -1q-131 120 -131 305zM289 1798q0 14 10 24t25 11h88
q14 0 24 -10t10 -25q0 -46 38 -80t87 -35q47 0 85 34t38 81q0 15 10 25t25 10h88q15 -1 25 -11t10 -24q0 -110 -80 -186t-202 -76q-120 0 -200 76t-81 186z" />
    <glyph glyph-name="ubreve" unicode="&#x16d;" 
d="M111 369v614q0 17 12 29t29 12h102q16 0 28 -12t13 -29v-614q0 -93 60 -149t162 -56q101 0 165 52t64 142v625q0 17 12 29t28 12h103q17 0 29 -12t12 -29v-942q0 -17 -12 -29t-29 -12h-90q-15 0 -29 15q-14 16 -26 24q-27 20 -58 1q-31 -20 -40 -26q-52 -34 -144 -34
q-174 0 -280 109l-3 -1q-108 111 -108 281zM247 1460q0 14 10 24t25 11h88q14 0 24 -10t10 -25q0 -46 38 -80t87 -34q47 0 85 34t38 80q0 15 10 25t25 10h88q15 0 25 -10t10 -25q0 -110 -80 -186t-203 -76q-122 0 -202 77h1q-79 74 -79 185z" />
    <glyph glyph-name="Uring" unicode="&#x16e;" horiz-adv-x="1142" 
d="M113 409v983q0 16 12 28t29 13h112q16 -1 28 -13t13 -28v-983q1 -118 79 -175t190 -57q112 1 188 67q75 66 75 165v983q0 16 12 28t29 13h112q16 -1 28 -13t13 -28v-983q0 -181 -135 -303t-332 -122t-324 121l2 -1q-131 120 -131 305zM567 1802q-35 0 -59 -24t-23 -58
q-1 -34 23 -58t59 -24t59 24t23 58q1 34 -23 58t-59 24zM342 1719q0 95 64 161t160 66q95 0 161 -66t66 -161t-66 -159t-161 -65q-95 0 -158 66q-66 63 -66 158z" />
    <glyph glyph-name="uring" unicode="&#x16f;" 
d="M110 369v614q0 17 12 29t29 12h102q17 0 29 -12t12 -29v-614q0 -93 60 -149t162 -56t166 52t63 142v625q0 17 12 29t28 12h103q16 0 28 -12t13 -29v-942q-1 -17 -13 -29t-28 -12h-90q-17 0 -30 15q-14 16 -26 24q-27 20 -57 1q-31 -20 -40 -26q-52 -34 -144 -34
q-174 0 -280 109l-3 -1q-108 111 -108 281zM526 1454q-34 0 -58 -24t-24 -58t24 -58t58 -24t58 24t24 58t-24 58t-58 24zM301 1371q0 95 64 161t160 65q95 1 161 -65t66 -161t-66 -159t-161 -65q-95 0 -158 66q-66 63 -66 158z" />
    <glyph glyph-name="Uhungarumlaut" unicode="&#x170;" horiz-adv-x="1142" 
d="M111 409v983q0 16 12 28t29 13h112q16 -1 28 -13t13 -28v-983q1 -118 79 -175t190 -57q112 1 188 67q75 66 75 165v983q0 16 12 28t29 13h112q16 -1 28 -13t13 -28v-983q0 -181 -135 -303t-332 -122t-324 121l2 -1q-131 120 -131 305zM380 1536h-83q-19 0 -29 16t0 25
l156 223q1 1 5 7l9 9l6 6t6 4q12 8 27 7h162q19 -1 27 -17t-3 -26l-222 -229q-25 -25 -61 -25zM729 1536h-83q-18 0 -28 16t-1 25l156 223q1 1 6 7q3 5 7 9l6 6t7 4q12 8 27 7h162q19 -1 27 -17t-3 -26l-221 -229q-25 -25 -62 -25z" />
    <glyph glyph-name="uhungarumlaut" unicode="&#x171;" 
d="M110 369v614q0 17 12 29t29 12h102q17 0 29 -12t12 -29v-614q0 -93 60 -149t162 -56t166 52t63 142v625q0 17 12 29t28 12h103q16 0 28 -12t13 -29v-942q-1 -17 -13 -29t-28 -12h-90q-17 0 -30 15q-14 16 -26 24q-27 20 -57 1q-31 -20 -40 -26q-52 -34 -144 -34
q-174 0 -280 109l-3 -1q-108 111 -108 281zM246 1198q-18 0 -28 16t-1 25l156 223q2 2 8 10q19 24 45 23h162q18 -1 26 -17t-4 -26l-221 -229q-25 -25 -61 -25h-82zM594 1198q-18 0 -28 16t-1 25l156 223q1 1 5 7q4 5 8 9l6 6t7 4q12 8 27 7h162q18 -1 26 -17t-4 -26
l-221 -229q-25 -25 -61 -25h-82z" />
    <glyph glyph-name="Uogonek" unicode="&#x172;" horiz-adv-x="1142" 
d="M112 410v983q0 17 12 29t29 12h112q17 0 29 -12t12 -29v-983q0 -118 78 -175t192 -57q112 0 187 66t75 166v983q0 17 12 29t29 12h112q17 0 29 -12t12 -29v-983q0 -181 -133 -301q-156 -140 -156 -250q0 -135 166 -135q17 0 29 -12t12 -29v-72q0 -17 -12 -29t-29 -12
q-161 0 -249 70t-87 208q0 59 43 138q-7 -2 -45 -2q-202 0 -329 121h1q-131 120 -131 305z" />
    <glyph glyph-name="uogonek" unicode="&#x173;" 
d="M112 369v614q0 17 12 29t29 12h102q17 0 29 -12t12 -29v-614q0 -93 60 -149t162 -56t166 52t63 142v625q0 17 12 29t28 12h103q16 0 28 -12t13 -29v-942q-1 -17 -13 -29t-28 -12h-14q-70 -4 -111 -40t-41 -101q0 -135 156 -135q16 0 28 -12t13 -29v-72q-1 -17 -13 -29
t-28 -12q-150 0 -238 71t-88 207q0 74 61 150q-44 -18 -114 -18q-174 0 -280 109l-1 -1q-108 111 -108 281z" />
    <glyph glyph-name="Wcircumflex" unicode="&#x174;" horiz-adv-x="1472" 
d="M52 1434h111q33 0 39 -31l200 -1051q2 -12 13 -12h4q7 0 12 12l176 1051q6 31 39 31h144q35 0 39 -31l193 -1051q2 -12 12 -12h4q8 0 13 12l219 1051q6 31 39 31h110q24 0 35 -12t7 -29l-291 -1362q-6 -31 -39 -31h-174q-32 0 -38 31l-189 1022q-2 8 -8 8t-9 -8
l-176 -1022q-6 -31 -39 -31h-174q-33 0 -39 31l-274 1362q-4 17 7 29t34 12zM434 1536q-18 0 -26 16t4 27l221 229q25 25 61 25h86q31 1 41 -7q9 -8 19 -18l221 -229q11 -11 4 -27t-27 -16h-120q-31 0 -64 33l-104 100q-13 13 -29 0l-103 -100q-33 -33 -63 -33h-121z" />
    <glyph glyph-name="wcircumflex" unicode="&#x175;" horiz-adv-x="1368" 
d="M77 1024h116q31 0 38 -31l158 -663q4 -12 13 -12t13 12l180 663q7 31 39 31h106q31 0 38 -31l180 -663q4 -12 13 -12t13 12l158 663q7 31 39 31h116q24 0 34 -14t6 -33l-266 -946q-11 -31 -39 -31h-112q-31 0 -39 31l-187 676q-2 6 -8 6t-9 -6l-187 -676q-11 -31 -39 -31
h-113q-31 0 -39 31l-262 946q-4 19 6 33t34 14zM381 1198q-19 0 -27 16t3 27l222 229q25 25 61 25h86q32 0 41 -8t17 -17l222 -229q11 -11 4 -27t-27 -16h-121q-30 0 -63 33l-105 100q-14 13 -27 0l-103 -100q-33 -33 -62 -33h-121z" />
    <glyph glyph-name="Ycircumflex" unicode="&#x176;" horiz-adv-x="937" 
d="M57 1434h136q31 0 38 -31l232 -637q7 -20 15 0l228 637q10 31 39 31h136q21 0 32 -18t0 -40l-344 -882v-453q0 -17 -12 -29t-29 -12h-114q-16 0 -28 12t-13 29v451l-349 884q-8 22 2 40t31 18zM168 1536q-19 0 -27 16t3 27l222 229q25 25 61 25h86q32 0 41 -8t17 -17
l222 -229q11 -11 4 -27t-27 -16h-121q-30 0 -63 33l-105 100q-13 13 -27 0l-103 -100q-33 -33 -62 -33h-121z" />
    <glyph glyph-name="ycircumflex" unicode="&#x177;" horiz-adv-x="946" 
d="M51 1023h125q29 0 39 -31l252 -665q7 -19 15 0l238 665q10 31 40 31h121q24 0 35 -15t5 -32l-521 -1356q-10 -31 -39 -31h-110q-24 0 -35 15t-5 33l152 417q6 18 2 28l-353 894q-6 17 5 32t34 15zM293 1198h-123q-18 0 -26 16t4 27l221 229q25 25 61 25h86q31 1 41 -7
q9 -8 19 -18l221 -229q11 -11 4 -27t-27 -16h-121q-30 0 -63 33l-105 100q-13 13 -27 0l-103 -100q-33 -33 -62 -33z" />
    <glyph glyph-name="Ydieresis" unicode="&#x178;" horiz-adv-x="937" 
d="M57 1434h136q31 0 38 -31l232 -637q7 -20 15 0l228 637q10 31 39 31h136q21 0 32 -18t0 -40l-344 -882v-453q0 -17 -12 -29t-29 -12h-114q-16 0 -28 12t-13 29v451l-349 884q-8 22 2 40t31 18zM223 1536q-33 0 -33 33v141q0 13 10 23t23 10h139q14 0 24 -10t9 -23v-141
q0 -33 -33 -33h-139zM573 1536q-32 0 -32 33v141q0 13 9 23t23 10h140q14 0 23 -10t9 -23v-141q0 -33 -32 -33h-140z" />
    <glyph glyph-name="Zacute" unicode="&#x179;" horiz-adv-x="983" 
d="M110 0v-1q-16 1 -28 13t-13 28v154q0 17 10 33l602 998q9 20 -12 20h-539q-16 1 -28 13t-13 28v107q1 17 13 29t28 12h721q17 0 29 -12t12 -29v-148q0 -16 -10 -33l-594 -1001q-4 -9 0 -15t12 -6h571q17 0 29 -12t12 -28v-109q0 -17 -12 -29t-29 -12h-761zM465 1536h-83
q-18 0 -28 16t-1 25l156 223q1 1 5 7q4 5 8 9l6 6t7 4q12 8 27 7h162q19 -1 27 -17t-3 -26l-222 -229q-25 -25 -61 -25z" />
    <glyph glyph-name="zacute" unicode="&#x17a;" horiz-adv-x="942" 
d="M101 0q-17 0 -29 12t-12 29v121q0 20 4 30t23 33l539 602q6 9 3 15t-14 6h-493q-16 0 -28 12t-13 29v94q0 17 12 29t29 12h696q16 0 28 -12t13 -29v-117q0 -32 -13 -49q-13 -18 -28 -35l-516 -585q-6 -9 -3 -15t13 -6h527q17 0 29 -12t12 -29v-94q0 -17 -12 -29t-29 -12
h-738zM444 1198h-83q-19 0 -28 16t0 25l155 223q0 6 7 11t13 10q13 12 34 12h162q18 -1 26 -17t-3 -26l-221 -229q-25 -25 -62 -25z" />
    <glyph glyph-name="Zdotaccent" unicode="&#x17b;" horiz-adv-x="983" 
d="M111 0v-1q-17 1 -29 13t-12 28v154q0 17 10 33l602 998q9 20 -12 20h-539q-17 1 -29 13t-12 28v107q0 17 12 29t29 12h721q16 0 28 -12t13 -29v-148q0 -16 -10 -33l-594 -1001q-5 -9 -1 -15t13 -6h571q16 0 28 -12t13 -28v-109q0 -17 -12 -29t-29 -12h-761zM422 1536
q-33 0 -33 33v141q-1 13 9 23t24 10h139q13 0 23 -10t10 -23v-141q0 -33 -33 -33h-139z" />
    <glyph glyph-name="zdotaccent" unicode="&#x17c;" horiz-adv-x="942" 
d="M102 0q-16 0 -28 12t-13 29v121q1 20 5 30t22 33l539 602q6 9 3 15t-14 6h-493q-17 0 -29 12t-12 29v94q0 17 12 29t29 12h696q17 0 29 -12t12 -29v-117q0 -32 -13 -49q-13 -18 -28 -35l-516 -585q-6 -9 -3 -15t13 -6h527q16 0 28 -12t13 -29v-94q-1 -17 -13 -29t-28 -12
h-738zM401 1241q-32 0 -32 33v141q0 13 9 23t23 10h140q14 0 23 -10t9 -23v-141q0 -33 -32 -33h-140z" />
    <glyph glyph-name="Zcaron" unicode="&#x17d;" horiz-adv-x="983" 
d="M110 0v-1q-16 1 -28 13t-13 28v154q0 17 10 33l602 998q9 20 -12 20h-539q-16 1 -28 13t-13 28v107q1 17 13 29t28 12h721q17 0 29 -12t12 -29v-148q0 -16 -10 -33l-594 -1001q-4 -9 0 -15t12 -6h571q17 0 29 -12t12 -28v-109q0 -17 -12 -29t-29 -12h-761zM188 1833h121
q31 0 64 -33l102 -100q14 -14 28 0l104 100q33 33 64 33h121q18 -1 26 -17t-3 -26l-221 -229q-25 -25 -59 -25h-86q-39 0 -62 25l-221 229h-1q-11 10 -3 26t26 17z" />
    <glyph glyph-name="zcaron" unicode="&#x17e;" horiz-adv-x="942" 
d="M102 0q-16 0 -28 12t-13 29v121q1 20 5 30t22 33l539 602q6 9 3 15t-14 6h-493q-17 0 -29 12t-12 29v94q0 17 12 29t29 12h696q17 0 29 -12t12 -29v-117q0 -32 -13 -49q-13 -18 -28 -35l-516 -585q-6 -9 -3 -15t13 -6h527q16 0 28 -12t13 -29v-94q-1 -17 -13 -29t-28 -12
h-738zM168 1495h121q34 0 63 -33l103 -100q13 -14 27 0l105 100q33 33 62 33h121q19 -1 27 -17t-3 -26l-222 -229q-14 -15 -16 -15t-4 -2l-6 -3q-10 -5 -32 -5h-86q-35 0 -44 8t-17 17l-222 229q-11 10 -4 26t27 17z" />
    <glyph glyph-name="longs" unicode="&#x17f;" horiz-adv-x="700" 
d="M11 870v103q1 17 13 29t28 12h154q20 0 20 20v31q0 161 109 273q110 110 269 110h21q17 0 29 -12t12 -29v-96q0 -17 -12 -29t-29 -12h-21q-80 0 -137 -62t-57 -143v-1024q0 -17 -12 -29t-29 -12h-103q-16 0 -28 12t-13 29v768q0 20 -20 20l-181 13q-12 12 -13 28z" />
    <glyph glyph-name="florin" unicode="&#x192;" horiz-adv-x="700" 
d="M33 870v103q0 17 12 29t29 12h133q20 0 20 20v31q0 185 105 284t273 99h21q16 0 28 -12t13 -29v-96q-1 -17 -13 -29t-28 -12h-21q-88 0 -141 -50t-53 -155v-31q0 -20 20 -20h168q17 0 29 -12t12 -29v-103q0 -16 -12 -28t-29 -13h-168q-20 0 -20 -20v-870q0 -183 -64 -266
t-232 -83h-23q-16 0 -28 12t-13 29v103q-1 16 11 28t28 13h29q62 -1 84 39t22 125v870q0 20 -20 20l-159 13q-12 12 -13 28z" />
    <glyph glyph-name="Aringacute" unicode="&#x1fa;" horiz-adv-x="999" 
d="M432 1434h143q33 0 39 -31l381 -1362q4 -17 -7 -29t-35 -12h-112q-29 0 -40 31l-90 313q-6 29 -39 29h-340q-30 0 -40 -29l-90 -313q-11 -31 -39 -31l-144 12q-11 12 -7 29l381 1362q6 31 39 31zM374 563h254q24 0 16 23l-133 571q-5 12 -9 12h-4q-4 0 -9 -12l-132 -571
q-6 -23 17 -23zM500 1802q-34 0 -58 -24t-24 -58t24 -58t58 -24t58 24t24 58t-24 58t-58 24zM610 1915q115 -65 115 -211q1 -78 -65 -144t-160 -65t-160 65t-66 151t47 147t119 79l148 211q2 2 8 10q19 24 45 23h162q19 -1 27 -17t-5 -26z" />
    <glyph glyph-name="aringacute" unicode="&#x1fb;" horiz-adv-x="997" 
d="M315 753q0 -35 -47 -35h-92q-41 0 -41 41q-1 131 113 208t258 77q375 0 375 -327v-676q-1 -17 -13 -29t-28 -12h-70q-23 0 -38 29t-30 28q-15 0 -41 -16q-97 -61 -200 -61q-181 0 -282 98v1q-91 88 -91 224t90 226t248 90h250q20 0 20 21v78q0 82 -50 123t-128 41
t-140 -31t-63 -98zM426 451q-154 0 -154 -142q0 -77 46 -118t161 -41q234 0 234 215v65q0 21 -21 21h-266zM500 1454q-34 0 -58 -24t-24 -58t24 -58t58 -24t58 24t24 58t-24 58t-58 24zM610 1567q115 -65 115 -211q1 -78 -65 -144t-160 -65t-160 65t-66 151t47 147t119 79
l148 211q2 2 8 10q19 24 45 23h162q19 -1 27 -17t-5 -26z" />
    <glyph glyph-name="AEacute" unicode="&#x1fc;" horiz-adv-x="1480" 
d="M454 1433h901q17 -1 29 -13t12 -28v-113q0 -17 -12 -29t-29 -12h-488q-20 0 -20 -20v-369q0 -18 20 -20h465q16 0 28 -12t13 -29v-112q0 -16 -12 -28t-29 -13h-465q-20 0 -20 -21v-399q0 -20 20 -20h492q17 -1 29 -13t12 -28v-113q0 -17 -12 -29t-29 -12h-666
q-17 0 -29 12t-12 29v299q0 33 -39 33h-282q-33 0 -39 -29l-90 -313q-6 -31 -39 -31h-113l2 -1q-24 1 -35 13t-7 28l375 1339q5 19 23 37t46 17zM374 563h258q20 0 20 23v633q0 20 -20 20h-88q-20 0 -28 -20l-159 -633q-6 -23 17 -23zM715 1536q-19 0 -29 16t0 25l156 223
q2 2 8 10q19 24 45 23h162q19 -1 27 -17t-5 -26l-221 -229q-25 -25 -61 -25h-82z" />
    <glyph glyph-name="aeacute" unicode="&#x1fd;" horiz-adv-x="1626" 
d="M429 454q-154 0 -154 -148q1 -72 47 -114q46 -41 160 -41q114 -1 180 53q64 54 64 162v67q0 21 -21 21h-276zM1136 862v-1q-104 1 -170 -63t-66 -160q0 -18 21 -20h425q21 0 21 21q1 103 -65 163t-166 60zM317 753q0 -35 -47 -35h-92q-41 0 -41 41q0 133 115 209t259 76
q89 0 167 -36t116 -84q10 -14 28 -14t33 14q111 120 279 120q167 0 287 -120t120 -289v-141q-2 -17 -14 -29t-28 -12h-586q-20 0 -20 -21q0 -136 63 -202t158 -66t152 36t75 93q10 35 48 35h104q17 0 28 -10t7 -31q-20 -137 -128 -222t-276 -85t-280 104q-37 34 -78 -2
q-122 -102 -304 -102t-283 98l3 2q-91 88 -91 224t91 225q91 88 247 88h260q21 0 21 21v70q0 84 -56 129t-134 45q-76 0 -140 -29t-63 -100zM766 1198q-18 0 -28 16t-1 25l156 223q1 1 6 7q3 5 7 9l6 6t7 4q12 8 27 7h162q18 -1 26 -17t-4 -26l-221 -229q-25 -25 -61 -25
h-82z" />
    <glyph glyph-name="Oslashacute" unicode="&#x1fe;" horiz-adv-x="1138" 
d="M574 180q100 0 174 61q72 61 87 169t17 269t-4 230t-12 74q-5 5 -14 -8l-422 -711l1 -1q-13 -21 6 -34q67 -49 167 -49zM568 1259q-104 -1 -178 -61t-88 -180t-15 -266v-2q-3 -294 14 -304q5 -3 15 12q136 224 431 717q13 18 -3 25q-72 59 -176 59zM108 0v4q-22 0 -34 18
t1 39l84 136q13 22 0 35q-41 94 -55 201t-13 293q0 186 17 301q21 180 143 303t300 123t292 -84q10 -10 22 4l23 33q11 18 18 24t21 7h106q21 0 33 -19t0 -39l-92 -145q-7 -11 0 -22q38 -76 54 -182t15 -292q1 -184 -17 -346t-140 -286q-122 -122 -318 -122q-156 0 -270 79
q-14 8 -23 -4l-18 -28q-19 -31 -43 -31h-106zM582 1536h-83q-19 0 -29 16t0 25l156 223q2 2 8 10q19 24 45 23h162q19 -1 27 -17t-4 -26l-221 -229q-25 -25 -61 -25z" />
    <glyph glyph-name="oslashacute" unicode="&#x1ff;" horiz-adv-x="1024" 
d="M522 166q92 0 156 59t70 146q11 191 -1 285q1 8 -5 14t-14 -3l-359 -440q-9 -14 2 -20q59 -41 151 -41zM496 861q-88 0 -150 -59q-64 -59 -71 -146q-8 -133 -4 -206q5 -73 9 -75t10 3l352 430q9 14 -2 20q-56 33 -144 33zM495 1045q164 0 263 -73q4 -4 8 -4t10 6l19 20
q25 31 49 31h96q21 1 33 -21t-3 -40l-86 -105q-10 -11 -2 -29q43 -113 48 -174q9 -144 -2 -300q-10 -156 -124 -266t-280 -110t-273 81q-10 10 -18 -2l-22 -28q-21 -31 -51 -31h-99l-1 1q-22 1 -33 23t5 43l100 118q9 11 2 22q-64 135 -41 461q11 156 125 266t277 111z
M424 1198q-18 0 -28 16t-1 25l156 223q1 1 5 7q4 5 8 9l6 6t7 4q12 8 27 7h162q18 -1 26 -17t-4 -26l-221 -229q-25 -25 -61 -25h-82z" />
    <glyph glyph-name="Scommaaccent" unicode="&#x218;" horiz-adv-x="1044" 
d="M468 -91h143q17 -1 29 -13t12 -28v-125q0 -68 -41 -127l-65 -94q-19 -31 -52 -31h-19q-28 1 -39 23t2 45l64 116q6 9 0 18t-19 9h-14q-17 0 -29 12t-12 29l-1 125q1 16 13 28t28 13zM63 411v32q1 17 13 29t28 12h115q17 0 29 -12t12 -29v-32q0 -103 75 -167t189 -65
q114 0 188 66t74 167q0 176 -198 228q-34 8 -46 12t-50 12t-50 12q-156 32 -249 131t-93 266t126 273t300 105q174 0 295 -113t121 -272v-27q0 -17 -12 -29t-29 -12h-113q-16 0 -28 12t-12 29v27q0 94 -68 142t-164 48t-158 -51t-61 -139q-1 -155 201 -207q20 -5 56 -13
t50 -11q379 -94 379 -425q-1 -186 -137 -306t-329 -120t-324 126l2 1q-132 124 -132 300z" />
    <glyph glyph-name="scommaaccent" unicode="&#x219;" horiz-adv-x="940" 
d="M399 -93h144q17 -1 29 -13t12 -28v-125q0 -65 -41 -127l-66 -94q-19 -31 -53 -31h-18q-28 1 -40 23t2 45l63 116q6 9 -1 18t-17 9h-15q-16 0 -28 12t-13 29l1 125q0 16 12 28t29 13zM468 156q220 0 220 151q0 56 -64 89q-33 15 -155 42q-173 33 -248 81q-122 78 -122 219
q0 142 111 224q112 82 264 82t262 -84t110 -223q0 -17 -12 -29t-29 -12h-103q-16 0 -28 12t-12 29q0 57 -47 95t-141 38t-138 -36q-45 -36 -45 -80t33 -77t147 -54q6 -1 32 -6q27 -5 35 -7t32 -6t36 -8t33 -10q234 -67 234 -279q-1 -157 -117 -242t-286 -85t-278 78l-3 -1
q-126 90 -126 250v27q0 16 12 28t28 13h103q16 -1 28 -13t13 -28v-27q0 -81 76 -121q54 -30 145 -30z" />
    <glyph glyph-name="uni021A" unicode="&#x21a;" horiz-adv-x="868" 
d="M323 -258v125q0 17 12 29t29 12h143q17 0 29 -12t12 -29v-125q0 -65 -41 -127l-66 -94q-19 -31 -53 -31h-18q-28 0 -39 22t2 46l63 116q6 9 -1 18t-17 9h-14q-16 1 -28 13t-13 28zM317 1239h-273q-16 1 -28 13t-13 28v113q1 17 13 29t28 12h778q16 0 28 -12t13 -29v-113
q0 -16 -12 -28t-29 -13h-270q-18 0 -20 -20v-1178q0 -17 -12 -29t-28 -12h-113q-17 0 -29 12t-12 29v1178q0 20 -21 20z" />
    <glyph glyph-name="uni021B" unicode="&#x21b;" horiz-adv-x="737" 
d="M335 -258v125q0 17 12 29t29 12h143q17 0 29 -12t12 -29v-125q0 -68 -41 -127l-65 -94q-19 -31 -54 -31h-18q-28 0 -39 22t2 46l64 116q7 9 -1 18t-18 9h-14q-16 1 -28 13t-13 28zM195 829h-145q-16 1 -28 13t-13 28v103q1 17 13 29t28 12h144q20 0 20 20v318q0 16 12 28
t29 13h102q17 -1 29 -13t12 -28v-318q0 -20 21 -20h235q16 0 28 -12t13 -29v-103q0 -16 -12 -28t-29 -13h-235q-18 0 -20 -20v-481q0 -74 37 -112t127 -38h113q16 0 28 -12t13 -29v-96q-1 -17 -13 -29t-28 -12h-113q-348 0 -348 328v481q0 20 -20 20z" />
    <glyph glyph-name="apostrophemod" unicode="&#x2bc;" horiz-adv-x="423" 
d="M158 901h-30q-28 1 -39 23t2 45l94 172q6 9 -1 17t-17 9h-35q-16 1 -28 13t-13 28v185q1 17 13 29t28 12h184q16 0 28 -12t13 -29v-185q0 -68 -41 -127l-106 -149q-19 -31 -52 -31z" />
    <glyph glyph-name="circumflex" unicode="&#x2c6;" horiz-adv-x="1044" 
d="M221 1198q-19 0 -27 16t5 27l221 229q25 25 61 25h86q31 1 41 -7q9 -8 19 -18l221 -229q11 -11 4 -27t-27 -16h-120q-31 0 -64 33l-104 100q-13 13 -29 0l-102 -100q-33 -33 -64 -33h-121z" />
    <glyph glyph-name="caron" unicode="&#x2c7;" horiz-adv-x="921" 
d="M162 1495h121q34 0 63 -33l102 -100q14 -14 28 0l105 100q33 33 62 33h121q18 -1 26 -17t-4 -26l-221 -229q-25 -25 -59 -25h-86q-33 0 -42 8q-10 8 -20 17l-221 229h2q-11 10 -4 26t27 17z" />
    <glyph glyph-name="breve" unicode="&#x2d8;" horiz-adv-x="974" 
d="M198 1460q0 14 10 24t24 11h88q16 0 26 -10t9 -25q1 -46 39 -80t86 -34t86 34t37 80q0 15 10 25t25 10h88q14 0 24 -10t11 -25q-1 -110 -81 -186t-202 -76t-202 77h1q-79 74 -79 185z" />
    <glyph glyph-name="dotaccent" unicode="&#x2d9;" horiz-adv-x="477" 
d="M166 1241q-33 0 -33 33v141q-1 13 9 23t24 10h139q13 0 23 -10t10 -23v-141q0 -33 -33 -33h-139z" />
    <glyph glyph-name="ring" unicode="&#x2da;" horiz-adv-x="1060" 
d="M516 1454q-34 0 -58 -24t-24 -58t24 -58t58 -24t58 24t24 58t-24 58t-58 24zM291 1371q0 95 64 161t160 65q96 0 161 -65t65 -161q1 -96 -65 -160t-161 -64t-158 66q-66 63 -66 158z" />
    <glyph glyph-name="ogonek" unicode="&#x2db;" horiz-adv-x="651" 
d="M459 -430q-153 0 -245 72t-91 209q-1 139 107 221t229 82q17 0 29 -12t12 -29v-72q0 -17 -12 -29t-29 -12q-74 0 -120 -38t-46 -103q0 -135 166 -135q17 0 29 -12t12 -29v-72q0 -17 -12 -29t-29 -12z" />
    <glyph glyph-name="tilde" unicode="&#x2dc;" horiz-adv-x="1032" 
d="M227 1267v82q1 42 43 73t104 31q62 1 138 -25q78 -26 144 -26t98 43q12 17 32 7t19 -37v-82q-1 -42 -43 -73t-106 -31q-64 -1 -140 25t-140 26t-97 -43v1q-12 -16 -32 -8t-20 37z" />
    <glyph glyph-name="hungarumlaut" unicode="&#x2dd;" horiz-adv-x="956" 
d="M216 1198h-83q-19 0 -29 16t0 25l156 223q2 1 6 7q4 5 8 9l6 6t6 4q12 8 27 7h162q19 -1 27 -17t-3 -26l-221 -229q-25 -25 -62 -25zM565 1198h-83q-18 0 -28 16t0 25l155 223q0 6 7 11l12 10q13 12 35 12h161q19 -1 27 -17t-3 -26l-221 -229q-25 -25 -62 -25z" />
    <glyph glyph-name="Delta" unicode="&#x394;" horiz-adv-x="1384" 
d="M324 175h737q22 0 12 25l-366 866q-6 12 -13 12h-4q-6 0 -12 -12l-367 -866q-5 -8 -2 -16t15 -9zM143 0v1q-17 1 -29 13t-12 28v104q0 27 15 60l471 1075q12 31 39 31h131q27 0 39 -31l471 -1075q14 -31 14 -61v-104q0 -17 -12 -29t-29 -12h-1098z" />
    <glyph glyph-name="Omega" unicode="&#x3a9;" horiz-adv-x="1398" 
d="M100 762q0 290 168 484t428 194q259 0 429 -194t170 -465q-1 -175 -63 -335t-172 -238q-16 -10 -12 -28t26 -17h137q17 -1 29 -13t12 -28v-82q0 -16 -12 -28t-29 -13h-360q-17 1 -29 13t-12 28v121q0 60 51 95q96 63 161 178q91 157 91 350t-113 338q-122 150 -304 150
t-297 -147t-115 -341q0 -193 91 -350q65 -115 161 -178q51 -35 51 -95v-121q-1 -16 -13 -28t-28 -13h-361q-17 1 -29 13t-12 28v82q0 16 12 28t29 13h138q23 1 28 17t-11 26q-116 81 -179 251l-2 -1q-59 156 -59 306z" />
    <glyph glyph-name="mu" unicode="&#x3bc;" horiz-adv-x="1069" 
d="M266 -410h-99q-17 0 -29 12t-12 29v1352q0 17 12 29t29 12h102q17 0 29 -12t12 -29v-614q0 -89 64 -147t162 -58t162 52q63 52 63 142v625q0 17 12 29t29 12h102q16 0 28 -12t13 -29v-942q0 -17 -12 -29t-29 -12h-90q-16 0 -30 14q-16 16 -26 24q-29 20 -59 1t-39 -25
q-52 -34 -134 -34t-170 60q-14 12 -32 4t-17 -32v-381q0 -17 -12 -29t-29 -12z" />
    <glyph glyph-name="pi" unicode="&#x3c0;" horiz-adv-x="1103" 
d="M195 840h-125q-16 0 -28 12t-13 29v102q0 17 12 29t29 12h942q16 0 28 -12t13 -29v-102q-1 -17 -13 -29t-28 -12h-174q-19 0 -20 -21v-430q0 -85 60 -145t145 -60q17 0 29 -12t12 -29v-102q0 -17 -12 -29t-29 -12q-163 0 -276 113t-113 276v430q0 21 -17 21h-198
q-19 0 -20 -21v-778q0 -17 -12 -29t-29 -12h-102q-16 0 -28 12t-13 29v778q0 21 -20 21z" />
    <glyph glyph-name="Wgrave" unicode="&#x1e80;" horiz-adv-x="1472" 
d="M52 1434h111q33 0 39 -31l200 -1051q2 -12 13 -12h4q7 0 12 12l176 1051q6 31 39 31h144q35 0 39 -31l193 -1051q2 -12 12 -12h4q8 0 13 12l219 1051q6 31 39 31h110q24 0 35 -12t7 -29l-291 -1362q-6 -31 -39 -31h-174q-32 0 -38 31l-189 1022q-2 8 -8 8t-9 -8
l-176 -1022q-6 -31 -39 -31h-174q-33 0 -39 31l-274 1362q-4 17 7 29t34 12zM461 1833h162q23 -1 33 -11t20 -22l155 -223q9 -9 0 -25t-28 -16h-82q-33 0 -42 8q-10 8 -20 17l-221 229q-11 10 -4 26t27 17z" />
    <glyph glyph-name="wgrave" unicode="&#x1e81;" horiz-adv-x="1368" 
d="M76 1024h116q31 0 38 -31l158 -663q4 -12 13 -12t13 12l180 663q7 31 39 31h106q31 0 38 -31l180 -663q4 -12 13 -12t13 12l158 663q7 31 39 31h116q24 0 34 -14t6 -33l-266 -946q-11 -31 -39 -31h-112q-31 0 -39 31l-187 676q-3 6 -9 6t-8 -6l-187 -676q-11 -31 -39 -31
h-113q-31 0 -39 31l-262 946q-4 19 6 33t34 14zM428 1495h162q28 -1 36 -11t17 -22l156 -223q9 -9 0 -25t-29 -16h-82q-35 0 -44 8t-17 17l-221 229h-1q-11 10 -3 26t26 17z" />
    <glyph glyph-name="Wacute" unicode="&#x1e82;" horiz-adv-x="1472" 
d="M51 1434h111q33 0 39 -31l200 -1051q1 -12 13 -12h4q8 0 12 12l176 1051q6 31 39 31h144q35 0 39 -31l193 -1051q1 -12 12 -12h4q9 0 13 12l219 1051q6 31 39 31h110q24 0 35 -12t7 -29l-291 -1362q-6 -31 -39 -31h-174q-32 0 -38 31l-189 1022q-3 8 -9 8t-8 -8
l-176 -1022q-6 -31 -39 -31h-174q-33 0 -39 31l-274 1362q-4 17 7 29t34 12zM752 1536h-83q-19 0 -29 16t0 25l156 223q2 2 8 10q19 24 45 23h162q19 -1 27 -17t-4 -26l-221 -229q-25 -25 -61 -25z" />
    <glyph glyph-name="wacute" unicode="&#x1e83;" horiz-adv-x="1368" 
d="M76 1024h116q31 0 38 -31l158 -663q4 -12 13 -12t13 12l180 663q7 31 39 31h106q31 0 38 -31l180 -663q4 -12 13 -12t13 12l158 663q7 31 39 31h116q24 0 34 -14t6 -33l-266 -946q-11 -31 -39 -31h-112q-31 0 -39 31l-187 676q-3 6 -9 6t-8 -6l-187 -676q-11 -31 -39 -31
h-113q-31 0 -39 31l-262 946q-4 19 6 33t34 14zM678 1198h-83q-19 0 -29 16t0 25l156 223q2 1 6 7q4 5 8 9l6 6t6 4q12 8 27 7h162q19 -1 27 -17t-3 -26l-222 -229q-25 -25 -61 -25z" />
    <glyph glyph-name="Wdieresis" unicode="&#x1e84;" horiz-adv-x="1472" 
d="M52 1434h111q33 0 39 -31l200 -1051q2 -12 13 -12h4q7 0 12 12l176 1051q6 31 39 31h144q35 0 39 -31l193 -1051q2 -12 12 -12h4q8 0 13 12l219 1051q6 31 39 31h110q24 0 35 -12t7 -29l-291 -1362q-6 -31 -39 -31h-174q-32 0 -38 31l-189 1022q-2 8 -8 8t-9 -8
l-176 -1022q-6 -31 -39 -31h-174q-33 0 -39 31l-274 1362q-4 17 7 29t34 12zM492 1536q-33 0 -33 33v141q-1 13 9 23t24 10h139q13 0 23 -10t10 -23v-141q0 -33 -33 -33h-139zM842 1536q-33 0 -33 33v141q-1 13 9 23t24 10h139q13 0 23 -10t10 -23v-141q0 -33 -33 -33h-139z
" />
    <glyph glyph-name="wdieresis" unicode="&#x1e85;" horiz-adv-x="1368" 
d="M77 1024h116q31 0 38 -31l158 -663q4 -12 13 -12t13 12l180 663q7 31 39 31h106q31 0 38 -31l180 -663q4 -12 13 -12t13 12l158 663q7 31 39 31h116q24 0 34 -14t6 -33l-266 -946q-11 -31 -39 -31h-112q-31 0 -39 31l-187 676q-2 6 -8 6t-9 -6l-187 -676q-11 -31 -39 -31
h-113q-31 0 -39 31l-262 946q-4 19 6 33t34 14zM438 1241q-32 0 -32 33v141q0 13 9 23t23 10h140q14 0 23 -10t9 -23v-141q0 -33 -32 -33h-140zM788 1241q-32 0 -32 33v141q0 13 9 23t23 10h140q14 0 24 -10t9 -23v-141q0 -33 -33 -33h-140z" />
    <glyph glyph-name="Ygrave" unicode="&#x1ef2;" horiz-adv-x="937" 
d="M57 1434h136q31 0 38 -31l232 -637q7 -20 15 0l228 637q10 31 39 31h136q21 0 32 -18t0 -40l-344 -882v-453q0 -17 -12 -29t-29 -12h-114q-16 0 -28 12t-13 29v451l-349 884q-8 22 2 40t31 18zM193 1833h161q18 -1 26 -7t12 -8t9 -10q5 -6 7 -8l155 -223q9 -9 0 -25
t-28 -16h-82q-39 0 -62 25l-221 229q-11 10 -4 26t27 17z" />
    <glyph glyph-name="ygrave" unicode="&#x1ef3;" horiz-adv-x="946" 
d="M53 1023h125q29 0 39 -31l252 -665q7 -19 15 0l238 665q10 31 40 31h121q24 0 35 -15t5 -32l-521 -1356q-10 -31 -39 -31h-110q-24 0 -35 15t-5 33l152 417q6 18 2 28l-353 894q-6 17 5 32t34 15zM238 1495h161q31 0 49 -27q4 -5 5 -6l155 -223q9 -9 0 -25t-28 -16h-82
q-39 0 -62 25l-221 229q-11 10 -4 26t27 17z" />
    <glyph glyph-name="uni2000" unicode="&#x2000;" horiz-adv-x="1090" 
 />
    <glyph glyph-name="uni2001" unicode="&#x2001;" horiz-adv-x="2181" 
 />
    <glyph glyph-name="uni2002" unicode="&#x2002;" horiz-adv-x="1090" 
 />
    <glyph glyph-name="uni2003" unicode="&#x2003;" horiz-adv-x="2181" 
 />
    <glyph glyph-name="uni2004" unicode="&#x2004;" horiz-adv-x="727" 
 />
    <glyph glyph-name="uni2005" unicode="&#x2005;" horiz-adv-x="545" 
 />
    <glyph glyph-name="uni2006" unicode="&#x2006;" horiz-adv-x="363" 
 />
    <glyph glyph-name="uni2007" unicode="&#x2007;" horiz-adv-x="363" 
 />
    <glyph glyph-name="uni2008" unicode="&#x2008;" horiz-adv-x="272" 
 />
    <glyph glyph-name="uni2009" unicode="&#x2009;" horiz-adv-x="436" 
 />
    <glyph glyph-name="uni200A" unicode="&#x200a;" horiz-adv-x="121" 
 />
    <glyph glyph-name="uni2010" unicode="&#x2010;" horiz-adv-x="927" 
d="M184 436q-16 0 -28 12t-13 29v139q1 16 13 28t28 13h559q17 0 29 -12t12 -29v-139q0 -17 -12 -29t-29 -12h-559z" />
    <glyph glyph-name="uni2011" unicode="&#x2011;" horiz-adv-x="927" 
d="M184 436q-16 0 -28 12t-13 29v139q1 16 13 28t28 13h559q17 0 29 -12t12 -29v-139q0 -17 -12 -29t-29 -12h-559z" />
    <glyph glyph-name="figuredash" unicode="&#x2012;" horiz-adv-x="927" 
d="M184 436q-16 0 -28 12t-13 29v139q1 16 13 28t28 13h559q17 0 29 -12t12 -29v-139q0 -17 -12 -29t-29 -12h-559z" />
    <glyph glyph-name="endash" unicode="&#x2013;" horiz-adv-x="1146" 
d="M184 436q-16 0 -28 12t-13 29v113q1 16 13 28t28 13h779q17 -1 29 -13t12 -28v-113q0 -17 -12 -29t-29 -12h-779z" />
    <glyph glyph-name="emdash" unicode="&#x2014;" horiz-adv-x="1454" 
d="M184 436q-16 0 -28 12t-13 29v113q1 16 13 28t28 13h1086q16 -1 28 -13t13 -28v-113q-1 -17 -13 -29t-28 -12h-1086z" />
    <glyph glyph-name="quoteleft" unicode="&#x2018;" horiz-adv-x="423" 
d="M311 901h-185q-16 1 -28 13t-13 28v184q0 67 41 127l106 150q19 31 54 31h28q28 0 40 -22t-2 -46l-94 -172q-6 -9 1 -18t17 -9h35q17 0 29 -12t12 -29v-184q0 -16 -12 -28t-29 -13z" />
    <glyph glyph-name="quoteright" unicode="&#x2019;" horiz-adv-x="423" 
d="M158 901h-30q-28 1 -39 23t2 45l94 172q6 9 -1 17t-17 9h-35q-16 1 -28 13t-13 28v185q1 17 13 29t28 12h184q16 0 28 -12t13 -29v-185q0 -68 -41 -127l-106 -149q-19 -31 -52 -31z" />
    <glyph glyph-name="quotesinglbase" unicode="&#x201a;" horiz-adv-x="550" 
d="M229 0h-34q-17 0 -29 12t-12 29v184q0 17 12 29t29 12h184q17 0 29 -12t12 -29v-184q0 -65 -41 -127l-107 -150q-18 -30 -53 -30l-67 22q-12 22 2 45l94 172q6 9 0 18t-19 9z" />
    <glyph glyph-name="quotedblleft" unicode="&#x201c;" horiz-adv-x="833" 
d="M312 901h-185q-17 1 -29 13t-12 28v184q0 67 41 127l106 150q19 31 54 31h28q28 0 40 -22t-2 -46l-94 -172q-6 -9 1 -18t17 -9h35q16 0 28 -12t13 -29v-184q0 -16 -12 -28t-29 -13zM497 942v184q0 70 41 127l106 150q19 31 52 31h29q28 0 39 -22t-2 -46l-94 -172
q-6 -9 1 -18t17 -9h35q17 0 29 -12t12 -29v-184q0 -16 -12 -28t-29 -13l-211 13q-12 12 -13 28z" />
    <glyph glyph-name="quotedblright" unicode="&#x201d;" horiz-adv-x="833" 
d="M159 901h-30q-28 1 -39 23t2 45l94 172q6 9 -1 17t-17 9h-35q-17 1 -29 13t-12 28v185q0 17 12 29t29 12h184q17 0 29 -12t12 -29v-185q0 -68 -41 -127l-106 -149q-19 -31 -52 -31zM578 1167h-35q-17 1 -29 13t-12 28v185q0 17 12 29t29 12h184q17 0 29 -12t12 -29v-185
q0 -66 -41 -127l-106 -149q-19 -31 -54 -31l-67 23q-12 22 2 45l94 172q6 9 -1 17t-17 9z" />
    <glyph glyph-name="quotedblbase" unicode="&#x201e;" horiz-adv-x="935" 
d="M200 -266h-30q-28 0 -39 22t2 45l94 172q6 9 -1 18t-17 9h-35q-16 0 -28 12t-13 29v184q1 17 13 29t28 12h184q16 0 28 -12t13 -29v-184q0 -68 -41 -127l-106 -150q-18 -30 -52 -30zM618 0h-34q-16 0 -28 12t-13 29v184q0 17 12 29t29 12h184q16 0 28 -12t13 -29v-184
q0 -65 -41 -127l-106 -150q-18 -30 -54 -30l-67 22q-12 22 2 45l94 172q5 9 -1 18t-18 9z" />
    <glyph glyph-name="dagger" unicode="&#x2020;" horiz-adv-x="921" 
d="M82 819q-16 1 -28 13t-13 28v103q1 17 13 29t28 12h266q21 0 21 20v369q0 17 12 29t29 12h102q16 0 28 -12t13 -29v-369q0 -20 20 -20h267q16 0 28 -12t13 -29v-103q-1 -16 -13 -28t-28 -13h-267q-20 0 -20 -20v-1004q-1 -17 -13 -29t-28 -12h-102q-16 0 -28 12t-13 29
v1004q0 20 -21 20h-266z" />
    <glyph glyph-name="daggerdbl" unicode="&#x2021;" horiz-adv-x="958" 
d="M47 384v98q1 16 13 28t28 13h283q20 0 20 21v344q0 20 -20 20h-283q-16 0 -28 12t-13 29v99q1 16 13 28t28 13h283q20 0 20 20v283q1 16 13 28t28 13h90q16 -1 28 -13t13 -28v-283q0 -20 21 -20h282q16 -1 28 -13t13 -28v-99q0 -17 -12 -29t-29 -12h-282q-18 0 -20 -20
v-344q0 -18 21 -20h282q17 0 29 -12t12 -29v-98q0 -17 -12 -29t-29 -12h-282q-18 0 -20 -20v-283q0 -17 -12 -29t-29 -12h-90q-16 0 -28 12t-13 29v283q0 20 -20 20h-283l-2 -1q-16 1 -28 13t-13 28z" />
    <glyph glyph-name="bullet" unicode="&#x2022;" horiz-adv-x="772" 
d="M213 379q-17 0 -29 12t-12 29v348q0 16 12 28t29 13h348q17 -1 29 -13t12 -28v-348q0 -16 -12 -28t-29 -13h-348z" />
    <glyph glyph-name="ellipsis" unicode="&#x2026;" horiz-adv-x="1411" 
d="M150 0q-16 0 -28 12t-13 29v184q0 17 12 29t29 12h184q16 0 28 -12t13 -29v-184q-1 -17 -13 -29t-28 -12h-184zM612 0q-16 0 -28 12t-13 29v184q1 17 13 29t28 12h185q17 0 29 -12t12 -29v-184q0 -17 -12 -29t-29 -12h-185zM1077 0q-17 0 -29 12t-12 29v184q0 17 12 29
t29 12h185q16 0 28 -12t13 -29v-184q-1 -17 -13 -29t-28 -12h-185z" />
    <glyph glyph-name="uni202F" unicode="&#x202f;" horiz-adv-x="436" 
 />
    <glyph glyph-name="perthousand" unicode="&#x2030;" horiz-adv-x="1855" 
d="M961 172q35 0 59 22t32 82q8 62 0 122t-30 81t-58 21t-58 -20q-24 -20 -28 -54h-1q-17 -185 27 -231q22 -23 57 -23zM1526 172q35 0 59 22q25 22 33 82q8 62 0 122t-31 81q-21 21 -57 21t-60 -20t-27 -54q-8 -88 0 -176q4 -32 26 -55t57 -23zM964 656q92 0 154 -58
q109 -102 74 -362q-8 -88 -70 -152t-157 -64q-93 0 -157 58t-76 158q-34 250 76 358q64 62 156 62zM1528 656q92 0 155 -58q109 -102 74 -362q-9 -88 -71 -152t-156 -64t-156 58t-76 158h-1q-34 250 76 358q63 62 155 62zM359 930q35 0 59 22t30 56q13 88 0 176
q-4 31 -26 52t-58 21q-36 1 -60 -19t-28 -54q-8 -88 0 -176q4 -32 26 -55t57 -23zM361 1414q93 0 156 -58q110 -102 75 -362q-8 -92 -70 -154t-158 -62q-95 0 -158 58t-75 157q-34 250 75 359q62 62 155 62zM180 0q-21 0 -33 18t0 39l875 1346q18 31 45 31h78q22 0 34 -18
t-1 -40l-873 -1345q-19 -31 -43 -31h-82z" />
    <glyph glyph-name="guilsinglleft" unicode="&#x2039;" horiz-adv-x="643" 
d="M362 922h93q31 0 41 -18t-8 -50l-174 -297q-17 -23 0 -49l174 -297q17 -33 7 -51t-40 -17h-93q-37 0 -51 31l-196 330v1q-18 29 1 56l196 330q14 31 50 31z" />
    <glyph glyph-name="guilsinglright" unicode="&#x203a;" horiz-adv-x="643" 
d="M188 143v-2q-30 -1 -40 17t7 51l174 297q16 28 0 50l-174 297q-17 33 -7 51t40 17h93q37 0 51 -31l196 -330q18 -29 -1 -56l-196 -330q-14 -31 -50 -31h-93z" />
    <glyph glyph-name="fraction" unicode="&#x2044;" horiz-adv-x="329" 
d="M-317 0q-22 0 -34 18t1 39l874 1346q18 31 45 31h78q22 0 34 -18t-1 -40l-873 -1345q-19 -31 -43 -31h-81z" />
    <glyph glyph-name="uni205F" unicode="&#x205f;" horiz-adv-x="545" 
 />
    <glyph glyph-name="Euro" unicode="&#x20ac;" horiz-adv-x="1171" 
d="M175 975q19 0 19 14q0 203 130 332t331 129t333 -118t132 -308v-29q0 -17 -12 -29t-29 -12h-112q-17 0 -29 12t-12 29v29q0 95 -74 163t-192 68q-117 0 -194 -65t-77 -201q0 -14 8 -14h344q17 -1 29 -13t12 -28v-86q0 -16 -12 -28t-29 -13h-350q-14 0 -14 -16v-111
q0 -21 16 -21h348q17 0 29 -12t12 -29v-86q0 -16 -12 -28t-29 -12h-340q-14 0 -14 -19q0 -129 67 -212t190 -83q122 0 202 61t80 171v28q0 16 12 28t29 13h112q17 0 29 -12t12 -29v-28q0 -176 -131 -301t-339 -125t-332 139q-125 139 -125 350q0 19 -21 19h-87q-17 0 -29 12
t-12 28v86q0 16 12 28t29 13h80q16 0 16 10v124q0 14 -14 14h-82q-17 0 -29 12t-12 29v86q0 16 12 28t29 13h90z" />
    <glyph glyph-name="afii61289" unicode="&#x2113;" horiz-adv-x="1009" 
d="M395 1045v-291q167 16 263 89t96 202q0 87 -46 146t-128 59t-134 -60t-51 -145zM102 557v1q-16 0 -28 12t-13 29v102q1 17 13 29t28 12h99v303q-1 165 109 277t268 113q158 0 264 -112t105 -289q0 -177 -149 -306q-150 -128 -403 -158v-108q0 -161 73 -229t247 -68h73
q16 -1 28 -13t13 -28v-103q0 -16 -12 -28t-29 -12h-73q-275 -1 -395 117t-119 359v100h-99z" />
    <glyph glyph-name="afii61352" unicode="&#x2116;" horiz-adv-x="2013" 
d="M1222 0q-16 0 -28 12t-13 29v88q0 17 12 29t29 12h622q16 0 28 -12t13 -29v-88q0 -17 -12 -29t-29 -12h-622zM1527 457q89 0 142 50t60 126q6 105 0 195t-60 141q-54 50 -143 50t-143 -50t-60 -126l1 -1q-6 -104 0 -194t60 -141q54 -50 143 -50zM174 1q-16 1 -28 13
t-13 28v1352q1 16 13 28t28 13h170q17 0 26 -7t17 -28l404 -1010q4 -6 10 -5t6 9v1000q0 16 12 28t29 13h104q16 -1 28 -13t13 -28v-1352q0 -16 -12 -28t-29 -13h-170q-18 1 -26 7t-17 28l-403 1014q-4 6 -10 5t-7 -10v-1003q0 -16 -12 -28t-28 -13h-105zM1526 1199
q160 -1 263 -99t114 -230t1 -263t-114 -232t-264 -101t-266 104v1q-101 96 -113 249q-10 111 0 221q12 153 116 251q103 98 263 99z" />
    <glyph glyph-name="trademark" unicode="&#x2122;" horiz-adv-x="1499" 
d="M790 716h-95q-20 0 -20 20v676q0 21 20 21h160q17 0 23 -19l123 -428q5 -9 11 0l123 428q2 19 20 19h160q20 0 20 -21v-676q0 -20 -20 -20h-90q-18 0 -20 20v451q0 5 -4 5t-4 -3l-147 -457q-6 -16 -21 -16h-43q-16 0 -22 16l-146 457q-2 4 -5 3t-3 -5v-451q0 -20 -20 -20
zM104 1412q0 21 21 21h471q20 0 20 -21v-98q0 -18 -20 -20h-156q-10 0 -10 -10v-547q0 -20 -20 -20h-99q-20 0 -20 20v547q0 10 -10 10h-156l-1 -1q-18 0 -20 21v98z" />
    <glyph glyph-name="uni2126" unicode="&#x2126;" horiz-adv-x="1398" 
d="M100 762q0 290 168 484t428 194q259 0 429 -194t170 -465q-1 -175 -63 -335t-172 -238q-16 -10 -12 -28t26 -17h137q17 -1 29 -13t12 -28v-82q0 -16 -12 -28t-29 -13h-360q-17 1 -29 13t-12 28v121q0 60 51 95q96 63 161 178q91 157 91 350t-113 338q-122 150 -304 150
t-297 -147t-115 -341q0 -193 91 -350q65 -115 161 -178q51 -35 51 -95v-121q-1 -16 -13 -28t-28 -13h-361q-17 1 -29 13t-12 28v82q0 16 12 28t29 13h138q23 1 28 17t-11 26q-116 81 -179 251l-2 -1q-59 156 -59 306z" />
    <glyph glyph-name="estimated" unicode="&#x212e;" horiz-adv-x="1216" 
d="M317 679h590q21 0 21 20v43q0 140 -86 212t-216 71q-128 0 -220 -72t-104 -212l-5 -42q0 -20 20 -20zM102 573h-1q0 111 17 191q90 424 516 424q210 0 332 -105q147 -129 147 -399v-129q0 -17 -12 -29t-29 -12h-756q-20 0 -20 -20q9 -87 27 -130q49 -115 127 -159
q66 -41 177 -41t187 35t107 94q10 35 47 35h94q38 0 34 -41q-20 -137 -148 -222t-326 -85q-197 0 -330 100t-173 301q-17 80 -17 192z" />
    <glyph glyph-name="arrowleft" unicode="&#x2190;" horiz-adv-x="1337" 
d="M625 188v-133q-1 -19 -17 -27t-33 7l-460 462q-23 25 2 54l444 444q18 18 41 7t23 -35v-127q0 -17 -14 -30t-17 -16l-182 -183h782q37 -5 41 -42v-96q-5 -36 -41 -41h-786l192 -192q25 -28 25 -52z" />
    <glyph glyph-name="arrowup" unicode="&#x2191;" horiz-adv-x="1187" 
d="M1055 610h-133q-22 0 -52 25l-192 192v-786q0 -17 -12 -29t-29 -12h-96q-17 0 -29 12t-12 29v782l-183 -182l-11 -11q-19 -20 -36 -20h-127l2 -1q-27 1 -37 23t8 41l444 444q31 28 54 3l461 -461q15 -17 7 -33t-27 -16z" />
    <glyph glyph-name="arrowright" unicode="&#x2192;" horiz-adv-x="1337" 
d="M101 468v96q1 16 13 28t28 13h783l-183 182q-2 3 -9 9q-21 19 -21 39v127q0 26 22 36t41 -7l445 -444q29 -31 3 -55l-461 -461q-16 -15 -32 -7t-17 27v133q0 24 24 52l193 192h-787l-1 -1q-16 1 -28 13t-13 28z" />
    <glyph glyph-name="arrowdown" unicode="&#x2193;" horiz-adv-x="1187" 
d="M144 476h127q16 0 23 -7l14 -15l9 -9l183 -182v783q0 16 12 28t29 12h96q17 0 29 -12t12 -28v-787l192 193q28 25 52 24h133q19 0 27 -16t-7 -33l-461 -461q-24 -26 -55 3l-443 444q-18 19 -7 41t35 22z" />
    <glyph glyph-name="uni2196" unicode="&#x2196;" horiz-adv-x="1060" 
d="M102 263v629q0 41 37 41h652q21 -1 27 -19t-7 -30l-94 -94q-18 -18 -53 -19l-273 -2l555 -555q26 -28 0 -57l-67 -68q-30 -23 -58 0l-553 553v-258q0 -42 -12 -54l-90 -90v-2q-16 -16 -40 -8t-24 33z" />
    <glyph glyph-name="uni2197" unicode="&#x2197;" horiz-adv-x="1060" 
d="M269 935h652q37 0 36 -41v-629q1 -26 -23 -34t-40 10l-90 90q-12 12 -12 54v258l-553 -553q-27 -23 -57 0l-68 69q-23 29 0 57l555 555l-273 2q-34 0 -53 19l-94 94q-13 12 -7 30t27 19z" />
    <glyph glyph-name="uni2198" unicode="&#x2198;" horiz-adv-x="1060" 
d="M793 646q0 42 12 54l90 91q15 17 39 9t24 -34v-629q0 -41 -36 -41h-652q-22 0 -28 18t8 31l94 95q18 18 53 18l273 2l-555 556q-23 29 0 57l67 68q30 25 58 0l553 -553v258z" />
    <glyph glyph-name="uni2199" unicode="&#x2199;" horiz-adv-x="1705" 
d="M139 96q-37 0 -37 41v629q0 26 24 34t40 -9l90 -91q12 -12 12 -55v-258l553 553q30 25 58 0l67 -68q26 -28 0 -57l-555 -555l273 -2q35 0 53 -18l94 -95q13 -13 7 -31t-27 -18h-652z" />
    <glyph glyph-name="partialdiff" unicode="&#x2202;" horiz-adv-x="1040" 
d="M273 461v-1q0 -41 5 -91q6 -87 70 -146t165 -59t165 59t70 131t5 107q0 35 -5 107q-4 72 -68 131t-166 59t-166 -59t-70 -137t-5 -101zM90 461h-1q0 36 4 92q12 165 126 277t293 112q88 0 178 -49q14 -5 20 -3t3 11q-15 162 -86 255t-199 93h-74q-16 1 -28 13t-13 28v103
q1 17 13 29t28 12h74q228 0 353 -165q102 -139 134 -407t11 -465t-128 -307q-108 -110 -286 -110t-292 110t-126 279q-4 56 -4 92z" />
    <glyph glyph-name="uni2206" unicode="&#x2206;" horiz-adv-x="1384" 
d="M324 175h737q22 0 12 25l-366 866q-6 12 -13 12h-4q-6 0 -12 -12l-367 -866q-5 -8 -2 -16t15 -9zM143 0v1q-17 1 -29 13t-12 28v104q0 27 15 60l471 1075q12 31 39 31h131q27 0 39 -31l471 -1075q14 -31 14 -61v-104q0 -17 -12 -29t-29 -12h-1098z" />
    <glyph glyph-name="product" unicode="&#x220f;" horiz-adv-x="1165" 
d="M174 -410q-16 0 -28 12t-13 29v1762q1 17 13 29t28 12h819q17 0 29 -12t12 -29v-1762q0 -17 -12 -29t-29 -12h-106q-17 0 -29 12t-12 29v1594q0 20 -21 20h-483q-20 0 -20 -20v-1594q0 -17 -12 -29t-29 -12h-107z" />
    <glyph glyph-name="summation" unicode="&#x2211;" horiz-adv-x="1009" 
d="M113 -369v123q1 26 9 43l388 713q11 18 0 43l-358 655q0 2 -4 10q-14 27 -15 52v123q1 17 13 29t28 12h764q16 0 28 -12t13 -29v-105q-1 -16 -13 -28t-28 -13h-553q-15 0 -19 -8t2 -16l352 -650q22 -41 -1 -81l-373 -689q-4 -9 0 -17t19 -9h577q16 -1 28 -13t13 -28v-105
q-1 -17 -13 -29t-28 -12h-788q-16 0 -28 12t-13 29z" />
    <glyph glyph-name="minus" unicode="&#x2212;" horiz-adv-x="1064" 
d="M143 436q-17 0 -29 12t-12 29v113q0 16 12 28t29 13h779q16 -1 28 -13t13 -28v-113q-1 -17 -13 -29t-28 -12h-779z" />
    <glyph glyph-name="radical" unicode="&#x221a;" horiz-adv-x="1034" 
d="M43 840h92q29 0 39 -31l154 -549q2 -12 12 -12h4q8 0 12 12l420 1471q8 32 39 30h334q17 0 29 -12t12 -29v-61q0 -17 -12 -29t-29 -12h-240l-471 -1587q-11 -31 -39 -31h-114q-31 0 -39 31l-243 760q-4 17 6 33t34 16z" />
    <glyph glyph-name="infinity" unicode="&#x221e;" horiz-adv-x="1579" 
d="M237 530q0 -78 50 -122q50 -45 117 -45q118 0 273 169q-75 75 -141 122t-134 47q-66 0 -114 -43l1 -3q-52 -47 -52 -125zM1166 364q68 0 120 46t51 122q0 74 -51 120q-52 46 -120 47q-68 0 -148 -58v3q-61 -44 -124 -111q73 -73 138 -121q66 -48 134 -48zM57 532
q0 152 97 248q96 97 260 97t353 -189q19 -18 37 0q92 89 178 139t187 50q152 0 250 -95t98 -251t-96 -253t-252 -97q-193 0 -364 189q-7 10 -19 10t-22 -9q-92 -89 -176 -139t-182 -50q-157 0 -250 98h-2q-97 100 -97 252z" />
    <glyph glyph-name="integral" unicode="&#x222b;" horiz-adv-x="759" 
d="M71 -230h20q83 0 139 52t56 132v1132q0 160 108 261t270 101h20q16 0 28 -12t13 -29v-96q-1 -17 -13 -29t-28 -12h-20q-83 0 -139 -53t-56 -132v-1132q0 -163 -110 -263t-269 -100h-20q-16 0 -28 12t-13 29l1 98q0 17 12 29t29 12z" />
    <glyph glyph-name="approxequal" unicode="&#x2248;" horiz-adv-x="1044" 
d="M100 231v103q0 55 54 90t118 35q65 0 117 -9t150 -46q97 -37 216 -37q36 0 73 15q38 16 54 38t38 16t21 -35v-102q0 -55 -53 -90t-118 -35t-115 8t-151 46t-216 38q-36 0 -74 -15t-53 -38h-1q-16 -21 -38 -16t-22 34zM101 610v103q-1 55 53 90t119 35t117 -9t110 -30
q58 -22 107 -38t117 -16q119 0 159 54q15 23 37 17t22 -36v-102q0 -55 -53 -90t-118 -35t-115 8t-111 31q-60 22 -109 38t-116 15q-119 0 -158 -53h-1q-16 -21 -38 -16t-22 34z" />
    <glyph glyph-name="notequal" unicode="&#x2260;" horiz-adv-x="1105" 
d="M258 229h-116q-16 1 -28 13t-13 28v107q1 17 13 29t28 12h240q20 0 29 14l110 160q3 4 1 9t-11 5h-369q-16 0 -28 12t-13 29v107q1 16 13 28t28 13h496q20 0 29 14l96 139q11 18 18 24t21 7h106q22 -1 34 -19t-1 -38l-78 -113q-3 -4 -1 -9t11 -5h89q16 -1 28 -13t13 -28
v-107q-1 -17 -13 -29t-28 -12h-213q-20 0 -29 -14l-109 -160q-9 -14 12 -14h340q17 0 29 -12t12 -29v-107q0 -16 -12 -28t-29 -13h-465q-20 0 -29 -14l-86 -127q-23 -31 -49 -31h-101q-22 1 -34 19t2 39l67 100q4 4 2 9t-12 5z" />
    <glyph glyph-name="lessequal" unicode="&#x2264;" horiz-adv-x="1093" 
d="M143 1q-17 1 -29 13t-12 28v106q0 16 12 28t29 13h807q16 0 28 -12t13 -29v-106q0 -16 -12 -28t-29 -13h-807zM106 813v100q0 28 31 45l742 416q15 9 31 -3t16 -36v-123q0 -25 -31 -43l-547 -299q-6 -2 -6 -8t6 -9l547 -299q31 -18 31 -43v-123q0 -24 -15 -35t-32 -5
l-742 418v1q-31 17 -31 46z" />
    <glyph glyph-name="greaterequal" unicode="&#x2265;" horiz-adv-x="1093" 
d="M143 2q-17 0 -29 12t-12 29v106q0 17 12 29t29 12h807q16 0 28 -12t13 -29v-106q0 -17 -12 -29t-29 -12h-807zM168 389v123q0 24 31 43l546 299q17 8 0 15l-546 299q-31 19 -31 43v123q0 24 16 36t31 3l741 -416q31 -16 31 -45v-100q0 -30 -31 -46l-741 -418v2
q-15 -9 -31 3t-16 36z" />
    <glyph glyph-name="lozenge" unicode="&#x25ca;" horiz-adv-x="1236" 
d="M611 1209l-296 -483l297 -481q8 -18 16 0l297 481l-297 483q-7 16 -17 0zM569 1451h101q29 0 45 -31l417 -680q7 -15 -1 -27l-417 -680q-17 -31 -45 -31h-101q-29 0 -46 31l-415 681q-6 12 0 26l416 680q16 31 46 31z" />
    <glyph glyph-name="uniE000" unicode="&#xe000;" horiz-adv-x="1024" 
d="M1024 0h-1024v1024h1024v-1024z" />
    <glyph glyph-name="commaaccent" unicode="&#xf6c3;" horiz-adv-x="471" 
d="M125 -258v125q1 17 13 29t28 12h143q17 0 29 -12t12 -29v-125q0 -68 -41 -127l-65 -94q-19 -31 -54 -31h-18q-28 0 -39 22t2 46l64 116q7 9 -1 18t-18 9h-14q-16 1 -28 13t-13 28z" />
    <glyph glyph-name="apple" unicode="&#xf8ff;" horiz-adv-x="1126" 
d="M784 376q0 -22 20 -42t21 -55q0 -72 -71 -72q-26 1 -72 31t-80 30q-64 0 -64 -63q0 -25 -14 -41t-28 -16q-15 0 -20 2q-6 2 -10 9q-4 6 -6 10l-6 15q-8 20 -22 41q-15 22 -50 22q-34 0 -46 -24q-4 -7 -7 -11t-10 -23q-7 -18 -15 -29q-20 -30 -64 -30t-76 28t-32 70t36 78
l28 32q22 29 22 73q0 45 -17 67t-37 22t-36 -8t-30 -7v-1q-30 0 -46 31t-15 69q-1 38 19 62q20 25 41 25q21 1 37 -11t34 -12q20 0 34 28t13 54l-20 100q0 76 81 76q19 0 19 17q0 5 -8 21t-8 26t11 20q10 10 26 10t41 -35q21 -36 41 -36q41 0 41 57q6 35 22 45t37 10
q21 -1 37 -9t21 -14t17 -24q13 -18 19 -26q20 -25 57 -25q38 1 53 23t15 76t29 81q28 27 76 27t74 -26t26 -75q0 -48 -49 -83q-5 -2 -15 -10t-14 -12t-10 -9t-8 -11t-3 -13q0 -7 2 -13q7 -24 26 -35q18 -11 23 -14t36 -21q73 -39 73 -113q-1 -43 -33 -77t-32 -70
q0 -53 90 -53q82 0 82 -92q0 -45 -31 -76t-69 -31t-76 52q-39 51 -84 51q-46 0 -46 -43zM576 431q40 0 56 18q43 47 35 62q-3 4 -7 3t-6 -6q-26 -45 -78 -45t-98 41l-1 2q-13 10 -14 2t5 -17q37 -60 108 -60zM468 643q-12 1 -20 13t-9 30q1 18 9 30t20 13q12 0 20 -12
q8 -13 9 -31q-1 -18 -9 -30t-20 -13zM636 696q0 43 28 43t29 -43q0 -18 -8 -30t-20 -13q-13 1 -21 13t-8 30zM694 793q-34 0 -59 -30q-24 -30 -24 -66q-1 -35 23 -59t60 -24t61 24q26 24 26 59q-1 35 -27 65t-60 31zM440 799q-34 0 -54 -29t-20 -74q0 -46 20 -74t54 -28
t58 29t23 73q1 44 -23 74t-58 29zM174 1065q0 29 18 49t39 21q22 -1 37 -21t15 -49t-14 -49t-37 -21q-22 1 -40 21t-18 49z" />
    <glyph glyph-name="uniFB00" unicode="&#xfb00;" horiz-adv-x="1400" 
d="M12 870v103q0 17 12 29t29 12h154q20 0 20 20v31q0 161 109 273q110 110 269 110h21q16 0 28 -12t13 -29v-96q-1 -17 -13 -29t-28 -12h-21q-80 0 -137 -62t-57 -143v-31q0 -20 20 -20h395q21 0 21 20v31q-1 163 109 273t269 110h20q17 0 29 -12t12 -29v-96q0 -17 -12 -29
t-29 -12h-20q-83 0 -139 -64t-57 -141v-31q0 -20 21 -20h209q16 0 28 -12t12 -29v-103q0 -16 -12 -28t-28 -13h-209q-18 0 -20 -20v-768q0 -17 -12 -29t-29 -12h-102q-17 0 -29 12t-12 29v768q0 20 -21 20h-395q-20 0 -20 -20v-768q0 -17 -12 -29t-29 -12h-103q-16 0 -28 12
t-13 29v768q0 20 -20 20l-181 13q-12 12 -12 28z" />
    <glyph glyph-name="fi" unicode="&#xfb01;" horiz-adv-x="1107" 
d="M11 860v103q1 17 13 29t28 12h154q20 0 20 20v41q0 161 109 273q110 110 269 110h338q14 0 24 -10t9 -23v-112q0 -33 -33 -33h-338q-80 0 -137 -62t-57 -143v-41q0 -20 20 -20h498q16 0 28 -12t13 -29v-922q-1 -17 -13 -29t-28 -12h-107q-17 0 -29 12t-12 29v758
q0 20 -20 20h-330q-20 0 -20 -20v-758q0 -17 -12 -29t-29 -12h-103q-16 0 -28 12t-13 29v758q0 20 -20 20l-181 13q-12 12 -13 28z" />
    <glyph glyph-name="fl" unicode="&#xfb02;" horiz-adv-x="1140" 
d="M11 860v103q1 17 13 29t28 12h154q20 0 20 20v41q0 161 109 273q110 110 269 110h21q17 0 29 -12t12 -29v-96q0 -17 -12 -29t-29 -12h-21q-80 0 -137 -62t-57 -143v-41q0 -20 20 -20h373q20 0 20 20v383q1 17 13 29t28 12h103q17 0 29 -12t12 -29v-1366q0 -17 -12 -29
t-29 -12h-103q-16 0 -28 12t-13 29v758q0 20 -20 20h-373q-20 0 -20 -20v-758q0 -17 -12 -29t-29 -12h-103q-16 0 -28 12t-13 29v758q0 20 -20 20l-181 13q-12 12 -13 28z" />
    <glyph glyph-name="ffi" unicode="&#xfb03;" horiz-adv-x="1730" 
d="M12 870v103q0 17 12 29t29 12h154q20 0 20 20v31q0 161 109 273q110 110 269 110h21q16 0 28 -12t13 -29v-96q-1 -17 -13 -29t-28 -12h-21q-80 0 -137 -62t-57 -143v-31q0 -20 20 -20h397q21 0 21 20v31q-1 163 109 273t269 110h338q14 0 23 -10t9 -23v-112
q0 -33 -32 -33h-338q-83 0 -139 -64t-57 -141v-31q0 -20 21 -20h497q17 0 29 -12t12 -29v-932q0 -17 -12 -29t-29 -12h-106q-17 0 -29 12t-12 29v768q0 20 -21 20h-329q-18 0 -20 -20v-768q0 -17 -12 -29t-29 -12h-102q-17 0 -29 12t-12 29v768q0 20 -21 20h-397
q-20 0 -20 -20v-768q0 -17 -12 -29t-29 -12h-103q-16 0 -28 12t-13 29v768q0 20 -20 20l-181 13q-12 12 -12 28z" />
    <glyph glyph-name="ffl" unicode="&#xfb04;" horiz-adv-x="1763" 
d="M12 870v103q0 17 12 29t29 12h154q20 0 20 20v31q0 161 109 273q110 110 269 110h21q16 0 28 -12t13 -29v-96q-1 -17 -13 -29t-28 -12h-21q-80 0 -137 -62t-57 -143v-31q0 -20 20 -20h397q21 0 21 20v31q-1 163 109 273t269 110h20q17 0 29 -12t12 -29v-96q0 -17 -12 -29
t-29 -12h-20q-83 0 -139 -64t-57 -141v-31q0 -20 21 -20h372q21 0 21 20v373q0 17 12 29t29 12h102q16 0 28 -12t13 -29v-1366q0 -17 -12 -29t-29 -12h-102q-16 0 -28 12t-13 29v768q0 20 -21 20h-372q-18 0 -20 -20v-768q0 -17 -12 -29t-29 -12h-102q-17 0 -29 12t-12 29
v768q0 20 -21 20h-397q-20 0 -20 -20v-768q0 -17 -12 -29t-29 -12h-103q-16 0 -28 12t-13 29v768q0 20 -20 20l-181 13q-12 12 -12 28z" />
    <glyph glyph-name="commaturn" horiz-adv-x="557" 
d="M205 1180q-17 0 -29 12t-12 29v125q0 68 41 127l65 94q18 30 54 30h18q28 -1 39 -23t-2 -44l-64 -117q-7 -9 1 -18t18 -9h14q16 0 28 -12t13 -28v-125q0 -17 -12 -29t-29 -12h-143z" />
    </font>
</defs>
</svg>
