<?xml version="1.0" standalone="no"?>
<!DOCTYPE svg PUBLIC "-//W3C//DTD SVG 1.1//EN" "http://www.w3.org/Graphics/SVG/1.1/DTD/svg11.dtd" >
<svg xmlns="http://www.w3.org/2000/svg">
<metadata>
Created by FontPrep 20130207 at Mon Sep 26 21:04:39 2016
 By Daniel Seiler
?2012 Optimo.
</metadata>
<defs>
<font id="74999d70e266f0c37d199770d82a592b" horiz-adv-x='1024' >
  <font-face 
    font-family="Stanley-Poster"
    font-weight="800"
    font-stretch="normal"
    units-per-em="2048"
    panose-1="2 3 8 6 8 4 8 2 0 3"
    ascent="1638"
    descent="-410"
    x-height="1004"
    cap-height="1454"
    bbox="-141 -518 2329 1890.01"
    underline-thickness="81"
    underline-position="-164"
    unicode-range="U+000D-FB04"
  />
<missing-glyph horiz-adv-x="747" 
d="M135 68h410v1228h-410v-1228zM68 0v1366h544v-1366h-544z" />
    <glyph glyph-name=".notdef" horiz-adv-x="747" 
d="M135 68h410v1228h-410v-1228zM68 0v1366h544v-1366h-544z" />
    <glyph glyph-name=".null" horiz-adv-x="0" 
 />
    <glyph glyph-name="uni000D" unicode="&#xd;" horiz-adv-x="1024" 
 />
    <glyph glyph-name="glyph3" horiz-adv-x="0" 
 />
    <glyph glyph-name="glyph3" horiz-adv-x="0" 
 />
    <glyph glyph-name="space" unicode=" " horiz-adv-x="491" 
 />
    <glyph glyph-name="exclam" unicode="!" horiz-adv-x="655" 
d="M172 127q0 66 44 111t110 45t110 -45t45 -111q0 -66 -45 -110q-44 -44 -110 -44t-110 44t-44 110zM150 1454h358v-448l-180 -600l-178 600v448z" />
    <glyph glyph-name="quotedbl" unicode="&#x22;" horiz-adv-x="733" 
d="M129 952v502h160v-502h-160zM444 952v502h160v-502h-160z" />
    <glyph glyph-name="numbersign" unicode="#" horiz-adv-x="1214" 
d="M68 418l32 123h185l92 342h-182l30 121h185l122 450h144l-123 -450h264l123 450h143l-122 -450h184l-31 -121h-186l-92 -342h184l-33 -123h-184l-113 -418h-143l112 418h-264l-112 -418h-144l113 418h-184zM428 541h264l92 342h-264z" />
    <glyph glyph-name="dollar" unicode="$" horiz-adv-x="1208" 
d="M711 123q172 0 172 151q1 68 -53 116t-156 95v-360q14 -2 37 -2zM1042 1454v-493h-102l-27 63q-106 231 -239 299v-395q231 -112 299 -186q99 -107 121 -189t22 -160q0 -186 -124 -299t-318 -121v-75h-150v79q-45 3 -127 13t-116 10h-164v547h102l57 -101
q115 -195 248 -272v377q-161 75 -281 188t-120 330q-1 157 107 269t294 137v81h150v-77l256 -25h112zM377 1194q0 -111 147 -193v355q-63 -4 -105 -48t-42 -114z" />
    <glyph glyph-name="percent" unicode="%" horiz-adv-x="1898" 
d="M1366 409q0 -339 103 -339t103 339t-102 339q-104 0 -104 -339zM1112 406q0 198 93 316t265 118t266 -118t93 -316q0 -198 -93 -316q-94 -117 -266 -117t-265 118t-93 315zM326 1050q0 -339 103 -339t103 339t-103 339t-103 -339zM305 0l1079 1454h191l-1071 -1454h-199z
M72 1047q0 197 93 315t265 119q172 0 265 -118q93 -119 93 -317t-93 -315t-265 -117t-265 118t-93 315z" />
    <glyph glyph-name="ampersand" unicode="&#x26;" horiz-adv-x="1601" 
d="M270 1161q0 153 120 237t273 83q153 0 278 -47q69 -27 112 -84q43 -56 43 -126t-18 -98t-26 -44q-9 -17 -46 -50q-37 -34 -71 -58t-76 -55t-73 -47l275 -358q78 123 151 295l-118 195h481l-221 -195q-106 -236 -211 -403l203 -263l213 -143h-543l-96 127
q-172 -154 -383 -154q-174 0 -297 96t-123 252t106 265q55 57 99 91t124 87v2q-176 242 -176 395zM446 412q0 -72 52 -123t118 -51q117 0 193 38l-281 377q-82 -104 -82 -241zM565 1241q0 -67 67 -166q17 -25 73 -94q76 102 75 229q0 166 -112 166q-103 0 -103 -135z" />
    <glyph glyph-name="quotesingle" unicode="'" horiz-adv-x="419" 
d="M129 952v502h162v-502h-162z" />
    <glyph glyph-name="parenleft" unicode="(" horiz-adv-x="663" 
d="M66 525q0 298 144 580t388 413l25 -45q-129 -160 -198 -417q-69 -258 -69 -522t77 -535t190 -429l-27 -47q-256 143 -393 423t-137 579z" />
    <glyph glyph-name="parenright" unicode=")" horiz-adv-x="663" 
d="M598 515q0 -298 -144 -580t-388 -412l-25 47q129 160 198 416t69 519t-78 536q-77 273 -189 432l27 45q256 -143 393 -424t137 -579z" />
    <glyph glyph-name="asterisk" unicode="*" horiz-adv-x="905" 
d="M82 1212l121 107l198 -164l5 4l-93 240l140 82l139 -82l-92 -242l4 -4l201 164l120 -107l-34 -157l-259 10l-2 -6l218 -137l-66 -148l-160 -14l-69 250h-4l-66 -252l-162 18l-63 148l215 139l-2 6l-258 -14z" />
    <glyph glyph-name="plus" unicode="+" horiz-adv-x="1011" 
d="M76 506v135h352v363h156v-363h352v-135h-352v-379h-156v379h-352z" />
    <glyph glyph-name="comma" unicode="," horiz-adv-x="507" 
d="M98 127q0 66 43 111t107 45q64 -1 112 -49t48 -150t-76 -214q-76 -114 -207 -159l-25 66q70 29 118 82t48 114h-14q-66 0 -110 44t-44 110z" />
    <glyph glyph-name="hyphen" unicode="-" horiz-adv-x="692" 
d="M121 545v123h450v-123h-450z" />
    <glyph glyph-name="period" unicode="." horiz-adv-x="505" 
d="M98 127q0 66 44 111t110 45t110 -45t46 -111q0 -66 -46 -110t-110 -44q-66 0 -110 44t-44 110z" />
    <glyph glyph-name="slash" unicode="/" horiz-adv-x="917" 
d="M51 0l680 1454h139l-680 -1454h-139z" />
    <glyph glyph-name="zero" unicode="0" horiz-adv-x="1339" 
d="M669 1337q-91 0 -137 -183t-47 -428q0 -245 46 -427q45 -182 137 -182t138 181t46 427t-46 429t-137 183zM92 726q0 194 66 363t200 281t314 111q182 0 317 -112q258 -214 258 -644q-1 -193 -67 -361t-200 -280q-134 -111 -310 -111t-311 111q-135 112 -201 280t-66 362z
" />
    <glyph glyph-name="one" unicode="1" horiz-adv-x="839" 
d="M61 0l187 164v940l-187 123l541 329v-1392l184 -164h-725z" />
    <glyph glyph-name="two" unicode="2" horiz-adv-x="1333" 
d="M797 1157q0 182 -125 182t-125 -204v-131h-377q-12 20 -12 79q0 178 156 288q157 110 372 110t356 -91t142 -251q0 -190 -199 -391q-164 -167 -393 -349q-12 -10 -22 -17t-35 -28v-4h430l282 285l-129 -635h-1104q416 451 535 602q248 320 248 555z" />
    <glyph glyph-name="three" unicode="3" horiz-adv-x="1185" 
d="M721 534q-1 208 -211 207q-100 0 -203 -57v107l289 309v4l-471 2l61 348h965l-545 -541v-4h41q201 0 307 -125t107 -295q0 -213 -137 -365t-389 -151q-172 0 -306 134t-159 331l47 21q147 -170 348 -170q125 -1 191 69t65 176z" />
    <glyph glyph-name="four" unicode="4" horiz-adv-x="1189" 
d="M254 504h268v110l352 390v-500h248v-123h-248v-215l205 -166h-772l215 166v215h-512q234 303 337 575q56 148 84 238t71 260h553l-801 -946v-4z" />
    <glyph glyph-name="five" unicode="5" horiz-adv-x="1150" 
d="M461 289q125 -1 191 69t65 192t-59 190t-166 69q-108 0 -285 -117l-80 -51l147 813h750l-66 -350h-583l-45 -219h4q115 57 231 57q227 0 359 -132t133 -333q0 -201 -137 -353t-390 -151q-166 0 -300 124t-171 319l47 20q127 -147 355 -147z" />
    <glyph glyph-name="six" unicode="6" horiz-adv-x="1161" 
d="M451 492q0 -156 49 -262q50 -106 118 -107q68 0 93 53t25 215t-46 264q-46 103 -116 103t-96 -56q-26 -54 -27 -210zM84 500q0 294 230 582t622 413v-98q-150 -85 -286 -231t-183 -283h4q74 25 156 24q207 0 342 -125t135 -334t-138 -342t-374 -133q-236 1 -372 143
t-136 384z" />
    <glyph glyph-name="seven" unicode="7" horiz-adv-x="1099" 
d="M629 0h-512l651 1104h-461l-237 -254l118 631h41l72 -27h819l-166 -278q-135 -223 -230 -556t-95 -620z" />
    <glyph glyph-name="eight" unicode="8" horiz-adv-x="1167" 
d="M412 350q0 -102 54 -167t123 -65t111 51q42 49 41 111q0 62 -17 102t-67 90t-165 136q-80 -100 -80 -258zM457 1204q0 -125 180 -266q33 36 57 100t23 142q0 78 -38 120t-94 41q-56 1 -92 -35t-36 -102zM90 311q0 113 86 215t205 166q-113 92 -176 192t-64 234
q0 174 128 268q129 94 315 94t309 -78q123 -79 123 -204q0 -96 -82 -189t-199 -145q262 -195 316 -336q27 -70 26 -147q1 -190 -149 -299t-355 -109t-344 86t-139 252z" />
    <glyph glyph-name="nine" unicode="9" horiz-adv-x="1163" 
d="M428 1063q0 -162 45 -264q45 -103 115 -103t98 56q27 56 27 210q0 156 -49 262q-50 106 -118 107q-68 0 -93 -53t-25 -215zM59 1006q1 209 139 342t374 133q236 -1 371 -143q136 -142 136 -384q0 -294 -230 -582t-622 -413v98q145 81 283 229t186 285h-4
q-74 -25 -155 -24q-207 0 -343 125t-135 334z" />
    <glyph glyph-name="colon" unicode=":" horiz-adv-x="550" 
d="M121 127q0 66 44 111q43 45 109 45t111 -45t45 -111t-45 -110t-111 -44t-110 44t-43 110zM121 874q0 66 44 111q43 45 109 45t111 -45t45 -111t-45 -110t-111 -43q-66 -1 -110 43t-43 110z" />
    <glyph glyph-name="semicolon" unicode=";" horiz-adv-x="550" 
d="M121 127q0 66 43 111q42 45 106 45q64 -1 112 -49t48 -150t-76 -214q-76 -114 -207 -159l-24 66q70 29 118 82t48 114h-15q-66 0 -110 44t-43 110zM121 874q0 66 44 111q43 45 109 45t111 -45t45 -111t-45 -110t-111 -43q-66 -1 -110 43t-43 110z" />
    <glyph glyph-name="less" unicode="&#x3c;" horiz-adv-x="1034" 
d="M63 514v100l859 473v-165l-666 -353l666 -360v-166z" />
    <glyph glyph-name="equal" unicode="=" horiz-adv-x="1269" 
d="M131 281v135h1008v-135h-1008zM131 729v135h1008v-135h-1008z" />
    <glyph glyph-name="greater" unicode="&#x3e;" horiz-adv-x="1034" 
d="M113 43v166l665 360l-665 353v165l858 -473v-100z" />
    <glyph glyph-name="question" unicode="?" horiz-adv-x="1011" 
d="M258 127q0 66 44 111t110 45t110 -45t45 -111q0 -66 -45 -110q-44 -44 -110 -44t-110 44t-44 110zM72 1210q0 86 80 152q144 119 349 119t325 -76t120 -234t-172 -283q-72 -52 -144 -110t-123 -147q-50 -90 -50 -207v-18h-90q-29 68 -29 158t38 186t85 164t85 159
q38 90 38 174q0 125 -82 125q-94 0 -94 -125v-117h-316q-20 37 -20 80z" />
    <glyph glyph-name="at" unicode="@" horiz-adv-x="1810" 
d="M408 233q0 158 129 256t358 121l86 6v283h-190v-219h-314q-12 20 -12 80q0 86 80 152t175 92q95 27 177 26q209 0 315 -83t107 -210v-614l92 -123l-424 -20l23 153h-4q-74 -86 -142 -123t-153 -37q-303 0 -303 260zM745 276q0 -98 105 -98q55 0 131 58v251l-25 -2
q-90 -9 -150 -65t-61 -144zM100 481q0 337 241 567t563 230t564 -230t242 -567q0 -266 -172 -481h-127q188 222 188 496t-202 477q-203 203 -492 203t-491 -203t-203 -489q0 -286 192 -484h-135q-168 207 -168 481z" />
    <glyph glyph-name="A" unicode="A" horiz-adv-x="1427" 
d="M-8 0l141 205l459 1249l205 82l532 -1405l90 -131h-645l187 129l-127 326l-469 -2l-89 -248l199 -205h-483zM408 575l387 3l-195 538z" />
    <glyph glyph-name="B" unicode="B" horiz-adv-x="1400" 
d="M604 123h76q129 0 182 72t53 219q0 148 -53 208t-186 60h-72v-559zM604 805h72q181 0 197 212q3 39 3 103t-24 112q-53 101 -248 101v-528zM772 1454q492 0 492 -330q0 -266 -326 -331v-5q128 -8 241 -75q62 -37 101 -109t39 -170q0 -214 -164 -324t-438 -110h-651
l163 164v1126l-163 164h706z" />
    <glyph glyph-name="C" unicode="C" horiz-adv-x="1445" 
d="M78 726q0 320 196 538q197 217 517 217q111 1 243 -13t168 -14h113v-586h-84l-66 152q-145 324 -417 324q-140 0 -245 -133q-105 -131 -105 -371t138 -393t363 -152q256 0 416 182l78 -28q-45 -119 -147 -243t-242 -186q-98 -47 -216 -47h-18q-313 0 -503 216
q-189 217 -189 537z" />
    <glyph glyph-name="D" unicode="D" horiz-adv-x="1507" 
d="M604 145h39q207 0 283 121t76 416t-93 472q-92 177 -282 177h-23v-1186zM698 1454q367 0 548 -189t181 -511t-219 -538t-514 -216h-628l163 164v1126l-163 164h632z" />
    <glyph glyph-name="E" unicode="E" horiz-adv-x="1361" 
d="M1192 1454v-471l-307 348h-281v-538l303 327v-737l-303 328v-588h283l426 428l-105 -551h-1142l163 164v1126l-163 164h1126z" />
    <glyph glyph-name="F" unicode="F" horiz-adv-x="1245" 
d="M1192 1454v-471l-307 348h-281v-559l324 328v-738l-324 328v-526l215 -164h-753l163 164v1126l-163 164h1126z" />
    <glyph glyph-name="G" unicode="G" horiz-adv-x="1515" 
d="M730 -27q-274 1 -463 219t-189 536t196 536q197 217 517 217q111 1 243 -13t168 -14h113v-586h-84l-66 152q-145 324 -417 324q-140 0 -245 -133q-105 -131 -105 -371t138 -393t363 -152h148v194l-183 191h555v-698l-227 241q-188 -250 -462 -250z" />
    <glyph glyph-name="H" unicode="H" horiz-adv-x="1669" 
d="M604 825h461v465l-170 164h709l-164 -164v-1126l164 -164h-709l170 164v538h-461v-538l170 -164h-708l163 164v1126l-163 164h708l-170 -164v-465z" />
    <glyph glyph-name="I" unicode="I" horiz-adv-x="851" 
d="M49 0l184 164v1126l-184 164h754l-185 -164v-1126l185 -164h-754z" />
    <glyph glyph-name="J" unicode="J" horiz-adv-x="972" 
d="M395 254v1036l-237 164h776l-164 -164v-919q0 -197 -106 -297t-289 -101h-13q-157 0 -269 119q-64 70 -93 162h395z" />
    <glyph glyph-name="K" unicode="K" horiz-adv-x="1523" 
d="M604 768h4l285 289v397h569l-569 -547l700 -907h-694l98 164l-389 528h-4v-528l170 -164h-708l163 164v1126l-163 164h708l-170 -164v-522z" />
    <glyph glyph-name="L" unicode="L" horiz-adv-x="1253" 
d="M604 123h215l420 369l-92 -492h-1081l163 164v1126l-163 164h780l-242 -164v-1167z" />
    <glyph glyph-name="M" unicode="M" horiz-adv-x="1949" 
d="M1343 993h-4l-436 -1102l-526 1102h-4v-788l264 -205h-604l205 205v1024l-123 225h465l434 -934h4l358 934h527l-185 -143v-1147l185 -164h-709l149 164v829z" />
    <glyph glyph-name="N" unicode="N" horiz-adv-x="1558" 
d="M1192 645v522l-242 287h582l-205 -287v-1276l-921 1115h-5v-717l242 -289h-623l246 289v868l-248 297h490l680 -809h4z" />
    <glyph glyph-name="O" unicode="O" 
d="M725 1319q-119 0 -185 -119t-65 -321q0 -203 46 -367t138 -266t211 -102q236 -1 236 429q0 431 -173 639q-89 108 -208 107zM78 728q0 320 196 536q196 217 514 217t517 -217t199 -537t-198 -537q-196 -217 -513 -217t-517 217q-198 218 -198 538z" />
    <glyph glyph-name="P" unicode="P" horiz-adv-x="1286" 
d="M711 1454q264 0 401 -86t137 -278t-162 -315q-162 -122 -387 -122h-32v92h12q82 1 133 93t51 226t-66 190q-67 56 -155 57h-39v-1147l223 -164h-761l163 164v1126l-163 164h645z" />
    <glyph glyph-name="Q" unicode="Q" 
d="M725 1319q-119 0 -185 -119t-65 -321q0 -203 46 -367t138 -266t211 -102q236 -1 236 429q0 431 -173 639q-89 108 -208 107zM78 732q0 314 196 532q196 217 514 217t517 -217t198 -535q1 -283 -155 -487t-416 -254l551 -387h-588l-143 374q-298 11 -486 227t-188 530z
" />
    <glyph glyph-name="R" unicode="R" horiz-adv-x="1460" 
d="M819 1454q231 0 359 -101t127 -280q0 -133 -116 -219t-331 -115v-4l150 -47l331 -551l150 -137h-485l-400 696v-530l193 -166h-731l163 166v1124l-163 164h753zM604 772h60q130 0 198 64t68 208q0 266 -246 267l-80 -2v-537z" />
    <glyph glyph-name="S" unicode="S" horiz-adv-x="1206" 
d="M119 0v547h102l58 -101q188 -324 434 -323q172 0 172 151q-1 68 -57 120t-140 86q-209 85 -366 191q-84 56 -141 159q-56 103 -56 239q0 176 135 294t363 118q78 1 177 -13t132 -14h112v-493h-102l-27 63q-152 332 -374 332q-66 0 -114 -44t-48 -112q0 -120 146 -199
q65 -35 145 -71t158 -80q78 -45 144 -102q66 -56 106 -148t40 -207q0 -193 -132 -307t-335 -113q-106 -1 -221 13t-147 14h-164z" />
    <glyph glyph-name="T" unicode="T" horiz-adv-x="1406" 
d="M891 1333v-1167l260 -166h-895l260 166v1167h-125l-328 -432v580l134 -27h1011l135 27v-582l-327 434h-125z" />
    <glyph glyph-name="U" unicode="U" horiz-adv-x="1550" 
d="M578 596q0 -274 44 -356t129 -104q48 -13 115 -13q354 0 355 495v549l-228 287h568l-205 -287v-567q0 -266 -114 -446q-114 -179 -407 -180q-294 0 -468 138t-174 437v741l-164 164h731l-182 -164v-694z" />
    <glyph glyph-name="V" unicode="V" horiz-adv-x="1390" 
d="M-2 1454h645l-154 -154l338 -808h4l259 571l-177 391h492l-715 -1565z" />
    <glyph glyph-name="W" unicode="W" horiz-adv-x="1961" 
d="M8 1454h645l-159 -168l260 -684h4l149 373l-180 479h551l-72 -164l256 -688h4l179 449l-156 403h471l-631 -1563l-348 895l-354 -895z" />
    <glyph glyph-name="X" unicode="X" horiz-adv-x="1378" 
d="M-12 0l532 684l-510 770h652l-125 -164l237 -352l189 250l-183 266h555l-489 -620l563 -834h-715l142 211l-238 358l-229 -333l163 -236h-544z" />
    <glyph glyph-name="Y" unicode="Y" horiz-adv-x="1239" 
d="M-55 1454h641l-101 -162l267 -440h4l182 297l-156 305h482l-445 -780v-510l197 -164h-770l198 164v459z" />
    <glyph glyph-name="Z" unicode="Z" horiz-adv-x="1251" 
d="M713 1331h-277l-280 -491v641l133 -27h882l-651 -1327v-4h330l285 512v-635h-1094l672 1327v4z" />
    <glyph glyph-name="bracketleft" unicode="[" horiz-adv-x="645" 
d="M180 -98v1650h420v-98h-270v-1454h270v-98h-420z" />
    <glyph glyph-name="backslash" unicode="\" horiz-adv-x="917" 
d="M47 1454h148l671 -1454h-145z" />
    <glyph glyph-name="bracketright" unicode="]" horiz-adv-x="645" 
d="M45 0h270v1454h-270v98h420v-1650h-420v98z" />
    <glyph glyph-name="asciicircum" unicode="^" horiz-adv-x="968" 
d="M76 621l346 860h123l348 -860h-164l-248 626l-239 -626h-166z" />
    <glyph glyph-name="underscore" unicode="_" horiz-adv-x="1249" 
d="M121 -174h1007v-135h-1007v135z" />
    <glyph glyph-name="grave" unicode="`" horiz-adv-x="450" 
d="M-45 1227v254l541 -269v-57z" />
    <glyph glyph-name="a" unicode="a" horiz-adv-x="1099" 
d="M53 233q0 158 129 256t359 121l86 6v283h-191v-219h-313q-12 20 -12 93q-1 73 79 139t176 92q96 27 177 26q209 0 315 -83t107 -210v-614l92 -123l-424 -20l22 153h-4q-73 -86 -141 -123t-154 -37q-303 0 -303 260zM391 276q0 -98 105 -98q55 0 131 58v251l-25 -2
q-90 -9 -150 -65t-61 -144z" />
    <glyph glyph-name="b" unicode="b" horiz-adv-x="1179" 
d="M457 147h80q227 0 227 306q0 188 -56 267t-186 79h-65v-652zM453 952h4q129 78 245 78q190 0 300 -139t110 -367t-133 -390q-133 -161 -382 -161t-478 140v1218l-139 123l473 21v-523z" />
    <glyph glyph-name="c" unicode="c" horiz-adv-x="985" 
d="M520 -27q-214 -1 -334 149t-120 374t139 380q139 155 342 154q152 0 256 -58t104 -167q0 -51 -20 -100h-264v20q0 168 -109 168q-62 0 -112 -80q-50 -81 -50 -233t84 -242t216 -90t235 112l57 -16q-115 -371 -424 -371z" />
    <glyph glyph-name="d" unicode="d" horiz-adv-x="1208" 
d="M477 -27q-189 -1 -299 139t-110 368t133 390q133 160 366 160q102 0 156 -24v325l-164 123l502 21v-1332l110 -143l-428 -20l23 153h-4q-47 -66 -127 -113t-158 -47zM416 551q0 -188 56 -267t185 -79h66v651h-80q-227 0 -227 -305z" />
    <glyph glyph-name="e" unicode="e" horiz-adv-x="995" 
d="M627 696v29q0 156 -113 156q-48 -1 -92 -49t-62 -136h267zM520 -27q-214 -1 -334 149t-120 367t130 379t319 162t297 -102t108 -250v-103h-568q4 -159 88 -243t196 -84t185 54q27 19 76 63l47 -21q-115 -371 -424 -371z" />
    <glyph glyph-name="f" unicode="f" horiz-adv-x="743" 
d="M53 1004h113v12q0 231 110 348q111 117 275 117q199 0 264 -129v-97h-309v-251h207v-142h-205v-719l164 -143h-625l123 143v738l-117 34v89z" />
    <glyph glyph-name="g" unicode="g" horiz-adv-x="1040" 
d="M289 -98v-156l131 -2q158 0 258 36t100 93v29h-489zM68 -279q0 84 133 199q-49 14 -81 60t-32 120q0 76 66 148l108 119q-72 47 -123 123t-51 167q0 161 121 267t291 106q92 0 192 -26h332v-56l-184 -86q53 -72 53 -216t-120 -238q-121 -94 -273 -94t-187 20v-172l338 57
q66 12 107 12q96 -3 151 -77t55 -184t-56 -186q-99 -134 -335 -187q-98 -23 -192 -23q-313 0 -313 147zM471 895q-94 -1 -94 -203q0 -98 43 -173t100 -75q94 0 94 156q0 123 -44 209t-99 86z" />
    <glyph glyph-name="h" unicode="h" horiz-adv-x="1267" 
d="M772 1030q154 0 253 -89t99 -230v-568l113 -143h-557l106 143v625h-294v-625l104 -143h-555l113 143v1168l-113 143l436 21l-2 -588h4q109 143 293 143z" />
    <glyph glyph-name="i" unicode="i" horiz-adv-x="663" 
d="M33 1004l477 20v-881l131 -143h-606l137 143v717zM156 1297q0 77 53 130t131 53t130 -52q52 -54 52 -131t-52 -130t-130 -53t-131 53t-53 130z" />
    <glyph glyph-name="j" unicode="j" horiz-adv-x="638" 
d="M-111 -174h279v1034l-154 144l492 20v-1024q0 -190 -80 -308t-235 -118t-229 79t-73 173zM330 1114q-78 0 -132 53t-53 130q-1 77 53 130t132 53t130 -52q52 -54 52 -131t-52 -130t-130 -53z" />
    <glyph glyph-name="k" unicode="k" horiz-adv-x="1208" 
d="M494 573h4l182 144l2 287h487l-411 -332l475 -672h-490v137l-249 369h-5v-363l115 -143h-571l123 143v1168l-123 143l461 21v-902z" />
    <glyph glyph-name="l" unicode="l" horiz-adv-x="655" 
d="M23 0l137 143v1168l-137 143l475 21v-1332l131 -143h-606z" />
    <glyph glyph-name="m" unicode="m" horiz-adv-x="1843" 
d="M791 1030q180 0 274 -164q113 164 334 164q143 0 224 -87t81 -232v-568l94 -143h-526l94 143v645h-262v-645l86 -143h-508l84 143v645h-262v-645l96 -143h-547l113 143v717l-113 144l410 20l-17 -178h5q121 184 340 184z" />
    <glyph glyph-name="n" unicode="n" horiz-adv-x="1280" 
d="M784 1030q154 0 253 -89t100 -230v-568l112 -143h-557l107 143v645h-295v-645l104 -143h-555l113 143v717l-113 144l430 20l-16 -178h4q121 184 313 184z" />
    <glyph glyph-name="o" unicode="o" horiz-adv-x="1130" 
d="M420 565q0 -231 49 -337t123 -105q117 0 117 319q1 230 -49 336t-123 107q-117 -1 -117 -320zM564 -27q-220 1 -359 151t-139 380t140 378t359 148t359 -144t141 -374q0 -230 -141 -385q-140 -154 -360 -154z" />
    <glyph glyph-name="p" unicode="p" horiz-adv-x="1212" 
d="M735 1030q190 0 300 -139t110 -367t-133 -390q-133 -161 -367 -161q-59 0 -156 21v-250l187 -143h-637l113 143v1116l-113 144l410 20l-17 -178l4 -2q41 80 128 133t171 53zM489 147h80q227 0 228 306q-1 188 -57 267t-185 79h-66v-652z" />
    <glyph glyph-name="q" unicode="q" horiz-adv-x="1193" 
d="M416 551q0 -188 56 -267t185 -79h66v651h-80q-227 0 -227 -305zM68 480q0 228 133 390q133 160 366 160q156 0 287 -37l207 31v-1278l102 -145h-600l164 139v332h-4q-10 -6 -46 -29q-106 -68 -200 -70q-189 -1 -299 139t-110 368z" />
    <glyph glyph-name="r" unicode="r" horiz-adv-x="858" 
d="M727 1030q72 0 94 -26v-330h-325v-531l157 -143h-592l103 143v717l-103 144l367 20l-20 -268h8q127 274 311 274z" />
    <glyph glyph-name="s" unicode="s" horiz-adv-x="903" 
d="M94 733q0 143 100 220t250 77q72 0 145 -13t97 -13h78v-359h-86l-33 64q-102 201 -221 200q-92 0 -92 -78q0 -47 52 -85t126 -72t148 -81q74 -46 125 -129q53 -83 53 -208t-104 -204t-234 -79q-72 -1 -175 13t-143 14h-80v389h84l37 -70q111 -213 287 -213q88 0 88 66
q0 39 -37 75q-37 35 -93 61t-121 65t-121 81t-93 116t-37 163z" />
    <glyph glyph-name="t" unicode="t" horiz-adv-x="724" 
d="M492 1004h192v-142h-192v-665h215q-43 -109 -129 -166t-189 -57t-169 66q-66 67 -66 181v668l-107 26v89l445 352v-352z" />
    <glyph glyph-name="u" unicode="u" horiz-adv-x="1243" 
d="M473 236h283v624l-123 144l461 20v-881l106 -143l-424 -20l17 188h-5q-141 -195 -313 -195q-143 0 -242 90q-98 90 -98 230v567l-98 144l436 20v-788z" />
    <glyph glyph-name="v" unicode="v" horiz-adv-x="1095" 
d="M20 1004h560l-125 -226l190 -403h8l170 379l-139 250h389l-481 -1024h-84z" />
    <glyph glyph-name="w" unicode="w" horiz-adv-x="1636" 
d="M35 1004h538l-94 -185l158 -397h8l125 260l-115 322h467l-67 -152l170 -426h8l127 264l-123 314h389l-489 -1024h-78l-219 550l-281 -550h-84z" />
    <glyph glyph-name="x" unicode="x" horiz-adv-x="1091" 
d="M-12 0l424 455l-381 549h524l-92 -91l160 -229l110 137l-121 183h437l-361 -414l414 -590h-547l96 111l-176 251l-135 -151l147 -211h-499z" />
    <glyph glyph-name="y" unicode="y" horiz-adv-x="1157" 
d="M353 -426q-103 0 -185 72t-82 211h422l-488 1147h570l-127 -144l237 -584h5l147 396l-150 332h418l-458 -1176q-41 -114 -124 -184t-185 -70z" />
    <glyph glyph-name="z" unicode="z" horiz-adv-x="1042" 
d="M567 905h-227l-221 -358v457h858l-535 -902v-4h246l256 443v-541h-907l530 901v4z" />
    <glyph glyph-name="braceleft" unicode="{" horiz-adv-x="675" 
d="M211 846v342q0 190 87 286q86 96 192 97q106 0 169 -29l-28 -88q-70 18 -109 19q-150 0 -149 -318v-342q0 -143 -70 -204t-117 -72v-11q54 -14 99 -56q88 -82 88 -226v-344q0 -319 149 -320q53 0 109 21l31 -90q-63 -29 -169 -29t-194 98t-88 285v346q0 119 -36 163
t-126 48v215q88 2 125 46t37 163z" />
    <glyph glyph-name="bar" unicode="|" horiz-adv-x="518" 
d="M184 0v1454h150v-1454h-150z" />
    <glyph glyph-name="braceright" unicode="}" horiz-adv-x="677" 
d="M183 1571q106 0 194 -98t88 -285v-346q0 -119 36 -163t126 -48v-215q-88 -4 -125 -48t-37 -161v-342q0 -191 -87 -287q-86 -96 -192 -96t-170 29l29 88q70 -18 109 -19q150 0 149 318v342q0 143 69 204t117 72v10q-51 13 -97 56q-89 83 -89 227v344q0 319 -149 320
q-53 0 -109 -21l-31 90q63 29 169 29z" />
    <glyph glyph-name="asciitilde" unicode="~" horiz-adv-x="1308" 
d="M426 694q72 0 210 -42t212 -42q129 0 252 74l78 -119q-143 -94 -304 -94q-70 0 -206 43t-209 43q-117 0 -252 -72l-76 117q160 92 295 92z" />
    <glyph glyph-name="uni00A0" unicode="&#xa0;" horiz-adv-x="491" 
 />
    <glyph glyph-name="exclamdown" unicode="&#xa1;" horiz-adv-x="655" 
d="M147 -27v449l181 600l178 -600v-449h-359zM174 1300q0 66 45 110t111 44t110 -44t43 -110q0 -66 -44 -110q-43 -44 -109 -45q-66 1 -111 45t-45 110z" />
    <glyph glyph-name="cent" unicode="&#xa2;" horiz-adv-x="1028" 
d="M80 489q0 201 110 350q111 148 279 181v86h129v-78q139 -8 231 -65t93 -158q0 -51 -21 -100h-264v20q0 168 -109 168q-63 0 -112 -80q-49 -81 -49 -233t84 -242q83 -90 215 -90t235 112l57 -16q-102 -332 -360 -367v-79h-129v79q-184 25 -287 168q-102 143 -102 344z" />
    <glyph glyph-name="sterling" unicode="&#xa3;" horiz-adv-x="1273" 
d="M109 0v96q88 45 123 156q36 111 36 410h-153v141h153v241q0 193 138 315t326 122q186 0 304 -77t119 -233q0 -43 -16 -71h-320v200h-229v-497h346v-141h-344q0 -220 -37 -264q-14 -17 -60 -49t-85 -73l12 -12q94 111 199 111q73 0 203 -71t205 -71t124 37l49 -45
q-53 -104 -141 -178q-87 -74 -153 -74q-66 -1 -170 53t-169 54q-158 0 -264 -80h-196z" />
    <glyph glyph-name="currency" unicode="&#xa4;" horiz-adv-x="1075" 
d="M536 1063q138 0 236 -76l129 129l70 -76l-127 -127q76 -92 76 -230t-76 -237l129 -129l-76 -69l-127 127q-92 -76 -230 -76t-237 76l-129 -129l-70 76l127 127q-75 92 -75 230t75 236l-129 129l76 70l127 -127q93 76 231 76zM340 679q0 -85 56 -143t140 -58t141 58
q56 58 56 143t-56 143t-140 58q-85 0 -141 -58t-56 -143z" />
    <glyph glyph-name="yen" unicode="&#xa5;" horiz-adv-x="1445" 
d="M1239 823v-135h-301l-8 -14v-135h309v-136h-309v-239l196 -164h-770l199 164v239h-262v136h262v84l-39 65h-223v135h141l-379 631h641l-100 -162l266 -440h4l183 297l-156 305h481l-360 -631h225z" />
    <glyph glyph-name="brokenbar" unicode="&#xa6;" horiz-adv-x="518" 
d="M184 0v594h150v-594h-150zM184 860v594h150v-594h-150z" />
    <glyph glyph-name="section" unicode="&#xa7;" horiz-adv-x="1247" 
d="M137 147h103l57 -100q188 -324 434 -323q172 0 172 151q0 106 -150 158q-67 23 -148 45q-197 52 -311 133q-151 106 -151 349q0 130 88 233q-88 104 -88 278q-1 174 135 292t363 118q78 1 177 -13t132 -14h113v-493h-102l-27 63q-152 332 -375 332q-66 0 -114 -44
t-48 -112t41 -108q41 -41 106 -66q66 -26 144 -48q194 -56 302 -133q147 -105 147 -349q0 -134 -84 -236q84 -104 84 -282t-132 -290q-132 -114 -335 -114q-104 0 -221 13t-148 14h-164v546zM397 553l506 -197v158l-506 199v-160z" />
    <glyph glyph-name="dieresis" unicode="&#xa8;" horiz-adv-x="450" 
d="M-141 1302q0 64 44 108q45 44 109 44t108 -44t44 -108t-44 -109q-44 -44 -108 -44t-109 44q-44 45 -44 109zM285 1302q0 64 44 108q45 44 109 44t108 -44t44 -108t-44 -109q-44 -44 -108 -44t-109 44q-44 45 -44 109z" />
    <glyph glyph-name="copyright" unicode="&#xa9;" horiz-adv-x="1679" 
d="M1147 1149v-275h-82l-23 52q-36 82 -74 114t-96 33q-94 -1 -153 -69t-59 -201t75 -208q76 -75 183 -75q63 0 113 24t73 48t53 63l57 -34q-125 -326 -372 -326q-168 0 -291 118q-123 119 -123 311t120 314t322 123l234 -12h43zM199 727q0 -272 186 -466q187 -193 455 -193
t454 194t187 465q-1 272 -187 466q-186 193 -454 193t-455 -193q-186 -194 -186 -466zM86 727q0 311 221 533t533 221q312 0 532 -221q221 -220 221 -532t-221 -533t-532 -221q-310 0 -532 220q-222 222 -222 533z" />
    <glyph glyph-name="ordfeminine" unicode="&#xaa;" horiz-adv-x="1028" 
d="M86 834q0 211 383 282l115 27v114q0 70 -20 102t-79 32q-102 0 -102 -144v-82l-227 -2q-23 39 -23 80q0 82 65 139q110 97 296 98t268 -68t82 -171v-477l123 -123l-398 -20l19 149h-4q-74 -88 -139 -122t-151 -34t-148 52q-60 52 -60 168zM360 841q0 -73 56 -73
q84 0 168 109v180l-47 -21q-89 -38 -133 -80t-44 -115z" />
    <glyph glyph-name="guillemotleft" unicode="&#xab;" horiz-adv-x="1179" 
d="M66 498l440 424h51l-141 -424l141 -426h-51zM557 498l440 424h52l-142 -424l142 -426h-52z" />
    <glyph glyph-name="logicalnot" unicode="&#xac;" horiz-adv-x="835" 
d="M131 545v123h574v-287h-123v164h-451z" />
    <glyph glyph-name="uni00AD" unicode="&#xad;" horiz-adv-x="679" 
d="M115 524v123h450v-123h-450z" />
    <glyph glyph-name="registered" unicode="&#xae;" horiz-adv-x="1679" 
d="M406 315v78h55l57 66v538l-57 66h-55v78h468q190 0 272 -48q82 -49 83 -153q0 -104 -83 -156t-204 -67v-4l172 -41l160 -312v-45h-291l-125 301q-23 57 -80 58h-4v-215l37 -66h61v-78h-466zM774 764h29q71 0 113 41t42 113q0 133 -157 133h-27v-287zM199 727
q0 -272 186 -466q187 -193 455 -193t454 194t187 465q-1 272 -187 466q-186 193 -454 193t-455 -193q-186 -194 -186 -466zM86 727q0 311 221 533t533 221q312 0 532 -221q221 -220 221 -532t-221 -533t-532 -221q-310 0 -532 220q-222 222 -222 533z" />
    <glyph glyph-name="overscore" unicode="&#xaf;" horiz-adv-x="450" 
d="M0 1331v123h451v-123h-451z" />
    <glyph glyph-name="degree" unicode="&#xb0;" horiz-adv-x="671" 
d="M223 1200q0 -49 32 -83t81 -34t81 34t32 83t-32 83t-81 34t-81 -34t-32 -83zM82 1200q0 104 75 179t179 75t179 -75t75 -179t-75 -179t-179 -75t-179 75t-75 179z" />
    <glyph glyph-name="plusminus" unicode="&#xb1;" horiz-adv-x="1097" 
d="M119 0v135h860v-135h-860zM119 647v135h354v367h152v-367h354v-135h-354v-379h-152v379h-354z" />
    <glyph glyph-name="uni00B2" unicode="&#xb2;" horiz-adv-x="940" 
d="M580 1286q0 57 -25 85t-63 28q-76 0 -76 -113v-115h-244q-14 25 -14 64q0 104 100 175t244 71q309 0 309 -213q0 -113 -97 -204t-288 -185v-5h291l129 113l-62 -332h-698q262 231 328 301q166 178 166 330z" />
    <glyph glyph-name="uni00B3" unicode="&#xb3;" horiz-adv-x="827" 
d="M342 786q56 0 101 38q44 38 44 104q0 121 -129 121h-104l197 194v4h-338l41 207h622l-327 -324h24q113 0 179 -66t65 -184q0 -116 -82 -191t-214 -75t-211 60t-138 198l45 19q45 -47 107 -76t118 -29z" />
    <glyph glyph-name="acute" unicode="&#xb4;" horiz-adv-x="450" 
d="M-45 1155v57l541 269v-254z" />
    <glyph glyph-name="uni00B5" unicode="&#xb5;" horiz-adv-x="1353" 
d="M526 236h283v624l-123 144l461 20v-881l106 -143l-424 -20l17 188h-4q-141 -195 -336 -195v-372h-318v1259l-98 144l436 20v-788z" />
    <glyph glyph-name="paragraph" unicode="&#xb6;" horiz-adv-x="1220" 
d="M59 1051q0 167 117 285t283 118h698l-188 -119v-1335h-150v1356h-190v-1356h-150v649h-20q-166 0 -283 118t-117 284z" />
    <glyph glyph-name="middot" unicode="&#xb7;" horiz-adv-x="536" 
d="M104 717q0 68 48 116t116 48t116 -48t48 -116t-48 -116t-116 -48t-116 48t-48 116z" />
    <glyph glyph-name="cedilla" unicode="&#xb8;" horiz-adv-x="450" 
d="M289 -260q0 66 -90 65h-82l90 220h104l-45 -138h29q201 0 201 -141q0 -86 -75 -129t-178 -43t-212 35l49 104q78 -33 133 -32q76 0 76 59z" />
    <glyph glyph-name="uni00B9" unicode="&#xb9;" horiz-adv-x="800" 
d="M551 1475v-656l190 -164h-643l193 164v342l-185 78l400 236h45z" />
    <glyph glyph-name="ordmasculine" unicode="&#xba;" horiz-adv-x="987" 
d="M334 1100q0 -145 47 -266t137 -121q133 0 133 286q0 143 -46 265t-134 120q-137 1 -137 -284zM74 1050q0 188 120 309q120 122 300 122t300 -119t120 -307t-120 -315q-120 -126 -302 -126t-301 124q-117 124 -117 312z" />
    <glyph glyph-name="guillemotright" unicode="&#xbb;" horiz-adv-x="1177" 
d="M129 72l141 424l-141 426h51l441 -426l-441 -424h-51zM621 72l141 424l-141 426h51l440 -426l-440 -424h-51z" />
    <glyph glyph-name="onequarter" unicode="&#xbc;" horiz-adv-x="1798" 
d="M1180 242h137l260 278v-278h143v-86h-143v-156h-260v156h-299q106 160 152 236q121 199 182 407h342l-514 -553v-4zM348 0l1079 1454h191l-1071 -1454h-199zM526 1475v-656l191 -164h-643l192 164v342l-184 78l399 236h45z" />
    <glyph glyph-name="onehalf" unicode="&#xbd;" horiz-adv-x="1914" 
d="M1579 631q0 57 -25 85t-63 27q-76 0 -76 -112v-115h-244q-14 25 -14 64q0 104 100 175t244 70q309 0 309 -213q0 -114 -97 -204t-288 -185v-4h291l129 113l-61 -332h-699q262 231 328 301q166 178 166 330zM352 0l1080 1454h190l-1071 -1454h-199zM530 1475v-656
l191 -164h-643l192 164v342l-184 78l399 236h45z" />
    <glyph glyph-name="threequarters" unicode="&#xbe;" horiz-adv-x="1849" 
d="M1225 242h137l260 278v-278h143v-86h-143v-156h-260v156h-299q106 160 152 236q121 199 182 407h342l-514 -553v-4zM338 786q56 0 101 38q44 38 44 104q0 121 -129 121h-104l196 194v4h-337l41 207h622l-328 -324h25q113 0 179 -66t65 -184q0 -116 -82 -191t-214 -75
t-211 60t-138 198l45 19q45 -47 107 -76t118 -29zM393 0l1080 1454h190l-1071 -1454h-199z" />
    <glyph glyph-name="questiondown" unicode="&#xbf;" horiz-adv-x="1007" 
d="M551 1030v19h90q29 -68 29 -158q0 -89 -38 -187t-85 -166t-85 -159q-38 -90 -38 -172q0 -125 82 -125q94 0 94 125v117h315q20 -37 21 -80q0 -86 -80 -152q-144 -119 -349 -119q-204 0 -325 76t-121 234t172 283q72 52 145 110t123 147q50 90 50 207zM440 1327
q0 66 45 110t111 44t110 -44t44 -110q0 -67 -44 -111t-110 -44t-111 44q-45 45 -45 111z" />
    <glyph glyph-name="Agrave" unicode="&#xc0;" horiz-adv-x="1427" 
d="M-8 0l141 205l459 1249l205 82l532 -1405l90 -131h-645l187 129l-127 326l-469 -2l-89 -248l199 -205h-483zM408 575l387 3l-195 538zM455 1636v254l540 -268v-57z" />
    <glyph glyph-name="Aacute" unicode="&#xc1;" horiz-adv-x="1427" 
d="M-8 0l141 205l459 1249l205 82l532 -1405l90 -131h-645l187 129l-127 326l-469 -2l-89 -248l199 -205h-483zM408 575l387 3l-195 538zM455 1565v57l540 268v-254z" />
    <glyph glyph-name="Acircumflex" unicode="&#xc2;" horiz-adv-x="1427" 
d="M-8 0l141 205l459 1249l205 82l532 -1405l90 -131h-645l187 129l-127 326l-469 -2l-89 -248l199 -205h-483zM408 575l387 3l-195 538zM397 1565v57l328 268l328 -268v-57l-328 71z" />
    <glyph glyph-name="Atilde" unicode="&#xc3;" horiz-adv-x="1427" 
d="M-8 0l141 205l459 1249l205 82l532 -1405l90 -131h-645l187 129l-127 326l-469 -2l-89 -248l199 -205h-483zM408 575l387 3l-195 538zM852 1810q80 0 158 74l59 -57q-102 -158 -235 -158q-51 0 -120 40t-116 40q-80 0 -158 -74l-59 54q109 162 235 161q55 0 129 -40
t107 -40z" />
    <glyph glyph-name="Adieresis" unicode="&#xc4;" horiz-adv-x="1427" 
d="M-8 0l141 205l459 1249l205 82l532 -1405l90 -131h-645l187 129l-127 326l-469 -2l-89 -248l199 -205h-483zM408 575l387 3l-195 538zM360 1712q0 64 44 108t109 44t109 -44t44 -108t-44 -109q-44 -44 -108 -44t-110 44q-44 45 -44 109zM786 1712q0 64 44 108t109 44
t109 -44t44 -108t-44 -109q-44 -44 -108 -44t-110 44q-44 45 -44 109z" />
    <glyph glyph-name="Aring" unicode="&#xc5;" horiz-adv-x="1427" 
d="M-8 0l141 205l459 1249l205 82l532 -1405l90 -131h-645l187 129l-127 326l-469 -2l-89 -248l199 -205h-483zM408 575l387 3l-195 538zM726 1792q-30 0 -48 -20t-19 -49q1 -30 19 -48t48 -18t49 18t19 48q0 29 -18 49q-20 20 -50 20zM893 1723q0 -71 -48 -119t-119 -48
t-119 48t-48 119t48 119t119 48t119 -48t48 -119z" />
    <glyph glyph-name="AE" unicode="&#xc6;" horiz-adv-x="2027" 
d="M-20 0v57l907 1241l-156 156h1127v-471l-308 348h-280v-538l303 327v-737l-303 328v-588h282l426 428l-104 -551h-1143l164 164v309h-479l-195 -268l72 -127h149v-78h-462zM895 575v558l-406 -558h406z" />
    <glyph glyph-name="Ccedilla" unicode="&#xc7;" horiz-adv-x="1447" 
d="M80 742q0 306 196 522q197 217 517 217q109 1 241 -13t170 -14h113v-586h-84l-66 152q-145 324 -417 324q-140 0 -245 -133q-105 -131 -105 -371t138 -393t363 -152q256 0 416 182l78 -28q-64 -158 -205 -305q-76 -79 -186 -127t-232 -44h-10l-29 -86h29q201 0 201 -141
q0 -86 -75 -129q-74 -43 -178 -43t-212 35l49 104q78 -33 133 -32q76 0 76 59q0 66 -90 65h-82l71 179q-266 41 -421 246q-154 206 -154 512z" />
    <glyph glyph-name="Egrave" unicode="&#xc8;" horiz-adv-x="1361" 
d="M1192 1454v-471l-307 348h-281v-538l303 327v-737l-303 328v-588h283l426 428l-105 -551h-1142l163 164v1126l-163 164h1126zM401 1636v254l541 -268v-57z" />
    <glyph glyph-name="Eacute" unicode="&#xc9;" horiz-adv-x="1361" 
d="M1192 1454v-471l-307 348h-281v-538l303 327v-737l-303 328v-588h283l426 428l-105 -551h-1142l163 164v1126l-163 164h1126zM401 1565v57l541 268v-254z" />
    <glyph glyph-name="Ecircumflex" unicode="&#xca;" horiz-adv-x="1361" 
d="M1192 1454v-471l-307 348h-281v-538l303 327v-737l-303 328v-588h283l426 428l-105 -551h-1142l163 164v1126l-163 164h1126zM344 1565v57l328 268l327 -268v-57l-327 71z" />
    <glyph glyph-name="Edieresis" unicode="&#xcb;" horiz-adv-x="1361" 
d="M1192 1454v-471l-307 348h-281v-538l303 327v-737l-303 328v-588h283l426 428l-105 -551h-1142l163 164v1126l-163 164h1126zM307 1712q0 64 44 108t109 44q64 0 108 -44t44 -108t-44 -109q-44 -44 -108 -44t-109 44q-44 45 -44 109zM733 1712q0 64 44 108t109 44
q64 0 108 -44t44 -108t-44 -109q-44 -44 -108 -44t-109 44q-44 45 -44 109z" />
    <glyph glyph-name="Igrave" unicode="&#xcc;" horiz-adv-x="851" 
d="M49 0l184 164v1126l-184 164h754l-185 -164v-1126l185 -164h-754zM156 1636v254l540 -268v-57z" />
    <glyph glyph-name="Iacute" unicode="&#xcd;" horiz-adv-x="851" 
d="M49 0l184 164v1126l-184 164h754l-185 -164v-1126l185 -164h-754zM156 1565v57l540 268v-254z" />
    <glyph glyph-name="Icircumflex" unicode="&#xce;" horiz-adv-x="851" 
d="M49 0l184 164v1126l-184 164h754l-185 -164v-1126l185 -164h-754zM98 1565v57l328 268l328 -268v-57l-328 71z" />
    <glyph glyph-name="Idieresis" unicode="&#xcf;" horiz-adv-x="851" 
d="M49 0l184 164v1126l-184 164h754l-185 -164v-1126l185 -164h-754zM59 1712q0 64 44 108t109 44t109 -44t44 -108t-44 -109q-45 -44 -109 -44t-109 44q-44 45 -44 109zM485 1712q0 64 44 108t109 44q64 0 108 -44t44 -108t-44 -109q-44 -44 -108 -44t-109 44
q-44 45 -44 109z" />
    <glyph glyph-name="Eth" unicode="&#xd0;" horiz-adv-x="1511" 
d="M68 702v123h165v465l-163 164h632q367 0 548 -189q182 -189 182 -511t-220 -538t-514 -216h-628l163 164v538h-165zM608 825h-82v-123h82v123zM608 825h320v-123h-320v-557h39q207 0 283 121t76 416t-92 472t-283 177h-23v-506z" />
    <glyph glyph-name="Ntilde" unicode="&#xd1;" horiz-adv-x="1558" 
d="M1192 645v522l-242 287h582l-205 -287v-1276l-921 1115h-5v-717l242 -289h-623l246 289v868l-248 297h490l680 -809h4zM924 1810q80 0 157 74l60 -57q-102 -158 -236 -158q-51 0 -120 40t-115 40q-80 0 -158 -74l-59 54q109 162 235 161q57 0 131 -40t105 -40z" />
    <glyph glyph-name="Ograve" unicode="&#xd2;" 
d="M725 1319q-119 0 -185 -119t-65 -321q0 -203 46 -367t138 -266t211 -102q236 -1 236 429q0 431 -173 639q-89 108 -208 107zM78 728q0 320 196 536q196 217 514 217t517 -217t199 -537t-198 -537q-196 -217 -513 -217t-517 217q-198 218 -198 538zM530 1636v254l541 -268
v-57z" />
    <glyph glyph-name="Oacute" unicode="&#xd3;" 
d="M725 1319q-119 0 -185 -119t-65 -321q0 -203 46 -367t138 -266t211 -102q236 -1 236 429q0 431 -173 639q-89 108 -208 107zM78 728q0 320 196 536q196 217 514 217t517 -217t199 -537t-198 -537q-196 -217 -513 -217t-517 217q-198 218 -198 538zM530 1565v57l541 268
v-254z" />
    <glyph glyph-name="Ocircumflex" unicode="&#xd4;" 
d="M725 1319q-119 0 -185 -119t-65 -321q0 -203 46 -367t138 -266t211 -102q236 -1 236 429q0 431 -173 639q-89 108 -208 107zM78 728q0 320 196 536q196 217 514 217t517 -217t199 -537t-198 -537q-196 -217 -513 -217t-517 217q-198 218 -198 538zM473 1565v57l328 268
l327 -268v-57l-327 71z" />
    <glyph glyph-name="Otilde" unicode="&#xd5;" 
d="M725 1319q-119 0 -185 -119t-65 -321q0 -203 46 -367t138 -266t211 -102q236 -1 236 429q0 431 -173 639q-89 108 -208 107zM78 728q0 320 196 536q196 217 514 217t517 -217t199 -537t-198 -537q-196 -217 -513 -217t-517 217q-198 218 -198 538zM928 1810q80 0 157 74
l60 -57q-102 -158 -236 -158q-51 0 -119 40t-116 40q-80 0 -158 -74l-59 54q109 162 235 161q57 0 131 -40t105 -40z" />
    <glyph glyph-name="Odieresis" unicode="&#xd6;" 
d="M725 1319q-119 0 -185 -119t-65 -321q0 -203 46 -367t138 -266t211 -102q236 -1 236 429q0 431 -173 639q-89 108 -208 107zM78 728q0 320 196 536q196 217 514 217t517 -217t199 -537t-198 -537q-196 -217 -513 -217t-517 217q-198 218 -198 538zM434 1712q0 64 44 108
t109 44t109 -44t43 -108q0 -64 -44 -109q-44 -44 -108 -44t-109 44q-44 45 -44 109zM860 1712q0 64 44 108t109 44t109 -44t43 -108q0 -64 -44 -109q-44 -44 -108 -44t-109 44q-44 45 -44 109z" />
    <glyph glyph-name="multiply" unicode="&#xd7;" horiz-adv-x="1064" 
d="M88 909l119 121l330 -350l327 346l107 -111l-330 -346l336 -352l-115 -115l-336 349l-327 -345l-105 107l328 348z" />
    <glyph glyph-name="Oslash" unicode="&#xd8;" 
d="M872 143q117 0 176 114q58 114 58 320t-49 377l-453 -635q106 -176 268 -176zM723 1319q-117 0 -183 -119q-66 -118 -65 -340q0 -222 64 -399l460 647q-106 211 -276 211zM78 725q0 322 196 539q197 217 517 217q217 0 391 -115l63 88h168l-125 -174q215 -215 215 -544
q-1 -329 -197 -546t-515 -217q-207 0 -365 97l-49 -70h-166l106 150q-239 217 -239 575z" />
    <glyph glyph-name="Ugrave" unicode="&#xd9;" horiz-adv-x="1550" 
d="M578 596q0 -274 44 -356t129 -104q48 -13 115 -13q354 0 355 495v549l-228 287h568l-205 -287v-567q0 -266 -114 -446q-114 -179 -407 -180q-294 0 -468 138t-174 437v741l-164 164h731l-182 -164v-694zM606 1636v254l541 -268v-57z" />
    <glyph glyph-name="Uacute" unicode="&#xda;" horiz-adv-x="1550" 
d="M578 596q0 -274 44 -356t129 -104q48 -13 115 -13q354 0 355 495v549l-228 287h568l-205 -287v-567q0 -266 -114 -446q-114 -179 -407 -180q-294 0 -468 138t-174 437v741l-164 164h731l-182 -164v-694zM586 1565v57l540 268v-254z" />
    <glyph glyph-name="Ucircumflex" unicode="&#xdb;" horiz-adv-x="1550" 
d="M578 596q0 -274 44 -356t129 -104q48 -13 115 -13q354 0 355 495v549l-228 287h568l-205 -287v-567q0 -266 -114 -446q-114 -179 -407 -180q-294 0 -468 138t-174 437v741l-164 164h731l-182 -164v-694zM528 1565v57l328 268l328 -268v-57l-328 71z" />
    <glyph glyph-name="Udieresis" unicode="&#xdc;" horiz-adv-x="1550" 
d="M578 596q0 -274 44 -356t129 -104q48 -13 115 -13q354 0 355 495v549l-228 287h568l-205 -287v-567q0 -266 -114 -446q-114 -179 -407 -180q-294 0 -468 138t-174 437v741l-164 164h731l-182 -164v-694zM510 1712q0 64 44 108t109 44t109 -44t43 -108q0 -64 -44 -109
q-44 -44 -108 -44t-109 44q-44 45 -44 109zM936 1712q0 64 44 108t108 44t109 -44q44 -44 44 -108t-44 -109q-45 -44 -109 -44t-108 44q-44 45 -44 109z" />
    <glyph glyph-name="Yacute" unicode="&#xdd;" horiz-adv-x="1239" 
d="M-55 1454h641l-101 -162l267 -440h4l182 297l-156 305h482l-445 -780v-510l197 -164h-770l198 164v459zM362 1565v57l541 268v-254z" />
    <glyph glyph-name="Thorn" unicode="&#xde;" horiz-adv-x="1292" 
d="M618 1178h97q264 0 401 -86t137 -278q1 -192 -161 -315q-162 -122 -387 -122h-33v92h12q82 0 133 92t51 226t-66 191q-67 56 -155 56h-29v-870l185 -164h-754l184 164v1126l-184 164h754l-185 -164v-112z" />
    <glyph glyph-name="germandbls" unicode="&#xdf;" horiz-adv-x="1402" 
d="M1015 -27q-147 0 -276 27h-104v328h84l26 -37q133 -184 297 -185q88 0 88 66q0 39 -36 75q-38 35 -94 61t-120 65t-121 81q-56 42 -93 116t-37 163q0 152 164 248v379h-287v-1360h-440l102 143v719l-102 53v89h98v12q0 358 311 443q79 22 189 22t222 -31
q112 -30 188 -104t77 -179q0 -73 -30 -119q-29 -46 -71 -66t-83 -36q-101 -41 -101 -115q0 -47 52 -85t126 -72t148 -81q74 -46 126 -129t52 -208t-104 -204t-251 -79z" />
    <glyph glyph-name="agrave" unicode="&#xe0;" horiz-adv-x="1099" 
d="M53 233q0 158 129 256t359 121l86 6v283h-191v-219h-313q-12 20 -12 93q-1 73 79 139t176 92q96 27 177 26q209 0 315 -83t107 -210v-614l92 -123l-424 -20l22 153h-4q-73 -86 -141 -123t-154 -37q-303 0 -303 260zM391 276q0 -98 105 -98q55 0 131 58v251l-25 -2
q-90 -9 -150 -65t-61 -144zM291 1227v254l540 -269v-57z" />
    <glyph glyph-name="aacute" unicode="&#xe1;" horiz-adv-x="1099" 
d="M53 233q0 158 129 256t359 121l86 6v283h-191v-219h-313q-12 20 -12 93q-1 73 79 139t176 92q96 27 177 26q209 0 315 -83t107 -210v-614l92 -123l-424 -20l22 153h-4q-73 -86 -141 -123t-154 -37q-303 0 -303 260zM391 276q0 -98 105 -98q55 0 131 58v251l-25 -2
q-90 -9 -150 -65t-61 -144zM291 1155v57l540 269v-254z" />
    <glyph glyph-name="acircumflex" unicode="&#xe2;" horiz-adv-x="1099" 
d="M53 233q0 158 129 256t359 121l86 6v283h-191v-219h-313q-12 20 -12 93q-1 73 79 139t176 92q96 27 177 26q209 0 315 -83t107 -210v-614l92 -123l-424 -20l22 153h-4q-73 -86 -141 -123t-154 -37q-303 0 -303 260zM391 276q0 -98 105 -98q55 0 131 58v251l-25 -2
q-90 -9 -150 -65t-61 -144zM233 1155v57l328 269l328 -269v-57l-328 72z" />
    <glyph glyph-name="atilde" unicode="&#xe3;" horiz-adv-x="1099" 
d="M53 233q0 158 129 256t359 121l86 6v283h-191v-219h-313q-12 20 -12 93q-1 73 79 139t176 92q96 27 177 26q209 0 315 -83t107 -210v-614l92 -123l-424 -20l22 153h-4q-73 -86 -141 -123t-154 -37q-303 0 -303 260zM391 276q0 -98 105 -98q55 0 131 58v251l-25 -2
q-90 -9 -150 -65t-61 -144zM453 1481q55 0 129 -40t106 -40q80 0 158 74l59 -58q-102 -158 -235 -157q-51 0 -120 40t-116 39q-80 0 -158 -73l-59 53q109 162 236 162z" />
    <glyph glyph-name="adieresis" unicode="&#xe4;" horiz-adv-x="1099" 
d="M53 233q0 158 129 256t359 121l86 6v283h-191v-219h-313q-12 20 -12 93q-1 73 79 139t176 92q96 27 177 26q209 0 315 -83t107 -210v-614l92 -123l-424 -20l22 153h-4q-73 -86 -141 -123t-154 -37q-303 0 -303 260zM391 276q0 -98 105 -98q55 0 131 58v251l-25 -2
q-90 -9 -150 -65t-61 -144zM215 1302q0 64 44 108t109 44q64 0 108 -44t44 -108t-44 -109q-44 -44 -108 -44t-109 44q-44 45 -44 109zM641 1302q0 64 44 108t109 44q64 0 108 -44t44 -108t-44 -109q-44 -44 -108 -44t-109 44q-44 45 -44 109z" />
    <glyph glyph-name="aring" unicode="&#xe5;" horiz-adv-x="1099" 
d="M53 233q0 158 129 256t359 121l86 6v283h-191v-219h-313q-12 20 -12 93q-1 73 79 139t176 92q96 27 177 26q209 0 315 -83t107 -210v-614l92 -123l-424 -20l22 153h-4q-73 -86 -141 -123t-154 -37q-303 0 -303 260zM391 276q0 -98 105 -98q55 0 131 58v251l-25 -2
q-90 -9 -150 -65t-61 -144zM581 1382q-31 0 -49 -19t-18 -49t18 -48t48 -18t50 18q19 18 19 48t-19 49t-49 19zM414 1314q0 71 48 119t119 48t119 -48t48 -119t-48 -119t-120 -48q-70 0 -118 48t-48 119z" />
    <glyph glyph-name="ae" unicode="&#xe6;" horiz-adv-x="1613" 
d="M391 276q0 -98 105 -98q55 0 131 58v251l-25 -2q-90 -9 -150 -65t-61 -144zM1245 696v29q0 156 -112 156q-49 0 -93 -48q-43 -49 -61 -137h266zM53 233q0 158 129 256t359 121l86 6v283h-191v-219h-313q-12 20 -12 93q-1 73 79 139t176 92q96 27 177 26q221 0 334 -98
q115 98 281 98t273 -102q108 -102 107 -250v-103h-567q4 -159 88 -243t196 -84t185 54q27 19 76 63l47 -21q-115 -371 -424 -371q-268 0 -389 230l-66 -70q-154 -160 -328 -160q-303 0 -303 260z" />
    <glyph glyph-name="ccedilla" unicode="&#xe7;" horiz-adv-x="985" 
d="M66 483q0 238 139 393t342 154q152 0 256 -58t104 -167q0 -51 -20 -100h-264v20q0 168 -109 168q-62 0 -112 -80q-50 -81 -50 -233t84 -242t216 -90t235 112l57 -16q-51 -174 -154 -270t-255 -101l-29 -86h29q201 0 200 -141q0 -86 -75 -129t-178 -43t-212 35l49 104
q78 -33 134 -32q76 0 75 59q0 66 -90 65h-82l72 177q-172 31 -267 172t-95 329z" />
    <glyph glyph-name="egrave" unicode="&#xe8;" horiz-adv-x="995" 
d="M627 696v29q0 156 -113 156q-48 -1 -92 -49t-62 -136h267zM520 -27q-214 -1 -334 149t-120 367t130 379t319 162t297 -102t108 -250v-103h-568q4 -159 88 -243t196 -84t185 54q27 19 76 63l47 -21q-115 -371 -424 -371zM258 1227v254l541 -269v-57z" />
    <glyph glyph-name="eacute" unicode="&#xe9;" horiz-adv-x="995" 
d="M627 696v29q0 156 -113 156q-48 -1 -92 -49t-62 -136h267zM520 -27q-214 -1 -334 149t-120 367t130 379t319 162t297 -102t108 -250v-103h-568q4 -159 88 -243t196 -84t185 54q27 19 76 63l47 -21q-115 -371 -424 -371zM258 1155v57l541 269v-254z" />
    <glyph glyph-name="ecircumflex" unicode="&#xea;" horiz-adv-x="995" 
d="M627 696v29q0 156 -113 156q-48 -1 -92 -49t-62 -136h267zM520 -27q-214 -1 -334 149t-120 367t130 379t319 162t297 -102t108 -250v-103h-568q4 -159 88 -243t196 -84t185 54q27 19 76 63l47 -21q-115 -371 -424 -371zM201 1155v57l327 269l328 -269v-57l-328 72z" />
    <glyph glyph-name="edieresis" unicode="&#xeb;" horiz-adv-x="995" 
d="M627 696v29q0 156 -113 156q-48 -1 -92 -49t-62 -136h267zM520 -27q-214 -1 -334 149t-120 367t130 379t319 162t297 -102t108 -250v-103h-568q4 -159 88 -243t196 -84t185 54q27 19 76 63l47 -21q-115 -371 -424 -371zM170 1302q0 64 44 108t109 44t109 -44t43 -108
q0 -64 -44 -109q-44 -44 -108 -44t-109 44q-44 45 -44 109zM596 1302q0 64 44 108t109 44t109 -44t43 -108q0 -64 -44 -109q-44 -44 -108 -44t-109 44q-44 45 -44 109z" />
    <glyph glyph-name="igrave" unicode="&#xec;" horiz-adv-x="663" 
d="M33 1004l477 20v-881l131 -143h-606l137 143v717zM74 1227v254l540 -269v-57z" />
    <glyph glyph-name="iacute" unicode="&#xed;" horiz-adv-x="663" 
d="M33 1004l477 20v-881l131 -143h-606l137 143v717zM74 1155v57l540 269v-254z" />
    <glyph glyph-name="icircumflex" unicode="&#xee;" horiz-adv-x="663" 
d="M33 1004l477 20v-881l131 -143h-606l137 143v717zM16 1155v57l328 269l328 -269v-57l-328 72z" />
    <glyph glyph-name="idieresis" unicode="&#xef;" horiz-adv-x="663" 
d="M33 1004l477 20v-881l131 -143h-606l137 143v717zM-20 1302q0 64 44 108t108 44t109 -44q44 -44 44 -108t-44 -109q-45 -44 -109 -44t-108 44q-44 45 -44 109zM406 1302q0 64 44 108t108 44t109 -44q44 -44 44 -108t-44 -109q-45 -44 -109 -44t-108 44q-44 45 -44 109z
" />
    <glyph glyph-name="eth" unicode="&#xf0;" horiz-adv-x="1159" 
d="M438 391q0 -162 25 -215t93 -53t118 106q49 106 49 262t-27 211q-28 56 -98 56t-115 -102t-45 -265zM70 448q0 209 135 334t342 125q82 0 155 -24h5q-33 92 -123 211l-172 -41v123l84 20q-129 129 -258 201v98q260 -86 456 -250l250 62v-123l-145 -37q139 -145 215 -315
t76 -332q0 -242 -136 -384t-372 -142t-374 132q-138 133 -138 342z" />
    <glyph glyph-name="ntilde" unicode="&#xf1;" horiz-adv-x="1280" 
d="M784 1030q154 0 253 -89t100 -230v-568l112 -143h-557l107 143v645h-295v-645l104 -143h-555l113 143v717l-113 144l430 20l-16 -178h4q121 184 313 184zM545 1481q57 0 131 -40t104 -40q80 0 158 74l59 -58q-102 -158 -235 -157q-51 0 -120 40t-116 39q-80 0 -157 -73
l-60 53q109 162 236 162z" />
    <glyph glyph-name="ograve" unicode="&#xf2;" horiz-adv-x="1130" 
d="M420 565q0 -231 49 -337t123 -105q117 0 117 319q1 230 -49 336t-123 107q-117 -1 -117 -320zM564 -27q-220 1 -359 151t-139 380t140 378t359 148t359 -144t141 -374q0 -230 -141 -385q-140 -154 -360 -154zM295 1227v254l541 -269v-57z" />
    <glyph glyph-name="oacute" unicode="&#xf3;" horiz-adv-x="1130" 
d="M420 565q0 -231 49 -337t123 -105q117 0 117 319q1 230 -49 336t-123 107q-117 -1 -117 -320zM564 -27q-220 1 -359 151t-139 380t140 378t359 148t359 -144t141 -374q0 -230 -141 -385q-140 -154 -360 -154zM295 1155v57l541 269v-254z" />
    <glyph glyph-name="ocircumflex" unicode="&#xf4;" horiz-adv-x="1130" 
d="M420 565q0 -231 49 -337t123 -105q117 0 117 319q1 230 -49 336t-123 107q-117 -1 -117 -320zM564 -27q-220 1 -359 151t-139 380t140 378t359 148t359 -144t141 -374q0 -230 -141 -385q-140 -154 -360 -154zM238 1155v57l327 269l328 -269v-57l-328 72z" />
    <glyph glyph-name="otilde" unicode="&#xf5;" horiz-adv-x="1130" 
d="M420 565q0 -231 49 -337t123 -105q117 0 117 319q1 230 -49 336t-123 107q-117 -1 -117 -320zM564 -27q-220 1 -359 151t-139 380t140 378t359 148t359 -144t141 -374q0 -230 -141 -385q-140 -154 -360 -154zM457 1481q57 0 130 -40t105 -40q80 0 158 74l59 -58
q-102 -158 -235 -157q-51 0 -120 40t-116 39q-80 0 -157 -73l-60 53q109 162 236 162z" />
    <glyph glyph-name="odieresis" unicode="&#xf6;" horiz-adv-x="1130" 
d="M420 565q0 -231 49 -337t123 -105q117 0 117 319q1 230 -49 336t-123 107q-117 -1 -117 -320zM564 -27q-220 1 -359 151t-139 380t140 378t359 148t359 -144t141 -374q0 -230 -141 -385q-140 -154 -360 -154zM199 1302q0 64 44 108q45 44 109 44t108 -44t44 -108
t-44 -109q-44 -44 -108 -44t-109 44q-44 45 -44 109zM625 1302q0 64 44 108q45 44 109 44t108 -44t44 -108t-44 -109q-44 -44 -108 -44t-109 44q-44 45 -44 109z" />
    <glyph glyph-name="divide" unicode="&#xf7;" horiz-adv-x="1208" 
d="M465 257q0 58 40 99t99 41t99 -41t40 -99t-40 -99t-99 -41t-99 41t-40 99zM102 506v135h1004v-135h-1004zM463 890q0 58 40 99t99 41t99 -41t40 -99t-40 -99t-99 -41t-99 41t-40 99z" />
    <glyph glyph-name="oslash" unicode="&#xf8;" horiz-adv-x="1126" 
d="M590 123q117 0 117 319q0 94 -9 158l-247 -334q45 -143 139 -143zM535 885q-117 0 -117 -320q0 -94 4 -121l240 324q-45 117 -127 117zM63 508q1 226 141 374t357 148q141 0 250 -59l45 59h164l-102 -139q145 -141 145 -375t-141 -389q-141 -154 -355 -154
q-162 0 -276 76l-37 -49h-164l100 135q-127 146 -127 373z" />
    <glyph glyph-name="ugrave" unicode="&#xf9;" horiz-adv-x="1243" 
d="M473 236h283v624l-123 144l461 20v-881l106 -143l-424 -20l17 188h-5q-141 -195 -313 -195q-143 0 -242 90q-98 90 -98 230v567l-98 144l436 20v-788zM340 1227v254l541 -269v-57z" />
    <glyph glyph-name="uacute" unicode="&#xfa;" horiz-adv-x="1243" 
d="M473 236h283v624l-123 144l461 20v-881l106 -143l-424 -20l17 188h-5q-141 -195 -313 -195q-143 0 -242 90q-98 90 -98 230v567l-98 144l436 20v-788zM340 1155v57l541 269v-254z" />
    <glyph glyph-name="ucircumflex" unicode="&#xfb;" horiz-adv-x="1243" 
d="M473 236h283v624l-123 144l461 20v-881l106 -143l-424 -20l17 188h-5q-141 -195 -313 -195q-143 0 -242 90q-98 90 -98 230v567l-98 144l436 20v-788zM283 1155v57l327 269l328 -269v-57l-328 72z" />
    <glyph glyph-name="udieresis" unicode="&#xfc;" horiz-adv-x="1243" 
d="M473 236h283v624l-123 144l461 20v-881l106 -143l-424 -20l17 188h-5q-141 -195 -313 -195q-143 0 -242 90q-98 90 -98 230v567l-98 144l436 20v-788zM244 1302q0 64 44 108t108 44t109 -44q44 -44 44 -108t-44 -109q-45 -44 -109 -44t-108 44q-44 45 -44 109zM670 1302
q0 64 44 108t108 44t109 -44q44 -44 44 -108t-44 -109q-45 -44 -109 -44t-108 44q-44 45 -44 109z" />
    <glyph glyph-name="yacute" unicode="&#xfd;" horiz-adv-x="1157" 
d="M353 -426q-103 0 -185 72t-82 211h422l-488 1147h570l-127 -144l237 -584h5l147 396l-150 332h418l-458 -1176q-41 -114 -124 -184t-185 -70zM379 1155v57l541 269v-254z" />
    <glyph glyph-name="thorn" unicode="&#xfe;" horiz-adv-x="1189" 
d="M623 -27q-57 0 -156 21v-250l186 -143h-637l113 143v1567l-137 143l475 21v-557q109 113 246 112q190 0 300 -139q109 -139 109 -367t-133 -390q-133 -161 -366 -161zM467 147h80q227 0 227 306q0 188 -56 267t-186 79h-65v-652z" />
    <glyph glyph-name="ydieresis" unicode="&#xff;" horiz-adv-x="1157" 
d="M353 -426q-103 0 -185 72t-82 211h422l-488 1147h570l-127 -144l237 -584h5l147 396l-150 332h418l-458 -1176q-41 -114 -124 -184t-185 -70zM285 1302q0 64 44 108q45 44 109 44t108 -44t44 -108t-44 -109q-44 -44 -108 -44t-109 44q-44 45 -44 109zM711 1302
q0 64 44 108q45 44 109 44t108 -44t44 -108t-44 -109q-44 -44 -108 -44t-109 44q-44 45 -44 109z" />
    <glyph glyph-name="OE" unicode="&#x152;" horiz-adv-x="2037" 
d="M811 0q-367 0 -548 190t-181 510q0 322 219 538t514 216h1053v-471l-307 348h-281v-538l303 327v-737l-303 328v-588h283l426 428l-105 -551h-1073zM866 1309q-206 0 -282 -121t-76 -416t92 -472t283 -177h22v1186h-39z" />
    <glyph glyph-name="oe" unicode="&#x153;" horiz-adv-x="1705" 
d="M1337 696v29q0 156 -112 156q-49 -1 -93 -49t-61 -136h266zM420 565q0 -231 49 -337t123 -105q117 0 117 319q1 230 -49 336t-123 107q-117 -1 -117 -320zM66 504q0 230 140 378t360 148t358 -143q129 143 310 143t289 -102t107 -250v-103h-567q4 -159 88 -243t196 -84
t185 54q27 19 76 63l47 -21q-115 -371 -424 -371q-199 0 -324 136q-141 -135 -352 -135t-350 150t-139 380z" />
    <glyph glyph-name="Ydieresis" unicode="&#x178;" horiz-adv-x="1239" 
d="M-55 1454h641l-101 -162l267 -440h4l182 297l-156 305h482l-445 -780v-510l197 -164h-770l198 164v459zM266 1712q0 64 44 108t109 44t109 -44t43 -108q0 -64 -44 -109q-44 -44 -108 -44t-109 44q-44 45 -44 109zM692 1712q0 64 44 108t109 44t109 -44t43 -108
q0 -64 -44 -109q-44 -44 -108 -44t-109 44q-44 45 -44 109z" />
    <glyph glyph-name="circumflex" unicode="&#x2c6;" horiz-adv-x="450" 
d="M-102 1155v57l327 269l328 -269v-57l-328 72z" />
    <glyph glyph-name="tilde" unicode="&#x2dc;" horiz-adv-x="450" 
d="M117 1481q55 0 129 -40t106 -40q80 0 158 74l59 -58q-102 -158 -235 -157q-51 0 -120 40t-116 39q-80 0 -157 -73l-60 53q109 162 236 162z" />
    <glyph glyph-name="uni2000" unicode="&#x2000;" horiz-adv-x="944" 
 />
    <glyph glyph-name="uni2001" unicode="&#x2001;" horiz-adv-x="1890" 
 />
    <glyph glyph-name="uni2002" unicode="&#x2002;" horiz-adv-x="944" 
 />
    <glyph glyph-name="uni2003" unicode="&#x2003;" horiz-adv-x="1890" 
 />
    <glyph glyph-name="uni2004" unicode="&#x2004;" horiz-adv-x="630" 
 />
    <glyph glyph-name="uni2005" unicode="&#x2005;" horiz-adv-x="471" 
 />
    <glyph glyph-name="uni2006" unicode="&#x2006;" horiz-adv-x="315" 
 />
    <glyph glyph-name="uni2007" unicode="&#x2007;" horiz-adv-x="315" 
 />
    <glyph glyph-name="uni2008" unicode="&#x2008;" horiz-adv-x="235" 
 />
    <glyph glyph-name="uni2009" unicode="&#x2009;" horiz-adv-x="378" 
 />
    <glyph glyph-name="uni200A" unicode="&#x200a;" horiz-adv-x="104" 
 />
    <glyph glyph-name="uni2010" unicode="&#x2010;" horiz-adv-x="692" 
d="M121 545v123h450v-123h-450z" />
    <glyph glyph-name="uni2011" unicode="&#x2011;" horiz-adv-x="692" 
d="M121 545v123h450v-123h-450z" />
    <glyph glyph-name="figuredash" unicode="&#x2012;" horiz-adv-x="692" 
d="M121 545v123h450v-123h-450z" />
    <glyph glyph-name="endash" unicode="&#x2013;" horiz-adv-x="1060" 
d="M121 545v123h819v-123h-819z" />
    <glyph glyph-name="emdash" unicode="&#x2014;" horiz-adv-x="2084" 
d="M121 545v123h1843v-123h-1843z" />
    <glyph glyph-name="quoteleft" unicode="&#x2018;" horiz-adv-x="491" 
d="M244 909q-64 -1 -112 47t-48 150t76 216t207 159l24 -66q-70 -29 -118 -82t-48 -114h15q66 0 110 -44t43 -110q0 -66 -43 -111q-42 -45 -106 -45z" />
    <glyph glyph-name="quoteright" unicode="&#x2019;" horiz-adv-x="491" 
d="M111 1325q0 66 43 111q42 45 106 45t112 -48t48 -150q0 -101 -76 -215t-207 -159l-24 66q69 29 117 82t49 114h-15q-66 0 -110 44t-43 110z" />
    <glyph glyph-name="quotesinglbase" unicode="&#x201a;" horiz-adv-x="507" 
d="M98 127q0 66 43 111t107 45q64 -1 112 -49t48 -150t-76 -214q-76 -114 -207 -159l-25 66q70 29 118 82t48 114h-14q-66 0 -110 44t-44 110z" />
    <glyph glyph-name="quotedblleft" unicode="&#x201c;" horiz-adv-x="909" 
d="M244 909q-64 -1 -112 47t-48 150t76 216t207 159l24 -66q-70 -29 -118 -82t-48 -114h15q66 0 110 -44t43 -110q0 -66 -43 -111q-42 -45 -106 -45zM662 909q-64 -1 -112 47t-48 150t76 216t206 159l25 -66q-70 -29 -118 -82t-48 -114h14q66 0 110 -44t44 -110t-43 -111
q-42 -45 -106 -45z" />
    <glyph glyph-name="quotedblright" unicode="&#x201d;" horiz-adv-x="909" 
d="M111 1325q0 66 43 111q42 45 106 45t112 -48t48 -150q0 -101 -76 -215t-207 -159l-24 66q69 29 117 82t49 114h-15q-66 0 -110 44t-43 110zM528 1325q0 66 43 111t107 45t112 -48t48 -150q0 -101 -76 -215t-207 -159l-25 66q70 29 118 82t48 114h-14q-66 0 -110 44
t-44 110z" />
    <glyph glyph-name="quotedblbase" unicode="&#x201e;" horiz-adv-x="925" 
d="M98 127q0 66 43 111t107 45q64 -1 112 -49t48 -150t-76 -214q-76 -114 -207 -159l-25 66q70 29 118 82t48 114h-14q-66 0 -110 44t-44 110zM516 127q0 66 43 111t107 45q64 -1 112 -49t47 -150q1 -102 -75 -214q-76 -114 -207 -159l-25 66q70 29 118 82t48 114h-14
q-66 0 -110 44t-44 110z" />
    <glyph glyph-name="bullet" unicode="&#x2022;" horiz-adv-x="712" 
d="M160 570q0 80 57 138t139 58t140 -57t57 -139q0 -82 -57 -138q-58 -57 -140 -57t-139 57t-57 138z" />
    <glyph glyph-name="ellipsis" unicode="&#x2026;" horiz-adv-x="1488" 
d="M98 127q0 66 44 111t110 45t110 -45t46 -111q0 -66 -46 -110t-110 -44q-66 0 -110 44t-44 110zM590 127q0 66 44 111t110 45t110 -45q45 -45 45 -111t-45 -110t-111 -44q-65 0 -109 44t-44 110zM1081 127q0 66 44 111t110 45t111 -45t45 -111t-45 -110t-111 -44t-110 44
t-44 110z" />
    <glyph glyph-name="uni202F" unicode="&#x202f;" horiz-adv-x="378" 
 />
    <glyph glyph-name="guilsinglleft" unicode="&#x2039;" horiz-adv-x="688" 
d="M66 498l440 424h51l-141 -424l141 -426h-51z" />
    <glyph glyph-name="guilsinglright" unicode="&#x203a;" horiz-adv-x="686" 
d="M129 72l141 424l-141 426h51l441 -426l-441 -424h-51z" />
    <glyph glyph-name="uni205F" unicode="&#x205f;" horiz-adv-x="471" 
 />
    <glyph glyph-name="Euro" unicode="&#x20ac;" horiz-adv-x="1548" 
d="M76 582v135h84v8q0 78 10 137h-94v135h127q72 217 249 351t420 133q111 1 244 -13t168 -14h113v-586h-84l-66 152q-70 158 -173 241t-229 83t-221 -90q-95 -89 -130 -257h405v-135h-420v-22q0 -57 10 -123h349v-135h-308q62 -135 178 -211t273 -76q256 0 416 182l78 -28
q-64 -158 -205 -305q-76 -79 -186 -127t-232 -44q-276 0 -458 170q-181 170 -224 439h-94z" />
    <glyph glyph-name="trademark" unicode="&#x2122;" horiz-adv-x="2433" 
d="M1898 1227h-4l-270 -639l-283 639h-2l2 -414l97 -184h-334l113 143v528l-72 154h414l149 -385h4l148 385h469l-113 -154v-528l113 -143h-517l86 184v414zM713 1343v-571l194 -143h-641l191 143v571h-80l-225 -327v457l153 -19h561l156 19v-457l-225 327h-84z" />
    <glyph glyph-name="uniE000" unicode="&#xe000;" horiz-adv-x="1003" 
d="M0 0v1004h1004v-1004h-1004z" />
    <glyph glyph-name="uniFB01" unicode="&#xfb01;" horiz-adv-x="1390" 
d="M53 1004h113v12q0 231 110 348q111 117 275 117t223 -88v-138h-268v-251h731v-861l131 -143h-606l137 143v719h-391v-719l164 -143h-625l123 143v738l-117 34v89zM883 1297q0 77 53 130t131 53t130 -52q52 -54 52 -131t-52 -130t-130 -53t-131 53t-53 130z" />
    <glyph glyph-name="uniFB02" unicode="&#xfb02;" horiz-adv-x="1394" 
d="M53 1004h113v12q0 227 138 346t336 119t294 -86l303 80v-1332l131 -143h-606l137 143v1112h-393v-251h207v-142h-205v-719l164 -143h-625l123 143v738l-117 34v89z" />
    <glyph glyph-name="uniFB03" unicode="&#xfb03;" horiz-adv-x="2117" 
d="M53 1004h113v12q0 231 110 348q111 117 275 117q199 0 264 -129v-97h-309v-251h387v12q0 231 111 348q110 117 274 117t223 -88v-138h-268v-251h731v-861l131 -143h-606l137 143v717l-2 2h-389v-719l164 -143h-625l123 143v719h-389v-719l164 -143h-625l123 143v738
l-117 34v89zM1610 1297q0 77 53 130t131 53t130 -52q52 -54 52 -131t-52 -130t-130 -53t-131 53t-53 130z" />
    <glyph glyph-name="uniFB04" unicode="&#xfb04;" horiz-adv-x="2121" 
d="M53 1004h113v12q0 231 110 348q111 117 275 117q199 0 264 -129v-97h-309v-251h387v12q0 227 138 346t336 119t294 -86l303 80v-1332l131 -143h-606l137 143v1112h-393v-251h207v-142h-205v-719l164 -143h-625l123 143v719h-389v-719l164 -143h-625l123 143v738l-117 34
v89z" />
  </font>
</defs>
</svg>
