<?xml version="1.0" encoding="UTF-8" standalone="no"?>
<svg width="1173px" height="1172px" viewBox="0 0 1173 1172" version="1.1" xmlns="http://www.w3.org/2000/svg" xmlns:xlink="http://www.w3.org/1999/xlink">
    <!-- Generator: Sketch 40.1 (33804) - http://www.bohemiancoding.com/sketch -->
    <title>kreis links</title>
    <desc>Created with Sketch.</desc>
    <defs></defs>
    <g id="mobility-hacks-website" stroke="none" stroke-width="1" fill="none" fill-rule="evenodd">
        <g id="Artboard" transform="translate(-417.000000, -440.000000)" stroke="#3500FF" stroke-width="2">
            <g id="koordinatensystem" transform="translate(418.000000, 439.000000)">
                <g id="kreis-links" transform="translate(0.000000, 1.930000)">
                    <path d="M699.2245,585.0361 C699.2245,647.8881 648.2735,698.8391 585.4215,698.8391 C522.5705,698.8391 471.6185,647.8881 471.6185,585.0361 C471.6185,522.1841 522.5705,471.2331 585.4215,471.2331 C648.2735,471.2331 699.2245,522.1841 699.2245,585.0361 L699.2245,585.0361 Z" id="Stroke-66" stroke-dasharray="1,2"></path>
                    <path d="M760.6599,585.0361 C760.6599,681.8171 682.2029,760.2741 585.4219,760.2741 C488.6399,760.2741 410.1829,681.8171 410.1829,585.0361 C410.1829,488.2551 488.6399,409.7981 585.4219,409.7981 C682.2029,409.7981 760.6599,488.2551 760.6599,585.0361 L760.6599,585.0361 Z" id="Stroke-68" stroke-dasharray="1,2"></path>
                    <path d="M826.4109,585.0361 C826.4109,718.1311 718.5159,826.0251 585.4219,826.0251 C452.3269,826.0251 344.4319,718.1311 344.4319,585.0361 C344.4319,451.9411 452.3269,344.0471 585.4219,344.0471 C718.5159,344.0471 826.4109,451.9411 826.4109,585.0361 L826.4109,585.0361 Z" id="Stroke-70" stroke-dasharray="1,2"></path>
                    <path d="M886.4316,585.0361 C886.4316,751.2791 751.6646,886.0461 585.4216,886.0461 C419.1786,886.0461 284.4116,751.2791 284.4116,585.0361 C284.4116,418.7931 419.1786,284.0261 585.4216,284.0261 C751.6646,284.0261 886.4316,418.7931 886.4316,585.0361 L886.4316,585.0361 Z" id="Stroke-72" stroke-dasharray="1,2"></path>
                    <path d="M953.0555,585.0361 C953.0555,788.0751 788.4605,952.6701 585.4215,952.6701 C382.3825,952.6701 217.7875,788.0751 217.7875,585.0361 C217.7875,381.9971 382.3825,217.4021 585.4215,217.4021 C788.4605,217.4021 953.0555,381.9971 953.0555,585.0361 L953.0555,585.0361 Z" id="Stroke-74" stroke-dasharray="1,2"></path>
                    <path d="M1012.2418,585.0361 C1012.2418,820.7621 821.1478,1011.8561 585.4218,1011.8561 C349.6948,1011.8561 158.6018,820.7621 158.6018,585.0361 C158.6018,349.3101 349.6948,158.2161 585.4218,158.2161 C821.1478,158.2161 1012.2418,349.3101 1012.2418,585.0361 L1012.2418,585.0361 Z" id="Stroke-76" stroke-dasharray="1,2"></path>
                    <path d="M1075.6213,585.0361 C1075.6213,855.7661 856.1513,1075.2361 585.4213,1075.2361 C314.6913,1075.2361 95.2213,855.7661 95.2213,585.0361 C95.2213,314.3061 314.6913,94.8361 585.4213,94.8361 C856.1513,94.8361 1075.6213,314.3061 1075.6213,585.0361 L1075.6213,585.0361 Z" id="Stroke-78" stroke-dasharray="1,2"></path>
                    <path d="M1135.0835,585.0361 C1135.0835,888.6061 888.9915,1134.6981 585.4215,1134.6981 C281.8515,1134.6981 35.7595,888.6061 35.7595,585.0361 C35.7595,281.4661 281.8515,35.3741 585.4215,35.3741 C888.9915,35.3741 1135.0835,281.4661 1135.0835,585.0361 L1135.0835,585.0361 Z" id="Stroke-80" stroke-dasharray="1,2"></path>
                    <path d="M1170.3855,585.0361 C1170.3855,908.1031 908.4885,1170.0001 585.4215,1170.0001 C262.3545,1170.0001 0.4575,908.1031 0.4575,585.0361 C0.4575,261.9691 262.3545,0.0721 585.4215,0.0721 C908.4885,0.0721 1170.3855,261.9691 1170.3855,585.0361 L1170.3855,585.0361 Z" id="Stroke-82"></path>
                    <path d="M585,585.442 L585,35.442" id="Stroke-84" stroke-dasharray="1,2"></path>
                    <path d="M585.5,585.442 L443.15,54.183" id="Stroke-86" stroke-dasharray="1,2"></path>
                    <path d="M585.5,585.442 L310.5,109.128" id="Stroke-88" stroke-dasharray="1,2"></path>
                    <path d="M585.5,585.442 L196.591,196.533" id="Stroke-90" stroke-dasharray="1,2"></path>
                    <path d="M585.5,585.442 L109.186,310.442" id="Stroke-92" stroke-dasharray="1,2"></path>
                    <path d="M585.5,585.442 L54.241,443.092" id="Stroke-94" stroke-dasharray="1,2"></path>
                    <path d="M310,310.942 L310,859.942" id="Stroke-106" stroke-dasharray="1,2" transform="translate(311.000000, 585.442000) rotate(-270.000000) translate(-311.000000, -585.442000) "></path>
                    <path d="M585.1464,586.0543 L54.8534,728.1463" id="Stroke-96" stroke-dasharray="1,2"></path>
                    <path d="M585.317,586.125 L109.869,860.625" id="Stroke-98" stroke-dasharray="1,2"></path>
                    <path d="M585.5,586.149 L197.298,974.351" id="Stroke-100" stroke-dasharray="1,2"></path>
                    <path d="M585.683,586.125 L311.183,1061.573" id="Stroke-102" stroke-dasharray="1,2"></path>
                    <path d="M585.8536,586.0543 L443.7616,1116.3473" id="Stroke-104" stroke-dasharray="1,2"></path>
                    <path d="M585,586.442 L585,1135.442" id="Stroke-106" stroke-dasharray="1,2"></path>
                    <path d="M585.7588,586.4079 L727.8508,1116.7009" id="Stroke-108" stroke-dasharray="1,2"></path>
                    <path d="M586,586.308 L860.5,1061.756" id="Stroke-110" stroke-dasharray="1,2"></path>
                    <path d="M586.2071,586.149 L974.4091,974.351" id="Stroke-112" stroke-dasharray="1,2"></path>
                    <path d="M586.366,585.942 L1061.814,860.442" id="Stroke-114" stroke-dasharray="1,2"></path>
                    <path d="M586.4659,585.7008 L1116.7589,727.7928" id="Stroke-116" stroke-dasharray="1,2"></path>
                    <path d="M859,309.942 L859,858.942" id="Stroke-106" stroke-dasharray="1,2" transform="translate(860.000000, 584.442000) rotate(-90.000000) translate(-860.000000, -584.442000) "></path>
                    <path d="M586.1124,585.7955 L1117.3714,443.4455" id="Stroke-118" stroke-dasharray="1,2"></path>
                    <path d="M586.183,585.625 L1062.497,310.625" id="Stroke-120" stroke-dasharray="1,2"></path>
                    <path d="M586.2071,585.442 L975.1161,196.533" id="Stroke-122" stroke-dasharray="1,2"></path>
                    <path d="M586.183,585.259 L861.183,108.945" id="Stroke-124" stroke-dasharray="1,2"></path>
                    <path d="M586.1124,585.0884 L728.4624,53.8294" id="Stroke-126" stroke-dasharray="1,2"></path>
                </g>
            </g>
        </g>
    </g>
</svg>