<?xml version="1.0" encoding="UTF-8"?>
<svg width="251px" height="251px" viewBox="0 0 251 251" version="1.1" xmlns="http://www.w3.org/2000/svg" xmlns:xlink="http://www.w3.org/1999/xlink">
    <!-- Generator: Sketch 41 (35326) - http://www.bohemiancoding.com/sketch -->
    <title>IBM</title>
    <desc>Created with Sketch.</desc>
    <defs></defs>
    <g id="Page-1" stroke="none" stroke-width="1" fill="none" fill-rule="evenodd">
        <g id="IBM">
            <g id="Group" transform="translate(17.000000, 0.000000)">
                <g transform="translate(87.000000, 2.000000)" id="Shape">
                    <polyline fill="#00A18A" points="28.526 0.882 56.342 49.06 84.158 0.882"></polyline>
                    <polyline fill="#00A68F" points="84.158 0.882 56.342 49.06 111.973 49.06"></polyline>
                    <polyline fill="#00AD95" points="56.342 49.06 84.158 97.237 111.973 49.06"></polyline>
                    <polyline fill="#00B299" points="56.342 49.06 28.526 97.237 84.158 97.237"></polyline>
                    <polyline fill="#07B89E" points="0.711 49.06 28.526 97.237 56.342 49.06"></polyline>
                    <polyline fill="#2ABAA3" points="28.526 0.882 0.711 49.06 56.342 49.06"></polyline>
                </g>
                <g transform="translate(87.000000, 101.000000)" id="Shape">
                    <polyline fill="#038CA8" points="28.515 0.143 56.327 48.319 84.145 0.143"></polyline>
                    <polyline fill="#0095B3" points="84.145 0.143 56.327 48.319 111.958 48.319"></polyline>
                    <polyline fill="#019CBC" points="56.327 48.319 84.145 96.497 111.958 48.319"></polyline>
                    <polyline fill="#00A5C6" points="56.327 48.319 28.515 96.497 84.145 96.497"></polyline>
                    <polyline fill="#00AED1" points="0.699 48.319 28.515 96.497 56.327 48.319"></polyline>
                    <polyline fill="#00B1D4" points="28.515 0.143 0.699 48.319 56.327 48.319"></polyline>
                </g>
                <g transform="translate(2.000000, 51.000000)" id="Shape">
                    <polyline fill="#232D32" points="28.356 0.377 56.173 48.555 83.985 0.377"></polyline>
                    <polyline fill="#283339" points="83.985 0.377 56.173 48.555 111.801 48.555"></polyline>
                    <polyline fill="#2D3A41" points="56.173 48.555 83.985 96.732 111.801 48.555"></polyline>
                    <polyline fill="#303E45" points="56.173 48.555 28.356 96.732 83.985 96.732"></polyline>
                    <polyline fill="#3B4B54" points="0.542 48.555 28.356 96.732 56.173 48.555"></polyline>
                    <polyline fill="#3F505A" points="28.356 0.377 0.542 48.555 56.173 48.555"></polyline>
                </g>
                <g id="Shape">
                    <g transform="translate(85.000000, 0.000000)">
                        <polygon points="29.962 100.189 1.597 51.06 29.962 1.93 86.693 1.93 115.057 51.06 86.693 100.189"></polygon>
                        <path d="M87.246,101.144 L29.412,101.144 L29.138,100.666 L0.496,51.06 L29.412,0.977 L87.245,0.977 L116.16,51.06 L115.885,51.536 L87.246,101.144 Z M30.515,99.237 L86.144,99.237 L113.958,51.06 L86.144,2.882 L30.515,2.882 L2.7,51.06 L30.515,99.237 Z" fill="#FFFFFF"></path>
                    </g>
                    <g transform="translate(85.000000, 99.000000)">
                        <polygon points="29.962 99.452 1.597 50.319 29.962 1.189 86.693 1.189 115.057 50.319 86.693 99.452"></polygon>
                        <path d="M87.246,100.405 L29.412,100.405 L0.498,50.319 L29.412,0.237 L87.246,0.237 L116.16,50.319 L115.885,50.797 L87.246,100.405 Z M30.515,98.497 L86.144,98.497 L113.958,50.319 L86.144,2.143 L30.515,2.143 L2.7,50.319 L30.515,98.497 Z" fill="#FFFFFF"></path>
                    </g>
                    <g transform="translate(0.000000, 49.000000)">
                        <polygon points="29.807 99.685 1.441 50.554 29.807 1.425 86.539 1.425 114.903 50.554 86.539 99.685 29.807 99.685"></polygon>
                        <path d="M87.088,100.64 L29.255,100.64 L0.34,50.555 L29.255,0.472 L87.088,0.472 L116.002,50.555 L115.728,51.032 L87.088,100.64 Z M30.356,98.732 L85.985,98.732 L113.8,50.553 L85.985,2.377 L30.356,2.377 L2.542,50.553 L30.356,98.732 Z" fill="#FFFFFF"></path>
                    </g>
                    <path d="M114.928,157.512 C83.065,157.512 57.143,131.589 57.143,99.726 C57.143,67.862 83.065,41.942 114.928,41.942 C146.791,41.942 172.715,67.863 172.715,99.726 C172.715,131.589 146.791,157.512 114.928,157.512 Z M114.928,43.904 C84.147,43.904 59.107,68.946 59.107,99.725 C59.107,130.506 84.147,155.549 114.928,155.549 C145.709,155.549 170.749,130.504 170.749,99.725 C170.749,68.946 145.709,43.904 114.928,43.904 Z" fill="#FFFFFF" opacity="0.5"></path>
                    <path d="M86.219,149.565 L86.244,50.058 L172.971,100.125 L86.219,149.565 Z M88.169,53.38 L88.182,146.18 L169.136,100.148 L88.169,53.38 Z" fill="#FFFFFF" opacity="0.5"></path>
                </g>
            </g>
            <g id="Group" transform="translate(0.000000, 215.000000)" fill="#787777">
                <polygon id="Shape" points="0.085 34.366 0.085 3.763 3.264 3.763 3.264 34.366"></polygon>
                <path d="M22.195,34.366 L8.453,34.366 L8.453,3.763 L20.606,3.763 C28.505,3.763 31.637,6.867 31.637,11.456 C31.637,15.707 28.973,17.618 26.262,18.042 L26.262,18.128 C30.89,18.768 33.181,21.698 33.181,25.736 C33.181,32.113 28.6,34.366 22.195,34.366 Z M18.971,6.229 L11.632,6.229 L11.632,17.28 L19.672,17.28 C26.309,17.28 28.46,15.157 28.46,11.458 C28.459,7.632 25.935,6.229 18.971,6.229 Z M20.092,19.744 L11.631,19.744 L11.631,31.9 L19.718,31.9 C26.729,31.9 30,31.048 30,25.737 C30.001,20.68 26.076,19.744 20.092,19.744 Z" id="Shape"></path>
                <polygon id="Shape" points="64.457 34.366 64.457 7.079 64.364 7.079 53.331 34.366 50.34 34.366 39.262 7.079 39.168 7.079 39.168 34.366 35.99 34.366 35.99 3.763 40.851 3.763 51.884 30.751 51.976 30.751 62.821 3.763 67.635 3.763 67.635 34.366"></polygon>
                <path d="M96.755,34.366 L82.612,34.366 L82.612,1.502 L97.074,1.502 C103.208,1.502 106.366,5.3 106.366,9.786 C106.366,11.937 105.588,14.958 101.973,16.652 C104.122,17.522 107.922,19.032 107.922,24.663 C107.922,29.926 104.032,34.366 96.755,34.366 Z M95.106,5.3 L87.05,5.3 L87.05,15.417 L95.059,15.417 C99.317,15.417 101.924,14.136 101.924,10.107 C101.925,7.04 100.051,5.3 95.106,5.3 Z M95.793,19.032 L87.05,19.032 L87.05,30.566 L96.525,30.566 C101.149,30.566 103.483,28.233 103.483,24.57 C103.483,19.946 99.408,19.032 95.793,19.032 Z" id="Shape"></path>
                <polygon id="Shape" points="111.585 34.366 111.585 1.502 115.611 1.502 115.611 34.366"></polygon>
                <path d="M136.025,34.366 L136.025,30.887 L135.934,30.796 C134.243,33.589 132.18,35.052 128.336,35.052 C124.812,35.052 120.556,33.359 120.556,27.637 L120.556,10.427 L124.582,10.427 L124.582,26.312 C124.582,30.248 126.595,31.575 129.206,31.575 C134.286,31.575 135.796,27.088 135.796,23.61 L135.796,10.427 L139.824,10.427 L139.824,34.366 L136.025,34.366 L136.025,34.366 Z" id="Shape"></path>
                <path d="M147.789,23.7 C147.789,28.691 150.123,31.574 154.746,31.574 C158.545,31.574 160.788,28.644 160.926,26.859 L164.953,26.859 C164.816,28.004 163.719,31.389 160.695,33.405 C159.597,34.136 158.043,35.051 154.196,35.051 C147.467,35.051 143.486,29.971 143.486,23.059 C143.486,15.644 147.055,9.742 154.974,9.742 C161.886,9.742 165.274,15.233 165.274,23.7 L147.789,23.7 L147.789,23.7 Z M154.426,13.356 C150.719,13.356 147.789,16.79 147.789,20.496 L161.109,20.496 C160.879,16.79 159.323,13.356 154.426,13.356 Z" id="Shape"></path>
                <path d="M197.04,34.366 L197.04,18.894 C197.04,15.599 196.033,13.356 192.599,13.356 C189.213,13.356 186.971,16.561 186.971,19.765 L186.971,34.366 L182.943,34.366 L182.943,17.797 C182.943,15.781 182.164,13.357 179.19,13.357 C176.9,13.357 172.874,14.821 172.874,21.322 L172.874,34.367 L168.846,34.367 L168.846,10.428 L172.643,10.428 L172.643,13.815 L172.737,13.815 C173.608,12.535 175.667,9.744 179.968,9.744 C184.271,9.744 185.644,12.352 186.329,13.634 C188.344,11.391 189.946,9.744 193.654,9.744 C196.216,9.744 201.068,11.07 201.068,17.799 L201.068,34.368 L197.04,34.368 L197.04,34.366 Z" id="Shape"></path>
                <path d="M205.827,6.079 L205.827,1.502 L209.855,1.502 L209.855,6.079 L205.827,6.079 Z M205.827,34.366 L205.827,10.427 L209.855,10.427 L209.855,34.366 L205.827,34.366 Z" id="Shape"></path>
                <polygon id="Shape" points="228.987 34.366 223.037 25.349 217.269 34.366 212.187 34.366 220.611 22.054 212.6 10.427 217.772 10.427 223.312 18.849 228.85 10.427 233.793 10.427 225.691 22.054 234.112 34.366"></polygon>
                <polygon id="Shape" points="237.962 1.585 237.962 9.845 236.694 9.845 236.694 1.585 233.519 1.585 233.519 0.46 241.138 0.46 241.138 1.585"></polygon>
                <path d="M249.69,9.845 L249.69,4.303 C249.69,4.031 249.715,2.84 249.715,1.964 L249.69,1.964 L247.05,9.845 L245.794,9.845 L243.154,1.976 L243.13,1.976 C243.13,2.84 243.154,4.031 243.154,4.303 L243.154,9.845 L241.926,9.845 L241.926,0.46 L243.742,0.46 L246.421,8.394 L246.447,8.394 L249.114,0.46 L250.918,0.46 L250.918,9.845 L249.69,9.845 L249.69,9.845 Z" id="Shape"></path>
            </g>
        </g>
    </g>
</svg>