<?xml version="1.0" encoding="utf-8"?>
<!-- Generator: Adobe Illustrator 16.0.4, SVG Export Plug-In . SVG Version: 6.00 Build 0)  -->
<!DOCTYPE svg PUBLIC "-//W3C//DTD SVG 1.1//EN" "http://www.w3.org/Graphics/SVG/1.1/DTD/svg11.dtd">
<svg version="1.1" id="Layer_1" xmlns="http://www.w3.org/2000/svg" xmlns:xlink="http://www.w3.org/1999/xlink" x="0px" y="0px"
	 width="332px" height="324px" viewBox="228.5 160.5 332 324" enable-background="new 228.5 160.5 332 324" xml:space="preserve">
<g>
	<g>
		<polyline fill="#00A18A" points="419.526,206.882 447.342,255.06 475.158,206.882 		"/>
		<polyline fill="#00A68F" points="475.158,206.882 447.342,255.06 502.973,255.06 		"/>
		<polyline fill="#00AD95" points="447.342,255.06 475.158,303.237 502.973,255.06 		"/>
		<polyline fill="#00B299" points="447.342,255.06 419.526,303.237 475.158,303.237 		"/>
		<polyline fill="#07B89E" points="391.711,255.06 419.526,303.237 447.342,255.06 		"/>
		<polyline fill="#2ABAA3" points="419.526,206.882 391.711,255.06 447.342,255.06 		"/>
	</g>
	<g>
		<polyline fill="#038CA8" points="419.515,305.143 447.327,353.319 475.145,305.143 		"/>
		<polyline fill="#0095B3" points="475.145,305.143 447.327,353.319 502.958,353.319 		"/>
		<polyline fill="#019CBC" points="447.327,353.319 475.145,401.497 502.958,353.319 		"/>
		<polyline fill="#00A5C6" points="447.327,353.319 419.515,401.497 475.145,401.497 		"/>
		<polyline fill="#00AED1" points="391.699,353.319 419.515,401.497 447.327,353.319 		"/>
		<polyline fill="#00B1D4" points="419.515,305.143 391.699,353.319 447.327,353.319 		"/>
	</g>
	<g>
		<polyline fill="#232D32" points="334.356,255.377 362.173,303.555 389.985,255.377 		"/>
		<polyline fill="#283339" points="389.985,255.377 362.173,303.555 417.801,303.555 		"/>
		<polyline fill="#2D3A41" points="362.173,303.555 389.985,351.732 417.801,303.555 		"/>
		<polyline fill="#303E45" points="362.173,303.555 334.356,351.732 389.985,351.732 		"/>
		<polyline fill="#3B4B54" points="306.542,303.555 334.356,351.732 362.173,303.555 		"/>
		<polyline fill="#3F505A" points="334.356,255.377 306.542,303.555 362.173,303.555 		"/>
	</g>
	<g>
		<g>
			<path fill="none" d="M418.962,304.189l-28.365-49.129l28.365-49.13h56.731l28.364,49.13l-28.364,49.129H418.962z"/>
			<path fill="#FFFFFF" d="M476.246,305.144h-57.834l-0.274-0.478l-28.642-49.606l28.916-50.083h57.833l28.915,50.083l-0.275,0.476
				L476.246,305.144z M419.515,303.237h55.629l27.814-48.177l-27.814-48.178h-55.629l-27.815,48.178L419.515,303.237z"/>
		</g>
		<g>
			<path fill="none" d="M418.962,402.452l-28.365-49.133l28.365-49.13h56.731l28.364,49.13l-28.364,49.133H418.962z"/>
			<path fill="#FFFFFF" d="M476.246,403.405h-57.834l-28.914-50.086l28.914-50.082h57.834l28.914,50.082l-0.275,0.478
				L476.246,403.405z M419.515,401.497h55.629l27.814-48.178l-27.814-48.176h-55.629l-27.815,48.176L419.515,401.497z"/>
		</g>
		<g>
			<path fill="none" d="M333.807,352.685l-28.366-49.131l28.366-49.129h56.732l28.364,49.129l-28.364,49.131H333.807z"/>
			<path fill="#FFFFFF" d="M391.088,353.64h-57.833l-28.915-50.085l28.915-50.083h57.833l28.914,50.083l-0.274,0.477L391.088,353.64
				z M334.356,351.732h55.629l27.815-48.179l-27.815-48.176h-55.629l-27.814,48.176L334.356,351.732z"/>
		</g>
		<g>
			<path opacity="0.5" fill="#FFFFFF" d="M418.928,361.512c-31.863,0-57.785-25.923-57.785-57.786
				c0-31.864,25.922-57.784,57.785-57.784s57.787,25.921,57.787,57.784C476.715,335.589,450.791,361.512,418.928,361.512z
				 M418.928,247.904c-30.781,0-55.821,25.042-55.821,55.821c0,30.781,25.04,55.824,55.821,55.824s55.821-25.045,55.821-55.824
				C474.749,272.946,449.709,247.904,418.928,247.904z"/>
		</g>
		<g>
			<path opacity="0.5" fill="#FFFFFF" d="M390.219,353.565l0.025-99.507l86.727,50.067L390.219,353.565z M392.169,257.38l0.013,92.8
				l80.954-46.032L392.169,257.38z"/>
		</g>
	</g>
</g>
<g>
	<path fill="#787777" d="M287.085,453.366v-30.603h3.179v30.603H287.085z"/>
	<path fill="#787777" d="M309.195,453.366h-13.742v-30.603h12.153c7.899,0,11.031,3.104,11.031,7.693
		c0,4.251-2.664,6.162-5.375,6.586v0.086c4.628,0.64,6.919,3.57,6.919,7.608C320.181,451.113,315.6,453.366,309.195,453.366z
		 M305.971,425.229h-7.339v11.051h8.04c6.637,0,8.788-2.123,8.788-5.822C315.459,426.632,312.935,425.229,305.971,425.229z
		 M307.092,438.744h-8.461V450.9h8.087c7.011,0,10.282-0.852,10.282-6.163C317.001,439.68,313.076,438.744,307.092,438.744z"/>
	<path fill="#787777" d="M351.457,453.366v-27.287h-0.093l-11.033,27.287h-2.991l-11.078-27.287h-0.094v27.287h-3.178v-30.603h4.861
		l11.033,26.988h0.092l10.845-26.988h4.814v30.603H351.457z"/>
	<path fill="#787777" d="M383.755,453.366h-14.143v-32.864h14.462c6.134,0,9.292,3.798,9.292,8.284c0,2.151-0.778,5.172-4.393,6.866
		c2.149,0.87,5.949,2.38,5.949,8.011C394.922,448.926,391.032,453.366,383.755,453.366z M382.106,424.3h-8.056v10.117h8.009
		c4.258,0,6.865-1.281,6.865-5.31C388.925,426.04,387.051,424.3,382.106,424.3z M382.793,438.032h-8.743v11.534h9.475
		c4.624,0,6.958-2.333,6.958-5.996C390.483,438.946,386.408,438.032,382.793,438.032z"/>
	<path fill="#787777" d="M398.585,453.366v-32.864h4.026v32.864H398.585z"/>
	<path fill="#787777" d="M423.025,453.366v-3.479l-0.091-0.091c-1.691,2.793-3.754,4.256-7.598,4.256
		c-3.524,0-7.78-1.693-7.78-7.415v-17.21h4.026v15.885c0,3.936,2.013,5.263,4.624,5.263c5.08,0,6.59-4.487,6.59-7.965v-13.183h4.028
		v23.939H423.025z"/>
	<path fill="#787777" d="M434.789,442.7c0,4.991,2.334,7.874,6.957,7.874c3.799,0,6.042-2.93,6.18-4.715h4.027
		c-0.137,1.145-1.234,4.53-4.258,6.546c-1.098,0.731-2.652,1.646-6.499,1.646c-6.729,0-10.71-5.08-10.71-11.992
		c0-7.415,3.569-13.317,11.488-13.317c6.912,0,10.3,5.491,10.3,13.958H434.789z M441.426,432.356c-3.707,0-6.637,3.434-6.637,7.14
		h13.32C447.879,435.79,446.323,432.356,441.426,432.356z"/>
	<path fill="#787777" d="M484.04,453.366v-15.472c0-3.295-1.007-5.538-4.441-5.538c-3.386,0-5.628,3.205-5.628,6.409v14.601h-4.028
		v-16.569c0-2.016-0.779-4.44-3.753-4.44c-2.29,0-6.316,1.464-6.316,7.965v13.045h-4.028v-23.939h3.797v3.387h0.094
		c0.871-1.28,2.93-4.071,7.231-4.071c4.303,0,5.676,2.608,6.361,3.89c2.015-2.243,3.617-3.89,7.325-3.89
		c2.562,0,7.414,1.326,7.414,8.055v16.569H484.04z"/>
	<path fill="#787777" d="M492.827,425.079v-4.577h4.028v4.577H492.827z M492.827,453.366v-23.939h4.028v23.939H492.827z"/>
	<path fill="#787777" d="M515.987,453.366l-5.95-9.017l-5.768,9.017h-5.082l8.424-12.312l-8.011-11.627h5.172l5.54,8.422
		l5.538-8.422h4.943l-8.102,11.627l8.421,12.312H515.987z"/>
	<path fill="#787777" d="M524.962,420.585v8.26h-1.268v-8.26h-3.175v-1.125h7.619v1.125H524.962z"/>
	<path fill="#787777" d="M536.69,428.845v-5.542c0-0.272,0.025-1.463,0.025-2.339h-0.025l-2.64,7.881h-1.256l-2.64-7.869h-0.024
		c0,0.864,0.024,2.055,0.024,2.327v5.542h-1.228v-9.385h1.816l2.679,7.934h0.026l2.667-7.934h1.804v9.385H536.69z"/>
</g>
</svg>
