<?xml version="1.0" encoding="UTF-8"?>
<svg width="120px" height="120px" viewBox="0 0 120 120" version="1.1" xmlns="http://www.w3.org/2000/svg" xmlns:xlink="http://www.w3.org/1999/xlink">
    <!-- Generator: Sketch 40.3 (33839) - http://www.bohemiancoding.com/sketch -->
    <title>Page 1 Copy 3</title>
    <desc>Created with Sketch.</desc>
    <defs></defs>
    <g id="Page-1" stroke="none" stroke-width="1" fill="none" fill-rule="evenodd">
        <g id="Page-1-Copy-3">
            <path d="M120,60 C120,93.15 93.15,120 60,120 C26.85,120 0,93.15 0,60 C0,26.85 26.85,0 60,0 C93.15,0 120,26.85 120,60 Z" id="Fill-1" fill="#000000"></path>
            <polygon id="Fill-3" fill="#838282" points="59.8528125 72.4363125 45.4078125 102.938813 40.1446875 92.1481875 28.4615625 94.9119375 42.9065625 64.4113125"></polygon>
            <polygon id="Fill-5" fill="#2D2C2C" points="62.2605 67.352625 50.223 92.772 44.959875 81.9795 33.27675 84.745125 45.31425 59.327625"></polygon>
            <polygon id="Fill-7" fill="#838282" points="58.993875 72.4363125 73.44075 102.938813 78.702 92.1481875 90.385125 94.9119375 75.940125 64.4113125"></polygon>
            <polygon id="Fill-9" fill="#2D2C2C" points="56.5861875 67.352625 68.6236875 92.772 73.8868125 81.9795 85.5699375 84.745125 73.5324375 59.327625"></polygon>
            <path d="M86.7,35.7376875 C81.8625,25.6876875 71.56875,18.7501875 59.6625,18.7501875 C43.0875,18.7501875 29.6625,32.1751875 29.6625,48.7501875 C29.6625,57.9939375 33.84375,66.2814375 40.425,71.7751875 C45.6375,76.1251875 52.33125,78.7501875 59.6625,78.7501875 L60,78.7501875 C60.6375,78.7501875 61.275,78.7126875 61.9125,78.6564375 C69.4125,78.1126875 76.125,74.8126875 81.075,69.7689375 C86.38125,64.3501875 89.6625,56.9439375 89.6625,48.7501875 C89.6625,44.0814375 88.59375,39.6751875 86.7,35.7376875" id="Fill-11" fill="#9B9B9B"></path>
            <path d="M81.975,45.8439375 C81.61875,42.9939375 80.7,40.3126875 79.36875,37.8939375 C79.18125,37.5376875 78.975,37.1814375 78.75,36.8439375 C77.55,34.9126875 76.06875,33.1876875 74.34375,31.7251875 C74.1375,31.5376875 73.9125,31.3501875 73.6875,31.1626875 C69.84375,28.0876875 64.96875,26.2501875 59.6625,26.2501875 C47.25,26.2501875 37.1625,36.3376875 37.1625,48.7501875 C37.1625,54.9564375 39.675,60.5814375 43.7625,64.6501875 C47.79375,68.7001875 53.34375,71.1939375 59.475,71.2501875 L59.6625,71.2501875 C66.2625,71.2501875 72.1875,68.4001875 76.3125,63.8626875 C79.95,59.8689375 82.1625,54.5626875 82.1625,48.7501875 C82.1625,47.8501875 82.10625,46.9501875 81.99375,46.0689375 C81.99375,45.9939375 81.99375,45.9189375 81.975,45.8439375 Z" id="Fill-13" fill="#59585A"></path>
            <path d="M76.3125,45.99375 C76.06875,44.475 75.6,43.0125 74.9625,41.64375 C73.95,39.46875 72.46875,37.5375 70.66875,35.98125 C67.70625,33.4125 63.8625,31.875 59.6625,31.875 C50.3625,31.875 42.7875,39.45 42.7875,48.75 C42.7875,58.05 50.3625,65.625 59.6625,65.625 C68.9625,65.625 76.5375,58.05 76.5375,48.75 C76.5375,47.8125 76.4625,46.89375 76.3125,45.99375" id="Fill-15" fill="#C0C0C3"></path>
            <path d="M81.975,45.84375 C80.64375,45.50625 79.65,44.30625 79.65,42.84375 L79.51875,42.84375 C79.51875,44.56875 78.13125,45.95625 76.40625,45.95625 L76.40625,45.975 C78.13125,45.975 79.51875,47.3625 79.51875,49.0875 L79.65,49.0875 C79.65,47.625 80.64375,46.40625 81.99375,46.06875 C82.2375,46.0125 82.5,45.975 82.7625,45.975 L82.7625,45.95625 C82.5,45.95625 82.2375,45.91875 81.975,45.84375" id="Fill-17" fill="#FFFFFF"></path>
            <path d="M81.825,37.48125 C80.7375,37.48125 79.6875,37.25625 78.75,36.84375 C76.59375,35.90625 74.94375,34.03125 74.34375,31.725 C74.175,31.0875 74.08125,30.43125 74.08125,29.7375 L73.81875,29.7375 C73.81875,30.225 73.78125,30.7125 73.6875,31.1625 C73.3875,32.7375 72.6375,34.125 71.55,35.2125 C71.26875,35.49375 70.9875,35.7375 70.66875,35.98125 C69.375,36.91875 67.8,37.48125 66.075,37.48125 C70.35,37.48125 73.81875,40.95 73.81875,45.225 L74.08125,45.225 C74.08125,43.93125 74.4,42.7125 74.9625,41.64375 C75.31875,40.95 75.7875,40.3125 76.35,39.75 C77.19375,38.90625 78.225,38.26875 79.36875,37.89375 C80.1375,37.6125 80.9625,37.48125 81.825,37.48125" id="Fill-19" fill="#FFFFFF"></path>
            <path d="M57.6090716,46.0609764 C57.6090716,46.2883259 57.4224205,46.4763804 57.195071,46.4763804 L55.2275158,46.4763804 C54.9987629,46.4763804 54.8121118,46.2883259 54.8121118,46.0609764 L54.8121118,45.729776 C54.8121118,43.3061185 56.8007179,41.4003125 59.2257788,41.4003125 C61.6690838,41.4003125 63.597344,43.3061185 63.597344,45.729776 C63.597344,46.8693301 63.0794925,47.9667824 62.3132406,48.7961869 L58.4174252,52.9193518 C58.2925233,53.0442536 58.2714724,53.3333523 58.6251272,53.3333523 L63.202991,53.3333523 C63.4317438,53.3333523 63.6169915,53.5214068 63.6169915,53.7487563 L63.6169915,55.7163115 C63.6169915,55.9436609 63.4317438,56.130312 63.202991,56.130312 L55.0815631,56.130312 C54.8528102,56.130312 54.6675625,55.9436609 54.6675625,55.7163115 L54.6675625,53.2716031 C54.6675625,52.9614535 54.7700101,52.8365517 54.8528102,52.7537516 L60.2193802,47.0559812 C60.448133,46.8061774 60.8003843,46.1437765 60.8003843,45.7101285 C60.8003843,44.880724 60.240431,44.1972722 59.3085789,44.1972722 C58.2714724,44.1972722 57.6090716,44.7979239 57.6090716,45.7101285 L57.6090716,46.0609764 Z" id="Fill-21" fill="#FFFFFF"></path>
        </g>
    </g>
</svg>