<?xml version="1.0" encoding="UTF-8"?>
<svg width="120px" height="120px" viewBox="0 0 120 120" version="1.1" xmlns="http://www.w3.org/2000/svg" xmlns:xlink="http://www.w3.org/1999/xlink">
    <!-- Generator: Sketch 40.3 (33839) - http://www.bohemiancoding.com/sketch -->
    <title>Group 12</title>
    <desc>Created with Sketch.</desc>
    <defs></defs>
    <g id="Page-1" stroke="none" stroke-width="1" fill="none" fill-rule="evenodd">
        <g id="Group-12">
            <g id="Group-8-Copy-6">
                <path d="M120,60 C120,93.15 93.15,120 60,120 C26.85,120 0,93.15 0,60 C0,26.85 26.85,0 60,0 C93.15,0 120,26.85 120,60 Z" id="Fill-1" fill="#000000"></path>
                <polygon id="Fill-3" fill="#7655E1" points="59.8528125 72.4363125 45.4078125 102.938813 40.1446875 92.1481875 28.4615625 94.9119375 42.9065625 64.4113125"></polygon>
                <polygon id="Fill-5" fill="#260440" points="62.2605 67.352625 50.223 92.772 44.959875 81.9795 33.27675 84.745125 45.31425 59.327625"></polygon>
                <polygon id="Fill-7" fill="#7655E1" points="58.993875 72.4363125 73.44075 102.938813 78.702 92.1481875 90.385125 94.9119375 75.940125 64.4113125"></polygon>
                <polygon id="Fill-9" fill="#260440" points="56.5861875 67.352625 68.6236875 92.772 73.8868125 81.9795 85.5699375 84.745125 73.5324375 59.327625"></polygon>
                <path d="M86.7,35.7376875 C81.8625,25.6876875 71.56875,18.7501875 59.6625,18.7501875 C43.0875,18.7501875 29.6625,32.1751875 29.6625,48.7501875 C29.6625,57.9939375 33.84375,66.2814375 40.425,71.7751875 C45.6375,76.1251875 52.33125,78.7501875 59.6625,78.7501875 L60,78.7501875 C60.6375,78.7501875 61.275,78.7126875 61.9125,78.6564375 C69.4125,78.1126875 76.125,74.8126875 81.075,69.7689375 C86.38125,64.3501875 89.6625,56.9439375 89.6625,48.7501875 C89.6625,44.0814375 88.59375,39.6751875 86.7,35.7376875" id="Fill-11" fill="#3300DF"></path>
                <path d="M81.8125,45.59375 C81.45625,42.74375 80.5375,40.0625 79.20625,37.64375 C79.01875,37.2875 78.8125,36.93125 78.5875,36.59375 C77.3875,34.6625 75.90625,32.9375 74.18125,31.475 C73.975,31.2875 73.75,31.1 73.525,30.9125 C69.68125,27.8375 64.80625,26 59.5,26 C47.0875,26 37,36.0875 37,48.5 C37,54.70625 39.5125,60.33125 43.6,64.4 C47.63125,68.45 53.18125,70.94375 59.3125,71 L59.5,71 C66.1,71 72.025,68.15 76.15,63.6125 C79.7875,59.61875 82,54.3125 82,48.5 C82,47.6 81.94375,46.7 81.83125,45.81875 C81.83125,45.74375 81.83125,45.66875 81.8125,45.59375 Z" id="Fill-13" fill="#1D1342"></path>
                <path d="M76.3125,45.99375 C76.06875,44.475 75.6,43.0125 74.9625,41.64375 C73.95,39.46875 72.46875,37.5375 70.66875,35.98125 C67.70625,33.4125 63.8625,31.875 59.6625,31.875 C50.3625,31.875 42.7875,39.45 42.7875,48.75 C42.7875,58.05 50.3625,65.625 59.6625,65.625 C68.9625,65.625 76.5375,58.05 76.5375,48.75 C76.5375,47.8125 76.4625,46.89375 76.3125,45.99375" id="Fill-15" fill="#6033F6"></path>
                <path d="M81.975,45.84375 C80.64375,45.50625 79.65,44.30625 79.65,42.84375 L79.51875,42.84375 C79.51875,44.56875 78.13125,45.95625 76.40625,45.95625 L76.40625,45.975 C78.13125,45.975 79.51875,47.3625 79.51875,49.0875 L79.65,49.0875 C79.65,47.625 80.64375,46.40625 81.99375,46.06875 C82.2375,46.0125 82.5,45.975 82.7625,45.975 L82.7625,45.95625 C82.5,45.95625 82.2375,45.91875 81.975,45.84375" id="Fill-17" fill="#FFFFFF"></path>
                <path d="M81.825,37.48125 C80.7375,37.48125 79.6875,37.25625 78.75,36.84375 C76.59375,35.90625 74.94375,34.03125 74.34375,31.725 C74.175,31.0875 74.08125,30.43125 74.08125,29.7375 L73.81875,29.7375 C73.81875,30.225 73.78125,30.7125 73.6875,31.1625 C73.3875,32.7375 72.6375,34.125 71.55,35.2125 C71.26875,35.49375 70.9875,35.7375 70.66875,35.98125 C69.375,36.91875 67.8,37.48125 66.075,37.48125 C70.35,37.48125 73.81875,40.95 73.81875,45.225 L74.08125,45.225 C74.08125,43.93125 74.4,42.7125 74.9625,41.64375 C75.31875,40.95 75.7875,40.3125 76.35,39.75 C77.19375,38.90625 78.225,38.26875 79.36875,37.89375 C80.1375,37.6125 80.9625,37.48125 81.825,37.48125" id="Fill-19" fill="#FFFFFF"></path>
            </g>
            <g id="Page-1-Copy" transform="translate(52.000000, 42.000000)" fill="#D4CFE3">
                <path d="M15.4788515,4.46316934 C15.4788515,1.99811993 13.5477252,0 11.1657494,0 C9.7670133,0 8.52736708,0.691936795 7.7393307,1.75993475 C6.95129433,0.691936795 5.71183818,0 4.31310212,0 C1.93093621,0 0,1.99811993 0,4.46316934 C0,5.57542136 0.395538759,6.59031444 1.04596338,7.37174277 L7.7393307,14.5534881 L14.4328881,7.37174277 C15.0833127,6.59031444 15.4788515,5.57542136 15.4788515,4.46316934" id="Fill-1"></path>
            </g>
        </g>
    </g>
</svg>