<?xml version="1.0" encoding="UTF-8"?>
<svg width="121px" height="121px" viewBox="0 0 121 121" version="1.1" xmlns="http://www.w3.org/2000/svg" xmlns:xlink="http://www.w3.org/1999/xlink">
    <!-- Generator: Sketch 40.3 (33839) - http://www.bohemiancoding.com/sketch -->
    <title>Group 7 Copy</title>
    <desc>Created with Sketch.</desc>
    <defs></defs>
    <g id="Page-1" stroke="none" stroke-width="1" fill="none" fill-rule="evenodd">
        <g id="Group-7-Copy">
            <path d="M121,60.5 C121,93.92625 93.92625,121 60.5,121 C27.07375,121 0,93.92625 0,60.5 C0,27.07375 27.07375,0 60.5,0 C93.92625,0 121,27.07375 121,60.5 Z" id="Fill-1" fill="#040404"></path>
            <polygon id="Fill-3" fill="#F07E89" points="60.6528438 73.091875 46.0874687 103.848562 40.7804844 92.9680156 29 95.7547969 43.565375 65"></polygon>
            <polygon id="Fill-5" fill="#510109" points="63.2252813 68.091875 51.0874687 93.7230781 45.7804844 82.8406406 34 85.6293125 46.1378125 60"></polygon>
            <polygon id="Fill-7" fill="#F07E89" points="59 73.091875 73.5672656 103.848562 78.8723594 92.9680156 90.6528438 95.7547969 76.0874688 65"></polygon>
            <polygon id="Fill-9" fill="#510109" points="57 68.091875 69.1378125 93.7230781 74.4447969 82.8406406 86.2252812 85.6293125 74.0874687 60"></polygon>
            <path d="M60.25,19 C43.536875,19 30,32.536875 30,49.25 C30,58.5707813 34.2160937,66.9273438 40.8521875,72.466875 C46.108125,76.853125 52.8576563,79.5 60.25,79.5 L60.5903125,79.5 C61.233125,79.5 61.8759375,79.4621875 62.51875,79.4054688 C70.08125,78.8571875 76.8496875,75.5296875 81.8409375,70.4439063 C87.1914063,64.98 90.5,57.5120313 90.5,49.25 C90.5,44.5423438 89.4223438,40.099375 87.5128125,36.1290625 C82.635,25.9953125 72.2554688,19 60.25,19 Z" id="Fill-11" fill="#9D0413"></path>
            <path d="M82.2048438,45.9839063 C82.2048438,45.9082813 82.2048438,45.8326563 82.1859375,45.7570313 C81.8267187,42.8832813 80.9003125,40.1796875 79.5579688,37.7407813 C79.3689063,37.3815625 79.1609375,37.0223437 78.9340625,36.6820313 L78.9340625,36.6820313 C77.7240625,34.7346875 76.2304688,32.9953125 74.4910938,31.520625 L74.4910938,31.520625 C74.283125,31.3315625 74.05625,31.1425 73.829375,30.9534375 C69.9535937,27.8528125 65.0379688,26 59.6875,26 C47.1715625,26 37,36.1715625 37,48.6875 C37,54.9454688 39.5334375,60.6173438 43.655,64.72 C47.7198437,68.80375 53.3160938,71.3182813 59.4984375,71.375 L59.6875,71.375 C66.3425,71.375 72.316875,68.50125 76.47625,63.9259375 C80.1440625,59.8989063 82.375,54.5484375 82.375,48.6875 C82.375,47.78 82.3182813,46.8725 82.2048438,45.9839063" id="Fill-13" fill="#54020A"></path>
            <path d="M76.804375,46.2364063 C76.5585938,44.705 76.0859375,43.2303125 75.443125,41.8501562 C74.4221875,39.6570313 72.9285938,37.7096875 71.1135938,36.1404687 C68.1264062,33.5503125 64.250625,32 60.015625,32 C50.638125,32 43,39.638125 43,49.015625 C43,58.393125 50.638125,66.03125 60.015625,66.03125 C69.393125,66.03125 77.03125,58.393125 77.03125,49.015625 C77.03125,48.0703125 76.955625,47.1439063 76.804375,46.2364063" id="Fill-15" fill="#ECC2C7"></path>
            <path d="M82.6151562,46.025 C81.2728125,45.6846875 80.2707812,44.4746875 80.2707812,43 L80.1384375,43 C80.1384375,44.739375 78.739375,46.1384375 77,46.1384375 L77,46.1573438 C78.739375,46.1573438 80.1384375,47.5564063 80.1384375,49.2957812 L80.2707812,49.2957812 C80.2707812,47.8210938 81.2728125,46.5921875 82.6340625,46.251875 C82.8798437,46.1951563 83.1445312,46.1573438 83.4092187,46.1573438 L83.4092187,46.1384375 C83.1445312,46.1384375 82.8798437,46.100625 82.6151562,46.025" id="Fill-17" fill="#FFFFFF"></path>
            <path d="M82.88125,37.8082813 C81.7846875,37.8082813 80.7259375,37.5814063 79.780625,37.1654687 C77.6064063,36.2201562 75.9426562,34.3295312 75.3376562,32.0040625 C75.1675,31.36125 75.0729688,30.6995313 75.0729688,30 L74.8082812,30 C74.8082812,30.4915625 74.7704688,30.983125 74.6759375,31.436875 C74.3734375,33.025 73.6171875,34.4240625 72.520625,35.520625 C72.2370313,35.8042188 71.9534375,36.05 71.6320312,36.2957813 C70.3275,37.2410938 68.739375,37.8082813 67,37.8082813 C71.310625,37.8082813 74.8082812,41.3059375 74.8082812,45.6165625 L75.0729688,45.6165625 C75.0729688,44.3120312 75.394375,43.083125 75.9615625,42.0054687 C76.3207813,41.3059375 76.7934375,40.663125 77.360625,40.0959375 C78.2114063,39.2451563 79.25125,38.6023438 80.4045313,38.2242188 C81.1796875,37.940625 82.0115625,37.8082813 82.88125,37.8082813" id="Fill-19" fill="#FFFFFF"></path>
            <g id="Page-1" transform="translate(51.000000, 42.000000)" fill="#B90601">
                <path d="M17.1682911,5.49828607 C17.1682911,2.86890002 15.1164694,0.7375721 12.5856201,0.7375721 C11.099463,0.7375721 9.78233889,1.47563801 8.94505024,2.61483583 C8.1077616,1.47563801 6.79083944,0.7375721 5.30468238,0.7375721 C2.7736311,0.7375721 0.722011374,2.86890002 0.722011374,5.49828607 C0.722011374,6.68468821 1.14227131,7.76724083 1.83334746,8.60076439 L8.94505024,16.2612928 L16.056955,8.60076439 C16.7480311,7.76724083 17.1682911,6.68468821 17.1682911,5.49828607" id="Fill-1"></path>
            </g>
        </g>
    </g>
</svg>