<?xml version="1.0" encoding="UTF-8"?>
<svg width="121px" height="121px" viewBox="0 0 121 121" version="1.1" xmlns="http://www.w3.org/2000/svg" xmlns:xlink="http://www.w3.org/1999/xlink">
    <!-- Generator: Sketch 40.3 (33839) - http://www.bohemiancoding.com/sketch -->
    <title>Page 1 Copy 3</title>
    <desc>Created with Sketch.</desc>
    <defs></defs>
    <g id="Page-1" stroke="none" stroke-width="1" fill="none" fill-rule="evenodd">
        <g id="Page-1-Copy-3">
            <path d="M121,60.5 C121,93.92625 93.92625,121 60.5,121 C27.07375,121 0,93.92625 0,60.5 C0,27.07375 27.07375,0 60.5,0 C93.92625,0 121,27.07375 121,60.5 Z" id="Fill-1" fill="#040404"></path>
            <polygon id="Fill-3" fill="#6A3C05" points="60.3515859 73.0399484 45.7862109 103.796636 40.4792266 92.9160891 28.6987422 95.7028703 43.2641172 64.9480734"></polygon>
            <polygon id="Fill-5" fill="#431B01" points="62.7793375 67.9138969 50.641525 93.5451 45.3345406 82.6626625 33.5540563 85.4513344 45.6918688 59.8220219"></polygon>
            <polygon id="Fill-7" fill="#6A3C05" points="59.4854906 73.0399484 74.0527563 103.796636 79.35785 92.9160891 91.1383344 95.7028703 76.5729594 64.9480734"></polygon>
            <polygon id="Fill-9" fill="#431B01" points="57.0577391 67.9138969 69.1955516 93.5451 74.5025359 82.6626625 86.2830203 85.4513344 74.1452078 59.8220219"></polygon>
            <path d="M87.4225,36.0355016 C82.5446875,25.9017516 72.1651563,18.9064391 60.1596875,18.9064391 C43.4465625,18.9064391 29.9096875,32.4433141 29.9096875,49.1564391 C29.9096875,58.4772203 34.1257813,66.8337828 40.761875,72.3733141 C46.0178125,76.7595641 52.7673438,79.4064391 60.1596875,79.4064391 L60.5,79.4064391 C61.1428125,79.4064391 61.785625,79.3686266 62.4284375,79.3119078 C69.9909375,78.7636266 76.759375,75.4361266 81.750625,70.3503453 C87.1010938,64.8864391 90.4096875,57.4184703 90.4096875,49.1564391 C90.4096875,44.4487828 89.3320313,40.0058141 87.4225,36.0355016" id="Fill-11" fill="#8C4703"></path>
            <path d="M82.6770313,46.4528453 C82.6770313,46.3772203 82.6770313,46.3015953 82.658125,46.2259703 C82.2989063,43.3522203 81.3725,40.6486266 80.0301563,38.2097203 C79.8410938,37.8505016 79.633125,37.4912828 79.40625,37.1509703 L79.40625,37.1509703 C78.19625,35.2036266 76.7026563,33.4642516 74.9632813,31.9895641 L74.9632813,31.9895641 C74.7553125,31.8005016 74.5284375,31.6114391 74.3015625,31.4223766 C70.4257813,28.3217516 65.5101563,26.4689391 60.1596875,26.4689391 C47.64375,26.4689391 37.4721875,36.6405016 37.4721875,49.1564391 C37.4721875,55.4144078 40.005625,61.0862828 44.1271875,65.1889391 C48.1920313,69.2726891 53.7882813,71.7872203 59.970625,71.8439391 L60.1596875,71.8439391 C66.8146875,71.8439391 72.7890625,68.9701891 76.9484375,64.3948766 C80.61625,60.3678453 82.8471875,55.0173766 82.8471875,49.1564391 C82.8471875,48.2489391 82.7904688,47.3414391 82.6770313,46.4528453" id="Fill-13" fill="#382701"></path>
            <path d="M76.9484375,46.3770313 C76.7026563,44.845625 76.23,43.3709375 75.5871875,41.9907812 C74.56625,39.7976563 73.0726563,37.8503125 71.2576563,36.2810937 C68.2704688,33.6909375 64.3946875,32.140625 60.1596875,32.140625 C50.7821875,32.140625 43.1440625,39.77875 43.1440625,49.15625 C43.1440625,58.53375 50.7821875,66.171875 60.1596875,66.171875 C69.5371875,66.171875 77.1753125,58.53375 77.1753125,49.15625 C77.1753125,48.2109375 77.0996875,47.2845313 76.9484375,46.3770313" id="Fill-15" fill="#FF9E3E"></path>
            <path d="M82.658125,46.2257812 C81.3157812,45.8854687 80.31375,44.6754687 80.31375,43.2007812 L80.1814062,43.2007812 C80.1814062,44.9401562 78.7823437,46.3392187 77.0429688,46.3392187 L77.0429688,46.358125 C78.7823437,46.358125 80.1814062,47.7571875 80.1814062,49.4965625 L80.31375,49.4965625 C80.31375,48.021875 81.3157812,46.7929687 82.6770312,46.4526562 C82.9228125,46.3959375 83.1875,46.358125 83.4521875,46.358125 L83.4521875,46.3392187 C83.1875,46.3392187 82.9228125,46.3014062 82.658125,46.2257812" id="Fill-17" fill="#FFFFFF"></path>
            <path d="M82.506875,37.7935937 C81.4103125,37.7935937 80.3515625,37.5667187 79.40625,37.1507812 C77.2320313,36.2054687 75.5682813,34.3148437 74.9632813,31.989375 C74.793125,31.3465625 74.6985938,30.6848437 74.6985938,29.9853125 L74.4339063,29.9853125 C74.4339063,30.476875 74.3960938,30.9684375 74.3015625,31.4221875 C73.9990625,33.0103125 73.2428125,34.409375 72.14625,35.5059375 C71.8626563,35.7895312 71.5790625,36.0353125 71.2576563,36.2810937 C69.953125,37.2264062 68.365,37.7935937 66.625625,37.7935937 C70.93625,37.7935937 74.4339063,41.29125 74.4339063,45.601875 L74.6985938,45.601875 C74.6985938,44.2973437 75.02,43.0684375 75.5871875,41.9907812 C75.9464063,41.29125 76.4190625,40.6484375 76.98625,40.08125 C77.8370313,39.2304687 78.876875,38.5876562 80.0301563,38.2095312 C80.8053125,37.9259375 81.6371875,37.7935937 82.506875,37.7935937" id="Fill-19" fill="#FFFFFF"></path>
            <path d="M58.4812992,51.5699408 C58.4812992,52.5959636 59.1528291,53.2086343 60.1989175,53.2086343 C61.226278,53.2086343 61.9178735,52.5959636 61.9178735,51.5699408 C61.9178735,50.5425804 61.226278,49.9299097 60.1989175,49.9299097 L59.962143,49.9299097 C59.7454342,49.9299097 59.5675189,49.7533321 59.5675189,49.5352855 L59.5675189,47.6785455 C59.5675189,47.4618367 59.7454342,47.2825837 59.962143,47.2825837 L60.1989175,47.2825837 C61.1085596,47.2825837 61.7399582,46.6913163 61.7399582,45.783012 C61.7399582,44.8934355 61.1085596,44.3208961 60.1989175,44.3208961 C59.3106788,44.3208961 58.6592145,44.8934355 58.6592145,45.783012 L58.6592145,46.0786457 C58.6592145,46.2953545 58.4812992,46.4732698 58.2645904,46.4732698 L56.3677191,46.4732698 C56.1510103,46.4732698 55.973095,46.2953545 55.973095,46.0786457 L55.973095,45.783012 C55.973095,43.4714509 57.8886942,41.6347766 60.1989175,41.6347766 C62.5292065,41.6347766 64.4060121,43.4714509 64.4060121,45.783012 C64.4060121,46.7702412 63.9525288,47.7186768 63.3599237,48.3701411 C63.2408676,48.4891972 63.2408676,48.6269812 63.3599237,48.7246339 C64.1291064,49.3573703 64.6026553,50.4823835 64.6026553,51.5699408 C64.6026553,53.9978826 62.6281969,55.8934161 60.1989175,55.8934161 C57.7709758,55.8934161 55.7951797,53.9978826 55.7951797,51.5699408 L55.7951797,51.3719599 C55.7951797,51.1552511 55.973095,50.9759981 56.1911415,50.9759981 L58.0866751,50.9759981 C58.3033839,50.9759981 58.4812992,51.1552511 58.4812992,51.3719599 L58.4812992,51.5699408 Z" id="Fill-21" fill="#4A3403"></path>
        </g>
    </g>
</svg>