<?xml version="1.0" encoding="UTF-8"?>
<svg width="120px" height="120px" viewBox="0 0 120 120" version="1.1" xmlns="http://www.w3.org/2000/svg" xmlns:xlink="http://www.w3.org/1999/xlink">
    <!-- Generator: Sketch 40.3 (33839) - http://www.bohemiancoding.com/sketch -->
    <title>Group 9 Copy</title>
    <desc>Created with Sketch.</desc>
    <defs></defs>
    <g id="Page-1" stroke="none" stroke-width="1" fill="none" fill-rule="evenodd">
        <g id="Group-9-Copy" transform="translate(0.000000, -1.000000)">
            <path d="M120,60.9895218 C120,94.1395218 93.15,120.989522 60,120.989522 C26.85,120.989522 0,94.1395218 0,60.9895218 C0,27.8395218 26.85,0.989521818 60,0.989521818 C93.15,0.989521818 120,27.8395218 120,60.9895218 Z" id="Fill-1" fill="#000000"></path>
            <g id="Group-8" transform="translate(30.000000, 19.000000)">
                <polygon id="Fill-3" fill="#FFB100" points="31.39125 54.025 16.94625 84.5275 11.683125 73.736875 0 76.500625 14.445 46"></polygon>
                <polygon id="Fill-5" fill="#FF6000" points="33.98375 49.025 21.94625 74.444375 16.683125 63.651875 5 66.4175 17.0375 41"></polygon>
                <polygon id="Fill-7" fill="#FFB100" points="30 54.025 44.446875 84.5275 49.708125 73.736875 61.39125 76.500625 46.94625 46"></polygon>
                <polygon id="Fill-9" fill="#FF6000" points="28 49.025 40.0375 74.444375 45.300625 63.651875 56.98375 66.4175 44.94625 41"></polygon>
                <path d="M58.0375,16.9875 C53.2,6.9375 42.90625,0 31,0 C14.425,0 1,13.425 1,30 C1,39.24375 5.18125,47.53125 11.7625,53.025 C16.975,57.375 23.66875,60 31,60 L31.3375,60 C31.975,60 32.6125,59.9625 33.25,59.90625 C40.75,59.3625 47.4625,56.0625 52.4125,51.01875 C57.71875,45.6 61,38.19375 61,30 C61,25.33125 59.93125,20.925 58.0375,16.9875" id="Fill-11" fill="#FFB100"></path>
                <path d="M52.8125,26.59375 C52.45625,23.74375 51.5375,21.0625 50.20625,18.64375 C50.01875,18.2875 49.8125,17.93125 49.5875,17.59375 C48.3875,15.6625 46.90625,13.9375 45.18125,12.475 C44.975,12.2875 44.75,12.1 44.525,11.9125 C40.68125,8.8375 35.80625,7 30.5,7 C18.0875,7 8,17.0875 8,29.5 C8,35.70625 10.5125,41.33125 14.6,45.4 C18.63125,49.45 24.18125,51.94375 30.3125,52 L30.5,52 C37.1,52 43.025,49.15 47.15,44.6125 C50.7875,40.61875 53,35.3125 53,29.5 C53,28.6 52.94375,27.7 52.83125,26.81875 C52.83125,26.74375 52.83125,26.66875 52.8125,26.59375 Z" id="Fill-13" fill="#FFFFFF"></path>
                <path d="M47.525,27.11875 C47.28125,25.6 46.8125,24.1375 46.175,22.76875 C45.1625,20.59375 43.68125,18.6625 41.88125,17.10625 C38.91875,14.5375 35.075,13 30.875,13 C21.575,13 14,20.575 14,29.875 C14,39.175 21.575,46.75 30.875,46.75 C40.175,46.75 47.75,39.175 47.75,29.875 C47.75,28.9375 47.675,28.01875 47.525,27.11875" id="Fill-15" fill="#FFE600"></path>
                <path d="M52.56875,27 C51.2375,26.6625 50.24375,25.4625 50.24375,24 L50.1125,24 C50.1125,25.725 48.725,27.1125 47,27.1125 L47,27.13125 C48.725,27.13125 50.1125,28.51875 50.1125,30.24375 L50.24375,30.24375 C50.24375,28.78125 51.2375,27.5625 52.5875,27.225 C52.83125,27.16875 53.09375,27.13125 53.35625,27.13125 L53.35625,27.1125 C53.09375,27.1125 52.83125,27.075 52.56875,27" id="Fill-17" fill="#FFFFFF"></path>
                <path d="M49.75,13.74375 C48.6625,13.74375 47.6125,13.51875 46.675,13.10625 C44.51875,12.16875 42.86875,10.29375 42.26875,7.9875 C42.1,7.35 42.00625,6.69375 42.00625,6 L41.74375,6 C41.74375,6.4875 41.70625,6.975 41.6125,7.425 C41.3125,9 40.5625,10.3875 39.475,11.475 C39.19375,11.75625 38.9125,12 38.59375,12.24375 C37.3,13.18125 35.725,13.74375 34,13.74375 C38.275,13.74375 41.74375,17.2125 41.74375,21.4875 L42.00625,21.4875 C42.00625,20.19375 42.325,18.975 42.8875,17.90625 C43.24375,17.2125 43.7125,16.575 44.275,16.0125 C45.11875,15.16875 46.15,14.53125 47.29375,14.15625 C48.0625,13.875 48.8875,13.74375 49.75,13.74375" id="Fill-19" fill="#FFFFFF"></path>
                <polygon id="Star" fill="#030300" points="30.5595086 34.5 25.2694414 37.2811529 26.2797543 31.3905765 22 27.2188471 27.914475 26.3594235 30.5595086 21 33.2045423 26.3594235 39.1190173 27.2188471 34.839263 31.3905765 35.8495759 37.2811529"></polygon>
            </g>
        </g>
    </g>
</svg>