<?xml version="1.0" encoding="UTF-8"?>
<svg width="120px" height="120px" viewBox="0 0 120 120" version="1.1" xmlns="http://www.w3.org/2000/svg" xmlns:xlink="http://www.w3.org/1999/xlink">
    <!-- Generator: Sketch 40.3 (33839) - http://www.bohemiancoding.com/sketch -->
    <title>Group 11</title>
    <desc>Created with Sketch.</desc>
    <defs></defs>
    <g id="Page-1" stroke="none" stroke-width="1" fill="none" fill-rule="evenodd">
        <g id="Group-11">
            <g id="Group-10-Copy">
                <path d="M120,60 C120,93.15 93.15,120 60,120 C26.85,120 0,93.15 0,60 C0,26.85 26.85,0 60,0 C93.15,0 120,26.85 120,60 Z" id="Fill-1" fill="#000000"></path>
                <polygon id="Fill-3" fill="#65040D" points="60.39125 72.025 45.94625 102.5275 40.683125 91.736875 29 94.500625 43.445 64"></polygon>
                <polygon id="Fill-5" fill="#430309" points="62.98375 67.025 50.94625 92.444375 45.683125 81.651875 34 84.4175 46.0375 59"></polygon>
                <polygon id="Fill-7" fill="#65040D" points="59 72.025 73.446875 102.5275 78.708125 91.736875 90.39125 94.500625 75.94625 64"></polygon>
                <polygon id="Fill-9" fill="#430309" points="57 67.025 69.0375 92.444375 74.300625 81.651875 85.98375 84.4175 73.94625 59"></polygon>
                <path d="M87.0375,35.9875 C82.2,25.9375 71.90625,19 60,19 C43.425,19 30,32.425 30,49 C30,58.24375 34.18125,66.53125 40.7625,72.025 C45.975,76.375 52.66875,79 60,79 L60.3375,79 C60.975,79 61.6125,78.9625 62.25,78.90625 C69.75,78.3625 76.4625,75.0625 81.4125,70.01875 C86.71875,64.6 90,57.19375 90,49 C90,44.33125 88.93125,39.925 87.0375,35.9875" id="Fill-11" fill="#9D0413"></path>
                <path d="M81.8125,45.59375 C81.45625,42.74375 80.5375,40.0625 79.20625,37.64375 C79.01875,37.2875 78.8125,36.93125 78.5875,36.59375 C77.3875,34.6625 75.90625,32.9375 74.18125,31.475 C73.975,31.2875 73.75,31.1 73.525,30.9125 C69.68125,27.8375 64.80625,26 59.5,26 C47.0875,26 37,36.0875 37,48.5 C37,54.70625 39.5125,60.33125 43.6,64.4 C47.63125,68.45 53.18125,70.94375 59.3125,71 L59.5,71 C66.1,71 72.025,68.15 76.15,63.6125 C79.7875,59.61875 82,54.3125 82,48.5 C82,47.6 81.94375,46.7 81.83125,45.81875 C81.83125,45.74375 81.83125,45.66875 81.8125,45.59375 Z" id="Fill-13" fill="#54020A"></path>
                <path d="M76.525,46.11875 C76.28125,44.6 75.8125,43.1375 75.175,41.76875 C74.1625,39.59375 72.68125,37.6625 70.88125,36.10625 C67.91875,33.5375 64.075,32 59.875,32 C50.575,32 43,39.575 43,48.875 C43,58.175 50.575,65.75 59.875,65.75 C69.175,65.75 76.75,58.175 76.75,48.875 C76.75,47.9375 76.675,47.01875 76.525,46.11875" id="Fill-15" fill="#FDF9F9"></path>
                <path d="M82.56875,46 C81.2375,45.6625 80.24375,44.4625 80.24375,43 L80.1125,43 C80.1125,44.725 78.725,46.1125 77,46.1125 L77,46.13125 C78.725,46.13125 80.1125,47.51875 80.1125,49.24375 L80.24375,49.24375 C80.24375,47.78125 81.2375,46.5625 82.5875,46.225 C82.83125,46.16875 83.09375,46.13125 83.35625,46.13125 L83.35625,46.1125 C83.09375,46.1125 82.83125,46.075 82.56875,46" id="Fill-17" fill="#FFFFFF"></path>
                <path d="M81.75,37.74375 C80.6625,37.74375 79.6125,37.51875 78.675,37.10625 C76.51875,36.16875 74.86875,34.29375 74.26875,31.9875 C74.1,31.35 74.00625,30.69375 74.00625,30 L73.74375,30 C73.74375,30.4875 73.70625,30.975 73.6125,31.425 C73.3125,33 72.5625,34.3875 71.475,35.475 C71.19375,35.75625 70.9125,36 70.59375,36.24375 C69.3,37.18125 67.725,37.74375 66,37.74375 C70.275,37.74375 73.74375,41.2125 73.74375,45.4875 L74.00625,45.4875 C74.00625,44.19375 74.325,42.975 74.8875,41.90625 C75.24375,41.2125 75.7125,40.575 76.275,40.0125 C77.11875,39.16875 78.15,38.53125 79.29375,38.15625 C80.0625,37.875 80.8875,37.74375 81.75,37.74375" id="Fill-19" fill="#FFFFFF"></path>
                <polygon id="Star" fill="#EB0F2A" points="60.5595086 53.5 55.2694414 56.2811529 56.2797543 50.3905765 52 46.2188471 57.914475 45.3594235 60.5595086 40 63.2045423 45.3594235 69.1190173 46.2188471 64.839263 50.3905765 65.8495759 56.2811529"></polygon>
            </g>
        </g>
    </g>
</svg>