<?xml version="1.0" encoding="UTF-8" standalone="no"?>
<svg width="573px" height="581px" viewBox="0 0 573 581" version="1.1" xmlns="http://www.w3.org/2000/svg" xmlns:xlink="http://www.w3.org/1999/xlink">
    <!-- Generator: Sketch 41 (35326) - http://www.bohemiancoding.com/sketch -->
    <title>Group 4</title>
    <desc>Created with Sketch.</desc>
    <defs></defs>
    <g id="Page-1" stroke="none" stroke-width="1" fill="none" fill-rule="evenodd">
        <g id="Desktop-HD" transform="translate(-434.000000, -180.000000)">
            <g id="Group-4" transform="translate(434.000000, 180.000000)">
                <g id="Group">
                    <g id="Group-2">
                        <ellipse id="Oval" fill="#1C1B1B" cx="286.5" cy="290.5" rx="286.5" ry="289.679503"></ellipse>
                        <path d="M439.910506,488.528657 C440.090246,488.590469 440.217272,488.753697 440.234111,488.945055 L440.721716,494.448178 C440.764912,494.937493 441.416882,495.059636 441.630666,494.618439 L446.934647,483.677706 C447.113289,483.309055 446.787121,482.896728 446.392498,482.991852 L434.729524,485.801894 C434.261321,485.914784 434.230572,486.57695 434.686328,486.733516 L439.910506,488.528657 Z" id="Fill-1" fill="#FEFEFE"></path>
                        <path d="M407.726965,510.176473 C371.859387,530.454796 330.514873,542.013354 286.499647,542.013354 C149.117485,542.013354 37.7472402,429.40715 37.7472402,290.499643 C37.7472402,151.59285 149.117485,38.9866463 286.499647,38.9866463 C423.882515,38.9866463 535.25276,151.59285 535.25276,290.499643 C535.25276,354.186963 511.840976,412.345842 473.245517,456.657573" id="Stroke-3" stroke="#FEFEFE" stroke-width="1.5" stroke-linecap="round" opacity="0.0331739739" transform="translate(286.500000, 290.500000) rotate(-5.000000) translate(-286.500000, -290.500000) "></path>
                    </g>
                </g>
            </g>
        </g>
    </g>
</svg>