<?xml version="1.0" encoding="UTF-8" standalone="no"?>
<svg width="573px" height="581px" viewBox="0 0 573 581" version="1.1" xmlns="http://www.w3.org/2000/svg" xmlns:xlink="http://www.w3.org/1999/xlink">
    <!-- Generator: Sketch 41 (35326) - http://www.bohemiancoding.com/sketch -->
    <title>Group</title>
    <desc>Created with Sketch.</desc>
    <defs></defs>
    <g id="Page-1" stroke="none" stroke-width="1" fill="none" fill-rule="evenodd">
        <g id="Desktop-HD" transform="translate(-434.000000, -180.000000)">
            <g id="startseite-mobility-logo" transform="translate(434.000000, 180.000000)">
                <g id="Group">
                    <ellipse id="Oval" fill="#1C1B1B" cx="286.5" cy="290.5" rx="286.5" ry="289.679503"></ellipse>
                    <path d="M432.654087,485.98639 L439.651714,488.390926 C439.89247,488.473722 440.062618,488.692361 440.085174,488.948679 L440.738305,496.319945 C440.796165,496.975367 441.669459,497.138975 441.955817,496.548004 L449.060338,481.893226 C449.299623,481.399428 448.862731,480.847129 448.334146,480.974544 L432.711947,484.738511 C432.084804,484.889724 432.043615,485.776675 432.654087,485.98639" id="Fill-1" fill="#FEFEFE"></path>
                    <path d="M407.261982,510.582533 C371.394404,530.860856 330.04989,542.419414 286.034664,542.419414 C148.652502,542.419414 37.2822571,429.81321 37.2822571,290.905703 C37.2822571,151.99891 148.652502,39.3927062 286.034664,39.3927062 C423.417532,39.3927062 534.787777,151.99891 534.787777,290.905703 C534.787777,354.593023 511.375993,412.751902 472.780534,457.063633" id="Stroke-3" stroke="#FEFEFE" stroke-width="2.01900005" stroke-linecap="round"></path>
                </g>
            </g>
        </g>
    </g>
</svg>