<?xml version="1.0" standalone="no"?>
<!DOCTYPE svg PUBLIC "-//W3C//DTD SVG 1.1//EN" "http://www.w3.org/Graphics/SVG/1.1/DTD/svg11.dtd" >
<svg xmlns="http://www.w3.org/2000/svg">
<metadata>
Created by FontPrep 20130207 at Fri Jun 10 21:34:16 2016
 By Daniel
Copyright (c) 2012 by Dominik Huber &#38; Moire'. All rights reserved.
</metadata>
<defs>
<font id="eb73918ea812a943be164660c1612480" horiz-adv-x='1024' >
  <font-face 
    font-family="GTPressuraTrialBold-Italic"
    font-weight="700"
    font-style="italic"
    font-stretch="normal"
    units-per-em="2048"
    panose-1="2 0 5 6 2 0 0 2 0 4"
    ascent="1536"
    descent="-512"
    x-height="1024"
    cap-height="1434"
    bbox="-245.143 -440 2347.69 1456"
    underline-thickness="102"
    underline-position="-51"
    unicode-range="U+0020-FB01"
  />
<missing-glyph horiz-adv-x="1126" 
d="M782 406q0 -57 -49 -58q-35 0 -35 27t47 33l37 4v-6zM637 373q0 -68 78 -70q51 0 71 39q0 -23 2 -33h60q-6 31 -6 43v82q0 55 -20 80t-74 25q-100 0 -105 -76h59q2 31 41 31t39 -45q-66 -6 -102 -17q-43 -18 -43 -59zM770 700v324h-59v-324h59zM623 633h-66v-62h66v62z
M297 750q-84 0 -84 110t87 111q44 0 58 -47l62 24q-29 80 -112 80t-123 -47t-40 -120t37 -120t102 -47t87 41l8 -35h47v179h-137v-58h82v-4q-1 -25 -19 -47t-55 -20zM897 1024v-59h66v59h-66zM616 1024v-59h66v59h-66zM524 539q-41 0 -61 -43v36h-57v-223h61v101q0 72 57 71
q13 0 21 -2v58q-6 2 -21 2zM874 309h60v324h-60v-324zM182 629v-60h90v-260h62v260h90v60h-242zM899 926v-226h62v226h-62zM582 932q-37 0 -64 -43v37h-55v-226h59v103q0 72 62 71q14 0 20 -2v56q-12 4 -22 4zM621 532h-62v-223h62v223zM102 0v1434h922v-1434h-922zM618 926
v-226h62v226h-62zM864 700v324h-61v-324h61z" />
    <glyph glyph-name=".notdef" horiz-adv-x="1126" 
d="M782 406q0 -57 -49 -58q-35 0 -35 27t47 33l37 4v-6zM637 373q0 -68 78 -70q51 0 71 39q0 -23 2 -33h60q-6 31 -6 43v82q0 55 -20 80t-74 25q-100 0 -105 -76h59q2 31 41 31t39 -45q-66 -6 -102 -17q-43 -18 -43 -59zM770 700v324h-59v-324h59zM623 633h-66v-62h66v62z
M297 750q-84 0 -84 110t87 111q44 0 58 -47l62 24q-29 80 -112 80t-123 -47t-40 -120t37 -120t102 -47t87 41l8 -35h47v179h-137v-58h82v-4q-1 -25 -19 -47t-55 -20zM897 1024v-59h66v59h-66zM616 1024v-59h66v59h-66zM524 539q-41 0 -61 -43v36h-57v-223h61v101q0 72 57 71
q13 0 21 -2v58q-6 2 -21 2zM874 309h60v324h-60v-324zM182 629v-60h90v-260h62v260h90v60h-242zM899 926v-226h62v226h-62zM582 932q-37 0 -64 -43v37h-55v-226h59v103q0 72 62 71q14 0 20 -2v56q-12 4 -22 4zM621 532h-62v-223h62v223zM102 0v1434h922v-1434h-922zM618 926
v-226h62v226h-62zM864 700v324h-61v-324h61z" />
    <glyph glyph-name=".null" horiz-adv-x="0" 
 />
    <glyph glyph-name="nonmarkingreturn" horiz-adv-x="681" 
 />
    <glyph glyph-name="space" unicode=" " horiz-adv-x="471" 
 />
    <glyph glyph-name="exclam" unicode="!" horiz-adv-x="538" 
d="M373 0h-246q-16 0 -26 12q-9 12 -5 29l51 246q3 16 19 28t33 13h245q16 0 26 -12t5 -29l-51 -246q-4 -17 -20 -29t-31 -12z" />
    <glyph glyph-name="comma" unicode="," horiz-adv-x="540" 
d="M123 -307h-41q-31 1 -39 25t12 53l154 202q6 11 1 19t-15 8h-50q-16 0 -25 12t-5 29l51 246q10 41 49 41h246q16 0 26 -12t7 -29l-52 -240q-14 -80 -73 -141l-168 -172q-37 -41 -78 -41z" />
    <glyph glyph-name="hyphen" unicode="-" horiz-adv-x="845" 
d="M223 690h559q16 0 26 -12t7 -29l-43 -203q-8 -41 -49 -40h-559q-16 0 -27 12q-10 12 -6 28l43 203q8 41 49 41z" />
    <glyph glyph-name="period" unicode="." horiz-adv-x="538" 
d="M373 0h-246q-16 0 -26 12q-9 12 -5 29l51 246q3 16 19 28t33 13h245q16 0 26 -12t5 -29l-51 -246q-4 -17 -20 -29t-31 -12z" />
    <glyph glyph-name="zero" unicode="0" horiz-adv-x="1089" 
d="M744 1456q192 0 298 -132t88 -320q-29 -295 -120 -574q-68 -203 -201 -328t-325 -125q-192 1 -300 133q-106 132 -88 320q29 295 121 574q68 204 201 328q134 124 326 124zM516 256q70 0 126 47t81 119q94 293 125 590q8 72 -30 118t-108 48q-70 0 -125 -48
q-56 -48 -81 -118q-94 -293 -125 -590q-9 -72 29 -119t108 -47z" />
    <glyph glyph-name="one" unicode="1" horiz-adv-x="843" 
d="M670 1434h227q17 0 27 -12t6 -29l-289 -1352q-8 -41 -49 -41h-203q-16 0 -27 12q-10 12 -6 29l209 983q4 18 -10 22t-25 -6l-372 -297q-24 -18 -46 -8t-16 41l31 187q10 53 51 90l379 331q54 50 113 50z" />
    <glyph glyph-name="two" unicode="2" horiz-adv-x="1036" 
d="M690 1456q188 0 298 -103q108 -103 108 -247q0 -92 -16 -137t-26 -69q-9 -24 -31 -54t-32 -45q-10 -16 -39 -43t-37 -36q-9 -9 -39 -36t-34 -31l-377 -338q-12 -10 -12 -25t24 -16h422q15 0 25 -12t6 -28l-41 -195q-8 -41 -49 -41h-813q-16 0 -27 12q-10 12 -6 29l49 217
q6 31 31 51l651 588q90 78 90 168q0 49 -31 82q-30 33 -98 33t-122 -41t-68 -109l-9 -35q-8 -41 -49 -41h-194q-16 0 -26 12t-7 29q41 224 166 342q125 119 313 119z" />
    <glyph glyph-name="three" unicode="3" horiz-adv-x="1054" 
d="M497 256q87 0 149 59t62 136q1 145 -145 145h-24q-16 0 -27 12q-10 12 -6 29l41 192q8 41 49 41h39q80 0 132 52t52 120q0 66 -37 101q-36 35 -100 35t-116 -42t-70 -110l-9 -31q-8 -41 -49 -41h-192q-39 0 -31 54q35 212 171 330t320 118t288 -103q105 -103 106 -268
q0 -109 -45 -185t-129 -142q-25 -18 -8 -37q74 -94 73 -229q0 -225 -151 -370q-152 -144 -356 -144t-328 132t-86 316l4 20q2 16 18 28t33 13h197q38 -1 25 -71t25 -115t125 -45z" />
    <glyph glyph-name="four" unicode="4" horiz-adv-x="1038" 
d="M811 1434h219q16 0 26 -12t7 -29l-182 -858q-4 -20 14 -21h76q16 0 26 -12t7 -29l-37 -176q-8 -41 -49 -41h-76q-20 0 -25 -20l-43 -195q-8 -41 -49 -41h-184q-16 0 -27 12q-10 12 -6 29l43 195q4 20 -16 20h-482q-16 0 -25 12t-5 29l36 197q7 26 50 77l653 834
q20 29 49 29zM373 514h225q20 0 27 21l106 446q2 10 -7 12t-15 -6l-342 -448q-19 -25 6 -25z" />
    <glyph glyph-name="five" unicode="5" horiz-adv-x="1103" 
d="M152 426h192q16 0 26 -12t7 -29q-16 -63 31 -96q48 -33 134 -33t154 84t68 176t-43 139t-116 47t-113 -44t-72 -44h-199q-16 0 -26 12t-7 29l158 738q8 41 49 41h729q16 0 26 -12t7 -29l-43 -197q-8 -41 -49 -41h-477q-20 0 -25 -20l-41 -191q-4 -18 7 -23t28 5
q57 35 115 35q166 0 267 -113t101 -301q0 -236 -156 -403t-364 -167q-207 1 -331 107t-87 301q10 41 50 41z" />
    <glyph glyph-name="six" unicode="6" horiz-adv-x="1097" 
d="M1077 1016h-174q-49 0 -49 41q-2 57 -37 94t-108 37q-141 0 -207 -146q-45 -106 -21 -122q12 -8 33 2q66 33 156 32q172 0 266 -114t94 -281q0 -246 -157 -414t-355 -168t-302 123q-103 123 -103 322q0 340 114 620q166 414 498 414q179 0 299 -120t102 -279
q-2 -17 -17 -29t-32 -12zM612 686q-104 0 -171 -80t-66 -184q0 -176 145 -176q115 0 175 89t61 197q-1 154 -144 154z" />
    <glyph glyph-name="seven" unicode="7" horiz-adv-x="935" 
d="M733 1157h-522q-16 0 -27 12q-10 12 -6 29l43 195q8 41 49 41h807q17 0 27 -12t6 -29l-53 -246q-2 -18 -19 -41l-614 -1075q-20 -31 -45 -31h-240q-25 0 -31 18t5 31l630 1088q12 20 -10 20z" />
    <glyph glyph-name="eight" unicode="8" horiz-adv-x="1099" 
d="M80 389q0 103 64 209t151 162q23 12 6 45q-63 113 -63 199q0 176 141 314t336 138t307 -108t113 -283q0 -84 -43 -168t-117 -139q-26 -18 -8 -45q66 -90 65 -242q0 -199 -150 -346t-357 -147q-205 0 -325 108q-120 109 -120 303zM660 860q76 0 140 55q62 55 62 146
q0 53 -41 92t-115 39t-138 -59t-64 -148q0 -53 40 -89t116 -36zM532 246q90 0 157 63t67 160q0 63 -43 102t-127 39t-158 -63t-74 -158q0 -59 44 -101t134 -42z" />
    <glyph glyph-name="nine" unicode="9" horiz-adv-x="1085" 
d="M139 422h166q49 0 49 -41q0 -59 37 -97t115 -38q211 0 264 233q6 23 -3 36t-38 3q-92 -31 -174 -31q-156 1 -253 101t-97 256t58 293t183 228t303 91q177 0 275 -122t98 -322q0 -150 -37 -348t-92 -338t-190 -244t-317 -104t-306 118q-125 119 -90 285q8 41 49 41z
M623 750q102 0 169 90t66 196q0 158 -141 158q-105 0 -167 -96t-63 -217q1 -131 136 -131z" />
    <glyph glyph-name="colon" unicode=":" horiz-adv-x="538" 
d="M373 0h-246q-16 0 -26 12q-9 12 -5 29l51 246q3 16 19 28t33 13h245q16 0 26 -12t5 -29l-51 -246q-4 -17 -20 -29t-31 -12z" />
    <glyph glyph-name="semicolon" unicode=";" horiz-adv-x="540" 
d="M123 -307h-41q-31 1 -39 25t12 53l154 202q6 11 1 19t-15 8h-50q-16 0 -25 12t-5 29l51 246q10 41 49 41h246q16 0 26 -12t7 -29l-52 -240q-14 -80 -73 -141l-168 -172q-37 -41 -78 -41z" />
    <glyph glyph-name="question" unicode="?" horiz-adv-x="538" 
d="M373 0h-246q-16 0 -26 12q-9 12 -5 29l51 246q3 16 19 28t33 13h245q16 0 26 -12t5 -29l-51 -246q-4 -17 -20 -29t-31 -12z" />
    <glyph glyph-name="A" unicode="A" horiz-adv-x="1124" 
d="M426 272q-23 0 -37 -30l-102 -211q-14 -31 -45 -31h-226q-22 0 -30 13t-2 28l655 1362q14 31 45 31h274q33 0 33 -31l74 -1362q0 -17 -13 -29t-36 -12h-203q-33 0 -33 31l-8 211q0 31 -24 30h-322zM745 559q20 0 21 23v491q0 8 -8 8h-4q-10 0 -13 -8l-206 -491
q-8 -23 12 -23h198z" />
    <glyph glyph-name="B" unicode="B" horiz-adv-x="1138" 
d="M535 883h223q70 0 112 46t43 102q0 56 -27 86q-28 30 -73 30h-223q-20 0 -25 -21l-47 -223q-3 -20 17 -20zM391 1434h483q146 0 236 -92t90 -236q0 -203 -170 -348q-27 -18 -8 -37q70 -74 70 -209q0 -216 -144 -364t-379 -148h-483q-16 0 -27 12q-10 12 -6 29l289 1352
q8 41 49 41zM696 596h-223q-20 0 -24 -21l-58 -268q-4 -20 17 -20h223q70 0 120 53q50 54 50 120q0 136 -105 136z" />
    <glyph glyph-name="C" unicode="C" horiz-adv-x="1150" 
d="M541 -23q-217 1 -332 131t-96 322q29 295 120 574q70 212 196 332t342 120t342 -130t97 -312q-10 -61 -75 -62h-166q-57 0 -49 52q18 164 -164 163q-88 0 -148 -46t-86 -117q-92 -279 -121 -574q-8 -72 33 -118t131 -46q178 0 234 164q14 51 71 51h166q65 0 49 -61
q-49 -197 -188 -320t-356 -123z" />
    <glyph glyph-name="D" unicode="D" horiz-adv-x="1159" 
d="M406 1434h352q213 0 332 -122t100 -308q-29 -295 -121 -574q-67 -206 -193 -318t-350 -112h-426q-27 0 -40 17t-7 44l279 1311q4 26 26 44t48 18zM737 1147h-137q-31 0 -37 -31l-170 -799q-6 -31 25 -30h129q184 0 233 143q92 279 121 574q16 143 -164 143z" />
    <glyph glyph-name="E" unicode="E" horiz-adv-x="1032" 
d="M412 287h485q17 -1 27 -13t6 -28l-45 -205q-8 -41 -49 -41h-752q-16 0 -26 12q-9 12 -5 29l287 1352q8 41 49 41h744q16 0 26 -12t6 -29l-45 -205q-8 -41 -49 -41h-477q-20 0 -25 -21l-51 -245q-4 -20 14 -21h461q17 0 27 -12t6 -29l-43 -205q-8 -41 -49 -41h-461
q-23 0 -27 -20l-51 -246q-4 -20 17 -20z" />
    <glyph glyph-name="F" unicode="F" horiz-adv-x="960" 
d="M289 0h-205q-16 0 -26 12q-9 12 -5 29l287 1352q8 41 49 41h717q16 0 26 -12t7 -29l-45 -205q-8 -41 -50 -41h-450q-20 0 -25 -21l-51 -245q-4 -20 14 -21h431q16 0 26 -12t6 -29l-43 -205q-8 -41 -49 -41h-430q-23 0 -27 -20l-108 -512q-8 -41 -49 -41z" />
    <glyph glyph-name="G" unicode="G" horiz-adv-x="1159" 
d="M672 535q-16 0 -27 12q-10 12 -6 28l41 195q8 41 49 41h399q16 0 26 -12t7 -29l-76 -350q-41 -197 -183 -320t-360 -123q-218 1 -333 131t-96 322q29 295 120 574q70 208 198 330t342 122t340 -130t97 -312q-10 -61 -75 -62h-166q-57 0 -49 52q18 164 -164 163
q-88 0 -148 -46t-86 -117q-92 -279 -121 -574q-8 -72 33 -118t137 -46t158 45t78 119l18 84q4 20 -14 21h-139z" />
    <glyph glyph-name="H" unicode="H" horiz-adv-x="1179" 
d="M844 860q23 0 26 21l109 512q8 41 49 41h205q17 0 27 -12t6 -29l-289 -1352q-8 -41 -49 -41h-205q-16 0 -27 12q-10 12 -6 29l109 512q4 20 -15 20h-311q-23 0 -27 -20l-108 -512q-2 -17 -22 -29t-37 -12h-195q-16 0 -26 12q-9 12 -5 29l287 1352q8 41 49 41h205
q16 0 26 -12t7 -29l-109 -512q-4 -20 14 -21h312z" />
    <glyph glyph-name="I" unicode="I" horiz-adv-x="540" 
d="M289 0h-205q-16 0 -26 12q-9 12 -5 29l287 1352q8 41 49 41h205q16 0 26 -12t7 -29l-289 -1352q-8 -41 -49 -41z" />
    <glyph glyph-name="J" unicode="J" horiz-adv-x="1069" 
d="M86 530h201q16 0 26 -12t6 -29l-12 -57q-14 -72 27 -119t131 -47q184 0 229 205l195 922q8 41 49 41h207q16 0 26 -12t7 -29l-205 -961q-43 -199 -175 -327t-345 -128q-213 -1 -341 133t-87 322l12 57q8 41 49 41z" />
    <glyph glyph-name="K" unicode="K" horiz-adv-x="1148" 
d="M289 0h-203q-16 0 -27 12q-10 12 -6 29l289 1352q8 41 49 41h203q16 0 26 -12t7 -29l-101 -471q0 -6 4 -12t15 5l459 498q20 20 49 21h204q29 0 38 -26t-11 -48l-557 -596q-31 -35 -14 -68l295 -618q12 -30 -3 -54t-57 -24h-188q-31 0 -41 25l-244 559q-5 10 -14 5
q-8 -5 -8 -11l-115 -537q-8 -41 -49 -41z" />
    <glyph glyph-name="L" unicode="L" horiz-adv-x="940" 
d="M412 287h430q16 -1 26 -13t6 -28l-45 -205q-8 -41 -49 -41h-696q-16 0 -26 12q-9 12 -5 29l287 1352q8 41 49 41h205q16 0 26 -12t7 -29l-232 -1086q-4 -20 17 -20z" />
    <glyph glyph-name="M" unicode="M" horiz-adv-x="1476" 
d="M1229 1434h301q16 0 26 -12t7 -29l-289 -1352q-8 -41 -49 -41h-172q-16 0 -27 12q-10 12 -6 29l164 772q2 10 -5 11t-12 -7l-374 -782q-18 -35 -52 -35h-170q-33 0 -34 35l-39 782q0 12 -10 7t-11 -11l-164 -772q-8 -41 -49 -41h-180q-16 0 -26 12q-9 12 -5 29l287 1352
q8 41 49 41h283q35 0 35 -35l38 -897q0 -8 9 -8h4q10 0 12 8l408 897q18 35 51 35z" />
    <glyph glyph-name="N" unicode="N" horiz-adv-x="1175" 
d="M924 0h-222q-43 0 -47 35l-147 719q0 6 -5 7q-12 2 -14 -11l-151 -709q-8 -41 -49 -41h-205q-16 0 -26 12q-9 12 -5 29l287 1352q8 41 49 41h223q39 0 43 -37l136 -779q0 -14 10 -8t10 13l164 770q8 41 49 41h205q16 0 26 -12t7 -29l-289 -1352q-8 -41 -49 -41z" />
    <glyph glyph-name="O" unicode="O" horiz-adv-x="1181" 
d="M771 1456q216 0 336 -132t101 -320q-29 -295 -121 -574q-69 -211 -195 -332t-347 -121q-221 1 -336 131t-96 322q29 295 120 574q70 212 196 332t342 120zM565 266q178 0 234 164q92 279 121 574q8 72 -33 118t-130 45q-89 0 -149 -46t-86 -117q-92 -279 -121 -574
q-8 -72 33 -118t131 -46z" />
    <glyph glyph-name="P" unicode="P" horiz-adv-x="1060" 
d="M780 1147h-184q-20 0 -25 -21l-51 -245q-4 -20 15 -21h184q72 0 124 49t52 117q0 121 -115 121zM391 1434h430q153 0 261 -102t108 -247q0 -239 -156 -375t-375 -137h-184q-23 0 -26 -20l-109 -512q-8 -41 -49 -41h-205q-16 0 -27 12q-10 12 -6 29l289 1352q8 41 49 41z
" />
    <glyph glyph-name="Q" unicode="Q" horiz-adv-x="1181" 
d="M717 -184q-35 0 -62 49l-51 88q-14 25 -39 24h-20q-221 1 -336 131t-96 322q29 295 120 574q70 212 196 332t342 120t336 -132t101 -320q-29 -296 -117 -558t-221 -364q-31 -23 -18 -45l74 -141q16 -20 4 -50t-58 -30h-155zM565 266q178 0 234 164q92 279 121 574
q8 72 -33 118t-130 45q-89 0 -149 -46t-86 -117q-92 -279 -121 -574q-8 -72 33 -118t131 -46z" />
    <glyph glyph-name="R" unicode="R" horiz-adv-x="1110" 
d="M780 1147h-184q-20 0 -25 -21l-51 -245q-4 -20 15 -21h184q72 0 124 49t52 117q0 121 -115 121zM528 573h-53q-23 0 -26 -20l-109 -512q-8 -41 -49 -41h-205q-16 0 -27 12q-10 12 -6 29l289 1352q8 41 49 41h430q153 0 261 -102t108 -262t-86 -280t-230 -178
q-43 -18 -26 -67l176 -484q8 -25 -6 -43t-45 -18h-195q-37 0 -51 41l-168 506q-6 26 -31 26z" />
    <glyph glyph-name="S" unicode="S" horiz-adv-x="1112" 
d="M137 528h207q18 0 28 -12t5 -29q-37 -97 18 -163t149 -66t158 53q66 53 66 125t-47 104q-47 34 -154 60q-188 45 -273 139t-85 254q0 203 157 333t373 130q215 0 341 -137t73 -326q-10 -41 -49 -41h-207q-17 0 -27 12t-6 29l6 31q14 63 -25 109q-40 45 -129 45
q-90 0 -148 -44t-58 -110q0 -32 10 -56t42 -41t45 -25t65 -21q216 -58 309 -150q92 -92 92 -239q0 -217 -150 -366q-151 -148 -396 -148t-378 146t-61 363q14 41 49 41z" />
    <glyph glyph-name="T" unicode="T" horiz-adv-x="950" 
d="M498 1147h-267q-16 0 -26 12t-6 29l45 205q8 41 49 41h840q16 0 26 -12t6 -29l-45 -205q-8 -41 -49 -41h-246q-20 0 -24 -21l-232 -1085q-8 -41 -49 -41h-205q-16 0 -26 12t-6 29l231 1085q4 21 -16 21z" />
    <glyph glyph-name="U" unicode="U" horiz-adv-x="1189" 
d="M1059 1434h207q16 0 26 -12t6 -29l-204 -963q-44 -199 -182 -326t-355 -127q-217 1 -345 135t-89 318l205 963q8 41 49 41h207q16 0 26 -12t6 -29l-204 -963q-14 -70 28 -117t136 -47q93 0 154 46t75 118l205 963q8 41 49 41z" />
    <glyph glyph-name="V" unicode="V" horiz-adv-x="1097" 
d="M614 0h-309q-33 0 -33 31l-45 1353q-1 18 13 34t36 16h205q33 0 33 -31l21 -961q0 -14 12 -14h12q10 0 16 14l429 961q14 31 45 31h225q23 0 31 -17t-2 -33l-644 -1353q-16 -31 -45 -31z" />
    <glyph glyph-name="W" unicode="W" horiz-adv-x="1603" 
d="M555 0h-285q-33 0 -32 31l20 1362q0 41 49 41h187q33 0 32 -31l-24 -903q0 -14 10 -15h12q12 0 19 15l329 903q12 31 46 31h204q14 0 24 -8t9 -23l-53 -903q0 -14 10 -15h12q12 0 19 15l360 903q10 31 45 31h199q23 0 31 -12t2 -29l-568 -1362q-12 -31 -45 -31h-284
q-33 0 -33 31l29 665q2 12 -10 13q-11 0 -15 -13l-254 -665q-12 -31 -45 -31z" />
    <glyph glyph-name="X" unicode="X" horiz-adv-x="1110" 
d="M606 487h-4q-8 0 -12 -8l-287 -448q-20 -31 -49 -31h-260q-20 0 -28 18q-7 18 7 39l467 674q16 25 11 45l-205 600q-8 20 8 38t37 20h215q25 0 33 -31l133 -399q0 -8 8 -9h4q4 0 12 9l248 399q20 31 45 31h248q19 0 27 -18t-7 -40l-423 -598q-16 -23 -9 -45l248 -676
q8 -17 -8 -37t-37 -20h-221q-27 0 -37 31l-156 448q-4 8 -8 8z" />
    <glyph glyph-name="Y" unicode="Y" horiz-adv-x="1021" 
d="M977 1434h223q20 0 28 -18t-7 -40l-557 -913l-91 -422q-8 -41 -49 -41h-205q-16 0 -26 12t-6 29l90 422l-168 913q-4 23 10 40t35 18h205q27 0 33 -31l88 -567q0 -8 8 -9h4q6 1 12 9l328 567q16 31 45 31z" />
    <glyph glyph-name="Z" unicode="Z" horiz-adv-x="1073" 
d="M401 281h539q16 -1 26 -13t7 -28l-43 -199q-8 -41 -49 -41h-856q-16 0 -27 12q-10 12 -6 29l47 223q2 16 16 33l738 836q16 20 -9 20h-485q-16 0 -27 12q-10 12 -6 29l43 199q8 41 49 41h797q17 0 27 -12t6 -29l-51 -238q-3 -17 -17 -33l-727 -821q-16 -20 8 -20z" />
    <glyph glyph-name="underscore" unicode="_" horiz-adv-x="845" 
d="M223 690h559q16 0 26 -12t7 -29l-43 -203q-8 -41 -49 -40h-559q-16 0 -27 12q-10 12 -6 28l43 203q8 41 49 41z" />
    <glyph glyph-name="a" unicode="a" 
d="M715 0q-30 0 -28 41t-17 41q-12 0 -38 -26t-79 -52t-129 -24q-139 0 -238 113q-98 114 -98 288q0 272 141 467t371 194q131 0 201 -94q23 -26 33 -26t18 16l25 59q12 27 30 27h152q16 0 26 -12t7 -29l-203 -942q-8 -41 -49 -41h-125zM743 616q0 162 -137 162
q-127 0 -184 -112t-57 -222q-1 -108 35 -153t111 -45t132 64q100 114 100 306z" />
    <glyph glyph-name="b" unicode="b" horiz-adv-x="1054" 
d="M520 -23q-88 0 -156 35t-93 35q-24 1 -44 -23t-39 -24h-102q-16 0 -27 12q-10 12 -6 29l293 1372q8 41 49 41h185q18 0 27 -12t5 -29l-73 -348q-8 -33 8 -43t59 6t99 16q153 2 245 -110t79 -272q-13 -158 -67 -321t-159 -263t-283 -101zM444 666q-51 -135 -63 -308
q-4 -57 28 -88t105 -30q141 0 184 118q55 160 64 308q4 55 -29 87t-106 31q-140 1 -183 -118z" />
    <glyph glyph-name="c" unicode="c" horiz-adv-x="1005" 
d="M899 420q66 0 47 -62q-111 -381 -469 -381q-186 0 -292 108q-105 107 -92 275t67 329t158 259q103 98 297 98t304 -110q110 -111 87 -270q-10 -61 -74 -62h-141q-59 0 -51 58t-26 91q-34 32 -110 31q-139 0 -186 -126t-60 -300q-4 -57 28 -88t106 -30q145 -1 184 118
q20 61 76 62h147z" />
    <glyph glyph-name="d" unicode="d" horiz-adv-x="1075" 
d="M420 -20q-166 0 -253 110t-74 270t67 319t168 263q115 104 272 105q62 -1 108 -21t58 -20q39 0 49 41l84 366q10 41 49 41h180q41 0 33 -41l-293 -1372q-8 -41 -49 -41h-102q-20 0 -27 14q-16 33 -38 33q-22 1 -90 -33t-142 -34zM424 666q-51 -135 -64 -308
q-4 -57 28 -88t106 -30q141 0 184 118q55 160 63 308q4 55 -28 87q-33 32 -107 31q-139 1 -182 -118z" />
    <glyph glyph-name="e" unicode="e" horiz-adv-x="1030" 
d="M909 430h-526q-31 0 -37 -31q-18 -82 24 -128t119 -46q131 0 181 86q18 35 53 35h170q41 0 27 -41q-118 -327 -460 -327q-182 0 -281 106t-87 262t68 324t175 272q117 104 299 104t292 -108q110 -109 69 -297l-37 -170q-10 -41 -49 -41zM612 805q-170 0 -204 -129
q-6 -18 16 -19h311q18 0 25 19q34 129 -148 129z" />
    <glyph glyph-name="f" unicode="f" horiz-adv-x="811" 
d="M909 1188h-123q-121 0 -145 -113l-8 -37q-4 -20 16 -20h246q15 0 25 -12t6 -29l-35 -164q-8 -41 -49 -41h-246q-20 0 -25 -20l-151 -711q-8 -41 -49 -41h-185q-16 0 -26 12t-6 29l151 711q4 20 -16 20h-164q-16 0 -27 12q-10 12 -6 29l35 164q4 17 19 29t32 12h164
q20 0 25 20l8 41q39 195 139 285t289 90h164q16 0 26 -12t6 -29l-38 -184q-4 -17 -20 -29t-32 -12z" />
    <glyph glyph-name="g" unicode="g" horiz-adv-x="1085" 
d="M297 -92v-17q0 -88 127 -88q72 0 130 45t64 109l3 20q2 25 -21 31q-22 6 -64 -12t-98 -16q-154 -2 -246 110t-78 272q13 158 67 321t159 263t283 101q89 0 157 -35t92 -35q24 -1 44 23t38 24h103q16 0 26 -12t7 -29l-224 -1044q-82 -379 -450 -379q-193 0 -288 93
t-77 245q1 16 17 28t32 13h154q21 -1 28 -5t11 -5q4 -2 4 -21zM698 358q51 135 64 308q4 57 -28 88t-105 30q-141 0 -185 -118q-55 -160 -63 -308q-4 -55 29 -87t106 -31q139 -1 182 118z" />
    <glyph glyph-name="h" unicode="h" horiz-adv-x="1073" 
d="M268 0h-184q-16 0 -26 12q-9 12 -5 29l291 1372q8 41 49 41h185q16 0 26 -12t6 -29l-73 -348q-6 -27 7 -40q14 -13 66 5t107 17q162 0 251 -111t56 -270l-133 -625q-8 -41 -49 -41h-185q-16 0 -26 12t-6 29l133 625q10 53 -23 88q-33 34 -105 34t-120 -34
q-49 -34 -59 -88l-134 -625q-8 -41 -49 -41z" />
    <glyph glyph-name="i" unicode="i" horiz-adv-x="514" 
d="M295 1024h201q14 0 22 -10t4 -23l-205 -958q-8 -33 -38 -33h-201q-12 0 -21 10q-8 11 -4 23l203 958q8 33 39 33zM537 1167h-222q-33 0 -24 33l47 221q8 33 39 33h221q14 0 23 -10q8 -11 4 -23l-47 -221q-8 -33 -41 -33z" />
    <glyph glyph-name="j" unicode="j" horiz-adv-x="606" 
d="M608 1167h-221q-29 0 -27 33l48 221q8 33 41 33h221q14 0 21 -10t3 -23l-47 -221q-8 -33 -39 -33zM375 1024h184q17 0 27 -12t6 -29l-221 -1044q-43 -201 -145 -290t-339 -89h-98q-16 0 -27 12q-10 12 -6 29l35 161q10 41 49 41h86q80 0 120 28t58 108l222 1044
q8 41 49 41z" />
    <glyph glyph-name="k" unicode="k" horiz-adv-x="970" 
d="M864 0h-182q-30 0 -42 24q-3 5 -5 7l-221 354q-5 10 -14 5t-9 -11l-72 -338q-8 -41 -49 -41h-184q-16 0 -27 12q-10 12 -6 29l293 1372q8 41 49 41h185q16 0 26 -12t6 -29l-147 -702q0 -6 4 -13t14 7l279 292q23 27 55 27h193q32 0 40 -22t-10 -41l-395 -410
q-31 -31 -10 -62l276 -421q14 -20 0 -44t-47 -24z" />
    <glyph glyph-name="l" unicode="l" horiz-adv-x="524" 
d="M268 0h-184q-16 0 -26 12q-9 12 -5 29l291 1372q8 41 49 41h185q16 0 26 -12t6 -29l-293 -1372q-8 -41 -49 -41z" />
    <glyph glyph-name="m" unicode="m" horiz-adv-x="1589" 
d="M813 0h-184q-16 0 -27 12q-10 12 -6 29l133 627q12 53 -15 87q-28 33 -91 33t-111 -31q-47 -32 -57 -81l-136 -635q-8 -41 -49 -41h-184q-16 0 -27 12q-10 12 -6 29l201 942q8 41 49 41h103q25 0 37 -20t19 -26q8 -7 28 -7t82 38t133 38q125 0 208 -76q37 -33 93 0
q2 0 46 26q76 45 169 50q164 0 258 -111t59 -270l-133 -625q-8 -41 -49 -41h-185q-16 0 -26 12t-6 29l133 627q12 53 -16 87q-28 33 -91 33t-111 -36t-59 -86l-133 -625q-8 -41 -49 -41z" />
    <glyph glyph-name="n" unicode="n" horiz-adv-x="1077" 
d="M270 0h-184q-16 0 -27 12q-10 12 -6 29l201 942q10 41 49 41h103q25 0 32 -10q7 -9 18 -24t33 -15q21 0 91 36t139 36q162 0 252 -111t55 -270l-133 -625q-8 -41 -49 -41h-185q-16 0 -26 12t-6 29l133 627q10 53 -23 87q-33 33 -103 33t-120 -32q-49 -32 -59 -80
l-136 -635q-8 -41 -49 -41z" />
    <glyph glyph-name="o" unicode="o" horiz-adv-x="1034" 
d="M778 78q-109 -100 -297 -100q-187 0 -293 108t-94 271t66 326t165 263q110 100 297 100t293 -108q105 -110 93 -272t-66 -325t-164 -263zM424 666q-51 -135 -64 -308q-4 -57 28 -88t106 -30q141 0 184 118q55 160 63 308q4 55 -28 87q-33 32 -107 31q-139 1 -182 -118z
" />
    <glyph glyph-name="p" unicode="p" horiz-adv-x="1060" 
d="M709 1044q166 0 253 -110q88 -110 74 -270t-67 -319t-168 -263t-273 -105q-63 1 -108 21t-58 20q-39 0 -49 -41l-80 -346q-10 -41 -49 -41h-180q-41 0 -33 41l289 1352q8 41 49 41h103q18 0 26 -14q16 -33 38 -33q22 -1 91 33q68 34 142 34zM705 358q51 135 63 308
q4 57 -28 88t-105 30q-141 0 -184 -118q-55 -160 -64 -308q-4 -55 29 -87t106 -31q140 -1 183 118z" />
    <glyph glyph-name="q" unicode="q" horiz-adv-x="1064" 
d="M602 1047q88 0 157 -35t93 -35q24 -1 43 23q20 24 39 24h102q16 0 26 -12t7 -29l-289 -1352q-8 -41 -49 -41h-184q-41 0 -33 41l70 328q8 33 -8 43t-60 -6q-43 -16 -98 -16q-154 -2 -246 110t-79 272q13 158 67 321t160 263q104 100 282 101zM678 358q51 135 63 308
q8 120 -133 119t-184 -119q-55 -160 -64 -308q-4 -55 29 -87t107 -31q139 -1 182 118z" />
    <glyph glyph-name="r" unicode="r" horiz-adv-x="776" 
d="M479 911q23 0 55 28q32 29 98 57t165 28h69q16 0 26 -12t5 -29l-35 -164q-8 -41 -49 -41h-72q-137 0 -214 -60t-105 -188l-103 -489q-4 -17 -19 -29t-32 -12h-184q-16 0 -26 12q-9 12 -5 29l199 942q4 17 19 29t32 12h103q33 0 36 -27q0 -86 37 -86z" />
    <glyph glyph-name="s" unicode="s" horiz-adv-x="1015" 
d="M938 348q0 -162 -139 -266t-331 -104t-312 88q-121 90 -97 249q10 61 74 62h133q35 0 45 -11t6 -40q-6 -57 37 -82t126 -25t144 30q60 30 60 79q0 31 -24 43t-45 22q-22 10 -78 18q-56 9 -62 9q-309 51 -309 297q0 131 133 230t306 99t293 -88t93 -221q-8 -37 -22 -49
t-43 -12h-142q-40 0 -37 49t-38 73t-111 24t-123 -28q-53 -26 -53 -78t68 -67q68 -16 115 -21q91 -9 179 -44q87 -35 129 -122q25 -50 25 -114z" />
    <glyph glyph-name="t" unicode="t" horiz-adv-x="829" 
d="M655 1018h226q16 0 26 -12t6 -29l-34 -164q-3 -17 -19 -29t-33 -12h-225q-18 0 -24 -20l-78 -373q-27 -123 96 -123h143q17 0 27 -12t6 -29l-39 -174q-8 -41 -49 -41h-143q-209 0 -282 88t-28 287l80 377q6 20 -16 20h-160q-16 0 -25 12t-6 29l35 164q8 41 49 41h160
q20 0 25 20l67 314q8 41 49 41h185q16 -1 26 -13t7 -28l-68 -314q-4 -20 16 -20z" />
    <glyph glyph-name="u" unicode="u" 
d="M870 1024h185q16 0 26 -12t6 -29l-200 -942q-8 -41 -49 -41h-103q-25 0 -41 25t-40 25t-94 -37q-70 -36 -138 -36q-162 0 -252 111t-55 270l133 625q8 41 49 41h184q16 0 27 -12q10 -13 6 -29l-133 -627q-9 -53 23 -87q32 -33 103 -33t120 32t59 80l135 635q8 41 49 41z
" />
    <glyph glyph-name="v" unicode="v" horiz-adv-x="1044" 
d="M915 1024h207q23 0 31 -16t-2 -31l-549 -946q-16 -31 -47 -31h-217q-25 0 -31 31l-151 946q-4 15 11 31t38 16h196q29 0 31 -31l84 -583q2 -10 10 -12q9 0 13 10l329 585q16 31 47 31z" />
    <glyph glyph-name="w" unicode="w" horiz-adv-x="1447" 
d="M752 1024h206q31 0 31 -31v-602q0 -15 15 -9q6 3 8 9l278 602q14 31 47 31h181q22 0 30 -16t-2 -31l-463 -946q-14 -31 -47 -31h-233q-31 0 -31 31l-12 475q0 10 -9 11t-12 -7l-202 -479q-12 -31 -48 -31h-227q-29 0 -31 31l-67 946q-2 15 12 31t37 16h170q31 0 31 -31
l24 -602q0 -15 15 -9q6 3 8 9l244 602q14 31 47 31z" />
    <glyph glyph-name="x" unicode="x" horiz-adv-x="1011" 
d="M236 0h-220q-30 0 -34 20t16 48l344 442q20 23 10 45l-172 401q-10 28 4 48t43 20h179q33 0 40 -20l107 -256q8 -23 25 0l196 256q16 20 49 20h203q29 0 34 -20t-16 -48l-327 -401q-18 -20 -10 -45l196 -442q10 -28 -4 -48t-43 -20h-192q-33 0 -41 20l-111 291
q-8 25 -25 0l-202 -291q-16 -20 -49 -20z" />
    <glyph glyph-name="y" unicode="y" horiz-adv-x="1001" 
d="M215 1024h193q31 0 32 -31l74 -581q2 -12 10 -13q8 0 15 13l290 581q14 31 45 31h207q23 0 31 -16t-2 -31l-594 -1086q-164 -301 -508 -301h-57q-17 0 -27 12t-6 29l35 162q10 41 49 41h78q119 0 174 98l49 88q12 23 8 46l-145 911q-4 15 11 31t38 16z" />
    <glyph glyph-name="z" unicode="z" horiz-adv-x="974" 
d="M623 778h-414q-17 0 -27 12t-6 29l35 164q2 17 18 29t33 12h713q16 0 25 -12t6 -29l-37 -178q-8 -37 -60 -84l-512 -455q-8 -8 -6 -14t12 -6h437q16 0 26 -12t6 -29l-34 -164q-2 -17 -18 -29t-34 -12h-761q-16 0 -26 12q-9 12 -5 29l33 170q7 38 36 63l566 484q8 8 6 14
t-12 6z" />
    <glyph glyph-name="Agrave" unicode="&#xc0;" horiz-adv-x="1124" 
d="M426 272q-23 0 -37 -30l-102 -211q-14 -31 -45 -31h-226q-22 0 -30 13t-2 28l655 1362q14 31 45 31h274q33 0 33 -31l74 -1362q0 -17 -13 -29t-36 -12h-203q-33 0 -33 31l-8 211q0 31 -24 30h-322zM745 559q20 0 21 23v491q0 8 -8 8h-4q-10 0 -13 -8l-206 -491
q-8 -23 12 -23h198z" />
    <glyph glyph-name="Aacute" unicode="&#xc1;" horiz-adv-x="1124" 
d="M426 272q-23 0 -37 -30l-102 -211q-14 -31 -45 -31h-226q-22 0 -30 13t-2 28l655 1362q14 31 45 31h274q33 0 33 -31l74 -1362q0 -17 -13 -29t-36 -12h-203q-33 0 -33 31l-8 211q0 31 -24 30h-322zM745 559q20 0 21 23v491q0 8 -8 8h-4q-10 0 -13 -8l-206 -491
q-8 -23 12 -23h198z" />
    <glyph glyph-name="Acircumflex" unicode="&#xc2;" horiz-adv-x="1124" 
d="M426 272q-23 0 -37 -30l-102 -211q-14 -31 -45 -31h-226q-22 0 -30 13t-2 28l655 1362q14 31 45 31h274q33 0 33 -31l74 -1362q0 -17 -13 -29t-36 -12h-203q-33 0 -33 31l-8 211q0 31 -24 30h-322zM745 559q20 0 21 23v491q0 8 -8 8h-4q-10 0 -13 -8l-206 -491
q-8 -23 12 -23h198z" />
    <glyph glyph-name="Atilde" unicode="&#xc3;" horiz-adv-x="1124" 
d="M426 272q-23 0 -37 -30l-102 -211q-14 -31 -45 -31h-226q-22 0 -30 13t-2 28l655 1362q14 31 45 31h274q33 0 33 -31l74 -1362q0 -17 -13 -29t-36 -12h-203q-33 0 -33 31l-8 211q0 31 -24 30h-322zM745 559q20 0 21 23v491q0 8 -8 8h-4q-10 0 -13 -8l-206 -491
q-8 -23 12 -23h198z" />
    <glyph glyph-name="Adieresis" unicode="&#xc4;" horiz-adv-x="1124" 
d="M426 272q-23 0 -37 -30l-102 -211q-14 -31 -45 -31h-226q-22 0 -30 13t-2 28l655 1362q14 31 45 31h274q33 0 33 -31l74 -1362q0 -17 -13 -29t-36 -12h-203q-33 0 -33 31l-8 211q0 31 -24 30h-322zM745 559q20 0 21 23v491q0 8 -8 8h-4q-10 0 -13 -8l-206 -491
q-8 -23 12 -23h198z" />
    <glyph glyph-name="Aring" unicode="&#xc5;" horiz-adv-x="1124" 
d="M426 272q-23 0 -37 -30l-102 -211q-14 -31 -45 -31h-226q-22 0 -30 13t-2 28l655 1362q14 31 45 31h274q33 0 33 -31l74 -1362q0 -17 -13 -29t-36 -12h-203q-33 0 -33 31l-8 211q0 31 -24 30h-322zM745 559q20 0 21 23v491q0 8 -8 8h-4q-10 0 -13 -8l-206 -491
q-8 -23 12 -23h198z" />
    <glyph glyph-name="AE" unicode="&#xc6;" horiz-adv-x="2156" 
d="M1536 287h485q17 -1 27 -13t6 -28l-45 -205q-8 -41 -49 -41h-752q-16 0 -25 12t-5 29l286 1352q8 41 49 41h744q17 0 27 -12t6 -29l-45 -205q-8 -41 -50 -41h-477q-20 0 -24 -21l-52 -245q-4 -20 15 -21h461q16 0 26 -12t6 -29l-43 -205q-8 -41 -49 -41h-461
q-22 0 -26 -20l-51 -246q-4 -20 16 -20zM426 272q-23 0 -37 -30l-102 -211q-14 -31 -45 -31h-226q-22 0 -30 13t-2 28l655 1362q14 31 45 31h274q33 0 33 -31l74 -1362q0 -17 -13 -29t-36 -12h-203q-33 0 -33 31l-8 211q0 31 -24 30h-322zM745 559q20 0 21 23v491q0 8 -8 8
h-4q-10 0 -13 -8l-206 -491q-8 -23 12 -23h198z" />
    <glyph glyph-name="Ccedilla" unicode="&#xc7;" horiz-adv-x="1150" 
d="M541 -23q-217 1 -332 131t-96 322q29 295 120 574q70 212 196 332t342 120t342 -130t97 -312q-10 -61 -75 -62h-166q-57 0 -49 52q18 164 -164 163q-88 0 -148 -46t-86 -117q-92 -279 -121 -574q-8 -72 33 -118t131 -46q178 0 234 164q14 51 71 51h166q65 0 49 -61
q-49 -197 -188 -320t-356 -123z" />
    <glyph glyph-name="Egrave" unicode="&#xc8;" horiz-adv-x="1032" 
d="M412 287h485q17 -1 27 -13t6 -28l-45 -205q-8 -41 -49 -41h-752q-16 0 -26 12q-9 12 -5 29l287 1352q8 41 49 41h744q16 0 26 -12t6 -29l-45 -205q-8 -41 -49 -41h-477q-20 0 -25 -21l-51 -245q-4 -20 14 -21h461q17 0 27 -12t6 -29l-43 -205q-8 -41 -49 -41h-461
q-23 0 -27 -20l-51 -246q-4 -20 17 -20z" />
    <glyph glyph-name="Eacute" unicode="&#xc9;" horiz-adv-x="1032" 
d="M412 287h485q17 -1 27 -13t6 -28l-45 -205q-8 -41 -49 -41h-752q-16 0 -26 12q-9 12 -5 29l287 1352q8 41 49 41h744q16 0 26 -12t6 -29l-45 -205q-8 -41 -49 -41h-477q-20 0 -25 -21l-51 -245q-4 -20 14 -21h461q17 0 27 -12t6 -29l-43 -205q-8 -41 -49 -41h-461
q-23 0 -27 -20l-51 -246q-4 -20 17 -20z" />
    <glyph glyph-name="Ecircumflex" unicode="&#xca;" horiz-adv-x="1032" 
d="M412 287h485q17 -1 27 -13t6 -28l-45 -205q-8 -41 -49 -41h-752q-16 0 -26 12q-9 12 -5 29l287 1352q8 41 49 41h744q16 0 26 -12t6 -29l-45 -205q-8 -41 -49 -41h-477q-20 0 -25 -21l-51 -245q-4 -20 14 -21h461q17 0 27 -12t6 -29l-43 -205q-8 -41 -49 -41h-461
q-23 0 -27 -20l-51 -246q-4 -20 17 -20z" />
    <glyph glyph-name="Edieresis" unicode="&#xcb;" horiz-adv-x="1032" 
d="M412 287h485q17 -1 27 -13t6 -28l-45 -205q-8 -41 -49 -41h-752q-16 0 -26 12q-9 12 -5 29l287 1352q8 41 49 41h744q16 0 26 -12t6 -29l-45 -205q-8 -41 -49 -41h-477q-20 0 -25 -21l-51 -245q-4 -20 14 -21h461q17 0 27 -12t6 -29l-43 -205q-8 -41 -49 -41h-461
q-23 0 -27 -20l-51 -246q-4 -20 17 -20z" />
    <glyph glyph-name="Igrave" unicode="&#xcc;" horiz-adv-x="540" 
d="M289 0h-205q-16 0 -26 12q-9 12 -5 29l287 1352q8 41 49 41h205q16 0 26 -12t7 -29l-289 -1352q-8 -41 -49 -41z" />
    <glyph glyph-name="Iacute" unicode="&#xcd;" horiz-adv-x="540" 
d="M289 0h-205q-16 0 -26 12q-9 12 -5 29l287 1352q8 41 49 41h205q16 0 26 -12t7 -29l-289 -1352q-8 -41 -49 -41z" />
    <glyph glyph-name="Icircumflex" unicode="&#xce;" horiz-adv-x="540" 
d="M289 0h-205q-16 0 -26 12q-9 12 -5 29l287 1352q8 41 49 41h205q16 0 26 -12t7 -29l-289 -1352q-8 -41 -49 -41z" />
    <glyph glyph-name="Idieresis" unicode="&#xcf;" horiz-adv-x="540" 
d="M289 0h-205q-16 0 -26 12q-9 12 -5 29l287 1352q8 41 49 41h205q16 0 26 -12t7 -29l-289 -1352q-8 -41 -49 -41z" />
    <glyph glyph-name="Eth" unicode="&#xd0;" horiz-adv-x="1159" 
d="M406 1434h352q213 0 332 -122t100 -308q-29 -295 -121 -574q-67 -206 -193 -318t-350 -112h-426q-27 0 -40 17t-7 44l279 1311q4 26 26 44t48 18zM737 1147h-137q-31 0 -37 -31l-170 -799q-6 -31 25 -30h129q184 0 233 143q92 279 121 574q16 143 -164 143z" />
    <glyph glyph-name="Ntilde" unicode="&#xd1;" horiz-adv-x="1175" 
d="M924 0h-222q-43 0 -47 35l-147 719q0 6 -5 7q-12 2 -14 -11l-151 -709q-8 -41 -49 -41h-205q-16 0 -26 12q-9 12 -5 29l287 1352q8 41 49 41h223q39 0 43 -37l136 -779q0 -14 10 -8t10 13l164 770q8 41 49 41h205q16 0 26 -12t7 -29l-289 -1352q-8 -41 -49 -41z" />
    <glyph glyph-name="Ograve" unicode="&#xd2;" horiz-adv-x="1181" 
d="M771 1456q216 0 336 -132t101 -320q-29 -295 -121 -574q-69 -211 -195 -332t-347 -121q-221 1 -336 131t-96 322q29 295 120 574q70 212 196 332t342 120zM565 266q178 0 234 164q92 279 121 574q8 72 -33 118t-130 45q-89 0 -149 -46t-86 -117q-92 -279 -121 -574
q-8 -72 33 -118t131 -46z" />
    <glyph glyph-name="Oacute" unicode="&#xd3;" horiz-adv-x="1181" 
d="M771 1456q216 0 336 -132t101 -320q-29 -295 -121 -574q-69 -211 -195 -332t-347 -121q-221 1 -336 131t-96 322q29 295 120 574q70 212 196 332t342 120zM565 266q178 0 234 164q92 279 121 574q8 72 -33 118t-130 45q-89 0 -149 -46t-86 -117q-92 -279 -121 -574
q-8 -72 33 -118t131 -46z" />
    <glyph glyph-name="Ocircumflex" unicode="&#xd4;" horiz-adv-x="1181" 
d="M771 1456q216 0 336 -132t101 -320q-29 -295 -121 -574q-69 -211 -195 -332t-347 -121q-221 1 -336 131t-96 322q29 295 120 574q70 212 196 332t342 120zM565 266q178 0 234 164q92 279 121 574q8 72 -33 118t-130 45q-89 0 -149 -46t-86 -117q-92 -279 -121 -574
q-8 -72 33 -118t131 -46z" />
    <glyph glyph-name="Otilde" unicode="&#xd5;" horiz-adv-x="1181" 
d="M771 1456q216 0 336 -132t101 -320q-29 -295 -121 -574q-69 -211 -195 -332t-347 -121q-221 1 -336 131t-96 322q29 295 120 574q70 212 196 332t342 120zM565 266q178 0 234 164q92 279 121 574q8 72 -33 118t-130 45q-89 0 -149 -46t-86 -117q-92 -279 -121 -574
q-8 -72 33 -118t131 -46z" />
    <glyph glyph-name="Odieresis" unicode="&#xd6;" horiz-adv-x="1181" 
d="M771 1456q216 0 336 -132t101 -320q-29 -295 -121 -574q-69 -211 -195 -332t-347 -121q-221 1 -336 131t-96 322q29 295 120 574q70 212 196 332t342 120zM565 266q178 0 234 164q92 279 121 574q8 72 -33 118t-130 45q-89 0 -149 -46t-86 -117q-92 -279 -121 -574
q-8 -72 33 -118t131 -46z" />
    <glyph glyph-name="Oslash" unicode="&#xd8;" horiz-adv-x="1181" 
d="M771 1456q216 0 336 -132t101 -320q-29 -295 -121 -574q-69 -211 -195 -332t-347 -121q-221 1 -336 131t-96 322q29 295 120 574q70 212 196 332t342 120zM565 266q178 0 234 164q92 279 121 574q8 72 -33 118t-130 45q-89 0 -149 -46t-86 -117q-92 -279 -121 -574
q-8 -72 33 -118t131 -46z" />
    <glyph glyph-name="Ugrave" unicode="&#xd9;" horiz-adv-x="1189" 
d="M1059 1434h207q16 0 26 -12t6 -29l-204 -963q-44 -199 -182 -326t-355 -127q-217 1 -345 135t-89 318l205 963q8 41 49 41h207q16 0 26 -12t6 -29l-204 -963q-14 -70 28 -117t136 -47q93 0 154 46t75 118l205 963q8 41 49 41z" />
    <glyph glyph-name="Uacute" unicode="&#xda;" horiz-adv-x="1189" 
d="M1059 1434h207q16 0 26 -12t6 -29l-204 -963q-44 -199 -182 -326t-355 -127q-217 1 -345 135t-89 318l205 963q8 41 49 41h207q16 0 26 -12t6 -29l-204 -963q-14 -70 28 -117t136 -47q93 0 154 46t75 118l205 963q8 41 49 41z" />
    <glyph glyph-name="Ucircumflex" unicode="&#xdb;" horiz-adv-x="1189" 
d="M1059 1434h207q16 0 26 -12t6 -29l-204 -963q-44 -199 -182 -326t-355 -127q-217 1 -345 135t-89 318l205 963q8 41 49 41h207q16 0 26 -12t6 -29l-204 -963q-14 -70 28 -117t136 -47q93 0 154 46t75 118l205 963q8 41 49 41z" />
    <glyph glyph-name="Udieresis" unicode="&#xdc;" horiz-adv-x="1189" 
d="M1059 1434h207q16 0 26 -12t6 -29l-204 -963q-44 -199 -182 -326t-355 -127q-217 1 -345 135t-89 318l205 963q8 41 49 41h207q16 0 26 -12t6 -29l-204 -963q-14 -70 28 -117t136 -47q93 0 154 46t75 118l205 963q8 41 49 41z" />
    <glyph glyph-name="Yacute" unicode="&#xdd;" horiz-adv-x="1021" 
d="M977 1434h223q20 0 28 -18t-7 -40l-557 -913l-91 -422q-8 -41 -49 -41h-205q-16 0 -26 12t-6 29l90 422l-168 913q-4 23 10 40t35 18h205q27 0 33 -31l88 -567q0 -8 8 -9h4q6 1 12 9l328 567q16 31 45 31z" />
    <glyph glyph-name="Thorn" unicode="&#xde;" horiz-adv-x="1060" 
d="M780 1147h-184q-20 0 -25 -21l-51 -245q-4 -20 15 -21h184q72 0 124 49t52 117q0 121 -115 121zM391 1434h430q153 0 261 -102t108 -247q0 -239 -156 -375t-375 -137h-184q-23 0 -26 -20l-109 -512q-8 -41 -49 -41h-205q-16 0 -27 12q-10 12 -6 29l289 1352q8 41 49 41z
" />
    <glyph glyph-name="germandbls" unicode="&#xdf;" horiz-adv-x="2031" 
d="M1954 348q0 -162 -139 -266t-331 -104t-312 88q-122 90 -97 249q10 61 74 62h133q35 0 45 -11t6 -40q-6 -57 37 -82t126 -25t143 30q61 30 61 70t-24 52q-44 23 -105 36t-80 13q-309 51 -309 297q0 131 133 230t306 99t293 -88t93 -221q-8 -37 -22 -49t-43 -12h-142
q-41 0 -38 49t-38 73q-40 24 -110 24t-123 -28q-53 -26 -53 -78t67 -67q67 -16 116 -21q92 -9 179 -44t129 -122q25 -50 25 -114zM938 348q0 -162 -139 -266t-331 -104t-312 88q-121 90 -97 249q10 61 74 62h133q35 0 45 -11t6 -40q-6 -57 37 -82t126 -25t144 30
q60 30 60 79q0 31 -24 43t-45 22q-22 10 -78 18q-56 9 -62 9q-309 51 -309 297q0 131 133 230t306 99t293 -88t93 -221q-8 -37 -22 -49t-43 -12h-142q-40 0 -37 49t-38 73t-111 24t-123 -28q-53 -26 -53 -78t68 -67q68 -16 115 -21q91 -9 179 -44q87 -35 129 -122
q25 -50 25 -114z" />
    <glyph glyph-name="agrave" unicode="&#xe0;" 
d="M715 0q-30 0 -28 41t-17 41q-12 0 -38 -26t-79 -52t-129 -24q-139 0 -238 113q-98 114 -98 288q0 272 141 467t371 194q131 0 201 -94q23 -26 33 -26t18 16l25 59q12 27 30 27h152q16 0 26 -12t7 -29l-203 -942q-8 -41 -49 -41h-125zM743 616q0 162 -137 162
q-127 0 -184 -112t-57 -222q-1 -108 35 -153t111 -45t132 64q100 114 100 306z" />
    <glyph glyph-name="aacute" unicode="&#xe1;" 
d="M715 0q-30 0 -28 41t-17 41q-12 0 -38 -26t-79 -52t-129 -24q-139 0 -238 113q-98 114 -98 288q0 272 141 467t371 194q131 0 201 -94q23 -26 33 -26t18 16l25 59q12 27 30 27h152q16 0 26 -12t7 -29l-203 -942q-8 -41 -49 -41h-125zM743 616q0 162 -137 162
q-127 0 -184 -112t-57 -222q-1 -108 35 -153t111 -45t132 64q100 114 100 306z" />
    <glyph glyph-name="acircumflex" unicode="&#xe2;" 
d="M715 0q-30 0 -28 41t-17 41q-12 0 -38 -26t-79 -52t-129 -24q-139 0 -238 113q-98 114 -98 288q0 272 141 467t371 194q131 0 201 -94q23 -26 33 -26t18 16l25 59q12 27 30 27h152q16 0 26 -12t7 -29l-203 -942q-8 -41 -49 -41h-125zM743 616q0 162 -137 162
q-127 0 -184 -112t-57 -222q-1 -108 35 -153t111 -45t132 64q100 114 100 306z" />
    <glyph glyph-name="atilde" unicode="&#xe3;" 
d="M715 0q-30 0 -28 41t-17 41q-12 0 -38 -26t-79 -52t-129 -24q-139 0 -238 113q-98 114 -98 288q0 272 141 467t371 194q131 0 201 -94q23 -26 33 -26t18 16l25 59q12 27 30 27h152q16 0 26 -12t7 -29l-203 -942q-8 -41 -49 -41h-125zM743 616q0 162 -137 162
q-127 0 -184 -112t-57 -222q-1 -108 35 -153t111 -45t132 64q100 114 100 306z" />
    <glyph glyph-name="adieresis" unicode="&#xe4;" 
d="M715 0q-30 0 -28 41t-17 41q-12 0 -38 -26t-79 -52t-129 -24q-139 0 -238 113q-98 114 -98 288q0 272 141 467t371 194q131 0 201 -94q23 -26 33 -26t18 16l25 59q12 27 30 27h152q16 0 26 -12t7 -29l-203 -942q-8 -41 -49 -41h-125zM743 616q0 162 -137 162
q-127 0 -184 -112t-57 -222q-1 -108 35 -153t111 -45t132 64q100 114 100 306z" />
    <glyph glyph-name="aring" unicode="&#xe5;" 
d="M715 0q-30 0 -28 41t-17 41q-12 0 -38 -26t-79 -52t-129 -24q-139 0 -238 113q-98 114 -98 288q0 272 141 467t371 194q131 0 201 -94q23 -26 33 -26t18 16l25 59q12 27 30 27h152q16 0 26 -12t7 -29l-203 -942q-8 -41 -49 -41h-125zM743 616q0 162 -137 162
q-127 0 -184 -112t-57 -222q-1 -108 35 -153t111 -45t132 64q100 114 100 306z" />
    <glyph glyph-name="ae" unicode="&#xe6;" horiz-adv-x="2109" 
d="M1989 430h-527q-31 0 -37 -31q-18 -82 24 -128t120 -46q131 0 180 86q18 35 53 35h170q41 0 27 -41q-119 -327 -461 -327q-182 0 -280 106t-86 262t68 324t174 272t300 104t290 -108q110 -109 71 -297l-37 -170q-10 -41 -49 -41zM1692 805q-170 0 -205 -129
q-6 -18 16 -19h312q18 0 24 19q33 129 -147 129zM715 0q-30 0 -28 41t-17 41q-12 0 -38 -26t-79 -52t-129 -24q-139 0 -238 113q-98 114 -98 288q0 272 141 467t371 194q131 0 201 -94q23 -26 33 -26t18 16l25 59q12 27 30 27h152q16 0 26 -12t7 -29l-203 -942
q-8 -41 -49 -41h-125zM743 616q0 162 -137 162q-127 0 -184 -112t-57 -222q-1 -108 35 -153t111 -45t132 64q100 114 100 306z" />
    <glyph glyph-name="ccedilla" unicode="&#xe7;" horiz-adv-x="1005" 
d="M899 420q66 0 47 -62q-111 -381 -469 -381q-186 0 -292 108q-105 107 -92 275t67 329t158 259q103 98 297 98t304 -110q110 -111 87 -270q-10 -61 -74 -62h-141q-59 0 -51 58t-26 91q-34 32 -110 31q-139 0 -186 -126t-60 -300q-4 -57 28 -88t106 -30q145 -1 184 118
q20 61 76 62h147z" />
    <glyph glyph-name="egrave" unicode="&#xe8;" horiz-adv-x="1030" 
d="M909 430h-526q-31 0 -37 -31q-18 -82 24 -128t119 -46q131 0 181 86q18 35 53 35h170q41 0 27 -41q-118 -327 -460 -327q-182 0 -281 106t-87 262t68 324t175 272q117 104 299 104t292 -108q110 -109 69 -297l-37 -170q-10 -41 -49 -41zM612 805q-170 0 -204 -129
q-6 -18 16 -19h311q18 0 25 19q34 129 -148 129z" />
    <glyph glyph-name="eacute" unicode="&#xe9;" horiz-adv-x="1030" 
d="M909 430h-526q-31 0 -37 -31q-18 -82 24 -128t119 -46q131 0 181 86q18 35 53 35h170q41 0 27 -41q-118 -327 -460 -327q-182 0 -281 106t-87 262t68 324t175 272q117 104 299 104t292 -108q110 -109 69 -297l-37 -170q-10 -41 -49 -41zM612 805q-170 0 -204 -129
q-6 -18 16 -19h311q18 0 25 19q34 129 -148 129z" />
    <glyph glyph-name="ecircumflex" unicode="&#xea;" horiz-adv-x="1030" 
d="M909 430h-526q-31 0 -37 -31q-18 -82 24 -128t119 -46q131 0 181 86q18 35 53 35h170q41 0 27 -41q-118 -327 -460 -327q-182 0 -281 106t-87 262t68 324t175 272q117 104 299 104t292 -108q110 -109 69 -297l-37 -170q-10 -41 -49 -41zM612 805q-170 0 -204 -129
q-6 -18 16 -19h311q18 0 25 19q34 129 -148 129z" />
    <glyph glyph-name="edieresis" unicode="&#xeb;" horiz-adv-x="1030" 
d="M909 430h-526q-31 0 -37 -31q-18 -82 24 -128t119 -46q131 0 181 86q18 35 53 35h170q41 0 27 -41q-118 -327 -460 -327q-182 0 -281 106t-87 262t68 324t175 272q117 104 299 104t292 -108q110 -109 69 -297l-37 -170q-10 -41 -49 -41zM612 805q-170 0 -204 -129
q-6 -18 16 -19h311q18 0 25 19q34 129 -148 129z" />
    <glyph glyph-name="igrave" unicode="&#xec;" horiz-adv-x="514" 
d="M295 1024h201q14 0 22 -10t4 -23l-205 -958q-8 -33 -38 -33h-201q-12 0 -21 10q-8 11 -4 23l203 958q8 33 39 33zM537 1167h-222q-33 0 -24 33l47 221q8 33 39 33h221q14 0 23 -10q8 -11 4 -23l-47 -221q-8 -33 -41 -33z" />
    <glyph glyph-name="iacute" unicode="&#xed;" horiz-adv-x="514" 
d="M295 1024h201q14 0 22 -10t4 -23l-205 -958q-8 -33 -38 -33h-201q-12 0 -21 10q-8 11 -4 23l203 958q8 33 39 33zM537 1167h-222q-33 0 -24 33l47 221q8 33 39 33h221q14 0 23 -10q8 -11 4 -23l-47 -221q-8 -33 -41 -33z" />
    <glyph glyph-name="icircumflex" unicode="&#xee;" horiz-adv-x="514" 
d="M295 1024h201q14 0 22 -10t4 -23l-205 -958q-8 -33 -38 -33h-201q-12 0 -21 10q-8 11 -4 23l203 958q8 33 39 33zM537 1167h-222q-33 0 -24 33l47 221q8 33 39 33h221q14 0 23 -10q8 -11 4 -23l-47 -221q-8 -33 -41 -33z" />
    <glyph glyph-name="idieresis" unicode="&#xef;" horiz-adv-x="514" 
d="M295 1024h201q14 0 22 -10t4 -23l-205 -958q-8 -33 -38 -33h-201q-12 0 -21 10q-8 11 -4 23l203 958q8 33 39 33zM537 1167h-222q-33 0 -24 33l47 221q8 33 39 33h221q14 0 23 -10q8 -11 4 -23l-47 -221q-8 -33 -41 -33z" />
    <glyph glyph-name="ntilde" unicode="&#xf1;" horiz-adv-x="1077" 
d="M270 0h-184q-16 0 -27 12q-10 12 -6 29l201 942q10 41 49 41h103q25 0 32 -10q7 -9 18 -24t33 -15q21 0 91 36t139 36q162 0 252 -111t55 -270l-133 -625q-8 -41 -49 -41h-185q-16 0 -26 12t-6 29l133 627q10 53 -23 87q-33 33 -103 33t-120 -32q-49 -32 -59 -80
l-136 -635q-8 -41 -49 -41z" />
    <glyph glyph-name="ograve" unicode="&#xf2;" horiz-adv-x="1034" 
d="M778 78q-109 -100 -297 -100q-187 0 -293 108t-94 271t66 326t165 263q110 100 297 100t293 -108q105 -110 93 -272t-66 -325t-164 -263zM424 666q-51 -135 -64 -308q-4 -57 28 -88t106 -30q141 0 184 118q55 160 63 308q4 55 -28 87q-33 32 -107 31q-139 1 -182 -118z
" />
    <glyph glyph-name="oacute" unicode="&#xf3;" horiz-adv-x="1034" 
d="M778 78q-109 -100 -297 -100q-187 0 -293 108t-94 271t66 326t165 263q110 100 297 100t293 -108q105 -110 93 -272t-66 -325t-164 -263zM424 666q-51 -135 -64 -308q-4 -57 28 -88t106 -30q141 0 184 118q55 160 63 308q4 55 -28 87q-33 32 -107 31q-139 1 -182 -118z
" />
    <glyph glyph-name="ocircumflex" unicode="&#xf4;" horiz-adv-x="1034" 
d="M778 78q-109 -100 -297 -100q-187 0 -293 108t-94 271t66 326t165 263q110 100 297 100t293 -108q105 -110 93 -272t-66 -325t-164 -263zM424 666q-51 -135 -64 -308q-4 -57 28 -88t106 -30q141 0 184 118q55 160 63 308q4 55 -28 87q-33 32 -107 31q-139 1 -182 -118z
" />
    <glyph glyph-name="otilde" unicode="&#xf5;" horiz-adv-x="1034" 
d="M778 78q-109 -100 -297 -100q-187 0 -293 108t-94 271t66 326t165 263q110 100 297 100t293 -108q105 -110 93 -272t-66 -325t-164 -263zM424 666q-51 -135 -64 -308q-4 -57 28 -88t106 -30q141 0 184 118q55 160 63 308q4 55 -28 87q-33 32 -107 31q-139 1 -182 -118z
" />
    <glyph glyph-name="odieresis" unicode="&#xf6;" horiz-adv-x="1034" 
d="M778 78q-109 -100 -297 -100q-187 0 -293 108t-94 271t66 326t165 263q110 100 297 100t293 -108q105 -110 93 -272t-66 -325t-164 -263zM424 666q-51 -135 -64 -308q-4 -57 28 -88t106 -30q141 0 184 118q55 160 63 308q4 55 -28 87q-33 32 -107 31q-139 1 -182 -118z
" />
    <glyph glyph-name="oslash" unicode="&#xf8;" horiz-adv-x="1034" 
d="M778 78q-109 -100 -297 -100q-187 0 -293 108t-94 271t66 326t165 263q110 100 297 100t293 -108q105 -110 93 -272t-66 -325t-164 -263zM424 666q-51 -135 -64 -308q-4 -57 28 -88t106 -30q141 0 184 118q55 160 63 308q4 55 -28 87q-33 32 -107 31q-139 1 -182 -118z
" />
    <glyph glyph-name="ugrave" unicode="&#xf9;" 
d="M870 1024h185q16 0 26 -12t6 -29l-200 -942q-8 -41 -49 -41h-103q-25 0 -41 25t-40 25t-94 -37q-70 -36 -138 -36q-162 0 -252 111t-55 270l133 625q8 41 49 41h184q16 0 27 -12q10 -13 6 -29l-133 -627q-9 -53 23 -87q32 -33 103 -33t120 32t59 80l135 635q8 41 49 41z
" />
    <glyph glyph-name="uacute" unicode="&#xfa;" 
d="M870 1024h185q16 0 26 -12t6 -29l-200 -942q-8 -41 -49 -41h-103q-25 0 -41 25t-40 25t-94 -37q-70 -36 -138 -36q-162 0 -252 111t-55 270l133 625q8 41 49 41h184q16 0 27 -12q10 -13 6 -29l-133 -627q-9 -53 23 -87q32 -33 103 -33t120 32t59 80l135 635q8 41 49 41z
" />
    <glyph glyph-name="ucircumflex" unicode="&#xfb;" 
d="M870 1024h185q16 0 26 -12t6 -29l-200 -942q-8 -41 -49 -41h-103q-25 0 -41 25t-40 25t-94 -37q-70 -36 -138 -36q-162 0 -252 111t-55 270l133 625q8 41 49 41h184q16 0 27 -12q10 -13 6 -29l-133 -627q-9 -53 23 -87q32 -33 103 -33t120 32t59 80l135 635q8 41 49 41z
" />
    <glyph glyph-name="udieresis" unicode="&#xfc;" 
d="M870 1024h185q16 0 26 -12t6 -29l-200 -942q-8 -41 -49 -41h-103q-25 0 -41 25t-40 25t-94 -37q-70 -36 -138 -36q-162 0 -252 111t-55 270l133 625q8 41 49 41h184q16 0 27 -12q10 -13 6 -29l-133 -627q-9 -53 23 -87q32 -33 103 -33t120 32t59 80l135 635q8 41 49 41z
" />
    <glyph glyph-name="yacute" unicode="&#xfd;" horiz-adv-x="1001" 
d="M215 1024h193q31 0 32 -31l74 -581q2 -12 10 -13q8 0 15 13l290 581q14 31 45 31h207q23 0 31 -16t-2 -31l-594 -1086q-164 -301 -508 -301h-57q-17 0 -27 12t-6 29l35 162q10 41 49 41h78q119 0 174 98l49 88q12 23 8 46l-145 911q-4 15 11 31t38 16z" />
    <glyph glyph-name="thorn" unicode="&#xfe;" horiz-adv-x="1060" 
d="M709 1044q166 0 253 -110q88 -110 74 -270t-67 -319t-168 -263t-273 -105q-63 1 -108 21t-58 20q-39 0 -49 -41l-80 -346q-10 -41 -49 -41h-180q-41 0 -33 41l289 1352q8 41 49 41h103q18 0 26 -14q16 -33 38 -33q22 -1 91 33q68 34 142 34zM705 358q51 135 63 308
q4 57 -28 88t-105 30q-141 0 -184 -118q-55 -160 -64 -308q-4 -55 29 -87t106 -31q140 -1 183 118z" />
    <glyph glyph-name="ydieresis" unicode="&#xff;" horiz-adv-x="1001" 
d="M215 1024h193q31 0 32 -31l74 -581q2 -12 10 -13q8 0 15 13l290 581q14 31 45 31h207q23 0 31 -16t-2 -31l-594 -1086q-164 -301 -508 -301h-57q-17 0 -27 12t-6 29l35 162q10 41 49 41h78q119 0 174 98l49 88q12 23 8 46l-145 911q-4 15 11 31t38 16z" />
    <glyph glyph-name="Amacron" unicode="&#x100;" horiz-adv-x="1124" 
d="M426 272q-23 0 -37 -30l-102 -211q-14 -31 -45 -31h-226q-22 0 -30 13t-2 28l655 1362q14 31 45 31h274q33 0 33 -31l74 -1362q0 -17 -13 -29t-36 -12h-203q-33 0 -33 31l-8 211q0 31 -24 30h-322zM745 559q20 0 21 23v491q0 8 -8 8h-4q-10 0 -13 -8l-206 -491
q-8 -23 12 -23h198z" />
    <glyph glyph-name="amacron" unicode="&#x101;" 
d="M715 0q-30 0 -28 41t-17 41q-12 0 -38 -26t-79 -52t-129 -24q-139 0 -238 113q-98 114 -98 288q0 272 141 467t371 194q131 0 201 -94q23 -26 33 -26t18 16l25 59q12 27 30 27h152q16 0 26 -12t7 -29l-203 -942q-8 -41 -49 -41h-125zM743 616q0 162 -137 162
q-127 0 -184 -112t-57 -222q-1 -108 35 -153t111 -45t132 64q100 114 100 306z" />
    <glyph glyph-name="Abreve" unicode="&#x102;" horiz-adv-x="1124" 
d="M426 272q-23 0 -37 -30l-102 -211q-14 -31 -45 -31h-226q-22 0 -30 13t-2 28l655 1362q14 31 45 31h274q33 0 33 -31l74 -1362q0 -17 -13 -29t-36 -12h-203q-33 0 -33 31l-8 211q0 31 -24 30h-322zM745 559q20 0 21 23v491q0 8 -8 8h-4q-10 0 -13 -8l-206 -491
q-8 -23 12 -23h198z" />
    <glyph glyph-name="abreve" unicode="&#x103;" 
d="M715 0q-30 0 -28 41t-17 41q-12 0 -38 -26t-79 -52t-129 -24q-139 0 -238 113q-98 114 -98 288q0 272 141 467t371 194q131 0 201 -94q23 -26 33 -26t18 16l25 59q12 27 30 27h152q16 0 26 -12t7 -29l-203 -942q-8 -41 -49 -41h-125zM743 616q0 162 -137 162
q-127 0 -184 -112t-57 -222q-1 -108 35 -153t111 -45t132 64q100 114 100 306z" />
    <glyph glyph-name="Aogonek" unicode="&#x104;" horiz-adv-x="1124" 
d="M426 272q-23 0 -37 -30l-102 -211q-14 -31 -45 -31h-226q-22 0 -30 13t-2 28l655 1362q14 31 45 31h274q33 0 33 -31l74 -1362q0 -17 -13 -29t-36 -12h-203q-33 0 -33 31l-8 211q0 31 -24 30h-322zM745 559q20 0 21 23v491q0 8 -8 8h-4q-10 0 -13 -8l-206 -491
q-8 -23 12 -23h198z" />
    <glyph glyph-name="aogonek" unicode="&#x105;" 
d="M715 0q-30 0 -28 41t-17 41q-12 0 -38 -26t-79 -52t-129 -24q-139 0 -238 113q-98 114 -98 288q0 272 141 467t371 194q131 0 201 -94q23 -26 33 -26t18 16l25 59q12 27 30 27h152q16 0 26 -12t7 -29l-203 -942q-8 -41 -49 -41h-125zM743 616q0 162 -137 162
q-127 0 -184 -112t-57 -222q-1 -108 35 -153t111 -45t132 64q100 114 100 306z" />
    <glyph glyph-name="Cacute" unicode="&#x106;" horiz-adv-x="1150" 
d="M541 -23q-217 1 -332 131t-96 322q29 295 120 574q70 212 196 332t342 120t342 -130t97 -312q-10 -61 -75 -62h-166q-57 0 -49 52q18 164 -164 163q-88 0 -148 -46t-86 -117q-92 -279 -121 -574q-8 -72 33 -118t131 -46q178 0 234 164q14 51 71 51h166q65 0 49 -61
q-49 -197 -188 -320t-356 -123z" />
    <glyph glyph-name="cacute" unicode="&#x107;" horiz-adv-x="1005" 
d="M899 420q66 0 47 -62q-111 -381 -469 -381q-186 0 -292 108q-105 107 -92 275t67 329t158 259q103 98 297 98t304 -110q110 -111 87 -270q-10 -61 -74 -62h-141q-59 0 -51 58t-26 91q-34 32 -110 31q-139 0 -186 -126t-60 -300q-4 -57 28 -88t106 -30q145 -1 184 118
q20 61 76 62h147z" />
    <glyph glyph-name="Ccircumflex" unicode="&#x108;" horiz-adv-x="1150" 
d="M541 -23q-217 1 -332 131t-96 322q29 295 120 574q70 212 196 332t342 120t342 -130t97 -312q-10 -61 -75 -62h-166q-57 0 -49 52q18 164 -164 163q-88 0 -148 -46t-86 -117q-92 -279 -121 -574q-8 -72 33 -118t131 -46q178 0 234 164q14 51 71 51h166q65 0 49 -61
q-49 -197 -188 -320t-356 -123z" />
    <glyph glyph-name="ccircumflex" unicode="&#x109;" horiz-adv-x="1005" 
d="M899 420q66 0 47 -62q-111 -381 -469 -381q-186 0 -292 108q-105 107 -92 275t67 329t158 259q103 98 297 98t304 -110q110 -111 87 -270q-10 -61 -74 -62h-141q-59 0 -51 58t-26 91q-34 32 -110 31q-139 0 -186 -126t-60 -300q-4 -57 28 -88t106 -30q145 -1 184 118
q20 61 76 62h147z" />
    <glyph glyph-name="Cdotaccent" unicode="&#x10a;" horiz-adv-x="1150" 
d="M541 -23q-217 1 -332 131t-96 322q29 295 120 574q70 212 196 332t342 120t342 -130t97 -312q-10 -61 -75 -62h-166q-57 0 -49 52q18 164 -164 163q-88 0 -148 -46t-86 -117q-92 -279 -121 -574q-8 -72 33 -118t131 -46q178 0 234 164q14 51 71 51h166q65 0 49 -61
q-49 -197 -188 -320t-356 -123z" />
    <glyph glyph-name="cdotaccent" unicode="&#x10b;" horiz-adv-x="1005" 
d="M899 420q66 0 47 -62q-111 -381 -469 -381q-186 0 -292 108q-105 107 -92 275t67 329t158 259q103 98 297 98t304 -110q110 -111 87 -270q-10 -61 -74 -62h-141q-59 0 -51 58t-26 91q-34 32 -110 31q-139 0 -186 -126t-60 -300q-4 -57 28 -88t106 -30q145 -1 184 118
q20 61 76 62h147z" />
    <glyph glyph-name="Ccaron" unicode="&#x10c;" horiz-adv-x="1150" 
d="M541 -23q-217 1 -332 131t-96 322q29 295 120 574q70 212 196 332t342 120t342 -130t97 -312q-10 -61 -75 -62h-166q-57 0 -49 52q18 164 -164 163q-88 0 -148 -46t-86 -117q-92 -279 -121 -574q-8 -72 33 -118t131 -46q178 0 234 164q14 51 71 51h166q65 0 49 -61
q-49 -197 -188 -320t-356 -123z" />
    <glyph glyph-name="ccaron" unicode="&#x10d;" horiz-adv-x="1005" 
d="M899 420q66 0 47 -62q-111 -381 -469 -381q-186 0 -292 108q-105 107 -92 275t67 329t158 259q103 98 297 98t304 -110q110 -111 87 -270q-10 -61 -74 -62h-141q-59 0 -51 58t-26 91q-34 32 -110 31q-139 0 -186 -126t-60 -300q-4 -57 28 -88t106 -30q145 -1 184 118
q20 61 76 62h147z" />
    <glyph glyph-name="Dcaron" unicode="&#x10e;" horiz-adv-x="1159" 
d="M406 1434h352q213 0 332 -122t100 -308q-29 -295 -121 -574q-67 -206 -193 -318t-350 -112h-426q-27 0 -40 17t-7 44l279 1311q4 26 26 44t48 18zM737 1147h-137q-31 0 -37 -31l-170 -799q-6 -31 25 -30h129q184 0 233 143q92 279 121 574q16 143 -164 143z" />
    <glyph glyph-name="dcaron" unicode="&#x10f;" horiz-adv-x="1075" 
d="M420 -20q-166 0 -253 110t-74 270t67 319t168 263q115 104 272 105q62 -1 108 -21t58 -20q39 0 49 41l84 366q10 41 49 41h180q41 0 33 -41l-293 -1372q-8 -41 -49 -41h-102q-20 0 -27 14q-16 33 -38 33q-22 1 -90 -33t-142 -34zM424 666q-51 -135 -64 -308
q-4 -57 28 -88t106 -30q141 0 184 118q55 160 63 308q4 55 -28 87q-33 32 -107 31q-139 1 -182 -118z" />
    <glyph glyph-name="Dcroat" unicode="&#x110;" horiz-adv-x="1159" 
d="M406 1434h352q213 0 332 -122t100 -308q-29 -295 -121 -574q-67 -206 -193 -318t-350 -112h-426q-27 0 -40 17t-7 44l279 1311q4 26 26 44t48 18zM737 1147h-137q-31 0 -37 -31l-170 -799q-6 -31 25 -30h129q184 0 233 143q92 279 121 574q16 143 -164 143z" />
    <glyph glyph-name="dcroat" unicode="&#x111;" horiz-adv-x="1075" 
d="M420 -20q-166 0 -253 110t-74 270t67 319t168 263q115 104 272 105q62 -1 108 -21t58 -20q39 0 49 41l84 366q10 41 49 41h180q41 0 33 -41l-293 -1372q-8 -41 -49 -41h-102q-20 0 -27 14q-16 33 -38 33q-22 1 -90 -33t-142 -34zM424 666q-51 -135 -64 -308
q-4 -57 28 -88t106 -30q141 0 184 118q55 160 63 308q4 55 -28 87q-33 32 -107 31q-139 1 -182 -118z" />
    <glyph glyph-name="Emacron" unicode="&#x112;" horiz-adv-x="1032" 
d="M412 287h485q17 -1 27 -13t6 -28l-45 -205q-8 -41 -49 -41h-752q-16 0 -26 12q-9 12 -5 29l287 1352q8 41 49 41h744q16 0 26 -12t6 -29l-45 -205q-8 -41 -49 -41h-477q-20 0 -25 -21l-51 -245q-4 -20 14 -21h461q17 0 27 -12t6 -29l-43 -205q-8 -41 -49 -41h-461
q-23 0 -27 -20l-51 -246q-4 -20 17 -20z" />
    <glyph glyph-name="emacron" unicode="&#x113;" horiz-adv-x="1030" 
d="M909 430h-526q-31 0 -37 -31q-18 -82 24 -128t119 -46q131 0 181 86q18 35 53 35h170q41 0 27 -41q-118 -327 -460 -327q-182 0 -281 106t-87 262t68 324t175 272q117 104 299 104t292 -108q110 -109 69 -297l-37 -170q-10 -41 -49 -41zM612 805q-170 0 -204 -129
q-6 -18 16 -19h311q18 0 25 19q34 129 -148 129z" />
    <glyph glyph-name="Ebreve" unicode="&#x114;" horiz-adv-x="1032" 
d="M412 287h485q17 -1 27 -13t6 -28l-45 -205q-8 -41 -49 -41h-752q-16 0 -26 12q-9 12 -5 29l287 1352q8 41 49 41h744q16 0 26 -12t6 -29l-45 -205q-8 -41 -49 -41h-477q-20 0 -25 -21l-51 -245q-4 -20 14 -21h461q17 0 27 -12t6 -29l-43 -205q-8 -41 -49 -41h-461
q-23 0 -27 -20l-51 -246q-4 -20 17 -20z" />
    <glyph glyph-name="ebreve" unicode="&#x115;" horiz-adv-x="1030" 
d="M909 430h-526q-31 0 -37 -31q-18 -82 24 -128t119 -46q131 0 181 86q18 35 53 35h170q41 0 27 -41q-118 -327 -460 -327q-182 0 -281 106t-87 262t68 324t175 272q117 104 299 104t292 -108q110 -109 69 -297l-37 -170q-10 -41 -49 -41zM612 805q-170 0 -204 -129
q-6 -18 16 -19h311q18 0 25 19q34 129 -148 129z" />
    <glyph glyph-name="Edotaccent" unicode="&#x116;" horiz-adv-x="1032" 
d="M412 287h485q17 -1 27 -13t6 -28l-45 -205q-8 -41 -49 -41h-752q-16 0 -26 12q-9 12 -5 29l287 1352q8 41 49 41h744q16 0 26 -12t6 -29l-45 -205q-8 -41 -49 -41h-477q-20 0 -25 -21l-51 -245q-4 -20 14 -21h461q17 0 27 -12t6 -29l-43 -205q-8 -41 -49 -41h-461
q-23 0 -27 -20l-51 -246q-4 -20 17 -20z" />
    <glyph glyph-name="edotaccent" unicode="&#x117;" horiz-adv-x="1030" 
d="M909 430h-526q-31 0 -37 -31q-18 -82 24 -128t119 -46q131 0 181 86q18 35 53 35h170q41 0 27 -41q-118 -327 -460 -327q-182 0 -281 106t-87 262t68 324t175 272q117 104 299 104t292 -108q110 -109 69 -297l-37 -170q-10 -41 -49 -41zM612 805q-170 0 -204 -129
q-6 -18 16 -19h311q18 0 25 19q34 129 -148 129z" />
    <glyph glyph-name="Eogonek" unicode="&#x118;" horiz-adv-x="1032" 
d="M412 287h485q17 -1 27 -13t6 -28l-45 -205q-8 -41 -49 -41h-752q-16 0 -26 12q-9 12 -5 29l287 1352q8 41 49 41h744q16 0 26 -12t6 -29l-45 -205q-8 -41 -49 -41h-477q-20 0 -25 -21l-51 -245q-4 -20 14 -21h461q17 0 27 -12t6 -29l-43 -205q-8 -41 -49 -41h-461
q-23 0 -27 -20l-51 -246q-4 -20 17 -20z" />
    <glyph glyph-name="eogonek" unicode="&#x119;" horiz-adv-x="1030" 
d="M909 430h-526q-31 0 -37 -31q-18 -82 24 -128t119 -46q131 0 181 86q18 35 53 35h170q41 0 27 -41q-118 -327 -460 -327q-182 0 -281 106t-87 262t68 324t175 272q117 104 299 104t292 -108q110 -109 69 -297l-37 -170q-10 -41 -49 -41zM612 805q-170 0 -204 -129
q-6 -18 16 -19h311q18 0 25 19q34 129 -148 129z" />
    <glyph glyph-name="Ecaron" unicode="&#x11a;" horiz-adv-x="1032" 
d="M412 287h485q17 -1 27 -13t6 -28l-45 -205q-8 -41 -49 -41h-752q-16 0 -26 12q-9 12 -5 29l287 1352q8 41 49 41h744q16 0 26 -12t6 -29l-45 -205q-8 -41 -49 -41h-477q-20 0 -25 -21l-51 -245q-4 -20 14 -21h461q17 0 27 -12t6 -29l-43 -205q-8 -41 -49 -41h-461
q-23 0 -27 -20l-51 -246q-4 -20 17 -20z" />
    <glyph glyph-name="ecaron" unicode="&#x11b;" horiz-adv-x="1030" 
d="M909 430h-526q-31 0 -37 -31q-18 -82 24 -128t119 -46q131 0 181 86q18 35 53 35h170q41 0 27 -41q-118 -327 -460 -327q-182 0 -281 106t-87 262t68 324t175 272q117 104 299 104t292 -108q110 -109 69 -297l-37 -170q-10 -41 -49 -41zM612 805q-170 0 -204 -129
q-6 -18 16 -19h311q18 0 25 19q34 129 -148 129z" />
    <glyph glyph-name="Gcircumflex" unicode="&#x11c;" horiz-adv-x="1159" 
d="M672 535q-16 0 -27 12q-10 12 -6 28l41 195q8 41 49 41h399q16 0 26 -12t7 -29l-76 -350q-41 -197 -183 -320t-360 -123q-218 1 -333 131t-96 322q29 295 120 574q70 208 198 330t342 122t340 -130t97 -312q-10 -61 -75 -62h-166q-57 0 -49 52q18 164 -164 163
q-88 0 -148 -46t-86 -117q-92 -279 -121 -574q-8 -72 33 -118t137 -46t158 45t78 119l18 84q4 20 -14 21h-139z" />
    <glyph glyph-name="gcircumflex" unicode="&#x11d;" horiz-adv-x="1085" 
d="M297 -92v-17q0 -88 127 -88q72 0 130 45t64 109l3 20q2 25 -21 31q-22 6 -64 -12t-98 -16q-154 -2 -246 110t-78 272q13 158 67 321t159 263t283 101q89 0 157 -35t92 -35q24 -1 44 23t38 24h103q16 0 26 -12t7 -29l-224 -1044q-82 -379 -450 -379q-193 0 -288 93
t-77 245q1 16 17 28t32 13h154q21 -1 28 -5t11 -5q4 -2 4 -21zM698 358q51 135 64 308q4 57 -28 88t-105 30q-141 0 -185 -118q-55 -160 -63 -308q-4 -55 29 -87t106 -31q139 -1 182 118z" />
    <glyph glyph-name="Gbreve" unicode="&#x11e;" horiz-adv-x="1159" 
d="M672 535q-16 0 -27 12q-10 12 -6 28l41 195q8 41 49 41h399q16 0 26 -12t7 -29l-76 -350q-41 -197 -183 -320t-360 -123q-218 1 -333 131t-96 322q29 295 120 574q70 208 198 330t342 122t340 -130t97 -312q-10 -61 -75 -62h-166q-57 0 -49 52q18 164 -164 163
q-88 0 -148 -46t-86 -117q-92 -279 -121 -574q-8 -72 33 -118t137 -46t158 45t78 119l18 84q4 20 -14 21h-139z" />
    <glyph glyph-name="gbreve" unicode="&#x11f;" horiz-adv-x="1085" 
d="M297 -92v-17q0 -88 127 -88q72 0 130 45t64 109l3 20q2 25 -21 31q-22 6 -64 -12t-98 -16q-154 -2 -246 110t-78 272q13 158 67 321t159 263t283 101q89 0 157 -35t92 -35q24 -1 44 23t38 24h103q16 0 26 -12t7 -29l-224 -1044q-82 -379 -450 -379q-193 0 -288 93
t-77 245q1 16 17 28t32 13h154q21 -1 28 -5t11 -5q4 -2 4 -21zM698 358q51 135 64 308q4 57 -28 88t-105 30q-141 0 -185 -118q-55 -160 -63 -308q-4 -55 29 -87t106 -31q139 -1 182 118z" />
    <glyph glyph-name="Gdotaccent" unicode="&#x120;" horiz-adv-x="1159" 
d="M672 535q-16 0 -27 12q-10 12 -6 28l41 195q8 41 49 41h399q16 0 26 -12t7 -29l-76 -350q-41 -197 -183 -320t-360 -123q-218 1 -333 131t-96 322q29 295 120 574q70 208 198 330t342 122t340 -130t97 -312q-10 -61 -75 -62h-166q-57 0 -49 52q18 164 -164 163
q-88 0 -148 -46t-86 -117q-92 -279 -121 -574q-8 -72 33 -118t137 -46t158 45t78 119l18 84q4 20 -14 21h-139z" />
    <glyph glyph-name="gdotaccent" unicode="&#x121;" horiz-adv-x="1085" 
d="M297 -92v-17q0 -88 127 -88q72 0 130 45t64 109l3 20q2 25 -21 31q-22 6 -64 -12t-98 -16q-154 -2 -246 110t-78 272q13 158 67 321t159 263t283 101q89 0 157 -35t92 -35q24 -1 44 23t38 24h103q16 0 26 -12t7 -29l-224 -1044q-82 -379 -450 -379q-193 0 -288 93
t-77 245q1 16 17 28t32 13h154q21 -1 28 -5t11 -5q4 -2 4 -21zM698 358q51 135 64 308q4 57 -28 88t-105 30q-141 0 -185 -118q-55 -160 -63 -308q-4 -55 29 -87t106 -31q139 -1 182 118z" />
    <glyph glyph-name="Gcommaaccent" unicode="&#x122;" horiz-adv-x="1159" 
d="M672 535q-16 0 -27 12q-10 12 -6 28l41 195q8 41 49 41h399q16 0 26 -12t7 -29l-76 -350q-41 -197 -183 -320t-360 -123q-218 1 -333 131t-96 322q29 295 120 574q70 208 198 330t342 122t340 -130t97 -312q-10 -61 -75 -62h-166q-57 0 -49 52q18 164 -164 163
q-88 0 -148 -46t-86 -117q-92 -279 -121 -574q-8 -72 33 -118t137 -46t158 45t78 119l18 84q4 20 -14 21h-139z" />
    <glyph glyph-name="gcommaaccent" unicode="&#x123;" horiz-adv-x="1085" 
d="M297 -92v-17q0 -88 127 -88q72 0 130 45t64 109l3 20q2 25 -21 31q-22 6 -64 -12t-98 -16q-154 -2 -246 110t-78 272q13 158 67 321t159 263t283 101q89 0 157 -35t92 -35q24 -1 44 23t38 24h103q16 0 26 -12t7 -29l-224 -1044q-82 -379 -450 -379q-193 0 -288 93
t-77 245q1 16 17 28t32 13h154q21 -1 28 -5t11 -5q4 -2 4 -21zM698 358q51 135 64 308q4 57 -28 88t-105 30q-141 0 -185 -118q-55 -160 -63 -308q-4 -55 29 -87t106 -31q139 -1 182 118z" />
    <glyph glyph-name="Hcircumflex" unicode="&#x124;" horiz-adv-x="1179" 
d="M844 860q23 0 26 21l109 512q8 41 49 41h205q17 0 27 -12t6 -29l-289 -1352q-8 -41 -49 -41h-205q-16 0 -27 12q-10 12 -6 29l109 512q4 20 -15 20h-311q-23 0 -27 -20l-108 -512q-2 -17 -22 -29t-37 -12h-195q-16 0 -26 12q-9 12 -5 29l287 1352q8 41 49 41h205
q16 0 26 -12t7 -29l-109 -512q-4 -20 14 -21h312z" />
    <glyph glyph-name="hcircumflex" unicode="&#x125;" horiz-adv-x="1073" 
d="M268 0h-184q-16 0 -26 12q-9 12 -5 29l291 1372q8 41 49 41h185q16 0 26 -12t6 -29l-73 -348q-6 -27 7 -40q14 -13 66 5t107 17q162 0 251 -111t56 -270l-133 -625q-8 -41 -49 -41h-185q-16 0 -26 12t-6 29l133 625q10 53 -23 88q-33 34 -105 34t-120 -34
q-49 -34 -59 -88l-134 -625q-8 -41 -49 -41z" />
    <glyph glyph-name="Hbar" unicode="&#x126;" horiz-adv-x="1179" 
d="M844 860q23 0 26 21l109 512q8 41 49 41h205q17 0 27 -12t6 -29l-289 -1352q-8 -41 -49 -41h-205q-16 0 -27 12q-10 12 -6 29l109 512q4 20 -15 20h-311q-23 0 -27 -20l-108 -512q-2 -17 -22 -29t-37 -12h-195q-16 0 -26 12q-9 12 -5 29l287 1352q8 41 49 41h205
q16 0 26 -12t7 -29l-109 -512q-4 -20 14 -21h312z" />
    <glyph glyph-name="hbar" unicode="&#x127;" horiz-adv-x="1073" 
d="M268 0h-184q-16 0 -26 12q-9 12 -5 29l291 1372q8 41 49 41h185q16 0 26 -12t6 -29l-73 -348q-6 -27 7 -40q14 -13 66 5t107 17q162 0 251 -111t56 -270l-133 -625q-8 -41 -49 -41h-185q-16 0 -26 12t-6 29l133 625q10 53 -23 88q-33 34 -105 34t-120 -34
q-49 -34 -59 -88l-134 -625q-8 -41 -49 -41z" />
    <glyph glyph-name="Itilde" unicode="&#x128;" horiz-adv-x="540" 
d="M289 0h-205q-16 0 -26 12q-9 12 -5 29l287 1352q8 41 49 41h205q16 0 26 -12t7 -29l-289 -1352q-8 -41 -49 -41z" />
    <glyph glyph-name="itilde" unicode="&#x129;" horiz-adv-x="514" 
d="M295 1024h201q14 0 22 -10t4 -23l-205 -958q-8 -33 -38 -33h-201q-12 0 -21 10q-8 11 -4 23l203 958q8 33 39 33zM537 1167h-222q-33 0 -24 33l47 221q8 33 39 33h221q14 0 23 -10q8 -11 4 -23l-47 -221q-8 -33 -41 -33z" />
    <glyph glyph-name="Imacron" unicode="&#x12a;" horiz-adv-x="540" 
d="M289 0h-205q-16 0 -26 12q-9 12 -5 29l287 1352q8 41 49 41h205q16 0 26 -12t7 -29l-289 -1352q-8 -41 -49 -41z" />
    <glyph glyph-name="imacron" unicode="&#x12b;" horiz-adv-x="514" 
d="M295 1024h201q14 0 22 -10t4 -23l-205 -958q-8 -33 -38 -33h-201q-12 0 -21 10q-8 11 -4 23l203 958q8 33 39 33zM537 1167h-222q-33 0 -24 33l47 221q8 33 39 33h221q14 0 23 -10q8 -11 4 -23l-47 -221q-8 -33 -41 -33z" />
    <glyph glyph-name="Ibreve" unicode="&#x12c;" horiz-adv-x="540" 
d="M289 0h-205q-16 0 -26 12q-9 12 -5 29l287 1352q8 41 49 41h205q16 0 26 -12t7 -29l-289 -1352q-8 -41 -49 -41z" />
    <glyph glyph-name="ibreve" unicode="&#x12d;" horiz-adv-x="514" 
d="M295 1024h201q14 0 22 -10t4 -23l-205 -958q-8 -33 -38 -33h-201q-12 0 -21 10q-8 11 -4 23l203 958q8 33 39 33zM537 1167h-222q-33 0 -24 33l47 221q8 33 39 33h221q14 0 23 -10q8 -11 4 -23l-47 -221q-8 -33 -41 -33z" />
    <glyph glyph-name="Iogonek" unicode="&#x12e;" horiz-adv-x="540" 
d="M289 0h-205q-16 0 -26 12q-9 12 -5 29l287 1352q8 41 49 41h205q16 0 26 -12t7 -29l-289 -1352q-8 -41 -49 -41z" />
    <glyph glyph-name="iogonek" unicode="&#x12f;" horiz-adv-x="514" 
d="M295 1024h201q14 0 22 -10t4 -23l-205 -958q-8 -33 -38 -33h-201q-12 0 -21 10q-8 11 -4 23l203 958q8 33 39 33zM537 1167h-222q-33 0 -24 33l47 221q8 33 39 33h221q14 0 23 -10q8 -11 4 -23l-47 -221q-8 -33 -41 -33z" />
    <glyph glyph-name="Idotaccent" unicode="&#x130;" horiz-adv-x="540" 
d="M289 0h-205q-16 0 -26 12q-9 12 -5 29l287 1352q8 41 49 41h205q16 0 26 -12t7 -29l-289 -1352q-8 -41 -49 -41z" />
    <glyph glyph-name="dotlessi" unicode="&#x131;" horiz-adv-x="514" 
d="M295 1024h201q14 0 22 -10t4 -23l-205 -958q-8 -33 -38 -33h-201q-12 0 -21 10q-8 11 -4 23l203 958q8 33 39 33zM537 1167h-222q-33 0 -24 33l47 221q8 33 39 33h221q14 0 23 -10q8 -11 4 -23l-47 -221q-8 -33 -41 -33z" />
    <glyph glyph-name="IJ" unicode="&#x132;" horiz-adv-x="1609" 
d="M627 530h200q17 0 27 -12t6 -29l-12 -57q-14 -72 26 -119t132 -47q184 0 229 205l195 922q8 41 49 41h207q16 0 26 -12t6 -29l-205 -961q-43 -199 -175 -327t-344 -128q-212 -1 -342 133q-128 134 -87 322l13 57q8 41 49 41zM289 0h-205q-16 0 -26 12q-9 12 -5 29
l287 1352q8 41 49 41h205q16 0 26 -12t7 -29l-289 -1352q-8 -41 -49 -41z" />
    <glyph glyph-name="ij" unicode="&#x133;" horiz-adv-x="1120" 
d="M1122 1167h-221q-29 0 -27 33l48 221q8 33 41 33h221q14 0 21 -10t3 -23l-47 -221q-8 -33 -39 -33zM889 1024h184q17 0 27 -12t6 -29l-221 -1044q-43 -201 -145 -290t-339 -89h-98q-16 0 -27 12q-10 12 -6 29l35 161q10 41 49 41h86q80 0 120 28t58 108l222 1044
q8 41 49 41zM295 1024h201q14 0 22 -10t4 -23l-205 -958q-8 -33 -38 -33h-201q-12 0 -21 10q-8 11 -4 23l203 958q8 33 39 33zM537 1167h-222q-33 0 -24 33l47 221q8 33 39 33h221q14 0 23 -10q8 -11 4 -23l-47 -221q-8 -33 -41 -33z" />
    <glyph glyph-name="Jcircumflex" unicode="&#x134;" horiz-adv-x="1069" 
d="M86 530h201q16 0 26 -12t6 -29l-12 -57q-14 -72 27 -119t131 -47q184 0 229 205l195 922q8 41 49 41h207q16 0 26 -12t7 -29l-205 -961q-43 -199 -175 -327t-345 -128q-213 -1 -341 133t-87 322l12 57q8 41 49 41z" />
    <glyph glyph-name="jcircumflex" unicode="&#x135;" horiz-adv-x="606" 
d="M608 1167h-221q-29 0 -27 33l48 221q8 33 41 33h221q14 0 21 -10t3 -23l-47 -221q-8 -33 -39 -33zM375 1024h184q17 0 27 -12t6 -29l-221 -1044q-43 -201 -145 -290t-339 -89h-98q-16 0 -27 12q-10 12 -6 29l35 161q10 41 49 41h86q80 0 120 28t58 108l222 1044
q8 41 49 41z" />
    <glyph glyph-name="Kcommaaccent" unicode="&#x136;" horiz-adv-x="1148" 
d="M289 0h-203q-16 0 -27 12q-10 12 -6 29l289 1352q8 41 49 41h203q16 0 26 -12t7 -29l-101 -471q0 -6 4 -12t15 5l459 498q20 20 49 21h204q29 0 38 -26t-11 -48l-557 -596q-31 -35 -14 -68l295 -618q12 -30 -3 -54t-57 -24h-188q-31 0 -41 25l-244 559q-5 10 -14 5
q-8 -5 -8 -11l-115 -537q-8 -41 -49 -41z" />
    <glyph glyph-name="kcommaaccent" unicode="&#x137;" horiz-adv-x="970" 
d="M864 0h-182q-30 0 -42 24q-3 5 -5 7l-221 354q-5 10 -14 5t-9 -11l-72 -338q-8 -41 -49 -41h-184q-16 0 -27 12q-10 12 -6 29l293 1372q8 41 49 41h185q16 0 26 -12t6 -29l-147 -702q0 -6 4 -13t14 7l279 292q23 27 55 27h193q32 0 40 -22t-10 -41l-395 -410
q-31 -31 -10 -62l276 -421q14 -20 0 -44t-47 -24z" />
    <glyph glyph-name="kgreenlandic" unicode="&#x138;" horiz-adv-x="970" 
d="M864 0h-182q-30 0 -42 24q-3 5 -5 7l-221 354q-5 10 -14 5t-9 -11l-72 -338q-8 -41 -49 -41h-184q-16 0 -27 12q-10 12 -6 29l293 1372q8 41 49 41h185q16 0 26 -12t6 -29l-147 -702q0 -6 4 -13t14 7l279 292q23 27 55 27h193q32 0 40 -22t-10 -41l-395 -410
q-31 -31 -10 -62l276 -421q14 -20 0 -44t-47 -24z" />
    <glyph glyph-name="Lacute" unicode="&#x139;" horiz-adv-x="940" 
d="M412 287h430q16 -1 26 -13t6 -28l-45 -205q-8 -41 -49 -41h-696q-16 0 -26 12q-9 12 -5 29l287 1352q8 41 49 41h205q16 0 26 -12t7 -29l-232 -1086q-4 -20 17 -20z" />
    <glyph glyph-name="lacute" unicode="&#x13a;" horiz-adv-x="524" 
d="M268 0h-184q-16 0 -26 12q-9 12 -5 29l291 1372q8 41 49 41h185q16 0 26 -12t6 -29l-293 -1372q-8 -41 -49 -41z" />
    <glyph glyph-name="Lcommaaccent" unicode="&#x13b;" horiz-adv-x="940" 
d="M412 287h430q16 -1 26 -13t6 -28l-45 -205q-8 -41 -49 -41h-696q-16 0 -26 12q-9 12 -5 29l287 1352q8 41 49 41h205q16 0 26 -12t7 -29l-232 -1086q-4 -20 17 -20z" />
    <glyph glyph-name="lcommaaccent" unicode="&#x13c;" horiz-adv-x="524" 
d="M268 0h-184q-16 0 -26 12q-9 12 -5 29l291 1372q8 41 49 41h185q16 0 26 -12t6 -29l-293 -1372q-8 -41 -49 -41z" />
    <glyph glyph-name="Lcaron" unicode="&#x13d;" horiz-adv-x="940" 
d="M412 287h430q16 -1 26 -13t6 -28l-45 -205q-8 -41 -49 -41h-696q-16 0 -26 12q-9 12 -5 29l287 1352q8 41 49 41h205q16 0 26 -12t7 -29l-232 -1086q-4 -20 17 -20z" />
    <glyph glyph-name="lcaron" unicode="&#x13e;" horiz-adv-x="524" 
d="M268 0h-184q-16 0 -26 12q-9 12 -5 29l291 1372q8 41 49 41h185q16 0 26 -12t6 -29l-293 -1372q-8 -41 -49 -41z" />
    <glyph glyph-name="Ldot" unicode="&#x13f;" horiz-adv-x="940" 
d="M412 287h430q16 -1 26 -13t6 -28l-45 -205q-8 -41 -49 -41h-696q-16 0 -26 12q-9 12 -5 29l287 1352q8 41 49 41h205q16 0 26 -12t7 -29l-232 -1086q-4 -20 17 -20z" />
    <glyph glyph-name="ldot" unicode="&#x140;" horiz-adv-x="524" 
d="M268 0h-184q-16 0 -26 12q-9 12 -5 29l291 1372q8 41 49 41h185q16 0 26 -12t6 -29l-293 -1372q-8 -41 -49 -41z" />
    <glyph glyph-name="Lslash" unicode="&#x141;" horiz-adv-x="940" 
d="M412 287h430q16 -1 26 -13t6 -28l-45 -205q-8 -41 -49 -41h-696q-16 0 -26 12q-9 12 -5 29l287 1352q8 41 49 41h205q16 0 26 -12t7 -29l-232 -1086q-4 -20 17 -20z" />
    <glyph glyph-name="lslash" unicode="&#x142;" horiz-adv-x="524" 
d="M268 0h-184q-16 0 -26 12q-9 12 -5 29l291 1372q8 41 49 41h185q16 0 26 -12t6 -29l-293 -1372q-8 -41 -49 -41z" />
    <glyph glyph-name="Nacute" unicode="&#x143;" horiz-adv-x="1175" 
d="M924 0h-222q-43 0 -47 35l-147 719q0 6 -5 7q-12 2 -14 -11l-151 -709q-8 -41 -49 -41h-205q-16 0 -26 12q-9 12 -5 29l287 1352q8 41 49 41h223q39 0 43 -37l136 -779q0 -14 10 -8t10 13l164 770q8 41 49 41h205q16 0 26 -12t7 -29l-289 -1352q-8 -41 -49 -41z" />
    <glyph glyph-name="nacute" unicode="&#x144;" horiz-adv-x="1077" 
d="M270 0h-184q-16 0 -27 12q-10 12 -6 29l201 942q10 41 49 41h103q25 0 32 -10q7 -9 18 -24t33 -15q21 0 91 36t139 36q162 0 252 -111t55 -270l-133 -625q-8 -41 -49 -41h-185q-16 0 -26 12t-6 29l133 627q10 53 -23 87q-33 33 -103 33t-120 -32q-49 -32 -59 -80
l-136 -635q-8 -41 -49 -41z" />
    <glyph glyph-name="Ncommaaccent" unicode="&#x145;" horiz-adv-x="1175" 
d="M924 0h-222q-43 0 -47 35l-147 719q0 6 -5 7q-12 2 -14 -11l-151 -709q-8 -41 -49 -41h-205q-16 0 -26 12q-9 12 -5 29l287 1352q8 41 49 41h223q39 0 43 -37l136 -779q0 -14 10 -8t10 13l164 770q8 41 49 41h205q16 0 26 -12t7 -29l-289 -1352q-8 -41 -49 -41z" />
    <glyph glyph-name="ncommaaccent" unicode="&#x146;" horiz-adv-x="1077" 
d="M270 0h-184q-16 0 -27 12q-10 12 -6 29l201 942q10 41 49 41h103q25 0 32 -10q7 -9 18 -24t33 -15q21 0 91 36t139 36q162 0 252 -111t55 -270l-133 -625q-8 -41 -49 -41h-185q-16 0 -26 12t-6 29l133 627q10 53 -23 87q-33 33 -103 33t-120 -32q-49 -32 -59 -80
l-136 -635q-8 -41 -49 -41z" />
    <glyph glyph-name="Ncaron" unicode="&#x147;" horiz-adv-x="1175" 
d="M924 0h-222q-43 0 -47 35l-147 719q0 6 -5 7q-12 2 -14 -11l-151 -709q-8 -41 -49 -41h-205q-16 0 -26 12q-9 12 -5 29l287 1352q8 41 49 41h223q39 0 43 -37l136 -779q0 -14 10 -8t10 13l164 770q8 41 49 41h205q16 0 26 -12t7 -29l-289 -1352q-8 -41 -49 -41z" />
    <glyph glyph-name="ncaron" unicode="&#x148;" horiz-adv-x="1077" 
d="M270 0h-184q-16 0 -27 12q-10 12 -6 29l201 942q10 41 49 41h103q25 0 32 -10q7 -9 18 -24t33 -15q21 0 91 36t139 36q162 0 252 -111t55 -270l-133 -625q-8 -41 -49 -41h-185q-16 0 -26 12t-6 29l133 627q10 53 -23 87q-33 33 -103 33t-120 -32q-49 -32 -59 -80
l-136 -635q-8 -41 -49 -41z" />
    <glyph glyph-name="napostrophe" unicode="&#x149;" horiz-adv-x="1077" 
d="M270 0h-184q-16 0 -27 12q-10 12 -6 29l201 942q10 41 49 41h103q25 0 32 -10q7 -9 18 -24t33 -15q21 0 91 36t139 36q162 0 252 -111t55 -270l-133 -625q-8 -41 -49 -41h-185q-16 0 -26 12t-6 29l133 627q10 53 -23 87q-33 33 -103 33t-120 -32q-49 -32 -59 -80
l-136 -635q-8 -41 -49 -41z" />
    <glyph glyph-name="Eng" unicode="&#x14a;" horiz-adv-x="1175" 
d="M924 0h-222q-43 0 -47 35l-147 719q0 6 -5 7q-12 2 -14 -11l-151 -709q-8 -41 -49 -41h-205q-16 0 -26 12q-9 12 -5 29l287 1352q8 41 49 41h223q39 0 43 -37l136 -779q0 -14 10 -8t10 13l164 770q8 41 49 41h205q16 0 26 -12t7 -29l-289 -1352q-8 -41 -49 -41z" />
    <glyph glyph-name="eng" unicode="&#x14b;" horiz-adv-x="1077" 
d="M270 0h-184q-16 0 -27 12q-10 12 -6 29l201 942q10 41 49 41h103q25 0 32 -10q7 -9 18 -24t33 -15q21 0 91 36t139 36q162 0 252 -111t55 -270l-133 -625q-8 -41 -49 -41h-185q-16 0 -26 12t-6 29l133 627q10 53 -23 87q-33 33 -103 33t-120 -32q-49 -32 -59 -80
l-136 -635q-8 -41 -49 -41z" />
    <glyph glyph-name="Omacron" unicode="&#x14c;" horiz-adv-x="1181" 
d="M771 1456q216 0 336 -132t101 -320q-29 -295 -121 -574q-69 -211 -195 -332t-347 -121q-221 1 -336 131t-96 322q29 295 120 574q70 212 196 332t342 120zM565 266q178 0 234 164q92 279 121 574q8 72 -33 118t-130 45q-89 0 -149 -46t-86 -117q-92 -279 -121 -574
q-8 -72 33 -118t131 -46z" />
    <glyph glyph-name="omacron" unicode="&#x14d;" horiz-adv-x="1034" 
d="M778 78q-109 -100 -297 -100q-187 0 -293 108t-94 271t66 326t165 263q110 100 297 100t293 -108q105 -110 93 -272t-66 -325t-164 -263zM424 666q-51 -135 -64 -308q-4 -57 28 -88t106 -30q141 0 184 118q55 160 63 308q4 55 -28 87q-33 32 -107 31q-139 1 -182 -118z
" />
    <glyph glyph-name="Obreve" unicode="&#x14e;" horiz-adv-x="1181" 
d="M771 1456q216 0 336 -132t101 -320q-29 -295 -121 -574q-69 -211 -195 -332t-347 -121q-221 1 -336 131t-96 322q29 295 120 574q70 212 196 332t342 120zM565 266q178 0 234 164q92 279 121 574q8 72 -33 118t-130 45q-89 0 -149 -46t-86 -117q-92 -279 -121 -574
q-8 -72 33 -118t131 -46z" />
    <glyph glyph-name="obreve" unicode="&#x14f;" horiz-adv-x="1034" 
d="M778 78q-109 -100 -297 -100q-187 0 -293 108t-94 271t66 326t165 263q110 100 297 100t293 -108q105 -110 93 -272t-66 -325t-164 -263zM424 666q-51 -135 -64 -308q-4 -57 28 -88t106 -30q141 0 184 118q55 160 63 308q4 55 -28 87q-33 32 -107 31q-139 1 -182 -118z
" />
    <glyph glyph-name="Ohungarumlaut" unicode="&#x150;" horiz-adv-x="1181" 
d="M771 1456q216 0 336 -132t101 -320q-29 -295 -121 -574q-69 -211 -195 -332t-347 -121q-221 1 -336 131t-96 322q29 295 120 574q70 212 196 332t342 120zM565 266q178 0 234 164q92 279 121 574q8 72 -33 118t-130 45q-89 0 -149 -46t-86 -117q-92 -279 -121 -574
q-8 -72 33 -118t131 -46z" />
    <glyph glyph-name="ohungarumlaut" unicode="&#x151;" horiz-adv-x="1034" 
d="M778 78q-109 -100 -297 -100q-187 0 -293 108t-94 271t66 326t165 263q110 100 297 100t293 -108q105 -110 93 -272t-66 -325t-164 -263zM424 666q-51 -135 -64 -308q-4 -57 28 -88t106 -30q141 0 184 118q55 160 63 308q4 55 -28 87q-33 32 -107 31q-139 1 -182 -118z
" />
    <glyph glyph-name="OE" unicode="&#x152;" horiz-adv-x="2213" 
d="M1593 287h486q16 -1 26 -13t6 -28l-45 -205q-8 -41 -49 -41h-751q-16 0 -26 12q-9 12 -5 29l287 1352q8 41 49 41h743q16 0 26 -12t7 -29l-45 -205q-8 -41 -49 -41h-477q-20 0 -25 -21l-51 -245q-4 -20 14 -21h461q17 0 27 -12t6 -29l-43 -205q-8 -41 -49 -41h-461
q-23 0 -27 -20l-51 -246q-4 -20 16 -20zM771 1456q216 0 336 -132t101 -320q-29 -295 -121 -574q-69 -211 -195 -332t-347 -121q-221 1 -336 131t-96 322q29 295 120 574q70 212 196 332t342 120zM565 266q178 0 234 164q92 279 121 574q8 72 -33 118t-130 45
q-89 0 -149 -46t-86 -117q-92 -279 -121 -574q-8 -72 33 -118t131 -46z" />
    <glyph glyph-name="oe" unicode="&#x153;" horiz-adv-x="2064" 
d="M1944 430h-527q-31 0 -37 -31q-18 -82 24 -128t120 -46q131 0 180 86q18 35 53 35h170q41 0 27 -41q-118 -327 -460 -327q-182 0 -281 106t-87 262t68 324t175 272q117 104 299 104t292 -108q110 -109 70 -297l-37 -170q-10 -41 -49 -41zM1647 805q-170 0 -205 -129
q-6 -18 16 -19h311q18 0 25 19q33 129 -147 129zM778 78q-109 -100 -297 -100q-187 0 -293 108t-94 271t66 326t165 263q110 100 297 100t293 -108q105 -110 93 -272t-66 -325t-164 -263zM424 666q-51 -135 -64 -308q-4 -57 28 -88t106 -30q141 0 184 118q55 160 63 308
q4 55 -28 87q-33 32 -107 31q-139 1 -182 -118z" />
    <glyph glyph-name="Racute" unicode="&#x154;" horiz-adv-x="1110" 
d="M780 1147h-184q-20 0 -25 -21l-51 -245q-4 -20 15 -21h184q72 0 124 49t52 117q0 121 -115 121zM528 573h-53q-23 0 -26 -20l-109 -512q-8 -41 -49 -41h-205q-16 0 -27 12q-10 12 -6 29l289 1352q8 41 49 41h430q153 0 261 -102t108 -262t-86 -280t-230 -178
q-43 -18 -26 -67l176 -484q8 -25 -6 -43t-45 -18h-195q-37 0 -51 41l-168 506q-6 26 -31 26z" />
    <glyph glyph-name="racute" unicode="&#x155;" horiz-adv-x="776" 
d="M479 911q23 0 55 28q32 29 98 57t165 28h69q16 0 26 -12t5 -29l-35 -164q-8 -41 -49 -41h-72q-137 0 -214 -60t-105 -188l-103 -489q-4 -17 -19 -29t-32 -12h-184q-16 0 -26 12q-9 12 -5 29l199 942q4 17 19 29t32 12h103q33 0 36 -27q0 -86 37 -86z" />
    <glyph glyph-name="Rcommaaccent" unicode="&#x156;" horiz-adv-x="1110" 
d="M780 1147h-184q-20 0 -25 -21l-51 -245q-4 -20 15 -21h184q72 0 124 49t52 117q0 121 -115 121zM528 573h-53q-23 0 -26 -20l-109 -512q-8 -41 -49 -41h-205q-16 0 -27 12q-10 12 -6 29l289 1352q8 41 49 41h430q153 0 261 -102t108 -262t-86 -280t-230 -178
q-43 -18 -26 -67l176 -484q8 -25 -6 -43t-45 -18h-195q-37 0 -51 41l-168 506q-6 26 -31 26z" />
    <glyph glyph-name="rcommaaccent" unicode="&#x157;" horiz-adv-x="776" 
d="M479 911q23 0 55 28q32 29 98 57t165 28h69q16 0 26 -12t5 -29l-35 -164q-8 -41 -49 -41h-72q-137 0 -214 -60t-105 -188l-103 -489q-4 -17 -19 -29t-32 -12h-184q-16 0 -26 12q-9 12 -5 29l199 942q4 17 19 29t32 12h103q33 0 36 -27q0 -86 37 -86z" />
    <glyph glyph-name="Rcaron" unicode="&#x158;" horiz-adv-x="1110" 
d="M780 1147h-184q-20 0 -25 -21l-51 -245q-4 -20 15 -21h184q72 0 124 49t52 117q0 121 -115 121zM528 573h-53q-23 0 -26 -20l-109 -512q-8 -41 -49 -41h-205q-16 0 -27 12q-10 12 -6 29l289 1352q8 41 49 41h430q153 0 261 -102t108 -262t-86 -280t-230 -178
q-43 -18 -26 -67l176 -484q8 -25 -6 -43t-45 -18h-195q-37 0 -51 41l-168 506q-6 26 -31 26z" />
    <glyph glyph-name="rcaron" unicode="&#x159;" horiz-adv-x="776" 
d="M479 911q23 0 55 28q32 29 98 57t165 28h69q16 0 26 -12t5 -29l-35 -164q-8 -41 -49 -41h-72q-137 0 -214 -60t-105 -188l-103 -489q-4 -17 -19 -29t-32 -12h-184q-16 0 -26 12q-9 12 -5 29l199 942q4 17 19 29t32 12h103q33 0 36 -27q0 -86 37 -86z" />
    <glyph glyph-name="Sacute" unicode="&#x15a;" horiz-adv-x="1112" 
d="M137 528h207q18 0 28 -12t5 -29q-37 -97 18 -163t149 -66t158 53q66 53 66 125t-47 104q-47 34 -154 60q-188 45 -273 139t-85 254q0 203 157 333t373 130q215 0 341 -137t73 -326q-10 -41 -49 -41h-207q-17 0 -27 12t-6 29l6 31q14 63 -25 109q-40 45 -129 45
q-90 0 -148 -44t-58 -110q0 -32 10 -56t42 -41t45 -25t65 -21q216 -58 309 -150q92 -92 92 -239q0 -217 -150 -366q-151 -148 -396 -148t-378 146t-61 363q14 41 49 41z" />
    <glyph glyph-name="sacute" unicode="&#x15b;" horiz-adv-x="1015" 
d="M938 348q0 -162 -139 -266t-331 -104t-312 88q-121 90 -97 249q10 61 74 62h133q35 0 45 -11t6 -40q-6 -57 37 -82t126 -25t144 30q60 30 60 79q0 31 -24 43t-45 22q-22 10 -78 18q-56 9 -62 9q-309 51 -309 297q0 131 133 230t306 99t293 -88t93 -221q-8 -37 -22 -49
t-43 -12h-142q-40 0 -37 49t-38 73t-111 24t-123 -28q-53 -26 -53 -78t68 -67q68 -16 115 -21q91 -9 179 -44q87 -35 129 -122q25 -50 25 -114z" />
    <glyph glyph-name="Scircumflex" unicode="&#x15c;" horiz-adv-x="1112" 
d="M137 528h207q18 0 28 -12t5 -29q-37 -97 18 -163t149 -66t158 53q66 53 66 125t-47 104q-47 34 -154 60q-188 45 -273 139t-85 254q0 203 157 333t373 130q215 0 341 -137t73 -326q-10 -41 -49 -41h-207q-17 0 -27 12t-6 29l6 31q14 63 -25 109q-40 45 -129 45
q-90 0 -148 -44t-58 -110q0 -32 10 -56t42 -41t45 -25t65 -21q216 -58 309 -150q92 -92 92 -239q0 -217 -150 -366q-151 -148 -396 -148t-378 146t-61 363q14 41 49 41z" />
    <glyph glyph-name="scircumflex" unicode="&#x15d;" horiz-adv-x="1015" 
d="M938 348q0 -162 -139 -266t-331 -104t-312 88q-121 90 -97 249q10 61 74 62h133q35 0 45 -11t6 -40q-6 -57 37 -82t126 -25t144 30q60 30 60 79q0 31 -24 43t-45 22q-22 10 -78 18q-56 9 -62 9q-309 51 -309 297q0 131 133 230t306 99t293 -88t93 -221q-8 -37 -22 -49
t-43 -12h-142q-40 0 -37 49t-38 73t-111 24t-123 -28q-53 -26 -53 -78t68 -67q68 -16 115 -21q91 -9 179 -44q87 -35 129 -122q25 -50 25 -114z" />
    <glyph glyph-name="Scedilla" unicode="&#x15e;" horiz-adv-x="1112" 
d="M137 528h207q18 0 28 -12t5 -29q-37 -97 18 -163t149 -66t158 53q66 53 66 125t-47 104q-47 34 -154 60q-188 45 -273 139t-85 254q0 203 157 333t373 130q215 0 341 -137t73 -326q-10 -41 -49 -41h-207q-17 0 -27 12t-6 29l6 31q14 63 -25 109q-40 45 -129 45
q-90 0 -148 -44t-58 -110q0 -32 10 -56t42 -41t45 -25t65 -21q216 -58 309 -150q92 -92 92 -239q0 -217 -150 -366q-151 -148 -396 -148t-378 146t-61 363q14 41 49 41z" />
    <glyph glyph-name="scedilla" unicode="&#x15f;" horiz-adv-x="1015" 
d="M938 348q0 -162 -139 -266t-331 -104t-312 88q-121 90 -97 249q10 61 74 62h133q35 0 45 -11t6 -40q-6 -57 37 -82t126 -25t144 30q60 30 60 79q0 31 -24 43t-45 22q-22 10 -78 18q-56 9 -62 9q-309 51 -309 297q0 131 133 230t306 99t293 -88t93 -221q-8 -37 -22 -49
t-43 -12h-142q-40 0 -37 49t-38 73t-111 24t-123 -28q-53 -26 -53 -78t68 -67q68 -16 115 -21q91 -9 179 -44q87 -35 129 -122q25 -50 25 -114z" />
    <glyph glyph-name="Scaron" unicode="&#x160;" horiz-adv-x="1112" 
d="M137 528h207q18 0 28 -12t5 -29q-37 -97 18 -163t149 -66t158 53q66 53 66 125t-47 104q-47 34 -154 60q-188 45 -273 139t-85 254q0 203 157 333t373 130q215 0 341 -137t73 -326q-10 -41 -49 -41h-207q-17 0 -27 12t-6 29l6 31q14 63 -25 109q-40 45 -129 45
q-90 0 -148 -44t-58 -110q0 -32 10 -56t42 -41t45 -25t65 -21q216 -58 309 -150q92 -92 92 -239q0 -217 -150 -366q-151 -148 -396 -148t-378 146t-61 363q14 41 49 41z" />
    <glyph glyph-name="scaron" unicode="&#x161;" horiz-adv-x="1015" 
d="M938 348q0 -162 -139 -266t-331 -104t-312 88q-121 90 -97 249q10 61 74 62h133q35 0 45 -11t6 -40q-6 -57 37 -82t126 -25t144 30q60 30 60 79q0 31 -24 43t-45 22q-22 10 -78 18q-56 9 -62 9q-309 51 -309 297q0 131 133 230t306 99t293 -88t93 -221q-8 -37 -22 -49
t-43 -12h-142q-40 0 -37 49t-38 73t-111 24t-123 -28q-53 -26 -53 -78t68 -67q68 -16 115 -21q91 -9 179 -44q87 -35 129 -122q25 -50 25 -114z" />
    <glyph glyph-name="Tcommaaccent" unicode="&#x162;" horiz-adv-x="950" 
d="M498 1147h-267q-16 0 -26 12t-6 29l45 205q8 41 49 41h840q16 0 26 -12t6 -29l-45 -205q-8 -41 -49 -41h-246q-20 0 -24 -21l-232 -1085q-8 -41 -49 -41h-205q-16 0 -26 12t-6 29l231 1085q4 21 -16 21z" />
    <glyph glyph-name="tcommaaccent" unicode="&#x163;" horiz-adv-x="829" 
d="M655 1018h226q16 0 26 -12t6 -29l-34 -164q-3 -17 -19 -29t-33 -12h-225q-18 0 -24 -20l-78 -373q-27 -123 96 -123h143q17 0 27 -12t6 -29l-39 -174q-8 -41 -49 -41h-143q-209 0 -282 88t-28 287l80 377q6 20 -16 20h-160q-16 0 -25 12t-6 29l35 164q8 41 49 41h160
q20 0 25 20l67 314q8 41 49 41h185q16 -1 26 -13t7 -28l-68 -314q-4 -20 16 -20z" />
    <glyph glyph-name="Tcaron" unicode="&#x164;" horiz-adv-x="950" 
d="M498 1147h-267q-16 0 -26 12t-6 29l45 205q8 41 49 41h840q16 0 26 -12t6 -29l-45 -205q-8 -41 -49 -41h-246q-20 0 -24 -21l-232 -1085q-8 -41 -49 -41h-205q-16 0 -26 12t-6 29l231 1085q4 21 -16 21z" />
    <glyph glyph-name="tcaron" unicode="&#x165;" horiz-adv-x="829" 
d="M655 1018h226q16 0 26 -12t6 -29l-34 -164q-3 -17 -19 -29t-33 -12h-225q-18 0 -24 -20l-78 -373q-27 -123 96 -123h143q17 0 27 -12t6 -29l-39 -174q-8 -41 -49 -41h-143q-209 0 -282 88t-28 287l80 377q6 20 -16 20h-160q-16 0 -25 12t-6 29l35 164q8 41 49 41h160
q20 0 25 20l67 314q8 41 49 41h185q16 -1 26 -13t7 -28l-68 -314q-4 -20 16 -20z" />
    <glyph glyph-name="Tbar" unicode="&#x166;" horiz-adv-x="950" 
d="M498 1147h-267q-16 0 -26 12t-6 29l45 205q8 41 49 41h840q16 0 26 -12t6 -29l-45 -205q-8 -41 -49 -41h-246q-20 0 -24 -21l-232 -1085q-8 -41 -49 -41h-205q-16 0 -26 12t-6 29l231 1085q4 21 -16 21z" />
    <glyph glyph-name="tbar" unicode="&#x167;" horiz-adv-x="829" 
d="M655 1018h226q16 0 26 -12t6 -29l-34 -164q-3 -17 -19 -29t-33 -12h-225q-18 0 -24 -20l-78 -373q-27 -123 96 -123h143q17 0 27 -12t6 -29l-39 -174q-8 -41 -49 -41h-143q-209 0 -282 88t-28 287l80 377q6 20 -16 20h-160q-16 0 -25 12t-6 29l35 164q8 41 49 41h160
q20 0 25 20l67 314q8 41 49 41h185q16 -1 26 -13t7 -28l-68 -314q-4 -20 16 -20z" />
    <glyph glyph-name="Utilde" unicode="&#x168;" horiz-adv-x="1189" 
d="M1059 1434h207q16 0 26 -12t6 -29l-204 -963q-44 -199 -182 -326t-355 -127q-217 1 -345 135t-89 318l205 963q8 41 49 41h207q16 0 26 -12t6 -29l-204 -963q-14 -70 28 -117t136 -47q93 0 154 46t75 118l205 963q8 41 49 41z" />
    <glyph glyph-name="utilde" unicode="&#x169;" 
d="M870 1024h185q16 0 26 -12t6 -29l-200 -942q-8 -41 -49 -41h-103q-25 0 -41 25t-40 25t-94 -37q-70 -36 -138 -36q-162 0 -252 111t-55 270l133 625q8 41 49 41h184q16 0 27 -12q10 -13 6 -29l-133 -627q-9 -53 23 -87q32 -33 103 -33t120 32t59 80l135 635q8 41 49 41z
" />
    <glyph glyph-name="Umacron" unicode="&#x16a;" horiz-adv-x="1189" 
d="M1059 1434h207q16 0 26 -12t6 -29l-204 -963q-44 -199 -182 -326t-355 -127q-217 1 -345 135t-89 318l205 963q8 41 49 41h207q16 0 26 -12t6 -29l-204 -963q-14 -70 28 -117t136 -47q93 0 154 46t75 118l205 963q8 41 49 41z" />
    <glyph glyph-name="umacron" unicode="&#x16b;" 
d="M870 1024h185q16 0 26 -12t6 -29l-200 -942q-8 -41 -49 -41h-103q-25 0 -41 25t-40 25t-94 -37q-70 -36 -138 -36q-162 0 -252 111t-55 270l133 625q8 41 49 41h184q16 0 27 -12q10 -13 6 -29l-133 -627q-9 -53 23 -87q32 -33 103 -33t120 32t59 80l135 635q8 41 49 41z
" />
    <glyph glyph-name="Ubreve" unicode="&#x16c;" horiz-adv-x="1189" 
d="M1059 1434h207q16 0 26 -12t6 -29l-204 -963q-44 -199 -182 -326t-355 -127q-217 1 -345 135t-89 318l205 963q8 41 49 41h207q16 0 26 -12t6 -29l-204 -963q-14 -70 28 -117t136 -47q93 0 154 46t75 118l205 963q8 41 49 41z" />
    <glyph glyph-name="ubreve" unicode="&#x16d;" 
d="M870 1024h185q16 0 26 -12t6 -29l-200 -942q-8 -41 -49 -41h-103q-25 0 -41 25t-40 25t-94 -37q-70 -36 -138 -36q-162 0 -252 111t-55 270l133 625q8 41 49 41h184q16 0 27 -12q10 -13 6 -29l-133 -627q-9 -53 23 -87q32 -33 103 -33t120 32t59 80l135 635q8 41 49 41z
" />
    <glyph glyph-name="Uring" unicode="&#x16e;" horiz-adv-x="1189" 
d="M1059 1434h207q16 0 26 -12t6 -29l-204 -963q-44 -199 -182 -326t-355 -127q-217 1 -345 135t-89 318l205 963q8 41 49 41h207q16 0 26 -12t6 -29l-204 -963q-14 -70 28 -117t136 -47q93 0 154 46t75 118l205 963q8 41 49 41z" />
    <glyph glyph-name="uring" unicode="&#x16f;" 
d="M870 1024h185q16 0 26 -12t6 -29l-200 -942q-8 -41 -49 -41h-103q-25 0 -41 25t-40 25t-94 -37q-70 -36 -138 -36q-162 0 -252 111t-55 270l133 625q8 41 49 41h184q16 0 27 -12q10 -13 6 -29l-133 -627q-9 -53 23 -87q32 -33 103 -33t120 32t59 80l135 635q8 41 49 41z
" />
    <glyph glyph-name="Uhungarumlaut" unicode="&#x170;" horiz-adv-x="1189" 
d="M1059 1434h207q16 0 26 -12t6 -29l-204 -963q-44 -199 -182 -326t-355 -127q-217 1 -345 135t-89 318l205 963q8 41 49 41h207q16 0 26 -12t6 -29l-204 -963q-14 -70 28 -117t136 -47q93 0 154 46t75 118l205 963q8 41 49 41z" />
    <glyph glyph-name="uhungarumlaut" unicode="&#x171;" 
d="M870 1024h185q16 0 26 -12t6 -29l-200 -942q-8 -41 -49 -41h-103q-25 0 -41 25t-40 25t-94 -37q-70 -36 -138 -36q-162 0 -252 111t-55 270l133 625q8 41 49 41h184q16 0 27 -12q10 -13 6 -29l-133 -627q-9 -53 23 -87q32 -33 103 -33t120 32t59 80l135 635q8 41 49 41z
" />
    <glyph glyph-name="Uogonek" unicode="&#x172;" horiz-adv-x="1189" 
d="M1059 1434h207q16 0 26 -12t6 -29l-204 -963q-44 -199 -182 -326t-355 -127q-217 1 -345 135t-89 318l205 963q8 41 49 41h207q16 0 26 -12t6 -29l-204 -963q-14 -70 28 -117t136 -47q93 0 154 46t75 118l205 963q8 41 49 41z" />
    <glyph glyph-name="uogonek" unicode="&#x173;" 
d="M870 1024h185q16 0 26 -12t6 -29l-200 -942q-8 -41 -49 -41h-103q-25 0 -41 25t-40 25t-94 -37q-70 -36 -138 -36q-162 0 -252 111t-55 270l133 625q8 41 49 41h184q16 0 27 -12q10 -13 6 -29l-133 -627q-9 -53 23 -87q32 -33 103 -33t120 32t59 80l135 635q8 41 49 41z
" />
    <glyph glyph-name="Wcircumflex" unicode="&#x174;" horiz-adv-x="1603" 
d="M555 0h-285q-33 0 -32 31l20 1362q0 41 49 41h187q33 0 32 -31l-24 -903q0 -14 10 -15h12q12 0 19 15l329 903q12 31 46 31h204q14 0 24 -8t9 -23l-53 -903q0 -14 10 -15h12q12 0 19 15l360 903q10 31 45 31h199q23 0 31 -12t2 -29l-568 -1362q-12 -31 -45 -31h-284
q-33 0 -33 31l29 665q2 12 -10 13q-11 0 -15 -13l-254 -665q-12 -31 -45 -31z" />
    <glyph glyph-name="wcircumflex" unicode="&#x175;" horiz-adv-x="1447" 
d="M752 1024h206q31 0 31 -31v-602q0 -15 15 -9q6 3 8 9l278 602q14 31 47 31h181q22 0 30 -16t-2 -31l-463 -946q-14 -31 -47 -31h-233q-31 0 -31 31l-12 475q0 10 -9 11t-12 -7l-202 -479q-12 -31 -48 -31h-227q-29 0 -31 31l-67 946q-2 15 12 31t37 16h170q31 0 31 -31
l24 -602q0 -15 15 -9q6 3 8 9l244 602q14 31 47 31z" />
    <glyph glyph-name="Ycircumflex" unicode="&#x176;" horiz-adv-x="1021" 
d="M977 1434h223q20 0 28 -18t-7 -40l-557 -913l-91 -422q-8 -41 -49 -41h-205q-16 0 -26 12t-6 29l90 422l-168 913q-4 23 10 40t35 18h205q27 0 33 -31l88 -567q0 -8 8 -9h4q6 1 12 9l328 567q16 31 45 31z" />
    <glyph glyph-name="ycircumflex" unicode="&#x177;" horiz-adv-x="1001" 
d="M215 1024h193q31 0 32 -31l74 -581q2 -12 10 -13q8 0 15 13l290 581q14 31 45 31h207q23 0 31 -16t-2 -31l-594 -1086q-164 -301 -508 -301h-57q-17 0 -27 12t-6 29l35 162q10 41 49 41h78q119 0 174 98l49 88q12 23 8 46l-145 911q-4 15 11 31t38 16z" />
    <glyph glyph-name="Ydieresis" unicode="&#x178;" horiz-adv-x="1021" 
d="M977 1434h223q20 0 28 -18t-7 -40l-557 -913l-91 -422q-8 -41 -49 -41h-205q-16 0 -26 12t-6 29l90 422l-168 913q-4 23 10 40t35 18h205q27 0 33 -31l88 -567q0 -8 8 -9h4q6 1 12 9l328 567q16 31 45 31z" />
    <glyph glyph-name="Zacute" unicode="&#x179;" horiz-adv-x="1073" 
d="M401 281h539q16 -1 26 -13t7 -28l-43 -199q-8 -41 -49 -41h-856q-16 0 -27 12q-10 12 -6 29l47 223q2 16 16 33l738 836q16 20 -9 20h-485q-16 0 -27 12q-10 12 -6 29l43 199q8 41 49 41h797q17 0 27 -12t6 -29l-51 -238q-3 -17 -17 -33l-727 -821q-16 -20 8 -20z" />
    <glyph glyph-name="zacute" unicode="&#x17a;" horiz-adv-x="974" 
d="M623 778h-414q-17 0 -27 12t-6 29l35 164q2 17 18 29t33 12h713q16 0 25 -12t6 -29l-37 -178q-8 -37 -60 -84l-512 -455q-8 -8 -6 -14t12 -6h437q16 0 26 -12t6 -29l-34 -164q-2 -17 -18 -29t-34 -12h-761q-16 0 -26 12q-9 12 -5 29l33 170q7 38 36 63l566 484q8 8 6 14
t-12 6z" />
    <glyph glyph-name="Zdotaccent" unicode="&#x17b;" horiz-adv-x="1073" 
d="M401 281h539q16 -1 26 -13t7 -28l-43 -199q-8 -41 -49 -41h-856q-16 0 -27 12q-10 12 -6 29l47 223q2 16 16 33l738 836q16 20 -9 20h-485q-16 0 -27 12q-10 12 -6 29l43 199q8 41 49 41h797q17 0 27 -12t6 -29l-51 -238q-3 -17 -17 -33l-727 -821q-16 -20 8 -20z" />
    <glyph glyph-name="zdotaccent" unicode="&#x17c;" horiz-adv-x="974" 
d="M623 778h-414q-17 0 -27 12t-6 29l35 164q2 17 18 29t33 12h713q16 0 25 -12t6 -29l-37 -178q-8 -37 -60 -84l-512 -455q-8 -8 -6 -14t12 -6h437q16 0 26 -12t6 -29l-34 -164q-2 -17 -18 -29t-34 -12h-761q-16 0 -26 12q-9 12 -5 29l33 170q7 38 36 63l566 484q8 8 6 14
t-12 6z" />
    <glyph glyph-name="Zcaron" unicode="&#x17d;" horiz-adv-x="1073" 
d="M401 281h539q16 -1 26 -13t7 -28l-43 -199q-8 -41 -49 -41h-856q-16 0 -27 12q-10 12 -6 29l47 223q2 16 16 33l738 836q16 20 -9 20h-485q-16 0 -27 12q-10 12 -6 29l43 199q8 41 49 41h797q17 0 27 -12t6 -29l-51 -238q-3 -17 -17 -33l-727 -821q-16 -20 8 -20z" />
    <glyph glyph-name="zcaron" unicode="&#x17e;" horiz-adv-x="974" 
d="M623 778h-414q-17 0 -27 12t-6 29l35 164q2 17 18 29t33 12h713q16 0 25 -12t6 -29l-37 -178q-8 -37 -60 -84l-512 -455q-8 -8 -6 -14t12 -6h437q16 0 26 -12t6 -29l-34 -164q-2 -17 -18 -29t-34 -12h-761q-16 0 -26 12q-9 12 -5 29l33 170q7 38 36 63l566 484q8 8 6 14
t-12 6z" />
    <glyph glyph-name="Aringacute" unicode="&#x1fa;" horiz-adv-x="1124" 
d="M426 272q-23 0 -37 -30l-102 -211q-14 -31 -45 -31h-226q-22 0 -30 13t-2 28l655 1362q14 31 45 31h274q33 0 33 -31l74 -1362q0 -17 -13 -29t-36 -12h-203q-33 0 -33 31l-8 211q0 31 -24 30h-322zM745 559q20 0 21 23v491q0 8 -8 8h-4q-10 0 -13 -8l-206 -491
q-8 -23 12 -23h198z" />
    <glyph glyph-name="aringacute" unicode="&#x1fb;" 
d="M715 0q-30 0 -28 41t-17 41q-12 0 -38 -26t-79 -52t-129 -24q-139 0 -238 113q-98 114 -98 288q0 272 141 467t371 194q131 0 201 -94q23 -26 33 -26t18 16l25 59q12 27 30 27h152q16 0 26 -12t7 -29l-203 -942q-8 -41 -49 -41h-125zM743 616q0 162 -137 162
q-127 0 -184 -112t-57 -222q-1 -108 35 -153t111 -45t132 64q100 114 100 306z" />
    <glyph glyph-name="AEacute" unicode="&#x1fc;" horiz-adv-x="2156" 
d="M1536 287h485q17 -1 27 -13t6 -28l-45 -205q-8 -41 -49 -41h-752q-16 0 -25 12t-5 29l286 1352q8 41 49 41h744q17 0 27 -12t6 -29l-45 -205q-8 -41 -50 -41h-477q-20 0 -24 -21l-52 -245q-4 -20 15 -21h461q16 0 26 -12t6 -29l-43 -205q-8 -41 -49 -41h-461
q-22 0 -26 -20l-51 -246q-4 -20 16 -20zM426 272q-23 0 -37 -30l-102 -211q-14 -31 -45 -31h-226q-22 0 -30 13t-2 28l655 1362q14 31 45 31h274q33 0 33 -31l74 -1362q0 -17 -13 -29t-36 -12h-203q-33 0 -33 31l-8 211q0 31 -24 30h-322zM745 559q20 0 21 23v491q0 8 -8 8
h-4q-10 0 -13 -8l-206 -491q-8 -23 12 -23h198z" />
    <glyph glyph-name="aeacute" unicode="&#x1fd;" horiz-adv-x="2109" 
d="M1989 430h-527q-31 0 -37 -31q-18 -82 24 -128t120 -46q131 0 180 86q18 35 53 35h170q41 0 27 -41q-119 -327 -461 -327q-182 0 -280 106t-86 262t68 324t174 272t300 104t290 -108q110 -109 71 -297l-37 -170q-10 -41 -49 -41zM1692 805q-170 0 -205 -129
q-6 -18 16 -19h312q18 0 24 19q33 129 -147 129zM715 0q-30 0 -28 41t-17 41q-12 0 -38 -26t-79 -52t-129 -24q-139 0 -238 113q-98 114 -98 288q0 272 141 467t371 194q131 0 201 -94q23 -26 33 -26t18 16l25 59q12 27 30 27h152q16 0 26 -12t7 -29l-203 -942
q-8 -41 -49 -41h-125zM743 616q0 162 -137 162q-127 0 -184 -112t-57 -222q-1 -108 35 -153t111 -45t132 64q100 114 100 306z" />
    <glyph glyph-name="Oslashacute" unicode="&#x1fe;" horiz-adv-x="1181" 
d="M771 1456q216 0 336 -132t101 -320q-29 -295 -121 -574q-69 -211 -195 -332t-347 -121q-221 1 -336 131t-96 322q29 295 120 574q70 212 196 332t342 120zM565 266q178 0 234 164q92 279 121 574q8 72 -33 118t-130 45q-89 0 -149 -46t-86 -117q-92 -279 -121 -574
q-8 -72 33 -118t131 -46z" />
    <glyph glyph-name="oslashacute" unicode="&#x1ff;" horiz-adv-x="1034" 
d="M778 78q-109 -100 -297 -100q-187 0 -293 108t-94 271t66 326t165 263q110 100 297 100t293 -108q105 -110 93 -272t-66 -325t-164 -263zM424 666q-51 -135 -64 -308q-4 -57 28 -88t106 -30q141 0 184 118q55 160 63 308q4 55 -28 87q-33 32 -107 31q-139 1 -182 -118z
" />
    <glyph glyph-name="Scommaaccent" unicode="&#x218;" horiz-adv-x="1112" 
d="M137 528h207q18 0 28 -12t5 -29q-37 -97 18 -163t149 -66t158 53q66 53 66 125t-47 104q-47 34 -154 60q-188 45 -273 139t-85 254q0 203 157 333t373 130q215 0 341 -137t73 -326q-10 -41 -49 -41h-207q-17 0 -27 12t-6 29l6 31q14 63 -25 109q-40 45 -129 45
q-90 0 -148 -44t-58 -110q0 -32 10 -56t42 -41t45 -25t65 -21q216 -58 309 -150q92 -92 92 -239q0 -217 -150 -366q-151 -148 -396 -148t-378 146t-61 363q14 41 49 41z" />
    <glyph glyph-name="scommaaccent" unicode="&#x219;" horiz-adv-x="1015" 
d="M938 348q0 -162 -139 -266t-331 -104t-312 88q-121 90 -97 249q10 61 74 62h133q35 0 45 -11t6 -40q-6 -57 37 -82t126 -25t144 30q60 30 60 79q0 31 -24 43t-45 22q-22 10 -78 18q-56 9 -62 9q-309 51 -309 297q0 131 133 230t306 99t293 -88t93 -221q-8 -37 -22 -49
t-43 -12h-142q-40 0 -37 49t-38 73t-111 24t-123 -28q-53 -26 -53 -78t68 -67q68 -16 115 -21q91 -9 179 -44q87 -35 129 -122q25 -50 25 -114z" />
    <glyph glyph-name="uni021A" unicode="&#x21a;" horiz-adv-x="950" 
d="M498 1147h-267q-16 0 -26 12t-6 29l45 205q8 41 49 41h840q16 0 26 -12t6 -29l-45 -205q-8 -41 -49 -41h-246q-20 0 -24 -21l-232 -1085q-8 -41 -49 -41h-205q-16 0 -26 12t-6 29l231 1085q4 21 -16 21z" />
    <glyph glyph-name="uni021B" unicode="&#x21b;" 
d="M870 1024h185q16 0 26 -12t6 -29l-200 -942q-8 -41 -49 -41h-103q-25 0 -41 25t-40 25t-94 -37q-70 -36 -138 -36q-162 0 -252 111t-55 270l133 625q8 41 49 41h184q16 0 27 -12q10 -13 6 -29l-133 -627q-9 -53 23 -87q32 -33 103 -33t120 32t59 80l135 635q8 41 49 41z
" />
    <glyph glyph-name="uni0401" unicode="&#x401;" horiz-adv-x="0" 
 />
    <glyph glyph-name="uni0403" unicode="&#x403;" horiz-adv-x="0" 
 />
    <glyph glyph-name="uni0407" unicode="&#x407;" horiz-adv-x="0" 
 />
    <glyph glyph-name="uni0409" unicode="&#x409;" horiz-adv-x="0" 
 />
    <glyph glyph-name="uni040A" unicode="&#x40a;" horiz-adv-x="0" 
 />
    <glyph glyph-name="uni040C" unicode="&#x40c;" horiz-adv-x="0" 
 />
    <glyph glyph-name="uni040E" unicode="&#x40e;" horiz-adv-x="0" 
 />
    <glyph glyph-name="uni0419" unicode="&#x419;" horiz-adv-x="0" 
 />
    <glyph glyph-name="uni0439" unicode="&#x439;" horiz-adv-x="0" 
 />
    <glyph glyph-name="uni0451" unicode="&#x451;" horiz-adv-x="0" 
 />
    <glyph glyph-name="uni0453" unicode="&#x453;" horiz-adv-x="0" 
 />
    <glyph glyph-name="uni0457" unicode="&#x457;" horiz-adv-x="0" 
 />
    <glyph glyph-name="uni0459" unicode="&#x459;" horiz-adv-x="0" 
 />
    <glyph glyph-name="uni045A" unicode="&#x45a;" horiz-adv-x="0" 
 />
    <glyph glyph-name="uni045C" unicode="&#x45c;" horiz-adv-x="0" 
 />
    <glyph glyph-name="uni045E" unicode="&#x45e;" horiz-adv-x="0" 
 />
    <glyph glyph-name="uni0490" unicode="&#x490;" horiz-adv-x="0" 
 />
    <glyph glyph-name="uni0491" unicode="&#x491;" horiz-adv-x="0" 
 />
    <glyph glyph-name="Wgrave" unicode="&#x1e80;" horiz-adv-x="1603" 
d="M555 0h-285q-33 0 -32 31l20 1362q0 41 49 41h187q33 0 32 -31l-24 -903q0 -14 10 -15h12q12 0 19 15l329 903q12 31 46 31h204q14 0 24 -8t9 -23l-53 -903q0 -14 10 -15h12q12 0 19 15l360 903q10 31 45 31h199q23 0 31 -12t2 -29l-568 -1362q-12 -31 -45 -31h-284
q-33 0 -33 31l29 665q2 12 -10 13q-11 0 -15 -13l-254 -665q-12 -31 -45 -31z" />
    <glyph glyph-name="wgrave" unicode="&#x1e81;" horiz-adv-x="1447" 
d="M752 1024h206q31 0 31 -31v-602q0 -15 15 -9q6 3 8 9l278 602q14 31 47 31h181q22 0 30 -16t-2 -31l-463 -946q-14 -31 -47 -31h-233q-31 0 -31 31l-12 475q0 10 -9 11t-12 -7l-202 -479q-12 -31 -48 -31h-227q-29 0 -31 31l-67 946q-2 15 12 31t37 16h170q31 0 31 -31
l24 -602q0 -15 15 -9q6 3 8 9l244 602q14 31 47 31z" />
    <glyph glyph-name="Wacute" unicode="&#x1e82;" horiz-adv-x="1603" 
d="M555 0h-285q-33 0 -32 31l20 1362q0 41 49 41h187q33 0 32 -31l-24 -903q0 -14 10 -15h12q12 0 19 15l329 903q12 31 46 31h204q14 0 24 -8t9 -23l-53 -903q0 -14 10 -15h12q12 0 19 15l360 903q10 31 45 31h199q23 0 31 -12t2 -29l-568 -1362q-12 -31 -45 -31h-284
q-33 0 -33 31l29 665q2 12 -10 13q-11 0 -15 -13l-254 -665q-12 -31 -45 -31z" />
    <glyph glyph-name="wacute" unicode="&#x1e83;" horiz-adv-x="1447" 
d="M752 1024h206q31 0 31 -31v-602q0 -15 15 -9q6 3 8 9l278 602q14 31 47 31h181q22 0 30 -16t-2 -31l-463 -946q-14 -31 -47 -31h-233q-31 0 -31 31l-12 475q0 10 -9 11t-12 -7l-202 -479q-12 -31 -48 -31h-227q-29 0 -31 31l-67 946q-2 15 12 31t37 16h170q31 0 31 -31
l24 -602q0 -15 15 -9q6 3 8 9l244 602q14 31 47 31z" />
    <glyph glyph-name="Wdieresis" unicode="&#x1e84;" horiz-adv-x="1603" 
d="M555 0h-285q-33 0 -32 31l20 1362q0 41 49 41h187q33 0 32 -31l-24 -903q0 -14 10 -15h12q12 0 19 15l329 903q12 31 46 31h204q14 0 24 -8t9 -23l-53 -903q0 -14 10 -15h12q12 0 19 15l360 903q10 31 45 31h199q23 0 31 -12t2 -29l-568 -1362q-12 -31 -45 -31h-284
q-33 0 -33 31l29 665q2 12 -10 13q-11 0 -15 -13l-254 -665q-12 -31 -45 -31z" />
    <glyph glyph-name="wdieresis" unicode="&#x1e85;" horiz-adv-x="1447" 
d="M752 1024h206q31 0 31 -31v-602q0 -15 15 -9q6 3 8 9l278 602q14 31 47 31h181q22 0 30 -16t-2 -31l-463 -946q-14 -31 -47 -31h-233q-31 0 -31 31l-12 475q0 10 -9 11t-12 -7l-202 -479q-12 -31 -48 -31h-227q-29 0 -31 31l-67 946q-2 15 12 31t37 16h170q31 0 31 -31
l24 -602q0 -15 15 -9q6 3 8 9l244 602q14 31 47 31z" />
    <glyph glyph-name="Ygrave" unicode="&#x1ef2;" horiz-adv-x="1021" 
d="M977 1434h223q20 0 28 -18t-7 -40l-557 -913l-91 -422q-8 -41 -49 -41h-205q-16 0 -26 12t-6 29l90 422l-168 913q-4 23 10 40t35 18h205q27 0 33 -31l88 -567q0 -8 8 -9h4q6 1 12 9l328 567q16 31 45 31z" />
    <glyph glyph-name="ygrave" unicode="&#x1ef3;" horiz-adv-x="1001" 
d="M215 1024h193q31 0 32 -31l74 -581q2 -12 10 -13q8 0 15 13l290 581q14 31 45 31h207q23 0 31 -16t-2 -31l-594 -1086q-164 -301 -508 -301h-57q-17 0 -27 12t-6 29l35 162q10 41 49 41h78q119 0 174 98l49 88q12 23 8 46l-145 911q-4 15 11 31t38 16z" />
    <glyph glyph-name="endash" unicode="&#x2013;" horiz-adv-x="845" 
d="M223 690h559q16 0 26 -12t7 -29l-43 -203q-8 -41 -49 -40h-559q-16 0 -27 12q-10 12 -6 28l43 203q8 41 49 41z" />
    <glyph glyph-name="emdash" unicode="&#x2014;" horiz-adv-x="845" 
d="M223 690h559q16 0 26 -12t7 -29l-43 -203q-8 -41 -49 -40h-559q-16 0 -27 12q-10 12 -6 28l43 203q8 41 49 41z" />
    <glyph glyph-name="ff" unicode="&#xfb00;" horiz-adv-x="1622" 
d="M1720 1188h-123q-121 0 -145 -113l-8 -37q-4 -20 16 -20h246q16 0 26 -12t5 -29l-35 -164q-8 -41 -49 -41h-246q-20 0 -25 -20l-151 -711q-8 -41 -49 -41h-185q-16 0 -26 12t-6 29l151 711q4 20 -16 20h-164q-16 0 -27 12q-10 12 -6 29l35 164q4 17 19 29t32 12h164
q20 0 25 20l8 41q39 195 139 285t289 90h164q16 0 26 -12t6 -29l-38 -184q-4 -17 -20 -29t-32 -12zM909 1188h-123q-121 0 -145 -113l-8 -37q-4 -20 16 -20h246q15 0 25 -12t6 -29l-35 -164q-8 -41 -49 -41h-246q-20 0 -25 -20l-151 -711q-8 -41 -49 -41h-185q-16 0 -26 12
t-6 29l151 711q4 20 -16 20h-164q-16 0 -27 12q-10 12 -6 29l35 164q4 17 19 29t32 12h164q20 0 25 20l8 41q39 195 139 285t289 90h164q16 0 26 -12t6 -29l-38 -184q-4 -17 -20 -29t-32 -12z" />
    <glyph glyph-name="fi" unicode="&#xfb01;" horiz-adv-x="1325" 
d="M1106 1024h201q14 0 22 -10t4 -23l-205 -958q-8 -33 -38 -33h-201q-12 0 -21 10q-8 11 -4 23l203 958q8 33 39 33zM1348 1167h-222q-33 0 -24 33l47 221q8 33 39 33h221q14 0 23 -10q8 -11 4 -23l-47 -221q-8 -33 -41 -33zM909 1188h-123q-121 0 -145 -113l-8 -37
q-4 -20 16 -20h246q15 0 25 -12t6 -29l-35 -164q-8 -41 -49 -41h-246q-20 0 -25 -20l-151 -711q-8 -41 -49 -41h-185q-16 0 -26 12t-6 29l151 711q4 20 -16 20h-164q-16 0 -27 12q-10 12 -6 29l35 164q4 17 19 29t32 12h164q20 0 25 20l8 41q39 195 139 285t289 90h164
q16 0 26 -12t6 -29l-38 -184q-4 -17 -20 -29t-32 -12z" />
  </font>
</defs>
</svg>
