<?xml version="1.0" encoding="UTF-8"?>
<svg width="32px" height="32px" viewBox="0 0 32 32" version="1.1" xmlns="http://www.w3.org/2000/svg" xmlns:xlink="http://www.w3.org/1999/xlink">
    <g id="Page-1" stroke="none" stroke-width="1" fill="none" fill-rule="evenodd">
        <path d="M30.6667,0 L1.3337,0 C0.5967,0 -0.0003,0.597 -0.0003,1.333 L-0.0003,30.667 C-0.0003,31.403 0.5967,32 1.3337,32 L16.9997,32 L16.9997,20 L12.9997,20 L12.9997,15 L16.9997,15 L16.9997,11 C16.9997,6.867 19.6167,4.833 23.3037,4.833 C25.0697,4.833 26.5877,4.965 27.0297,5.023 L27.0297,9.343 L24.4727,9.344 C22.4677,9.344 21.9997,10.297 21.9997,11.695 L21.9997,15 L26.9997,15 L25.9997,20 L21.9997,20 L22.0797,32 L30.6667,32 C31.4027,32 31.9997,31.403 31.9997,30.667 L31.9997,1.333 C31.9997,0.597 31.4027,0 30.6667,0" id="Fill-3" fill="#ffffff"></path>
    </g>
</svg>