<?xml version="1.0" encoding="UTF-8"?>
<svg width="32px" height="32px" viewBox="0 0 32 32" version="1.1" xmlns="http://www.w3.org/2000/svg" xmlns:xlink="http://www.w3.org/1999/xlink">
    <g id="Page-1" stroke="none" stroke-width="1" fill="none" fill-rule="evenodd">
        <path d="M15.999,0.3951 C7.164,0.3951 0,7.5581 0,16.3961 C0,23.4641 4.584,29.4611 10.943,31.5771 C11.743,31.7241 12.035,31.2301 12.035,30.8061 C12.035,30.4261 12.021,29.4201 12.013,28.0851 C7.562,29.0521 6.623,25.9401 6.623,25.9401 C5.896,24.0921 4.847,23.6001 4.847,23.6001 C3.394,22.6071 4.957,22.6271 4.957,22.6271 C6.562,22.7401 7.407,24.2761 7.407,24.2761 C8.835,26.7211 11.152,26.0151 12.064,25.6051 C12.209,24.5711 12.623,23.8661 13.08,23.4661 C9.527,23.0621 5.792,21.6901 5.792,15.5591 C5.792,13.8121 6.415,12.3841 7.439,11.2651 C7.274,10.8601 6.725,9.2341 7.595,7.0311 C7.595,7.0311 8.939,6.6011 11.995,8.6711 C13.272,8.3161 14.64,8.1391 16.001,8.1321 C17.36,8.1391 18.729,8.3161 20.007,8.6711 C23.061,6.6011 24.402,7.0311 24.402,7.0311 C25.275,9.2341 24.726,10.8601 24.561,11.2651 C25.587,12.3841 26.206,13.8121 26.206,15.5591 C26.206,21.7051 22.465,23.0581 18.901,23.4541 C19.475,23.9481 19.987,24.9241 19.987,26.4171 C19.987,28.5561 19.967,30.2811 19.967,30.8061 C19.967,31.2341 20.255,31.7321 21.067,31.5751 C27.42,29.4551 32,23.4621 32,16.3961 C32,7.5581 24.836,0.3951 15.999,0.3951" id="Fill-34" fill="#ffffff"></path>
    </g>
</svg>