<?xml version="1.0" encoding="UTF-8"?>
<svg width="32px" height="24px" viewBox="0 0 32 24" version="1.1" xmlns="http://www.w3.org/2000/svg" xmlns:xlink="http://www.w3.org/1999/xlink">
    <g id="Page-1" stroke="none" stroke-width="1" fill="none" fill-rule="evenodd">
        <path d="M12.6964,16.1508 L12.6954,7.1598 L21.3414,11.6708 L12.6964,16.1508 Z M31.6804,5.6018 C31.6804,5.6018 31.3674,3.3968 30.4084,2.4258 C29.1914,1.1508 27.8274,1.1448 27.2024,1.0708 C22.7244,0.7468 16.0074,0.7468 16.0074,0.7468 L15.9934,0.7468 C15.9934,0.7468 9.2764,0.7468 4.7984,1.0708 C4.1724,1.1448 2.8094,1.1508 1.5914,2.4258 C0.6324,3.3968 0.3204,5.6018 0.3204,5.6018 C0.3204,5.6018 0.0004,8.1918 0.0004,10.7808 L0.0004,13.2088 C0.0004,15.7988 0.3204,18.3878 0.3204,18.3878 C0.3204,18.3878 0.6324,20.5928 1.5914,21.5638 C2.8094,22.8388 4.4084,22.7988 5.1204,22.9318 C7.6804,23.1778 16.0004,23.2538 16.0004,23.2538 C16.0004,23.2538 22.7244,23.2438 27.2024,22.9198 C27.8274,22.8448 29.1914,22.8388 30.4084,21.5638 C31.3674,20.5928 31.6804,18.3878 31.6804,18.3878 C31.6804,18.3878 32.0004,15.7988 32.0004,13.2088 L32.0004,10.7808 C32.0004,8.1918 31.6804,5.6018 31.6804,5.6018 L31.6804,5.6018 Z" id="Fill-25" fill="#ffffff"></path>
    </g>
</svg>