<?xml version="1.0" encoding="UTF-8" standalone="no"?>
<svg width="33px" height="38px" viewBox="0 0 33 38" version="1.1" xmlns="http://www.w3.org/2000/svg" xmlns:xlink="http://www.w3.org/1999/xlink">
    <!-- Generator: Sketch 41 (35326) - http://www.bohemiancoding.com/sketch -->
    <title>Page 1 Copy 27</title>
    <desc>Created with Sketch.</desc>
    <defs></defs>
    <g id="Page-1" stroke="none" stroke-width="1" fill="none" fill-rule="evenodd">
        <g id="Desktop-HD" transform="translate(-1009.000000, -920.000000)">
            <g id="Page-1-Copy-27" transform="translate(1009.000000, 920.000000)">
                <path d="M30.0666667,14.7847038 L25.6666667,14.7847038 L25.6666667,17.7077808 L28.6,17.7077808 C29.4066667,17.7077808 30.0666667,18.3654731 30.0666667,19.1693192 L30.0666667,26.4770115 C30.0666667,27.2808577 29.4066667,27.93855 28.6,27.93855 L25.6666667,27.93855 L25.6666667,30.8616269 L30.0666667,30.8616269 C31.68,30.8616269 33,29.5462423 33,27.93855 L33,17.7077808 C33,16.1000885 31.68,14.7847038 30.0666667,14.7847038" id="Fill-1" fill="#E6E6E6"></path>
                <path d="M21.2666667,2.92307692 C20.2524667,2.92307692 19.3211333,3.268 18.5775333,3.84238462 C17.8471333,2.42980769 16.3716667,1.46153846 14.6666667,1.46153846 C14.0440667,1.46153846 13.453,1.59161538 12.9162,1.824 C12.0442667,0.715423077 10.6905333,0 9.16666667,0 C6.875,0 4.9632,1.61134615 4.5056,3.75907692 C4.235,3.6955 3.95633333,3.65384615 3.66666667,3.65384615 C1.64193333,3.65384615 0,5.29003846 0,7.30769231 L0,13.1538462 C0,13.9576923 0.66,14.6153846 1.46666667,14.6153846 L2.2,14.6153846 C3.00666667,14.6153846 3.66666667,13.9576923 3.66666667,13.1538462 L3.66666667,11.9875385 C4.11106667,12.2586538 4.6266,12.4230769 5.1832,12.4230769 L6.62566667,12.4230769 C7.56066667,12.4230769 8.38713333,11.9736538 8.9254,11.2896538 C9.724,12.4143077 11.0366667,13.1538462 12.5165333,13.1538462 C14.9365333,13.1538462 16.9165333,11.1807692 16.9165333,8.76923077 L25.4107333,8.76923077 C25.5735333,8.31176923 25.6666667,7.82069231 25.6666667,7.30769231 C25.6666667,4.88592308 23.6969333,2.92307692 21.2666667,2.92307692" id="Fill-3" fill="#E6E6E6"></path>
                <path d="M16.9163867,8.76923077 C16.9163867,11.1807692 14.9363867,13.1538462 12.5163867,13.1538462 C11.03652,13.1538462 9.72385333,12.4143077 8.92525333,11.2896538 C8.38698667,11.9736538 7.56052,12.4230769 6.62552,12.4230769 L5.18305333,12.4230769 C4.62718667,12.4230769 4.11092,12.2586538 3.66652,11.9875385 L3.66652,34.3461538 C3.66652,36.3557692 5.31652,38 7.33318667,38 L21.9998533,38 C24.01652,38 25.66652,36.3557692 25.66652,34.3461538 L25.66652,8.76923077 L16.9163867,8.76923077 Z" id="Fill-5" fill="#F4C44E"></path>
                <path d="M8.06666667,18.2692308 C8.06666667,17.0634615 7.07666667,16.0769231 5.86666667,16.0769231 C4.65666667,16.0769231 3.66666667,17.0634615 3.66666667,18.2692308 L3.66666667,33.6153846 L8.06666667,33.6153846 L8.06666667,18.2692308 Z" id="Fill-7" fill="#F9DA49"></path>
                <path d="M12.4666667,18.2692308 C12.4666667,17.0634615 11.4766667,16.0769231 10.2666667,16.0769231 C9.05666667,16.0769231 8.06666667,17.0634615 8.06666667,18.2692308 L8.06666667,33.6153846 L12.4666667,33.6153846 L12.4666667,18.2692308 Z" id="Fill-9" fill="#EEAF4B"></path>
                <path d="M16.8666667,18.2692308 C16.8666667,17.0634615 15.8766667,16.0769231 14.6666667,16.0769231 C13.4566667,16.0769231 12.4666667,17.0634615 12.4666667,18.2692308 L12.4666667,33.6153846 L16.8666667,33.6153846 L16.8666667,18.2692308 Z" id="Fill-11" fill="#F9DA49"></path>
                <path d="M21.2666667,18.2692308 C21.2666667,17.0634615 20.2766667,16.0769231 19.0666667,16.0769231 C17.8566667,16.0769231 16.8666667,17.0634615 16.8666667,18.2692308 L16.8666667,33.6153846 L21.2666667,33.6153846 L21.2666667,18.2692308 Z" id="Fill-13" fill="#EEAF4B"></path>
                <path d="M25.6666667,18.2692308 C25.6666667,17.0634615 24.6766667,16.0769231 23.4666667,16.0769231 C22.2566667,16.0769231 21.2666667,17.0634615 21.2666667,18.2692308 L21.2666667,33.6153846 L25.6666667,33.6153846 L25.6666667,18.2692308 Z" id="Fill-15" fill="#F9DA49"></path>
            </g>
        </g>
    </g>
</svg>