<?xml version="1.0" encoding="UTF-8" standalone="no"?>
<svg width="41px" height="42px" viewBox="0 0 41 42" version="1.1" xmlns="http://www.w3.org/2000/svg" xmlns:xlink="http://www.w3.org/1999/xlink">
    <!-- Generator: Sketch 41 (35326) - http://www.bohemiancoding.com/sketch -->
    <title>Page 1</title>
    <desc>Created with Sketch.</desc>
    <defs>
        <polygon id="path-1" points="22.5344828 22.4445381 22.5344828 0.225847458 0.483794575 0.225847458 0.483794575 22.4445381 22.5344828 22.4445381"></polygon>
    </defs>
    <g id="Page-1" stroke="none" stroke-width="1" fill="none" fill-rule="evenodd">
        <g id="Desktop-HD" transform="translate(-1277.000000, -919.000000)">
            <g id="Page-1" transform="translate(1278.000000, 919.000000)">
                <g id="Group-3" transform="translate(17.241379, 0.469068)">
                    <mask id="mask-2" fill="white">
                        <use xlink:href="#path-1"></use>
                    </mask>
                    <g id="Clip-2"></g>
                    <path d="M16.8763448,16.7376593 C17.146,16.4659475 17.5818621,16.4659475 17.8515172,16.7376593 L19.7777241,18.6785576 C23.4535862,14.4847441 23.4535862,8.17977797 19.7777241,3.98665932 L17.8515172,5.92686271 C17.7170345,6.0630661 17.5404828,6.13047288 17.363931,6.13047288 C17.1873793,6.13047288 17.0108276,6.0630661 16.8763448,5.92686271 C16.6066897,5.65584576 16.6066897,5.21596441 16.8763448,4.94425254 L18.8025517,3.00404915 C14.6404828,-0.700544068 8.38324138,-0.700544068 4.22186207,3.00404915 L6.14737931,4.94425254 C6.41703448,5.21596441 6.41703448,5.65584576 6.14737931,5.92686271 C6.01289655,6.0630661 5.83634483,6.13047288 5.6597931,6.13047288 C5.48324138,6.13047288 5.30737931,6.0630661 5.1722069,5.92686271 L3.24668966,3.98665932 C-0.581586207,8.35350678 -0.43537931,15.018439 3.70944828,19.1941847 C7.85427586,23.3706254 14.4687586,23.5179475 18.8025517,19.6611678 L16.8763448,17.7202695 C16.6066897,17.4485576 16.6066897,17.0093712 16.8763448,16.7376593" id="Fill-1" fill="#8697CB" mask="url(#mask-2)"></path>
                </g>
                <path d="M2.41972414,25.5600949 L-0.000275862069,27.9985525" id="Stroke-4" stroke="#0096E6" stroke-width="2" stroke-linecap="round"></path>
                <path d="M10.5366897,30.1570983 L9.47186207,31.2300475" id="Stroke-6" stroke="#0096E6" stroke-width="2" stroke-linecap="round"></path>
                <path d="M15.0988966,38.3359729 L12.6788966,40.7744305" id="Stroke-8" stroke="#0096E6" stroke-width="2" stroke-linecap="round"></path>
                <path d="M34.6053103,5.90490339 C37.8370345,9.16127627 37.8370345,14.4412424 34.6053103,17.6983102 C31.3735862,20.9546831 26.1335862,20.9546831 22.9011724,17.6983102 C19.6694483,14.4412424 19.6694483,9.16127627 22.9011724,5.90490339 C26.1335862,2.64853051 31.3735862,2.64853051 34.6053103,5.90490339" id="Fill-10" fill="#B2BDD3"></path>
                <path d="M18.5973103,16.1384339 L13.1483448,21.6289593 C12.0655862,22.7199763 11.7124828,24.2633831 12.080069,25.6539085 L13.1483448,24.5774847 C13.9531724,23.7665186 15.2697241,23.7665186 16.0738621,24.5774847 C16.8786897,25.3884508 16.8786897,26.7150441 16.0738621,27.5253153 L15.0055862,28.6024339 C16.3855862,28.9728237 17.918,28.6163322 19.000069,27.5253153 L24.4490345,22.0347898 C23.1786897,21.4927559 21.9862759,20.7068068 20.9511034,19.663739 C19.9152414,18.6199763 19.1352414,17.4184678 18.5973103,16.1384339" id="Fill-12" fill="#556080"></path>
                <path d="M23.8767586,16.7152831 L22.9015862,17.6978932" id="Stroke-14" stroke="#0096E6" stroke-width="2" stroke-linecap="round"></path>
                <path d="M23.3890345,5.41352881 L21.4628276,3.47263051 C21.2911034,3.62620678 21.1152414,3.77352881 20.9511034,3.93961356 C20.7862759,4.10500339 20.640069,4.28220678 20.4876552,4.45524068 L22.4138621,6.39613898 L23.3890345,7.37874915 C23.5235172,7.51425763 23.700069,7.58235932 23.8766207,7.58235932 C24.0531724,7.58235932 24.2297241,7.51425763 24.3642069,7.37874915 C24.6338621,7.1077322 24.6338621,6.66785085 24.3642069,6.39613898 L23.3890345,5.41352881 Z" id="Fill-16" fill="#E6E7E8"></path>
                <path d="M34.1177241,16.2241169 C33.848069,15.9524051 33.4122069,15.9524051 33.1425517,16.2241169 C32.8728966,16.4958288 32.8728966,16.9350153 33.1425517,17.2067271 L34.1177241,18.1893373 L36.043931,20.1302356 C36.2156552,19.9766593 36.3915172,19.8293373 36.5556552,19.6632525 C36.7204828,19.4978627 36.8666897,19.3206593 37.0191034,19.1476254 L35.0928966,17.2067271 L34.1177241,16.2241169 Z" id="Fill-18" fill="#E6E7E8"></path>
                <path d="M33.6301379,7.58242881 C33.8066897,7.58242881 33.9832414,7.51432712 34.1177241,7.37881864 L35.0928966,6.39620847 L37.0191034,4.45531017 C36.8666897,4.28227627 36.7204828,4.10507288 36.5556552,3.93968305 C36.3915172,3.77359831 36.2156552,3.62627627 36.043931,3.4727 L34.1177241,5.41359831 L33.1425517,6.39620847 C32.8728966,6.66792034 32.8728966,7.10710678 33.1425517,7.37881864 C33.2770345,7.51432712 33.4535862,7.58242881 33.6301379,7.58242881" id="Fill-20" fill="#E6E7E8"></path>
                <path d="M28.7533793,2.76756949 C28.3726897,2.76756949 28.0637241,3.07819661 28.0637241,3.46248475 L28.0637241,4.85231525 C28.0637241,5.23660339 28.3726897,5.54723051 28.7533793,5.54723051 C29.134069,5.54723051 29.4430345,5.23660339 29.4430345,4.85231525 L29.4430345,3.46248475 C29.4430345,3.07819661 29.134069,2.76756949 28.7533793,2.76756949" id="Fill-22" fill="#E6E7E8"></path>
                <path d="M28.7533793,18.0557051 C28.3726897,18.0557051 28.0637241,18.3663322 28.0637241,18.7506203 L28.0637241,20.1404508 C28.0637241,20.524739 28.3726897,20.8353661 28.7533793,20.8353661 C29.134069,20.8353661 29.4430345,20.524739 29.4430345,20.1404508 L29.4430345,18.7506203 C29.4430345,18.3663322 29.134069,18.0557051 28.7533793,18.0557051" id="Fill-24" fill="#E6E7E8"></path>
                <path d="M37.0292414,11.1065525 L35.649931,11.1065525 C35.2692414,11.1065525 34.9602759,11.4171797 34.9602759,11.8014678 C34.9602759,12.1857559 35.2692414,12.4963831 35.649931,12.4963831 L37.0292414,12.4963831 C37.409931,12.4963831 37.7188966,12.1857559 37.7188966,11.8014678 C37.7188966,11.4171797 37.409931,11.1065525 37.0292414,11.1065525" id="Fill-26" fill="#E6E7E8"></path>
                <path d="M21.8568276,11.1065525 L20.4775172,11.1065525 C20.0968276,11.1065525 19.7878621,11.4171797 19.7878621,11.8014678 C19.7878621,12.1857559 20.0968276,12.4963831 20.4775172,12.4963831 L21.8568276,12.4963831 C22.2375172,12.4963831 22.5464828,12.1857559 22.5464828,11.8014678 C22.5464828,11.4171797 22.2375172,11.1065525 21.8568276,11.1065525" id="Fill-28" fill="#E6E7E8"></path>
                <path d="M30.2163448,10.3273441 C31.0246207,11.1417847 31.0246207,12.4614288 30.2163448,13.2758695 C29.408069,14.0896153 28.0984138,14.0896153 27.2901379,13.2758695 C26.4825517,12.4614288 26.4825517,11.1417847 27.2901379,10.3273441 C28.0984138,9.51290339 29.408069,9.51290339 30.2163448,10.3273441" id="Fill-30" fill="#E6E7E8"></path>
                <path d="M14.6112414,16.2239085 L7.78434483,23.1028746 L5.83331034,25.0687898 L2.90710345,22.1202644 L4.85813793,20.1550441 L11.6850345,13.2753831 C12.4933103,12.4616373 13.8029655,12.4616373 14.6112414,13.2753831 L14.6112414,13.2753831 C15.4195172,14.0898237 15.4195172,15.4094678 14.6112414,16.2239085" id="Fill-32" fill="#8697CB"></path>
                <polygon id="Fill-34" fill="#B2BDD3" points="5.34572414 24.5773458 3.39537931 26.5425661 1.44434483 24.5773458 3.39537931 22.6121254"></polygon>
                <polygon id="Fill-36" fill="#B2BDD3" points="13.635931 28.9997864 11.5117931 31.1401254 9.56144828 29.1742102 11.6855862 27.0345661"></polygon>
                <path d="M24.3644138,26.0514695 L17.5375172,32.9304356 L15.5864828,34.8963508 L18.5126897,37.8448763 L20.4630345,35.878961 L27.2906207,28.9999949 C28.0982069,28.1855542 28.0982069,26.8659102 27.2906207,26.0514695 L27.2906207,26.0514695 C26.4823448,25.2370288 25.1726897,25.2370288 24.3644138,26.0514695" id="Fill-38" fill="#8697CB"></path>
                <polygon id="Fill-40" fill="#D1D4D1" points="9.73462069 15.2407424 12.6608276 18.1892678 13.636 17.2066576 10.7097931 14.2581322"></polygon>
                <polygon id="Fill-42" fill="#D1D4D1" points="23.3890345 27.0339407 22.4138621 28.0165508 25.340069 30.9650763 26.3152414 29.9824661"></polygon>
                <polygon id="Fill-44" fill="#B2BDD3" points="16.0742069 35.3876559 14.1238621 37.3528763 16.0742069 39.3187915 18.0245517 37.3528763"></polygon>
                <polygon id="Fill-46" fill="#B2BDD3" points="12.1729655 18.6807814 14.1233103 20.6460017 16.0743448 18.6807814 14.1233103 16.715561"></polygon>
                <polygon id="Fill-48" fill="#B2BDD3" points="21.9261379 24.5773458 19.9757931 26.5425661 21.9261379 28.5084814 23.8764828 26.5425661"></polygon>
                <path d="M37.7188966,38.2082475 C37.7188966,38.5918407 37.409931,38.9031627 37.0292414,38.9031627 C36.6485517,38.9031627 36.3395862,38.5918407 36.3395862,38.2082475 C36.3395862,37.8246542 36.6485517,37.5133322 37.0292414,37.5133322 C37.409931,37.5133322 37.7188966,37.8246542 37.7188966,38.2082475" id="Fill-50" fill="#F3D55B"></path>
                <path d="M35.649931,28.4794339 C35.649931,28.8630271 35.3409655,29.1743492 34.9602759,29.1743492 C34.5795862,29.1743492 34.2706207,28.8630271 34.2706207,28.4794339 C34.2706207,28.0958407 34.5795862,27.7845186 34.9602759,27.7845186 C35.3409655,27.7845186 35.649931,28.0958407 35.649931,28.4794339" id="Fill-52" fill="#F3D55B"></path>
                <path d="M26.6844138,37.5133322 C26.6844138,37.8969254 26.3754483,38.2082475 25.9947586,38.2082475 C25.614069,38.2082475 25.3051034,37.8969254 25.3051034,37.5133322 C25.3051034,37.129739 25.614069,36.8184169 25.9947586,36.8184169 C26.3754483,36.8184169 26.6844138,37.129739 26.6844138,37.5133322" id="Fill-54" fill="#F3D55B"></path>
                <path d="M10.1326897,6.93706102 C10.1326897,7.32065424 9.82372414,7.63197627 9.44303448,7.63197627 C9.06234483,7.63197627 8.75337931,7.32065424 8.75337931,6.93706102 C8.75337931,6.5534678 9.06234483,6.24214576 9.44303448,6.24214576 C9.82372414,6.24214576 10.1326897,6.5534678 10.1326897,6.93706102" id="Fill-56" fill="#F3D55B"></path>
                <path d="M3.23613793,32.6489254 C3.23613793,33.0325186 2.92717241,33.3438407 2.54648276,33.3438407 C2.1657931,33.3438407 1.85682759,33.0325186 1.85682759,32.6489254 C1.85682759,32.2653322 2.1657931,31.9540102 2.54648276,31.9540102 C2.92717241,31.9540102 3.23613793,32.2653322 3.23613793,32.6489254" id="Fill-58" fill="#F3D55B"></path>
                <path d="M16.0742069,27.5255932 L14.1238621,29.4908136 L11.1976552,26.5429831 L13.148,24.5770678 C13.9528276,23.7667966 15.2693793,23.7667966 16.0742069,24.5770678 L16.0742069,24.5770678 C16.8790345,25.3880339 16.8790345,26.7146271 16.0742069,27.5255932" id="Fill-60" fill="#8697CB"></path>
                <path d="M19.4877931,21.8322915 C19.3112414,21.8322915 19.1346897,21.7641898 19.0002069,21.6286814 C18.7305517,21.3569695 18.7305517,20.9177831 19.0002069,20.6460712 L23.3891724,16.2243254 C23.6581379,15.9526136 24.0946897,15.9526136 24.3643448,16.2243254 C24.6333103,16.4953424 24.6333103,16.9352237 24.3643448,17.2069356 L19.9753793,21.6286814 C19.8408966,21.7641898 19.6643448,21.8322915 19.4877931,21.8322915" id="Fill-62" fill="#ECF0F1"></path>
            </g>
        </g>
    </g>
</svg>